<svg version="1.1" xmlns="http://www.w3.org/2000/svg" viewBox="0 0 1200 530.493827160494" width="1200" height="530.493827160494">
  <!-- svg-source:excalidraw -->
  
  <defs>
    <style class="style-fonts">
      @font-face {
        font-family: "Virgil";
        src: url("https://excalidraw.com/Virgil.woff2");
      }
      @font-face {
        font-family: "Cascadia";
        src: url("https://excalidraw.com/Cascadia.woff2");
      }
      @font-face {
        font-family: "Assistant";
        src: url("https://excalidraw.com/Assistant-Regular.woff2");
      }
    </style>
    
  </defs>
  <rect x="0" y="0" width="1200" height="530.493827160494" fill="#ffffff"></rect><g stroke-linecap="round"><g transform="translate(396 205.35802469135814) rotate(0 201 0)"><path d="M0.04 1.08 C66.82 1.29, 334.31 0.14, 401.1 0.09 M-1.39 0.6 C65.72 1.13, 335.93 1.97, 403.35 1.67" stroke="#1e1e1e" stroke-width="2" fill="none"></path></g></g><mask></mask><g stroke-linecap="round" transform="translate(10 223.35802469135814) rotate(0 60 18)"><path d="M9 0 C46.66 -1.3, 88.91 1.13, 111 0 M111 0 C117.75 -0.37, 118.84 2.18, 120 9 M120 9 C118.39 13.33, 121.38 15.83, 120 27 M120 27 C118.93 34.04, 118.8 35.77, 111 36 M111 36 C90.04 35.13, 64.66 36.01, 9 36 M9 36 C2.65 34.32, 0.39 33.3, 0 27 M0 27 C1.04 21.34, 0.43 12.34, 0 9 M0 9 C1.41 4.78, 2.3 0.27, 9 0" stroke="#1e1e1e" stroke-width="2.5" fill="none" stroke-dasharray="1.5 8"></path></g><g transform="translate(26.150039672851562 228.85802469135814) rotate(0 43.84996032714844 12.5)"><text x="43.84996032714844" y="17.52" font-family="Virgil, Segoe UI Emoji" font-size="20px" fill="#1e1e1e" text-anchor="middle" style="white-space: pre;" direction="ltr" dominant-baseline="alphabetic">Message1</text></g><g stroke-linecap="round" transform="translate(158 221.35802469135814) rotate(0 60 18)"><path d="M9 0 C48.58 -0.2, 87.36 -1.55, 111 0 M111 0 C117.64 -1.3, 118.3 2.98, 120 9 M120 9 C121.6 12.85, 121.37 20.05, 120 27 M120 27 C118.53 32.1, 117.29 35.8, 111 36 M111 36 C74.96 36.42, 39.87 36.98, 9 36 M9 36 C2.75 37.29, -1.79 34.26, 0 27 M0 27 C-1.35 22.23, -1.75 19.39, 0 9 M0 9 C-0.57 1.29, 4.33 0.26, 9 0" stroke="#1e1e1e" stroke-width="2.5" fill="none" stroke-dasharray="1.5 8"></path></g><g transform="translate(169.74004364013672 226.85802469135814) rotate(0 48.25995635986328 12.5)"><text x="48.25995635986328" y="17.52" font-family="Virgil, Segoe UI Emoji" font-size="20px" fill="#1e1e1e" text-anchor="middle" style="white-space: pre;" direction="ltr" dominant-baseline="alphabetic">Message2</text></g><g stroke-linecap="round" transform="translate(328 217.35802469135814) rotate(0 60 18)"><path d="M9 0 C42.87 0.58, 76.32 0.41, 111 0 M9 0 C49.33 -1.53, 88.36 -0.65, 111 0 M111 0 C116.8 0.93, 120.56 2.86, 120 9 M111 0 C116.22 0.57, 119.54 4.21, 120 9 M120 9 C121.25 13.07, 120.15 19.16, 120 27 M120 9 C120.44 12.79, 119.18 17.7, 120 27 M120 27 C120.26 32.31, 118.05 36.43, 111 36 M120 27 C120.9 30.75, 115.79 34.34, 111 36 M111 36 C82.15 35.15, 52.97 36.1, 9 36 M111 36 C81.04 36.15, 50.48 36.5, 9 36 M9 36 C5 35.47, -0.94 31.62, 0 27 M9 36 C2.62 34.6, -1.72 32.18, 0 27 M0 27 C-0.51 22.4, -0.83 16.31, 0 9 M0 27 C-0.56 20.91, 0.6 15.97, 0 9 M0 9 C0.63 1.34, 4.09 -0.41, 9 0 M0 9 C1.27 3.41, 5.06 1.89, 9 0" stroke="#1e1e1e" stroke-width="2" fill="none"></path></g><g transform="translate(340.05004119873047 222.85802469135814) rotate(0 47.94995880126953 12.5)"><text x="47.94995880126953" y="17.52" font-family="Virgil, Segoe UI Emoji" font-size="20px" fill="#1e1e1e" text-anchor="middle" style="white-space: pre;" direction="ltr" dominant-baseline="alphabetic">Message3</text></g><g stroke-linecap="round" transform="translate(472 219.35802469135814) rotate(0 60 18)"><path d="M9 0 C49.76 -2.27, 87.91 -0.51, 111 0 M9 0 C38.5 -0.63, 68.39 -0.49, 111 0 M111 0 C118.05 -0.25, 121.29 1.21, 120 9 M111 0 C118.44 -1.41, 120.04 2.76, 120 9 M120 9 C120.94 12.53, 118.41 18.3, 120 27 M120 9 C120.13 14.98, 119.06 19.79, 120 27 M120 27 C118.56 32.57, 117.15 36.55, 111 36 M120 27 C119.49 31.7, 115.6 35.79, 111 36 M111 36 C81.08 36.46, 49.93 37.15, 9 36 M111 36 C69.53 35.35, 28.84 34.77, 9 36 M9 36 C2.29 36.55, 1.51 31.39, 0 27 M9 36 C2.53 37.66, -0.89 34.4, 0 27 M0 27 C-1.06 20.58, 1.26 16.47, 0 9 M0 27 C-0.03 21.53, 0.31 15.87, 0 9 M0 9 C1.64 3.32, 3.74 -0.76, 9 0 M0 9 C2.28 2.6, 2.43 -1.7, 9 0" stroke="#1e1e1e" stroke-width="2" fill="none"></path></g><g transform="translate(484.46004486083984 224.85802469135814) rotate(0 47.539955139160156 12.5)"><text x="47.539955139160156" y="17.52" font-family="Virgil, Segoe UI Emoji" font-size="20px" fill="#1e1e1e" text-anchor="middle" style="white-space: pre;" direction="ltr" dominant-baseline="alphabetic">Message4</text></g><g stroke-linecap="round"><g transform="translate(395.02344334344366 266.4494936641821) rotate(0 201 0)"><path d="M-0.13 0.5 C66.8 0.31, 334.39 0.09, 401.28 -0.09 M-1.65 -0.28 C65.69 0.24, 336.05 1.27, 403.62 1.4" stroke="#1e1e1e" stroke-width="2" fill="none"></path></g></g><mask></mask><g transform="translate(626 217.35802469135814) rotate(0 16.439987182617188 12.5)"><text x="0" y="17.52" font-family="Virgil, Segoe UI Emoji" font-size="20px" fill="#1e1e1e" text-anchor="start" style="white-space: pre;" direction="ltr" dominant-baseline="alphabetic">......</text></g><g stroke-linecap="round" transform="translate(942 119.35802469135815) rotate(0 124 115)"><path d="M128.72 -0.5 C142.26 -1.68, 157.25 3.66, 170.5 8.84 C183.76 14.02, 197.63 21.81, 208.25 30.57 C218.86 39.32, 227.68 49.8, 234.2 61.37 C240.72 72.93, 245.53 86.83, 247.36 99.98 C249.2 113.14, 248.22 127.54, 245.21 140.3 C242.2 153.06, 236.73 165.51, 229.29 176.53 C221.84 187.54, 211.68 198.43, 200.54 206.39 C189.41 214.36, 176.22 220.3, 162.47 224.31 C148.73 228.32, 132.37 230.9, 118.06 230.45 C103.76 230, 89.55 226.69, 76.62 221.59 C63.7 216.5, 50.97 208.6, 40.53 199.89 C30.09 191.17, 20.43 180.95, 13.99 169.3 C7.56 157.65, 3.77 143.13, 1.91 129.97 C0.06 116.81, 0.13 103.13, 2.85 90.34 C5.57 77.56, 10.75 64.32, 18.23 53.27 C25.71 42.21, 36.29 31.83, 47.73 24.02 C59.18 16.21, 72.06 10.16, 86.9 6.4 C101.74 2.64, 127.29 1.78, 136.77 1.46 C146.26 1.14, 144.17 2.63, 143.81 4.48 M166.15 7.84 C179.25 10.75, 192.56 19.24, 203.57 27.64 C214.58 36.03, 225.16 46.98, 232.2 58.22 C239.25 69.47, 243.3 82.36, 245.83 95.11 C248.36 107.86, 249.67 121.57, 247.37 134.7 C245.06 147.83, 239.37 162.39, 232 173.89 C224.62 185.38, 213.94 195.35, 203.12 203.68 C192.31 212.01, 180.16 219.39, 167.09 223.84 C154.03 228.29, 139.12 230.37, 124.73 230.37 C110.33 230.38, 94.18 228.49, 80.72 223.88 C67.25 219.27, 54.76 211.04, 43.94 202.73 C33.12 194.43, 22.69 185.43, 15.79 174.03 C8.9 162.64, 5.04 147.47, 2.57 134.37 C0.11 121.28, -1.39 108.08, 1.02 95.46 C3.44 82.84, 9.61 69.83, 17.05 58.66 C24.48 47.48, 34.97 36.89, 45.64 28.41 C56.31 19.94, 67.98 12.53, 81.07 7.83 C94.16 3.14, 110.04 0.22, 124.17 0.25 C138.31 0.29, 158.97 6.79, 165.87 8.04 C172.76 9.29, 166.16 6.34, 165.54 7.76" stroke="#1e1e1e" stroke-width="2" fill="none"></path></g><g transform="translate(988.9988433613837 222.0407448549052) rotate(0 76.81991577148438 12.5)"><text x="76.81991577148438" y="17.52" font-family="Virgil, Segoe UI Emoji" font-size="20px" fill="#1e1e1e" text-anchor="middle" style="white-space: pre;" direction="ltr" dominant-baseline="alphabetic">producer groups</text></g><g stroke-linecap="round"><g transform="translate(924 231.35802469135814) rotate(0 -74 2)"><path d="M0.65 1.12 C-23.92 1.82, -123.92 3.45, -148.55 3.84 M-0.46 0.67 C-25.15 1.58, -125.29 4.66, -149.79 5.3" stroke="#1e1e1e" stroke-width="2" fill="none"></path></g><g transform="translate(924 231.35802469135814) rotate(0 -74 2)"><path d="M-126.55 -3.93 C-129.55 -2.79, -136.54 1.47, -149.79 5.3 M-126.55 -3.93 C-132.83 -1.78, -138.19 -0.28, -149.79 5.3" stroke="#1e1e1e" stroke-width="2" fill="none"></path></g><g transform="translate(924 231.35802469135814) rotate(0 -74 2)"><path d="M-126.06 13.17 C-129.12 10.74, -136.2 11.43, -149.79 5.3 M-126.06 13.17 C-132.58 10.96, -138.07 8.11, -149.79 5.3" stroke="#1e1e1e" stroke-width="2" fill="none"></path></g></g><mask></mask><g stroke-linecap="round" transform="translate(265.3333333333335 9.999999999999986) rotate(0 61.527777777777885 54.69135802469147)"><path d="M74.65 1.14 C83.91 1.8, 94.12 6.27, 101.22 11.69 C108.33 17.1, 113.64 25.59, 117.26 33.63 C120.89 41.67, 123.73 51.63, 122.97 59.91 C122.22 68.2, 117.9 76.44, 112.71 83.35 C107.53 90.27, 99.82 97.16, 91.85 101.4 C83.87 105.65, 74.36 108.39, 64.88 108.82 C55.4 109.25, 43.61 107.68, 34.99 103.99 C26.36 100.3, 18.77 93.48, 13.14 86.68 C7.51 79.87, 2.83 71.48, 1.2 63.15 C-0.42 54.81, 0.55 44.59, 3.41 36.65 C6.26 28.72, 11.61 21.44, 18.31 15.56 C25.01 9.67, 34.15 3.74, 43.6 1.32 C53.04 -1.09, 69.46 0.75, 75 1.05 C80.55 1.35, 76.91 2.18, 76.85 3.12 M88.97 4.67 C97.35 7.55, 106.69 16.69, 112.18 23.72 C117.67 30.75, 120.81 38.66, 121.92 46.85 C123.02 55.03, 121.75 64.86, 118.81 72.85 C115.87 80.84, 111.33 88.87, 104.27 94.76 C97.2 100.65, 86.08 106.09, 76.4 108.19 C66.72 110.28, 55.55 109.43, 46.19 107.34 C36.82 105.25, 27.22 101.09, 20.22 95.66 C13.21 90.23, 7.45 82.75, 4.16 74.77 C0.87 66.78, -0.43 56.05, 0.48 47.75 C1.4 39.46, 4.4 32, 9.62 25.01 C14.85 18.03, 23.31 10.16, 31.83 5.82 C40.35 1.48, 51.11 -0.86, 60.76 -1.03 C70.4 -1.2, 84.94 3.69, 89.7 4.79 C94.45 5.89, 89.84 4.53, 89.3 5.57" stroke="#1e1e1e" stroke-width="2" fill="none"></path></g><g transform="translate(290.73442235470725 54.518727893130816) rotate(0 36.11997985839844 10)"><text x="36.11997985839844" y="14.016" font-family="Virgil, Segoe UI Emoji" font-size="16px" fill="#1e1e1e" text-anchor="middle" style="white-space: pre;" direction="ltr" dominant-baseline="alphabetic">consumer1</text></g><g stroke-linecap="round"><g transform="translate(258.66666666666697 105.80246913580255) rotate(0 -86.66666666666677 53.333333333333314)"><path d="M1.01 -0.19 C-27.81 17.47, -144.17 87.88, -173.13 105.84 M0.08 -1.33 C-28.86 16.47, -145.08 89.1, -173.97 106.95" stroke="#1e1e1e" stroke-width="2" fill="none"></path></g><g transform="translate(258.66666666666697 105.80246913580255) rotate(0 -86.66666666666677 53.333333333333314)"><path d="M-158.53 87.28 C-163.22 93.31, -168.65 99.45, -173.97 106.95 M-158.53 87.28 C-164.74 94.02, -171.18 101.3, -173.97 106.95" stroke="#1e1e1e" stroke-width="2" fill="none"></path></g><g transform="translate(258.66666666666697 105.80246913580255) rotate(0 -86.66666666666677 53.333333333333314)"><path d="M-149.51 101.81 C-156.73 103.8, -164.71 105.85, -173.97 106.95 M-149.51 101.81 C-159.03 103.05, -168.88 104.84, -173.97 106.95" stroke="#1e1e1e" stroke-width="2" fill="none"></path></g></g><mask></mask><g stroke-linecap="round"><g transform="translate(298.66666666666674 121.3580246913581) rotate(0 -34.44444444444446 44.44444444444443)"><path d="M-0.64 0.3 C-12.08 15.04, -57.15 73.49, -68.66 88.33 M1.22 -0.59 C-10.36 14.31, -58.07 74.93, -69.49 89.57" stroke="#1e1e1e" stroke-width="2" fill="none"></path></g><g transform="translate(298.66666666666674 121.3580246913581) rotate(0 -34.44444444444446 44.44444444444443)"><path d="M-61.73 65.81 C-63.58 73.27, -67.33 78.59, -69.49 89.57 M-61.73 65.81 C-64.35 73.07, -66.17 82.43, -69.49 89.57" stroke="#1e1e1e" stroke-width="2" fill="none"></path></g><g transform="translate(298.66666666666674 121.3580246913581) rotate(0 -34.44444444444446 44.44444444444443)"><path d="M-48.27 76.36 C-54.15 80.58, -61.93 82.75, -69.49 89.57 M-48.27 76.36 C-55.4 80.04, -61.78 85.83, -69.49 89.57" stroke="#1e1e1e" stroke-width="2" fill="none"></path></g></g><mask></mask><g stroke-linecap="round"><g transform="translate(332 136.91358024691363) rotate(0 20 33.33333333333334)"><path d="M0.03 0.77 C6.57 12, 32.69 55.47, 39.37 66.41 M-1.42 0.12 C5.51 11.62, 34.95 56.58, 41.76 67.82" stroke="#1e1e1e" stroke-width="2" fill="none"></path></g><g transform="translate(332 136.91358024691363) rotate(0 20 33.33333333333334)"><path d="M21.97 52.54 C29.23 56.21, 33.65 62.18, 41.76 67.82 M21.97 52.54 C26.99 57.37, 33.02 60.59, 41.76 67.82" stroke="#1e1e1e" stroke-width="2" fill="none"></path></g><g transform="translate(332 136.91358024691363) rotate(0 20 33.33333333333334)"><path d="M36.42 43.4 C39.15 49.9, 39.1 58.68, 41.76 67.82 M36.42 43.4 C37.35 50.89, 39.36 56.65, 41.76 67.82" stroke="#1e1e1e" stroke-width="2" fill="none"></path></g></g><mask></mask><g stroke-linecap="round"><g transform="translate(205.33333333333348 136.91358024691368) rotate(0 69.99999999999989 13.333333333333314)"><path d="M-0.52 0.43 C8.77 4.94, 33.48 22.98, 56.79 27.15 C80.09 31.32, 125.51 26, 139.31 25.44" stroke="#1e1e1e" stroke-width="2.5" fill="none" stroke-dasharray="1.5 8"></path></g><g transform="translate(205.33333333333348 136.91358024691368) rotate(0 69.99999999999989 13.333333333333314)"><path d="M116.49 35.65 C126.1 30.11, 135.1 26.62, 139.31 25.44" stroke="#1e1e1e" stroke-width="2.5" fill="none" stroke-dasharray="1.5 6"></path></g><g transform="translate(205.33333333333348 136.91358024691368) rotate(0 69.99999999999989 13.333333333333314)"><path d="M115.26 18.6 C125.36 19.72, 134.84 22.88, 139.31 25.44" stroke="#1e1e1e" stroke-width="2.5" fill="none" stroke-dasharray="1.5 6"></path></g></g><mask></mask><g stroke-linecap="round" transform="translate(274.9166666666665 411.11111111111103) rotate(0 65.97222222222234 54.69135802469145)"><path d="M93.31 5.84 C102.54 8.65, 112.84 15.26, 119.07 21.94 C125.29 28.63, 128.95 37.53, 130.68 45.94 C132.41 54.36, 132.56 64.35, 129.43 72.42 C126.3 80.5, 119.27 88.58, 111.9 94.41 C104.54 100.23, 94.95 104.94, 85.24 107.37 C75.52 109.8, 63.79 110.81, 53.62 109.01 C43.46 107.2, 32.35 102.14, 24.26 96.56 C16.16 90.97, 9.01 83.33, 5.05 75.5 C1.09 67.68, -0.35 57.78, 0.49 49.6 C1.32 41.41, 4.58 33.57, 10.04 26.39 C15.5 19.21, 24.31 10.75, 33.23 6.51 C42.15 2.28, 53.21 1.1, 63.56 0.99 C73.91 0.87, 89.51 4.66, 95.34 5.84 C101.17 7.02, 98.74 7.2, 98.55 8.07 M62.64 0.58 C72.32 -0.42, 85.95 1.82, 95.15 5.36 C104.34 8.9, 111.65 15.36, 117.79 21.82 C123.93 28.28, 130.08 35.82, 131.98 44.13 C133.88 52.44, 132.76 63.3, 129.18 71.68 C125.61 80.05, 117.96 88.3, 110.54 94.39 C103.12 100.47, 94.31 105.71, 84.67 108.18 C75.04 110.65, 62.53 111.13, 52.74 109.19 C42.96 107.24, 33.61 101.81, 25.96 96.49 C18.32 91.18, 11.07 84.98, 6.88 77.3 C2.69 69.61, 0.33 59.07, 0.81 50.36 C1.3 41.64, 4.39 32.26, 9.78 25 C15.17 17.74, 24.26 10.74, 33.15 6.79 C42.04 2.84, 58.33 2.06, 63.12 1.31 C67.92 0.56, 61.83 1.5, 61.91 2.3" stroke="#1e1e1e" stroke-width="2" fill="none"></path></g><g transform="translate(301.0915034492815 455.6298390042419) rotate(0 39.647979736328125 10)"><text x="39.647979736328125" y="14.016" font-family="Virgil, Segoe UI Emoji" font-size="16px" fill="#1e1e1e" text-anchor="middle" style="white-space: pre;" direction="ltr" dominant-baseline="alphabetic">consumer2</text></g><g transform="translate(365.33333333333326 149.50618414231286) rotate(0 62.93596649169922 10)"><text x="0" y="14.016" font-family="Virgil, Segoe UI Emoji" font-size="16px" fill="#1e1e1e" text-anchor="start" style="white-space: pre;" direction="ltr" dominant-baseline="alphabetic">reading at time1</text></g><g mask="url(#mask-11x7wjlOwZhiVkPH5DQkD)" stroke-linecap="round"><g transform="translate(316.44444444444434 407.0617736062887) rotate(0 -35.55555555555554 -67.77777777777777)"><path d="M-0.74 -0.09 C-12.54 -22.52, -58.92 -112.31, -70.54 -135.03" stroke="#1e1e1e" stroke-width="2.5" fill="none" stroke-dasharray="1.5 8"></path></g><g transform="translate(316.44444444444434 407.0617736062887) rotate(0 -35.55555555555554 -67.77777777777777)"><path d="M-52.19 -118.05 C-58.2 -122.69, -63.09 -128.09, -70.54 -135.03" stroke="#1e1e1e" stroke-width="2.5" fill="none" stroke-dasharray="1.5 6"></path></g><g transform="translate(316.44444444444434 407.0617736062887) rotate(0 -35.55555555555554 -67.77777777777777)"><path d="M-67.39 -110.23 C-68.47 -117.3, -68.46 -125.22, -70.54 -135.03" stroke="#1e1e1e" stroke-width="2.5" fill="none" stroke-dasharray="1.5 6"></path></g></g><mask id="mask-11x7wjlOwZhiVkPH5DQkD"><rect x="0" y="0" fill="#fff" width="487.55555555555543" height="642.6173291618443"></rect><rect x="209.91292148166224" y="319.2839958285109" fill="#000" width="141.95193481445312" height="40" opacity="1"></rect></mask><g transform="translate(209.91292148166224 319.28399582851085) rotate(0 70.89279158264395 20.21977157443763)"><text x="70.97596740722656" y="14.016" font-family="Virgil, Segoe UI Emoji" font-size="16px" fill="#1e1e1e" text-anchor="middle" style="white-space: pre;" direction="ltr" dominant-baseline="alphabetic">want to read at </text><text x="70.97596740722656" y="34.016" font-family="Virgil, Segoe UI Emoji" font-size="16px" fill="#1e1e1e" text-anchor="middle" style="white-space: pre;" direction="ltr" dominant-baseline="alphabetic">time2</text></g><g transform="translate(76.44444444444451 375.89510693962194) rotate(0 100.33992004394534 12.5)"><text x="0" y="17.52" font-family="Virgil, Segoe UI Emoji" font-size="20px" fill="#e03131" text-anchor="start" style="white-space: pre;" direction="ltr" dominant-baseline="alphabetic">can't find Message2</text></g></svg>