<svg version="1.1" xmlns="http://www.w3.org/2000/svg" viewBox="0 0 644.059814453125 392" width="644.059814453125" height="392">
  <!-- svg-source:excalidraw -->
  
  <defs>
    <style class="style-fonts">
      @font-face {
        font-family: "Virgil";
        src: url("https://excalidraw.com/Virgil.woff2");
      }
      @font-face {
        font-family: "Cascadia";
        src: url("https://excalidraw.com/Cascadia.woff2");
      }
      @font-face {
        font-family: "Assistant";
        src: url("https://excalidraw.com/Assistant-Regular.woff2");
      }
    </style>
    
  </defs>
  <rect x="0" y="0" width="644.059814453125" height="392" fill="#ffffff"></rect><g stroke-linecap="round" transform="translate(10 242) rotate(0 100 70)"><path d="M32 0 C64.6 0.57, 94.37 0.05, 168 0 M32 0 C74.4 0.92, 116.48 0.49, 168 0 M168 0 C189.72 1.25, 201.83 10.99, 200 32 M168 0 C187.09 0.79, 202.26 9.79, 200 32 M200 32 C200.46 59.85, 199.09 90.46, 200 108 M200 32 C200.07 46.69, 200.76 63.16, 200 108 M200 108 C198.37 130.86, 191.29 139.57, 168 140 M200 108 C199.26 130.84, 189.51 140.98, 168 140 M168 140 C132.9 138.55, 96.3 140, 32 140 M168 140 C120.34 140.87, 73.28 141.17, 32 140 M32 140 C11.76 138.01, 0.76 129.42, 0 108 M32 140 C11.21 141.92, -0.83 130.84, 0 108 M0 108 C0.76 84.29, 0.94 63.96, 0 32 M0 108 C-0.25 91.19, 0.27 72.8, 0 32 M0 32 C-1.15 10.26, 11.9 0.9, 32 0 M0 32 C1.62 9.14, 11.33 -0.96, 32 0" stroke="#1e1e1e" stroke-width="2" fill="none"></path></g><g transform="translate(78.25003051757812 299.5) rotate(0 31.749969482421875 12.5)"><text x="31.749969482421875" y="17.52" font-family="Virgil, Segoe UI Emoji" font-size="20px" fill="#1e1e1e" text-anchor="middle" style="white-space: pre;" direction="ltr" dominant-baseline="alphabetic">Broker</text></g><g stroke-linecap="round" transform="translate(384 222) rotate(0 77 61)"><path d="M43.31 5.52 C52.3 0.93, 66 -1.04, 77.09 -0.88 C88.18 -0.71, 99.86 2.56, 109.84 6.53 C119.82 10.51, 129.84 16.25, 136.97 22.99 C144.1 29.73, 150.11 38.23, 152.61 47 C155.12 55.77, 154.53 66.78, 152.02 75.62 C149.51 84.46, 144.55 93.43, 137.55 100.05 C130.55 106.66, 120.03 111.68, 110.01 115.32 C100 118.96, 88.54 121.62, 77.47 121.88 C66.39 122.13, 53.55 120.68, 43.56 116.86 C33.58 113.05, 24.42 105.99, 17.57 98.99 C10.72 92, 5.19 83.55, 2.47 74.92 C-0.25 66.28, -1.28 56.02, 1.27 47.19 C3.83 38.36, 8.72 29.33, 17.81 21.94 C26.9 14.56, 47.6 6.15, 55.82 2.9 C64.03 -0.36, 66.68 1.57, 67.11 2.39 M72.58 -0.34 C83.16 -1.48, 97.13 2.17, 107.45 5.6 C117.76 9.02, 127.3 13.5, 134.49 20.2 C141.69 26.9, 147.54 37.43, 150.61 45.8 C153.69 54.16, 154.63 61.75, 152.94 70.42 C151.26 79.08, 146.8 90.45, 140.49 97.78 C134.18 105.12, 124.87 110.27, 115.1 114.44 C105.33 118.61, 93.38 122.39, 81.89 122.8 C70.4 123.2, 56.63 120.23, 46.17 116.88 C35.7 113.53, 26.41 109.5, 19.09 102.72 C11.77 95.93, 5.01 84.73, 2.26 76.18 C-0.49 67.64, 0.54 59.79, 2.59 51.45 C4.65 43.11, 8.48 33.66, 14.58 26.13 C20.68 18.6, 29.41 10.39, 39.2 6.26 C48.99 2.13, 67.85 2.18, 73.32 1.37 C78.8 0.55, 72.09 0.71, 72.05 1.37" stroke="#1e1e1e" stroke-width="2" fill="none"></path></g><g transform="translate(418.6128211835968 270.3664863476206) rotate(0 42.43995666503906 12.5)"><text x="42.43995666503906" y="17.52" font-family="Virgil, Segoe UI Emoji" font-size="20px" fill="#1e1e1e" text-anchor="middle" style="white-space: pre;" direction="ltr" dominant-baseline="alphabetic">consumer</text></g><g stroke-linecap="round" transform="translate(192 10) rotate(0 96 43)"><path d="M21.5 0 C52.06 0.14, 84.82 -0.69, 170.5 0 M21.5 0 C60.5 -1.11, 98.72 -1.23, 170.5 0 M170.5 0 C182.97 0.84, 191.61 5.17, 192 21.5 M170.5 0 C183.61 -0.95, 190.8 4.89, 192 21.5 M192 21.5 C193.21 32.75, 191.25 45.59, 192 64.5 M192 21.5 C192.31 34.41, 191 46.25, 192 64.5 M192 64.5 C191.98 77.86, 186.67 87.09, 170.5 86 M192 64.5 C192.3 77.03, 186.6 87.61, 170.5 86 M170.5 86 C132.02 83.63, 95.31 83.39, 21.5 86 M170.5 86 C130.57 84.47, 88.28 85.97, 21.5 86 M21.5 86 C8.75 87.88, -0.02 80.33, 0 64.5 M21.5 86 C6.96 84.74, -2.21 80.99, 0 64.5 M0 64.5 C-0.3 51.37, -0.82 38.26, 0 21.5 M0 64.5 C-0.56 54.91, 0.28 44.77, 0 21.5 M0 21.5 C-0.81 9.09, 7.85 0.51, 21.5 0 M0 21.5 C-1.86 5.86, 6.26 -1.22, 21.5 0" stroke="#1e1e1e" stroke-width="2" fill="none"></path></g><g transform="translate(249.25003051757812 40.5) rotate(0 38.749969482421875 12.5)"><text x="38.749969482421875" y="17.52" font-family="Virgil, Segoe UI Emoji" font-size="20px" fill="#1e1e1e" text-anchor="middle" style="white-space: pre;" direction="ltr" dominant-baseline="alphabetic">nameSrv</text></g><g stroke-linecap="round"><g transform="translate(461.50974088608996 209.95999054281674) rotate(0 -31.75487044304498 -60.7965686129576)"><path d="M0.43 0.73 C-9.89 -19.45, -51.72 -100.45, -62.4 -120.68 M-0.8 0.06 C-11.14 -20.47, -52.15 -101.89, -62.76 -122.33" stroke="#1e1e1e" stroke-width="2" fill="none"></path></g><g transform="translate(461.50974088608996 209.95999054281674) rotate(0 -31.75487044304498 -60.7965686129576)"><path d="M-44.47 -105.29 C-48.08 -107.81, -52.54 -114.29, -62.76 -122.33 M-44.47 -105.29 C-50.6 -112.34, -57.36 -117.37, -62.76 -122.33" stroke="#1e1e1e" stroke-width="2" fill="none"></path></g><g transform="translate(461.50974088608996 209.95999054281674) rotate(0 -31.75487044304498 -60.7965686129576)"><path d="M-59.7 -97.52 C-59.36 -102.12, -59.85 -110.63, -62.76 -122.33 M-59.7 -97.52 C-60.02 -107.54, -61.06 -115.49, -62.76 -122.33" stroke="#1e1e1e" stroke-width="2" fill="none"></path></g></g><mask></mask><g stroke-linecap="round"><g transform="translate(354.91472402505553 102.00000000000011) rotate(0 28.07371818350731 59.17213211998967)"><path d="M1.18 -0.98 C10.66 18.95, 48.21 98.81, 57.29 118.67 M0.35 1.12 C9.73 20.75, 47.89 97.01, 56.94 116.72" stroke="#1e1e1e" stroke-width="2" fill="none"></path></g><g transform="translate(354.91472402505553 102.00000000000011) rotate(0 28.07371818350731 59.17213211998967)"><path d="M39.03 99.27 C43.27 106.85, 51.46 109.97, 56.94 116.72 M39.03 99.27 C44.81 104.33, 49.69 109.22, 56.94 116.72" stroke="#1e1e1e" stroke-width="2" fill="none"></path></g><g transform="translate(354.91472402505553 102.00000000000011) rotate(0 28.07371818350731 59.17213211998967)"><path d="M54.44 91.85 C53.45 102.07, 56.47 107.68, 56.94 116.72 M54.44 91.85 C55.74 99.12, 56.22 106.13, 56.94 116.72" stroke="#1e1e1e" stroke-width="2" fill="none"></path></g></g><mask></mask><g stroke-linecap="round"><g transform="translate(376.03457899058276 285.2062414642244) rotate(0 -78.01728949529132 5.587737502534594)"><path d="M-0.43 0.31 C-26.57 2.06, -130.1 9.36, -155.94 11 M1.55 -0.58 C-24.83 1.32, -130.59 10.53, -156.84 12.44" stroke="#1e1e1e" stroke-width="2" fill="none"></path></g><g transform="translate(376.03457899058276 285.2062414642244) rotate(0 -78.01728949529132 5.587737502534594)"><path d="M-134.11 2.03 C-142.14 6.04, -151.52 10.73, -156.84 12.44 M-134.11 2.03 C-137.93 5.33, -143.69 6.67, -156.84 12.44" stroke="#1e1e1e" stroke-width="2" fill="none"></path></g><g transform="translate(376.03457899058276 285.2062414642244) rotate(0 -78.01728949529132 5.587737502534594)"><path d="M-132.74 19.08 C-141.35 16.64, -151.25 14.9, -156.84 12.44 M-132.74 19.08 C-136.97 18.77, -143.02 16.5, -156.84 12.44" stroke="#1e1e1e" stroke-width="2" fill="none"></path></g></g><mask></mask><g transform="translate(440 112) rotate(0 97.0299072265625 12.5)"><text x="0" y="17.52" font-family="Virgil, Segoe UI Emoji" font-size="20px" fill="#1e1e1e" text-anchor="start" style="white-space: pre;" direction="ltr" dominant-baseline="alphabetic">1. get Topic's route</text></g><g transform="translate(250 164) rotate(0 80.30992126464844 12.5)"><text x="0" y="17.52" font-family="Virgil, Segoe UI Emoji" font-size="20px" fill="#1e1e1e" text-anchor="start" style="white-space: pre;" direction="ltr" dominant-baseline="alphabetic">2. Topic's route</text></g><g transform="translate(266 300) rotate(0 50.5899658203125 12.5)"><text x="0" y="17.52" font-family="Virgil, Segoe UI Emoji" font-size="20px" fill="#1e1e1e" text-anchor="start" style="white-space: pre;" direction="ltr" dominant-baseline="alphabetic">3. connect</text></g></svg>