<svg version="1.1" xmlns="http://www.w3.org/2000/svg" viewBox="0 0 662 200" width="662" height="200">
  <!-- svg-source:excalidraw -->
  
  <defs>
    <style class="style-fonts">
      @font-face {
        font-family: "Virgil";
        src: url("https://excalidraw.com/Virgil.woff2");
      }
      @font-face {
        font-family: "Cascadia";
        src: url("https://excalidraw.com/Cascadia.woff2");
      }
      @font-face {
        font-family: "Assistant";
        src: url("https://excalidraw.com/Assistant-Regular.woff2");
      }
    </style>
    
  </defs>
  <rect x="0" y="0" width="662" height="200" fill="#ffffff"></rect><g stroke-linecap="round" transform="translate(10 10) rotate(0 102 90)"><path d="M32 0 C65.51 0.56, 96.18 0.04, 172 0 M32 0 C75.63 0.94, 118.95 0.5, 172 0 M172 0 C193.72 1.25, 205.83 10.99, 204 32 M172 0 C191.09 0.79, 206.26 9.79, 204 32 M204 32 C204.35 74.93, 202.98 120.62, 204 148 M204 32 C204.07 54.87, 204.76 79.51, 204 148 M204 148 C202.37 170.86, 195.29 179.57, 172 180 M204 148 C203.26 170.84, 193.51 180.98, 172 180 M172 180 C135.85 178.54, 98.2 179.99, 32 180 M172 180 C122.95 180.88, 74.5 181.18, 32 180 M32 180 C11.76 178.01, 0.76 169.42, 0 148 M32 180 C11.21 181.92, -0.83 170.84, 0 148 M0 148 C0.83 112.81, 1.01 81, 0 32 M0 148 C-0.13 122.04, 0.39 94.51, 0 32 M0 32 C-1.15 10.26, 11.9 0.9, 32 0 M0 32 C1.62 9.14, 11.33 -0.96, 32 0" stroke="#1e1e1e" stroke-width="2" fill="none"></path></g><g transform="translate(80.25003051757812 87.5) rotate(0 31.749969482421875 12.5)"><text x="31.749969482421875" y="17.52" font-family="Virgil, Segoe UI Emoji" font-size="20px" fill="#1e1e1e" text-anchor="middle" style="white-space: pre;" direction="ltr" dominant-baseline="alphabetic">Broker</text></g><g stroke-linecap="round" transform="translate(498 22) rotate(0 77 58)"><path d="M43.31 5.23 C52.3 0.85, 66 -1.04, 77.09 -0.88 C88.18 -0.71, 99.86 2.44, 109.84 6.23 C119.82 10.02, 129.84 15.45, 136.97 21.85 C144.1 28.26, 150.11 36.31, 152.61 44.66 C155.12 53.01, 154.53 63.52, 152.02 71.94 C149.51 80.36, 144.55 88.89, 137.55 95.17 C130.55 101.45, 120.03 106.16, 110.01 109.61 C100 113.06, 88.54 115.62, 77.47 115.88 C66.39 116.13, 53.55 114.79, 43.56 111.16 C33.58 107.54, 24.42 100.78, 17.57 94.13 C10.72 87.48, 5.19 79.47, 2.47 71.25 C-0.25 63.04, -1.28 53.27, 1.27 44.86 C3.83 36.46, 8.72 27.83, 17.81 20.82 C26.9 13.8, 47.6 5.86, 55.82 2.78 C64.03 -0.31, 66.68 1.53, 67.11 2.31 M72.58 -0.35 C83.16 -1.42, 97.13 2.11, 107.45 5.36 C117.76 8.62, 127.3 12.81, 134.49 19.18 C141.69 25.56, 147.54 35.66, 150.61 43.61 C153.69 51.56, 154.63 58.66, 152.94 66.9 C151.26 75.13, 146.8 86.05, 140.49 93.03 C134.18 100.02, 124.87 104.85, 115.1 108.81 C105.33 112.77, 93.38 116.42, 81.89 116.8 C70.4 117.18, 56.63 114.29, 46.17 111.12 C35.7 107.94, 26.41 104.19, 19.09 97.73 C11.77 91.27, 5.01 80.49, 2.26 72.37 C-0.49 64.24, 0.54 56.89, 2.59 48.97 C4.65 41.06, 8.48 32.06, 14.58 24.88 C20.68 17.7, 29.41 9.81, 39.2 5.89 C48.99 1.97, 67.85 2.13, 73.32 1.36 C78.8 0.6, 72.09 0.7, 72.05 1.31" stroke="#1e1e1e" stroke-width="2" fill="none"></path></g><g transform="translate(529.9028220991241 67.48780669118025) rotate(0 45.14995574951172 12.5)"><text x="45.14995574951172" y="17.52" font-family="Virgil, Segoe UI Emoji" font-size="20px" fill="#1e1e1e" text-anchor="middle" style="white-space: pre;" direction="ltr" dominant-baseline="alphabetic">consumer1</text></g><g stroke-linecap="round"><g transform="translate(487.7751598597131 76.58657093690107) rotate(0 -129.88757992985654 -0.708199564875656)"><path d="M-0.46 1 C-43.65 0.7, -216.01 -0.31, -259.29 -0.87 M1.5 0.47 C-41.8 -0.25, -216.21 -2.38, -259.98 -2.7" stroke="#1e1e1e" stroke-width="2" fill="none"></path></g><g transform="translate(487.7751598597131 76.58657093690107) rotate(0 -129.88757992985654 -0.708199564875656)"><path d="M-236.4 -11.01 C-241.48 -7.89, -249.03 -6.92, -259.98 -2.7 M-236.4 -11.01 C-241.33 -7.99, -247.75 -7.76, -259.98 -2.7" stroke="#1e1e1e" stroke-width="2" fill="none"></path></g><g transform="translate(487.7751598597131 76.58657093690107) rotate(0 -129.88757992985654 -0.708199564875656)"><path d="M-236.57 6.09 C-241.73 4.28, -249.23 0.31, -259.98 -2.7 M-236.57 6.09 C-241.63 5.26, -248.01 1.65, -259.98 -2.7" stroke="#1e1e1e" stroke-width="2" fill="none"></path></g></g><mask></mask><g stroke-linecap="round"><g transform="translate(226.5454191649867 104.80825912102614) rotate(0 127.19533684155499 -0.17608140518245818)"><path d="M-0.51 0.77 C42.03 0.85, 212.45 -0.42, 254.86 -0.54 M1.43 0.12 C43.89 0.49, 212.24 1.27, 254.16 0.9" stroke="#1e1e1e" stroke-width="2" fill="none"></path></g><g transform="translate(226.5454191649867 104.80825912102614) rotate(0 127.19533684155499 -0.17608140518245818)"><path d="M230.68 9.47 C238.31 8.06, 242.99 4.23, 254.16 0.9 M230.68 9.47 C237.83 5.98, 245.44 2.81, 254.16 0.9" stroke="#1e1e1e" stroke-width="2" fill="none"></path></g><g transform="translate(226.5454191649867 104.80825912102614) rotate(0 127.19533684155499 -0.17608140518245818)"><path d="M230.66 -7.63 C238.14 -4.47, 242.83 -3.73, 254.16 0.9 M230.66 -7.63 C237.98 -5.45, 245.59 -2.95, 254.16 0.9" stroke="#1e1e1e" stroke-width="2" fill="none"></path></g></g><mask></mask><g transform="translate(255 32) rotate(0 111.48990631103516 12.5)"><text x="0" y="17.52" font-family="Virgil, Segoe UI Emoji" font-size="20px" fill="#1e1e1e" text-anchor="start" style="white-space: pre;" direction="ltr" dominant-baseline="alphabetic">Give me some Message</text></g><g transform="translate(309 114) rotate(0 46.56995391845703 12.5)"><text x="0" y="17.52" font-family="Virgil, Segoe UI Emoji" font-size="20px" fill="#1e1e1e" text-anchor="start" style="white-space: pre;" direction="ltr" dominant-baseline="alphabetic">Messages</text></g></svg>