<svg version="1.1" xmlns="http://www.w3.org/2000/svg" viewBox="0 0 1450 694" width="1450" height="694">
  <!-- svg-source:excalidraw -->
  
  <defs>
    <style class="style-fonts">
      @font-face {
        font-family: "Virgil";
        src: url("https://excalidraw.com/Virgil.woff2");
      }
      @font-face {
        font-family: "Cascadia";
        src: url("https://excalidraw.com/Cascadia.woff2");
      }
      @font-face {
        font-family: "Assistant";
        src: url("https://excalidraw.com/Assistant-Regular.woff2");
      }
    </style>
    
  </defs>
  <rect x="0" y="0" width="1450" height="694" fill="#ffffff"></rect><g stroke-linecap="round" transform="translate(10 250) rotate(0 74 47)"><path d="M23.5 0 C58.69 -2.28, 89.91 0.88, 124.5 0 M23.5 0 C46.06 -0.98, 69.63 -0.87, 124.5 0 M124.5 0 C139.63 -0.6, 148.9 9.18, 148 23.5 M124.5 0 C140.66 -0.99, 149.99 7.34, 148 23.5 M148 23.5 C149.59 42.69, 146.86 59.91, 148 70.5 M148 23.5 C147.66 36.78, 147.08 49.74, 148 70.5 M148 70.5 C149.6 85.14, 142.16 95.92, 124.5 94 M148 70.5 C148.93 86.6, 141.55 96.06, 124.5 94 M124.5 94 C87.86 94.91, 48.4 93.42, 23.5 94 M124.5 94 C85.53 93.8, 47.27 92.96, 23.5 94 M23.5 94 C9.01 95.08, -1.44 88, 0 70.5 M23.5 94 C8.84 95.1, 2.23 85.43, 0 70.5 M0 70.5 C-2.28 55.44, 0.53 42.22, 0 23.5 M0 70.5 C-0.44 53.79, -0.74 35.45, 0 23.5 M0 23.5 C-0.92 7.45, 9.72 -0.3, 23.5 0 M0 23.5 C-2.3 8.42, 6.94 1.3, 23.5 0" stroke="#1e1e1e" stroke-width="2" fill="none"></path></g><g transform="translate(52.250030517578125 284.5) rotate(0 31.749969482421875 12.5)"><text x="31.749969482421875" y="17.52" font-family="Virgil, Segoe UI Emoji" font-size="20px" fill="#1e1e1e" text-anchor="middle" style="white-space: pre;" direction="ltr" dominant-baseline="alphabetic">Broker</text></g><g stroke-linecap="round" transform="translate(308 36) rotate(0 566 324)"><path d="M32 0 C419.79 -1.77, 806.52 -1.55, 1100 0 M32 0 C338.92 3.56, 646.17 3.97, 1100 0 M1100 0 C1119.36 1.95, 1133.67 11.35, 1132 32 M1100 0 C1119.09 0.17, 1131.05 8.42, 1132 32 M1132 32 C1133.32 205.2, 1133.59 377.8, 1132 616 M1132 32 C1133.89 208.31, 1133.63 384.12, 1132 616 M1132 616 C1131.09 638.95, 1121.67 648.22, 1100 648 M1132 616 C1132.89 638.3, 1121.75 649.57, 1100 648 M1100 648 C797.75 651.01, 495.45 650.34, 32 648 M1100 648 C838.44 648.84, 576.46 648.4, 32 648 M32 648 C11.96 646.96, 0.9 638.1, 0 616 M32 648 C12.72 647.54, -1.01 635.37, 0 616 M0 616 C-2.2 487.18, -1.65 358.45, 0 32 M0 616 C-0.56 402.51, -0.82 188.51, 0 32 M0 32 C1.76 12.07, 10 1.98, 32 0 M0 32 C-0.34 11.35, 11.21 1.99, 32 0" stroke="#1e1e1e" stroke-width="2" fill="none"></path></g><g transform="translate(350 10) rotate(0 43.859954833984375 12.5)"><text x="0" y="17.52" font-family="Virgil, Segoe UI Emoji" font-size="20px" fill="#1e1e1e" text-anchor="start" style="white-space: pre;" direction="ltr" dominant-baseline="alphabetic">Consumer</text></g><g stroke-linecap="round" transform="translate(1234 70) rotate(0 80 292)"><path d="M32 0 C58.76 1.42, 85.82 -1.29, 128 0 M32 0 C55.59 0.02, 79.8 -1, 128 0 M128 0 C149.13 -0.55, 161.74 12.14, 160 32 M128 0 C147.88 -1.25, 160.91 10.07, 160 32 M160 32 C160.17 207.79, 160.73 384.53, 160 552 M160 32 C158.09 162.19, 158.45 291.81, 160 552 M160 552 C159.38 574.46, 147.7 582.58, 128 584 M160 552 C160.98 571.88, 150.26 585.72, 128 584 M128 584 C95.56 585.95, 64.61 585.89, 32 584 M128 584 C105.19 584.3, 82.02 585.73, 32 584 M32 584 C10.58 585.67, -1.31 573.23, 0 552 M32 584 C11.9 586.11, 0.24 573.7, 0 552 M0 552 C1.53 406.21, 1.22 259.98, 0 32 M0 552 C-1.59 360.24, -1.85 168.23, 0 32 M0 32 C0.51 9.16, 11.37 -0.94, 32 0 M0 32 C0.01 8.75, 8.38 -1.35, 32 0" stroke="#1e1e1e" stroke-width="2" fill="none"></path></g><g transform="translate(1274 349.5) rotate(0 40 12.5)"><text x="40" y="17.52" font-family="Virgil, Segoe UI Emoji" font-size="20px" fill="#1e1e1e" text-anchor="middle" style="white-space: pre;" direction="ltr" dominant-baseline="alphabetic">上层程序</text></g><g stroke-linecap="round" transform="translate(348 94) rotate(0 395 109)"><path d="M32 0 C320.35 1.55, 609.53 1.36, 758 0 M32 0 C208.36 -0.4, 384.15 -0.46, 758 0 M758 0 C779.53 0.36, 789.36 10.68, 790 32 M758 0 C778.32 0.3, 791.43 11.7, 790 32 M790 32 C788.06 72.36, 791.75 108.91, 790 186 M790 32 C789.7 67.59, 789.9 101.47, 790 186 M790 186 C789.84 208.58, 778.24 218.83, 758 218 M790 186 C788.33 207, 777.86 219.61, 758 218 M758 218 C497.27 218.85, 236.57 218.43, 32 218 M758 218 C597.7 218.36, 437.18 218.9, 32 218 M32 218 C10.09 219.73, 1.29 206.39, 0 186 M32 218 C10.02 217.21, 0.87 208.39, 0 186 M0 186 C-0.81 140.16, 1.59 89.52, 0 32 M0 186 C-0.36 145.09, -1.26 102.83, 0 32 M0 32 C-0.46 10.28, 12.02 1.16, 32 0 M0 32 C-0.99 12.84, 10.03 -1.8, 32 0" stroke="#1e1e1e" stroke-width="2" fill="none"></path></g><g transform="translate(370 66) rotate(0 92.44990539550781 12.5)"><text x="0" y="17.52" font-family="Virgil, Segoe UI Emoji" font-size="20px" fill="#1e1e1e" text-anchor="start" style="white-space: pre;" direction="ltr" dominant-baseline="alphabetic">PullMessageService</text></g><g stroke-linecap="round" transform="translate(398 166) rotate(0 233 26)"><path d="M13 0 C184.21 2.17, 355.5 0.77, 453 0 M13 0 C162.18 -1.79, 311.27 -1.44, 453 0 M453 0 C460.26 0.8, 464.15 2.76, 466 13 M453 0 C463.61 1.46, 464.05 6.47, 466 13 M466 13 C467.65 19.51, 467.37 25.03, 466 39 M466 13 C465.65 23.2, 467.11 32.13, 466 39 M466 39 C464.65 45.75, 462.63 52.83, 453 52 M466 39 C467.24 49.23, 462.55 51.58, 453 52 M453 52 C306.89 54.01, 161.14 53.59, 13 52 M453 52 C295.55 54.1, 138.62 54.44, 13 52 M13 52 C5.03 51.16, 0.64 48.79, 0 39 M13 52 C4.44 50.75, 0.87 48.43, 0 39 M0 39 C-1.43 29.51, 0.75 21.66, 0 13 M0 39 C0.74 29.67, 0.73 22.24, 0 13 M0 13 C-1.11 4.37, 5.29 0.8, 13 0 M0 13 C-0.13 5.67, 5 -2.09, 13 0" stroke="#1e1e1e" stroke-width="2" fill="none"></path></g><g transform="translate(530 142) rotate(0 85.159912109375 12.5)"><text x="0" y="17.52" font-family="Virgil, Segoe UI Emoji" font-size="20px" fill="#1e1e1e" text-anchor="start" style="white-space: pre;" direction="ltr" dominant-baseline="alphabetic">pullRequestQueue</text></g><g stroke-linecap="round" transform="translate(800 110) rotate(0 87 18)"><path d="M9 0 C61.21 0.16, 114.57 0.51, 165 0 M9 0 C46.44 -1.9, 85.05 -1.91, 165 0 M165 0 C170.35 -0.94, 175.76 3.28, 174 9 M165 0 C169.82 1.95, 171.87 2.7, 174 9 M174 9 C173.22 16.67, 174.6 22.57, 174 27 M174 9 C173.69 16.37, 174.14 22.84, 174 27 M174 27 C173.02 31.61, 172.24 37.79, 165 36 M174 27 C175.57 31.57, 171.84 37.87, 165 36 M165 36 C132.18 33.58, 95.26 36.29, 9 36 M165 36 C126.16 34.33, 87.6 35.89, 9 36 M9 36 C4.42 34.26, 0.73 33.86, 0 27 M9 36 C3.88 35.69, 2.07 35.22, 0 27 M0 27 C1.58 20.26, -1.4 16.28, 0 9 M0 27 C-0.31 23.29, 0.24 17.81, 0 9 M0 9 C1.3 2.7, 4.2 -0.2, 9 0 M0 9 C0.74 2.21, 2.51 -0.59, 9 0" stroke="#1e1e1e" stroke-width="2" fill="none"></path></g><g transform="translate(809.9600677490234 115.5) rotate(0 77.03993225097656 12.5)"><text x="77.03993225097656" y="17.52" font-family="Virgil, Segoe UI Emoji" font-size="20px" fill="#1e1e1e" text-anchor="middle" style="white-space: pre;" direction="ltr" dominant-baseline="alphabetic">new pullRequest</text></g><g stroke-linecap="round"><g transform="translate(1232.0000000000005 207.20626986332132) rotate(0 -55.95095720948848 -12.663257745043353)"><path d="M0.01 0.69 C-18.34 -3.63, -92.44 -21.61, -111.19 -25.77 M-1.44 0 C-19.8 -4.17, -93.08 -20.12, -111.76 -24.47" stroke="#1e1e1e" stroke-width="2" fill="none"></path></g><g transform="translate(1232.0000000000005 207.20626986332132) rotate(0 -55.95095720948848 -12.663257745043353)"><path d="M-86.96 -27.67 C-91.09 -25.79, -98.24 -27.21, -111.76 -24.47 M-86.96 -27.67 C-97.43 -27.31, -105.25 -24.67, -111.76 -24.47" stroke="#1e1e1e" stroke-width="2" fill="none"></path></g><g transform="translate(1232.0000000000005 207.20626986332132) rotate(0 -55.95095720948848 -12.663257745043353)"><path d="M-90.7 -10.98 C-94.05 -12.65, -100.41 -17.62, -111.76 -24.47 M-90.7 -10.98 C-99.76 -17.07, -106.12 -20.9, -111.76 -24.47" stroke="#1e1e1e" stroke-width="2" fill="none"></path></g></g><mask></mask><g stroke-linecap="round" transform="translate(539 173) rotate(0 63 19)"><path d="M9.5 0 C47.06 0.65, 83.28 2.54, 116.5 0 M9.5 0 C38.91 0.25, 70.48 0.9, 116.5 0 M116.5 0 C123.96 -0.31, 124.77 1.44, 126 9.5 M116.5 0 C121.79 1.34, 124.89 2.59, 126 9.5 M126 9.5 C125.69 13.89, 126.25 17.6, 126 28.5 M126 9.5 C126.91 15.38, 126.58 20.86, 126 28.5 M126 28.5 C127.71 33.33, 121.66 36.7, 116.5 38 M126 28.5 C124.07 36.79, 123.2 39.54, 116.5 38 M116.5 38 C74.45 36.25, 32.28 38.43, 9.5 38 M116.5 38 C93.73 39.84, 70.13 39.4, 9.5 38 M9.5 38 C2.22 36.51, -1.55 35.59, 0 28.5 M9.5 38 C1.62 35.92, -0.33 33.22, 0 28.5 M0 28.5 C1.51 20.74, 1.6 17.18, 0 9.5 M0 28.5 C0.15 23.67, -0.77 20.44, 0 9.5 M0 9.5 C1.72 4.22, 4.61 1.4, 9.5 0 M0 9.5 C-0.71 2, 3.45 -1.42, 9.5 0" stroke="#1e1e1e" stroke-width="2" fill="none"></path></g><g transform="translate(546.190055847168 179.5) rotate(0 55.80994415283203 12.5)"><text x="55.80994415283203" y="17.52" font-family="Virgil, Segoe UI Emoji" font-size="20px" fill="#1e1e1e" text-anchor="middle" style="white-space: pre;" direction="ltr" dominant-baseline="alphabetic">pullRequest</text></g><g stroke-linecap="round" transform="translate(675 173) rotate(0 63 19)"><path d="M9.5 0 C45.38 1.59, 85.93 0.75, 116.5 0 M9.5 0 C50.52 1.87, 91.82 1.58, 116.5 0 M116.5 0 C124.47 1.55, 126.76 3.88, 126 9.5 M116.5 0 C121.15 -0.26, 127.51 2.48, 126 9.5 M126 9.5 C127.94 15.29, 126.69 19.69, 126 28.5 M126 9.5 C125.48 12.83, 125.54 16.67, 126 28.5 M126 28.5 C127.32 36.15, 123.33 39.39, 116.5 38 M126 28.5 C125.79 33.7, 121.51 37.54, 116.5 38 M116.5 38 C83.48 37.45, 52.24 35.85, 9.5 38 M116.5 38 C79.17 37.26, 42.61 37.31, 9.5 38 M9.5 38 C4.87 37.63, 1.67 32.91, 0 28.5 M9.5 38 C3.19 37.62, -2.03 36.84, 0 28.5 M0 28.5 C1.01 22.97, 0.7 20.8, 0 9.5 M0 28.5 C0.8 21.78, 1.09 16.48, 0 9.5 M0 9.5 C-1.33 2.68, 4.57 -0.54, 9.5 0 M0 9.5 C2 2.92, 2.98 1.16, 9.5 0" stroke="#1e1e1e" stroke-width="2" fill="none"></path></g><g transform="translate(682.190055847168 179.5) rotate(0 55.80994415283203 12.5)"><text x="55.80994415283203" y="17.52" font-family="Virgil, Segoe UI Emoji" font-size="20px" fill="#1e1e1e" text-anchor="middle" style="white-space: pre;" direction="ltr" dominant-baseline="alphabetic">pullRequest</text></g><g stroke-linecap="round" transform="translate(407 171) rotate(0 62.99999999999994 19)"><path d="M9.5 0 C37.15 -0.56, 64.83 -1.15, 116.5 0 M9.5 0 C42.07 0.24, 75.73 1.7, 116.5 0 M116.5 0 C123.83 -1.13, 124.25 1.99, 126 9.5 M116.5 0 C121.53 -1.04, 127.57 3.18, 126 9.5 M126 9.5 C126.75 13.86, 127.24 20.16, 126 28.5 M126 9.5 C126.54 17.21, 125.21 23.88, 126 28.5 M126 28.5 C125.43 34.56, 122.68 38.24, 116.5 38 M126 28.5 C125.89 35.85, 122.07 39.08, 116.5 38 M116.5 38 C93.36 36.62, 70.93 36.23, 9.5 38 M116.5 38 C85.74 37.19, 55.96 37.74, 9.5 38 M9.5 38 C2.47 37.21, 0.57 33.62, 0 28.5 M9.5 38 C2.2 36.06, -0.85 35.67, 0 28.5 M0 28.5 C0.28 24.65, 1.62 20.05, 0 9.5 M0 28.5 C0.57 22.62, 0.61 16.78, 0 9.5 M0 9.5 C0.38 2.63, 1.48 1.61, 9.5 0 M0 9.5 C0.48 2.87, 1.51 1.42, 9.5 0" stroke="#1e1e1e" stroke-width="2" fill="none"></path></g><g transform="translate(414.19005584716797 177.5) rotate(0 55.80994415283203 12.5)"><text x="55.80994415283203" y="17.52" font-family="Virgil, Segoe UI Emoji" font-size="20px" fill="#1e1e1e" text-anchor="middle" style="white-space: pre;" direction="ltr" dominant-baseline="alphabetic">pullRequest</text></g><g transform="translate(820 178) rotate(0 8.219993591308594 12.5)"><text x="0" y="17.52" font-family="Virgil, Segoe UI Emoji" font-size="20px" fill="#1e1e1e" text-anchor="start" style="white-space: pre;" direction="ltr" dominant-baseline="alphabetic">...</text></g><g stroke-linecap="round"><g transform="translate(386 190) rotate(0 -109 39)"><path d="M0.95 -1.08 C-35.42 11.97, -182.13 65.34, -218.61 78.49 M-0.01 0.97 C-35.95 13.64, -179.78 63.61, -216.22 76.62" stroke="#1e1e1e" stroke-width="2" fill="none"></path></g><g transform="translate(386 190) rotate(0 -109 39)"><path d="M-196.89 60.76 C-203.81 64.12, -206.34 69.52, -216.22 76.62 M-196.89 60.76 C-202.25 65.53, -207.29 70.42, -216.22 76.62" stroke="#1e1e1e" stroke-width="2" fill="none"></path></g><g transform="translate(386 190) rotate(0 -109 39)"><path d="M-191.22 76.89 C-199.67 76, -203.71 77.12, -216.22 76.62 M-191.22 76.89 C-198.04 77.05, -204.69 77.35, -216.22 76.62" stroke="#1e1e1e" stroke-width="2" fill="none"></path></g></g><mask></mask><g stroke-linecap="round"><g transform="translate(172 306) rotate(0 110 -16)"><path d="M0.75 0.04 C37.36 -5.25, 183.99 -26.89, 220.44 -32.12 M-0.31 -0.98 C36.11 -6.04, 183.27 -25.25, 219.72 -30.64" stroke="#1e1e1e" stroke-width="2" fill="none"></path></g><g transform="translate(172 306) rotate(0 110 -16)"><path d="M197.61 -18.96 C205.81 -22.64, 213.64 -28.55, 219.72 -30.64 M197.61 -18.96 C205.83 -22.87, 214.18 -26.9, 219.72 -30.64" stroke="#1e1e1e" stroke-width="2" fill="none"></path></g><g transform="translate(172 306) rotate(0 110 -16)"><path d="M195.28 -35.9 C204.28 -33.4, 212.96 -33.11, 219.72 -30.64 M195.28 -35.9 C204.37 -33.74, 213.56 -31.72, 219.72 -30.64" stroke="#1e1e1e" stroke-width="2" fill="none"></path></g></g><mask></mask><g transform="translate(186 194) rotate(0 55.80994415283203 12.5)"><text x="0" y="17.52" font-family="Virgil, Segoe UI Emoji" font-size="20px" fill="#1e1e1e" text-anchor="start" style="white-space: pre;" direction="ltr" dominant-baseline="alphabetic">pullRequest</text></g><g transform="translate(206 294) rotate(0 39.809959411621094 12.5)"><text x="0" y="17.52" font-family="Virgil, Segoe UI Emoji" font-size="20px" fill="#1e1e1e" text-anchor="start" style="white-space: pre;" direction="ltr" dominant-baseline="alphabetic">message</text></g><g stroke-linecap="round" transform="translate(1247 157) rotate(0 68 61)"><path d="M30.5 0 C49.77 0.64, 73.8 -1.1, 105.5 0 M30.5 0 C52.02 0.32, 73.76 0.49, 105.5 0 M105.5 0 C124.06 -0.97, 135.7 11.09, 136 30.5 M105.5 0 C127.67 0.81, 136.99 10.07, 136 30.5 M136 30.5 C136.49 47.85, 135.41 65.03, 136 91.5 M136 30.5 C135.25 42.57, 135.71 55.19, 136 91.5 M136 91.5 C135.48 111.8, 124.19 122.55, 105.5 122 M136 91.5 C135.71 112.89, 125.88 121.19, 105.5 122 M105.5 122 C88.01 121.85, 70.74 122.11, 30.5 122 M105.5 122 C81.28 122.48, 57.74 121.26, 30.5 122 M30.5 122 C11.5 123.66, -1.1 110.31, 0 91.5 M30.5 122 C9.28 122.23, 1.6 110.11, 0 91.5 M0 91.5 C-0.32 70.99, -1.25 48.51, 0 30.5 M0 91.5 C0.2 73.64, 0.76 55.33, 0 30.5 M0 30.5 C0.41 8.44, 10.51 1.6, 30.5 0 M0 30.5 C1.35 8.38, 10.09 -1.57, 30.5 0" stroke="#1e1e1e" stroke-width="2" fill="none"></path></g><g transform="translate(1253.410057067871 168) rotate(0 61.589942932128906 50)"><text x="61.589942932128906" y="17.52" font-family="Virgil, Segoe UI Emoji" font-size="20px" fill="#1e1e1e" text-anchor="middle" style="white-space: pre;" direction="ltr" dominant-baseline="alphabetic">ConsumerGro</text><text x="61.589942932128906" y="42.519999999999996" font-family="Virgil, Segoe UI Emoji" font-size="20px" fill="#1e1e1e" text-anchor="middle" style="white-space: pre;" direction="ltr" dominant-baseline="alphabetic">up/consuemr</text><text x="61.589942932128906" y="67.52" font-family="Virgil, Segoe UI Emoji" font-size="20px" fill="#1e1e1e" text-anchor="middle" style="white-space: pre;" direction="ltr" dominant-baseline="alphabetic">offset/topic</text><text x="61.589942932128906" y="92.52" font-family="Virgil, Segoe UI Emoji" font-size="20px" fill="#1e1e1e" text-anchor="middle" style="white-space: pre;" direction="ltr" dominant-baseline="alphabetic">/queueId</text></g><g transform="translate(1276 126) rotate(0 38.12995910644531 12.5)"><text x="0" y="17.52" font-family="Virgil, Segoe UI Emoji" font-size="20px" fill="#1e1e1e" text-anchor="start" style="white-space: pre;" direction="ltr" dominant-baseline="alphabetic">pull info</text></g><g stroke-linecap="round" transform="translate(394 252) rotate(0 17 17)"><path d="M20.51 0.19 C23.97 0.68, 28.53 3.49, 30.79 6.42 C33.06 9.36, 34.28 14.22, 34.09 17.81 C33.89 21.39, 32.14 25.24, 29.64 27.93 C27.14 30.63, 22.73 33.34, 19.08 33.98 C15.43 34.61, 10.8 33.64, 7.76 31.73 C4.71 29.82, 1.94 26.08, 0.82 22.5 C-0.31 18.92, -0.42 13.61, 1.02 10.25 C2.47 6.88, 6.26 3.92, 9.48 2.3 C12.71 0.69, 18.44 0.73, 20.38 0.54 C22.31 0.36, 21.11 0.99, 21.1 1.18 M16.9 -0.37 C20.23 -0.6, 25 1.37, 27.72 3.82 C30.43 6.26, 32.42 10.67, 33.19 14.28 C33.96 17.89, 34.13 22.41, 32.34 25.5 C30.54 28.58, 25.88 31.4, 22.42 32.78 C18.95 34.15, 14.82 34.88, 11.55 33.75 C8.28 32.61, 4.7 29.1, 2.81 25.97 C0.93 22.85, -0.35 18.63, 0.24 14.99 C0.84 11.34, 3.61 6.62, 6.38 4.12 C9.14 1.63, 14.96 0.73, 16.81 0.02 C18.66 -0.7, 17.44 -0.52, 17.49 -0.16" stroke="#1e1e1e" stroke-width="2" fill="none"></path></g><g stroke-linecap="round" transform="translate(538 232) rotate(0 87 19)"><path d="M9.5 0 C70.7 0.39, 130.72 1.28, 164.5 0 M9.5 0 C51.5 -1.86, 91.42 -1.31, 164.5 0 M164.5 0 C170.2 1.01, 173.81 3.6, 174 9.5 M164.5 0 C172.69 0.51, 174.58 2.02, 174 9.5 M174 9.5 C172.51 17.4, 172.18 24.08, 174 28.5 M174 9.5 C173.36 14.56, 174.13 21.12, 174 28.5 M174 28.5 C175.79 35.29, 169.15 36.71, 164.5 38 M174 28.5 C176.12 34.82, 172.56 36.49, 164.5 38 M164.5 38 C135.16 35.23, 100.7 35.06, 9.5 38 M164.5 38 C121.81 37.18, 79.7 35.78, 9.5 38 M9.5 38 C4.24 38.11, 1.48 36.09, 0 28.5 M9.5 38 C5.44 39.17, 2.18 36.54, 0 28.5 M0 28.5 C1.33 23.33, 1.26 19.19, 0 9.5 M0 28.5 C-0.03 20.87, -0.94 14.09, 0 9.5 M0 9.5 C1.8 3.33, 4.51 -0.33, 9.5 0 M0 9.5 C2.08 1.18, 4.86 1.16, 9.5 0" stroke="#1e1e1e" stroke-width="2" fill="none"></path></g><g transform="translate(547.9600677490234 238.5) rotate(0 77.03993225097656 12.5)"><text x="77.03993225097656" y="17.52" font-family="Virgil, Segoe UI Emoji" font-size="20px" fill="#1e1e1e" text-anchor="middle" style="white-space: pre;" direction="ltr" dominant-baseline="alphabetic">new pullRequest</text></g><g stroke-linecap="round"><g transform="translate(416 252) rotate(0 59 -9)"><path d="M0.96 0.36 C5.25 -2.74, 5.4 -16.24, 24.96 -18.11 C44.52 -19.98, 102.96 -12.21, 118.31 -10.85 M0 -0.5 C4.28 -3.44, 4.89 -15.12, 24.51 -16.63 C44.13 -18.15, 102.32 -10.35, 117.71 -9.59" stroke="#1e1e1e" stroke-width="2" fill="none"></path></g><g transform="translate(416 252) rotate(0 59 -9)"><path d="M93.53 -3.23 C99.8 -3.33, 104.7 -5.9, 117.71 -9.59 M93.53 -3.23 C100.94 -4.43, 107.61 -7.15, 117.71 -9.59" stroke="#1e1e1e" stroke-width="2" fill="none"></path></g><g transform="translate(416 252) rotate(0 59 -9)"><path d="M95.1 -20.26 C101.06 -16.34, 105.6 -14.9, 117.71 -9.59 M95.1 -20.26 C101.92 -16.49, 108.14 -14.26, 117.71 -9.59" stroke="#1e1e1e" stroke-width="2" fill="none"></path></g></g><mask></mask><g stroke-linecap="round"><g transform="translate(718 248) rotate(0 56 -14)"><path d="M-1 0.01 C14.41 -0.25, 74.51 3.46, 93.39 -1.37 C112.27 -6.19, 109.12 -24.49, 112.29 -28.94 M0.67 -1.02 C16.4 -1.66, 77.28 1.36, 95.78 -3.16 C114.28 -7.67, 108.83 -24.15, 111.67 -28.11" stroke="#1e1e1e" stroke-width="2" fill="none"></path></g><g transform="translate(718 248) rotate(0 56 -14)"><path d="M114.23 -12.51 C113.25 -19.21, 113.11 -23.9, 111.67 -28.11 M114.23 -12.51 C113.88 -16.17, 113.16 -20.11, 111.67 -28.11" stroke="#1e1e1e" stroke-width="2" fill="none"></path></g><g transform="translate(718 248) rotate(0 56 -14)"><path d="M103.6 -14.52 C106.63 -20.38, 110.49 -24.31, 111.67 -28.11 M103.6 -14.52 C105.61 -17.73, 107.25 -21.23, 111.67 -28.11" stroke="#1e1e1e" stroke-width="2" fill="none"></path></g></g><mask></mask><g transform="translate(1026 128) rotate(18.290131894910957 32.57997131347656 12.5)"><text x="0" y="17.52" font-family="Virgil, Segoe UI Emoji" font-size="20px" fill="#1e1e1e" text-anchor="start" style="white-space: pre;" direction="ltr" dominant-baseline="alphabetic">create</text></g><g stroke-linecap="round" transform="translate(1100 166) rotate(0 8 9)"><path d="M8.6 -0.35 C10.17 -0.42, 11.98 0.75, 13.13 2.14 C14.28 3.53, 15.21 5.96, 15.5 7.99 C15.79 10.01, 15.66 12.71, 14.87 14.29 C14.07 15.86, 12.39 16.96, 10.74 17.42 C9.09 17.88, 6.57 17.85, 4.96 17.05 C3.36 16.25, 1.84 14.31, 1.11 12.62 C0.38 10.94, 0.26 8.72, 0.58 6.94 C0.9 5.17, 1.65 3.1, 3.02 1.97 C4.4 0.85, 7.79 0.55, 8.81 0.19 C9.84 -0.16, 9.21 -0.37, 9.16 -0.17 M8.5 -0.15 C10.24 -0.31, 12.35 0.17, 13.49 1.45 C14.62 2.74, 14.97 5.44, 15.31 7.54 C15.66 9.63, 16.33 12.3, 15.55 14.03 C14.77 15.76, 12.44 17.34, 10.64 17.93 C8.85 18.52, 6.39 18.23, 4.79 17.59 C3.19 16.94, 1.89 15.81, 1.04 14.07 C0.18 12.32, -0.62 9.08, -0.34 7.14 C-0.07 5.19, 1.42 3.6, 2.7 2.41 C3.97 1.21, 6.4 0.22, 7.31 -0.03 C8.22 -0.29, 7.97 0.73, 8.18 0.87" stroke="#1e1e1e" stroke-width="2" fill="none"></path></g><g stroke-linecap="round"><g transform="translate(1098 172) rotate(0 -59 -18)"><path d="M0.16 -0.32 C-19.49 -6.21, -98.93 -29.75, -118.44 -35.66 M-1.21 -1.54 C-21.01 -7.77, -100.31 -32.13, -119.61 -37.6" stroke="#1e1e1e" stroke-width="2" fill="none"></path></g><g transform="translate(1098 172) rotate(0 -59 -18)"><path d="M-94.66 -39.1 C-101.55 -39.41, -106.78 -36.41, -119.61 -37.6 M-94.66 -39.1 C-103.32 -39.42, -109.97 -37.64, -119.61 -37.6" stroke="#1e1e1e" stroke-width="2" fill="none"></path></g><g transform="translate(1098 172) rotate(0 -59 -18)"><path d="M-99.53 -22.71 C-105.14 -27.2, -109.13 -28.36, -119.61 -37.6 M-99.53 -22.71 C-106.62 -28.19, -111.73 -31.57, -119.61 -37.6" stroke="#1e1e1e" stroke-width="2" fill="none"></path></g></g><mask></mask><g stroke-linecap="round"><g transform="translate(912 148) rotate(0 -22 23)"><path d="M0.59 0.5 C-0.35 7.33, 2.48 32.73, -5.13 40.42 C-12.73 48.1, -38.71 45.69, -45.05 46.59 M-0.56 -0.29 C-1.63 6.23, 1.41 31.04, -5.62 38.51 C-12.64 45.98, -36.56 43.17, -42.71 44.55" stroke="#1e1e1e" stroke-width="2" fill="none"></path></g><g transform="translate(912 148) rotate(0 -22 23)"><path d="M-25.01 37.02 C-30.34 41.1, -36.57 40.61, -42.71 44.55 M-25.01 37.02 C-30.38 39.36, -36.74 42.89, -42.71 44.55" stroke="#1e1e1e" stroke-width="2" fill="none"></path></g><g transform="translate(912 148) rotate(0 -22 23)"><path d="M-24.31 50.16 C-29.82 49.72, -36.29 44.7, -42.71 44.55 M-24.31 50.16 C-30.01 47.92, -36.61 46.87, -42.71 44.55" stroke="#1e1e1e" stroke-width="2" fill="none"></path></g></g><mask></mask><g stroke-linecap="round" transform="translate(576 356) rotate(0 281 33)"><path d="M16.5 0 C177.31 -1.4, 337.56 -0.88, 545.5 0 M16.5 0 C195.84 0.56, 375.41 0.54, 545.5 0 M545.5 0 C557.91 -0.64, 562.08 5.8, 562 16.5 M545.5 0 C558.66 -1.35, 563.64 7.57, 562 16.5 M562 16.5 C562.67 25.91, 560.3 39.24, 562 49.5 M562 16.5 C562.4 28.21, 561.97 40.57, 562 49.5 M562 49.5 C560.66 58.76, 555.72 66.87, 545.5 66 M562 49.5 C563.79 59.82, 558.5 65.33, 545.5 66 M545.5 66 C362.51 65.34, 179.16 64.06, 16.5 66 M545.5 66 C339.99 65.81, 134.43 65.84, 16.5 66 M16.5 66 C4.26 66.83, -1.32 61.96, 0 49.5 M16.5 66 C4.55 67.83, 1.18 58.42, 0 49.5 M0 49.5 C-1.2 40.31, -0.27 29.12, 0 16.5 M0 49.5 C-0.42 38.36, -0.11 29.51, 0 16.5 M0 16.5 C-1.62 3.66, 5.02 -0.08, 16.5 0 M0 16.5 C-0.06 3.45, 5.93 -2.08, 16.5 0" stroke="#1e1e1e" stroke-width="2" fill="none"></path></g><g transform="translate(592 324) rotate(0 67.1499252319336 12.5)"><text x="0" y="17.52" font-family="Virgil, Segoe UI Emoji" font-size="20px" fill="#1e1e1e" text-anchor="start" style="white-space: pre;" direction="ltr" dominant-baseline="alphabetic">ProcessQueue</text></g><g stroke-linecap="round" transform="translate(1005 370) rotate(0 57 17.5)"><path d="M8.75 0 C44.6 -0.89, 81.4 -0.76, 105.25 0 M8.75 0 C47.41 -0.53, 85.75 0.5, 105.25 0 M105.25 0 C110.16 0, 114.68 3.69, 114 8.75 M105.25 0 C113.08 0.59, 115.82 1.88, 114 8.75 M114 8.75 C115.6 14.07, 113.41 18.99, 114 26.25 M114 8.75 C114.27 14.68, 113.14 19.33, 114 26.25 M114 26.25 C114.4 31.42, 109.4 33.27, 105.25 35 M114 26.25 C116.18 29.98, 112.77 35.13, 105.25 35 M105.25 35 C70.89 32.97, 37.54 34.04, 8.75 35 M105.25 35 C73.9 33.89, 41.37 35.11, 8.75 35 M8.75 35 C2.4 33.08, 1.03 33.49, 0 26.25 M8.75 35 C1.92 35.51, -1.95 29.99, 0 26.25 M0 26.25 C1.55 23.11, 1.44 17.48, 0 8.75 M0 26.25 C0.84 20.1, 0.18 12.29, 0 8.75 M0 8.75 C0.95 3.51, 2.27 -0.19, 8.75 0 M0 8.75 C1.85 1.13, 4.81 -2.1, 8.75 0" stroke="#1e1e1e" stroke-width="2" fill="none"></path></g><g transform="translate(1016.7600479125977 375) rotate(0 45.239952087402344 12.5)"><text x="45.239952087402344" y="17.52" font-family="Virgil, Segoe UI Emoji" font-size="20px" fill="#1e1e1e" text-anchor="middle" style="white-space: pre;" direction="ltr" dominant-baseline="alphabetic">messages</text></g><g stroke-linecap="round" transform="translate(749 371.5) rotate(0 57 17.5)"><path d="M8.75 0 C44.57 -1.32, 75.13 1.71, 105.25 0 M8.75 0 C34.28 1.36, 58.53 0.95, 105.25 0 M105.25 0 C109.48 1.68, 112.29 2.74, 114 8.75 M105.25 0 C111.63 0.35, 113.16 3.15, 114 8.75 M114 8.75 C113.18 14.25, 115 17.21, 114 26.25 M114 8.75 C113.82 12.52, 114.9 15.41, 114 26.25 M114 26.25 C115.63 31.41, 111.12 35.98, 105.25 35 M114 26.25 C113.57 31.77, 112.12 33.33, 105.25 35 M105.25 35 C78.02 36.68, 51.57 35.23, 8.75 35 M105.25 35 C73.69 36.18, 43.54 34.5, 8.75 35 M8.75 35 C1.8 34.12, 1.02 31.87, 0 26.25 M8.75 35 C2.49 36.44, 0.75 33.45, 0 26.25 M0 26.25 C-1.53 23.09, -1.57 17.43, 0 8.75 M0 26.25 C0.45 20.65, -0.74 16.76, 0 8.75 M0 8.75 C1.76 3.79, 2.91 0.02, 8.75 0 M0 8.75 C-2.17 3.97, 1.52 0.74, 8.75 0" stroke="#1e1e1e" stroke-width="2" fill="none"></path></g><g transform="translate(760.7600479125977 376.5) rotate(0 45.239952087402344 12.5)"><text x="45.239952087402344" y="17.52" font-family="Virgil, Segoe UI Emoji" font-size="20px" fill="#1e1e1e" text-anchor="middle" style="white-space: pre;" direction="ltr" dominant-baseline="alphabetic">messages</text></g><g stroke-linecap="round" transform="translate(875 369.5) rotate(0 57 17.5)"><path d="M8.75 0 C34.64 2.21, 57.94 1.39, 105.25 0 M8.75 0 C29.86 1.06, 51.31 0.46, 105.25 0 M105.25 0 C111.29 -1.42, 113.35 4.03, 114 8.75 M105.25 0 C110.08 1.97, 115.38 3.51, 114 8.75 M114 8.75 C113.62 12.54, 115.77 14.57, 114 26.25 M114 8.75 C114.37 15.26, 113.82 22.5, 114 26.25 M114 26.25 C112.55 31.79, 112.55 35.47, 105.25 35 M114 26.25 C114.34 33.75, 112.66 35, 105.25 35 M105.25 35 C72.76 36.93, 43.09 33.57, 8.75 35 M105.25 35 C81.56 35.31, 58.72 35.82, 8.75 35 M8.75 35 C4.11 34.13, 0.54 32.51, 0 26.25 M8.75 35 C0.97 36.74, -2.01 32.29, 0 26.25 M0 26.25 C0.94 20.05, -1.45 17.27, 0 8.75 M0 26.25 C-0.07 18.63, 0.32 12.13, 0 8.75 M0 8.75 C0.65 2.4, 4.76 1.77, 8.75 0 M0 8.75 C-0.66 3.56, 2.17 1.53, 8.75 0" stroke="#1e1e1e" stroke-width="2" fill="none"></path></g><g transform="translate(886.7600479125977 374.5) rotate(0 45.239952087402344 12.5)"><text x="45.239952087402344" y="17.52" font-family="Virgil, Segoe UI Emoji" font-size="20px" fill="#1e1e1e" text-anchor="middle" style="white-space: pre;" direction="ltr" dominant-baseline="alphabetic">messages</text></g><g transform="translate(692 379) rotate(0 16.439987182617188 12.5)"><text x="0" y="17.52" font-family="Virgil, Segoe UI Emoji" font-size="20px" fill="#1e1e1e" text-anchor="start" style="white-space: pre;" direction="ltr" dominant-baseline="alphabetic">......</text></g><g stroke-linecap="round"><g transform="translate(430 269.3333435058594) rotate(0 68 61.00001525878906)"><path d="M-0.38 0.13 C4.64 2.88, 15.42 -1.86, 30.31 17.14 C45.2 36.14, 71.22 96.84, 88.97 114.13 C106.72 131.42, 128.77 119.62, 136.79 120.86 M1.62 -0.84 C6.5 1.97, 15.01 -1.17, 29.53 18.22 C44.04 37.62, 70.73 98.32, 88.72 115.51 C106.7 132.7, 129.54 120.34, 137.45 121.36" stroke="#1e1e1e" stroke-width="2" fill="none"></path></g><g transform="translate(430 269.3333435058594) rotate(0 68 61.00001525878906)"><path d="M116.01 132.87 C122.91 129.84, 127.98 127.32, 137.45 121.36 M116.01 132.87 C123.5 129.1, 129.05 126.88, 137.45 121.36" stroke="#1e1e1e" stroke-width="2" fill="none"></path></g><g transform="translate(430 269.3333435058594) rotate(0 68 61.00001525878906)"><path d="M113.63 116.39 C121.37 118.55, 127.19 121.21, 137.45 121.36 M113.63 116.39 C121.97 117.77, 128.26 120.66, 137.45 121.36" stroke="#1e1e1e" stroke-width="2" fill="none"></path></g></g><mask></mask><g stroke-linecap="round" transform="translate(372 466) rotate(0 393 89)"><path d="M32 0 C228.51 1.46, 424.34 0.99, 754 0 M32 0 C295 1.23, 557.04 1.09, 754 0 M754 0 C775.67 0.57, 784.24 11.98, 786 32 M754 0 C774.66 -1.67, 787.58 8.67, 786 32 M786 32 C786.71 72.22, 785.9 109.51, 786 146 M786 32 C785.34 64.99, 784.99 96.63, 786 146 M786 146 C786.22 167.94, 775.22 176.82, 754 178 M786 146 C787.28 165.31, 774.01 177.47, 754 178 M754 178 C497.16 175.77, 238.69 174.87, 32 178 M754 178 C480.49 180.36, 207.2 180.31, 32 178 M32 178 C11.73 178.75, -0.15 166.25, 0 146 M32 178 C9.09 178.27, 1.2 168.24, 0 146 M0 146 C-0.54 103.41, -0.56 61.1, 0 32 M0 146 C-0.43 107.5, 0.41 66.9, 0 32 M0 32 C-1.81 10.13, 12.5 -1.2, 32 0 M0 32 C-0.23 11.48, 10.3 1.67, 32 0" stroke="#1e1e1e" stroke-width="2" fill="none"></path></g><g transform="translate(420 442) rotate(0 120.41987609863281 12.5)"><text x="0" y="17.52" font-family="Virgil, Segoe UI Emoji" font-size="20px" fill="#1e1e1e" text-anchor="start" style="white-space: pre;" direction="ltr" dominant-baseline="alphabetic">ComsumerMessageService</text></g><g stroke-linecap="round"><g transform="translate(412 288) rotate(0 11.000000000000057 107.55788590604021)"><path d="M-0.88 1 C-1.68 33.77, -10.13 160.29, -5.17 195.99 C-0.22 231.7, 23.4 212.13, 28.85 215.23 M0.86 0.49 C0.01 33.51, -10.3 161.51, -5.69 197.53 C-1.07 233.55, 22.99 213.63, 28.53 216.61" stroke="#1e1e1e" stroke-width="2" fill="none"></path></g><g transform="translate(412 288) rotate(0 11.000000000000057 107.55788590604021)"><path d="M11.42 225.97 C17.64 224.96, 20.55 222.5, 28.53 216.61 M11.42 225.97 C17.31 223.92, 21.14 220.85, 28.53 216.61" stroke="#1e1e1e" stroke-width="2" fill="none"></path></g><g transform="translate(412 288) rotate(0 11.000000000000057 107.55788590604021)"><path d="M9.4 212.79 C16.1 215.29, 19.53 216.34, 28.53 216.61 M9.4 212.79 C15.87 214.82, 20.32 215.84, 28.53 216.61" stroke="#1e1e1e" stroke-width="2" fill="none"></path></g></g><mask></mask><g stroke-linecap="round" transform="translate(444 488) rotate(0 96 20)"><path d="M10 0 C53.15 -1.45, 92.1 0.26, 182 0 M10 0 C45.95 0.51, 82.31 1.44, 182 0 M182 0 C187.77 -1.14, 192.11 4.92, 192 10 M182 0 C187.8 -0.25, 193.9 3.93, 192 10 M192 10 C193.87 17.35, 192.27 21.9, 192 30 M192 10 C191.5 15.36, 191.36 19.77, 192 30 M192 30 C192.07 37.28, 190.63 39.25, 182 40 M192 30 C192.1 35.33, 186.37 42.16, 182 40 M182 40 C115.98 39.72, 46.49 40.43, 10 40 M182 40 C119.49 39.11, 57.5 38.29, 10 40 M10 40 C4.8 40.3, 0.18 37.94, 0 30 M10 40 C2.99 38.63, -1.42 34.5, 0 30 M0 30 C0.21 24.05, -1.29 14.82, 0 10 M0 30 C-0.57 24.09, 0.12 15.93, 0 10 M0 10 C-1.44 2.26, 1.87 -0.97, 10 0 M0 10 C-1.6 4.73, 5.01 0.74, 10 0" stroke="#1e1e1e" stroke-width="2" fill="none"></path></g><g transform="translate(457.62007904052734 495.5) rotate(0 82.37992095947266 12.5)"><text x="82.37992095947266" y="17.52" font-family="Virgil, Segoe UI Emoji" font-size="20px" fill="#1e1e1e" text-anchor="middle" style="white-space: pre;" direction="ltr" dominant-baseline="alphabetic">consumerRequest</text></g><g stroke-linecap="round" transform="translate(904 501) rotate(0 8 9)"><path d="M8.82 -0.18 C10.49 -0.01, 12.86 1.74, 14.05 3.1 C15.25 4.46, 15.87 6.15, 15.97 7.97 C16.07 9.8, 15.68 12.5, 14.66 14.04 C13.64 15.58, 11.59 16.66, 9.87 17.23 C8.14 17.8, 5.89 18.21, 4.33 17.44 C2.77 16.67, 1.22 14.37, 0.52 12.61 C-0.19 10.86, -0.45 8.84, 0.1 6.93 C0.65 5.03, 2.29 2.39, 3.81 1.2 C5.33 0.02, 8.29 -0.06, 9.25 -0.17 C10.2 -0.28, 9.58 0.34, 9.53 0.56 M9.98 0.81 C11.65 1.01, 13.21 2.21, 14.19 3.49 C15.16 4.77, 15.75 6.61, 15.82 8.5 C15.9 10.39, 15.6 13.28, 14.61 14.83 C13.63 16.37, 11.72 17.36, 9.9 17.76 C8.08 18.16, 5.32 18.2, 3.68 17.22 C2.04 16.24, 0.66 13.76, 0.03 11.88 C-0.6 10, -0.73 7.65, -0.11 5.95 C0.52 4.25, 2.21 2.59, 3.79 1.68 C5.36 0.77, 8.41 0.77, 9.34 0.48 C10.26 0.2, 9.41 -0.25, 9.31 -0.03" stroke="#1e1e1e" stroke-width="2" fill="none"></path></g><g stroke-linecap="round"><g transform="translate(640 512.7513091330673) rotate(0 130.0002615228368 -1.314966569223941)"><path d="M1.14 -0.68 C44.61 -1.32, 217.12 -2.43, 260.38 -2.91 M0.28 1.58 C43.67 1.04, 216.3 -0.79, 259.63 -1.51" stroke="#1e1e1e" stroke-width="2" fill="none"></path></g><g transform="translate(640 512.7513091330673) rotate(0 130.0002615228368 -1.314966569223941)"><path d="M236.26 7.35 C241.22 5.42, 248.06 3.63, 259.63 -1.51 M236.26 7.35 C242.02 5.58, 245.93 4.54, 259.63 -1.51" stroke="#1e1e1e" stroke-width="2" fill="none"></path></g><g transform="translate(640 512.7513091330673) rotate(0 130.0002615228368 -1.314966569223941)"><path d="M236.03 -9.75 C241.19 -7.17, 248.08 -4.45, 259.63 -1.51 M236.03 -9.75 C241.74 -7.72, 245.71 -4.96, 259.63 -1.51" stroke="#1e1e1e" stroke-width="2" fill="none"></path></g></g><mask></mask><g stroke-linecap="round"><g transform="translate(924 510) rotate(0 151 1)"><path d="M0.57 -0.52 C50.77 -0.1, 251.92 2.04, 302.21 2.38 M-0.59 1.82 C49.38 1.88, 250.99 0.33, 301.38 0.45" stroke="#1e1e1e" stroke-width="2" fill="none"></path></g><g transform="translate(924 510) rotate(0 151 1)"><path d="M277.91 9.08 C286.06 6.01, 296.56 2.9, 301.38 0.45 M277.91 9.08 C283.09 6.25, 290.97 5.17, 301.38 0.45" stroke="#1e1e1e" stroke-width="2" fill="none"></path></g><g transform="translate(924 510) rotate(0 151 1)"><path d="M277.86 -8.02 C286 -4.53, 296.53 -1.08, 301.38 0.45 M277.86 -8.02 C283.19 -6.43, 291.09 -3.09, 301.38 0.45" stroke="#1e1e1e" stroke-width="2" fill="none"></path></g></g><mask></mask><g stroke-linecap="round"><g transform="translate(942 428) rotate(0 -14 35)"><path d="M0.12 -0.66 C-4.5 10.91, -22 57.3, -26.88 69.21 M-1.27 1.61 C-6.03 13.33, -22.97 59.12, -27.24 70.33" stroke="#1e1e1e" stroke-width="2" fill="none"></path></g><g transform="translate(942 428) rotate(0 -14 35)"><path d="M-26.99 45.33 C-28.23 56.51, -28.54 61.99, -27.24 70.33 M-26.99 45.33 C-27.41 55.47, -27.98 64.54, -27.24 70.33" stroke="#1e1e1e" stroke-width="2" fill="none"></path></g><g transform="translate(942 428) rotate(0 -14 35)"><path d="M-10.98 51.34 C-18.17 60.29, -24.45 63.54, -27.24 70.33 M-10.98 51.34 C-17.3 59.44, -23.73 66.31, -27.24 70.33" stroke="#1e1e1e" stroke-width="2" fill="none"></path></g></g><mask></mask><g stroke-linecap="round" transform="translate(1011 472.5) rotate(0 57 17.5)"><path d="M8.75 0 C47.24 -0.81, 83.75 -2.14, 105.25 0 M8.75 0 C44.43 -1.5, 80.87 -1.33, 105.25 0 M105.25 0 C110.23 1.51, 115.65 2.11, 114 8.75 M105.25 0 C113.1 -1.51, 114.3 1.23, 114 8.75 M114 8.75 C112.45 15.03, 114.11 18.76, 114 26.25 M114 8.75 C114.07 13.15, 114.4 19.53, 114 26.25 M114 26.25 C114.98 31.69, 110.85 36.29, 105.25 35 M114 26.25 C112.31 32.12, 111.41 35.33, 105.25 35 M105.25 35 C78.66 33.41, 52.67 34.62, 8.75 35 M105.25 35 C74.31 34.25, 43.82 35.38, 8.75 35 M8.75 35 C3.68 35.68, -0.46 31.45, 0 26.25 M8.75 35 C4.17 34.2, 2.13 31.7, 0 26.25 M0 26.25 C1.39 21.31, 0.72 15.38, 0 8.75 M0 26.25 C0.68 20.05, -0.81 12.97, 0 8.75 M0 8.75 C1.58 3.96, 2.14 1.7, 8.75 0 M0 8.75 C-1.66 4.12, 3.76 1.93, 8.75 0" stroke="#1e1e1e" stroke-width="2" fill="none"></path></g><g transform="translate(1022.7600479125977 477.5) rotate(0 45.239952087402344 12.5)"><text x="45.239952087402344" y="17.52" font-family="Virgil, Segoe UI Emoji" font-size="20px" fill="#1e1e1e" text-anchor="middle" style="white-space: pre;" direction="ltr" dominant-baseline="alphabetic">messages</text></g><g stroke-linecap="round"><g transform="translate(914 520) rotate(0 -369 -69)"><path d="M-0.9 0.16 C-18.8 6.16, -0.01 27.16, -106.86 34.87 C-213.72 42.59, -536.83 83, -642.02 46.44 C-747.22 9.89, -721.97 -145.93, -738.04 -184.45 M0.83 -0.8 C-16.74 4.97, 2.67 25.68, -104.6 33.21 C-211.87 40.73, -537.27 80.47, -642.8 44.34 C-748.34 8.2, -722.21 -145.42, -737.81 -183.59" stroke="#1e1e1e" stroke-width="2" fill="none"></path></g><g transform="translate(914 520) rotate(0 -369 -69)"><path d="M-726.39 -161.35 C-729.83 -170.49, -732.55 -176.72, -737.81 -183.59 M-726.39 -161.35 C-730.57 -169.45, -734.18 -175.85, -737.81 -183.59" stroke="#1e1e1e" stroke-width="2" fill="none"></path></g><g transform="translate(914 520) rotate(0 -369 -69)"><path d="M-743.36 -159.21 C-740.96 -168.96, -737.87 -175.92, -737.81 -183.59 M-743.36 -159.21 C-741.82 -167.97, -739.71 -175.09, -737.81 -183.59" stroke="#1e1e1e" stroke-width="2" fill="none"></path></g></g><mask></mask><g transform="translate(192 400) rotate(0 16.55998992919922 12.5)"><text x="0" y="17.52" font-family="Virgil, Segoe UI Emoji" font-size="20px" fill="#1e1e1e" text-anchor="start" style="white-space: pre;" direction="ltr" dominant-baseline="alphabetic">ack</text></g></svg>