<svg version="1.1" xmlns="http://www.w3.org/2000/svg" viewBox="0 0 3348.5739949544286 1510.8135095021082" width="3348.5739949544286" height="1510.8135095021082">
  <!-- svg-source:excalidraw -->
  
  <defs>
    <style class="style-fonts">
      @font-face {
        font-family: "Virgil";
        src: url("https://excalidraw.com/Virgil.woff2");
      }
      @font-face {
        font-family: "Cascadia";
        src: url("https://excalidraw.com/Cascadia.woff2");
      }
      @font-face {
        font-family: "Assistant";
        src: url("https://excalidraw.com/Assistant-Regular.woff2");
      }
    </style>
    
  </defs>
  <rect x="0" y="0" width="3348.5739949544286" height="1510.8135095021082" fill="#ffffff"></rect><g stroke-linecap="round" transform="translate(10 387.3056372990676) rotate(0 494.44444444444457 262.2222222222222)"><path d="M0 0 C279.03 1.82, 558.37 2.57, 988.89 0 M0 0 C346.4 0.89, 692.96 0.31, 988.89 0 M988.89 0 C987.86 141.12, 987.17 283.54, 988.89 524.44 M988.89 0 C987.76 199.08, 987.43 397.85, 988.89 524.44 M988.89 524.44 C633.35 527.61, 277.37 528.68, 0 524.44 M988.89 524.44 C758.41 527.28, 527.9 526.99, 0 524.44 M0 524.44 C0.38 414.47, 1.24 306.54, 0 0 M0 524.44 C0.09 326.11, 0.39 128.55, 0 0" stroke="#1e1e1e" stroke-width="2" fill="none"></path></g><g stroke-linecap="round" transform="translate(276.6666327582461 398.41674841017857) rotate(0 216.66666666666663 50)"><path d="M178.84 0.24 C198.2 -1.22, 223.46 -0.52, 244.66 0.3 C265.87 1.12, 286.79 2.97, 306.07 5.16 C325.36 7.34, 344.52 10.36, 360.35 13.4 C376.18 16.44, 389.95 19.49, 401.08 23.41 C412.2 27.34, 421.72 32.07, 427.08 36.93 C432.45 41.8, 434.57 47.5, 433.28 52.62 C431.98 57.75, 426.83 63.21, 419.32 67.69 C411.81 72.17, 400.99 75.58, 388.21 79.5 C375.43 83.42, 359.8 88.24, 342.65 91.21 C325.49 94.18, 305.58 95.98, 285.3 97.34 C265.02 98.7, 242.08 99.38, 220.95 99.37 C199.82 99.37, 178.84 98.68, 158.53 97.32 C138.23 95.95, 117.22 93.66, 99.13 91.21 C81.03 88.75, 63.74 86.13, 49.95 82.6 C36.17 79.07, 24.7 74.73, 16.41 70.03 C8.12 65.33, 2.35 59.34, 0.21 54.42 C-1.93 49.49, -0.67 45.2, 3.57 40.48 C7.81 35.77, 15.4 30.57, 25.63 26.12 C35.87 21.67, 49.53 17.16, 64.97 13.78 C80.41 10.41, 96.49 8.24, 118.26 5.89 C140.03 3.54, 179.71 0.35, 195.58 -0.31 C211.46 -0.98, 213.15 1.05, 213.52 1.88 M212.22 -0.92 C232.11 -1.46, 255.25 1.26, 275.68 2.56 C296.1 3.85, 316.55 4.09, 334.78 6.85 C353 9.61, 371.43 14.9, 385.03 19.1 C398.62 23.3, 408.24 27.59, 416.34 32.05 C424.45 36.5, 431.47 41.2, 433.66 45.84 C435.84 50.48, 433.88 55.24, 429.46 59.89 C425.04 64.53, 417.85 69.56, 407.15 73.73 C396.45 77.9, 380.69 81.23, 365.25 84.9 C349.82 88.58, 333.26 93.37, 314.52 95.8 C295.78 98.24, 273.91 99.04, 252.83 99.51 C231.75 99.99, 209.38 99.55, 188.04 98.65 C166.7 97.75, 144.09 96.24, 124.76 94.11 C105.44 91.98, 87.83 88.78, 72.09 85.87 C56.36 82.97, 41.54 80.87, 30.35 76.67 C19.16 72.47, 10.13 65.43, 4.95 60.7 C-0.22 55.97, -2.19 52.81, -0.71 48.27 C0.76 43.73, 6.15 38.39, 13.8 33.47 C21.46 28.54, 32.2 22.72, 45.2 18.74 C58.19 14.75, 74.32 12.17, 91.78 9.57 C109.24 6.98, 129.61 4.58, 149.96 3.14 C170.31 1.7, 203.18 1.54, 213.88 0.94 C224.58 0.34, 214.46 -1.13, 214.17 -0.46" stroke="#1e1e1e" stroke-width="2" fill="none"></path></g><g transform="translate(443.1268301678276 436.0614093508512) rotate(0 50 12.5)"><text x="50" y="17.52" font-family="Virgil, Segoe UI Emoji" font-size="20px" fill="#1e1e1e" text-anchor="middle" style="white-space: pre;" direction="ltr" dominant-baseline="alphabetic">事务管理器</text></g><g transform="translate(11.851806640624886 356.1945261879565) rotate(0 42.709999084472656 12.5)"><text x="0" y="17.52" font-family="Virgil, Segoe UI Emoji" font-size="20px" fill="#1e1e1e" text-anchor="start" style="white-space: pre;" direction="ltr" dominant-baseline="alphabetic">准备阶段1</text></g><g stroke-linecap="round" transform="translate(72.22218831380178 578.4167484101786) rotate(0 37.77777777777777 132.22222222222223)"><path d="M0 0 C29.13 -2.4, 60.49 -0.79, 75.56 0 M0 0 C30.01 -1.34, 59.02 0.33, 75.56 0 M75.56 0 C74.41 54.51, 74.61 111.79, 75.56 264.44 M75.56 0 C75.69 71.31, 76.23 142.92, 75.56 264.44 M75.56 264.44 C59.74 266.03, 43.62 265.31, 0 264.44 M75.56 264.44 C59.68 263.96, 43.31 265.45, 0 264.44 M0 264.44 C3.03 198.04, 2.99 133.24, 0 0 M0 264.44 C-2.13 206.66, -2.66 147.82, 0 0" stroke="#1e1e1e" stroke-width="2" fill="none"></path></g><g transform="translate(79.99996609157961 685.6389706324007) rotate(0 30 25)"><text x="30" y="17.52" font-family="Virgil, Segoe UI Emoji" font-size="20px" fill="#1e1e1e" text-anchor="middle" style="white-space: pre;" direction="ltr" dominant-baseline="alphabetic">资源管</text><text x="30" y="42.519999999999996" font-family="Virgil, Segoe UI Emoji" font-size="20px" fill="#1e1e1e" text-anchor="middle" style="white-space: pre;" direction="ltr" dominant-baseline="alphabetic">理器</text></g><g stroke-linecap="round" transform="translate(207.40732828776004 577.3056372990675) rotate(0 37.77777777777777 132.22222222222223)"><path d="M0 0 C22.08 -0.53, 43.37 1.81, 75.56 0 M0 0 C28.31 -0.77, 56.52 -0.22, 75.56 0 M75.56 0 C75.44 76.35, 74.78 151.59, 75.56 264.44 M75.56 0 C73.5 94.25, 74.01 189.97, 75.56 264.44 M75.56 264.44 C57.98 262.42, 42.81 265.61, 0 264.44 M75.56 264.44 C60.35 264.98, 42.62 265.2, 0 264.44 M0 264.44 C2.13 167.49, 3.15 68.92, 0 0 M0 264.44 C1.25 208.16, 0.97 152.48, 0 0" stroke="#1e1e1e" stroke-width="2" fill="none"></path></g><g transform="translate(215.18510606553787 684.5278595212897) rotate(0 30 25)"><text x="30" y="17.52" font-family="Virgil, Segoe UI Emoji" font-size="20px" fill="#1e1e1e" text-anchor="middle" style="white-space: pre;" direction="ltr" dominant-baseline="alphabetic">资源管</text><text x="30" y="42.519999999999996" font-family="Virgil, Segoe UI Emoji" font-size="20px" fill="#1e1e1e" text-anchor="middle" style="white-space: pre;" direction="ltr" dominant-baseline="alphabetic">理器</text></g><g stroke-linecap="round" transform="translate(345.1851060655381 577.3056372990675) rotate(0 37.777777777777715 132.22222222222223)"><path d="M0 0 C28.36 2.41, 54.75 1.29, 75.56 0 M0 0 C25.09 -0.03, 50.95 -0.62, 75.56 0 M75.56 0 C74.17 55.13, 73.95 107.94, 75.56 264.44 M75.56 0 C75.52 65.12, 74.52 129.01, 75.56 264.44 M75.56 264.44 C45.21 262.34, 18.79 265.69, 0 264.44 M75.56 264.44 C52.25 264.81, 30.07 265.64, 0 264.44 M0 264.44 C0.8 194.99, 0.67 125.29, 0 0 M0 264.44 C1.99 209.74, 2.19 155.2, 0 0" stroke="#1e1e1e" stroke-width="2" fill="none"></path></g><g transform="translate(352.9628838433159 684.5278595212897) rotate(0 30 25)"><text x="30" y="17.52" font-family="Virgil, Segoe UI Emoji" font-size="20px" fill="#1e1e1e" text-anchor="middle" style="white-space: pre;" direction="ltr" dominant-baseline="alphabetic">资源管</text><text x="30" y="42.519999999999996" font-family="Virgil, Segoe UI Emoji" font-size="20px" fill="#1e1e1e" text-anchor="middle" style="white-space: pre;" direction="ltr" dominant-baseline="alphabetic">理器</text></g><g stroke-linecap="round" transform="translate(482.9628838433157 579.5278595212897) rotate(0 37.77777777777783 132.22222222222223)"><path d="M0 0 C29.76 -0.36, 58.29 -0.3, 75.56 0 M0 0 C24.12 0.38, 48.55 -0.36, 75.56 0 M75.56 0 C76.09 55.08, 73.58 111.91, 75.56 264.44 M75.56 0 C74.44 60.71, 73.55 120.19, 75.56 264.44 M75.56 264.44 C51.34 265.06, 23.41 264.82, 0 264.44 M75.56 264.44 C47.2 263.1, 20.88 264.18, 0 264.44 M0 264.44 C1.52 167.98, 0.21 74.78, 0 0 M0 264.44 C1.29 162.03, 1.96 58.63, 0 0" stroke="#1e1e1e" stroke-width="2" fill="none"></path></g><g transform="translate(490.7406616210935 686.7500817435119) rotate(0 30 25)"><text x="30" y="17.52" font-family="Virgil, Segoe UI Emoji" font-size="20px" fill="#1e1e1e" text-anchor="middle" style="white-space: pre;" direction="ltr" dominant-baseline="alphabetic">资源管</text><text x="30" y="42.519999999999996" font-family="Virgil, Segoe UI Emoji" font-size="20px" fill="#1e1e1e" text-anchor="middle" style="white-space: pre;" direction="ltr" dominant-baseline="alphabetic">理器</text></g><g stroke-linecap="round" transform="translate(634.0739949544268 581.7500817435118) rotate(0 37.777777777777715 132.22222222222223)"><path d="M0 0 C21.46 0.03, 40.5 -0.92, 75.56 0 M0 0 C15.97 -0.41, 31.6 -1.09, 75.56 0 M75.56 0 C74.86 73.73, 76.27 150.79, 75.56 264.44 M75.56 0 C75.59 74.38, 75.45 148.49, 75.56 264.44 M75.56 264.44 C52.24 266.15, 32.55 265.39, 0 264.44 M75.56 264.44 C53 263.25, 30.38 263.84, 0 264.44 M0 264.44 C1.9 174.22, -0.49 80.42, 0 0 M0 264.44 C-0.28 194.05, -0.63 122.91, 0 0" stroke="#1e1e1e" stroke-width="2" fill="none"></path></g><g transform="translate(641.8517727322046 688.972303965734) rotate(0 30 25)"><text x="30" y="17.52" font-family="Virgil, Segoe UI Emoji" font-size="20px" fill="#1e1e1e" text-anchor="middle" style="white-space: pre;" direction="ltr" dominant-baseline="alphabetic">资源管</text><text x="30" y="42.519999999999996" font-family="Virgil, Segoe UI Emoji" font-size="20px" fill="#1e1e1e" text-anchor="middle" style="white-space: pre;" direction="ltr" dominant-baseline="alphabetic">理器</text></g><g stroke-linecap="round" transform="translate(785.1851060655374 579.5278595212897) rotate(0 37.77777777777783 132.22222222222223)"><path d="M0 0 C20.34 1.25, 38.57 -2.07, 75.56 0 M0 0 C22.04 0.26, 42.95 -0.04, 75.56 0 M75.56 0 C78.23 77.13, 75.99 151.47, 75.56 264.44 M75.56 0 C77.47 101.19, 76.91 202.23, 75.56 264.44 M75.56 264.44 C43.41 265.42, 14.79 263.98, 0 264.44 M75.56 264.44 C46.87 266.09, 19.71 265.55, 0 264.44 M0 264.44 C2.21 178.05, 0.79 89.91, 0 0 M0 264.44 C1.06 184.87, 0.26 104.37, 0 0" stroke="#1e1e1e" stroke-width="2" fill="none"></path></g><g transform="translate(792.9628838433152 686.7500817435119) rotate(0 30 25)"><text x="30" y="17.52" font-family="Virgil, Segoe UI Emoji" font-size="20px" fill="#1e1e1e" text-anchor="middle" style="white-space: pre;" direction="ltr" dominant-baseline="alphabetic">资源管</text><text x="30" y="42.519999999999996" font-family="Virgil, Segoe UI Emoji" font-size="20px" fill="#1e1e1e" text-anchor="middle" style="white-space: pre;" direction="ltr" dominant-baseline="alphabetic">理器</text></g><g transform="translate(931.8517727322044 687.3056372990675) rotate(0 8.219993591308594 12.5)"><text x="0" y="17.52" font-family="Virgil, Segoe UI Emoji" font-size="20px" fill="#1e1e1e" text-anchor="start" style="white-space: pre;" direction="ltr" dominant-baseline="alphabetic">...</text></g><g stroke-linecap="round"><g transform="translate(335.109020749641 483.4400678905116) rotate(0 -110.5246591308989 46.98834025983348)"><path d="M0 0 C-67.85 29.61, -131.72 58.83, -221.05 93.98 M0 0 C-69.48 30.49, -139.02 59.36, -221.05 93.98" stroke="#1e1e1e" stroke-width="2" fill="none"></path></g><g transform="translate(335.109020749641 483.4400678905116) rotate(0 -110.5246591308989 46.98834025983348)"><path d="M-202.71 76.98 C-209.93 82.97, -211.94 89.09, -221.05 93.98 M-202.71 76.98 C-208.1 82.83, -213.95 87.38, -221.05 93.98" stroke="#1e1e1e" stroke-width="2" fill="none"></path></g><g transform="translate(335.109020749641 483.4400678905116) rotate(0 -110.5246591308989 46.98834025983348)"><path d="M-196.08 92.74 C-205.38 93.99, -209.41 95.34, -221.05 93.98 M-196.08 92.74 C-203.46 93.66, -211.4 93.26, -221.05 93.98" stroke="#1e1e1e" stroke-width="2" fill="none"></path></g></g><mask></mask><g stroke-linecap="round"><g transform="translate(387.6925186376584 495.38422905428894) rotate(0 -63.33822656289368 40.460704122389245)"><path d="M0 0 C-27.56 17.76, -55.13 33.23, -126.68 80.92 M0 0 C-40.73 25.74, -81.62 52.52, -126.68 80.92" stroke="#1e1e1e" stroke-width="2" fill="none"></path></g><g transform="translate(387.6925186376584 495.38422905428894) rotate(0 -63.33822656289368 40.460704122389245)"><path d="M-111.44 61.1 C-115.19 66.49, -119.29 69.09, -126.68 80.92 M-111.44 61.1 C-116.07 67.73, -120.66 74.62, -126.68 80.92" stroke="#1e1e1e" stroke-width="2" fill="none"></path></g><g transform="translate(387.6925186376584 495.38422905428894) rotate(0 -63.33822656289368 40.460704122389245)"><path d="M-102.26 75.53 C-107.87 77.84, -113.9 77.4, -126.68 80.92 M-102.26 75.53 C-109.92 77.4, -117.5 79.58, -126.68 80.92" stroke="#1e1e1e" stroke-width="2" fill="none"></path></g></g><mask></mask><g stroke-linecap="round"><g transform="translate(442.2819384472534 500.2967170092463) rotate(0 -22.731425240816975 36.83779347824385)"><path d="M0 0 C-14.44 23.31, -29.17 49.74, -45.46 73.68 M0 0 C-18.97 27.75, -35.12 56.4, -45.46 73.68" stroke="#1e1e1e" stroke-width="2" fill="none"></path></g><g transform="translate(442.2819384472534 500.2967170092463) rotate(0 -22.731425240816975 36.83779347824385)"><path d="M-40.89 49.1 C-41.99 56.62, -43.31 66.96, -45.46 73.68 M-40.89 49.1 C-43.62 58.02, -43.82 67.53, -45.46 73.68" stroke="#1e1e1e" stroke-width="2" fill="none"></path></g><g transform="translate(442.2819384472534 500.2967170092463) rotate(0 -22.731425240816975 36.83779347824385)"><path d="M-26.16 57.79 C-32.1 62.36, -38.25 69.84, -45.46 73.68 M-26.16 57.79 C-34.58 63.2, -40.53 69.32, -45.46 73.68" stroke="#1e1e1e" stroke-width="2" fill="none"></path></g></g><mask></mask><g stroke-linecap="round"><g transform="translate(518.258603620347 499.08126733694263) rotate(0 4.644735802701916 39.66774053661793)"><path d="M0 0 C4.84 23.68, 5.03 45.88, 9.29 79.34 M0 0 C2.31 16.78, 4.16 33.53, 9.29 79.34" stroke="#1e1e1e" stroke-width="2" fill="none"></path></g><g transform="translate(518.258603620347 499.08126733694263) rotate(0 4.644735802701916 39.66774053661793)"><path d="M-1.83 56.94 C3.22 64.03, 3.95 69.62, 9.29 79.34 M-1.83 56.94 C0.88 61.83, 3.11 66.67, 9.29 79.34" stroke="#1e1e1e" stroke-width="2" fill="none"></path></g><g transform="translate(518.258603620347 499.08126733694263) rotate(0 4.644735802701916 39.66774053661793)"><path d="M15.17 55.04 C15.27 62.66, 11.04 68.81, 9.29 79.34 M15.17 55.04 C14.32 60.2, 13 65.44, 9.29 79.34" stroke="#1e1e1e" stroke-width="2" fill="none"></path></g></g><mask></mask><g stroke-linecap="round"><g transform="translate(591.856261282069 496.8108623486499) rotate(0 42.20509337153817 41.914054141875404)"><path d="M0 0 C19.61 18.79, 38.68 40.24, 84.41 83.83 M0 0 C22.9 21.33, 44.79 43, 84.41 83.83" stroke="#1e1e1e" stroke-width="2" fill="none"></path></g><g transform="translate(591.856261282069 496.8108623486499) rotate(0 42.20509337153817 41.914054141875404)"><path d="M61.87 73.01 C67.46 75.19, 72.14 79.66, 84.41 83.83 M61.87 73.01 C68.07 75.85, 73.86 78.53, 84.41 83.83" stroke="#1e1e1e" stroke-width="2" fill="none"></path></g><g transform="translate(591.856261282069 496.8108623486499) rotate(0 42.20509337153817 41.914054141875404)"><path d="M74.1 61.05 C76.78 66.09, 78.61 73.34, 84.41 83.83 M74.1 61.05 C77.21 67.1, 79.82 72.89, 84.41 83.83" stroke="#1e1e1e" stroke-width="2" fill="none"></path></g></g><mask></mask><g stroke-linecap="round"><g transform="translate(653.1319040586238 485.6597349752535) rotate(0 86.55089002315185 46.378506717462486)"><path d="M0 0 C54.29 25.36, 105.27 55.61, 173.1 92.76 M0 0 C35.78 18.32, 71.45 38.53, 173.1 92.76" stroke="#1e1e1e" stroke-width="2" fill="none"></path></g><g transform="translate(653.1319040586238 485.6597349752535) rotate(0 86.55089002315185 46.378506717462486)"><path d="M148.36 89.18 C157.7 88.63, 163.71 91.86, 173.1 92.76 M148.36 89.18 C153.45 89.71, 157.86 91.13, 173.1 92.76" stroke="#1e1e1e" stroke-width="2" fill="none"></path></g><g transform="translate(653.1319040586238 485.6597349752535) rotate(0 86.55089002315185 46.378506717462486)"><path d="M156.44 74.12 C163.33 78.19, 166.89 85.99, 173.1 92.76 M156.44 74.12 C159.73 77.87, 162.45 82.47, 173.1 92.76" stroke="#1e1e1e" stroke-width="2" fill="none"></path></g></g><mask></mask><g stroke-linecap="round"><g transform="translate(690.1719338104017 470.83980509356485) rotate(0 124.67159086298955 52.67736054719575)"><path d="M0 0 C87.86 35.6, 175.31 74.41, 249.34 105.35 M0 0 C56.64 22.97, 113.78 48.07, 249.34 105.35" stroke="#1e1e1e" stroke-width="2" fill="none"></path></g><g transform="translate(690.1719338104017 470.83980509356485) rotate(0 124.67159086298955 52.67736054719575)"><path d="M224.38 104.05 C233.97 102.88, 242.09 105.42, 249.34 105.35 M224.38 104.05 C230.16 103.84, 235.61 105.25, 249.34 105.35" stroke="#1e1e1e" stroke-width="2" fill="none"></path></g><g transform="translate(690.1719338104017 470.83980509356485) rotate(0 124.67159086298955 52.67736054719575)"><path d="M231.06 88.31 C238.15 92.7, 243.91 100.8, 249.34 105.35 M231.06 88.31 C235.16 91.76, 239.07 96.79, 249.34 105.35" stroke="#1e1e1e" stroke-width="2" fill="none"></path></g></g><mask></mask><g transform="translate(376.2962171766492 513.972303965734) rotate(0 90 12.5)"><text x="0" y="17.52" font-family="Virgil, Segoe UI Emoji" font-size="20px" fill="#1e1e1e" text-anchor="start" style="white-space: pre;" direction="ltr" dominant-baseline="alphabetic">询问是否准备好提交</text></g><g stroke-linecap="round" transform="translate(902.0501854306178 584.9246849181154) rotate(0 37.77777777777783 132.22222222222223)"><path d="M0 0 C18.23 -2.19, 37.24 -2.2, 75.56 0 M0 0 C20.74 1.22, 40.88 0.58, 75.56 0 M75.56 0 C74.41 82.58, 73.45 166.11, 75.56 264.44 M75.56 0 C76.73 92, 77.85 182.41, 75.56 264.44 M75.56 264.44 C54.85 263.29, 33.65 265.33, 0 264.44 M75.56 264.44 C46.96 265.16, 19.1 265.37, 0 264.44 M0 264.44 C-1.69 203.77, -1.62 141.86, 0 0 M0 264.44 C-2.12 209.06, -1.86 153.51, 0 0" stroke="#1e1e1e" stroke-width="2" fill="none"></path></g><g stroke-linecap="round" transform="translate(1176.2565346369665 44.170634920634484) rotate(0 494.44444444444446 262.2222222222222)"><path d="M0 0 C216.92 0.69, 432.45 0.76, 988.89 0 M0 0 C371.45 2.52, 742.88 2.59, 988.89 0 M988.89 0 C987.83 150.7, 987.63 301.15, 988.89 524.44 M988.89 0 C988.96 206.3, 988.4 412.75, 988.89 524.44 M988.89 524.44 C722.61 521.03, 455.11 520.88, 0 524.44 M988.89 524.44 C787.36 520.69, 585.42 520.2, 0 524.44 M0 524.44 C1.59 399.08, 0.82 273.18, 0 0 M0 524.44 C-1.36 356.06, -1.08 187.9, 0 0" stroke="#1e1e1e" stroke-width="2" fill="none"></path></g><g transform="translate(1178.1083412775915 13.059523809523398) rotate(0 56.739990234375 12.5)"><text x="0" y="17.52" font-family="Virgil, Segoe UI Emoji" font-size="20px" fill="#1e1e1e" text-anchor="start" style="white-space: pre;" direction="ltr" dominant-baseline="alphabetic">准备阶段2.0</text></g><g stroke-linecap="round" transform="translate(1442.9231673952129 55.281746031745456) rotate(0 216.66666666666652 50)"><path d="M266.53 2.19 C287.02 2.41, 308.24 4.57, 326.56 6.86 C344.89 9.16, 362 12.33, 376.48 15.97 C390.96 19.6, 404.27 24.25, 413.44 28.68 C422.62 33.1, 428.52 37.63, 431.52 42.51 C434.52 47.38, 434.99 52.85, 431.47 57.92 C427.94 62.99, 420.09 68.63, 410.38 72.93 C400.66 77.23, 387.91 80.33, 373.18 83.73 C358.44 87.12, 340.29 90.91, 321.95 93.28 C303.62 95.66, 283.71 96.83, 263.19 97.96 C242.67 99.09, 220.14 100.32, 198.83 100.06 C177.53 99.79, 155.37 98.27, 135.35 96.38 C115.32 94.5, 95.36 91.74, 78.68 88.74 C62.01 85.75, 46.87 82.44, 35.29 78.41 C23.7 74.39, 15.2 69.53, 9.16 64.6 C3.12 59.67, -1.04 53.7, -0.97 48.82 C-0.89 43.94, 2.95 39.88, 9.62 35.32 C16.3 30.76, 26.93 25.66, 39.09 21.45 C51.25 17.24, 65.77 12.99, 82.59 10.05 C99.42 7.12, 119.82 5.55, 140.04 3.85 C160.26 2.15, 179.82 0.01, 203.92 -0.14 C228.02 -0.28, 268.56 2.18, 284.63 2.99 C300.7 3.8, 301.48 3.84, 300.34 4.71 M151.3 1.84 C169.56 0.05, 194.39 0.65, 215.83 0.66 C237.28 0.66, 259.29 0.66, 279.97 1.87 C300.64 3.08, 322.39 5.09, 339.9 7.92 C357.4 10.75, 372.14 14.91, 384.99 18.85 C397.83 22.79, 408.95 27.17, 416.97 31.56 C424.99 35.94, 431.41 40.37, 433.09 45.18 C434.78 49.99, 431.76 55.29, 427.09 60.41 C422.43 65.52, 415.39 71.36, 405.09 75.87 C394.78 80.38, 381.04 84.49, 365.27 87.49 C349.5 90.49, 329.92 92.01, 310.48 93.85 C291.04 95.69, 269.71 97.44, 248.64 98.54 C227.58 99.63, 204.89 100.85, 184.09 100.44 C163.28 100.03, 143.04 98.18, 123.81 96.07 C104.59 93.95, 84.54 91.45, 68.73 87.77 C52.91 84.08, 39.37 78.53, 28.91 73.96 C18.45 69.38, 10.88 64.82, 5.96 60.3 C1.03 55.79, -2.33 51.88, -0.63 46.89 C1.08 41.9, 8.14 35.16, 16.18 30.34 C24.22 25.52, 34.65 21.54, 47.6 17.96 C60.56 14.38, 76.28 11.5, 93.93 8.87 C111.59 6.24, 143.79 3.28, 153.54 2.18 C163.29 1.08, 151.69 1.48, 152.42 2.28" stroke="#1e1e1e" stroke-width="2" fill="none"></path></g><g transform="translate(1609.3833648047942 92.92640697241808) rotate(0 50 12.5)"><text x="50" y="17.52" font-family="Virgil, Segoe UI Emoji" font-size="20px" fill="#1e1e1e" text-anchor="middle" style="white-space: pre;" direction="ltr" dominant-baseline="alphabetic">事务管理器</text></g><g stroke-linecap="round" transform="translate(1238.4787229507683 235.28174603174546) rotate(0 37.777777777777715 132.22222222222223)"><path d="M0 0 C24.7 1.28, 51.3 -0.57, 75.56 0 M0 0 C17.27 -0.13, 34.23 0.56, 75.56 0 M75.56 0 C73.72 75.56, 73.3 152.86, 75.56 264.44 M75.56 0 C73.84 98.88, 73.69 196.76, 75.56 264.44 M75.56 264.44 C53.32 265.81, 28.11 263.78, 0 264.44 M75.56 264.44 C58.63 263.53, 41.03 264.68, 0 264.44 M0 264.44 C-2.08 169.96, -1.25 73.68, 0 0 M0 264.44 C-2.2 185.84, -2.7 108.53, 0 0" stroke="#1e1e1e" stroke-width="2" fill="none"></path></g><g transform="translate(1246.2565007285461 342.5039682539677) rotate(0 30 25)"><text x="30" y="17.52" font-family="Virgil, Segoe UI Emoji" font-size="20px" fill="#1e1e1e" text-anchor="middle" style="white-space: pre;" direction="ltr" dominant-baseline="alphabetic">资源管</text><text x="30" y="42.519999999999996" font-family="Virgil, Segoe UI Emoji" font-size="20px" fill="#1e1e1e" text-anchor="middle" style="white-space: pre;" direction="ltr" dominant-baseline="alphabetic">理器</text></g><g stroke-linecap="round" transform="translate(1373.6638629247268 234.1706349206343) rotate(0 37.777777777777715 132.22222222222223)"><path d="M0 0 C27.34 -0.8, 58.46 -0.2, 75.56 0 M0 0 C24.45 -1.12, 49.83 -1.33, 75.56 0 M75.56 0 C74.86 59.35, 75.02 121.98, 75.56 264.44 M75.56 0 C75.67 82.48, 76.24 166.71, 75.56 264.44 M75.56 264.44 C48.29 265.19, 24.08 264.16, 0 264.44 M75.56 264.44 C60.57 265.57, 44.13 264.57, 0 264.44 M0 264.44 C-1.11 174.4, -1.97 80.93, 0 0 M0 264.44 C1.49 210.56, 1.63 155.79, 0 0" stroke="#1e1e1e" stroke-width="2" fill="none"></path></g><g transform="translate(1381.4416407025046 341.39285714285654) rotate(0 30.000000000000114 25)"><text x="30" y="17.52" font-family="Virgil, Segoe UI Emoji" font-size="20px" fill="#1e1e1e" text-anchor="middle" style="white-space: pre;" direction="ltr" dominant-baseline="alphabetic">资源管</text><text x="30" y="42.519999999999996" font-family="Virgil, Segoe UI Emoji" font-size="20px" fill="#1e1e1e" text-anchor="middle" style="white-space: pre;" direction="ltr" dominant-baseline="alphabetic">理器</text></g><g stroke-linecap="round" transform="translate(1511.4416407025049 234.1706349206343) rotate(0 37.77777777777783 132.22222222222223)"><path d="M0 0 C19.81 -1.11, 40.49 -0.09, 75.56 0 M0 0 C18.89 -0.42, 38.89 1.2, 75.56 0 M75.56 0 C77.54 55.3, 75.79 110.46, 75.56 264.44 M75.56 0 C77.4 52.78, 76.59 106.52, 75.56 264.44 M75.56 264.44 C46.46 263.51, 21.52 265.71, 0 264.44 M75.56 264.44 C46.06 264.9, 15.43 264.36, 0 264.44 M0 264.44 C-0.25 158.34, 0.84 54.34, 0 0 M0 264.44 C1.23 173.15, 0.02 82.66, 0 0" stroke="#1e1e1e" stroke-width="2" fill="none"></path></g><g transform="translate(1519.2194184802822 341.39285714285654) rotate(0 30 25)"><text x="30" y="17.52" font-family="Virgil, Segoe UI Emoji" font-size="20px" fill="#1e1e1e" text-anchor="middle" style="white-space: pre;" direction="ltr" dominant-baseline="alphabetic">资源管</text><text x="30" y="42.519999999999996" font-family="Virgil, Segoe UI Emoji" font-size="20px" fill="#1e1e1e" text-anchor="middle" style="white-space: pre;" direction="ltr" dominant-baseline="alphabetic">理器</text></g><g stroke-linecap="round" transform="translate(1649.2194184802822 236.3928571428566) rotate(0 37.77777777777783 132.22222222222223)"><path d="M0 0 C17.25 1.51, 34.89 -1.33, 75.56 0 M0 0 C15.05 0.28, 32.17 -0.41, 75.56 0 M75.56 0 C72 81.85, 73.95 162.05, 75.56 264.44 M75.56 0 C74.76 53.39, 74.35 105.99, 75.56 264.44 M75.56 264.44 C58.59 264.42, 37.7 265.82, 0 264.44 M75.56 264.44 C50.18 263.8, 22.66 263.45, 0 264.44 M0 264.44 C1.25 207.79, 0.19 153.35, 0 0 M0 264.44 C0.64 198.09, 1.53 131.33, 0 0" stroke="#1e1e1e" stroke-width="2" fill="none"></path></g><g transform="translate(1656.99719625806 343.6150793650788) rotate(0 30 25)"><text x="30" y="17.52" font-family="Virgil, Segoe UI Emoji" font-size="20px" fill="#1e1e1e" text-anchor="middle" style="white-space: pre;" direction="ltr" dominant-baseline="alphabetic">资源管</text><text x="30" y="42.519999999999996" font-family="Virgil, Segoe UI Emoji" font-size="20px" fill="#1e1e1e" text-anchor="middle" style="white-space: pre;" direction="ltr" dominant-baseline="alphabetic">理器</text></g><g stroke-linecap="round" transform="translate(1800.3305295913935 238.61507936507866) rotate(0 37.77777777777783 132.22222222222223)"><path d="M0 0 C26.32 -0.07, 57.66 -1.29, 75.56 0 M0 0 C29.04 -1.07, 57.98 -1.09, 75.56 0 M75.56 0 C74.53 97.52, 74.9 197.93, 75.56 264.44 M75.56 0 C75.35 80.27, 76.22 160.97, 75.56 264.44 M75.56 264.44 C55.66 264.39, 33.72 266.71, 0 264.44 M75.56 264.44 C56.55 263.46, 38.87 264.17, 0 264.44 M0 264.44 C-0.31 190.7, 0.53 117.59, 0 0 M0 264.44 C-0.98 187.13, -0.17 111.02, 0 0" stroke="#1e1e1e" stroke-width="2" fill="none"></path></g><g transform="translate(1808.1083073691714 345.8373015873009) rotate(0 30 25)"><text x="30" y="17.52" font-family="Virgil, Segoe UI Emoji" font-size="20px" fill="#1e1e1e" text-anchor="middle" style="white-space: pre;" direction="ltr" dominant-baseline="alphabetic">资源管</text><text x="30" y="42.519999999999996" font-family="Virgil, Segoe UI Emoji" font-size="20px" fill="#1e1e1e" text-anchor="middle" style="white-space: pre;" direction="ltr" dominant-baseline="alphabetic">理器</text></g><g stroke-linecap="round" transform="translate(1951.441640702504 236.3928571428566) rotate(0 37.77777777777783 132.22222222222223)"><path d="M0 0 C22.07 1.18, 41.09 0.79, 75.56 0 M0 0 C16.14 0.99, 31.25 -0.25, 75.56 0 M75.56 0 C74.03 63.39, 72.5 125.7, 75.56 264.44 M75.56 0 C76.63 84.87, 77.18 170.18, 75.56 264.44 M75.56 264.44 C53.23 264.7, 31.41 263.42, 0 264.44 M75.56 264.44 C54.63 264.55, 35.09 264.28, 0 264.44 M0 264.44 C-0.22 202.33, -1.18 138.51, 0 0 M0 264.44 C-0.38 197.46, -1.15 128.94, 0 0" stroke="#1e1e1e" stroke-width="2" fill="none"></path></g><g transform="translate(1959.2194184802818 343.6150793650788) rotate(0 30 25)"><text x="30" y="17.52" font-family="Virgil, Segoe UI Emoji" font-size="20px" fill="#1e1e1e" text-anchor="middle" style="white-space: pre;" direction="ltr" dominant-baseline="alphabetic">资源管</text><text x="30" y="42.519999999999996" font-family="Virgil, Segoe UI Emoji" font-size="20px" fill="#1e1e1e" text-anchor="middle" style="white-space: pre;" direction="ltr" dominant-baseline="alphabetic">理器</text></g><g transform="translate(2098.1083073691707 344.17063492063437) rotate(0 8.219993591308594 12.5)"><text x="0" y="17.52" font-family="Virgil, Segoe UI Emoji" font-size="20px" fill="#1e1e1e" text-anchor="start" style="white-space: pre;" direction="ltr" dominant-baseline="alphabetic">...</text></g><g stroke-linecap="round"><g transform="translate(1501.3655553866076 140.3050655120785) rotate(0 -110.52465913089895 46.98834025983348)"><path d="M0 0 C-69.83 29.9, -135.24 58.06, -221.05 93.98 M0 0 C-44.58 17.61, -89.62 35.77, -221.05 93.98" stroke="#1e1e1e" stroke-width="2" fill="none"></path></g><g transform="translate(1501.3655553866076 140.3050655120785) rotate(0 -110.52465913089895 46.98834025983348)"><path d="M-18.25 17.09 C-14.46 13.32, -6.44 7.48, 0 0 M-18.25 17.09 C-13.86 13.81, -10.69 9.39, 0 0" stroke="#1e1e1e" stroke-width="2" fill="none"></path></g><g transform="translate(1501.3655553866076 140.3050655120785) rotate(0 -110.52465913089895 46.98834025983348)"><path d="M-24.96 1.36 C-19.28 2.39, -9.21 1.35, 0 0 M-24.96 1.36 C-19.31 1.3, -14.79 0.06, 0 0" stroke="#1e1e1e" stroke-width="2" fill="none"></path></g></g><mask></mask><g stroke-linecap="round"><g transform="translate(1553.9490532746252 152.24922667585582) rotate(0 -63.338226562893624 40.460704122389245)"><path d="M0 0 C-38.41 26.1, -79.01 48.42, -126.68 80.92 M0 0 C-27.95 17.32, -57.07 36.69, -126.68 80.92" stroke="#1e1e1e" stroke-width="2" fill="none"></path></g><g transform="translate(1553.9490532746252 152.24922667585582) rotate(0 -63.338226562893624 40.460704122389245)"><path d="M-15.3 19.77 C-9.99 14.53, -7.86 6.54, 0 0 M-15.3 19.77 C-11.88 14.38, -9.03 11.07, 0 0" stroke="#1e1e1e" stroke-width="2" fill="none"></path></g><g transform="translate(1553.9490532746252 152.24922667585582) rotate(0 -63.338226562893624 40.460704122389245)"><path d="M-24.43 5.32 C-16.52 4.36, -11.63 0.72, 0 0 M-24.43 5.32 C-18.87 3.18, -13.96 3.13, 0 0" stroke="#1e1e1e" stroke-width="2" fill="none"></path></g></g><mask></mask><g stroke-linecap="round"><g transform="translate(1608.53847308422 157.1617146308132) rotate(0 -22.73142524081686 36.83779347824384)"><path d="M0 0 C-18.71 26.41, -35.17 56.27, -45.46 73.68 M0 0 C-14.21 22.1, -26.88 45.17, -45.46 73.68" stroke="#1e1e1e" stroke-width="2" fill="none"></path></g><g transform="translate(1608.53847308422 157.1617146308132) rotate(0 -22.73142524081686 36.83779347824384)"><path d="M-5.27 24.44 C-5.33 14.1, -2.9 7.42, 0 0 M-5.27 24.44 C-4.19 17.3, -1.5 10.65, 0 0" stroke="#1e1e1e" stroke-width="2" fill="none"></path></g><g transform="translate(1608.53847308422 157.1617146308132) rotate(0 -22.73142524081686 36.83779347824384)"><path d="M-19.75 15.33 C-14.39 8.33, -6.57 5.04, 0 0 M-19.75 15.33 C-14.28 11.08, -7.2 7.19, 0 0" stroke="#1e1e1e" stroke-width="2" fill="none"></path></g></g><mask></mask><g stroke-linecap="round"><g transform="translate(1684.5151382573133 155.94626495850952) rotate(0 4.644735802701916 39.66774053661791)"><path d="M0 0 C0.89 28.32, 5.61 54.34, 9.29 79.34 M0 0 C2.12 17.32, 3.2 32.69, 9.29 79.34" stroke="#1e1e1e" stroke-width="2" fill="none"></path></g><g transform="translate(1684.5151382573133 155.94626495850952) rotate(0 4.644735802701916 39.66774053661791)"><path d="M10.92 22.49 C5.92 15.96, 3.75 7.26, 0 0 M10.92 22.49 C9.38 18.84, 6.28 13.2, 0 0" stroke="#1e1e1e" stroke-width="2" fill="none"></path></g><g transform="translate(1684.5151382573133 155.94626495850952) rotate(0 4.644735802701916 39.66774053661791)"><path d="M-6.09 24.25 C-5.27 17.22, -1.64 7.92, 0 0 M-6.09 24.25 C-4.12 20.2, -3.7 14.19, 0 0" stroke="#1e1e1e" stroke-width="2" fill="none"></path></g></g><mask></mask><g stroke-linecap="round"><g transform="translate(1760.6127959190355 153.67585997021678) rotate(0 42.20509337153817 41.9140541418754)"><path d="M0 0 C19.62 19.72, 37.88 38.59, 84.41 83.83 M0 0 C27.36 26.06, 55.17 53.5, 84.41 83.83" stroke="#1e1e1e" stroke-width="2" fill="none"></path></g><g transform="translate(1760.6127959190355 153.67585997021678) rotate(0 42.20509337153817 41.9140541418754)"><path d="M22.64 10.6 C17.37 8.38, 10.02 4.67, 0 0 M22.64 10.6 C15.07 7.38, 8.5 4.5, 0 0" stroke="#1e1e1e" stroke-width="2" fill="none"></path></g><g transform="translate(1760.6127959190355 153.67585997021678) rotate(0 42.20509337153817 41.9140541418754)"><path d="M10.53 22.67 C8.24 17.49, 3.79 10.89, 0 0 M10.53 22.67 C6.78 15.46, 4.1 8.7, 0 0" stroke="#1e1e1e" stroke-width="2" fill="none"></path></g></g><mask></mask><g stroke-linecap="round"><g transform="translate(1819.38843869559 142.5247325968204) rotate(0 86.55089002315185 46.37850671746247)"><path d="M0 0 C60.53 32.27, 125.2 67.9, 173.1 92.76 M0 0 C68.88 37.33, 136.86 73.57, 173.1 92.76" stroke="#1e1e1e" stroke-width="2" fill="none"></path></g><g transform="translate(1819.38843869559 142.5247325968204) rotate(0 86.55089002315185 46.37850671746247)"><path d="M24.74 3.61 C13.95 1.33, 7.33 2.23, 0 0 M24.74 3.61 C15.4 2.65, 4.92 0.68, 0 0" stroke="#1e1e1e" stroke-width="2" fill="none"></path></g><g transform="translate(1819.38843869559 142.5247325968204) rotate(0 86.55089002315185 46.37850671746247)"><path d="M16.63 18.67 C8.76 10.96, 5.06 6.43, 0 0 M16.63 18.67 C10.54 11.74, 3.28 3.8, 0 0" stroke="#1e1e1e" stroke-width="2" fill="none"></path></g></g><mask></mask><g stroke-linecap="round"><g transform="translate(1856.428468447368 127.70480271513173) rotate(0 124.67159086298943 52.67736054719575)"><path d="M0 0 C76.57 34.46, 154.77 65.68, 249.34 105.35 M0 0 C74.14 30.24, 148.98 61.05, 249.34 105.35" stroke="#1e1e1e" stroke-width="2" fill="none"></path></g><g transform="translate(1856.428468447368 127.70480271513173) rotate(0 124.67159086298943 52.67736054719575)"><path d="M24.96 1.33 C17.69 2, 11.49 -0.09, 0 0 M24.96 1.33 C17.35 1, 11.12 0.06, 0 0" stroke="#1e1e1e" stroke-width="2" fill="none"></path></g><g transform="translate(1856.428468447368 127.70480271513173) rotate(0 124.67159086298943 52.67736054719575)"><path d="M18.27 17.07 C13.21 12.91, 9.07 5.96, 0 0 M18.27 17.07 C12.57 12.04, 8.32 6.44, 0 0" stroke="#1e1e1e" stroke-width="2" fill="none"></path></g></g><mask></mask><g stroke-linecap="round" transform="translate(2068.306720067584 241.78968253968225) rotate(0 37.77777777777783 132.22222222222223)"><path d="M0 0 C27.13 1.11, 55.38 -0.23, 75.56 0 M0 0 C22.01 -0.5, 43.62 0.19, 75.56 0 M75.56 0 C76.11 69.57, 75.69 135.29, 75.56 264.44 M75.56 0 C73.92 79.78, 73.27 160.31, 75.56 264.44 M75.56 264.44 C50.62 264.49, 21.79 264.31, 0 264.44 M75.56 264.44 C58.06 265.61, 38.8 265.67, 0 264.44 M0 264.44 C0.6 187.62, 2.13 114.72, 0 0 M0 264.44 C-0.91 210.53, -0.15 156.42, 0 0" stroke="#1e1e1e" stroke-width="2" fill="none"></path></g><g transform="translate(1283.2009790814116 170.48015873015834) rotate(0 43.43995666503906 12.5)"><text x="0" y="17.52" font-family="Virgil, Segoe UI Emoji" font-size="20px" fill="#1e1e1e" text-anchor="start" style="white-space: pre;" direction="ltr" dominant-baseline="alphabetic">Prepared</text></g><g transform="translate(1413.2009790814116 190.48015873015834) rotate(0 43.43995666503906 12.5)"><text x="0" y="17.52" font-family="Virgil, Segoe UI Emoji" font-size="20px" fill="#1e1e1e" text-anchor="start" style="white-space: pre;" direction="ltr" dominant-baseline="alphabetic">Prepared</text></g><g transform="translate(1555.7009790814116 195.48015873015834) rotate(0 43.43995666503906 12.5)"><text x="0" y="17.52" font-family="Virgil, Segoe UI Emoji" font-size="20px" fill="#1e1e1e" text-anchor="start" style="white-space: pre;" direction="ltr" dominant-baseline="alphabetic">Prepared</text></g><g transform="translate(1663.2009790814116 202.98015873015834) rotate(0 43.43995666503906 12.5)"><text x="0" y="17.52" font-family="Virgil, Segoe UI Emoji" font-size="20px" fill="#1e1e1e" text-anchor="start" style="white-space: pre;" direction="ltr" dominant-baseline="alphabetic">Prepared</text></g><g transform="translate(1793.2009790814116 210.48015873015834) rotate(0 43.43995666503906 12.5)"><text x="0" y="17.52" font-family="Virgil, Segoe UI Emoji" font-size="20px" fill="#1e1e1e" text-anchor="start" style="white-space: pre;" direction="ltr" dominant-baseline="alphabetic">Prepared</text></g><g transform="translate(1923.2009790814116 192.98015873015834) rotate(0 43.43995666503906 12.5)"><text x="0" y="17.52" font-family="Virgil, Segoe UI Emoji" font-size="20px" fill="#1e1e1e" text-anchor="start" style="white-space: pre;" direction="ltr" dominant-baseline="alphabetic">Prepared</text></g><g transform="translate(1978.2009790814116 160.48015873015834) rotate(0 43.43995666503906 12.5)"><text x="0" y="17.52" font-family="Virgil, Segoe UI Emoji" font-size="20px" fill="#1e1e1e" text-anchor="start" style="white-space: pre;" direction="ltr" dominant-baseline="alphabetic">Prepared</text></g><g stroke-linecap="round" transform="translate(1178.7565346369668 808.8134920634917) rotate(0 494.44444444444457 262.2222222222222)"><path d="M0 0 C316.36 -1.03, 634.01 -0.84, 988.89 0 M0 0 C273.57 1.64, 546.93 1.99, 988.89 0 M988.89 0 C989.72 152.48, 990.14 304.57, 988.89 524.44 M988.89 0 C989.77 128.92, 989.73 257.46, 988.89 524.44 M988.89 524.44 C660.82 520.58, 331.91 521.98, 0 524.44 M988.89 524.44 C642.62 524.93, 296.52 524.97, 0 524.44 M0 524.44 C2.07 386.32, 1.94 247.91, 0 0 M0 524.44 C1.64 387.29, 1.06 250.61, 0 0" stroke="#1e1e1e" stroke-width="2" fill="none"></path></g><g transform="translate(1180.6083412775918 777.7023809523806) rotate(0 52.56999206542969 12.5)"><text x="0" y="17.52" font-family="Virgil, Segoe UI Emoji" font-size="20px" fill="#1e1e1e" text-anchor="start" style="white-space: pre;" direction="ltr" dominant-baseline="alphabetic">准备阶段2.1</text></g><g stroke-linecap="round" transform="translate(1445.4231673952129 819.9246031746027) rotate(0 216.66666666666652 50)"><path d="M161.77 2.19 C180.68 0.13, 205.49 -0.26, 226.84 -0.05 C248.2 0.15, 270.06 1.68, 289.89 3.43 C309.72 5.19, 328.85 7.52, 345.83 10.47 C362.81 13.42, 379.24 17.16, 391.77 21.12 C404.3 25.08, 414.16 29.74, 421.01 34.23 C427.86 38.72, 431.96 43.28, 432.86 48.03 C433.75 52.78, 431.85 57.88, 426.38 62.74 C420.9 67.59, 411.57 73.06, 399.99 77.15 C388.42 81.24, 373.17 84.31, 356.91 87.29 C340.65 90.26, 322.07 92.79, 302.43 95 C282.79 97.2, 260.2 99.84, 239.08 100.52 C217.97 101.21, 196.49 100.28, 175.74 99.09 C154.99 97.91, 133.52 95.91, 114.57 93.43 C95.63 90.96, 77.16 87.71, 62.09 84.26 C47.01 80.82, 33.97 76.97, 24.11 72.76 C14.24 68.55, 6.52 63.74, 2.88 59 C-0.75 54.26, -0.42 49.19, 2.3 44.33 C5.01 39.46, 10.76 34.43, 19.18 29.79 C27.6 25.15, 38.92 20.12, 52.82 16.48 C66.71 12.85, 82.6 10.71, 102.56 7.97 C122.52 5.23, 158.77 1.09, 172.58 0.05 C186.39 -1, 184.7 0.87, 185.41 1.7 M245.42 -0.04 C265.91 -0.04, 288.67 2.65, 308.24 5.04 C327.81 7.42, 346.97 10.96, 362.84 14.29 C378.7 17.62, 392.72 21.04, 403.41 25.04 C414.09 29.03, 421.79 33.78, 426.95 38.26 C432.11 42.75, 435.63 47.25, 434.36 51.96 C433.09 56.66, 427.2 61.65, 419.36 66.48 C411.51 71.31, 400.38 76.59, 387.28 80.93 C374.17 85.27, 358.09 89.52, 340.72 92.51 C323.36 95.5, 303.39 97.54, 283.07 98.87 C262.75 100.19, 240.34 100.79, 218.81 100.44 C197.28 100.09, 174.37 98.22, 153.89 96.76 C133.42 95.31, 113.51 94.38, 95.94 91.71 C78.38 89.04, 62.11 84.67, 48.51 80.75 C34.91 76.82, 22.13 72.58, 14.35 68.14 C6.57 63.69, 3.49 58.79, 1.83 54.1 C0.16 49.4, -0.02 44.93, 4.36 39.96 C8.74 35, 17.38 28.62, 28.09 24.3 C38.81 19.99, 53.16 17.16, 68.66 14.06 C84.16 10.97, 102.39 8.16, 121.12 5.72 C139.84 3.27, 160.27 0.17, 181 -0.6 C201.74 -1.37, 234.65 0.9, 245.52 1.11 C256.4 1.33, 246.46 -0.26, 246.26 0.67" stroke="#1e1e1e" stroke-width="2" fill="none"></path></g><g transform="translate(1611.8833648047942 857.5692641152752) rotate(0 50 12.5)"><text x="50" y="17.52" font-family="Virgil, Segoe UI Emoji" font-size="20px" fill="#1e1e1e" text-anchor="middle" style="white-space: pre;" direction="ltr" dominant-baseline="alphabetic">事务管理器</text></g><g stroke-linecap="round" transform="translate(1240.9787229507685 999.9246031746027) rotate(0 37.77777777777783 132.22222222222223)"><path d="M0 0 C18.89 0.7, 39.4 -0.61, 75.56 0 M0 0 C27.48 0.41, 54.47 -0.22, 75.56 0 M75.56 0 C75.95 91.54, 75.57 185.05, 75.56 264.44 M75.56 0 C73.16 73.59, 74.55 148.66, 75.56 264.44 M75.56 264.44 C51.66 262.15, 29.05 263.23, 0 264.44 M75.56 264.44 C58.22 265.68, 40.54 264.66, 0 264.44 M0 264.44 C-0.55 201.97, 1.16 142.85, 0 0 M0 264.44 C1.71 191.13, 1.18 118.1, 0 0" stroke="#1e1e1e" stroke-width="2" fill="none"></path></g><g transform="translate(1248.7565007285464 1107.1468253968249) rotate(0 30 25)"><text x="30" y="17.52" font-family="Virgil, Segoe UI Emoji" font-size="20px" fill="#1e1e1e" text-anchor="middle" style="white-space: pre;" direction="ltr" dominant-baseline="alphabetic">资源管</text><text x="30" y="42.519999999999996" font-family="Virgil, Segoe UI Emoji" font-size="20px" fill="#1e1e1e" text-anchor="middle" style="white-space: pre;" direction="ltr" dominant-baseline="alphabetic">理器</text></g><g stroke-linecap="round" transform="translate(1376.1638629247275 998.8134920634916) rotate(0 37.77777777777783 132.2222222222222)"><path d="M0 0 C27.98 1.15, 52.83 1.15, 75.56 0 M0 0 C23.79 0.05, 46.23 1.15, 75.56 0 M75.56 0 C76.28 65.81, 76.89 132.63, 75.56 264.44 M75.56 0 C77.26 61.45, 76.74 122.18, 75.56 264.44 M75.56 264.44 C58.34 264.1, 45.45 264.55, 0 264.44 M75.56 264.44 C47.4 264.33, 21.08 264.04, 0 264.44 M0 264.44 C-2.39 209.93, -1.57 157.9, 0 0 M0 264.44 C1.68 194.53, 2.14 124.98, 0 0" stroke="#1e1e1e" stroke-width="2" fill="none"></path></g><g transform="translate(1383.9416407025053 1106.0357142857138) rotate(0 30 25)"><text x="30" y="17.52" font-family="Virgil, Segoe UI Emoji" font-size="20px" fill="#1e1e1e" text-anchor="middle" style="white-space: pre;" direction="ltr" dominant-baseline="alphabetic">资源管</text><text x="30" y="42.519999999999996" font-family="Virgil, Segoe UI Emoji" font-size="20px" fill="#1e1e1e" text-anchor="middle" style="white-space: pre;" direction="ltr" dominant-baseline="alphabetic">理器</text></g><g stroke-linecap="round" transform="translate(1513.9416407025058 998.8134920634916) rotate(0 37.77777777777783 132.2222222222222)"><path d="M0 0 C26.88 0.78, 52.34 0.57, 75.56 0 M0 0 C19.44 -0.06, 40.12 -0.75, 75.56 0 M75.56 0 C74.87 59.82, 76.74 117.11, 75.56 264.44 M75.56 0 C73.49 83.72, 73.91 167.63, 75.56 264.44 M75.56 264.44 C54.42 264.65, 29.97 263.19, 0 264.44 M75.56 264.44 C50.59 265.32, 27.74 264.12, 0 264.44 M0 264.44 C-1.14 207.77, -1.14 153.52, 0 0 M0 264.44 C-0.47 180.06, -0.81 95.11, 0 0" stroke="#1e1e1e" stroke-width="2" fill="none"></path></g><g transform="translate(1521.7194184802836 1106.0357142857138) rotate(0 30 25)"><text x="30" y="17.52" font-family="Virgil, Segoe UI Emoji" font-size="20px" fill="#1e1e1e" text-anchor="middle" style="white-space: pre;" direction="ltr" dominant-baseline="alphabetic">资源管</text><text x="30" y="42.519999999999996" font-family="Virgil, Segoe UI Emoji" font-size="20px" fill="#1e1e1e" text-anchor="middle" style="white-space: pre;" direction="ltr" dominant-baseline="alphabetic">理器</text></g><g stroke-linecap="round" transform="translate(1651.7194184802831 1001.0357142857138) rotate(0 37.77777777777783 132.22222222222226)"><path d="M0 0 C26.41 -1.1, 55.74 -1.3, 75.56 0 M0 0 C25.61 0.34, 51.85 -0.53, 75.56 0 M75.56 0 C76.89 99.68, 75.73 199.98, 75.56 264.44 M75.56 0 C74.77 67.79, 74.95 134.81, 75.56 264.44 M75.56 264.44 C53.02 264.81, 29.55 261.93, 0 264.44 M75.56 264.44 C44.71 264.54, 15.43 263.91, 0 264.44 M0 264.44 C1.05 209.82, 2.09 154.55, 0 0 M0 264.44 C1.42 176.08, 0.74 88.36, 0 0" stroke="#1e1e1e" stroke-width="2" fill="none"></path></g><g transform="translate(1659.497196258061 1108.257936507936) rotate(0 30 25)"><text x="30" y="17.52" font-family="Virgil, Segoe UI Emoji" font-size="20px" fill="#1e1e1e" text-anchor="middle" style="white-space: pre;" direction="ltr" dominant-baseline="alphabetic">资源管</text><text x="30" y="42.519999999999996" font-family="Virgil, Segoe UI Emoji" font-size="20px" fill="#1e1e1e" text-anchor="middle" style="white-space: pre;" direction="ltr" dominant-baseline="alphabetic">理器</text></g><g stroke-linecap="round" transform="translate(1802.8305295913945 1003.2579365079359) rotate(0 37.77777777777783 132.2222222222222)"><path d="M0 0 C20.88 0.99, 39.4 -1.22, 75.56 0 M0 0 C24.9 1.01, 48.21 0.69, 75.56 0 M75.56 0 C73.67 61.67, 73.32 124.45, 75.56 264.44 M75.56 0 C75.98 100.19, 75.4 201.13, 75.56 264.44 M75.56 264.44 C51.43 263.96, 22.98 261.87, 0 264.44 M75.56 264.44 C49.86 263.83, 25.7 264.38, 0 264.44 M0 264.44 C-1.29 177.4, -1.92 92.88, 0 0 M0 264.44 C-0.37 207.69, -0.19 151.56, 0 0" stroke="#1e1e1e" stroke-width="2" fill="none"></path></g><g transform="translate(1810.6083073691723 1110.480158730158) rotate(0 30 25)"><text x="30" y="17.52" font-family="Virgil, Segoe UI Emoji" font-size="20px" fill="#1e1e1e" text-anchor="middle" style="white-space: pre;" direction="ltr" dominant-baseline="alphabetic">资源管</text><text x="30" y="42.519999999999996" font-family="Virgil, Segoe UI Emoji" font-size="20px" fill="#1e1e1e" text-anchor="middle" style="white-space: pre;" direction="ltr" dominant-baseline="alphabetic">理器</text></g><g stroke-linecap="round" transform="translate(1953.941640702504 1001.0357142857138) rotate(0 37.77777777777783 132.22222222222226)"><path d="M0 0 C25.46 -1.29, 48.79 2.21, 75.56 0 M0 0 C25.79 -0.69, 51.97 -0.6, 75.56 0 M75.56 0 C75.4 70.03, 75.13 139.5, 75.56 264.44 M75.56 0 C74.45 69.04, 73.31 139.04, 75.56 264.44 M75.56 264.44 C52.44 263.24, 27.51 261.92, 0 264.44 M75.56 264.44 C55.8 265.45, 35.63 264.91, 0 264.44 M0 264.44 C-1.18 193.32, -1.22 121.61, 0 0 M0 264.44 C-0.05 183.07, -0.31 100.63, 0 0" stroke="#1e1e1e" stroke-width="2" fill="none"></path></g><g transform="translate(1961.7194184802818 1108.257936507936) rotate(0 30 25)"><text x="30" y="17.52" font-family="Virgil, Segoe UI Emoji" font-size="20px" fill="#1e1e1e" text-anchor="middle" style="white-space: pre;" direction="ltr" dominant-baseline="alphabetic">资源管</text><text x="30" y="42.519999999999996" font-family="Virgil, Segoe UI Emoji" font-size="20px" fill="#1e1e1e" text-anchor="middle" style="white-space: pre;" direction="ltr" dominant-baseline="alphabetic">理器</text></g><g transform="translate(2100.6083073691716 1108.8134920634916) rotate(0 8.219993591308594 12.5)"><text x="0" y="17.52" font-family="Virgil, Segoe UI Emoji" font-size="20px" fill="#1e1e1e" text-anchor="start" style="white-space: pre;" direction="ltr" dominant-baseline="alphabetic">...</text></g><g stroke-linecap="round"><g transform="translate(1503.8655553866085 904.9479226549357) rotate(0 -110.52465913089895 46.98834025983348)"><path d="M0 0 C-83.49 34.74, -168.88 70.1, -221.05 93.98 M0 0 C-56.45 23.28, -112.4 47.01, -221.05 93.98" stroke="#1e1e1e" stroke-width="2" fill="none"></path></g><g transform="translate(1503.8655553866085 904.9479226549357) rotate(0 -110.52465913089895 46.98834025983348)"><path d="M-18.35 16.98 C-11.09 9.22, -5.56 2.24, 0 0 M-18.35 16.98 C-13.66 13.59, -8.78 9.11, 0 0" stroke="#1e1e1e" stroke-width="2" fill="none"></path></g><g transform="translate(1503.8655553866085 904.9479226549357) rotate(0 -110.52465913089895 46.98834025983348)"><path d="M-24.97 1.21 C-15.11 -0.55, -7.06 -1.52, 0 0 M-24.97 1.21 C-18.66 1.87, -12.09 1.4, 0 0" stroke="#1e1e1e" stroke-width="2" fill="none"></path></g></g><mask></mask><g stroke-linecap="round"><g transform="translate(1556.449053274626 916.892083818713) rotate(0 -63.338226562893624 40.460704122389245)"><path d="M0 0 C-39.17 21.79, -77.2 47.28, -126.68 80.92 M0 0 C-29.22 20.42, -58.76 38.16, -126.68 80.92" stroke="#1e1e1e" stroke-width="2" fill="none"></path></g><g transform="translate(1556.449053274626 916.892083818713) rotate(0 -63.338226562893624 40.460704122389245)"><path d="M-15.45 19.66 C-11.92 12.02, -7.08 7.17, 0 0 M-15.45 19.66 C-11.67 15.61, -8.25 10.03, 0 0" stroke="#1e1e1e" stroke-width="2" fill="none"></path></g><g transform="translate(1556.449053274626 916.892083818713) rotate(0 -63.338226562893624 40.460704122389245)"><path d="M-24.47 5.13 C-18.2 1.94, -10.64 1.47, 0 0 M-24.47 5.13 C-18.6 4.38, -13.09 2.17, 0 0" stroke="#1e1e1e" stroke-width="2" fill="none"></path></g></g><mask></mask><g stroke-linecap="round"><g transform="translate(1611.03847308422 921.8045717736704) rotate(0 -22.73142524081686 36.83779347824384)"><path d="M0 0 C-12.03 16.21, -23.17 34.21, -45.46 73.68 M0 0 C-17.11 27.9, -35.11 56.46, -45.46 73.68" stroke="#1e1e1e" stroke-width="2" fill="none"></path></g><g transform="translate(1611.03847308422 921.8045717736704) rotate(0 -22.73142524081686 36.83779347824384)"><path d="M-5.58 24.37 C-5.05 17.96, -4.18 12.88, 0 0 M-5.58 24.37 C-3.48 14.69, -2.08 5.98, 0 0" stroke="#1e1e1e" stroke-width="2" fill="none"></path></g><g transform="translate(1611.03847308422 921.8045717736704) rotate(0 -22.73142524081686 36.83779347824384)"><path d="M-19.94 15.08 C-16.08 10.98, -11.83 8.09, 0 0 M-19.94 15.08 C-12.36 8.84, -5.51 3.67, 0 0" stroke="#1e1e1e" stroke-width="2" fill="none"></path></g></g><mask></mask><g stroke-linecap="round"><g transform="translate(1689.867959557788 920.5075980830732) rotate(0 -0.4856391590903968 38.656915244177696)"><path d="M0 0 C-1.92 16.15, 0.84 32.83, -0.97 77.31 M0 0 C-1.03 28.27, -0.24 56.08, -0.97 77.31" stroke="#e03131" stroke-width="2" fill="none"></path></g><g transform="translate(1689.867959557788 920.5075980830732) rotate(0 -0.4856391590903968 38.656915244177696)"><path d="M8.38 23.56 C5.37 18.51, 6.57 14.02, 0 0 M8.38 23.56 C4.63 15.13, 2.73 6.28, 0 0" stroke="#e03131" stroke-width="2" fill="none"></path></g><g transform="translate(1689.867959557788 920.5075980830732) rotate(0 -0.4856391590903968 38.656915244177696)"><path d="M-8.72 23.43 C-8.15 18.48, -3.35 14.01, 0 0 M-8.72 23.43 C-6.26 15.12, -1.94 6.32, 0 0" stroke="#e03131" stroke-width="2" fill="none"></path></g></g><mask></mask><g stroke-linecap="round"><g transform="translate(1768.5808522589252 917.1015321385207) rotate(0 35.341663843121296 38.772646629152035)"><path d="M0 0 C19.71 20.85, 38.02 40.97, 70.68 77.55 M0 0 C18.39 20.04, 35.43 41.39, 70.68 77.55" stroke="#e03131" stroke-width="2" fill="none"></path></g><g transform="translate(1768.5808522589252 917.1015321385207) rotate(0 35.341663843121296 38.772646629152035)"><path d="M22.2 11.5 C18.03 8.84, 11.84 5.48, 0 0 M22.2 11.5 C16.92 8.41, 9.68 6.49, 0 0" stroke="#e03131" stroke-width="2" fill="none"></path></g><g transform="translate(1768.5808522589252 917.1015321385207) rotate(0 35.341663843121296 38.772646629152035)"><path d="M9.62 23.08 C8.84 17.37, 5.97 10.96, 0 0 M9.62 23.08 C7.71 16.94, 3.76 11.99, 0 0" stroke="#e03131" stroke-width="2" fill="none"></path></g></g><mask></mask><g stroke-linecap="round"><g transform="translate(1821.8884386955908 907.1675897396776) rotate(0 86.55089002315185 46.37850671746247)"><path d="M0 0 C53.35 27.24, 102.65 53.29, 173.1 92.76 M0 0 C54.35 30.59, 110.4 58.83, 173.1 92.76" stroke="#1e1e1e" stroke-width="2" fill="none"></path></g><g transform="translate(1821.8884386955908 907.1675897396776) rotate(0 86.55089002315185 46.37850671746247)"><path d="M24.77 3.39 C18.67 2.49, 9.28 0.03, 0 0 M24.77 3.39 C15.9 3.25, 9.17 0.97, 0 0" stroke="#1e1e1e" stroke-width="2" fill="none"></path></g><g transform="translate(1821.8884386955908 907.1675897396776) rotate(0 86.55089002315185 46.37850671746247)"><path d="M16.8 18.52 C12.94 13.12, 5.91 6.17, 0 0 M16.8 18.52 C10.39 13.58, 6.19 6.51, 0 0" stroke="#1e1e1e" stroke-width="2" fill="none"></path></g></g><mask></mask><g stroke-linecap="round"><g transform="translate(1858.928468447368 892.3476598579889) rotate(0 124.67159086298943 52.67736054719575)"><path d="M0 0 C79.49 32.48, 159.94 67.89, 249.34 105.35 M0 0 C71.2 28.32, 142.3 59.11, 249.34 105.35" stroke="#1e1e1e" stroke-width="2" fill="none"></path></g><g transform="translate(1858.928468447368 892.3476598579889) rotate(0 124.67159086298943 52.67736054719575)"><path d="M24.97 1.26 C16.22 -0.53, 9.37 1.36, 0 0 M24.97 1.26 C17.91 0.9, 9.67 1.05, 0 0" stroke="#1e1e1e" stroke-width="2" fill="none"></path></g><g transform="translate(1858.928468447368 892.3476598579889) rotate(0 124.67159086298943 52.67736054719575)"><path d="M18.32 17.01 C11.59 10.19, 6.86 7.06, 0 0 M18.32 17.01 C13.34 12.04, 7.01 7.65, 0 0" stroke="#1e1e1e" stroke-width="2" fill="none"></path></g></g><mask></mask><g stroke-linecap="round" transform="translate(2070.806720067585 1006.4325396825395) rotate(0 37.77777777777783 132.2222222222222)"><path d="M0 0 C23.23 1.42, 45.54 -1.46, 75.56 0 M0 0 C29.02 0.46, 59.62 -0.17, 75.56 0 M75.56 0 C75.14 55.49, 76.18 110.33, 75.56 264.44 M75.56 0 C75.7 87.02, 75.03 174.69, 75.56 264.44 M75.56 264.44 C55.59 265.15, 33.32 264.49, 0 264.44 M75.56 264.44 C50.32 263.93, 25.64 263.31, 0 264.44 M0 264.44 C0.69 209.79, 1.47 156.56, 0 0 M0 264.44 C-1.12 205.42, -1.98 145.17, 0 0" stroke="#1e1e1e" stroke-width="2" fill="none"></path></g><g transform="translate(1285.700979081412 935.1230158730156) rotate(0 43.43995666503906 12.5)"><text x="0" y="17.52" font-family="Virgil, Segoe UI Emoji" font-size="20px" fill="#1e1e1e" text-anchor="start" style="white-space: pre;" direction="ltr" dominant-baseline="alphabetic">Prepared</text></g><g transform="translate(1415.700979081412 955.1230158730156) rotate(0 43.43995666503906 12.5)"><text x="0" y="17.52" font-family="Virgil, Segoe UI Emoji" font-size="20px" fill="#1e1e1e" text-anchor="start" style="white-space: pre;" direction="ltr" dominant-baseline="alphabetic">Prepared</text></g><g transform="translate(1558.200979081412 960.1230158730156) rotate(0 43.43995666503906 12.5)"><text x="0" y="17.52" font-family="Virgil, Segoe UI Emoji" font-size="20px" fill="#1e1e1e" text-anchor="start" style="white-space: pre;" direction="ltr" dominant-baseline="alphabetic">Prepared</text></g><g transform="translate(1645.700979081412 960.1230158730156) rotate(0 64.19993591308594 12.5)"><text x="0" y="17.52" font-family="Virgil, Segoe UI Emoji" font-size="20px" fill="#e03131" text-anchor="start" style="white-space: pre;" direction="ltr" dominant-baseline="alphabetic">Non-Prepared</text></g><g transform="translate(1765.700979081412 960.1230158730156) rotate(0 64.19993591308594 12.5)"><text x="0" y="17.52" font-family="Virgil, Segoe UI Emoji" font-size="20px" fill="#e03131" text-anchor="start" style="white-space: pre;" direction="ltr" dominant-baseline="alphabetic">Non-Prepared</text></g><g transform="translate(1925.700979081412 957.6230158730156) rotate(0 43.43995666503906 12.5)"><text x="0" y="17.52" font-family="Virgil, Segoe UI Emoji" font-size="20px" fill="#1e1e1e" text-anchor="start" style="white-space: pre;" direction="ltr" dominant-baseline="alphabetic">Prepared</text></g><g transform="translate(1980.700979081412 925.1230158730156) rotate(0 43.43995666503906 12.5)"><text x="0" y="17.52" font-family="Virgil, Segoe UI Emoji" font-size="20px" fill="#1e1e1e" text-anchor="start" style="white-space: pre;" direction="ltr" dominant-baseline="alphabetic">Prepared</text></g><g stroke-linecap="round"><g transform="translate(1000.7009790814116 552.9801587301583) rotate(0 83.75 -127.5)"><path d="M0 0 C55.79 -83.92, 113.62 -169.88, 167.5 -255 M0 0 C64.1 -95.66, 128.5 -193.65, 167.5 -255" stroke="#1e1e1e" stroke-width="2" fill="none"></path></g><g transform="translate(1000.7009790814116 552.9801587301583) rotate(0 83.75 -127.5)"><path d="M161.97 -230.62 C162.26 -237.31, 167.64 -247.9, 167.5 -255 M161.97 -230.62 C164.21 -239.11, 166.9 -249.24, 167.5 -255" stroke="#1e1e1e" stroke-width="2" fill="none"></path></g><g transform="translate(1000.7009790814116 552.9801587301583) rotate(0 83.75 -127.5)"><path d="M147.59 -239.88 C152.53 -243.61, 162.65 -251.15, 167.5 -255 M147.59 -239.88 C155.32 -244.69, 163.5 -251.28, 167.5 -255" stroke="#1e1e1e" stroke-width="2" fill="none"></path></g></g><mask></mask><g stroke-linecap="round"><g transform="translate(1003.2009790814116 685.4801587301582) rotate(0 82.5 145.00000000000006)"><path d="M0 0 C42.22 73.53, 83.99 145.29, 165 290 M0 0 C46.47 84.34, 93.39 167.25, 165 290" stroke="#1e1e1e" stroke-width="2" fill="none"></path></g><g transform="translate(1003.2009790814116 685.4801587301582) rotate(0 82.5 145.00000000000006)"><path d="M145.82 273.96 C150.83 278.34, 155.74 280.08, 165 290 M145.82 273.96 C151.89 279.23, 156.52 282.95, 165 290" stroke="#1e1e1e" stroke-width="2" fill="none"></path></g><g transform="translate(1003.2009790814116 685.4801587301582) rotate(0 82.5 145.00000000000006)"><path d="M160.62 265.39 C161.9 271.93, 163.07 275.85, 165 290 M160.62 265.39 C162.36 273.06, 162.73 279.25, 165 290" stroke="#1e1e1e" stroke-width="2" fill="none"></path></g></g><mask></mask><g transform="translate(2354.286912706162 10) rotate(0 46.55999755859375 12.5)"><text x="0" y="17.52" font-family="Virgil, Segoe UI Emoji" font-size="20px" fill="#1e1e1e" text-anchor="start" style="white-space: pre;" direction="ltr" dominant-baseline="alphabetic">提交阶段A</text></g><g stroke-linecap="round"><g transform="translate(2172.1295505099824 272.09920634920616) rotate(0 88 0)"><path d="M0 0 C66.83 1.14, 130.91 0.24, 176 0 M0 0 C61.42 1.05, 121.58 0.48, 176 0" stroke="#1e1e1e" stroke-width="2" fill="none"></path></g><g transform="translate(2172.1295505099824 272.09920634920616) rotate(0 88 0)"><path d="M152.58 8.74 C162.42 5.53, 169.46 1.36, 176 0 M152.58 8.74 C160.85 5.88, 167.91 2.26, 176 0" stroke="#1e1e1e" stroke-width="2" fill="none"></path></g><g transform="translate(2172.1295505099824 272.09920634920616) rotate(0 88 0)"><path d="M152.44 -8.36 C162.2 -5.18, 169.3 -2.95, 176 0 M152.44 -8.36 C160.83 -5.27, 167.93 -2.93, 176 0" stroke="#1e1e1e" stroke-width="2" fill="none"></path></g></g><mask></mask><g stroke-linecap="round"><g transform="translate(2180.1295505099824 1110.765954396081) rotate(0 82 2)"><path d="M0 0 C57.74 1.59, 120.63 3.67, 164 4 M0 0 C34.81 -1.22, 69.23 0.38, 164 4" stroke="#1e1e1e" stroke-width="2" fill="none"></path></g><g transform="translate(2180.1295505099824 1110.765954396081) rotate(0 82 2)"><path d="M140.2 11.65 C147.04 9.11, 159.08 6.96, 164 4 M140.2 11.65 C145.25 9.07, 149.81 8.19, 164 4" stroke="#1e1e1e" stroke-width="2" fill="none"></path></g><g transform="translate(2180.1295505099824 1110.765954396081) rotate(0 82 2)"><path d="M140.85 -5.44 C147.53 -1.78, 159.33 2.27, 164 4 M140.85 -5.44 C145.63 -4.38, 150.06 -1.62, 164 4" stroke="#1e1e1e" stroke-width="2" fill="none"></path></g></g><mask></mask><g stroke-linecap="round" transform="translate(2349.685106065539 38.4484301370278) rotate(0 494.44444444444457 262.2222222222222)"><path d="M0 0 C274.93 -0.19, 550.79 0.46, 988.89 0 M0 0 C282.9 2.97, 565.29 2.68, 988.89 0 M988.89 0 C988.55 115.24, 988.44 229.04, 988.89 524.44 M988.89 0 C987.54 141.74, 988.2 283.54, 988.89 524.44 M988.89 524.44 C598.64 525.89, 207.67 526.2, 0 524.44 M988.89 524.44 C599.48 520.75, 209.18 521.49, 0 524.44 M0 524.44 C1.22 412.73, 1.27 300.06, 0 0 M0 524.44 C0.03 372.7, 0.23 221.83, 0 0" stroke="#1e1e1e" stroke-width="2" fill="none"></path></g><g stroke-linecap="round" transform="translate(2616.351738823785 49.55954124813877) rotate(0 216.66666666666652 50)"><path d="M218.46 0.7 C238.77 0.11, 262.8 1.27, 283.09 2.52 C303.38 3.78, 322.86 5.38, 340.22 8.21 C357.58 11.03, 374.01 15.37, 387.27 19.47 C400.53 23.57, 412.11 28.38, 419.78 32.82 C427.45 37.26, 432.07 41.39, 433.27 46.12 C434.48 50.86, 431.96 56.49, 427.02 61.23 C422.08 65.97, 414.39 70.14, 403.64 74.57 C392.9 78.99, 378.28 84.14, 362.55 87.76 C346.83 91.37, 328.6 94.23, 309.29 96.25 C289.97 98.26, 267.9 99.34, 246.66 99.87 C225.43 100.4, 203.07 100.21, 181.87 99.44 C160.67 98.68, 138.38 97.57, 119.47 95.27 C100.56 92.98, 83.81 88.98, 68.39 85.67 C52.97 82.35, 37.69 79.65, 26.94 75.39 C16.19 71.13, 8.1 65.22, 3.89 60.12 C-0.32 55.02, -0.3 49.48, 1.66 44.82 C3.62 40.16, 7.64 36.48, 15.64 32.15 C23.64 27.82, 35.99 22.85, 49.65 18.85 C63.31 14.84, 80 10.92, 97.58 8.12 C115.15 5.31, 134.08 3.38, 155.11 2.01 C176.15 0.64, 211.87 -0.01, 223.77 -0.11 C235.67 -0.21, 226.57 0.41, 226.51 1.42 M262.55 2.47 C282.95 2.57, 303.79 4, 322.13 6.33 C340.46 8.67, 358.02 12.76, 372.56 16.48 C387.1 20.21, 399.51 24.49, 409.38 28.68 C419.25 32.87, 428.07 37.02, 431.78 41.62 C435.48 46.23, 434.85 51.18, 431.61 56.3 C428.38 61.42, 421.32 67.65, 412.37 72.33 C403.41 77.01, 392.12 80.85, 377.88 84.37 C363.65 87.88, 345.14 91.28, 326.96 93.43 C308.78 95.58, 289.57 96.39, 268.83 97.26 C248.09 98.14, 223.8 98.91, 202.52 98.67 C181.24 98.42, 160.71 97.17, 141.13 95.78 C121.55 94.4, 101.86 93.33, 85.05 90.36 C68.24 87.39, 52.84 82.16, 40.26 77.97 C27.68 73.77, 16.44 69.72, 9.58 65.21 C2.73 60.69, -0.91 55.56, -0.88 50.88 C-0.85 46.19, 3.8 41.83, 9.75 37.09 C15.7 32.34, 23.28 26.93, 34.81 22.43 C46.33 17.93, 62.22 13.16, 78.9 10.08 C95.58 7.01, 115.21 5.84, 134.88 3.99 C154.55 2.13, 175.79 -0.53, 196.92 -1.03 C218.06 -1.53, 250.81 0.64, 261.72 0.97 C272.62 1.3, 263.09 -0.06, 262.36 0.96" stroke="#1e1e1e" stroke-width="2" fill="none"></path></g><g transform="translate(2782.8119362333664 87.2042021888114) rotate(0 50 12.5)"><text x="50" y="17.52" font-family="Virgil, Segoe UI Emoji" font-size="20px" fill="#1e1e1e" text-anchor="middle" style="white-space: pre;" direction="ltr" dominant-baseline="alphabetic">事务管理器</text></g><g stroke-linecap="round" transform="translate(2411.907294379341 229.55954124813877) rotate(0 37.77777777777783 132.22222222222223)"><path d="M0 0 C21.37 2, 45.98 0.87, 75.56 0 M0 0 C18.47 0.78, 37.1 0.64, 75.56 0 M75.56 0 C75.9 58.77, 75.53 121.63, 75.56 264.44 M75.56 0 C77.81 103.08, 77.61 205.44, 75.56 264.44 M75.56 264.44 C47.59 265.8, 20.96 263.13, 0 264.44 M75.56 264.44 C47.43 265.02, 17.86 265.1, 0 264.44 M0 264.44 C0.96 191.35, -0.88 119.26, 0 0 M0 264.44 C-1.81 164.72, -1.66 65.13, 0 0" stroke="#1e1e1e" stroke-width="2" fill="none"></path></g><g transform="translate(2419.685072157119 336.781763470361) rotate(0 30 25)"><text x="30" y="17.52" font-family="Virgil, Segoe UI Emoji" font-size="20px" fill="#1e1e1e" text-anchor="middle" style="white-space: pre;" direction="ltr" dominant-baseline="alphabetic">资源管</text><text x="30" y="42.519999999999996" font-family="Virgil, Segoe UI Emoji" font-size="20px" fill="#1e1e1e" text-anchor="middle" style="white-space: pre;" direction="ltr" dominant-baseline="alphabetic">理器</text></g><g stroke-linecap="round" transform="translate(2547.092434353299 228.44843013702763) rotate(0 37.77777777777783 132.22222222222223)"><path d="M0 0 C26.76 -1.72, 55.12 0.28, 75.56 0 M0 0 C25.82 -0.58, 52.63 0.33, 75.56 0 M75.56 0 C77.78 56.01, 76.69 109.57, 75.56 264.44 M75.56 0 C76.13 80.02, 75.29 157.88, 75.56 264.44 M75.56 264.44 C47.79 262.39, 16.07 266.03, 0 264.44 M75.56 264.44 C46.68 264.98, 18.25 265.55, 0 264.44 M0 264.44 C2.71 190.15, 2.14 113.22, 0 0 M0 264.44 C-1 175.42, -1.33 86.95, 0 0" stroke="#1e1e1e" stroke-width="2" fill="none"></path></g><g transform="translate(2554.870212131077 335.67065235924986) rotate(0 30 25)"><text x="30" y="17.52" font-family="Virgil, Segoe UI Emoji" font-size="20px" fill="#1e1e1e" text-anchor="middle" style="white-space: pre;" direction="ltr" dominant-baseline="alphabetic">资源管</text><text x="30" y="42.519999999999996" font-family="Virgil, Segoe UI Emoji" font-size="20px" fill="#1e1e1e" text-anchor="middle" style="white-space: pre;" direction="ltr" dominant-baseline="alphabetic">理器</text></g><g stroke-linecap="round" transform="translate(2684.870212131077 228.44843013702763) rotate(0 37.77777777777783 132.22222222222223)"><path d="M0 0 C17.57 0.94, 33.83 -1.58, 75.56 0 M0 0 C19.46 -0.08, 41.51 0.43, 75.56 0 M75.56 0 C75.99 104.51, 74.55 209.48, 75.56 264.44 M75.56 0 C75.04 103.44, 73.98 209.13, 75.56 264.44 M75.56 264.44 C60.99 266.13, 44.98 264.68, 0 264.44 M75.56 264.44 C53.6 264.09, 32.28 265.57, 0 264.44 M0 264.44 C-0.3 160.66, 0.56 55.31, 0 0 M0 264.44 C0.59 186.02, 1.91 106.42, 0 0" stroke="#1e1e1e" stroke-width="2" fill="none"></path></g><g transform="translate(2692.6479899088554 335.67065235924986) rotate(0 30 25)"><text x="30" y="17.52" font-family="Virgil, Segoe UI Emoji" font-size="20px" fill="#1e1e1e" text-anchor="middle" style="white-space: pre;" direction="ltr" dominant-baseline="alphabetic">资源管</text><text x="30" y="42.519999999999996" font-family="Virgil, Segoe UI Emoji" font-size="20px" fill="#1e1e1e" text-anchor="middle" style="white-space: pre;" direction="ltr" dominant-baseline="alphabetic">理器</text></g><g stroke-linecap="round" transform="translate(2822.6479899088545 230.6706523592499) rotate(0 37.77777777777783 132.22222222222223)"><path d="M0 0 C26.16 -0.38, 54.74 -1.33, 75.56 0 M0 0 C26.49 -0.47, 51.44 -0.68, 75.56 0 M75.56 0 C75.13 80.87, 72.32 165.03, 75.56 264.44 M75.56 0 C73.96 52.85, 75.4 106.77, 75.56 264.44 M75.56 264.44 C49.05 264.18, 23.9 263.99, 0 264.44 M75.56 264.44 C59.14 265.46, 41.06 265.4, 0 264.44 M0 264.44 C-1.93 173.2, -0.85 82.56, 0 0 M0 264.44 C-1.72 167.2, -2.29 71.11, 0 0" stroke="#1e1e1e" stroke-width="2" fill="none"></path></g><g transform="translate(2830.4257676866328 337.89287458147214) rotate(0 30 25)"><text x="30" y="17.52" font-family="Virgil, Segoe UI Emoji" font-size="20px" fill="#1e1e1e" text-anchor="middle" style="white-space: pre;" direction="ltr" dominant-baseline="alphabetic">资源管</text><text x="30" y="42.519999999999996" font-family="Virgil, Segoe UI Emoji" font-size="20px" fill="#1e1e1e" text-anchor="middle" style="white-space: pre;" direction="ltr" dominant-baseline="alphabetic">理器</text></g><g stroke-linecap="round" transform="translate(2973.759101019966 232.89287458147197) rotate(0 37.77777777777783 132.22222222222223)"><path d="M0 0 C19.93 2.13, 40.12 2.6, 75.56 0 M0 0 C24.34 -0.91, 48.98 0.94, 75.56 0 M75.56 0 C72.23 63.11, 75.16 126.24, 75.56 264.44 M75.56 0 C77.94 72.65, 77.37 143.84, 75.56 264.44 M75.56 264.44 C51.79 265.07, 32.4 266.24, 0 264.44 M75.56 264.44 C50.12 265.63, 23.7 264.71, 0 264.44 M0 264.44 C-0.34 201.71, -1.64 136.44, 0 0 M0 264.44 C1.3 193.74, 0.78 122.37, 0 0" stroke="#1e1e1e" stroke-width="2" fill="none"></path></g><g transform="translate(2981.536878797744 340.1150968036942) rotate(0 30 25)"><text x="30" y="17.52" font-family="Virgil, Segoe UI Emoji" font-size="20px" fill="#1e1e1e" text-anchor="middle" style="white-space: pre;" direction="ltr" dominant-baseline="alphabetic">资源管</text><text x="30" y="42.519999999999996" font-family="Virgil, Segoe UI Emoji" font-size="20px" fill="#1e1e1e" text-anchor="middle" style="white-space: pre;" direction="ltr" dominant-baseline="alphabetic">理器</text></g><g stroke-linecap="round" transform="translate(3124.870212131076 230.6706523592499) rotate(0 37.77777777777783 132.22222222222223)"><path d="M0 0 C28.45 -0.02, 56.05 -0.53, 75.56 0 M0 0 C15.18 -1.55, 32.44 -1.7, 75.56 0 M75.56 0 C76.89 69.34, 78.59 136.39, 75.56 264.44 M75.56 0 C75.01 102.49, 74.94 203.71, 75.56 264.44 M75.56 264.44 C50.98 265.62, 25.45 265.99, 0 264.44 M75.56 264.44 C45.44 265.1, 15.7 265.1, 0 264.44 M0 264.44 C-0.16 160.75, 1.67 59.12, 0 0 M0 264.44 C1.44 169.03, 0.39 74.35, 0 0" stroke="#1e1e1e" stroke-width="2" fill="none"></path></g><g transform="translate(3132.6479899088545 337.89287458147214) rotate(0 30 25)"><text x="30" y="17.52" font-family="Virgil, Segoe UI Emoji" font-size="20px" fill="#1e1e1e" text-anchor="middle" style="white-space: pre;" direction="ltr" dominant-baseline="alphabetic">资源管</text><text x="30" y="42.519999999999996" font-family="Virgil, Segoe UI Emoji" font-size="20px" fill="#1e1e1e" text-anchor="middle" style="white-space: pre;" direction="ltr" dominant-baseline="alphabetic">理器</text></g><g transform="translate(3271.536878797743 338.4484301370277) rotate(0 8.219993591308594 12.5)"><text x="0" y="17.52" font-family="Virgil, Segoe UI Emoji" font-size="20px" fill="#1e1e1e" text-anchor="start" style="white-space: pre;" direction="ltr" dominant-baseline="alphabetic">...</text></g><g stroke-linecap="round"><g transform="translate(2674.79412681518 134.58286072847181) rotate(0 -110.52465913089895 46.98834025983348)"><path d="M0 0 C-67.52 28.98, -138.86 60.53, -221.05 93.98 M0 0 C-45.42 20.19, -88.27 39.94, -221.05 93.98" stroke="#1e1e1e" stroke-width="2" fill="none"></path></g><g transform="translate(2674.79412681518 134.58286072847181) rotate(0 -110.52465913089895 46.98834025983348)"><path d="M-202.59 77.11 C-206.57 81.24, -215.83 89.43, -221.05 93.98 M-202.59 77.11 C-207.23 80.38, -209.12 84.83, -221.05 93.98" stroke="#1e1e1e" stroke-width="2" fill="none"></path></g><g transform="translate(2674.79412681518 134.58286072847181) rotate(0 -110.52465913089895 46.98834025983348)"><path d="M-196.07 92.92 C-201.92 92.19, -213.2 95.49, -221.05 93.98 M-196.07 92.92 C-201.95 93.07, -205.14 94.35, -221.05 93.98" stroke="#1e1e1e" stroke-width="2" fill="none"></path></g></g><mask></mask><g stroke-linecap="round"><g transform="translate(2727.3776247031974 146.52702189224914) rotate(0 -63.338226562893624 40.460704122389245)"><path d="M0 0 C-45 29.23, -89.42 54.73, -126.68 80.92 M0 0 C-48.51 31.59, -97.75 62.81, -126.68 80.92" stroke="#1e1e1e" stroke-width="2" fill="none"></path></g><g transform="translate(2727.3776247031974 146.52702189224914) rotate(0 -63.338226562893624 40.460704122389245)"><path d="M-111.36 61.17 C-118.17 69.75, -123.82 73.96, -126.68 80.92 M-111.36 61.17 C-116.47 69.52, -122.84 77.2, -126.68 80.92" stroke="#1e1e1e" stroke-width="2" fill="none"></path></g><g transform="translate(2727.3776247031974 146.52702189224914) rotate(0 -63.338226562893624 40.460704122389245)"><path d="M-102.24 75.64 C-112.37 79.13, -121.19 78.3, -126.68 80.92 M-102.24 75.64 C-110.73 78.39, -120.62 80.5, -126.68 80.92" stroke="#1e1e1e" stroke-width="2" fill="none"></path></g></g><mask></mask><g stroke-linecap="round"><g transform="translate(2777.6988857902834 149.5049694744677) rotate(0 -26.6524320676981 39.97322608039124)"><path d="M0 0 C-15.51 18.9, -24.69 37.33, -53.3 79.95 M0 0 C-13.26 23.04, -28.49 43.82, -53.3 79.95" stroke="#1e1e1e" stroke-width="2" fill="none"></path></g><g transform="translate(2777.6988857902834 149.5049694744677) rotate(0 -26.6524320676981 39.97322608039124)"><path d="M-46.97 55.76 C-50.69 60.78, -48.53 65.76, -53.3 79.95 M-46.97 55.76 C-47.99 63.26, -50.43 68.86, -53.3 79.95" stroke="#1e1e1e" stroke-width="2" fill="none"></path></g><g transform="translate(2777.6988857902834 149.5049694744677) rotate(0 -26.6524320676981 39.97322608039124)"><path d="M-32.91 65.49 C-39.94 68.29, -41.17 70.92, -53.3 79.95 M-32.91 65.49 C-37.84 70.45, -44.12 73.41, -53.3 79.95" stroke="#1e1e1e" stroke-width="2" fill="none"></path></g></g><mask></mask><g stroke-linecap="round"><g transform="translate(2858.6894331480435 152.0291520006018) rotate(0 2.8522942534216327 37.34296272445388)"><path d="M0 0 C3.18 27.43, 3.15 60.2, 5.7 74.69 M0 0 C2.28 28.14, 4.64 57.01, 5.7 74.69" stroke="#1e1e1e" stroke-width="2" fill="none"></path></g><g transform="translate(2858.6894331480435 152.0291520006018) rotate(0 2.8522942534216327 37.34296272445388)"><path d="M-4.43 51.83 C1 59.06, 2.69 71.62, 5.7 74.69 M-4.43 51.83 C-0.72 60.29, 3.32 69.52, 5.7 74.69" stroke="#1e1e1e" stroke-width="2" fill="none"></path></g><g transform="translate(2858.6894331480435 152.0291520006018) rotate(0 2.8522942534216327 37.34296272445388)"><path d="M12.63 50.67 C11.39 58.28, 6.43 71.29, 5.7 74.69 M12.63 50.67 C9.88 59.72, 7.46 69.39, 5.7 74.69" stroke="#1e1e1e" stroke-width="2" fill="none"></path></g></g><mask></mask><g stroke-linecap="round"><g transform="translate(2931.541367347608 147.9536551866101) rotate(0 42.20509337153817 41.9140541418754)"><path d="M0 0 C21.8 24.14, 45.58 44.68, 84.41 83.83 M0 0 C32.36 32.93, 64.86 64.14, 84.41 83.83" stroke="#1e1e1e" stroke-width="2" fill="none"></path></g><g transform="translate(2931.541367347608 147.9536551866101) rotate(0 42.20509337153817 41.9140541418754)"><path d="M61.71 73.36 C67.06 78.16, 75.02 79.88, 84.41 83.83 M61.71 73.36 C70.41 77.88, 79.08 80.77, 84.41 83.83" stroke="#1e1e1e" stroke-width="2" fill="none"></path></g><g transform="translate(2931.541367347608 147.9536551866101) rotate(0 42.20509337153817 41.9140541418754)"><path d="M73.75 61.21 C76.12 69.02, 80.99 73.86, 84.41 83.83 M73.75 61.21 C77.77 70.42, 81.8 77.99, 84.41 83.83" stroke="#1e1e1e" stroke-width="2" fill="none"></path></g></g><mask></mask><g stroke-linecap="round"><g transform="translate(2992.817010124163 136.80252781321371) rotate(0 86.55089002315185 46.37850671746247)"><path d="M0 0 C38.32 19.12, 75.46 37.5, 173.1 92.76 M0 0 C49.82 25.3, 100.31 53.57, 173.1 92.76" stroke="#1e1e1e" stroke-width="2" fill="none"></path></g><g transform="translate(2992.817010124163 136.80252781321371) rotate(0 86.55089002315185 46.37850671746247)"><path d="M148.37 89.09 C155.23 90.59, 160.66 89.93, 173.1 92.76 M148.37 89.09 C155.38 89.33, 163.02 91.88, 173.1 92.76" stroke="#1e1e1e" stroke-width="2" fill="none"></path></g><g transform="translate(2992.817010124163 136.80252781321371) rotate(0 86.55089002315185 46.37850671746247)"><path d="M156.52 74.05 C161.59 78.85, 165.28 81.4, 173.1 92.76 M156.52 74.05 C161.17 78.68, 166.45 85.56, 173.1 92.76" stroke="#1e1e1e" stroke-width="2" fill="none"></path></g></g><mask></mask><g stroke-linecap="round"><g transform="translate(3029.8570398759402 121.9825979315251) rotate(0 124.67159086298943 52.67736054719575)"><path d="M0 0 C100.71 40.39, 197.9 82.42, 249.34 105.35 M0 0 C86.36 38.4, 173.01 74.53, 249.34 105.35" stroke="#1e1e1e" stroke-width="2" fill="none"></path></g><g transform="translate(3029.8570398759402 121.9825979315251) rotate(0 124.67159086298943 52.67736054719575)"><path d="M224.36 104.38 C235.98 104.16, 243.93 104.95, 249.34 105.35 M224.36 104.38 C233.36 105.68, 242.58 105.65, 249.34 105.35" stroke="#1e1e1e" stroke-width="2" fill="none"></path></g><g transform="translate(3029.8570398759402 121.9825979315251) rotate(0 124.67159086298943 52.67736054719575)"><path d="M230.83 88.55 C240.02 94.63, 245.4 101.69, 249.34 105.35 M230.83 88.55 C237.57 95.27, 244.56 100.72, 249.34 105.35" stroke="#1e1e1e" stroke-width="2" fill="none"></path></g></g><mask></mask><g transform="translate(2533.1241803850444 153.6865253751228) rotate(0 32.47996520996094 12.5)"><text x="0" y="17.52" font-family="Virgil, Segoe UI Emoji" font-size="20px" fill="#1e1e1e" text-anchor="start" style="white-space: pre;" direction="ltr" dominant-baseline="alphabetic">Commit</text></g><g stroke-linecap="round" transform="translate(3241.7352914961566 236.06747775607556) rotate(0 37.77777777777783 132.22222222222223)"><path d="M0 0 C21.74 -0.24, 40.24 0.76, 75.56 0 M0 0 C28.8 0.05, 57.57 0.59, 75.56 0 M75.56 0 C76.58 73.79, 76.58 151.45, 75.56 264.44 M75.56 0 C75.51 75.89, 76.11 150.89, 75.56 264.44 M75.56 264.44 C54.39 263.66, 35.11 266.01, 0 264.44 M75.56 264.44 C58.58 264.35, 39.77 264.74, 0 264.44 M0 264.44 C0.97 199.78, -0.24 137.21, 0 0 M0 264.44 C-0.54 206.76, -0.37 150.3, 0 0" stroke="#1e1e1e" stroke-width="2" fill="none"></path></g><g transform="translate(2654.5067281571655 165.31350950210725) rotate(0 32.47996520996094 12.5)"><text x="0" y="17.52" font-family="Virgil, Segoe UI Emoji" font-size="20px" fill="#1e1e1e" text-anchor="start" style="white-space: pre;" direction="ltr" dominant-baseline="alphabetic">Commit</text></g><g transform="translate(2748.79244244288 159.59922378782147) rotate(0 32.47996520996094 12.5)"><text x="0" y="17.52" font-family="Virgil, Segoe UI Emoji" font-size="20px" fill="#1e1e1e" text-anchor="start" style="white-space: pre;" direction="ltr" dominant-baseline="alphabetic">Commit</text></g><g transform="translate(2845.935299585737 173.8849380735358) rotate(0 32.47996520996094 12.5)"><text x="0" y="17.52" font-family="Virgil, Segoe UI Emoji" font-size="20px" fill="#1e1e1e" text-anchor="start" style="white-space: pre;" direction="ltr" dominant-baseline="alphabetic">Commit</text></g><g transform="translate(2943.078156728595 168.17065235925014) rotate(0 32.47996520996094 12.5)"><text x="0" y="17.52" font-family="Virgil, Segoe UI Emoji" font-size="20px" fill="#1e1e1e" text-anchor="start" style="white-space: pre;" direction="ltr" dominant-baseline="alphabetic">Commit</text></g><g transform="translate(3045.935299585738 168.17065235925003) rotate(0 32.47996520996094 12.5)"><text x="0" y="17.52" font-family="Virgil, Segoe UI Emoji" font-size="20px" fill="#1e1e1e" text-anchor="start" style="white-space: pre;" direction="ltr" dominant-baseline="alphabetic">Commit</text></g><g transform="translate(3091.6495853000233 133.8849380735357) rotate(0 32.47996520996094 12.5)"><text x="0" y="17.52" font-family="Virgil, Segoe UI Emoji" font-size="20px" fill="#1e1e1e" text-anchor="start" style="white-space: pre;" direction="ltr" dominant-baseline="alphabetic">Commit</text></g><g transform="translate(2351.429769849018 784.2242150685137) rotate(0 47.269996643066406 12.5)"><text x="0" y="17.52" font-family="Virgil, Segoe UI Emoji" font-size="20px" fill="#1e1e1e" text-anchor="start" style="white-space: pre;" direction="ltr" dominant-baseline="alphabetic">提交阶段B</text></g><g stroke-linecap="round" transform="translate(2346.827963208395 812.6726452055415) rotate(0 494.44444444444457 262.2222222222222)"><path d="M0 0 C236.69 -1.32, 475.11 -1.44, 988.89 0 M0 0 C340.55 0.84, 681.44 0.34, 988.89 0 M988.89 0 C987.72 145.15, 988.09 291.24, 988.89 524.44 M988.89 0 C989.53 208.81, 989.94 418.51, 988.89 524.44 M988.89 524.44 C615.77 526.85, 241.94 527.65, 0 524.44 M988.89 524.44 C736.77 526.67, 485.13 526.76, 0 524.44 M0 524.44 C-1.33 344.19, -2.31 162.12, 0 0 M0 524.44 C-0.14 316.36, -0.61 108.8, 0 0" stroke="#1e1e1e" stroke-width="2" fill="none"></path></g><g stroke-linecap="round" transform="translate(2613.494595966641 823.7837563166524) rotate(0 216.66666666666652 50)"><path d="M155.48 1.45 C173.94 -0.59, 199.03 -0.42, 220.23 -0.29 C241.44 -0.17, 262.66 0.52, 282.72 2.2 C302.77 3.88, 323 6.98, 340.55 9.8 C358.09 12.62, 374.76 15.24, 388 19.11 C401.25 22.99, 412.34 28.34, 420 33.04 C427.65 37.75, 432.68 42.65, 433.92 47.35 C435.15 52.05, 432.73 56.47, 427.41 61.26 C422.08 66.05, 412.8 71.66, 401.95 76.1 C391.11 80.54, 378.01 84.58, 362.34 87.89 C346.68 91.19, 327.36 94.01, 307.98 95.95 C288.6 97.89, 267.28 98.8, 246.05 99.53 C224.82 100.26, 201.68 101.07, 180.6 100.32 C159.52 99.57, 138.37 97.44, 119.56 95.03 C100.74 92.62, 83.01 89.2, 67.7 85.85 C52.38 82.51, 38.11 79.12, 27.68 74.96 C17.26 70.81, 9.45 65.89, 5.14 60.91 C0.83 55.93, -0.14 49.88, 1.84 45.06 C3.81 40.24, 9.17 36.51, 17.01 31.96 C24.84 27.41, 35.32 21.66, 48.83 17.75 C62.33 13.84, 77.34 11.18, 98.03 8.5 C118.72 5.82, 157.56 2.95, 172.95 1.67 C188.35 0.39, 189.66 -0.04, 190.38 0.83 M133.89 3.79 C151.57 1.35, 176.63 1.16, 197.65 0.53 C218.67 -0.1, 239.45 -0.85, 260 0.04 C280.55 0.93, 302.16 3.56, 320.95 5.89 C339.74 8.21, 357.89 10.49, 372.76 13.98 C387.64 17.47, 400.38 22.34, 410.2 26.83 C420.02 31.31, 428.16 35.71, 431.68 40.89 C435.19 46.06, 434.11 52.67, 431.29 57.89 C428.47 63.11, 423.44 68.15, 414.74 72.21 C406.05 76.28, 393.49 78.83, 379.1 82.26 C364.71 85.69, 346.89 89.95, 328.39 92.79 C309.88 95.63, 288.56 98.21, 268.07 99.29 C247.58 100.38, 226.64 99.58, 205.42 99.32 C184.21 99.07, 160.72 99.13, 140.78 97.76 C120.85 96.38, 102.65 94.27, 85.81 91.09 C68.97 87.9, 52.26 83.02, 39.73 78.63 C27.21 74.24, 17.12 69.19, 10.65 64.75 C4.18 60.3, 1.42 56.56, 0.93 51.96 C0.45 47.35, 1.95 42.02, 7.74 37.14 C13.52 32.25, 23.69 26.75, 35.67 22.62 C47.65 18.49, 63.12 15.29, 79.62 12.35 C96.13 9.42, 125.26 6.45, 134.71 5.01 C144.16 3.57, 135.17 3.04, 136.33 3.7" stroke="#1e1e1e" stroke-width="2" fill="none"></path></g><g transform="translate(2779.9547933762224 861.428417257325) rotate(0 50 12.5)"><text x="50" y="17.52" font-family="Virgil, Segoe UI Emoji" font-size="20px" fill="#1e1e1e" text-anchor="middle" style="white-space: pre;" direction="ltr" dominant-baseline="alphabetic">事务管理器</text></g><g stroke-linecap="round" transform="translate(2409.0501515221968 1003.7837563166524) rotate(0 37.77777777777783 132.22222222222223)"><path d="M0 0 C18.05 -0.74, 37.93 -0.18, 75.56 0 M0 0 C18.63 0.57, 35.58 1.03, 75.56 0 M75.56 0 C77.92 96.34, 76.26 195.16, 75.56 264.44 M75.56 0 C77.66 92.16, 77.17 183.61, 75.56 264.44 M75.56 264.44 C46.55 263.99, 15.58 265.77, 0 264.44 M75.56 264.44 C49.76 266.12, 25.87 264.89, 0 264.44 M0 264.44 C-1.98 200.65, -3.06 133.97, 0 0 M0 264.44 C-2.41 185.21, -1.96 106.16, 0 0" stroke="#1e1e1e" stroke-width="2" fill="none"></path></g><g transform="translate(2416.827929299975 1111.0059785388746) rotate(0 30 25)"><text x="30" y="17.52" font-family="Virgil, Segoe UI Emoji" font-size="20px" fill="#1e1e1e" text-anchor="middle" style="white-space: pre;" direction="ltr" dominant-baseline="alphabetic">资源管</text><text x="30" y="42.519999999999996" font-family="Virgil, Segoe UI Emoji" font-size="20px" fill="#1e1e1e" text-anchor="middle" style="white-space: pre;" direction="ltr" dominant-baseline="alphabetic">理器</text></g><g stroke-linecap="round" transform="translate(2544.235291496155 1002.6726452055414) rotate(0 37.77777777777783 132.22222222222223)"><path d="M0 0 C17.06 -0.23, 35.44 1.67, 75.56 0 M0 0 C24.22 0.55, 47.49 -0.26, 75.56 0 M75.56 0 C74.52 66.59, 73.71 131.7, 75.56 264.44 M75.56 0 C76.31 79.35, 75.75 159.85, 75.56 264.44 M75.56 264.44 C56.08 265.76, 37.2 263.82, 0 264.44 M75.56 264.44 C45.3 265.18, 16.33 264.24, 0 264.44 M0 264.44 C1.37 169.66, 0.14 71.02, 0 0 M0 264.44 C0.49 188.51, -0.63 111.71, 0 0" stroke="#1e1e1e" stroke-width="2" fill="none"></path></g><g transform="translate(2552.013069273933 1109.8948674277635) rotate(0 30 25)"><text x="30" y="17.52" font-family="Virgil, Segoe UI Emoji" font-size="20px" fill="#1e1e1e" text-anchor="middle" style="white-space: pre;" direction="ltr" dominant-baseline="alphabetic">资源管</text><text x="30" y="42.519999999999996" font-family="Virgil, Segoe UI Emoji" font-size="20px" fill="#1e1e1e" text-anchor="middle" style="white-space: pre;" direction="ltr" dominant-baseline="alphabetic">理器</text></g><g stroke-linecap="round" transform="translate(2682.013069273933 1002.6726452055414) rotate(0 37.77777777777783 132.22222222222223)"><path d="M0 0 C21.17 -1.04, 43.04 0.8, 75.56 0 M0 0 C29.6 -1, 60.78 0.35, 75.56 0 M75.56 0 C75.53 99.76, 74.15 201.12, 75.56 264.44 M75.56 0 C75.88 67.48, 76.58 135.05, 75.56 264.44 M75.56 264.44 C51.35 265.77, 22.82 262.95, 0 264.44 M75.56 264.44 C46.26 263.8, 15.15 264.46, 0 264.44 M0 264.44 C1.45 159.87, 1.63 56.35, 0 0 M0 264.44 C1.05 179.41, 1.36 94.04, 0 0" stroke="#1e1e1e" stroke-width="2" fill="none"></path></g><g transform="translate(2689.7908470517114 1109.8948674277635) rotate(0 30 25)"><text x="30" y="17.52" font-family="Virgil, Segoe UI Emoji" font-size="20px" fill="#1e1e1e" text-anchor="middle" style="white-space: pre;" direction="ltr" dominant-baseline="alphabetic">资源管</text><text x="30" y="42.519999999999996" font-family="Virgil, Segoe UI Emoji" font-size="20px" fill="#1e1e1e" text-anchor="middle" style="white-space: pre;" direction="ltr" dominant-baseline="alphabetic">理器</text></g><g stroke-linecap="round" transform="translate(2819.7908470517104 1004.8948674277635) rotate(0 37.77777777777783 132.22222222222223)"><path d="M0 0 C22.78 0.3, 41.97 -1.57, 75.56 0 M0 0 C16.95 -0.39, 32.96 -0.35, 75.56 0 M75.56 0 C73.05 79.49, 74.63 157.57, 75.56 264.44 M75.56 0 C77.08 83.14, 76.3 165.44, 75.56 264.44 M75.56 264.44 C48.3 264.41, 17.24 265.31, 0 264.44 M75.56 264.44 C58.84 263.65, 39.69 264.32, 0 264.44 M0 264.44 C0.35 182.51, -1.06 102.02, 0 0 M0 264.44 C0.03 191.05, 0.71 117.94, 0 0" stroke="#1e1e1e" stroke-width="2" fill="none"></path></g><g transform="translate(2827.5686248294887 1112.1170896499857) rotate(0 30 25)"><text x="30" y="17.52" font-family="Virgil, Segoe UI Emoji" font-size="20px" fill="#1e1e1e" text-anchor="middle" style="white-space: pre;" direction="ltr" dominant-baseline="alphabetic">资源管</text><text x="30" y="42.519999999999996" font-family="Virgil, Segoe UI Emoji" font-size="20px" fill="#1e1e1e" text-anchor="middle" style="white-space: pre;" direction="ltr" dominant-baseline="alphabetic">理器</text></g><g stroke-linecap="round" transform="translate(2970.9019581628218 1007.1170896499857) rotate(0 37.77777777777783 132.22222222222223)"><path d="M0 0 C24.01 1.42, 52.42 1.95, 75.56 0 M0 0 C22.47 -0.87, 45.94 -0.46, 75.56 0 M75.56 0 C76.89 87.61, 77.26 174.18, 75.56 264.44 M75.56 0 C75.14 105.25, 74.02 211.74, 75.56 264.44 M75.56 264.44 C50.12 263.87, 27.32 266.85, 0 264.44 M75.56 264.44 C58.88 264.34, 42.86 264.56, 0 264.44 M0 264.44 C1.05 202.13, 0.01 139.87, 0 0 M0 264.44 C-2.05 197.27, -1.33 129.38, 0 0" stroke="#1e1e1e" stroke-width="2" fill="none"></path></g><g transform="translate(2978.6797359406 1114.3393118722079) rotate(0 30 25)"><text x="30" y="17.52" font-family="Virgil, Segoe UI Emoji" font-size="20px" fill="#1e1e1e" text-anchor="middle" style="white-space: pre;" direction="ltr" dominant-baseline="alphabetic">资源管</text><text x="30" y="42.519999999999996" font-family="Virgil, Segoe UI Emoji" font-size="20px" fill="#1e1e1e" text-anchor="middle" style="white-space: pre;" direction="ltr" dominant-baseline="alphabetic">理器</text></g><g stroke-linecap="round" transform="translate(3122.013069273932 1004.8948674277635) rotate(0 37.77777777777783 132.22222222222223)"><path d="M0 0 C26.49 0.64, 53.1 -0.61, 75.56 0 M0 0 C16.48 0.89, 32.07 0.46, 75.56 0 M75.56 0 C77.85 93.18, 77.76 189.4, 75.56 264.44 M75.56 0 C74.56 71.44, 74.91 142.31, 75.56 264.44 M75.56 264.44 C55.31 264.15, 37.96 265.29, 0 264.44 M75.56 264.44 C52.31 263.92, 29.97 264.36, 0 264.44 M0 264.44 C1.19 186.31, 1.08 105.02, 0 0 M0 264.44 C-1.15 160.75, -1.66 58.16, 0 0" stroke="#1e1e1e" stroke-width="2" fill="none"></path></g><g transform="translate(3129.7908470517104 1112.1170896499857) rotate(0 30 25)"><text x="30" y="17.52" font-family="Virgil, Segoe UI Emoji" font-size="20px" fill="#1e1e1e" text-anchor="middle" style="white-space: pre;" direction="ltr" dominant-baseline="alphabetic">资源管</text><text x="30" y="42.519999999999996" font-family="Virgil, Segoe UI Emoji" font-size="20px" fill="#1e1e1e" text-anchor="middle" style="white-space: pre;" direction="ltr" dominant-baseline="alphabetic">理器</text></g><g transform="translate(3268.679735940599 1112.6726452055414) rotate(0 8.219993591308594 12.5)"><text x="0" y="17.52" font-family="Virgil, Segoe UI Emoji" font-size="20px" fill="#1e1e1e" text-anchor="start" style="white-space: pre;" direction="ltr" dominant-baseline="alphabetic">...</text></g><g stroke-linecap="round"><g transform="translate(2671.936983958036 908.8070757969855) rotate(0 -110.52465913089895 46.98834025983348)"><path d="M0 0 C-67.5 30.37, -131.91 57.44, -221.05 93.98 M0 0 C-68.03 30.73, -137.68 59.94, -221.05 93.98" stroke="#1e1e1e" stroke-width="2" fill="none"></path></g><g transform="translate(2671.936983958036 908.8070757969855) rotate(0 -110.52465913089895 46.98834025983348)"><path d="M-202.58 77.13 C-209.15 82.9, -212.67 86.72, -221.05 93.98 M-202.58 77.13 C-207.79 83.43, -214.51 88.62, -221.05 93.98" stroke="#1e1e1e" stroke-width="2" fill="none"></path></g><g transform="translate(2671.936983958036 908.8070757969855) rotate(0 -110.52465913089895 46.98834025983348)"><path d="M-196.07 92.94 C-204.45 94.06, -209.91 93.14, -221.05 93.98 M-196.07 92.94 C-203.39 94.34, -212.15 94.6, -221.05 93.98" stroke="#1e1e1e" stroke-width="2" fill="none"></path></g></g><mask></mask><g stroke-linecap="round"><g transform="translate(2724.5204818460534 920.7512369607628) rotate(0 -63.338226562893624 40.460704122389245)"><path d="M0 0 C-49.74 31.93, -101.08 65.95, -126.68 80.92 M0 0 C-42.54 29.26, -83.53 55.09, -126.68 80.92" stroke="#1e1e1e" stroke-width="2" fill="none"></path></g><g transform="translate(2724.5204818460534 920.7512369607628) rotate(0 -63.338226562893624 40.460704122389245)"><path d="M-111.05 61.4 C-116.27 68.56, -123.36 78.11, -126.68 80.92 M-111.05 61.4 C-116.72 69.02, -120.56 74.32, -126.68 80.92" stroke="#1e1e1e" stroke-width="2" fill="none"></path></g><g transform="translate(2724.5204818460534 920.7512369607628) rotate(0 -63.338226562893624 40.460704122389245)"><path d="M-102.16 76.01 C-110.85 77.38, -121.49 81.1, -126.68 80.92 M-102.16 76.01 C-110.87 78.83, -117.68 79.24, -126.68 80.92" stroke="#1e1e1e" stroke-width="2" fill="none"></path></g></g><mask></mask><g stroke-linecap="round"><g transform="translate(2767.4214642132047 924.5347240204444) rotate(0 -18.8828005980979 38.56896059254848)"><path d="M0 0 C-11.73 26.29, -23.66 51.37, -37.77 77.14 M0 0 C-14.61 30.82, -31.08 62.86, -37.77 77.14" stroke="#1e1e1e" stroke-width="2" fill="none"></path></g><g transform="translate(2767.4214642132047 924.5347240204444) rotate(0 -18.8828005980979 38.56896059254848)"><path d="M-35.17 52.27 C-35.66 61.53, -36.04 69.48, -37.77 77.14 M-35.17 52.27 C-35.47 61.92, -37.92 73.1, -37.77 77.14" stroke="#1e1e1e" stroke-width="2" fill="none"></path></g><g transform="translate(2767.4214642132047 924.5347240204444) rotate(0 -18.8828005980979 38.56896059254848)"><path d="M-19.79 59.76 C-25.36 66.51, -30.8 72, -37.77 77.14 M-19.79 59.76 C-26.19 66.56, -34.77 74.75, -37.77 77.14" stroke="#1e1e1e" stroke-width="2" fill="none"></path></g></g><mask></mask><g stroke-linecap="round"><g transform="translate(2855.8322902908985 926.2533670691155) rotate(0 2.8522942534216327 37.34296272445388)"><path d="M0 0 C2.3 20.8, 5.11 38.79, 5.7 74.69 M0 0 C2.34 30.35, 5.32 58.78, 5.7 74.69" stroke="#1e1e1e" stroke-width="2" fill="none"></path></g><g transform="translate(2855.8322902908985 926.2533670691155) rotate(0 2.8522942534216327 37.34296272445388)"><path d="M-4.13 51.7 C-0.78 58.68, 3.13 62.87, 5.7 74.69 M-4.13 51.7 C-0.61 61.73, 3.99 69.83, 5.7 74.69" stroke="#1e1e1e" stroke-width="2" fill="none"></path></g><g transform="translate(2855.8322902908985 926.2533670691155) rotate(0 2.8522942534216327 37.34296272445388)"><path d="M12.95 50.76 C11.73 58.09, 11.09 62.52, 5.7 74.69 M12.95 50.76 C9.76 61.11, 7.65 69.58, 5.7 74.69" stroke="#1e1e1e" stroke-width="2" fill="none"></path></g></g><mask></mask><g stroke-linecap="round"><g transform="translate(2928.6842244904637 922.1778702551237) rotate(0 42.20509337153817 41.9140541418754)"><path d="M0 0 C32.28 28.37, 62.17 60.95, 84.41 83.83 M0 0 C22.53 21.85, 45.77 43.81, 84.41 83.83" stroke="#1e1e1e" stroke-width="2" fill="none"></path></g><g transform="translate(2928.6842244904637 922.1778702551237) rotate(0 42.20509337153817 41.9140541418754)"><path d="M61.86 73.04 C71.89 75.73, 79.79 82.33, 84.41 83.83 M61.86 73.04 C68.08 75.76, 74.62 77.99, 84.41 83.83" stroke="#1e1e1e" stroke-width="2" fill="none"></path></g><g transform="translate(2928.6842244904637 922.1778702551237) rotate(0 42.20509337153817 41.9140541418754)"><path d="M74.07 61.07 C79.8 68.06, 83.36 78.93, 84.41 83.83 M74.07 61.07 C76.93 67.14, 80.17 72.6, 84.41 83.83" stroke="#1e1e1e" stroke-width="2" fill="none"></path></g></g><mask></mask><g stroke-linecap="round"><g transform="translate(2989.959867267019 911.0267428817274) rotate(0 86.55089002315185 46.37850671746247)"><path d="M0 0 C62.5 34.64, 119.76 63.81, 173.1 92.76 M0 0 C69.41 36.05, 136.84 73.46, 173.1 92.76" stroke="#1e1e1e" stroke-width="2" fill="none"></path></g><g transform="translate(2989.959867267019 911.0267428817274) rotate(0 86.55089002315185 46.37850671746247)"><path d="M148.37 89.12 C158.8 92.23, 164.87 90.66, 173.1 92.76 M148.37 89.12 C158.82 89.9, 167.45 91.99, 173.1 92.76" stroke="#1e1e1e" stroke-width="2" fill="none"></path></g><g transform="translate(2989.959867267019 911.0267428817274) rotate(0 86.55089002315185 46.37850671746247)"><path d="M156.49 74.07 C164.27 82.33, 167.54 85.96, 173.1 92.76 M156.49 74.07 C163.75 80.81, 169.16 88.87, 173.1 92.76" stroke="#1e1e1e" stroke-width="2" fill="none"></path></g></g><mask></mask><g stroke-linecap="round"><g transform="translate(3026.999897018796 896.2068130000388) rotate(0 124.67159086298943 52.67736054719575)"><path d="M0 0 C62.03 23.54, 125.73 50.78, 249.34 105.35 M0 0 C75.57 33.16, 152.18 64.44, 249.34 105.35" stroke="#1e1e1e" stroke-width="2" fill="none"></path></g><g transform="translate(3026.999897018796 896.2068130000388) rotate(0 124.67159086298943 52.67736054719575)"><path d="M224.37 104.16 C229.97 103.14, 238.67 104.92, 249.34 105.35 M224.37 104.16 C231.41 104.68, 240.45 104.26, 249.34 105.35" stroke="#1e1e1e" stroke-width="2" fill="none"></path></g><g transform="translate(3026.999897018796 896.2068130000388) rotate(0 124.67159086298943 52.67736054719575)"><path d="M230.98 88.39 C235.09 91.33, 242.16 97.01, 249.34 105.35 M230.98 88.39 C236.12 93.64, 243.16 97.99, 249.34 105.35" stroke="#1e1e1e" stroke-width="2" fill="none"></path></g></g><mask></mask><g transform="translate(2530.2670375278994 927.9107404436365) rotate(0 27.129974365234375 12.5)"><text x="0" y="17.52" font-family="Virgil, Segoe UI Emoji" font-size="20px" fill="#1e1e1e" text-anchor="start" style="white-space: pre;" direction="ltr" dominant-baseline="alphabetic">Abort</text></g><g stroke-linecap="round" transform="translate(3238.8781486390126 1010.2916928245893) rotate(0 37.77777777777783 132.22222222222223)"><path d="M0 0 C18.57 1.14, 35.72 -1.2, 75.56 0 M0 0 C22.1 0.47, 45.28 0.58, 75.56 0 M75.56 0 C74.92 99.3, 75.62 199.8, 75.56 264.44 M75.56 0 C76.42 55.31, 75.59 112.13, 75.56 264.44 M75.56 264.44 C45.6 264.82, 18.44 263.97, 0 264.44 M75.56 264.44 C48.74 264.73, 23.27 265.09, 0 264.44 M0 264.44 C-0.52 189.57, 1.5 112.02, 0 0 M0 264.44 C0.26 168.15, 0.13 71.59, 0 0" stroke="#1e1e1e" stroke-width="2" fill="none"></path></g><g transform="translate(2651.6495853000215 939.5377245706209) rotate(0 27.129974365234375 12.5)"><text x="0" y="17.52" font-family="Virgil, Segoe UI Emoji" font-size="20px" fill="#1e1e1e" text-anchor="start" style="white-space: pre;" direction="ltr" dominant-baseline="alphabetic">Abort</text></g><g transform="translate(2739.935299585736 947.8234388563351) rotate(0 27.129974365234375 12.5)"><text x="0" y="17.52" font-family="Virgil, Segoe UI Emoji" font-size="20px" fill="#1e1e1e" text-anchor="start" style="white-space: pre;" direction="ltr" dominant-baseline="alphabetic">Abort</text></g><g transform="translate(2843.078156728593 948.1091531420495) rotate(0 27.129974365234375 12.5)"><text x="0" y="17.52" font-family="Virgil, Segoe UI Emoji" font-size="20px" fill="#1e1e1e" text-anchor="start" style="white-space: pre;" direction="ltr" dominant-baseline="alphabetic">Abort</text></g><g transform="translate(2940.221013871451 942.3948674277638) rotate(0 27.129974365234375 12.5)"><text x="0" y="17.52" font-family="Virgil, Segoe UI Emoji" font-size="20px" fill="#1e1e1e" text-anchor="start" style="white-space: pre;" direction="ltr" dominant-baseline="alphabetic">Abort</text></g><g transform="translate(3043.078156728594 942.3948674277638) rotate(0 27.129974365234375 12.5)"><text x="0" y="17.52" font-family="Virgil, Segoe UI Emoji" font-size="20px" fill="#1e1e1e" text-anchor="start" style="white-space: pre;" direction="ltr" dominant-baseline="alphabetic">Abort</text></g><g transform="translate(3123.078156728593 939.5377245706208) rotate(0 27.129974365234375 12.5)"><text x="0" y="17.52" font-family="Virgil, Segoe UI Emoji" font-size="20px" fill="#1e1e1e" text-anchor="start" style="white-space: pre;" direction="ltr" dominant-baseline="alphabetic">Abort</text></g><g transform="translate(2884.1295505099815 860.6706523592495) rotate(0 27.129974365234375 12.5)"><text x="0" y="17.52" font-family="Virgil, Segoe UI Emoji" font-size="20px" fill="#1e1e1e" text-anchor="start" style="white-space: pre;" direction="ltr" dominant-baseline="alphabetic">Abort</text></g><g transform="translate(2888.7924424428747 85.31350950210668) rotate(0 32.47996520996094 12.5)"><text x="0" y="17.52" font-family="Virgil, Segoe UI Emoji" font-size="20px" fill="#1e1e1e" text-anchor="start" style="white-space: pre;" direction="ltr" dominant-baseline="alphabetic">Commit</text></g><g stroke-linecap="round" transform="translate(398.5581219385508 1400.1468428354408) rotate(0 527.1428571428572 32.85714285714289)"><path d="M0 0 C304.39 -4.26, 607.38 -4.51, 1054.29 0 M0 0 C362.91 -3.38, 725.12 -3.55, 1054.29 0 M1054.29 0 C1055.3 25.7, 1052.9 47.59, 1054.29 65.71 M1054.29 0 C1053.44 22.77, 1054.6 44.77, 1054.29 65.71 M1054.29 65.71 C742.41 64.57, 429.8 63.31, 0 65.71 M1054.29 65.71 C802.26 67.04, 550.44 67.02, 0 65.71 M0 65.71 C-0.43 46.24, 1.6 23.17, 0 0 M0 65.71 C-0.16 48.9, 0.39 32.34, 0 0" stroke="#1e1e1e" stroke-width="2" fill="none"></path></g><g transform="translate(403.5581219385508 1408.0039856925837) rotate(0 520.6198730468749 25)"><text x="0" y="17.52" font-family="Virgil, Segoe UI Emoji" font-size="20px" fill="#1e1e1e" text-anchor="start" style="white-space: pre;" direction="ltr" dominant-baseline="alphabetic">如果“是否准备好提交”询问没有到达，或资源管理器准备期间的响应没有到达，</text><text x="0" y="42.519999999999996" font-family="Virgil, Segoe UI Emoji" font-size="20px" fill="#1e1e1e" text-anchor="start" style="white-space: pre;" direction="ltr" dominant-baseline="alphabetic">则资源管理器不会返回Prepared或Non-prepared响应，事务管理器可能直接设置事务为失败(Abort)或进行超时重试。</text></g><g stroke-linecap="round" transform="translate(2423.1295505099797 1439.0992237878224) rotate(0 409.14285714285734 30.85714285714289)"><path d="M0 0 C296.17 -3.3, 591.69 -3.07, 818.29 0 M0 0 C301.14 -1.43, 602.56 -1.04, 818.29 0 M818.29 0 C820 22.11, 819.69 40.47, 818.29 61.71 M818.29 0 C818.53 23.6, 818.46 46.29, 818.29 61.71 M818.29 61.71 C583.25 61.89, 348.45 61.5, 0 61.71 M818.29 61.71 C625.11 63, 432.12 62.89, 0 61.71 M0 61.71 C1.29 40.93, 1.83 21.54, 0 0 M0 61.71 C-0.44 40.91, 0.56 22.44, 0 0" stroke="#1e1e1e" stroke-width="2" fill="none"></path></g><g transform="translate(2428.1295505099797 1444.9563666449653) rotate(0 400 25)"><text x="0" y="17.52" font-family="Virgil, Segoe UI Emoji" font-size="20px" fill="#1e1e1e" text-anchor="start" style="white-space: pre;" direction="ltr" dominant-baseline="alphabetic">如果事务管理器发出的COMMIT或ABORT命令没有到达参与的资源管理器，</text><text x="0" y="42.519999999999996" font-family="Virgil, Segoe UI Emoji" font-size="20px" fill="#1e1e1e" text-anchor="start" style="white-space: pre;" direction="ltr" dominant-baseline="alphabetic">则参与者在等待一段时间无响应后尝试与事务管理器重新建立联系，以确定事务最终状态。</text></g></svg>