<svg version="1.1" xmlns="http://www.w3.org/2000/svg" viewBox="0 0 738 532" width="738" height="532">
  <!-- svg-source:excalidraw -->
  
  <defs>
    <style class="style-fonts">
      @font-face {
        font-family: "Virgil";
        src: url("https://excalidraw.com/Virgil.woff2");
      }
      @font-face {
        font-family: "Cascadia";
        src: url("https://excalidraw.com/Cascadia.woff2");
      }
      @font-face {
        font-family: "Assistant";
        src: url("https://excalidraw.com/Assistant-Regular.woff2");
      }
    </style>
    
  </defs>
  <rect x="0" y="0" width="738" height="532" fill="#ffffff"></rect><g stroke-linecap="round" transform="translate(48 56) rotate(0 156 46)"><path d="M23 0 C96.44 1.1, 173.28 -0.24, 289 0 M23 0 C83.92 1.07, 145.26 -0.08, 289 0 M289 0 C302.37 -0.14, 313.72 5.84, 312 23 M289 0 C304.1 0.78, 310.71 9.81, 312 23 M312 23 C313.17 41.1, 312.4 58.09, 312 69 M312 23 C312.27 36.22, 312.33 49.8, 312 69 M312 69 C312.64 83.51, 302.63 91.22, 289 92 M312 69 C311.18 84.8, 305.68 90.87, 289 92 M289 92 C215.19 91.77, 139.29 93.59, 23 92 M289 92 C228.15 93.77, 165.73 92.91, 23 92 M23 92 C5.84 90.03, -1.98 85.49, 0 69 M23 92 C9.84 93.8, -1.2 83.92, 0 69 M0 69 C0.56 54.92, -0.33 37.93, 0 23 M0 69 C-0.01 54.26, 0.78 40.2, 0 23 M0 23 C-0.32 7.43, 6.45 -0.52, 23 0 M0 23 C-0.15 6.79, 5.88 -0.19, 23 0" stroke="#1e1e1e" stroke-width="2" fill="none"></path></g><g stroke-linecap="round" transform="translate(10 40) rotate(0 359 241)"><path d="M32 0 C198.43 2.59, 364.44 1.49, 686 0 M32 0 C177.42 -0.44, 322.65 -0.22, 686 0 M686 0 C708.82 1.74, 718.16 12.46, 718 32 M686 0 C706.3 -1.99, 716.52 8.83, 718 32 M718 32 C715.96 158.23, 715.02 286.24, 718 450 M718 32 C719.23 155.57, 719.74 279.84, 718 450 M718 450 C717.36 469.85, 708.34 481.36, 686 482 M718 450 C717.93 469.73, 707.95 483.5, 686 482 M686 482 C463.85 483.02, 242.72 482.73, 32 482 M686 482 C441.79 484.56, 197.42 484.21, 32 482 M32 482 C9.26 482.54, -0.49 471.24, 0 450 M32 482 C10.64 480.88, 0.74 472.98, 0 450 M0 450 C-2.46 351.84, -1.1 251.31, 0 32 M0 450 C-1.67 305.07, -1.59 160, 0 32 M0 32 C-1.74 11.53, 10.25 1.2, 32 0 M0 32 C1.59 10.14, 9.44 0.71, 32 0" stroke="#1e1e1e" stroke-width="2" fill="none"></path></g><g transform="translate(36 10) rotate(0 31.749969482421875 12.5)"><text x="0" y="17.52" font-family="Virgil, Segoe UI Emoji" font-size="20px" fill="#1e1e1e" text-anchor="start" style="white-space: pre;" direction="ltr" dominant-baseline="alphabetic">Broker</text></g><g transform="translate(74 68) rotate(0 78.49991607666016 12.5)"><text x="0" y="17.52" font-family="Virgil, Segoe UI Emoji" font-size="20px" fill="#1e1e1e" text-anchor="start" style="white-space: pre;" direction="ltr" dominant-baseline="alphabetic">topicA-partition1</text></g><g stroke-linecap="round" transform="translate(68 100) rotate(0 59 17.5)"><path d="M8.75 0 C44.54 -1.23, 80.22 -0.52, 109.25 0 M8.75 0 C32.35 -0.69, 55.86 0.54, 109.25 0 M109.25 0 C114.33 0.24, 119.91 2.65, 118 8.75 M109.25 0 C114.72 0.43, 117.32 3.88, 118 8.75 M118 8.75 C116.33 14.09, 117.42 18.66, 118 26.25 M118 8.75 C117.66 13.45, 117.65 19.15, 118 26.25 M118 26.25 C118.92 32.55, 113.82 33.91, 109.25 35 M118 26.25 C117.04 30.51, 117.11 34.28, 109.25 35 M109.25 35 C70.84 33.71, 29.01 33.8, 8.75 35 M109.25 35 C87.59 34.32, 64.64 33.15, 8.75 35 M8.75 35 C4.88 35.18, -0.26 33.79, 0 26.25 M8.75 35 C4.2 34.7, -1.53 31.84, 0 26.25 M0 26.25 C0.71 20.41, -1.51 17.27, 0 8.75 M0 26.25 C-0.35 19.62, -0.32 14.28, 0 8.75 M0 8.75 C0.65 3.82, 1.67 -0.42, 8.75 0 M0 8.75 C0.42 1.4, 4.55 0.14, 8.75 0" stroke="#1e1e1e" stroke-width="2" fill="none"></path></g><g transform="translate(87 105) rotate(0 40 12.5)"><text x="40" y="17.52" font-family="Virgil, Segoe UI Emoji" font-size="20px" fill="#1e1e1e" text-anchor="middle" style="white-space: pre;" direction="ltr" dominant-baseline="alphabetic">消息文件</text></g><g stroke-linecap="round" transform="translate(208 100) rotate(0 62 17.5)"><path d="M8.75 0 C34.89 2.33, 65.36 0.92, 115.25 0 M8.75 0 C45.01 0.7, 81.18 0.01, 115.25 0 M115.25 0 C120.87 -1.23, 125.58 2.81, 124 8.75 M115.25 0 C122.19 0.14, 125.06 0.83, 124 8.75 M124 8.75 C124.84 11.53, 123.67 15.35, 124 26.25 M124 8.75 C123.78 13.14, 123.85 16.4, 124 26.25 M124 26.25 C124.13 30.56, 119.2 34.29, 115.25 35 M124 26.25 C125.52 32.78, 122.39 36.78, 115.25 35 M115.25 35 C72.28 33.75, 29.96 34.53, 8.75 35 M115.25 35 C89.95 33.93, 63.35 34.62, 8.75 35 M8.75 35 C1.97 33.28, 0.31 33.17, 0 26.25 M8.75 35 C1.17 34.24, -0.38 31.19, 0 26.25 M0 26.25 C0.96 22.24, -1.05 16.88, 0 8.75 M0 26.25 C0.33 21.38, 0.17 16.9, 0 8.75 M0 8.75 C-1.02 2.6, 3.29 1.54, 8.75 0 M0 8.75 C2.12 1.65, 3.55 1.94, 8.75 0" stroke="#1e1e1e" stroke-width="2" fill="none"></path></g><g transform="translate(230 105) rotate(0 40 12.5)"><text x="40" y="17.52" font-family="Virgil, Segoe UI Emoji" font-size="20px" fill="#1e1e1e" text-anchor="middle" style="white-space: pre;" direction="ltr" dominant-baseline="alphabetic">索引文件</text></g><g stroke-linecap="round" transform="translate(382 58) rotate(0 156 46)"><path d="M23 0 C79.18 1.39, 137.83 1.4, 289 0 M23 0 C122.98 -0.69, 223.09 -1.55, 289 0 M289 0 C305.35 -0.47, 311.31 5.72, 312 23 M289 0 C302.18 -0.32, 311.94 5.52, 312 23 M312 23 C312.5 33.16, 313.33 42.95, 312 69 M312 23 C313.28 34.49, 311.56 45.39, 312 69 M312 69 C310.46 84.42, 302.89 91.47, 289 92 M312 69 C311.68 83.5, 304.08 93.78, 289 92 M289 92 C204.75 89.83, 120.6 90.21, 23 92 M289 92 C184.52 90.96, 81.67 91.15, 23 92 M23 92 C6.56 92.97, 1.44 83.89, 0 69 M23 92 C7.62 92.08, -0.08 86.27, 0 69 M0 69 C0.86 49.9, 0.53 32.64, 0 23 M0 69 C-0.88 55.28, -0.15 40.35, 0 23 M0 23 C-0.98 9.59, 9.52 0.39, 23 0 M0 23 C-0.72 7.75, 6.55 -0.05, 23 0" stroke="#1e1e1e" stroke-width="2" fill="none"></path></g><g transform="translate(408 70) rotate(0 82.909912109375 12.5)"><text x="0" y="17.52" font-family="Virgil, Segoe UI Emoji" font-size="20px" fill="#1e1e1e" text-anchor="start" style="white-space: pre;" direction="ltr" dominant-baseline="alphabetic">topicA-partition2</text></g><g stroke-linecap="round" transform="translate(402 102) rotate(0 59 17.5)"><path d="M8.75 0 C39.56 -0.52, 68.36 -0.69, 109.25 0 M8.75 0 C44.92 0.32, 79.72 -0.42, 109.25 0 M109.25 0 C113.21 -0.28, 117.95 1.05, 118 8.75 M109.25 0 C112.83 -0.62, 117.14 3.63, 118 8.75 M118 8.75 C117.18 15.86, 117.51 22.49, 118 26.25 M118 8.75 C117.2 14.33, 117.24 19.61, 118 26.25 M118 26.25 C117.72 31.36, 114.86 36.55, 109.25 35 M118 26.25 C118.31 30.87, 114.25 33.79, 109.25 35 M109.25 35 C89.85 35.61, 66.17 32.63, 8.75 35 M109.25 35 C82.75 35.3, 58.08 34.59, 8.75 35 M8.75 35 C2.87 35.07, -0.07 33.76, 0 26.25 M8.75 35 C4.64 32.97, -1.99 32.61, 0 26.25 M0 26.25 C0.21 23.6, -0.61 17.91, 0 8.75 M0 26.25 C-0.45 20.66, 0.79 13.55, 0 8.75 M0 8.75 C-0.63 2.99, 1.94 -0.05, 8.75 0 M0 8.75 C-0.16 2.65, 4.45 0.19, 8.75 0" stroke="#1e1e1e" stroke-width="2" fill="none"></path></g><g transform="translate(421 107) rotate(0 40 12.5)"><text x="40" y="17.52" font-family="Virgil, Segoe UI Emoji" font-size="20px" fill="#1e1e1e" text-anchor="middle" style="white-space: pre;" direction="ltr" dominant-baseline="alphabetic">消息文件</text></g><g stroke-linecap="round" transform="translate(542 102) rotate(0 62 17.5)"><path d="M8.75 0 C38.59 -0.82, 65.13 1.43, 115.25 0 M8.75 0 C37.25 0.9, 67.61 0.1, 115.25 0 M115.25 0 C119.13 -0.54, 123.25 3.54, 124 8.75 M115.25 0 C122.07 1.67, 125.56 1.68, 124 8.75 M124 8.75 C124.24 13.83, 123.5 20.12, 124 26.25 M124 8.75 C123.75 13.76, 123.78 20.08, 124 26.25 M124 26.25 C124.27 31.03, 120.36 33.95, 115.25 35 M124 26.25 C121.95 29.8, 119.58 37.08, 115.25 35 M115.25 35 C75.72 34.8, 37.49 32.98, 8.75 35 M115.25 35 C78.12 34.8, 41.01 35.61, 8.75 35 M8.75 35 C4.41 33.24, -1.73 32.54, 0 26.25 M8.75 35 C0.78 35.14, -2.16 32.38, 0 26.25 M0 26.25 C1.25 20.21, 0.3 12.95, 0 8.75 M0 26.25 C-0.44 19.34, -0.59 12.36, 0 8.75 M0 8.75 C-0.14 2.68, 4.25 0.17, 8.75 0 M0 8.75 C-2.16 3.98, 4.01 1.3, 8.75 0" stroke="#1e1e1e" stroke-width="2" fill="none"></path></g><g transform="translate(564 107) rotate(0 40 12.5)"><text x="40" y="17.52" font-family="Virgil, Segoe UI Emoji" font-size="20px" fill="#1e1e1e" text-anchor="middle" style="white-space: pre;" direction="ltr" dominant-baseline="alphabetic">索引文件</text></g><g stroke-linecap="round" transform="translate(46 176) rotate(0 156 46)"><path d="M23 0 C80.06 -0.35, 135.38 -0.51, 289 0 M23 0 C107.6 1.15, 191.86 2.31, 289 0 M289 0 C305.8 -0.86, 312.91 6.19, 312 23 M289 0 C304.93 0.07, 312.98 5.63, 312 23 M312 23 C313.72 39.41, 312.87 54.28, 312 69 M312 23 C312.6 38.68, 311.95 51.96, 312 69 M312 69 C310.71 84.11, 304.93 93.52, 289 92 M312 69 C310.28 86.01, 303.71 93.49, 289 92 M289 92 C192.42 91.12, 92.89 91.55, 23 92 M289 92 C235.94 89.74, 182.07 90.76, 23 92 M23 92 C6.56 93.58, 1.17 86.33, 0 69 M23 92 C7.92 93.89, 0.32 86.35, 0 69 M0 69 C-1.86 59.68, -1.99 48.02, 0 23 M0 69 C-0.04 53.58, 0.96 38.4, 0 23 M0 23 C1.21 9.66, 9.38 -0.53, 23 0 M0 23 C0.26 7.25, 6.34 1.81, 23 0" stroke="#1e1e1e" stroke-width="2" fill="none"></path></g><g transform="translate(72 188) rotate(0 82.59991455078125 12.5)"><text x="0" y="17.52" font-family="Virgil, Segoe UI Emoji" font-size="20px" fill="#1e1e1e" text-anchor="start" style="white-space: pre;" direction="ltr" dominant-baseline="alphabetic">topicA-partition3</text></g><g stroke-linecap="round" transform="translate(66 220) rotate(0 59 17.5)"><path d="M8.75 0 C40.95 -0.08, 70.57 -0.53, 109.25 0 M8.75 0 C29.98 -0.94, 50.19 -1.25, 109.25 0 M109.25 0 C115.6 0.06, 118.85 1.15, 118 8.75 M109.25 0 C116.45 2.22, 117.71 4.38, 118 8.75 M118 8.75 C118.39 12.91, 117.9 20.53, 118 26.25 M118 8.75 C117.47 15.58, 118.3 23.28, 118 26.25 M118 26.25 C116.5 33.54, 114.54 36.3, 109.25 35 M118 26.25 C119.52 29.88, 113.85 36.2, 109.25 35 M109.25 35 C75.57 34.92, 44.44 36.37, 8.75 35 M109.25 35 C88.34 36.11, 69.13 36.32, 8.75 35 M8.75 35 C3.14 36.64, 0.27 33.84, 0 26.25 M8.75 35 C1.1 37.13, 0.92 30.44, 0 26.25 M0 26.25 C0.76 19.18, -1.44 13.71, 0 8.75 M0 26.25 C0.41 21.84, 0.63 15.46, 0 8.75 M0 8.75 C0.23 2.55, 1.76 1.57, 8.75 0 M0 8.75 C0.69 2.45, 2.5 0.05, 8.75 0" stroke="#1e1e1e" stroke-width="2" fill="none"></path></g><g transform="translate(85 225) rotate(0 40 12.5)"><text x="40" y="17.52" font-family="Virgil, Segoe UI Emoji" font-size="20px" fill="#1e1e1e" text-anchor="middle" style="white-space: pre;" direction="ltr" dominant-baseline="alphabetic">消息文件</text></g><g stroke-linecap="round" transform="translate(206 220) rotate(0 62 17.5)"><path d="M8.75 0 C38.69 -1.54, 73.49 1.72, 115.25 0 M8.75 0 C36.38 0.82, 63.92 -0.1, 115.25 0 M115.25 0 C122.27 1.93, 123.75 4.19, 124 8.75 M115.25 0 C120.94 0.49, 121.93 3.37, 124 8.75 M124 8.75 C125.67 13.38, 123.16 16.15, 124 26.25 M124 8.75 C123.4 14.44, 123.82 19.42, 124 26.25 M124 26.25 C125.32 30.17, 120.01 36.05, 115.25 35 M124 26.25 C124.35 30.2, 122.06 32.72, 115.25 35 M115.25 35 C84.04 35.34, 57.36 34.39, 8.75 35 M115.25 35 C74.99 36.88, 34.64 36.94, 8.75 35 M8.75 35 C1.33 36.85, 0.8 30.65, 0 26.25 M8.75 35 C3.87 33.2, -0.77 32.9, 0 26.25 M0 26.25 C0.19 23.27, 0.63 18.99, 0 8.75 M0 26.25 C-0.05 19.09, -0.65 12.95, 0 8.75 M0 8.75 C0.6 2.51, 2.56 0.04, 8.75 0 M0 8.75 C1.63 3.04, 3.95 0.75, 8.75 0" stroke="#1e1e1e" stroke-width="2" fill="none"></path></g><g transform="translate(228 225) rotate(0 40 12.5)"><text x="40" y="17.52" font-family="Virgil, Segoe UI Emoji" font-size="20px" fill="#1e1e1e" text-anchor="middle" style="white-space: pre;" direction="ltr" dominant-baseline="alphabetic">索引文件</text></g><g stroke-linecap="round" transform="translate(380 178) rotate(0 156 46)"><path d="M23 0 C118.49 -1.44, 211.09 -1.93, 289 0 M23 0 C90.81 2.08, 157.1 2.13, 289 0 M289 0 C303.87 -1.63, 312.83 5.71, 312 23 M289 0 C304.9 -1.23, 310.26 9.34, 312 23 M312 23 C312.56 38.04, 310.54 51.42, 312 69 M312 23 C312.65 37.4, 312.37 50.92, 312 69 M312 69 C313.34 83.85, 305.36 90.48, 289 92 M312 69 C313.32 82.35, 305.6 92.67, 289 92 M289 92 C210.74 91.75, 132.04 92.04, 23 92 M289 92 C183.91 89.84, 79.85 91.03, 23 92 M23 92 C6.01 92.24, 0.37 85.74, 0 69 M23 92 C5.5 92.79, -1.04 83.6, 0 69 M0 69 C-0.54 57.59, -1.1 46.72, 0 23 M0 69 C0.71 52.21, 0.18 33.18, 0 23 M0 23 C-1.15 6.08, 8.13 0.34, 23 0 M0 23 C-0.13 6.25, 7.02 -1.25, 23 0" stroke="#1e1e1e" stroke-width="2" fill="none"></path></g><g transform="translate(406 190) rotate(0 79.20991516113281 12.5)"><text x="0" y="17.52" font-family="Virgil, Segoe UI Emoji" font-size="20px" fill="#1e1e1e" text-anchor="start" style="white-space: pre;" direction="ltr" dominant-baseline="alphabetic">topicB-partition1</text></g><g stroke-linecap="round" transform="translate(400 222) rotate(0 59 17.5)"><path d="M8.75 0 C36.22 0.28, 64 1.42, 109.25 0 M8.75 0 C44.45 -1.46, 81.01 -1.63, 109.25 0 M109.25 0 C115.58 -1.07, 116.49 4.37, 118 8.75 M109.25 0 C115.46 -1.58, 117.16 3.92, 118 8.75 M118 8.75 C118.11 15.6, 118.41 20.71, 118 26.25 M118 8.75 C118.6 13.86, 118.46 18.73, 118 26.25 M118 26.25 C119.15 30.35, 116.18 35.58, 109.25 35 M118 26.25 C117.87 30.53, 115.46 35.07, 109.25 35 M109.25 35 C84.79 35.59, 55.09 33.51, 8.75 35 M109.25 35 C85.58 35.9, 63.75 36.48, 8.75 35 M8.75 35 C1.03 35.69, -0.9 31.44, 0 26.25 M8.75 35 C1.21 34.09, 1.66 31.25, 0 26.25 M0 26.25 C1.52 21.74, -0.11 18.7, 0 8.75 M0 26.25 C-0.53 19.05, 0.18 13.38, 0 8.75 M0 8.75 C-0.11 1.69, 2.35 -1.09, 8.75 0 M0 8.75 C-0.94 4.49, 4.22 1.13, 8.75 0" stroke="#1e1e1e" stroke-width="2" fill="none"></path></g><g transform="translate(419 227) rotate(0 40 12.5)"><text x="40" y="17.52" font-family="Virgil, Segoe UI Emoji" font-size="20px" fill="#1e1e1e" text-anchor="middle" style="white-space: pre;" direction="ltr" dominant-baseline="alphabetic">消息文件</text></g><g stroke-linecap="round" transform="translate(540 222) rotate(0 62 17.5)"><path d="M8.75 0 C40.75 -2.45, 71.75 -0.96, 115.25 0 M8.75 0 C32.26 0.51, 54.52 1.77, 115.25 0 M115.25 0 C121.41 -1.37, 123.27 3.79, 124 8.75 M115.25 0 C121.65 -1.32, 123.21 3.2, 124 8.75 M124 8.75 C124.12 15.28, 122.66 22.76, 124 26.25 M124 8.75 C124.59 12.82, 124.57 18.66, 124 26.25 M124 26.25 C123.89 30.73, 121.41 35.06, 115.25 35 M124 26.25 C123.13 31.57, 120.63 37.14, 115.25 35 M115.25 35 C77.64 34.35, 44.49 32.66, 8.75 35 M115.25 35 C81.07 36.09, 48.32 35.43, 8.75 35 M8.75 35 C1.44 34.21, 1.44 31.36, 0 26.25 M8.75 35 C1.75 33.53, -1.71 33.94, 0 26.25 M0 26.25 C1.28 21.39, -1.39 15.05, 0 8.75 M0 26.25 C-0.09 21.85, -0.29 18.06, 0 8.75 M0 8.75 C-0.81 4.28, 4.05 0.98, 8.75 0 M0 8.75 C-0.69 2.5, 3.39 1.2, 8.75 0" stroke="#1e1e1e" stroke-width="2" fill="none"></path></g><g transform="translate(562 227) rotate(0 40 12.5)"><text x="40" y="17.52" font-family="Virgil, Segoe UI Emoji" font-size="20px" fill="#1e1e1e" text-anchor="middle" style="white-space: pre;" direction="ltr" dominant-baseline="alphabetic">索引文件</text></g><g stroke-linecap="round" transform="translate(40 292) rotate(0 156 46)"><path d="M23 0 C86.25 1.29, 148.46 0.23, 289 0 M23 0 C109.08 -0.82, 196.39 -0.86, 289 0 M289 0 C305.28 -1.88, 312.6 7.64, 312 23 M289 0 C302.68 2.25, 312.98 9.34, 312 23 M312 23 C313.56 31.92, 312.58 43.88, 312 69 M312 23 C311.5 38.24, 312.11 52.4, 312 69 M312 69 C312.54 83.45, 304.99 93.84, 289 92 M312 69 C313.51 82.88, 306.61 91.41, 289 92 M289 92 C204.56 93.85, 120.98 92.17, 23 92 M289 92 C220.56 92.16, 150.68 91.77, 23 92 M23 92 C7.25 93.45, 0.21 85.15, 0 69 M23 92 C9.19 91.11, 0.24 83.62, 0 69 M0 69 C1.76 55.77, -0.78 45.52, 0 23 M0 69 C-0.39 56.53, -0.14 41.83, 0 23 M0 23 C1.75 8.51, 8.91 -0.2, 23 0 M0 23 C0.42 6.65, 8.23 1.33, 23 0" stroke="#1e1e1e" stroke-width="2" fill="none"></path></g><g transform="translate(66 304) rotate(0 83.61991119384766 12.5)"><text x="0" y="17.52" font-family="Virgil, Segoe UI Emoji" font-size="20px" fill="#1e1e1e" text-anchor="start" style="white-space: pre;" direction="ltr" dominant-baseline="alphabetic">topicB-partition2</text></g><g stroke-linecap="round" transform="translate(60 336) rotate(0 59 17.5)"><path d="M8.75 0 C46.66 1.9, 84.05 -0.66, 109.25 0 M8.75 0 C34.99 -0.45, 60.58 0.47, 109.25 0 M109.25 0 C113.64 1.96, 118.85 4.37, 118 8.75 M109.25 0 C113.54 0.01, 117 4.71, 118 8.75 M118 8.75 C118.3 11.44, 118.8 15.73, 118 26.25 M118 8.75 C118.3 14.96, 118.35 22.75, 118 26.25 M118 26.25 C119.31 30.82, 117.07 34.49, 109.25 35 M118 26.25 C118.31 32.1, 115.86 33.49, 109.25 35 M109.25 35 C71.05 35.07, 34.06 35.68, 8.75 35 M109.25 35 C70.93 36.02, 33.14 35.7, 8.75 35 M8.75 35 C4.24 34.23, 0.21 31.47, 0 26.25 M8.75 35 C1.97 33.01, 0.45 33.64, 0 26.25 M0 26.25 C-0.16 22.11, 0.16 17.37, 0 8.75 M0 26.25 C0.79 20.26, 0.57 13.45, 0 8.75 M0 8.75 C0.36 2.03, 3.41 1.16, 8.75 0 M0 8.75 C1.12 3.67, 2.85 1.06, 8.75 0" stroke="#1e1e1e" stroke-width="2" fill="none"></path></g><g transform="translate(79 341) rotate(0 40 12.5)"><text x="40" y="17.52" font-family="Virgil, Segoe UI Emoji" font-size="20px" fill="#1e1e1e" text-anchor="middle" style="white-space: pre;" direction="ltr" dominant-baseline="alphabetic">消息文件</text></g><g stroke-linecap="round" transform="translate(200 336) rotate(0 62 17.5)"><path d="M8.75 0 C50.25 2.24, 92.53 1.26, 115.25 0 M8.75 0 C29.99 0.99, 53.09 0.74, 115.25 0 M115.25 0 C119.74 0.01, 123.13 4.48, 124 8.75 M115.25 0 C119.04 0.66, 123.4 3.25, 124 8.75 M124 8.75 C125.42 13.65, 124.9 17.72, 124 26.25 M124 8.75 C124.63 12.68, 124.93 17.49, 124 26.25 M124 26.25 C124.27 32.1, 121.76 33.69, 115.25 35 M124 26.25 C125.65 30.34, 120.29 34.05, 115.25 35 M115.25 35 C82.67 33.96, 47.52 35.13, 8.75 35 M115.25 35 C76.23 35.05, 35.98 35.12, 8.75 35 M8.75 35 C2.09 33.27, 0.39 33.44, 0 26.25 M8.75 35 C1.39 33.65, 0.38 31.73, 0 26.25 M0 26.25 C1.1 20.78, -1.7 17.39, 0 8.75 M0 26.25 C0.05 19.87, 0.11 14.78, 0 8.75 M0 8.75 C0.98 3.58, 2.86 0.92, 8.75 0 M0 8.75 C1.31 2.89, 1.41 -1.39, 8.75 0" stroke="#1e1e1e" stroke-width="2" fill="none"></path></g><g transform="translate(222 341) rotate(0 40 12.5)"><text x="40" y="17.52" font-family="Virgil, Segoe UI Emoji" font-size="20px" fill="#1e1e1e" text-anchor="middle" style="white-space: pre;" direction="ltr" dominant-baseline="alphabetic">索引文件</text></g><g stroke-linecap="round" transform="translate(390 286) rotate(0 156 46)"><path d="M23 0 C101.86 -0.6, 180.73 -0.05, 289 0 M23 0 C127.47 0.88, 231.88 1.95, 289 0 M289 0 C305.06 0.03, 313.87 8.56, 312 23 M289 0 C303.72 0.08, 312.87 9.66, 312 23 M312 23 C311.24 31.93, 311.72 43.41, 312 69 M312 23 C311.94 32.6, 311.54 43.85, 312 69 M312 69 C310.66 84.93, 304.31 90.79, 289 92 M312 69 C311.55 83.2, 305.62 91.91, 289 92 M289 92 C200.47 92.87, 112.96 93.93, 23 92 M289 92 C183.51 90.51, 76.21 90.43, 23 92 M23 92 C5.84 92.9, 0.65 85.32, 0 69 M23 92 C5.39 91.69, 0.48 85.47, 0 69 M0 69 C-1.37 56.61, -1.85 45.64, 0 23 M0 69 C0.29 53.09, 0.14 39.8, 0 23 M0 23 C-0.84 8.67, 6.11 -0.56, 23 0 M0 23 C-0.8 9.57, 6.27 1.56, 23 0" stroke="#1e1e1e" stroke-width="2" fill="none"></path></g><g transform="translate(416 298) rotate(0 83.3099136352539 12.5)"><text x="0" y="17.52" font-family="Virgil, Segoe UI Emoji" font-size="20px" fill="#1e1e1e" text-anchor="start" style="white-space: pre;" direction="ltr" dominant-baseline="alphabetic">topicB-partition3</text></g><g stroke-linecap="round" transform="translate(410 330) rotate(0 59 17.5)"><path d="M8.75 0 C46.62 -2.66, 79.61 -1.1, 109.25 0 M8.75 0 C35.02 -0.92, 61.49 -0.49, 109.25 0 M109.25 0 C114.55 0.07, 118.76 4.65, 118 8.75 M109.25 0 C113.49 0.89, 118.35 1.84, 118 8.75 M118 8.75 C116.64 11.02, 117.67 16.89, 118 26.25 M118 8.75 C117.4 12.98, 117.98 16.15, 118 26.25 M118 26.25 C117.61 31.1, 116.2 34.92, 109.25 35 M118 26.25 C118.67 30.93, 116.71 33.52, 109.25 35 M109.25 35 C85 35.07, 55.92 37.13, 8.75 35 M109.25 35 C85.73 34.59, 64.36 34.63, 8.75 35 M8.75 35 C0.93 34.73, 0.41 33.07, 0 26.25 M8.75 35 C2.29 36.7, 1.19 30.9, 0 26.25 M0 26.25 C0.56 20.32, -0.7 15.74, 0 8.75 M0 26.25 C-0.37 23.15, -0.68 18.93, 0 8.75 M0 8.75 C-0.69 4.57, 1.7 1.36, 8.75 0 M0 8.75 C-1.92 4.31, 1.36 -1.17, 8.75 0" stroke="#1e1e1e" stroke-width="2" fill="none"></path></g><g transform="translate(429 335) rotate(0 40 12.5)"><text x="40" y="17.52" font-family="Virgil, Segoe UI Emoji" font-size="20px" fill="#1e1e1e" text-anchor="middle" style="white-space: pre;" direction="ltr" dominant-baseline="alphabetic">消息文件</text></g><g stroke-linecap="round" transform="translate(550 330) rotate(0 62 17.5)"><path d="M8.75 0 C30.68 -0.37, 56.16 0.81, 115.25 0 M8.75 0 C40.6 -0.44, 73.36 0.39, 115.25 0 M115.25 0 C119.7 0.78, 124.3 1.98, 124 8.75 M115.25 0 C119.14 -0.53, 123.06 1.18, 124 8.75 M124 8.75 C122.69 12.38, 124.31 15.08, 124 26.25 M124 8.75 C123.83 14.09, 124.49 20.26, 124 26.25 M124 26.25 C124.58 31.08, 122.5 33.71, 115.25 35 M124 26.25 C123.1 30.59, 121.73 37.28, 115.25 35 M115.25 35 C82.93 35.1, 51.91 34.16, 8.75 35 M115.25 35 C77.54 35.39, 42.02 36.02, 8.75 35 M8.75 35 C2.37 36.48, 1.03 31.05, 0 26.25 M8.75 35 C3.09 33.26, 1.98 32.65, 0 26.25 M0 26.25 C-1.63 21.54, 1.26 16.1, 0 8.75 M0 26.25 C-0.17 20.85, -0.4 14.6, 0 8.75 M0 8.75 C-1.67 4.13, 1.56 -1.02, 8.75 0 M0 8.75 C0.49 2.64, 2.06 -2.16, 8.75 0" stroke="#1e1e1e" stroke-width="2" fill="none"></path></g><g transform="translate(572 335) rotate(0 40 12.5)"><text x="40" y="17.52" font-family="Virgil, Segoe UI Emoji" font-size="20px" fill="#1e1e1e" text-anchor="middle" style="white-space: pre;" direction="ltr" dominant-baseline="alphabetic">索引文件</text></g><g stroke-linecap="round" transform="translate(34 408) rotate(0 156 46)"><path d="M23 0 C117.7 0.64, 210.37 3.29, 289 0 M23 0 C82.75 0.24, 142 0.21, 289 0 M289 0 C303.83 0.67, 310.51 9.17, 312 23 M289 0 C305.92 1.26, 310.31 6.41, 312 23 M312 23 C311.09 39.37, 313.14 54.46, 312 69 M312 23 C312.2 34.24, 312.77 46.56, 312 69 M312 69 C310.28 82.49, 304.48 92.87, 289 92 M312 69 C313.8 82.49, 303.68 93.75, 289 92 M289 92 C212.73 90.38, 136.36 89.45, 23 92 M289 92 C194.46 92.72, 100.56 91.24, 23 92 M23 92 C8.27 90.69, 0.52 82.71, 0 69 M23 92 C8.15 92.92, -0.02 85.19, 0 69 M0 69 C-1.07 58.57, -1.92 45.22, 0 23 M0 69 C-0.63 57.79, 0.28 47.44, 0 23 M0 23 C1.85 9.44, 6.01 -0.26, 23 0 M0 23 C1.63 9.71, 7.51 1.56, 23 0" stroke="#1e1e1e" stroke-width="2" fill="none"></path></g><g transform="translate(60 420) rotate(0 78.37991333007812 12.5)"><text x="0" y="17.52" font-family="Virgil, Segoe UI Emoji" font-size="20px" fill="#1e1e1e" text-anchor="start" style="white-space: pre;" direction="ltr" dominant-baseline="alphabetic">topicC-partition1</text></g><g stroke-linecap="round" transform="translate(54 452) rotate(0 59 17.5)"><path d="M8.75 0 C28.58 -0.13, 51.36 0.45, 109.25 0 M8.75 0 C39.67 0.27, 70.34 0.69, 109.25 0 M109.25 0 C116.46 1.09, 116.53 1.83, 118 8.75 M109.25 0 C115.73 -0.46, 119.18 1.97, 118 8.75 M118 8.75 C117.29 15.48, 118.05 21.69, 118 26.25 M118 8.75 C117.37 12.5, 118.18 18.23, 118 26.25 M118 26.25 C119.57 30.48, 114.51 36.53, 109.25 35 M118 26.25 C117.7 32.4, 113.25 35.12, 109.25 35 M109.25 35 C79.84 35.85, 48.25 33.74, 8.75 35 M109.25 35 C70.1 33.39, 30.6 33.23, 8.75 35 M8.75 35 C3.33 35.8, -0.02 32.83, 0 26.25 M8.75 35 C1.68 35.33, -0.21 30.93, 0 26.25 M0 26.25 C-0.84 21.71, -1.31 13.78, 0 8.75 M0 26.25 C0.69 21.82, -0.84 15.73, 0 8.75 M0 8.75 C1.42 4.69, 2.78 1.35, 8.75 0 M0 8.75 C-0.65 4.41, 2.53 2.29, 8.75 0" stroke="#1e1e1e" stroke-width="2" fill="none"></path></g><g transform="translate(73 457) rotate(0 40 12.5)"><text x="40" y="17.52" font-family="Virgil, Segoe UI Emoji" font-size="20px" fill="#1e1e1e" text-anchor="middle" style="white-space: pre;" direction="ltr" dominant-baseline="alphabetic">消息文件</text></g><g stroke-linecap="round" transform="translate(194 452) rotate(0 62 17.5)"><path d="M8.75 0 C44.55 0.59, 80.07 -1.17, 115.25 0 M8.75 0 C44.97 -0.25, 79.08 -1.35, 115.25 0 M115.25 0 C121.64 -0.4, 125.03 2.1, 124 8.75 M115.25 0 C122.56 1.41, 125.48 1.84, 124 8.75 M124 8.75 C123.3 15.53, 124.48 18.45, 124 26.25 M124 8.75 C124.7 11.69, 123.76 16.7, 124 26.25 M124 26.25 C123.74 32.36, 119.49 35.11, 115.25 35 M124 26.25 C124.08 32.18, 119.81 36.25, 115.25 35 M115.25 35 C77.66 34.83, 34.45 35.23, 8.75 35 M115.25 35 C90.48 34.53, 65.29 34.51, 8.75 35 M8.75 35 C1.84 35.28, -0.18 31.08, 0 26.25 M8.75 35 C3.95 32.87, -1.31 30.77, 0 26.25 M0 26.25 C0.1 20.67, 1.55 14.37, 0 8.75 M0 26.25 C0.77 20.23, 0.09 13.24, 0 8.75 M0 8.75 C-0.57 4.21, 2.58 2, 8.75 0 M0 8.75 C0.8 2.43, 3.01 -2.18, 8.75 0" stroke="#1e1e1e" stroke-width="2" fill="none"></path></g><g transform="translate(216 457) rotate(0 40 12.5)"><text x="40" y="17.52" font-family="Virgil, Segoe UI Emoji" font-size="20px" fill="#1e1e1e" text-anchor="middle" style="white-space: pre;" direction="ltr" dominant-baseline="alphabetic">索引文件</text></g><g transform="translate(532 454) rotate(0 16.439987182617188 12.5)"><text x="0" y="17.52" font-family="Virgil, Segoe UI Emoji" font-size="20px" fill="#1e1e1e" text-anchor="start" style="white-space: pre;" direction="ltr" dominant-baseline="alphabetic">......</text></g></svg>