<svg version="1.1" xmlns="http://www.w3.org/2000/svg" viewBox="0 0 777.009486951828 410" width="777.009486951828" height="410">
  <!-- svg-source:excalidraw -->
  
  <defs>
    <style class="style-fonts">
      @font-face {
        font-family: "Virgil";
        src: url("https://excalidraw.com/Virgil.woff2");
      }
      @font-face {
        font-family: "Cascadia";
        src: url("https://excalidraw.com/Cascadia.woff2");
      }
      @font-face {
        font-family: "Assistant";
        src: url("https://excalidraw.com/Assistant-Regular.woff2");
      }
    </style>
    
  </defs>
  <rect x="0" y="0" width="777.009486951828" height="410" fill="#ffffff"></rect><g stroke-linecap="round" transform="translate(143.65973587166513 132) rotate(0 302 54)"><path d="M27 0 C216.71 0.32, 407.1 0.18, 577 0 M27 0 C239.48 -1.52, 451.81 -1.33, 577 0 M577 0 C595.98 1.46, 604.87 8.32, 604 27 M577 0 C595.66 0.88, 602.78 9.08, 604 27 M604 27 C603.61 42.59, 604.93 55.33, 604 81 M604 27 C603.72 49.02, 604.9 69.73, 604 81 M604 81 C603.22 97.16, 596.86 106.59, 577 108 M604 81 C606.21 99.3, 595.02 109.61, 577 108 M577 108 C376.07 109.9, 174.82 110.01, 27 108 M577 108 C383.33 107.86, 189.78 108.16, 27 108 M27 108 C10.52 106.24, -0.88 99.43, 0 81 M27 108 C9.48 106.54, -1.77 98.63, 0 81 M0 81 C1.65 64.27, -0.76 44.3, 0 27 M0 81 C-0.24 63.62, -0.14 44.59, 0 27 M0 27 C-1.82 9.42, 9.08 0.37, 27 0 M0 27 C0.2 11.29, 9.75 -1.81, 27 0" stroke="#1e1e1e" stroke-width="2" fill="none"></path></g><g stroke-linecap="round" transform="translate(131.65973587166513 10) rotate(0 227 51)"><path d="M25.5 0 C138.35 -2.64, 252.05 -1.6, 428.5 0 M25.5 0 C133.97 -0.91, 241.16 -0.64, 428.5 0 M428.5 0 C444.07 -0.26, 452.31 8.9, 454 25.5 M428.5 0 C444.42 1.61, 452.2 10.43, 454 25.5 M454 25.5 C454.49 34.7, 455.98 48.06, 454 76.5 M454 25.5 C453.3 41.38, 454.35 58.31, 454 76.5 M454 76.5 C455.35 94.21, 446.76 100.4, 428.5 102 M454 76.5 C452.8 95.07, 445.93 100.81, 428.5 102 M428.5 102 C274.03 103.19, 118.4 102.81, 25.5 102 M428.5 102 C279.82 100.45, 130.04 100.6, 25.5 102 M25.5 102 C9.4 101.62, -1.02 95.36, 0 76.5 M25.5 102 C6.76 102.43, -1.89 94.92, 0 76.5 M0 76.5 C-1.3 60.8, -0.48 47.54, 0 25.5 M0 76.5 C-0.68 62.66, 0.23 49.95, 0 25.5 M0 25.5 C1.69 10.2, 7.66 -0.22, 25.5 0 M0 25.5 C-2.18 6.93, 9.81 1.54, 25.5 0" stroke="#1e1e1e" stroke-width="2" fill="none"></path></g><g stroke-linecap="round" transform="translate(235.65973587166513 304) rotate(0 57 48)"><path d="M72.54 0.95 C81.22 2.56, 90.93 8.85, 97.46 14.72 C103.98 20.59, 109.17 28.45, 111.69 36.2 C114.22 43.94, 115.32 53.47, 112.61 61.18 C109.9 68.88, 102.44 76.86, 95.44 82.41 C88.45 87.96, 79.69 92.65, 70.65 94.5 C61.61 96.35, 50.29 95.77, 41.22 93.5 C32.15 91.22, 22.92 86.53, 16.24 80.86 C9.55 75.2, 3.62 67.33, 1.13 59.52 C-1.36 51.72, -1.42 41.77, 1.32 34.03 C4.05 26.29, 10.54 18.61, 17.55 13.08 C24.57 7.56, 32.46 2.19, 43.41 0.86 C54.36 -0.46, 74.98 3.23, 83.27 5.14 C91.56 7.06, 93.6 11.66, 93.14 12.35 M78.21 2.76 C86.56 4.83, 94 10.98, 100 17.05 C106.01 23.12, 112.46 31.36, 114.24 39.17 C116.03 46.99, 114.06 56.26, 110.71 63.96 C107.35 71.66, 101.81 80.05, 94.12 85.38 C86.44 90.71, 74.03 94.64, 64.61 95.95 C55.18 97.27, 46.1 96.2, 37.56 93.27 C29.01 90.34, 19.71 84.81, 13.35 78.37 C6.99 71.94, 0.95 62.64, -0.6 54.65 C-2.15 46.65, 0.47 37.79, 4.05 30.41 C7.63 23.03, 13.47 15.36, 20.88 10.37 C28.29 5.39, 39.16 1.78, 48.53 0.49 C57.91 -0.8, 72.47 2.07, 77.12 2.61 C81.78 3.15, 76.67 2.86, 76.48 3.71" stroke="#1e1e1e" stroke-width="2" fill="none"></path></g><g transform="translate(272.85464934403194 339.5588745030457) rotate(0 20 12.5)"><text x="20" y="17.52" font-family="Virgil, Segoe UI Emoji" font-size="20px" fill="#1e1e1e" text-anchor="middle" style="white-space: pre;" direction="ltr" dominant-baseline="alphabetic">磁盘</text></g><g transform="translate(73.65973587166513 286) rotate(0 51.77996063232422 12.5)"><text x="0" y="17.52" font-family="Virgil, Segoe UI Emoji" font-size="20px" fill="#1e1e1e" text-anchor="start" style="white-space: pre;" direction="ltr" dominant-baseline="alphabetic">I/O device</text></g><g stroke-linecap="round"><g transform="translate(11.659735871665134 246) rotate(0 373 0)"><path d="M-0.13 0.88 C124.01 1.05, 620.46 0.66, 744.96 0.56 M-1.66 0.29 C122.84 0.14, 622.42 -1.51, 747.12 -1.27" stroke="#1e1e1e" stroke-width="2" fill="none"></path></g></g><mask></mask><g stroke-linecap="round"><g transform="translate(11.659735871665134 122) rotate(0 377 -3)"><path d="M0.73 -0.92 C126.16 -1.87, 627.64 -4.7, 753.11 -5.58 M-0.35 1.21 C125.41 -0.11, 629.87 -6.45, 755.35 -7.49" stroke="#1e1e1e" stroke-width="2" fill="none"></path></g></g><mask></mask><g transform="translate(39.659735871665134 170) rotate(0 40 12.5)"><text x="0" y="17.52" font-family="Virgil, Segoe UI Emoji" font-size="20px" fill="#1e1e1e" text-anchor="start" style="white-space: pre;" direction="ltr" dominant-baseline="alphabetic">内核空间</text></g><g transform="translate(35.659735871665134 58) rotate(0 40 12.5)"><text x="0" y="17.52" font-family="Virgil, Segoe UI Emoji" font-size="20px" fill="#1e1e1e" text-anchor="start" style="white-space: pre;" direction="ltr" dominant-baseline="alphabetic">用户空间</text></g><g stroke-linecap="round" transform="translate(155.65973587166513 22) rotate(0 141.99999999999994 41)"><path d="M20.5 0 C92.54 -0.77, 166.21 1.8, 263.5 0 M20.5 0 C77.62 -0.31, 133.4 -0.48, 263.5 0 M263.5 0 C275.88 1.18, 284.61 8.21, 284 20.5 M263.5 0 C278.47 -1.63, 283.39 7.27, 284 20.5 M284 20.5 C285.97 34.18, 282.57 51.84, 284 61.5 M284 20.5 C284.91 35.77, 284.4 49.78, 284 61.5 M284 61.5 C283.72 73.39, 278.88 81.2, 263.5 82 M284 61.5 C284.55 73.83, 277.57 82.31, 263.5 82 M263.5 82 C207.26 82.07, 152.03 82.12, 20.5 82 M263.5 82 C200.95 82.27, 137.68 82.08, 20.5 82 M20.5 82 C6.11 81.41, -1.67 73.59, 0 61.5 M20.5 82 C7.7 82.22, 0.9 77.1, 0 61.5 M0 61.5 C0.75 47.81, 1.44 32.42, 0 20.5 M0 61.5 C0.38 48.97, 0.09 36.76, 0 20.5 M0 20.5 C-0.34 8.56, 8.63 -0.06, 20.5 0 M0 20.5 C-0.04 5.52, 7.93 1.84, 20.5 0" stroke="#1e1e1e" stroke-width="2" fill="none"></path></g><g transform="translate(167.65973587166513 30) rotate(0 60.69994354248047 12.5)"><text x="0" y="17.52" font-family="Virgil, Segoe UI Emoji" font-size="20px" fill="#1e1e1e" text-anchor="start" style="white-space: pre;" direction="ltr" dominant-baseline="alphabetic">Jvm Process</text></g><g stroke-linecap="round" transform="translate(231.65973587166513 200) rotate(0 66 20)"><path d="M10 0 C36.71 -0.06, 64.95 0.18, 122 0 M10 0 C50.12 0.76, 88.44 1.43, 122 0 M122 0 C128.83 1.07, 131.54 5.21, 132 10 M122 0 C126.79 1.29, 133.19 4.76, 132 10 M132 10 C133.04 13.91, 133.08 19.87, 132 30 M132 10 C131.63 15.28, 132.28 19.76, 132 30 M132 30 C132.75 36.23, 129.46 38.74, 122 40 M132 30 C132 35.68, 130.46 38.95, 122 40 M122 40 C96.11 42.42, 74.15 39.08, 10 40 M122 40 C80.3 40.91, 40.03 40.36, 10 40 M10 40 C4.17 38.88, 1.2 35.24, 0 30 M10 40 C1.93 40.93, 0.31 34.52, 0 30 M0 30 C-1.14 27.22, -1.7 20.1, 0 10 M0 30 C0.64 23.45, 0.52 15.88, 0 10 M0 10 C-0.56 3.81, 4.8 0.08, 10 0 M0 10 C-1.51 5.1, 3.31 -0.08, 10 0" stroke="#1e1e1e" stroke-width="2" fill="none"></path></g><g transform="translate(240.27979202400888 207.5) rotate(0 57.37994384765625 12.5)"><text x="57.37994384765625" y="17.52" font-family="Virgil, Segoe UI Emoji" font-size="20px" fill="#1e1e1e" text-anchor="middle" style="white-space: pre;" direction="ltr" dominant-baseline="alphabetic">read buffer</text></g><g stroke-linecap="round"><g transform="translate(292.9686912452794 303.0006951918699) rotate(0 2.5695562057803727 -30.500347595934954)"><path d="M1.14 -0.85 C1.88 -10.99, 3.13 -51.91, 3.95 -61.94 M0.28 1.32 C1.41 -8.61, 5.12 -50.72, 6.04 -60.89" stroke="#1e1e1e" stroke-width="2" fill="none"></path></g><g transform="translate(292.9686912452794 303.0006951918699) rotate(0 2.5695562057803727 -30.500347595934954)"><path d="M12.46 -36.73 C9.59 -44.95, 7.77 -47.68, 6.04 -60.89 M12.46 -36.73 C10.9 -44.63, 8.35 -51.03, 6.04 -60.89" stroke="#1e1e1e" stroke-width="2" fill="none"></path></g><g transform="translate(292.9686912452794 303.0006951918699) rotate(0 2.5695562057803727 -30.500347595934954)"><path d="M-4.57 -38.25 C-3.01 -46.24, -0.39 -48.58, 6.04 -60.89 M-4.57 -38.25 C-1.06 -45.8, 1.46 -51.75, 6.04 -60.89" stroke="#1e1e1e" stroke-width="2" fill="none"></path></g></g><mask></mask><g stroke-linecap="round" transform="translate(224.99310989510263 60) rotate(0 67 18)"><path d="M9 0 C49.42 -1.51, 89.57 0.42, 125 0 M9 0 C37.81 -1.04, 65.04 -1.63, 125 0 M125 0 C129.45 0.26, 134.71 3.27, 134 9 M125 0 C132.85 1.54, 133.74 5.06, 134 9 M134 9 C133.29 16.25, 134.11 19.63, 134 27 M134 9 C133.41 13.84, 133.66 17.92, 134 27 M134 27 C133.71 33.2, 130.32 37.34, 125 36 M134 27 C133.13 32.95, 132.58 38.17, 125 36 M125 36 C81.85 36.78, 42.32 35.51, 9 36 M125 36 C98.75 37.33, 74.39 37.1, 9 36 M9 36 C1.64 34.1, -0.8 32.82, 0 27 M9 36 C4.64 35.29, 0.91 33.92, 0 27 M0 27 C0.66 22.78, 1.23 18.44, 0 9 M0 27 C-0.77 22.85, 0.62 18.5, 0 9 M0 9 C-1.32 1.99, 4.43 1.67, 9 0 M0 9 C-1.94 0.72, 1.51 -1.25, 9 0" stroke="#1e1e1e" stroke-width="2" fill="none"></path></g><g transform="translate(261.7431480420753 65.5) rotate(0 30.249961853027344 12.5)"><text x="30.249961853027344" y="17.52" font-family="Virgil, Segoe UI Emoji" font-size="20px" fill="#1e1e1e" text-anchor="middle" style="white-space: pre;" direction="ltr" dominant-baseline="alphabetic">buffer</text></g><g stroke-linecap="round"><g transform="translate(224.99310989510263 90) rotate(0 3 65)"><path d="M0.04 1 C1.21 22.63, 5.28 107.35, 6.26 128.8" stroke="#1e1e1e" stroke-width="2.5" fill="none" stroke-dasharray="8 10"></path></g></g><mask></mask><g stroke-linecap="round"><g transform="translate(356.99310989510263 100) rotate(0 5 62)"><path d="M0.07 0.34 C1.76 20.9, 8.32 102.25, 10.06 122.92" stroke="#1e1e1e" stroke-width="2.5" fill="none" stroke-dasharray="8 10"></path></g></g><mask></mask><g transform="translate(262.65976638924326 132) rotate(0 24.259979248046875 12.5)"><text x="0" y="17.52" font-family="Virgil, Segoe UI Emoji" font-size="20px" fill="#1e1e1e" text-anchor="start" style="white-space: pre;" direction="ltr" dominant-baseline="alphabetic">mmap</text></g></svg>