<svg version="1.1" xmlns="http://www.w3.org/2000/svg" viewBox="0 0 777.009486951828 376" width="777.009486951828" height="376">
  <!-- svg-source:excalidraw -->
  
  <defs>
    <style class="style-fonts">
      @font-face {
        font-family: "Virgil";
        src: url("https://excalidraw.com/Virgil.woff2");
      }
      @font-face {
        font-family: "Cascadia";
        src: url("https://excalidraw.com/Cascadia.woff2");
      }
      @font-face {
        font-family: "Assistant";
        src: url("https://excalidraw.com/Assistant-Regular.woff2");
      }
    </style>
    
  </defs>
  <rect x="0" y="0" width="777.009486951828" height="376" fill="#ffffff"></rect><g stroke-linecap="round" transform="translate(131.65973587166513 10) rotate(0 227 51)"><path d="M25.5 0 C138.35 -2.64, 252.05 -1.6, 428.5 0 M25.5 0 C133.97 -0.91, 241.16 -0.64, 428.5 0 M428.5 0 C444.07 -0.26, 452.31 8.9, 454 25.5 M428.5 0 C444.42 1.61, 452.2 10.43, 454 25.5 M454 25.5 C454.49 34.7, 455.98 48.06, 454 76.5 M454 25.5 C453.3 41.38, 454.35 58.31, 454 76.5 M454 76.5 C455.35 94.21, 446.76 100.4, 428.5 102 M454 76.5 C452.8 95.07, 445.93 100.81, 428.5 102 M428.5 102 C274.03 103.19, 118.4 102.81, 25.5 102 M428.5 102 C279.82 100.45, 130.04 100.6, 25.5 102 M25.5 102 C9.4 101.62, -1.02 95.36, 0 76.5 M25.5 102 C6.76 102.43, -1.89 94.92, 0 76.5 M0 76.5 C-1.3 60.8, -0.48 47.54, 0 25.5 M0 76.5 C-0.68 62.66, 0.23 49.95, 0 25.5 M0 25.5 C1.69 10.2, 7.66 -0.22, 25.5 0 M0 25.5 C-2.18 6.93, 9.81 1.54, 25.5 0" stroke="#1e1e1e" stroke-width="2" fill="none"></path></g><g stroke-linecap="round" transform="translate(137.65973587166513 128) rotate(0 225 54)"><path d="M27 0 C163.59 0.55, 301.17 0.34, 423 0 M27 0 C180.05 -1.59, 332.92 -1.31, 423 0 M423 0 C441.98 1.46, 450.87 8.32, 450 27 M423 0 C441.66 0.88, 448.78 9.08, 450 27 M450 27 C449.61 42.59, 450.93 55.33, 450 81 M450 27 C449.72 49.02, 450.9 69.73, 450 81 M450 81 C449.22 97.16, 442.86 106.59, 423 108 M450 81 C452.21 99.3, 441.02 109.61, 423 108 M423 108 C278.32 109.97, 133.2 110.13, 27 108 M423 108 C283.44 107.84, 144.06 108.27, 27 108 M27 108 C10.52 106.24, -0.88 99.43, 0 81 M27 108 C9.48 106.54, -1.77 98.63, 0 81 M0 81 C1.65 64.27, -0.76 44.3, 0 27 M0 81 C-0.24 63.62, -0.14 44.59, 0 27 M0 27 C-1.82 9.42, 9.08 0.37, 27 0 M0 27 C0.2 11.29, 9.75 -1.81, 27 0" stroke="#1e1e1e" stroke-width="2" fill="none"></path></g><g stroke-linecap="round" transform="translate(197.65973587166513 270) rotate(0 57 48)"><path d="M72.54 0.95 C81.22 2.56, 90.93 8.85, 97.46 14.72 C103.98 20.59, 109.17 28.45, 111.69 36.2 C114.22 43.94, 115.32 53.47, 112.61 61.18 C109.9 68.88, 102.44 76.86, 95.44 82.41 C88.45 87.96, 79.69 92.65, 70.65 94.5 C61.61 96.35, 50.29 95.77, 41.22 93.5 C32.15 91.22, 22.92 86.53, 16.24 80.86 C9.55 75.2, 3.62 67.33, 1.13 59.52 C-1.36 51.72, -1.42 41.77, 1.32 34.03 C4.05 26.29, 10.54 18.61, 17.55 13.08 C24.57 7.56, 32.46 2.19, 43.41 0.86 C54.36 -0.46, 74.98 3.23, 83.27 5.14 C91.56 7.06, 93.6 11.66, 93.14 12.35 M78.21 2.76 C86.56 4.83, 94 10.98, 100 17.05 C106.01 23.12, 112.46 31.36, 114.24 39.17 C116.03 46.99, 114.06 56.26, 110.71 63.96 C107.35 71.66, 101.81 80.05, 94.12 85.38 C86.44 90.71, 74.03 94.64, 64.61 95.95 C55.18 97.27, 46.1 96.2, 37.56 93.27 C29.01 90.34, 19.71 84.81, 13.35 78.37 C6.99 71.94, 0.95 62.64, -0.6 54.65 C-2.15 46.65, 0.47 37.79, 4.05 30.41 C7.63 23.03, 13.47 15.36, 20.88 10.37 C28.29 5.39, 39.16 1.78, 48.53 0.49 C57.91 -0.8, 72.47 2.07, 77.12 2.61 C81.78 3.15, 76.67 2.86, 76.48 3.71" stroke="#1e1e1e" stroke-width="2" fill="none"></path></g><g transform="translate(234.85464934403194 305.55887450304573) rotate(0 20 12.499999999999972)"><text x="20" y="17.52" font-family="Virgil, Segoe UI Emoji" font-size="20px" fill="#1e1e1e" text-anchor="middle" style="white-space: pre;" direction="ltr" dominant-baseline="alphabetic">磁盘</text></g><g stroke-linecap="round" transform="translate(447.65973587166513 272) rotate(0 58 46)"><path d="M31.59 5.91 C39.5 1.93, 51.52 0.47, 61.05 0.76 C70.59 1.04, 80.7 3.77, 88.79 7.6 C96.89 11.42, 105.27 16.92, 109.63 23.72 C113.99 30.53, 115.46 40.65, 114.97 48.43 C114.47 56.21, 111.67 64.06, 106.65 70.38 C101.63 76.7, 93.32 82.59, 84.86 86.36 C76.41 90.12, 65.38 93.2, 55.9 92.97 C46.42 92.73, 36.04 89.17, 28 84.93 C19.95 80.7, 12.15 74.16, 7.62 67.56 C3.1 60.96, 0.74 53.13, 0.85 45.32 C0.96 37.5, 3.07 27.45, 8.27 20.68 C13.46 13.92, 27.44 7.46, 32.03 4.74 C36.62 2.03, 35.1 3.74, 35.8 4.41 M63.87 -0.22 C72.95 0.02, 84.6 3.88, 92.6 8.82 C100.59 13.76, 107.98 22.48, 111.83 29.41 C115.67 36.34, 116.72 43.09, 115.69 50.4 C114.66 57.7, 111.28 66.83, 105.63 73.24 C99.98 79.65, 91.09 85.77, 81.81 88.85 C72.53 91.93, 59.8 92.68, 49.96 91.75 C40.13 90.81, 30.37 87.99, 22.81 83.23 C15.24 78.48, 8.18 70.31, 4.57 63.23 C0.95 56.14, 0 48.25, 1.12 40.72 C2.24 33.19, 5.52 24.28, 11.29 18.04 C17.05 11.8, 26.88 6.24, 35.73 3.28 C44.58 0.32, 59.44 0.55, 64.38 0.28 C69.32 0.01, 65.5 0.63, 65.35 1.63" stroke="#1e1e1e" stroke-width="2" fill="none"></path></g><g transform="translate(485.6475425628454 305.47308806541884) rotate(0 19.999999999999943 12.499999999999972)"><text x="20" y="17.52" font-family="Virgil, Segoe UI Emoji" font-size="20px" fill="#1e1e1e" text-anchor="middle" style="white-space: pre;" direction="ltr" dominant-baseline="alphabetic">网卡</text></g><g transform="translate(73.65973587166513 286) rotate(0 51.77996063232422 12.5)"><text x="0" y="17.52" font-family="Virgil, Segoe UI Emoji" font-size="20px" fill="#1e1e1e" text-anchor="start" style="white-space: pre;" direction="ltr" dominant-baseline="alphabetic">I/O device</text></g><g stroke-linecap="round"><g transform="translate(11.659735871665134 246) rotate(0 373 0)"><path d="M-0.13 0.88 C124.01 1.05, 620.46 0.66, 744.96 0.56 M-1.66 0.29 C122.84 0.14, 622.42 -1.51, 747.12 -1.27" stroke="#1e1e1e" stroke-width="2" fill="none"></path></g></g><mask></mask><g stroke-linecap="round"><g transform="translate(11.659735871665134 122) rotate(0 377 -3)"><path d="M0.73 -0.92 C126.16 -1.87, 627.64 -4.7, 753.11 -5.58 M-0.35 1.21 C125.41 -0.11, 629.87 -6.45, 755.35 -7.49" stroke="#1e1e1e" stroke-width="2" fill="none"></path></g></g><mask></mask><g transform="translate(39.659735871665134 170) rotate(0 40 12.5)"><text x="0" y="17.52" font-family="Virgil, Segoe UI Emoji" font-size="20px" fill="#1e1e1e" text-anchor="start" style="white-space: pre;" direction="ltr" dominant-baseline="alphabetic">内核空间</text></g><g transform="translate(35.659735871665134 58) rotate(0 40 12.5)"><text x="0" y="17.52" font-family="Virgil, Segoe UI Emoji" font-size="20px" fill="#1e1e1e" text-anchor="start" style="white-space: pre;" direction="ltr" dominant-baseline="alphabetic">用户空间</text></g><g stroke-linecap="round" transform="translate(155.65973587166513 22) rotate(0 137 41)"><path d="M20.5 0 C89.48 -0.79, 160.12 1.83, 253.5 0 M20.5 0 C75.3 -0.31, 128.73 -0.49, 253.5 0 M253.5 0 C265.88 1.18, 274.61 8.21, 274 20.5 M253.5 0 C268.47 -1.63, 273.39 7.27, 274 20.5 M274 20.5 C275.97 34.18, 272.57 51.84, 274 61.5 M274 20.5 C274.91 35.77, 274.4 49.78, 274 61.5 M274 61.5 C273.72 73.39, 268.88 81.2, 253.5 82 M274 61.5 C274.55 73.83, 267.57 82.31, 253.5 82 M253.5 82 C199.53 82.01, 146.6 82.06, 20.5 82 M253.5 82 C193.52 82.25, 132.81 82.06, 20.5 82 M20.5 82 C6.11 81.41, -1.67 73.59, 0 61.5 M20.5 82 C7.7 82.22, 0.9 77.1, 0 61.5 M0 61.5 C0.75 47.81, 1.44 32.42, 0 20.5 M0 61.5 C0.38 48.97, 0.09 36.76, 0 20.5 M0 20.5 C-0.34 8.56, 8.63 -0.06, 20.5 0 M0 20.5 C-0.04 5.52, 7.93 1.84, 20.5 0" stroke="#1e1e1e" stroke-width="2" fill="none"></path></g><g transform="translate(167.65973587166513 30) rotate(0 60.69994354248047 12.5)"><text x="0" y="17.52" font-family="Virgil, Segoe UI Emoji" font-size="20px" fill="#1e1e1e" text-anchor="start" style="white-space: pre;" direction="ltr" dominant-baseline="alphabetic">Jvm Process</text></g><g stroke-linecap="round" transform="translate(267.65973587166513 61.333343505859375) rotate(0 73 18)"><path d="M9 0 C39.72 -0.98, 71.68 2.63, 137 0 M9 0 C43.11 1.53, 77.54 0.53, 137 0 M137 0 C144.48 -1.43, 145.07 3.48, 146 9 M137 0 C141.39 0.97, 146.96 2.09, 146 9 M146 9 C145.46 15.04, 144.29 15.87, 146 27 M146 9 C145.39 13.73, 146.34 20.23, 146 27 M146 27 C146.47 34.79, 141.7 35.56, 137 36 M146 27 C145.38 33.97, 141.26 35.89, 137 36 M137 36 C98.13 33.07, 63.29 33.55, 9 36 M137 36 C107.07 36.19, 77.61 36.31, 9 36 M9 36 C4.45 36.04, 1.84 34.65, 0 27 M9 36 C2.72 35.23, 0.71 31.12, 0 27 M0 27 C0.28 23.03, -0.86 14.85, 0 9 M0 27 C0.85 22.4, 0.91 18.92, 0 9 M0 9 C1.46 3.64, 4.94 -0.34, 9 0 M0 9 C1.03 3.25, 0.86 1.1, 9 0" stroke="#1e1e1e" stroke-width="2" fill="none"></path></g><g transform="translate(310.4097740186378 66.83334350585938) rotate(0 30.249961853027344 12.5)"><text x="30.249961853027344" y="17.52" font-family="Virgil, Segoe UI Emoji" font-size="20px" fill="#1e1e1e" text-anchor="middle" style="white-space: pre;" direction="ltr" dominant-baseline="alphabetic">buffer</text></g><g stroke-linecap="round" transform="translate(193.65973587166513 190) rotate(0 66 20)"><path d="M10 0 C36.71 -0.06, 64.95 0.18, 122 0 M10 0 C50.12 0.76, 88.44 1.43, 122 0 M122 0 C128.83 1.07, 131.54 5.21, 132 10 M122 0 C126.79 1.29, 133.19 4.76, 132 10 M132 10 C133.04 13.91, 133.08 19.87, 132 30 M132 10 C131.63 15.28, 132.28 19.76, 132 30 M132 30 C132.75 36.23, 129.46 38.74, 122 40 M132 30 C132 35.68, 130.46 38.95, 122 40 M122 40 C96.11 42.42, 74.15 39.08, 10 40 M122 40 C80.3 40.91, 40.03 40.36, 10 40 M10 40 C4.17 38.88, 1.2 35.24, 0 30 M10 40 C1.93 40.93, 0.31 34.52, 0 30 M0 30 C-1.14 27.22, -1.7 20.1, 0 10 M0 30 C0.64 23.45, 0.52 15.88, 0 10 M0 10 C-0.56 3.81, 4.8 0.08, 10 0 M0 10 C-1.51 5.1, 3.31 -0.08, 10 0" stroke="#1e1e1e" stroke-width="2" fill="none"></path></g><g transform="translate(202.27979202400888 197.5) rotate(0 57.37994384765625 12.5)"><text x="57.37994384765625" y="17.52" font-family="Virgil, Segoe UI Emoji" font-size="20px" fill="#1e1e1e" text-anchor="middle" style="white-space: pre;" direction="ltr" dominant-baseline="alphabetic">read buffer</text></g><g stroke-linecap="round" transform="translate(381.65973587166513 190) rotate(0 89 20)"><path d="M10 0 C48.17 -2.39, 88.04 -1.59, 168 0 M10 0 C60.48 -0.27, 111.46 0.48, 168 0 M168 0 C174.61 0.46, 178.73 1.68, 178 10 M168 0 C173.1 -0.28, 178.57 1.43, 178 10 M178 10 C178.29 18.33, 176.31 26.08, 178 30 M178 10 C177.24 16.8, 178 25.17, 178 30 M178 30 C179.69 37.99, 174.25 40.25, 168 40 M178 30 C177.55 36.28, 176.56 39.88, 168 40 M168 40 C131 41.28, 96.12 42.12, 10 40 M168 40 C107.69 40.38, 48.2 39.39, 10 40 M10 40 C3.45 38.14, 0.92 37.35, 0 30 M10 40 C1.55 41.89, -2.29 37.51, 0 30 M0 30 C1.59 22.72, 0.59 17.11, 0 10 M0 30 C-0.58 25.24, 0.16 21.45, 0 10 M0 10 C-0.69 1.75, 5.11 1.71, 10 0 M0 10 C-1.59 3.22, 2.02 -1.42, 10 0" stroke="#1e1e1e" stroke-width="2" fill="none"></path></g><g transform="translate(403.42980880867685 197.5) rotate(0 67.22992706298828 12.5)"><text x="67.22992706298828" y="17.52" font-family="Virgil, Segoe UI Emoji" font-size="20px" fill="#1e1e1e" text-anchor="middle" style="white-space: pre;" direction="ltr" dominant-baseline="alphabetic">socket buffer</text></g><g stroke-linecap="round"><g transform="translate(255.65973587166513 270) rotate(0 2 -19)"><path d="M0.52 -0.39 C1.14 -6.71, 2.8 -32.16, 3.46 -38.43 M0.13 0.6 C0.92 -5.62, 3.71 -31.61, 4.41 -37.95" stroke="#1e1e1e" stroke-width="2" fill="none"></path></g><g transform="translate(255.65973587166513 270) rotate(0 2 -19)"><path d="M8.96 -19.39 C7.18 -25.16, 5.93 -28.3, 4.41 -37.95 M8.96 -19.39 C7.75 -25.27, 6.09 -30.42, 4.41 -37.95" stroke="#1e1e1e" stroke-width="2" fill="none"></path></g><g transform="translate(255.65973587166513 270) rotate(0 2 -19)"><path d="M-4.03 -20.81 C-2.42 -26.27, -0.29 -29.04, 4.41 -37.95 M-4.03 -20.81 C-1.37 -26.3, 0.84 -31.03, 4.41 -37.95" stroke="#1e1e1e" stroke-width="2" fill="none"></path></g></g><mask></mask><g stroke-linecap="round"><g transform="translate(271.65973587166513 186) rotate(0 25 -42)"><path d="M-0.55 0.55 C7.52 -13.33, 40.26 -69.25, 48.85 -83.47 M1.36 -0.2 C9.75 -14.44, 42.73 -71.37, 50.96 -85.31" stroke="#1e1e1e" stroke-width="2" fill="none"></path></g><g transform="translate(271.65973587166513 186) rotate(0 25 -42)"><path d="M46.5 -60.72 C48.93 -70.81, 50.38 -75.46, 50.96 -85.31 M46.5 -60.72 C47.55 -67.22, 49.42 -72.39, 50.96 -85.31" stroke="#1e1e1e" stroke-width="2" fill="none"></path></g><g transform="translate(271.65973587166513 186) rotate(0 25 -42)"><path d="M31.73 -69.34 C39.07 -76.49, 45.44 -78.27, 50.96 -85.31 M31.73 -69.34 C36.29 -73.84, 41.63 -76.98, 50.96 -85.31" stroke="#1e1e1e" stroke-width="2" fill="none"></path></g></g><mask></mask><g stroke-linecap="round"><g transform="translate(387.65973587166513 98) rotate(0 34 45)"><path d="M-0.02 -0.29 C11.22 14.66, 55.75 75.27, 66.97 90.3 M-1.49 -1.48 C10.16 13.02, 57.26 72.9, 69.14 88.33" stroke="#1e1e1e" stroke-width="2" fill="none"></path></g><g transform="translate(387.65973587166513 98) rotate(0 34 45)"><path d="M47.95 75.06 C53 76.76, 59.43 80.67, 69.14 88.33 M47.95 75.06 C53.87 79.15, 59.31 82.99, 69.14 88.33" stroke="#1e1e1e" stroke-width="2" fill="none"></path></g><g transform="translate(387.65973587166513 98) rotate(0 34 45)"><path d="M61.44 64.55 C63.07 68.95, 66.03 75.57, 69.14 88.33 M61.44 64.55 C63.5 71.78, 65.04 78.66, 69.14 88.33" stroke="#1e1e1e" stroke-width="2" fill="none"></path></g></g><mask></mask><g stroke-linecap="round"><g transform="translate(471.65973587166513 230) rotate(0 7 20)"><path d="M0.3 -0.1 C2.61 6.56, 11.34 32.86, 13.62 39.52 M-0.22 -0.62 C2.29 6.12, 12.36 33.14, 14.66 39.98" stroke="#1e1e1e" stroke-width="2" fill="none"></path></g><g transform="translate(471.65973587166513 230) rotate(0 7 20)"><path d="M1.13 23.67 C4.35 27.11, 7.11 31.93, 14.66 39.98 M1.13 23.67 C4.58 28.31, 8.87 32.67, 14.66 39.98" stroke="#1e1e1e" stroke-width="2" fill="none"></path></g><g transform="translate(471.65973587166513 230) rotate(0 7 20)"><path d="M14.78 18.79 C14.49 23.51, 13.77 29.58, 14.66 39.98 M14.78 18.79 C14.5 24.8, 15.05 30.5, 14.66 39.98" stroke="#1e1e1e" stroke-width="2" fill="none"></path></g></g><mask></mask></svg>