<svg version="1.1" xmlns="http://www.w3.org/2000/svg" viewBox="0 0 673 324" width="673" height="324">
  <!-- svg-source:excalidraw -->
  
  <defs>
    <style class="style-fonts">
      @font-face {
        font-family: "Virgil";
        src: url("https://excalidraw.com/Virgil.woff2");
      }
      @font-face {
        font-family: "Cascadia";
        src: url("https://excalidraw.com/Cascadia.woff2");
      }
      @font-face {
        font-family: "Assistant";
        src: url("https://excalidraw.com/Assistant-Regular.woff2");
      }
    </style>
    
  </defs>
  <rect x="0" y="0" width="673" height="324" fill="#ffffff"></rect><g stroke-linecap="round" transform="translate(10 50) rotate(0 102 90)"><path d="M32 0 C65.51 0.56, 96.18 0.04, 172 0 M32 0 C75.63 0.94, 118.95 0.5, 172 0 M172 0 C193.72 1.25, 205.83 10.99, 204 32 M172 0 C191.09 0.79, 206.26 9.79, 204 32 M204 32 C204.35 74.93, 202.98 120.62, 204 148 M204 32 C204.07 54.87, 204.76 79.51, 204 148 M204 148 C202.37 170.86, 195.29 179.57, 172 180 M204 148 C203.26 170.84, 193.51 180.98, 172 180 M172 180 C135.85 178.54, 98.2 179.99, 32 180 M172 180 C122.95 180.88, 74.5 181.18, 32 180 M32 180 C11.76 178.01, 0.76 169.42, 0 148 M32 180 C11.21 181.92, -0.83 170.84, 0 148 M0 148 C0.83 112.81, 1.01 81, 0 32 M0 148 C-0.13 122.04, 0.39 94.51, 0 32 M0 32 C-1.15 10.26, 11.9 0.9, 32 0 M0 32 C1.62 9.14, 11.33 -0.96, 32 0" stroke="#1e1e1e" stroke-width="2" fill="none"></path></g><g transform="translate(80.25003051757812 127.5) rotate(0 31.749969482421875 12.5)"><text x="31.749969482421875" y="17.52" font-family="Virgil, Segoe UI Emoji" font-size="20px" fill="#1e1e1e" text-anchor="middle" style="white-space: pre;" direction="ltr" dominant-baseline="alphabetic">Broker</text></g><g stroke-linecap="round" transform="translate(494 10) rotate(0 77 58)"><path d="M43.31 5.23 C52.3 0.85, 66 -1.04, 77.09 -0.88 C88.18 -0.71, 99.86 2.44, 109.84 6.23 C119.82 10.02, 129.84 15.45, 136.97 21.85 C144.1 28.26, 150.11 36.31, 152.61 44.66 C155.12 53.01, 154.53 63.52, 152.02 71.94 C149.51 80.36, 144.55 88.89, 137.55 95.17 C130.55 101.45, 120.03 106.16, 110.01 109.61 C100 113.06, 88.54 115.62, 77.47 115.88 C66.39 116.13, 53.55 114.79, 43.56 111.16 C33.58 107.54, 24.42 100.78, 17.57 94.13 C10.72 87.48, 5.19 79.47, 2.47 71.25 C-0.25 63.04, -1.28 53.27, 1.27 44.86 C3.83 36.46, 8.72 27.83, 17.81 20.82 C26.9 13.8, 47.6 5.86, 55.82 2.78 C64.03 -0.31, 66.68 1.53, 67.11 2.31 M72.58 -0.35 C83.16 -1.42, 97.13 2.11, 107.45 5.36 C117.76 8.62, 127.3 12.81, 134.49 19.18 C141.69 25.56, 147.54 35.66, 150.61 43.61 C153.69 51.56, 154.63 58.66, 152.94 66.9 C151.26 75.13, 146.8 86.05, 140.49 93.03 C134.18 100.02, 124.87 104.85, 115.1 108.81 C105.33 112.77, 93.38 116.42, 81.89 116.8 C70.4 117.18, 56.63 114.29, 46.17 111.12 C35.7 107.94, 26.41 104.19, 19.09 97.73 C11.77 91.27, 5.01 80.49, 2.26 72.37 C-0.49 64.24, 0.54 56.89, 2.59 48.97 C4.65 41.06, 8.48 32.06, 14.58 24.88 C20.68 17.7, 29.41 9.81, 39.2 5.89 C48.99 1.97, 67.85 2.13, 73.32 1.36 C78.8 0.6, 72.09 0.7, 72.05 1.31" stroke="#1e1e1e" stroke-width="2" fill="none"></path></g><g transform="translate(525.9028220991241 55.48780669118025) rotate(0 45.14995574951172 12.5)"><text x="45.14995574951172" y="17.52" font-family="Virgil, Segoe UI Emoji" font-size="20px" fill="#1e1e1e" text-anchor="middle" style="white-space: pre;" direction="ltr" dominant-baseline="alphabetic">consumer1</text></g><g stroke-linecap="round"><g transform="translate(228 75.69173495211578) rotate(0 127.76346135637027 -14.949042546219061)"><path d="M-1.17 0.01 C41.48 -5.1, 213.17 -24.71, 256.08 -29.85 M0.42 -1.03 C42.94 -6, 212.83 -23.46, 255.42 -28.29" stroke="#1e1e1e" stroke-width="2" fill="none"></path></g><g transform="translate(228 75.69173495211578) rotate(0 127.76346135637027 -14.949042546219061)"><path d="M232.97 -17.27 C239.99 -19.61, 247.14 -22.73, 255.42 -28.29 M232.97 -17.27 C237.45 -20.45, 243.08 -22.44, 255.42 -28.29" stroke="#1e1e1e" stroke-width="2" fill="none"></path></g><g transform="translate(228 75.69173495211578) rotate(0 127.76346135637027 -14.949042546219061)"><path d="M231.14 -34.28 C238.85 -31.24, 246.57 -28.99, 255.42 -28.29 M231.14 -34.28 C235.99 -33.71, 242.02 -31.94, 255.42 -28.29" stroke="#1e1e1e" stroke-width="2" fill="none"></path></g></g><mask></mask><g transform="translate(296 38) rotate(0 45.239952087402344 12.5)"><text x="0" y="17.52" font-family="Virgil, Segoe UI Emoji" font-size="20px" fill="#1e1e1e" text-anchor="start" style="white-space: pre;" direction="ltr" dominant-baseline="alphabetic">messages</text></g><g stroke-linecap="round" transform="translate(503 198) rotate(0 80 58)"><path d="M103.25 3.65 C114.28 5.16, 126.27 10.58, 134.84 16.2 C143.4 21.82, 150.5 29.71, 154.65 37.36 C158.8 45.01, 160.53 53.75, 159.76 62.12 C159 70.48, 156.05 80.15, 150.07 87.53 C144.08 94.91, 133.74 101.85, 123.85 106.41 C113.97 110.96, 102.03 113.64, 90.75 114.85 C79.48 116.06, 67.08 115.92, 56.2 113.66 C45.31 111.4, 33.87 107.16, 25.44 101.29 C17 95.42, 9.86 86.3, 5.57 78.42 C1.28 70.55, -1.29 62.25, -0.31 54.06 C0.67 45.88, 5.69 36.82, 11.47 29.32 C17.25 21.81, 24.71 13.68, 34.37 9.04 C44.02 4.41, 56.65 2.3, 69.39 1.49 C82.12 0.68, 102.88 2.96, 110.79 4.16 C118.71 5.35, 117.45 7.73, 116.88 8.66 M74.61 -0.83 C85.29 -1.93, 97.39 1.59, 108.28 4.96 C119.17 8.34, 131.87 13.59, 139.97 19.39 C148.07 25.19, 153.92 31.69, 156.89 39.77 C159.87 47.86, 159.68 59.2, 157.81 67.91 C155.94 76.62, 152.03 85.38, 145.67 92.03 C139.31 98.69, 129.33 103.92, 119.65 107.85 C109.96 111.77, 99.04 115.1, 87.57 115.56 C76.11 116.02, 61.77 113.53, 50.86 110.62 C39.95 107.71, 29.98 103.78, 22.11 98.11 C14.24 92.44, 6.94 84.83, 3.64 76.6 C0.34 68.36, 0.45 57.26, 2.3 48.7 C4.14 40.14, 8.4 31.97, 14.68 25.22 C20.96 18.48, 30.36 12.24, 39.98 8.24 C49.6 4.23, 66.73 2.28, 72.41 1.18 C78.09 0.07, 73.87 0.69, 74.08 1.59" stroke="#1e1e1e" stroke-width="2" fill="none"></path></g><g transform="translate(533.3715057228496 243.48780669118025) rotate(0 49.55995178222656 12.5)"><text x="49.55995178222656" y="17.52" font-family="Virgil, Segoe UI Emoji" font-size="20px" fill="#1e1e1e" text-anchor="middle" style="white-space: pre;" direction="ltr" dominant-baseline="alphabetic">consumer2</text></g><g stroke-linecap="round"><g transform="translate(219.5454191649867 177.8417599523484) rotate(0 148.76346135637027 13.050957453780939)"><path d="M-1.08 0.5 C48.74 4.55, 248.59 20.78, 298.18 25.03 M0.55 -0.28 C50.33 3.82, 247.87 21.41, 297.57 26" stroke="#1e1e1e" stroke-width="2" fill="none"></path></g><g transform="translate(219.5454191649867 177.8417599523484) rotate(0 148.76346135637027 13.050957453780939)"><path d="M273.4 32.41 C279.95 32.18, 283.09 27.74, 297.57 26 M273.4 32.41 C279.63 30.11, 287.07 28.52, 297.57 26" stroke="#1e1e1e" stroke-width="2" fill="none"></path></g><g transform="translate(219.5454191649867 177.8417599523484) rotate(0 148.76346135637027 13.050957453780939)"><path d="M274.94 15.37 C281.23 19.19, 284 18.81, 297.57 26 M274.94 15.37 C280.72 18.07, 287.71 21.46, 297.57 26" stroke="#1e1e1e" stroke-width="2" fill="none"></path></g></g><mask></mask><g transform="translate(303.5454191649867 164.15002500023252) rotate(0 45.239952087402344 12.5)"><text x="0" y="17.52" font-family="Virgil, Segoe UI Emoji" font-size="20px" fill="#1e1e1e" text-anchor="start" style="white-space: pre;" direction="ltr" dominant-baseline="alphabetic">messages</text></g><g stroke-linecap="round"><g transform="translate(484 74) rotate(0 -128 13)"><path d="M-0.46 1 C-43.02 5.27, -212.86 22.53, -255.51 26.55 M1.5 0.47 C-41.17 4.32, -213.06 20.47, -256.2 24.72" stroke="#1e1e1e" stroke-width="2" fill="none"></path></g><g transform="translate(484 74) rotate(0 -128 13)"><path d="M-233.63 13.96 C-238.41 17.8, -245.66 19.47, -256.2 24.72 M-233.63 13.96 C-238.32 17.52, -244.51 18.3, -256.2 24.72" stroke="#1e1e1e" stroke-width="2" fill="none"></path></g><g transform="translate(484 74) rotate(0 -128 13)"><path d="M-232 30.99 C-237.37 29.9, -245.1 26.66, -256.2 24.72 M-232 30.99 C-237.21 30.73, -243.77 27.69, -256.2 24.72" stroke="#1e1e1e" stroke-width="2" fill="none"></path></g></g><mask></mask><g transform="translate(334 66) rotate(0 25.21997833251953 12.5)"><text x="0" y="17.52" font-family="Virgil, Segoe UI Emoji" font-size="20px" fill="#1e1e1e" text-anchor="start" style="white-space: pre;" direction="ltr" dominant-baseline="alphabetic">easy!</text></g><g stroke-linecap="round"><g transform="translate(226.5454191649867 132.92068897283707) rotate(0 127.76346135637027 -14.949042546219061)"><path d="M-0.51 0.77 C42.22 -4.07, 213.4 -25.04, 256 -30.09 M1.43 0.12 C44.08 -4.43, 213.19 -23.35, 255.3 -28.65" stroke="#1e1e1e" stroke-width="2" fill="none"></path></g><g transform="translate(226.5454191649867 132.92068897283707) rotate(0 127.76346135637027 -14.949042546219061)"><path d="M232.97 -17.41 C240.31 -19.54, 244.69 -24.08, 255.3 -28.65 M232.97 -17.41 C239.71 -21.78, 246.94 -25.84, 255.3 -28.65" stroke="#1e1e1e" stroke-width="2" fill="none"></path></g><g transform="translate(226.5454191649867 132.92068897283707) rotate(0 127.76346135637027 -14.949042546219061)"><path d="M230.97 -34.4 C238.7 -31.97, 243.61 -31.97, 255.3 -28.65 M230.97 -34.4 C238.53 -33.14, 246.42 -31.56, 255.3 -28.65" stroke="#1e1e1e" stroke-width="2" fill="none"></path></g></g><mask></mask><g transform="translate(284 124) rotate(0 71.87992858886719 12.5)"><text x="0" y="17.52" font-family="Virgil, Segoe UI Emoji" font-size="20px" fill="#1e1e1e" text-anchor="start" style="white-space: pre;" direction="ltr" dominant-baseline="alphabetic">more messages</text></g><g stroke-linecap="round"><g transform="translate(493.35237544241363 234.48811720772187) rotate(0 -138 -15)"><path d="M1.08 -0.49 C-44.69 -5.57, -229.55 -25.69, -275.75 -30.6 M0.19 -1.79 C-45.61 -6.7, -230.37 -24.91, -276.56 -29.38" stroke="#1e1e1e" stroke-width="2" fill="none"></path></g><g transform="translate(493.35237544241363 234.48811720772187) rotate(0 -138 -15)"><path d="M-252.35 -35.6 C-258.14 -33.68, -263.29 -33.03, -276.56 -29.38 M-252.35 -35.6 C-258.96 -34.76, -266.7 -31.11, -276.56 -29.38" stroke="#1e1e1e" stroke-width="2" fill="none"></path></g><g transform="translate(493.35237544241363 234.48811720772187) rotate(0 -138 -15)"><path d="M-254.01 -18.58 C-259.44 -20.17, -264.25 -23.01, -276.56 -29.38 M-254.01 -18.58 C-260 -22.91, -267.23 -24.44, -276.56 -29.38" stroke="#1e1e1e" stroke-width="2" fill="none"></path></g></g><mask></mask><g transform="translate(368 196) rotate(0 23.299972534179688 12.5)"><text x="0" y="17.52" font-family="Virgil, Segoe UI Emoji" font-size="20px" fill="#1e1e1e" text-anchor="start" style="white-space: pre;" direction="ltr" dominant-baseline="alphabetic">tired</text></g><g stroke-linecap="round"><g transform="translate(224.45366870710393 238.13820518542173) rotate(0 134.76346135637027 14.050957453780939)"><path d="M0.43 -0.5 C45.01 4.3, 223.55 23.24, 268.54 27.98 M-0.8 -1.81 C44.05 3.26, 225.59 24.3, 270.73 29.45" stroke="#1e1e1e" stroke-width="2" fill="none"></path></g><g transform="translate(224.45366870710393 238.13820518542173) rotate(0 134.76346135637027 14.050957453780939)"><path d="M246.41 35.26 C255.13 31.25, 265.25 32.05, 270.73 29.45 M246.41 35.26 C252.72 33.12, 259.5 31.54, 270.73 29.45" stroke="#1e1e1e" stroke-width="2" fill="none"></path></g><g transform="translate(224.45366870710393 238.13820518542173) rotate(0 134.76346135637027 14.050957453780939)"><path d="M248.37 18.27 C256.2 20.91, 265.56 28.35, 270.73 29.45 M248.37 18.27 C254.23 20.95, 260.46 24.18, 270.73 29.45" stroke="#1e1e1e" stroke-width="2" fill="none"></path></g></g><mask></mask><g transform="translate(294 228) rotate(0 69.1999282836914 12.5)"><text x="0" y="17.52" font-family="Virgil, Segoe UI Emoji" font-size="20px" fill="#1e1e1e" text-anchor="start" style="white-space: pre;" direction="ltr" dominant-baseline="alphabetic">less messages</text></g></svg>