<svg version="1.1" xmlns="http://www.w3.org/2000/svg" viewBox="0 0 666 430" width="666" height="430">
  <!-- svg-source:excalidraw -->
  
  <defs>
    <style class="style-fonts">
      @font-face {
        font-family: "Virgil";
        src: url("https://excalidraw.com/Virgil.woff2");
      }
      @font-face {
        font-family: "Cascadia";
        src: url("https://excalidraw.com/Cascadia.woff2");
      }
      @font-face {
        font-family: "Assistant";
        src: url("https://excalidraw.com/Assistant-Regular.woff2");
      }
    </style>
    
  </defs>
  <rect x="0" y="0" width="666" height="430" fill="#ffffff"></rect><g stroke-linecap="round" transform="translate(10 18) rotate(0 102 201)"><path d="M32 0 C65.51 0.56, 96.18 0.04, 172 0 M32 0 C75.63 0.94, 118.95 0.5, 172 0 M172 0 C193.72 1.25, 205.83 10.99, 204 32 M172 0 C191.09 0.79, 206.26 9.79, 204 32 M204 32 C203.83 158.88, 202.91 287.6, 204 370 M204 32 C204.05 100.54, 204.51 170.26, 204 370 M204 370 C202.37 392.86, 195.29 401.57, 172 402 M204 370 C203.26 392.84, 193.51 402.98, 172 402 M172 402 C135.85 400.54, 98.2 401.99, 32 402 M172 402 C122.95 402.88, 74.5 403.18, 32 402 M32 402 C11.76 400.01, 0.76 391.42, 0 370 M32 402 C11.21 403.92, -0.83 392.84, 0 370 M0 370 C0.82 271.72, 0.94 175.7, 0 32 M0 370 C0.36 293.1, 0.71 215.15, 0 32 M0 32 C-1.15 10.26, 11.9 0.9, 32 0 M0 32 C1.62 9.14, 11.33 -0.96, 32 0" stroke="#1e1e1e" stroke-width="2" fill="none"></path></g><g transform="translate(80.25003051757812 206.5) rotate(0 31.749969482421875 12.5)"><text x="31.749969482421875" y="17.52" font-family="Virgil, Segoe UI Emoji" font-size="20px" fill="#1e1e1e" text-anchor="middle" style="white-space: pre;" direction="ltr" dominant-baseline="alphabetic">Broker</text></g><g stroke-linecap="round" transform="translate(502 10) rotate(0 77 205)"><path d="M43.31 19.64 C49.53 7.9, 58.93 3.56, 66.75 0.92 C74.56 -1.72, 82.43 -0.14, 90.19 3.81 C97.95 7.76, 106.12 14.73, 113.3 24.61 C120.49 34.49, 127.76 47.64, 133.28 63.1 C138.81 78.57, 143.03 98.09, 146.44 117.38 C149.86 136.67, 152.78 158.18, 153.79 178.85 C154.79 199.51, 153.89 220.76, 152.49 241.36 C151.09 261.96, 149.08 283.58, 145.37 302.43 C141.65 321.28, 135.92 339.87, 130.21 354.46 C124.51 369.05, 118.21 380.93, 111.13 389.97 C104.05 399, 95.87 405.92, 87.74 408.68 C79.62 411.44, 70.13 410.57, 62.38 406.52 C54.64 402.47, 48.06 394.34, 41.26 384.39 C34.46 374.43, 27.34 361.81, 21.59 346.79 C15.84 331.77, 10.1 313.46, 6.75 294.26 C3.4 275.06, 2.43 252.64, 1.5 231.6 C0.57 210.55, -0.09 188.75, 1.17 167.99 C2.42 147.24, 5.29 125.58, 9.03 107.06 C12.77 88.54, 16.41 72.87, 23.64 56.87 C30.86 40.87, 46.29 19.13, 52.41 11.07 C58.52 3.02, 59.88 5.27, 60.35 8.54 M48.94 15.33 C55.45 4.63, 64.6 3.13, 72.15 1.47 C79.69 -0.18, 86.68 0.38, 94.19 5.42 C101.69 10.47, 110.37 20.86, 117.17 31.76 C123.98 42.66, 129.62 54.78, 135.03 70.81 C140.44 86.84, 146.48 108.07, 149.62 127.94 C152.76 147.81, 153.67 169.35, 153.88 190.03 C154.09 210.72, 152.72 231.44, 150.86 252.05 C149.01 272.67, 146.94 295.54, 142.74 313.73 C138.55 331.92, 131.86 347.88, 125.71 361.21 C119.57 374.54, 113.16 385.9, 105.86 393.7 C98.56 401.5, 89.89 406.31, 81.92 408.01 C73.95 409.71, 65.79 408.52, 58.06 403.91 C50.33 399.29, 41.97 391.41, 35.55 380.33 C29.12 369.25, 24.66 353.42, 19.49 337.42 C14.32 321.41, 7.85 303.91, 4.55 284.31 C1.25 264.72, 0.11 240.89, -0.31 219.84 C-0.73 198.8, -0.14 178.58, 2.02 158.05 C4.18 137.52, 8.72 114.91, 12.67 96.65 C16.61 78.4, 19.95 61.93, 25.71 48.5 C31.48 35.07, 43.27 20.7, 47.26 16.07 C51.25 11.43, 48.97 17.75, 49.63 20.7" stroke="#1e1e1e" stroke-width="2" fill="none"></path></g><g transform="translate(533.9028220991241 202.54310985675772) rotate(0 45.14995574951172 12.5)"><text x="45.14995574951172" y="17.52" font-family="Virgil, Segoe UI Emoji" font-size="20px" fill="#1e1e1e" text-anchor="middle" style="white-space: pre;" direction="ltr" dominant-baseline="alphabetic">consumer1</text></g><g stroke-linecap="round"><g transform="translate(489.9870282938084 86.55755982306925) rotate(0 -131.9935141469042 -2.802380678355064)"><path d="M-0.46 1 C-44.36 0.01, -219.52 -3.8, -263.5 -5.05 M1.5 0.47 C-42.5 -0.95, -219.72 -5.87, -264.19 -6.89" stroke="#1e1e1e" stroke-width="2" fill="none"></path></g><g transform="translate(489.9870282938084 86.55755982306925) rotate(0 -131.9935141469042 -2.802380678355064)"><path d="M-240.48 -14.83 C-245.61 -11.81, -253.19 -10.95, -264.19 -6.89 M-240.48 -14.83 C-245.45 -11.89, -251.9 -11.74, -264.19 -6.89" stroke="#1e1e1e" stroke-width="2" fill="none"></path></g><g transform="translate(489.9870282938084 86.55755982306925) rotate(0 -131.9935141469042 -2.802380678355064)"><path d="M-240.92 2.27 C-246.05 0.35, -253.5 -3.72, -264.19 -6.89 M-240.92 2.27 C-245.95 1.35, -252.3 -2.34, -264.19 -6.89" stroke="#1e1e1e" stroke-width="2" fill="none"></path></g></g><mask></mask><g stroke-linecap="round"><g transform="translate(242.5454191649867 112.85592712209768) rotate(0 125.39068533657252 8.184064026184615)"><path d="M-0.51 0.77 C41.43 3.64, 209.45 13.51, 251.25 16.18" stroke="#1e1e1e" stroke-width="2.5" fill="none" stroke-dasharray="1.5 8"></path></g><g transform="translate(242.5454191649867 112.85592712209768) rotate(0 125.39068533657252 8.184064026184615)"><path d="M227.28 23.28 C235.03 22.27, 239.84 18.83, 251.25 16.18" stroke="#1e1e1e" stroke-width="2.5" fill="none" stroke-dasharray="1.5 6"></path></g><g transform="translate(242.5454191649867 112.85592712209768) rotate(0 125.39068533657252 8.184064026184615)"><path d="M228.32 6.21 C235.64 9.76, 240.18 10.88, 251.25 16.18" stroke="#1e1e1e" stroke-width="2.5" fill="none" stroke-dasharray="1.5 6"></path></g></g><mask></mask><g transform="translate(245 54) rotate(0 111.48990631103516 12.5)"><text x="0" y="17.52" font-family="Virgil, Segoe UI Emoji" font-size="20px" fill="#1e1e1e" text-anchor="start" style="white-space: pre;" direction="ltr" dominant-baseline="alphabetic">Give me some Message</text></g><g transform="translate(315 94) rotate(0 37.66996765136719 12.5)"><text x="0" y="17.52" font-family="Virgil, Segoe UI Emoji" font-size="20px" fill="#1e1e1e" text-anchor="start" style="white-space: pre;" direction="ltr" dominant-baseline="alphabetic">no thing</text></g><g stroke-linecap="round"><g transform="translate(488.1888341472654 183.04025216955426) rotate(0 -131.9935141469042 -2.802380678355064)"><path d="M0.52 0.51 C-43.42 -0.26, -219.55 -3.8, -263.71 -4.78 M-0.67 -0.27 C-44.73 -1.36, -220.39 -5.86, -264.52 -6.46" stroke="#1e1e1e" stroke-width="2" fill="none"></path></g><g transform="translate(488.1888341472654 183.04025216955426) rotate(0 -131.9935141469042 -2.802380678355064)"><path d="M-240.85 -14.53 C-246.95 -11.61, -253.35 -10.47, -264.52 -6.46 M-240.85 -14.53 C-247.53 -11.07, -255.84 -9.08, -264.52 -6.46" stroke="#1e1e1e" stroke-width="2" fill="none"></path></g><g transform="translate(488.1888341472654 183.04025216955426) rotate(0 -131.9935141469042 -2.802380678355064)"><path d="M-241.21 2.57 C-247.17 0.48, -253.47 -3.39, -264.52 -6.46 M-241.21 2.57 C-247.69 0.53, -255.89 -2.98, -264.52 -6.46" stroke="#1e1e1e" stroke-width="2" fill="none"></path></g></g><mask></mask><g stroke-linecap="round"><g transform="translate(240.74722501844371 209.3386194685827) rotate(0 125.39068533657252 8.184064026184615)"><path d="M0.27 0.83 C41.91 3.52, 208.66 13.89, 250.32 16.63" stroke="#1e1e1e" stroke-width="2.5" fill="none" stroke-dasharray="1.5 8"></path></g><g transform="translate(240.74722501844371 209.3386194685827) rotate(0 125.39068533657252 8.184064026184615)"><path d="M226.33 23.67 C235.92 20.43, 243.2 17.86, 250.32 16.63" stroke="#1e1e1e" stroke-width="2.5" fill="none" stroke-dasharray="1.5 6"></path></g><g transform="translate(240.74722501844371 209.3386194685827) rotate(0 125.39068533657252 8.184064026184615)"><path d="M227.42 6.6 C236.71 9.22, 243.61 12.52, 250.32 16.63" stroke="#1e1e1e" stroke-width="2.5" fill="none" stroke-dasharray="1.5 6"></path></g></g><mask></mask><g transform="translate(243.20180585345702 150.482692346485) rotate(0 111.48990631103516 12.5)"><text x="0" y="17.52" font-family="Virgil, Segoe UI Emoji" font-size="20px" fill="#1e1e1e" text-anchor="start" style="white-space: pre;" direction="ltr" dominant-baseline="alphabetic">Give me some Message</text></g><g transform="translate(313.201805853457 190.482692346485) rotate(0 37.66996765136719 12.5)"><text x="0" y="17.52" font-family="Virgil, Segoe UI Emoji" font-size="20px" fill="#1e1e1e" text-anchor="start" style="white-space: pre;" direction="ltr" dominant-baseline="alphabetic">no thing</text></g><g stroke-linecap="round"><g transform="translate(488.1888341472654 279.04025216955426) rotate(0 -131.9935141469042 -2.802380678355064)"><path d="M-0.41 -0.37 C-44.11 -1.6, -219.2 -5.49, -263.06 -6.52 M1.58 -1.61 C-42.13 -2.8, -219.24 -4.78, -263.52 -5.46" stroke="#1e1e1e" stroke-width="2" fill="none"></path></g><g transform="translate(488.1888341472654 279.04025216955426) rotate(0 -131.9935141469042 -2.802380678355064)"><path d="M-239.92 -13.7 C-245.88 -10.35, -252.19 -9.33, -263.52 -5.46 M-239.92 -13.7 C-245.76 -10.72, -250.28 -10.18, -263.52 -5.46" stroke="#1e1e1e" stroke-width="2" fill="none"></path></g><g transform="translate(488.1888341472654 279.04025216955426) rotate(0 -131.9935141469042 -2.802380678355064)"><path d="M-240.15 3.4 C-246.18 2.84, -252.43 -0.06, -263.52 -5.46 M-240.15 3.4 C-245.78 2.57, -250.26 -0.7, -263.52 -5.46" stroke="#1e1e1e" stroke-width="2" fill="none"></path></g></g><mask></mask><g stroke-linecap="round"><g transform="translate(240.74722501844371 305.3386194685827) rotate(0 125.39068533657252 8.184064026184615)"><path d="M0.93 -0.91 C42.86 1.72, 209.72 12.43, 251.18 15.44" stroke="#1e1e1e" stroke-width="2.5" fill="none" stroke-dasharray="1.5 8"></path></g><g transform="translate(240.74722501844371 305.3386194685827) rotate(0 125.39068533657252 8.184064026184615)"><path d="M227.17 22.39 C232.06 21.02, 238.42 16.71, 251.18 15.44" stroke="#1e1e1e" stroke-width="2.5" fill="none" stroke-dasharray="1.5 6"></path></g><g transform="translate(240.74722501844371 305.3386194685827) rotate(0 125.39068533657252 8.184064026184615)"><path d="M228.32 5.32 C232.85 8.51, 238.91 8.74, 251.18 15.44" stroke="#1e1e1e" stroke-width="2.5" fill="none" stroke-dasharray="1.5 6"></path></g></g><mask></mask><g transform="translate(243.20180585345702 246.482692346485) rotate(0 111.48990631103516 12.5)"><text x="0" y="17.52" font-family="Virgil, Segoe UI Emoji" font-size="20px" fill="#1e1e1e" text-anchor="start" style="white-space: pre;" direction="ltr" dominant-baseline="alphabetic">Give me some Message</text></g><g transform="translate(313.201805853457 286.482692346485) rotate(0 37.66996765136719 12.5)"><text x="0" y="17.52" font-family="Virgil, Segoe UI Emoji" font-size="20px" fill="#1e1e1e" text-anchor="start" style="white-space: pre;" direction="ltr" dominant-baseline="alphabetic">no thing</text></g><g stroke-linecap="round"><g transform="translate(498.1888341472654 375.04025216955415) rotate(0 -131.9935141469042 -2.802380678355064)"><path d="M0.86 0.16 C-43.24 -0.73, -220.5 -4.75, -264.76 -5.63 M-0.14 -0.8 C-43.84 -1.46, -218.78 -3.04, -262.46 -4.11" stroke="#1e1e1e" stroke-width="2" fill="none"></path></g><g transform="translate(498.1888341472654 375.04025216955415) rotate(0 -131.9935141469042 -2.802380678355064)"><path d="M-238.83 -12.29 C-245.34 -11.07, -252.39 -8.63, -262.46 -4.11 M-238.83 -12.29 C-246.35 -10.06, -255.72 -6.61, -262.46 -4.11" stroke="#1e1e1e" stroke-width="2" fill="none"></path></g><g transform="translate(498.1888341472654 375.04025216955415) rotate(0 -131.9935141469042 -2.802380678355064)"><path d="M-239.1 4.81 C-245.48 1.14, -252.46 -1.3, -262.46 -4.11 M-239.1 4.81 C-246.58 1.19, -255.86 -1.2, -262.46 -4.11" stroke="#1e1e1e" stroke-width="2" fill="none"></path></g></g><mask></mask><g stroke-linecap="round"><g transform="translate(252.74722501844371 399.3386194685827) rotate(0 125.39068533657252 8.184064026184615)"><path d="M-0.77 -0.02 C40.76 2.76, 208.09 14.21, 250.07 16.87 M1.02 -1.08 C42.87 1.33, 210.82 11.99, 252.41 15.01" stroke="#1e1e1e" stroke-width="2" fill="none"></path></g><g transform="translate(252.74722501844371 399.3386194685827) rotate(0 125.39068533657252 8.184064026184615)"><path d="M228.39 21.97 C237.27 18.35, 247.08 17.51, 252.41 15.01 M228.39 21.97 C233.94 20.42, 240.42 19.1, 252.41 15.01" stroke="#1e1e1e" stroke-width="2" fill="none"></path></g><g transform="translate(252.74722501844371 399.3386194685827) rotate(0 125.39068533657252 8.184064026184615)"><path d="M229.54 4.91 C238.02 7.62, 247.4 13.13, 252.41 15.01 M229.54 4.91 C234.88 7.86, 241.05 11.05, 252.41 15.01" stroke="#1e1e1e" stroke-width="2" fill="none"></path></g></g><mask></mask><g transform="translate(255.20180585345702 340.482692346485) rotate(0 111.48990631103516 12.5)"><text x="0" y="17.52" font-family="Virgil, Segoe UI Emoji" font-size="20px" fill="#1e1e1e" text-anchor="start" style="white-space: pre;" direction="ltr" dominant-baseline="alphabetic">Give me some Message</text></g><g transform="translate(325.201805853457 380.482692346485) rotate(0 39.809959411621094 12.5)"><text x="0" y="17.52" font-family="Virgil, Segoe UI Emoji" font-size="20px" fill="#1e1e1e" text-anchor="start" style="white-space: pre;" direction="ltr" dominant-baseline="alphabetic">message</text></g></svg>