<svg version="1.1" xmlns="http://www.w3.org/2000/svg" viewBox="0 0 2169.313346204384 610" width="2169.313346204384" height="610">
  <!-- svg-source:excalidraw -->
  
  <defs>
    <style class="style-fonts">
      @font-face {
        font-family: "Virgil";
        src: url("https://excalidraw.com/Virgil.woff2");
      }
      @font-face {
        font-family: "Cascadia";
        src: url("https://excalidraw.com/Cascadia.woff2");
      }
      @font-face {
        font-family: "Assistant";
        src: url("https://excalidraw.com/Assistant-Regular.woff2");
      }
    </style>
    
  </defs>
  <rect x="0" y="0" width="2169.313346204384" height="610" fill="#ffffff"></rect><g stroke-linecap="round" transform="translate(301.31334620438366 40) rotate(0 929 280)"><path d="M32 0 C508.66 -4.81, 985.04 -4.95, 1826 0 M32 0 C652.42 5.76, 1273.26 5.89, 1826 0 M1826 0 C1849.19 -0.57, 1858.53 9.22, 1858 32 M1826 0 C1846.44 0.36, 1857.64 8.86, 1858 32 M1858 32 C1857.12 156.17, 1857.83 281.86, 1858 528 M1858 32 C1859.6 163.62, 1859.55 294.78, 1858 528 M1858 528 C1858.31 551.1, 1846 560.08, 1826 560 M1858 528 C1855.79 548.17, 1849.33 558.73, 1826 560 M1826 560 C1113.69 563.86, 401.97 564.32, 32 560 M1826 560 C1134 560.64, 442.25 560.9, 32 560 M32 560 C10.71 559.79, 1.68 550.85, 0 528 M32 560 C12.46 558.88, -0.51 549.52, 0 528 M0 528 C1.36 418.02, 1.44 308.7, 0 32 M0 528 C1.89 344.1, 1.42 160.86, 0 32 M0 32 C1.11 9.86, 8.69 -0.69, 32 0 M0 32 C-2.02 10.52, 12.54 1.03, 32 0" stroke="#1e1e1e" stroke-width="2" fill="none"></path></g><g stroke-linecap="round"><g transform="translate(10.704927851259697 245.40833415426363) rotate(0 178.3042396941401 -0.14520612056841742)"><path d="M-0.7 -0.37 C58.73 -0.63, 296.64 -1.15, 356.12 -1.01 M1.13 -1.61 C60.4 -1.78, 295.91 0.13, 354.92 0.15" stroke="#1e1e1e" stroke-width="2" fill="none"></path></g><g transform="translate(10.704927851259697 245.40833415426363) rotate(0 178.3042396941401 -0.14520612056841742)"><path d="M331.39 8.59 C336.85 5.72, 342.4 3.63, 354.92 0.15 M331.39 8.59 C340.08 4.44, 348.86 1.94, 354.92 0.15" stroke="#1e1e1e" stroke-width="2" fill="none"></path></g><g transform="translate(10.704927851259697 245.40833415426363) rotate(0 178.3042396941401 -0.14520612056841742)"><path d="M331.47 -8.51 C336.99 -6.93, 342.52 -4.57, 354.92 0.15 M331.47 -8.51 C340.01 -6.45, 348.77 -2.74, 354.92 0.15" stroke="#1e1e1e" stroke-width="2" fill="none"></path></g></g><mask></mask><g stroke-linecap="round" transform="translate(71.31346827469616 194) rotate(0 101 21)"><path d="M10.5 0 C67.8 2.1, 122.32 -1.4, 191.5 0 M10.5 0 C81.94 -1.47, 151.37 -1.94, 191.5 0 M191.5 0 C199.78 -1.58, 203.68 2.32, 202 10.5 M191.5 0 C199.51 -1.69, 202.9 3.87, 202 10.5 M202 10.5 C200.38 17.03, 202.76 18.75, 202 31.5 M202 10.5 C201.36 16.27, 201.96 22.73, 202 31.5 M202 31.5 C200.93 39, 199.98 42.38, 191.5 42 M202 31.5 C200.29 39.59, 197.79 41.33, 191.5 42 M191.5 42 C147.41 44.3, 101.31 41.93, 10.5 42 M191.5 42 C152.97 41.4, 114.68 40.92, 10.5 42 M10.5 42 C3.05 43.57, 0.72 37.82, 0 31.5 M10.5 42 C5.27 40.02, -0.54 40.07, 0 31.5 M0 31.5 C-2.08 26.3, -0.43 18.93, 0 10.5 M0 31.5 C0.69 24.81, -0.51 19.29, 0 10.5 M0 10.5 C1.27 4.8, 2.52 0.69, 10.5 0 M0 10.5 C-0.79 4.31, 4.19 1.41, 10.5 0" stroke="#1e1e1e" stroke-width="2" fill="none"></path></g><g transform="translate(102.35353022537976 202.5) rotate(0 69.9599380493164 12.5)"><text x="69.9599380493164" y="17.52" font-family="Virgil, Segoe UI Emoji" font-size="20px" fill="#1e1e1e" text-anchor="middle" style="white-space: pre;" direction="ltr" dominant-baseline="alphabetic">delay message</text></g><g transform="translate(335.31346827469616 10) rotate(0 31.749969482421875 12.5)"><text x="0" y="17.52" font-family="Virgil, Segoe UI Emoji" font-size="20px" fill="#1e1e1e" text-anchor="start" style="white-space: pre;" direction="ltr" dominant-baseline="alphabetic">Broker</text></g><g stroke-linecap="round" transform="translate(375.31346827469616 231.33331298828125) rotate(0 16 14)"><path d="M18.78 0.47 C22.08 0.7, 25.72 2.88, 27.91 5.09 C30.09 7.31, 31.75 10.77, 31.89 13.78 C32.03 16.79, 30.92 20.89, 28.74 23.15 C26.55 25.41, 22.14 26.81, 18.79 27.33 C15.44 27.85, 11.64 27.63, 8.63 26.25 C5.62 24.88, 2.04 21.92, 0.74 19.07 C-0.57 16.21, -0.38 12.01, 0.8 9.13 C1.98 6.24, 4.72 3.19, 7.82 1.76 C10.93 0.32, 17.51 0.76, 19.42 0.54 C21.33 0.32, 19.45 0.18, 19.28 0.42 M20.59 -0.33 C23.74 0.02, 27.28 2.41, 29.09 5.08 C30.89 7.76, 31.71 12.54, 31.41 15.73 C31.11 18.92, 29.54 22.09, 27.3 24.24 C25.05 26.39, 21.32 28.29, 17.94 28.63 C14.55 28.97, 9.91 28.15, 6.98 26.25 C4.04 24.35, 1.28 20.28, 0.34 17.24 C-0.6 14.2, 0.02 10.62, 1.35 8.03 C2.69 5.44, 5.28 3.05, 8.34 1.69 C11.39 0.33, 17.85 0.12, 19.71 -0.12 C21.57 -0.36, 19.54 -0.1, 19.49 0.26" stroke="#1e1e1e" stroke-width="2" fill="none"></path></g><g transform="translate(333.31346827469616 281) rotate(0 74.68994903564453 12.5)"><text x="0" y="17.52" font-family="Virgil, Segoe UI Emoji" font-size="20px" fill="#1e1e1e" text-anchor="start" style="white-space: pre;" direction="ltr" dominant-baseline="alphabetic">1. 存入commitlog</text></g><g stroke-linecap="round"><g transform="translate(413.31346827469616 243.33334350585938) rotate(0 69 0)"><path d="M-0.25 -0.83 C22.49 -1.05, 114.61 -0.62, 137.57 -0.37 M1.83 1.35 C24.27 1.22, 113.95 1.42, 136.4 0.98" stroke="#1e1e1e" stroke-width="2" fill="none"></path></g><g transform="translate(413.31346827469616 243.33334350585938) rotate(0 69 0)"><path d="M112.97 9.7 C120.77 5.59, 130.79 2.06, 136.4 0.98 M112.97 9.7 C121.48 6.99, 130.59 4.27, 136.4 0.98" stroke="#1e1e1e" stroke-width="2" fill="none"></path></g><g transform="translate(413.31346827469616 243.33334350585938) rotate(0 69 0)"><path d="M112.85 -7.4 C120.83 -4.76, 130.91 -1.54, 136.4 0.98 M112.85 -7.4 C121.34 -3.99, 130.49 -0.6, 136.4 0.98" stroke="#1e1e1e" stroke-width="2" fill="none"></path></g></g><mask></mask><g stroke-linecap="round" transform="translate(553.3134682746961 229.33334350585938) rotate(0 15 14)"><path d="M14.73 0.06 C17.87 -0.14, 22.1 1.29, 24.62 3.15 C27.15 5, 29.21 8.26, 29.87 11.19 C30.54 14.13, 30.05 18.15, 28.6 20.75 C27.15 23.35, 24.24 25.67, 21.17 26.8 C18.09 27.93, 13.34 28.42, 10.16 27.51 C6.98 26.59, 3.71 23.95, 2.07 21.32 C0.43 18.7, -0.14 14.68, 0.32 11.75 C0.79 8.82, 2.54 5.65, 4.86 3.75 C7.18 1.86, 12.49 1.01, 14.24 0.38 C15.99 -0.25, 15.28 -0.24, 15.35 -0.02 M12.06 -0.3 C15 -1.22, 18.74 -0.41, 21.49 0.97 C24.24 2.34, 27.17 5.12, 28.56 7.97 C29.96 10.82, 30.71 15.24, 29.86 18.09 C29.01 20.94, 26.25 23.49, 23.48 25.08 C20.7 26.66, 16.49 27.8, 13.2 27.62 C9.91 27.45, 6.01 26.19, 3.71 24.02 C1.41 21.85, -0.55 17.64, -0.6 14.6 C-0.64 11.56, 1.36 8.03, 3.44 5.77 C5.51 3.51, 10.57 1.97, 11.86 1.05 C13.14 0.12, 11.15 0.04, 11.15 0.21" stroke="#1e1e1e" stroke-width="2" fill="none"></path></g><g transform="translate(477.31346827469616 150.99993896484375) rotate(0 105.00997161865234 25)"><text x="0" y="17.52" font-family="Virgil, Segoe UI Emoji" font-size="20px" fill="#1e1e1e" text-anchor="start" style="white-space: pre;" direction="ltr" dominant-baseline="alphabetic">2.查看有无delay设置，</text><text x="0" y="42.519999999999996" font-family="Virgil, Segoe UI Emoji" font-size="20px" fill="#1e1e1e" text-anchor="start" style="white-space: pre;" direction="ltr" dominant-baseline="alphabetic">判断是否为延迟消息</text></g><g stroke-linecap="round"><g transform="translate(569.3134682746961 263.33331298828125) rotate(0 0 45.00001525878906)"><path d="M0.9 0.11 C0.8 15.34, 0.15 75.25, 0.18 90.31 M-0.08 -0.88 C-0.4 14.06, -0.83 73.48, -0.67 88.36" stroke="#1e1e1e" stroke-width="2" fill="none"></path></g><g transform="translate(569.3134682746961 263.33331298828125) rotate(0 0 45.00001525878906)"><path d="M-9.23 64.87 C-6.1 73.75, -2.61 83.87, -0.67 88.36 M-9.23 64.87 C-5.47 72.43, -3.13 80.73, -0.67 88.36" stroke="#1e1e1e" stroke-width="2" fill="none"></path></g><g transform="translate(569.3134682746961 263.33331298828125) rotate(0 0 45.00001525878906)"><path d="M7.87 64.86 C4.71 73.88, 1.9 84, -0.67 88.36 M7.87 64.86 C5.8 72.5, 2.3 80.79, -0.67 88.36" stroke="#1e1e1e" stroke-width="2" fill="none"></path></g></g><mask></mask><g transform="translate(543.3134682746961 296.99993896484375) rotate(0 10 12.5)"><text x="0" y="17.52" font-family="Virgil, Segoe UI Emoji" font-size="20px" fill="#1e1e1e" text-anchor="start" style="white-space: pre;" direction="ltr" dominant-baseline="alphabetic">是</text></g><g stroke-linecap="round" transform="translate(551.3134682746961 355.3333435058594) rotate(0 19 16)"><path d="M20.45 -0.36 C24.25 -0.25, 29.14 1.95, 31.98 4.41 C34.83 6.88, 37.07 10.92, 37.52 14.42 C37.98 17.93, 36.98 22.53, 34.69 25.43 C32.39 28.32, 27.77 31.01, 23.75 31.79 C19.73 32.56, 14.2 31.58, 10.58 30.08 C6.96 28.59, 3.66 25.91, 2 22.81 C0.35 19.7, -0.46 14.73, 0.65 11.46 C1.75 8.18, 5.15 4.96, 8.63 3.15 C12.11 1.34, 19.42 0.95, 21.53 0.59 C23.64 0.23, 21.4 0.85, 21.29 0.97 M15.31 0.13 C19.14 -0.78, 24.46 -0.09, 28.14 1.57 C31.82 3.24, 35.96 6.78, 37.4 10.14 C38.84 13.5, 38.29 18.47, 36.78 21.74 C35.26 25.02, 31.88 28.15, 28.31 29.79 C24.74 31.42, 19.36 32.09, 15.36 31.56 C11.35 31.04, 6.73 29.09, 4.26 26.64 C1.8 24.18, 0.62 20.26, 0.56 16.84 C0.49 13.42, 1.47 8.79, 3.89 6.1 C6.31 3.42, 13.11 1.63, 15.07 0.74 C17.03 -0.14, 15.63 0.64, 15.67 0.77" stroke="#1e1e1e" stroke-width="2" fill="none"></path></g><g transform="translate(549.3134682746961 422.9999694824219) rotate(0 168.78994750976562 25)"><text x="0" y="17.52" font-family="Virgil, Segoe UI Emoji" font-size="20px" fill="#1e1e1e" text-anchor="start" style="white-space: pre;" direction="ltr" dominant-baseline="alphabetic">3.构建新消息，包含原消息commitlog </text><text x="0" y="42.519999999999996" font-family="Virgil, Segoe UI Emoji" font-size="20px" fill="#1e1e1e" text-anchor="start" style="white-space: pre;" direction="ltr" dominant-baseline="alphabetic">offset、topic、queue等信息</text></g><g stroke-linecap="round"><g transform="translate(595.3543071154859 375.1172140556332) rotate(0 40.97958057960517 0.9613317536806107)"><path d="M-0.17 -1.01 C13.67 -0.65, 68.84 2.01, 82.46 2.55 M-1.72 1.08 C12.06 1.04, 68.05 0.32, 81.77 0.76" stroke="#1e1e1e" stroke-width="2" fill="none"></path></g><g transform="translate(595.3543071154859 375.1172140556332) rotate(0 40.97958057960517 0.9613317536806107)"><path d="M58.23 9.17 C62.36 7.94, 70.94 4.36, 81.77 0.76 M58.23 9.17 C66.52 6.83, 73.09 3.02, 81.77 0.76" stroke="#1e1e1e" stroke-width="2" fill="none"></path></g><g transform="translate(595.3543071154859 375.1172140556332) rotate(0 40.97958057960517 0.9613317536806107)"><path d="M58.33 -7.93 C62.5 -4.91, 71.05 -4.25, 81.77 0.76 M58.33 -7.93 C66.53 -4.72, 73.06 -2.97, 81.77 0.76" stroke="#1e1e1e" stroke-width="2" fill="none"></path></g></g><mask></mask><g stroke-linecap="round" transform="translate(681.3134682746961 353.3333435058594) rotate(0 77 24)"><path d="M12 0 C50.81 -0.53, 85.2 -0.39, 142 0 M12 0 C52.73 -0.07, 93.16 1.11, 142 0 M142 0 C151.1 -1.66, 153.81 3.36, 154 12 M142 0 C149.36 0.68, 154.87 4.9, 154 12 M154 12 C154.88 18.9, 152.48 26.98, 154 36 M154 12 C153.86 18.31, 153.83 26.98, 154 36 M154 36 C154.78 42.1, 148.14 46.83, 142 48 M154 36 C152.22 44.86, 149.92 49.46, 142 48 M142 48 C89.92 50.3, 38.32 50.89, 12 48 M142 48 C112.45 47.83, 83.51 48.35, 12 48 M12 48 C5.39 48.38, 0 42.06, 0 36 M12 48 C3.71 46.98, -0.53 44.45, 0 36 M0 36 C1.37 25.6, 1.49 17.45, 0 12 M0 36 C-0.1 28.75, 0.32 20.49, 0 12 M0 12 C-0.01 5.9, 2.84 0.5, 12 0 M0 12 C1.05 1.85, 5.2 -0.2, 12 0" stroke="#1e1e1e" stroke-width="2" fill="none"></path></g><g transform="translate(697.2735207649305 364.8333435058594) rotate(0 61.039947509765625 12.5)"><text x="61.039947509765625" y="17.52" font-family="Virgil, Segoe UI Emoji" font-size="20px" fill="#1e1e1e" text-anchor="middle" style="white-space: pre;" direction="ltr" dominant-baseline="alphabetic">new message</text></g><g stroke-linecap="round" transform="translate(999.3134682746961 261.3333435058594) rotate(0 253 143)"><path d="M32 0 C123.95 -0.57, 217.3 0.33, 474 0 M32 0 C192 -1.56, 351.71 -1.19, 474 0 M474 0 C495 -1.77, 505.79 11.58, 506 32 M474 0 C497.19 -1.86, 506.84 10.15, 506 32 M506 32 C505.16 77.49, 506.83 119.88, 506 254 M506 32 C505.84 96.32, 506.57 159.51, 506 254 M506 254 C504.2 277.29, 493.65 284.8, 474 286 M506 254 C504.97 276.99, 494.87 285.42, 474 286 M474 286 C300.4 286.03, 126.35 286.97, 32 286 M474 286 C327.32 287.65, 180.69 287.02, 32 286 M32 286 C8.69 284.43, 1.05 274.68, 0 254 M32 286 C12.82 286.36, -2.06 275.75, 0 254 M0 254 C0.38 181.93, 0.93 107.72, 0 32 M0 254 C-0.63 168.66, -0.43 84.46, 0 32 M0 32 C1.64 12.6, 11.55 1.57, 32 0 M0 32 C1.07 9.51, 12.35 -0.67, 32 0" stroke="#1e1e1e" stroke-width="2" fill="none"></path></g><g transform="translate(1033.313468274696 232.99996948242188) rotate(0 162.39988708496094 12.5)"><text x="0" y="17.52" font-family="Virgil, Segoe UI Emoji" font-size="20px" fill="#1e1e1e" text-anchor="start" style="white-space: pre;" direction="ltr" dominant-baseline="alphabetic">Topic：SCHEDULE_TOPIC_XXXX</text></g><g stroke-linecap="round" transform="translate(1099.313468274696 285.9999694824219) rotate(0 194 19)"><path d="M9.5 0 C139.21 -0.34, 270.73 -0.02, 378.5 0 M9.5 0 C123.15 1.72, 237.15 1.59, 378.5 0 M378.5 0 C386.54 -0.43, 388.19 2.02, 388 9.5 M378.5 0 C385.16 -0.64, 386.41 1.66, 388 9.5 M388 9.5 C387.77 17.2, 389.47 22, 388 28.5 M388 9.5 C387.83 15.13, 387.83 20.57, 388 28.5 M388 28.5 C386.48 36.13, 383.16 36.79, 378.5 38 M388 28.5 C387.66 35.4, 383.89 39.93, 378.5 38 M378.5 38 C262.97 39.61, 145.97 39.18, 9.5 38 M378.5 38 C274.84 40.19, 170.97 40.22, 9.5 38 M9.5 38 C4.11 38.94, 0.69 35.05, 0 28.5 M9.5 38 C4.18 38.26, -1.44 36.52, 0 28.5 M0 28.5 C0.34 20.55, 1.63 13.92, 0 9.5 M0 28.5 C-0.75 25.02, 0.49 21.47, 0 9.5 M0 9.5 C0.57 3.74, 3.94 -1.95, 9.5 0 M0 9.5 C-0.53 1.13, 2.63 -2.3, 9.5 0" stroke="#1e1e1e" stroke-width="2" fill="none"></path></g><g transform="translate(1027.313468274696 293.9999694824219) rotate(0 30.469970703125 12.5)"><text x="0" y="17.52" font-family="Virgil, Segoe UI Emoji" font-size="20px" fill="#1e1e1e" text-anchor="start" style="white-space: pre;" direction="ltr" dominant-baseline="alphabetic">queue1</text></g><g stroke-linecap="round" transform="translate(1101.313468274696 334.9999694824219) rotate(0 194 19)"><path d="M9.5 0 C137.65 -2.29, 264.29 -2.37, 378.5 0 M9.5 0 C99.46 -1.33, 187.86 -0.79, 378.5 0 M378.5 0 C386.14 -0.77, 389.96 2.46, 388 9.5 M378.5 0 C383.2 -1.24, 386.08 4.8, 388 9.5 M388 9.5 C386.71 16.39, 386.26 22.93, 388 28.5 M388 9.5 C387.44 15.01, 388.63 22.61, 388 28.5 M388 28.5 C387.28 35.05, 386.29 38.54, 378.5 38 M388 28.5 C388.43 34.8, 384.95 36.58, 378.5 38 M378.5 38 C289.54 37.24, 201.73 38.36, 9.5 38 M378.5 38 C262.62 39.37, 147.34 39.36, 9.5 38 M9.5 38 C3.29 38.68, -1.35 35.87, 0 28.5 M9.5 38 C3.92 36.51, -0.11 32.68, 0 28.5 M0 28.5 C-0.17 23.83, -1.17 20.39, 0 9.5 M0 28.5 C-0.41 22.65, -0.44 18.56, 0 9.5 M0 9.5 C-0.59 3.26, 3.27 0.14, 9.5 0 M0 9.5 C1.44 0.98, 2.07 2.12, 9.5 0" stroke="#1e1e1e" stroke-width="2" fill="none"></path></g><g transform="translate(1029.313468274696 342.9999694824219) rotate(0 34.879966735839844 12.5)"><text x="0" y="17.52" font-family="Virgil, Segoe UI Emoji" font-size="20px" fill="#1e1e1e" text-anchor="start" style="white-space: pre;" direction="ltr" dominant-baseline="alphabetic">queue2</text></g><g stroke-linecap="round" transform="translate(1101.313468274696 386.9999694824219) rotate(0 194 19)"><path d="M9.5 0 C124.88 -0.05, 237.83 -1.28, 378.5 0 M9.5 0 C140.09 -0.12, 269.98 -0.06, 378.5 0 M378.5 0 C384.02 -0.89, 388.62 2.3, 388 9.5 M378.5 0 C385.2 1.01, 387.43 3.54, 388 9.5 M388 9.5 C389.53 13.98, 389.27 19.95, 388 28.5 M388 9.5 C387.33 14.77, 388.31 19.95, 388 28.5 M388 28.5 C386.88 36.7, 383.55 39.12, 378.5 38 M388 28.5 C387.63 36.54, 387.06 38.14, 378.5 38 M378.5 38 C282.39 39.33, 184.14 39.19, 9.5 38 M378.5 38 C260.08 40.15, 143.14 40.26, 9.5 38 M9.5 38 C5.02 37.54, -1.68 34.24, 0 28.5 M9.5 38 C2.48 38.56, -0.59 36.99, 0 28.5 M0 28.5 C-1.87 21.69, -0.78 17.02, 0 9.5 M0 28.5 C-0.81 24.02, -0.1 19.54, 0 9.5 M0 9.5 C0.38 2.07, 4.73 1.98, 9.5 0 M0 9.5 C-0.84 2.43, 4.7 0.95, 9.5 0" stroke="#1e1e1e" stroke-width="2" fill="none"></path></g><g transform="translate(1029.313468274696 394.9999694824219) rotate(0 34.569969177246094 12.5)"><text x="0" y="17.52" font-family="Virgil, Segoe UI Emoji" font-size="20px" fill="#1e1e1e" text-anchor="start" style="white-space: pre;" direction="ltr" dominant-baseline="alphabetic">queue3</text></g><g stroke-linecap="round" transform="translate(1097.313468274696 436.9999694824219) rotate(0 194 19)"><path d="M9.5 0 C145.18 1.34, 283.41 1.19, 378.5 0 M9.5 0 C125.1 1.3, 240.69 1.27, 378.5 0 M378.5 0 C384.98 0.39, 386.5 3.02, 388 9.5 M378.5 0 C384.45 0.23, 389.76 4.16, 388 9.5 M388 9.5 C386.09 12.67, 386.43 18, 388 28.5 M388 9.5 C388.34 17.04, 387.13 22.89, 388 28.5 M388 28.5 C387.8 33.77, 383.78 37.27, 378.5 38 M388 28.5 C389.82 34.55, 386.31 35.72, 378.5 38 M378.5 38 C232.95 39.17, 87.81 38.35, 9.5 38 M378.5 38 C259.46 38.06, 139.58 38.7, 9.5 38 M9.5 38 C2.47 36.12, 0.37 35.51, 0 28.5 M9.5 38 C5.28 36.9, 1.96 35.17, 0 28.5 M0 28.5 C-1.57 24.49, -0.18 21.62, 0 9.5 M0 28.5 C0.92 22.38, -0.78 16.93, 0 9.5 M0 9.5 C-0.68 2.09, 2.35 0.19, 9.5 0 M0 9.5 C0.96 4.38, 2.53 1.51, 9.5 0" stroke="#1e1e1e" stroke-width="2" fill="none"></path></g><g transform="translate(1025.313468274696 444.9999694824219) rotate(0 34.15996551513672 12.5)"><text x="0" y="17.52" font-family="Virgil, Segoe UI Emoji" font-size="20px" fill="#1e1e1e" text-anchor="start" style="white-space: pre;" direction="ltr" dominant-baseline="alphabetic">queue4</text></g><g transform="translate(1125.313468274696 505.9999694824219) rotate(0 16.439987182617188 12.5)"><text x="0" y="17.52" font-family="Virgil, Segoe UI Emoji" font-size="20px" fill="#1e1e1e" text-anchor="start" style="white-space: pre;" direction="ltr" dominant-baseline="alphabetic">......</text></g><g stroke-linecap="round" transform="translate(899.3134682746961 367.9999694824219) rotate(0 9 13)"><path d="M7.64 -0.3 C9.46 -0.87, 12.47 0.48, 14.12 1.92 C15.78 3.36, 16.95 5.74, 17.56 8.34 C18.17 10.95, 18.54 14.82, 17.81 17.55 C17.08 20.29, 15.04 23.45, 13.19 24.74 C11.35 26.03, 8.67 25.92, 6.75 25.31 C4.83 24.69, 2.75 23.08, 1.68 21.05 C0.61 19.01, 0.22 15.84, 0.32 13.12 C0.43 10.39, 1.07 6.92, 2.32 4.71 C3.57 2.5, 6.82 0.64, 7.8 -0.15 C8.78 -0.94, 8.1 -0.32, 8.21 -0.03 M11.42 0.65 C13.15 1.04, 15.16 2.2, 16.26 4.4 C17.37 6.61, 18.09 10.86, 18.06 13.88 C18.03 16.89, 17.3 20.6, 16.08 22.51 C14.86 24.42, 12.73 25.05, 10.73 25.33 C8.72 25.6, 5.66 25.54, 4.06 24.17 C2.45 22.79, 1.68 19.88, 1.11 17.08 C0.54 14.27, 0.1 10.04, 0.64 7.35 C1.17 4.66, 2.69 2.08, 4.3 0.93 C5.9 -0.22, 9.07 0.41, 10.26 0.47 C11.45 0.53, 11.36 1.24, 11.43 1.31" stroke="#1e1e1e" stroke-width="2" fill="none"></path></g><g stroke-linecap="round"><g transform="translate(837.3134682746961 379.9999694824219) rotate(0 29 0)"><path d="M0.3 -0.09 C9.73 -0.42, 47.46 -0.72, 56.94 -0.89 M-1.01 -1.18 C8.75 -0.87, 48.99 0.04, 59.1 0.17" stroke="#1e1e1e" stroke-width="2" fill="none"></path></g><g transform="translate(837.3134682746961 379.9999694824219) rotate(0 29 0)"><path d="M35.45 8.28 C42.99 3.8, 49.41 1.48, 59.1 0.17 M35.45 8.28 C41.31 6.34, 44.24 5.22, 59.1 0.17" stroke="#1e1e1e" stroke-width="2" fill="none"></path></g><g transform="translate(837.3134682746961 379.9999694824219) rotate(0 29 0)"><path d="M35.77 -8.82 C43.37 -7.69, 49.68 -4.39, 59.1 0.17 M35.77 -8.82 C41.6 -7.21, 44.46 -4.79, 59.1 0.17" stroke="#1e1e1e" stroke-width="2" fill="none"></path></g></g><mask></mask><g stroke-linecap="round"><g transform="translate(917.3134682746961 381.9999694824219) rotate(0 55 13)"><path d="M-0.87 -0.52 C17.46 4.02, 91.65 21.65, 110.25 26.11 M0.87 1.82 C19.04 6.68, 91.18 23.4, 109.43 27.7" stroke="#1e1e1e" stroke-width="2" fill="none"></path></g><g transform="translate(917.3134682746961 381.9999694824219) rotate(0 55 13)"><path d="M84.61 30.67 C91.77 30.31, 100.82 30.2, 109.43 27.7 M84.61 30.67 C93.35 30.85, 100.81 29.14, 109.43 27.7" stroke="#1e1e1e" stroke-width="2" fill="none"></path></g><g transform="translate(917.3134682746961 381.9999694824219) rotate(0 55 13)"><path d="M88.51 14.02 C94.26 19, 102.05 24.25, 109.43 27.7 M88.51 14.02 C95.87 19.47, 102.09 23.07, 109.43 27.7" stroke="#1e1e1e" stroke-width="2" fill="none"></path></g></g><mask></mask><g transform="translate(845.3134682746961 305.9999694824219) rotate(0 69.1399917602539 25)"><text x="0" y="17.52" font-family="Virgil, Segoe UI Emoji" font-size="20px" fill="#1e1e1e" text-anchor="start" style="white-space: pre;" direction="ltr" dominant-baseline="alphabetic">4.根据延迟等级</text><text x="0" y="42.519999999999996" font-family="Virgil, Segoe UI Emoji" font-size="20px" fill="#1e1e1e" text-anchor="start" style="white-space: pre;" direction="ltr" dominant-baseline="alphabetic">存入对应queue</text></g><g stroke-linecap="round" transform="translate(1373.313468274696 287.9999694824219) rotate(0 52 18)"><path d="M9 0 C37.44 0.81, 68.99 0.21, 95 0 M9 0 C29.13 -1.71, 47.51 -1.6, 95 0 M95 0 C99.57 -1.63, 102.53 4.28, 104 9 M95 0 C99.22 0.92, 105.78 2.53, 104 9 M104 9 C103.33 12.55, 103.43 19.78, 104 27 M104 9 C103.21 13.69, 104.15 18.16, 104 27 M104 27 C105.38 34.95, 99.94 37.93, 95 36 M104 27 C102.07 35.06, 103.22 37.28, 95 36 M95 36 C77.03 36.9, 54.97 34.98, 9 36 M95 36 C61.55 36.55, 29.76 35.29, 9 36 M9 36 C3.52 36.91, 0.58 33.29, 0 27 M9 36 C2.65 36.91, -1.46 32.64, 0 27 M0 27 C1.79 23.48, 0.19 19.09, 0 9 M0 27 C-0.07 21.7, -0.43 16.91, 0 9 M0 9 C0.83 4.33, 3.39 1.43, 9 0 M0 9 C-0.69 0.84, 3.5 -1.03, 9 0" stroke="#1e1e1e" stroke-width="2" fill="none"></path></g><g transform="translate(1385.503508863075 293.4999694824219) rotate(0 39.809959411621094 12.5)"><text x="39.809959411621094" y="17.52" font-family="Virgil, Segoe UI Emoji" font-size="20px" fill="#1e1e1e" text-anchor="middle" style="white-space: pre;" direction="ltr" dominant-baseline="alphabetic">message</text></g><g stroke-linecap="round" transform="translate(1257.313468274696 287.9999694824219) rotate(0 52 18)"><path d="M9 0 C31.47 2.72, 53.8 2.05, 95 0 M9 0 C41.44 -1.41, 75.1 -1.43, 95 0 M95 0 C99.97 -1.7, 103.94 1.36, 104 9 M95 0 C102.89 0.48, 104.47 3.54, 104 9 M104 9 C105.37 14.44, 105.49 18.87, 104 27 M104 9 C104.32 14.6, 103.03 20.57, 104 27 M104 27 C103.4 34.19, 99.38 35.24, 95 36 M104 27 C103.54 31.55, 102.2 35.86, 95 36 M95 36 C64.55 36.09, 33.14 37.58, 9 36 M95 36 C63.14 36.99, 29.31 36.84, 9 36 M9 36 C2.83 37.34, 0.89 31.8, 0 27 M9 36 C2.9 35.48, 1.52 32.11, 0 27 M0 27 C-1.32 20.45, 1.74 14.38, 0 9 M0 27 C-0.49 23.57, 0.46 19.21, 0 9 M0 9 C-0.76 1.42, 3.21 1.83, 9 0 M0 9 C1.52 3.6, 0.93 0.95, 9 0" stroke="#1e1e1e" stroke-width="2" fill="none"></path></g><g transform="translate(1269.503508863075 293.4999694824219) rotate(0 39.809959411621094 12.5)"><text x="39.809959411621094" y="17.52" font-family="Virgil, Segoe UI Emoji" font-size="20px" fill="#1e1e1e" text-anchor="middle" style="white-space: pre;" direction="ltr" dominant-baseline="alphabetic">message</text></g><g stroke-linecap="round" transform="translate(1141.313468274696 285.9999694824219) rotate(0 52 18)"><path d="M9 0 C37.85 -0.05, 71.37 -0.67, 95 0 M9 0 C27.38 -0.53, 47.17 -0.62, 95 0 M95 0 C102.19 -1.28, 105.39 1.48, 104 9 M95 0 C101.7 -1.07, 104.01 3.23, 104 9 M104 9 C102.72 14.76, 103.31 17.85, 104 27 M104 9 C103.92 14.19, 103.77 20.96, 104 27 M104 27 C102.83 31.87, 99.91 34.52, 95 36 M104 27 C103.05 32.95, 103.27 38.1, 95 36 M95 36 C78.14 37.43, 62.06 35.34, 9 36 M95 36 C62.61 36.05, 30.51 36.32, 9 36 M9 36 C4.98 36.26, 1.25 31.7, 0 27 M9 36 C2.17 35.82, -1.32 30.74, 0 27 M0 27 C0.74 22.26, 0.62 14.45, 0 9 M0 27 C0.55 21.11, -0.64 13.14, 0 9 M0 9 C0.28 4.16, 3.2 -1.74, 9 0 M0 9 C-1.63 2.12, 5.2 -1.34, 9 0" stroke="#1e1e1e" stroke-width="2" fill="none"></path></g><g transform="translate(1153.503508863075 291.4999694824219) rotate(0 39.809959411621094 12.5)"><text x="39.809959411621094" y="17.52" font-family="Virgil, Segoe UI Emoji" font-size="20px" fill="#1e1e1e" text-anchor="middle" style="white-space: pre;" direction="ltr" dominant-baseline="alphabetic">message</text></g><g stroke-linecap="round" transform="translate(1375.313468274696 333.9999694824219) rotate(0 52 18)"><path d="M9 0 C29.64 0.93, 51.66 -0.44, 95 0 M9 0 C26.9 -0.29, 46.9 0.09, 95 0 M95 0 C99.95 0.6, 102.41 1.4, 104 9 M95 0 C102.06 1.27, 103.22 4.51, 104 9 M104 9 C105 15.93, 102.35 20.9, 104 27 M104 9 C105.02 13.42, 104 16.99, 104 27 M104 27 C103.29 31.61, 101.89 37.53, 95 36 M104 27 C102.69 34.53, 102.12 37.82, 95 36 M95 36 C72.21 34.73, 51.64 37.09, 9 36 M95 36 C68.7 36.17, 44.12 35.05, 9 36 M9 36 C1.12 35.64, 0.86 31.26, 0 27 M9 36 C4.47 34.17, -1.34 35.11, 0 27 M0 27 C-0.64 21.86, -1.19 16.73, 0 9 M0 27 C-0.01 22.72, 0.29 19.32, 0 9 M0 9 C-0.93 3.08, 1.96 -1.11, 9 0 M0 9 C-2.22 3.29, 3.32 -0.73, 9 0" stroke="#1e1e1e" stroke-width="2" fill="none"></path></g><g transform="translate(1387.503508863075 339.4999694824219) rotate(0 39.809959411621094 12.5)"><text x="39.809959411621094" y="17.52" font-family="Virgil, Segoe UI Emoji" font-size="20px" fill="#1e1e1e" text-anchor="middle" style="white-space: pre;" direction="ltr" dominant-baseline="alphabetic">message</text></g><g stroke-linecap="round" transform="translate(1255.313468274696 331.9999694824219) rotate(0 52 18)"><path d="M9 0 C31.61 0.9, 58.37 0.23, 95 0 M9 0 C35.05 -1.48, 59.49 -1.47, 95 0 M95 0 C101.76 1.11, 104.52 2.37, 104 9 M95 0 C103.09 -1.19, 103.65 3.98, 104 9 M104 9 C104.23 15.51, 104.79 20.51, 104 27 M104 9 C104.58 14.41, 104.88 18.62, 104 27 M104 27 C104.28 33.11, 102.93 37.42, 95 36 M104 27 C105.44 33.49, 100.69 35.75, 95 36 M95 36 C72.09 38.4, 51.76 36.76, 9 36 M95 36 C64.38 36.71, 33.1 35.82, 9 36 M9 36 C3.6 36.62, 0.78 33.67, 0 27 M9 36 C5.2 37.18, -0.96 31.56, 0 27 M0 27 C1.66 18.81, 1.06 12.9, 0 9 M0 27 C-0.11 22.2, -0.66 17.92, 0 9 M0 9 C-1.87 4.5, 1.86 1.73, 9 0 M0 9 C-1.48 2.25, 5.08 -1.64, 9 0" stroke="#1e1e1e" stroke-width="2" fill="none"></path></g><g transform="translate(1267.503508863075 337.4999694824219) rotate(0 39.809959411621094 12.5)"><text x="39.809959411621094" y="17.52" font-family="Virgil, Segoe UI Emoji" font-size="20px" fill="#1e1e1e" text-anchor="middle" style="white-space: pre;" direction="ltr" dominant-baseline="alphabetic">message</text></g><g stroke-linecap="round" transform="translate(1137.313468274696 337.9999694824219) rotate(0 52 18)"><path d="M9 0 C29.7 -1.1, 48.41 0.65, 95 0 M9 0 C36.7 -1.69, 62.33 -0.95, 95 0 M95 0 C102.29 -1.83, 105.85 4.51, 104 9 M95 0 C99.92 1.8, 102.96 3.26, 104 9 M104 9 C105.31 13.82, 104.33 19.19, 104 27 M104 9 C103.68 14.81, 104.07 22.2, 104 27 M104 27 C104.13 34.78, 99.49 34.54, 95 36 M104 27 C102.78 33.88, 99.68 37.19, 95 36 M95 36 C67.04 37.86, 40.12 38.31, 9 36 M95 36 C62.39 35.7, 28.65 35.02, 9 36 M9 36 C4.5 36.2, -0.29 32.55, 0 27 M9 36 C3.22 34.87, 0.27 34.28, 0 27 M0 27 C1.45 22.15, -1 14.15, 0 9 M0 27 C0.4 23.22, -0.03 17.68, 0 9 M0 9 C1.72 2, 4.08 1.76, 9 0 M0 9 C2.14 4.06, 0.74 0.24, 9 0" stroke="#1e1e1e" stroke-width="2" fill="none"></path></g><g transform="translate(1149.503508863075 343.4999694824219) rotate(0 39.809959411621094 12.5)"><text x="39.809959411621094" y="17.52" font-family="Virgil, Segoe UI Emoji" font-size="20px" fill="#1e1e1e" text-anchor="middle" style="white-space: pre;" direction="ltr" dominant-baseline="alphabetic">message</text></g><g stroke-linecap="round" transform="translate(1377.313468274696 387.9999694824219) rotate(0 52 18)"><path d="M9 0 C33.61 0.54, 60.78 -1.69, 95 0 M9 0 C33.87 -1.2, 59.19 0.12, 95 0 M95 0 C102.34 0.56, 102.82 2.95, 104 9 M95 0 C101.44 -1.49, 103.17 5.21, 104 9 M104 9 C104.78 16.22, 105.64 21.16, 104 27 M104 9 C103.73 13.38, 104.56 19.15, 104 27 M104 27 C104.82 34.28, 100.99 36.62, 95 36 M104 27 C104.51 33.84, 100.55 34.46, 95 36 M95 36 C66.09 35.35, 40.88 37.31, 9 36 M95 36 C61.38 35.8, 28.72 34.67, 9 36 M9 36 C1.46 34.55, -0.02 33.88, 0 27 M9 36 C1.13 36.43, -1.69 31.59, 0 27 M0 27 C0.42 21.44, 0.51 16.16, 0 9 M0 27 C0.35 22.55, -0.51 19.08, 0 9 M0 9 C1.68 4.35, 2.34 -0.3, 9 0 M0 9 C-0.44 1.68, 0.82 2.26, 9 0" stroke="#1e1e1e" stroke-width="2" fill="none"></path></g><g transform="translate(1389.503508863075 393.4999694824219) rotate(0 39.809959411621094 12.5)"><text x="39.809959411621094" y="17.52" font-family="Virgil, Segoe UI Emoji" font-size="20px" fill="#1e1e1e" text-anchor="middle" style="white-space: pre;" direction="ltr" dominant-baseline="alphabetic">message</text></g><g stroke-linecap="round" transform="translate(1259.313468274696 387.9999694824219) rotate(0 52 18)"><path d="M9 0 C31.72 -0.37, 56.69 0.07, 95 0 M9 0 C29.7 0.96, 50.05 1.15, 95 0 M95 0 C101.82 -1.07, 105.61 3.7, 104 9 M95 0 C99.25 -1.29, 103.62 4.89, 104 9 M104 9 C103.98 16.76, 102.37 21.77, 104 27 M104 9 C104.46 15.61, 104.44 21.4, 104 27 M104 27 C102.96 34.61, 101.14 37.08, 95 36 M104 27 C102.31 30.86, 100.23 38.19, 95 36 M95 36 C62.79 36.11, 30.08 36.6, 9 36 M95 36 C77.38 37.5, 57.59 35.94, 9 36 M9 36 C3.09 37.09, 0.61 32.92, 0 27 M9 36 C4.68 36.19, 1.74 31.99, 0 27 M0 27 C-1.36 20.37, 1.03 15.69, 0 9 M0 27 C0.59 20.95, -0.31 12.61, 0 9 M0 9 C1.16 4.46, 1.96 1.18, 9 0 M0 9 C-1.79 3.61, 4.04 0.32, 9 0" stroke="#1e1e1e" stroke-width="2" fill="none"></path></g><g transform="translate(1271.503508863075 393.4999694824219) rotate(0 39.809959411621094 12.5)"><text x="39.809959411621094" y="17.52" font-family="Virgil, Segoe UI Emoji" font-size="20px" fill="#1e1e1e" text-anchor="middle" style="white-space: pre;" direction="ltr" dominant-baseline="alphabetic">message</text></g><g stroke-linecap="round" transform="translate(1133.313468274696 387.9999694824219) rotate(0 52 18)"><path d="M9 0 C30.22 -1.92, 54.02 -2.55, 95 0 M9 0 C26.63 0.66, 45.25 -0.34, 95 0 M95 0 C102.92 0.89, 104.64 3.86, 104 9 M95 0 C100.06 1.64, 105.03 1.23, 104 9 M104 9 C103.02 15.11, 103.76 20.99, 104 27 M104 9 C103.75 16.45, 104.6 21.53, 104 27 M104 27 C104.12 33.8, 100.27 36.8, 95 36 M104 27 C104.54 32.32, 98.73 37.92, 95 36 M95 36 C67.99 35.51, 44.09 36.07, 9 36 M95 36 C71.17 37.31, 46.27 36.38, 9 36 M9 36 C4.44 36.73, 0.36 32, 0 27 M9 36 C3.23 34.41, 1.71 31.34, 0 27 M0 27 C-0.54 22.06, -1.49 14.42, 0 9 M0 27 C0.8 22.86, 0.45 17.85, 0 9 M0 9 C-1.46 4.06, 1.43 1.1, 9 0 M0 9 C-1.68 0.91, 3.95 2.28, 9 0" stroke="#1e1e1e" stroke-width="2" fill="none"></path></g><g transform="translate(1145.503508863075 393.4999694824219) rotate(0 39.809959411621094 12.5)"><text x="39.809959411621094" y="17.52" font-family="Virgil, Segoe UI Emoji" font-size="20px" fill="#1e1e1e" text-anchor="middle" style="white-space: pre;" direction="ltr" dominant-baseline="alphabetic">message</text></g><g stroke-linecap="round" transform="translate(1371.313468274696 437.9999694824219) rotate(0 52 18)"><path d="M9 0 C29.82 1.01, 50.24 -1.76, 95 0 M9 0 C38.53 0.61, 68.36 -0.35, 95 0 M95 0 C99.2 -0.26, 103.54 4.74, 104 9 M95 0 C99.53 2.06, 102.26 3, 104 9 M104 9 C103.54 13.77, 104.71 17.42, 104 27 M104 9 C103.93 12.79, 104.9 18.28, 104 27 M104 27 C102.9 33.69, 102.83 35.5, 95 36 M104 27 C103.51 32.81, 102.77 37.14, 95 36 M95 36 C67.2 36.31, 40.5 36.33, 9 36 M95 36 C70.05 36.38, 47 36.7, 9 36 M9 36 C1.75 34.55, 0.5 33.91, 0 27 M9 36 C2.14 35.64, -0.17 33.7, 0 27 M0 27 C1.2 21.63, -1.64 16.01, 0 9 M0 27 C0.63 20.35, -0.78 14.01, 0 9 M0 9 C-1.54 1.76, 2 -0.43, 9 0 M0 9 C0.24 1.64, 1.98 -0.08, 9 0" stroke="#1e1e1e" stroke-width="2" fill="none"></path></g><g transform="translate(1383.503508863075 443.4999694824219) rotate(0 39.809959411621094 12.5)"><text x="39.809959411621094" y="17.52" font-family="Virgil, Segoe UI Emoji" font-size="20px" fill="#1e1e1e" text-anchor="middle" style="white-space: pre;" direction="ltr" dominant-baseline="alphabetic">message</text></g><g stroke-linecap="round" transform="translate(1257.313468274696 437.9999694824219) rotate(0 52 18)"><path d="M9 0 C34.3 0.28, 56.3 -0.16, 95 0 M9 0 C29.71 0.84, 49.45 0.57, 95 0 M95 0 C102.37 -0.39, 103.62 1.39, 104 9 M95 0 C100.27 -0.32, 105.73 4.52, 104 9 M104 9 C105.16 13.43, 104.64 17.97, 104 27 M104 9 C104.34 13.54, 104.54 20.03, 104 27 M104 27 C102.99 32.06, 101.26 36.99, 95 36 M104 27 C104.89 34.27, 101.13 34.32, 95 36 M95 36 C73.3 34.54, 54.63 36.49, 9 36 M95 36 C75.76 36.97, 56.6 36.42, 9 36 M9 36 C2.95 35.07, 0.41 34.93, 0 27 M9 36 C2.72 33.79, -0.56 33.96, 0 27 M0 27 C-0.8 20.75, 1.23 14.78, 0 9 M0 27 C-0.22 20.16, -0.14 13.41, 0 9 M0 9 C-1.17 1.19, 1.29 -0.74, 9 0 M0 9 C2.21 3.51, 3.53 -2.3, 9 0" stroke="#1e1e1e" stroke-width="2" fill="none"></path></g><g transform="translate(1269.503508863075 443.4999694824219) rotate(0 39.809959411621094 12.5)"><text x="39.809959411621094" y="17.52" font-family="Virgil, Segoe UI Emoji" font-size="20px" fill="#1e1e1e" text-anchor="middle" style="white-space: pre;" direction="ltr" dominant-baseline="alphabetic">message</text></g><g stroke-linecap="round" transform="translate(1127.313468274696 437.9999694824219) rotate(0 52 18)"><path d="M9 0 C38.64 1.88, 64.6 1.56, 95 0 M9 0 C28.31 -0.58, 46.37 -0.17, 95 0 M95 0 C100.44 0.96, 103.33 2.05, 104 9 M95 0 C101.13 -1.51, 104.6 1.66, 104 9 M104 9 C103.46 13.62, 104.5 20.59, 104 27 M104 9 C104.29 13.15, 104.67 17.19, 104 27 M104 27 C105.05 32.93, 101.88 34.5, 95 36 M104 27 C104.26 33.06, 100.14 36.01, 95 36 M95 36 C62.61 38.12, 28.52 37.44, 9 36 M95 36 C71.24 36.79, 48.06 35.4, 9 36 M9 36 C3.81 34.3, -0.65 31.43, 0 27 M9 36 C2.45 36.14, -0.41 31.27, 0 27 M0 27 C-1.66 20.35, 1.69 15.39, 0 9 M0 27 C-0.85 19.38, 0.05 13.43, 0 9 M0 9 C0.29 2.31, 2.81 1.45, 9 0 M0 9 C-1.38 3.73, 1.28 -1.22, 9 0" stroke="#1e1e1e" stroke-width="2" fill="none"></path></g><g transform="translate(1139.503508863075 443.4999694824219) rotate(0 39.809959411621094 12.5)"><text x="39.809959411621094" y="17.52" font-family="Virgil, Segoe UI Emoji" font-size="20px" fill="#1e1e1e" text-anchor="middle" style="white-space: pre;" direction="ltr" dominant-baseline="alphabetic">message</text></g><g stroke-linecap="round" transform="translate(1565.313468274696 313.9999694824219) rotate(0 137 78)"><path d="M121.2 0.55 C136.67 -1.46, 155.67 0.99, 171.54 3.32 C187.42 5.65, 203.19 9.11, 216.47 14.52 C229.76 19.93, 242.08 27.96, 251.25 35.81 C260.42 43.66, 267.84 52.56, 271.5 61.61 C275.15 70.66, 276.04 80.65, 273.19 90.11 C270.34 99.57, 262.82 110.15, 254.4 118.38 C245.99 126.62, 235.4 133.95, 222.69 139.51 C209.98 145.07, 193.9 149.08, 178.16 151.73 C162.41 154.38, 144.89 156.04, 128.23 155.41 C111.57 154.79, 93.29 151.79, 78.22 147.98 C63.14 144.17, 48.91 139.14, 37.77 132.55 C26.63 125.97, 17.51 117.3, 11.38 108.47 C5.25 99.64, 1.41 88.91, 1 79.58 C0.58 70.24, 3.58 61.3, 8.9 52.45 C14.22 43.6, 22.07 33.89, 32.9 26.48 C43.72 19.07, 57.61 12.41, 73.83 7.99 C90.05 3.58, 119.23 1.06, 130.22 0.01 C141.21 -1.04, 139.73 0.27, 139.77 1.69 M148.66 -1.24 C164.47 -1.88, 182.17 2.55, 196.81 7.03 C211.45 11.51, 225.39 18.91, 236.52 25.64 C247.65 32.37, 257.3 38.69, 263.56 47.39 C269.82 56.09, 273.67 68.27, 274.08 77.82 C274.5 87.38, 271.67 95.91, 266.05 104.72 C260.43 113.53, 251.6 123.35, 240.37 130.69 C229.14 138.02, 213.27 144.38, 198.66 148.73 C184.06 153.07, 169.05 155.88, 152.74 156.75 C136.44 157.63, 116.69 156.75, 100.83 153.97 C84.97 151.19, 70.86 145.69, 57.58 140.09 C44.3 134.48, 30.2 128.3, 21.15 120.34 C12.11 112.39, 6.38 101.45, 3.29 92.35 C0.2 83.25, -0.21 75.01, 2.62 65.75 C5.45 56.5, 12.08 44.95, 20.27 36.83 C28.47 28.71, 38.94 22.41, 51.79 17.02 C64.64 11.63, 81.27 7.2, 97.39 4.51 C113.5 1.81, 140.28 1.44, 148.49 0.87 C156.69 0.29, 147.18 -0.16, 146.64 1.05" stroke="#1e1e1e" stroke-width="2" fill="none"></path></g><g transform="translate(1611.7398651920805 341.8456405498712) rotate(0 90.6999740600586 50)"><text x="90.6999740600586" y="17.52" font-family="Virgil, Segoe UI Emoji" font-size="20px" fill="#1e1e1e" text-anchor="middle" style="white-space: pre;" direction="ltr" dominant-baseline="alphabetic">线程池中18个线程扫</text><text x="90.6999740600586" y="42.519999999999996" font-family="Virgil, Segoe UI Emoji" font-size="20px" fill="#1e1e1e" text-anchor="middle" style="white-space: pre;" direction="ltr" dominant-baseline="alphabetic">描对应queue，将到</text><text x="90.6999740600586" y="67.52" font-family="Virgil, Segoe UI Emoji" font-size="20px" fill="#1e1e1e" text-anchor="middle" style="white-space: pre;" direction="ltr" dominant-baseline="alphabetic">期消息放入对应Topi</text><text x="90.6999740600586" y="92.52" font-family="Virgil, Segoe UI Emoji" font-size="20px" fill="#1e1e1e" text-anchor="middle" style="white-space: pre;" direction="ltr" dominant-baseline="alphabetic">c-queue</text></g><g stroke-linecap="round"><g transform="translate(1609.313468274696 333.9999694824219) rotate(0 -61 -14)"><path d="M-0.14 0.92 C-20.71 -3.82, -102.8 -23.36, -122.94 -27.99 M-1.67 0.36 C-21.92 -4.21, -100.79 -21.62, -120.72 -26.45" stroke="#1e1e1e" stroke-width="2" fill="none"></path></g></g><mask></mask><g stroke-linecap="round"><g transform="translate(1573.313468274696 367.9999694824219) rotate(0 -42 -6)"><path d="M-0.46 0.11 C-14.77 -1.55, -71.35 -8.72, -85.18 -10.83 M1.5 -0.88 C-12.52 -2.77, -68.85 -10.57, -83.09 -12.34" stroke="#1e1e1e" stroke-width="2" fill="none"></path></g></g><mask></mask><g stroke-linecap="round"><g transform="translate(1567.313468274696 397.9999694824219) rotate(0 -38 3)"><path d="M0.24 0.35 C-12.48 1.45, -64.44 5.29, -77.1 6.15 M-1.09 -0.51 C-13.39 0.85, -62.42 6.59, -74.97 7.77" stroke="#1e1e1e" stroke-width="2" fill="none"></path></g></g><mask></mask><g stroke-linecap="round"><g transform="translate(1575.313468274696 421.9999694824219) rotate(0 -45 16)"><path d="M-0.92 0.98 C-15.6 6.47, -74.15 27.54, -89.08 32.71 M0.79 0.45 C-13.87 5.61, -74.16 25.49, -89.54 30.96" stroke="#1e1e1e" stroke-width="2" fill="none"></path></g></g><mask></mask><g stroke-linecap="round"><g transform="translate(1597.313468274696 443.9999694824219) rotate(0 -59 35)"><path d="M-1.1 1.15 C-20.81 12.83, -97.62 59.44, -117.26 71.08 M0.52 0.71 C-19.37 12.59, -98.3 58.11, -117.81 69.52" stroke="#1e1e1e" stroke-width="2" fill="none"></path></g></g><mask></mask><g stroke-linecap="round" transform="translate(1663.313468274696 81.99996948242188) rotate(0 237 99)"><path d="M32 0 C176.65 -0.81, 321.04 -1.53, 442 0 M32 0 C130.43 -0.4, 230 -0.09, 442 0 M442 0 C465.01 1.75, 472.1 11.04, 474 32 M442 0 C462.61 -1.69, 475.9 10.79, 474 32 M474 32 C475.79 69.14, 472.06 107.47, 474 166 M474 32 C473.89 77.02, 473.1 120.89, 474 166 M474 166 C473.39 185.54, 465.01 197.2, 442 198 M474 166 C474.29 185.56, 461.57 196.36, 442 198 M442 198 C309.64 196.3, 177.08 196.02, 32 198 M442 198 C343.11 197.07, 245.31 196.57, 32 198 M32 198 C8.98 199.78, -1.48 187.64, 0 166 M32 198 C12.03 200, 1.83 185.75, 0 166 M0 166 C0.32 138.97, 2.82 109.96, 0 32 M0 166 C-0.59 126.71, 0.77 86.07, 0 32 M0 32 C0.78 10.72, 8.87 -1.08, 32 0 M0 32 C-0.89 9.51, 10.47 2.3, 32 0" stroke="#1e1e1e" stroke-width="2" fill="none"></path></g><g transform="translate(1687.313468274696 53.999969482421875) rotate(0 33.32997131347656 12.5)"><text x="0" y="17.52" font-family="Virgil, Segoe UI Emoji" font-size="20px" fill="#1e1e1e" text-anchor="start" style="white-space: pre;" direction="ltr" dominant-baseline="alphabetic">原topic</text></g><g transform="translate(1685.313468274696 99.99996948242188) rotate(0 37.759971618652344 12.5)"><text x="0" y="17.52" font-family="Virgil, Segoe UI Emoji" font-size="20px" fill="#1e1e1e" text-anchor="start" style="white-space: pre;" direction="ltr" dominant-baseline="alphabetic">原queue</text></g><g stroke-linecap="round" transform="translate(1771.313468274696 93.99996948242188) rotate(0 177 23)"><path d="M11.5 0 C131.76 -0.65, 250.8 -2.18, 342.5 0 M11.5 0 C113.9 -0.25, 215.16 -0.08, 342.5 0 M342.5 0 C349.63 1.8, 355.41 4.08, 354 11.5 M342.5 0 C351.05 -1.69, 353.6 1.82, 354 11.5 M354 11.5 C353.48 18.25, 352.71 27.77, 354 34.5 M354 11.5 C354.69 20.14, 353.22 28.87, 354 34.5 M354 34.5 C355.12 42.1, 348.51 46.46, 342.5 46 M354 34.5 C354.84 41.17, 349.95 43.71, 342.5 46 M342.5 46 C265.52 43.18, 187.61 44, 11.5 46 M342.5 46 C249.61 44.09, 157.92 44.84, 11.5 46 M11.5 46 C3.38 45.19, -0.81 42.65, 0 34.5 M11.5 46 C2.95 45.31, 1.59 44.09, 0 34.5 M0 34.5 C-0.44 27.19, -1.07 19.68, 0 11.5 M0 34.5 C-0.79 28.06, -0.02 20.73, 0 11.5 M0 11.5 C0.41 4.48, 4.97 0.81, 11.5 0 M0 11.5 C1.4 2.61, 5.31 -0.31, 11.5 0" stroke="#1e1e1e" stroke-width="2" fill="none"></path></g><g stroke-linecap="round" transform="translate(2005.313468274696 99.99996948242188) rotate(0 52 18)"><path d="M9 0 C38.09 -0.94, 64.71 -1.71, 95 0 M9 0 C35.88 -0.55, 64.37 -0.76, 95 0 M95 0 C99.98 0.46, 104.99 1.32, 104 9 M95 0 C99.79 0.3, 106.18 2.94, 104 9 M104 9 C104.25 13.51, 104.71 17.52, 104 27 M104 9 C103.68 15.5, 104.44 22.24, 104 27 M104 27 C105.37 33.07, 99.08 36.17, 95 36 M104 27 C104.93 34.56, 98.71 35.7, 95 36 M95 36 C68.67 36.84, 45.87 36.67, 9 36 M95 36 C66.61 37.26, 37.97 36.48, 9 36 M9 36 C2.41 36.43, 1.42 34.03, 0 27 M9 36 C4.13 34.71, -1.45 32.72, 0 27 M0 27 C0.31 23.31, 1.59 16.94, 0 9 M0 27 C0 20.77, 0.03 15.32, 0 9 M0 9 C-1.39 2.82, 1 0.57, 9 0 M0 9 C0.24 4.85, 1.64 1.94, 9 0" stroke="#1e1e1e" stroke-width="2" fill="none"></path></g><g transform="translate(2017.503508863075 105.49996948242188) rotate(0 39.809959411621094 12.5)"><text x="39.809959411621094" y="17.52" font-family="Virgil, Segoe UI Emoji" font-size="20px" fill="#1e1e1e" text-anchor="middle" style="white-space: pre;" direction="ltr" dominant-baseline="alphabetic">message</text></g><g stroke-linecap="round" transform="translate(1891.313468274696 99.99996948242188) rotate(0 52 18)"><path d="M9 0 C42.22 -0.66, 72.12 -1.02, 95 0 M9 0 C40.4 -1.12, 69.96 0.64, 95 0 M95 0 C102.51 -0.62, 105.02 2.5, 104 9 M95 0 C101.67 0.84, 103.03 1.97, 104 9 M104 9 C102.31 13.78, 102.31 20.9, 104 27 M104 9 C104.05 14.43, 104.36 19.46, 104 27 M104 27 C105.62 33.04, 102.11 35.21, 95 36 M104 27 C101.8 32.5, 100.95 36.91, 95 36 M95 36 C66.97 35.89, 42.76 36.04, 9 36 M95 36 C78.16 35.9, 58.65 36.67, 9 36 M9 36 C2.63 35.12, 0.18 32.62, 0 27 M9 36 C3.91 37.81, 0.68 34.28, 0 27 M0 27 C-0.91 22.29, -0.75 17.45, 0 9 M0 27 C0.79 23.65, -0.55 18.92, 0 9 M0 9 C-1.21 4.7, 3.84 1.51, 9 0 M0 9 C-1.78 2.47, 4.93 1.26, 9 0" stroke="#1e1e1e" stroke-width="2" fill="none"></path></g><g transform="translate(1903.503508863075 105.49996948242188) rotate(0 39.809959411621094 12.5)"><text x="39.809959411621094" y="17.52" font-family="Virgil, Segoe UI Emoji" font-size="20px" fill="#1e1e1e" text-anchor="middle" style="white-space: pre;" direction="ltr" dominant-baseline="alphabetic">message</text></g><g stroke-linecap="round"><g transform="translate(1491.313468274696 393.9999694824219) rotate(0 139 -124)"><path d="M-0.86 -0.38 C45.62 -41.72, 231.56 -205.9, 278.05 -247.36 M0.88 -1.63 C47.3 -43.38, 231.04 -208.02, 277.12 -249.14" stroke="#1e1e1e" stroke-width="2" fill="none"></path></g><g transform="translate(1491.313468274696 393.9999694824219) rotate(0 139 -124)"><path d="M265.31 -227.11 C267.22 -231.93, 271.6 -236.86, 277.12 -249.14 M265.31 -227.11 C268.29 -231.03, 270.55 -237, 277.12 -249.14" stroke="#1e1e1e" stroke-width="2" fill="none"></path></g><g transform="translate(1491.313468274696 393.9999694824219) rotate(0 139 -124)"><path d="M253.91 -239.85 C258.47 -241.71, 265.42 -243.76, 277.12 -249.14 M253.91 -239.85 C259.17 -241.2, 263.8 -244.52, 277.12 -249.14" stroke="#1e1e1e" stroke-width="2" fill="none"></path></g></g><mask></mask><g transform="translate(1533.313468274696 243.99996948242188) rotate(353.8298249049704 50 12.5)"><text x="0" y="17.52" font-family="Virgil, Segoe UI Emoji" font-size="20px" fill="#1e1e1e" text-anchor="start" style="white-space: pre;" direction="ltr" dominant-baseline="alphabetic">还原原消息</text></g></svg>