<svg version="1.1" xmlns="http://www.w3.org/2000/svg" viewBox="0 0 849.9999389648438 256" width="849.9999389648438" height="256">
  <!-- svg-source:excalidraw -->
  
  <defs>
    <style class="style-fonts">
      @font-face {
        font-family: "Virgil";
        src: url("https://excalidraw.com/Virgil.woff2");
      }
      @font-face {
        font-family: "Cascadia";
        src: url("https://excalidraw.com/Cascadia.woff2");
      }
      @font-face {
        font-family: "Assistant";
        src: url("https://excalidraw.com/Assistant-Regular.woff2");
      }
    </style>
    
  </defs>
  <rect x="0" y="0" width="849.9999389648438" height="256" fill="#ffffff"></rect><g stroke-linecap="round" transform="translate(10 30) rotate(0 70 99.99999999999999)"><path d="M39.9 10.07 C47.7 3.19, 59.81 -0.48, 69.52 -0.74 C79.23 -1, 89.49 2.92, 98.17 8.5 C106.84 14.08, 115.33 22.86, 121.56 32.73 C127.79 42.61, 132.44 54.96, 135.53 67.74 C138.61 80.52, 140.79 95.78, 140.07 109.41 C139.35 123.03, 135.82 137.82, 131.21 149.49 C126.6 161.15, 119.99 171.31, 112.42 179.42 C104.85 187.53, 95.06 195.11, 85.79 198.16 C76.52 201.21, 66.27 200.36, 56.79 197.72 C47.3 195.08, 36.68 190.11, 28.87 182.34 C21.07 174.57, 14.6 162.81, 9.97 151.1 C5.33 139.38, 2.23 125.57, 1.07 112.05 C-0.09 98.53, 0.25 83.01, 3 69.95 C5.74 56.89, 9.2 44.75, 17.54 33.68 C25.87 22.62, 44.96 8.93, 53.02 3.57 C61.08 -1.79, 65.66 0.19, 65.9 1.54 M43.77 8.3 C51.48 1.71, 61.96 -1.42, 71.53 -0.93 C81.1 -0.45, 92.65 5.06, 101.18 11.21 C109.71 17.36, 116.55 25.83, 122.7 35.99 C128.84 46.14, 135.36 59.19, 138.06 72.13 C140.77 85.07, 140.45 100.16, 138.93 113.62 C137.41 127.09, 133.81 141.66, 128.96 152.91 C124.1 164.16, 117.67 173.72, 109.81 181.14 C101.96 188.56, 91.24 194.82, 81.82 197.44 C72.41 200.06, 62.17 199.95, 53.33 196.86 C44.49 193.78, 36.2 187.3, 28.8 178.93 C21.39 170.56, 13.75 158.47, 8.89 146.66 C4.03 134.86, 0.49 121.65, -0.37 108.11 C-1.22 94.58, 0.63 78.33, 3.78 65.47 C6.92 52.61, 12.04 40.76, 18.48 30.95 C24.91 21.14, 38.3 10.13, 42.37 6.59 C46.43 3.06, 42.09 8.13, 42.85 9.75" stroke="#1e1e1e" stroke-width="2" fill="none"></path></g><g transform="translate(39.07257078813308 117.28932188134524) rotate(0 40.929954528808594 12.5)"><text x="40.929954528808594" y="17.52" font-family="Virgil, Segoe UI Emoji" font-size="20px" fill="#1e1e1e" text-anchor="middle" style="white-space: pre;" direction="ltr" dominant-baseline="alphabetic">producer</text></g><g stroke-linecap="round" transform="translate(391.99993896484375 10) rotate(0 224 118)"><path d="M32 0 C134.41 -1.82, 236.41 -2.03, 416 0 M32 0 C164.48 1.55, 297.57 1.75, 416 0 M416 0 C439.19 -0.57, 448.53 9.22, 448 32 M416 0 C436.44 0.36, 447.64 8.86, 448 32 M448 32 C446.35 74.06, 448.09 119.87, 448 204 M448 32 C449.33 78.16, 449.2 123.2, 448 204 M448 204 C448.31 227.1, 436 236.08, 416 236 M448 204 C445.79 224.17, 439.33 234.73, 416 236 M416 236 C262.81 236.31, 110.49 236.99, 32 236 M416 236 C267.52 236.09, 119.39 236.47, 32 236 M32 236 C10.71 235.79, 1.68 226.85, 0 204 M32 236 C12.46 234.88, -0.51 225.52, 0 204 M0 204 C0.58 165.3, 0.78 128.2, 0 32 M0 204 C2.03 139.66, 0.89 76.92, 0 32 M0 32 C1.11 9.86, 8.69 -0.69, 32 0 M0 32 C-2.02 10.52, 12.54 1.03, 32 0" stroke="#1e1e1e" stroke-width="2" fill="none"></path></g><g transform="translate(584.2499694824219 115.5) rotate(0 31.749969482421875 12.5)"><text x="31.749969482421875" y="17.52" font-family="Virgil, Segoe UI Emoji" font-size="20px" fill="#1e1e1e" text-anchor="middle" style="white-space: pre;" direction="ltr" dominant-baseline="alphabetic">Broker</text></g><g stroke-linecap="round"><g transform="translate(163.39152061171978 59.40833415426363) rotate(0 108.30423969414011 -2.138465326834904)"><path d="M-0.7 -0.37 C35.39 -1.3, 179.97 -4.47, 216.12 -5 M1.13 -1.61 C37.07 -2.45, 179.24 -3.19, 214.92 -3.84" stroke="#1e1e1e" stroke-width="2" fill="none"></path></g><g transform="translate(163.39152061171978 59.40833415426363) rotate(0 108.30423969414011 -2.138465326834904)"><path d="M191.52 4.97 C196.95 2, 202.47 -0.18, 214.92 -3.84 M191.52 4.97 C200.16 0.69, 208.9 -1.94, 214.92 -3.84" stroke="#1e1e1e" stroke-width="2" fill="none"></path></g><g transform="translate(163.39152061171978 59.40833415426363) rotate(0 108.30423969414011 -2.138465326834904)"><path d="M191.33 -12.13 C196.89 -10.64, 202.45 -8.38, 214.92 -3.84 M191.33 -12.13 C199.93 -10.21, 208.73 -6.63, 214.92 -3.84" stroke="#1e1e1e" stroke-width="2" fill="none"></path></g></g><mask></mask><g stroke-linecap="round"><g transform="translate(370 126.585690246549) rotate(0 -101.12631776280722 2.188047880380367)"><path d="M0.51 0.72 C-33.15 1.22, -167.63 3.07, -201.57 3.75" stroke="#1e1e1e" stroke-width="2.5" fill="none" stroke-dasharray="8 10"></path></g><g transform="translate(370 126.585690246549) rotate(0 -101.12631776280722 2.188047880380367)"><path d="M-178.22 -5.18 C-184.62 -1.02, -194.52 -0.72, -201.57 3.75" stroke="#1e1e1e" stroke-width="2.5" fill="none"></path></g><g transform="translate(370 126.585690246549) rotate(0 -101.12631776280722 2.188047880380367)"><path d="M-177.94 11.92 C-184.54 10.47, -194.54 5.17, -201.57 3.75" stroke="#1e1e1e" stroke-width="2.5" fill="none"></path></g></g><mask></mask><g transform="translate(190 32) rotate(0 68.77993774414062 12.5)"><text x="0" y="17.52" font-family="Virgil, Segoe UI Emoji" font-size="20px" fill="#1e1e1e" text-anchor="start" style="white-space: pre;" direction="ltr" dominant-baseline="alphabetic">send message1</text></g><g transform="translate(196 104) rotate(0 64.07994842529297 12.5)"><text x="0" y="17.52" font-family="Virgil, Segoe UI Emoji" font-size="20px" fill="#1e1e1e" text-anchor="start" style="white-space: pre;" direction="ltr" dominant-baseline="alphabetic">ack message1</text></g><g stroke-linecap="round"><g transform="translate(162.08758359105866 94.43419446760049) rotate(0 102.00593922137483 -1.401279240905808)"><path d="M0.13 0.27 C34.24 -0.32, 170.12 -2.74, 204.26 -3.37 M-1.27 -0.63 C32.74 -1.08, 169.12 -1.81, 203.44 -2.14" stroke="#1e1e1e" stroke-width="2" fill="none"></path></g><g transform="translate(162.08758359105866 94.43419446760049) rotate(0 102.00593922137483 -1.401279240905808)"><path d="M180.01 6.59 C186.69 4.66, 191.53 3.48, 203.44 -2.14 M180.01 6.59 C185.79 4.32, 191.34 2.9, 203.44 -2.14" stroke="#1e1e1e" stroke-width="2" fill="none"></path></g><g transform="translate(162.08758359105866 94.43419446760049) rotate(0 102.00593922137483 -1.401279240905808)"><path d="M179.89 -10.52 C186.63 -7.89, 191.49 -4.51, 203.44 -2.14 M179.89 -10.52 C185.77 -8.67, 191.35 -5.98, 203.44 -2.14" stroke="#1e1e1e" stroke-width="2" fill="none"></path></g></g><mask></mask><g stroke-linecap="round"><g transform="translate(366.0995230689646 159.74270799361489) rotate(0 -97.97034224326387 1.3454471812823101)"><path d="M0.25 -0.57 C-32.27 -0.29, -162.39 1.51, -195 1.98" stroke="#1e1e1e" stroke-width="2.5" fill="none" stroke-dasharray="8 10"></path></g><g transform="translate(366.0995230689646 159.74270799361489) rotate(0 -97.97034224326387 1.3454471812823101)"><path d="M-171.63 -6.9 C-179.82 -2.53, -187.31 -0.47, -195 1.98" stroke="#1e1e1e" stroke-width="2.5" fill="none"></path></g><g transform="translate(366.0995230689646 159.74270799361489) rotate(0 -97.97034224326387 1.3454471812823101)"><path d="M-171.39 10.2 C-179.69 9.26, -187.26 6.01, -195 1.98" stroke="#1e1e1e" stroke-width="2.5" fill="none"></path></g></g><mask></mask><g transform="translate(188.09946203380832 66.70583304876925) rotate(0 73.18993377685547 12.5)"><text x="0" y="17.52" font-family="Virgil, Segoe UI Emoji" font-size="20px" fill="#1e1e1e" text-anchor="start" style="white-space: pre;" direction="ltr" dominant-baseline="alphabetic">send message2</text></g><g transform="translate(206.09952306896457 136.70583304876925) rotate(0 68.48994445800781 12.5)"><text x="0" y="17.52" font-family="Virgil, Segoe UI Emoji" font-size="20px" fill="#1e1e1e" text-anchor="start" style="white-space: pre;" direction="ltr" dominant-baseline="alphabetic">ack message2</text></g><g stroke-linecap="round"><g transform="translate(162.33770156092191 200.35702410311814) rotate(0 107.88094127159945 -1.7113291950387008)"><path d="M0.88 0.1 C37.03 -0.32, 180.46 -2, 216.4 -2.75 M-0.12 -0.89 C35.97 -1.65, 179.74 -4.07, 215.79 -4.52" stroke="#1e1e1e" stroke-width="2" fill="none"></path></g><g transform="translate(162.33770156092191 200.35702410311814) rotate(0 107.88094127159945 -1.7113291950387008)"><path d="M192.43 4.38 C198.66 2.97, 205.66 0.91, 215.79 -4.52 M192.43 4.38 C197.15 2.22, 203.64 0.85, 215.79 -4.52" stroke="#1e1e1e" stroke-width="2" fill="none"></path></g><g transform="translate(162.33770156092191 200.35702410311814) rotate(0 107.88094127159945 -1.7113291950387008)"><path d="M192.17 -12.72 C198.44 -9.7, 205.5 -7.34, 215.79 -4.52 M192.17 -12.72 C196.93 -11.11, 203.48 -8.72, 215.79 -4.52" stroke="#1e1e1e" stroke-width="2" fill="none"></path></g></g><mask></mask><g transform="translate(188.09958410412082 172.70583304876925) rotate(0 72.87993621826172 12.5)"><text x="0" y="17.52" font-family="Virgil, Segoe UI Emoji" font-size="20px" fill="#1e1e1e" text-anchor="start" style="white-space: pre;" direction="ltr" dominant-baseline="alphabetic">send message3</text></g></svg>