<svg version="1.1" xmlns="http://www.w3.org/2000/svg" viewBox="0 0 2519.8412698412694 1159.7143060593378" width="2519.8412698412694" height="1159.7143060593378">
  <!-- svg-source:excalidraw -->
  
  <defs>
    <style class="style-fonts">
      @font-face {
        font-family: "Virgil";
        src: url("https://excalidraw.com/Virgil.woff2");
      }
      @font-face {
        font-family: "Cascadia";
        src: url("https://excalidraw.com/Cascadia.woff2");
      }
      @font-face {
        font-family: "Assistant";
        src: url("https://excalidraw.com/Assistant-Regular.woff2");
      }
    </style>
    
  </defs>
  <rect x="0" y="0" width="2519.8412698412694" height="1159.7143060593378" fill="#ffffff"></rect><g stroke-linecap="round" transform="translate(1021.8412698412699 243.16668701171875) rotate(0 90 147.78571428571433)"><path d="M32 0 C59.11 0.52, 83.09 1.06, 148 0 M32 0 C78.74 -0.02, 124.73 0.07, 148 0 M148 0 C168.6 -1.96, 178.09 9.66, 180 32 M148 0 C168.97 0.17, 178.74 9.84, 180 32 M180 32 C179.41 104.62, 177.65 179.22, 180 263.57 M180 32 C179.85 123.32, 180.18 214.42, 180 263.57 M180 263.57 C181.94 286.14, 168.18 294.89, 148 295.57 M180 263.57 C178.99 283.02, 167.68 294.28, 148 295.57 M148 295.57 C106.9 294.52, 62.34 298, 32 295.57 M148 295.57 C113.43 297.57, 79.6 296.35, 32 295.57 M32 295.57 C10.12 294.75, 1.19 283.15, 0 263.57 M32 295.57 C10.92 297.45, -0.59 282.94, 0 263.57 M0 263.57 C0.22 178.97, -2.03 97.71, 0 32 M0 263.57 C0.99 207.64, 0.67 150.43, 0 32 M0 32 C1.13 11.24, 11.22 1.04, 32 0 M0 32 C1.44 9.49, 10.17 1.8, 32 0" stroke="#1e1e1e" stroke-width="2" fill="none"></path></g><g transform="translate(1065.8412698412699 215.16668701171875) rotate(0 40 12.5)"><text x="0" y="17.52" font-family="Virgil, Segoe UI Emoji" font-size="20px" fill="#1e1e1e" text-anchor="start" style="white-space: pre;" direction="ltr" dominant-baseline="alphabetic">类加载器</text></g><g stroke-linecap="round" transform="translate(1047.8412698412699 261.16668701171864) rotate(0 62 29)"><path d="M14.5 0 C50.41 -0.49, 86.24 -0.85, 109.5 0 M14.5 0 C37.13 -0.82, 59.43 -0.66, 109.5 0 M109.5 0 C117.86 -1.9, 125.21 4.2, 124 14.5 M109.5 0 C117.26 -1.95, 122.2 7.11, 124 14.5 M124 14.5 C124.11 26.21, 125.42 34.77, 124 43.5 M124 14.5 C124.39 26.13, 123.63 38.01, 124 43.5 M124 43.5 C122.97 53.3, 119.33 58.69, 109.5 58 M124 43.5 C122.78 54.62, 119.57 56.35, 109.5 58 M109.5 58 C72.4 57.8, 35.56 60.34, 14.5 58 M109.5 58 C88.3 56.76, 65.95 56.84, 14.5 58 M14.5 58 C6.26 59.06, -0.76 53.06, 0 43.5 M14.5 58 C2.71 56.45, 1.96 55.4, 0 43.5 M0 43.5 C0.37 34.6, 1.2 29.55, 0 14.5 M0 43.5 C-0.08 36.78, 0.12 31, 0 14.5 M0 14.5 C-0.54 3.43, 3.18 -0.43, 14.5 0 M0 14.5 C1.94 3.3, 6.24 -1.55, 14.5 0" stroke="#1e1e1e" stroke-width="2" fill="none"></path></g><g transform="translate(1073.7613061571878 277.66668701171864) rotate(0 36.07996368408203 12.5)"><text x="36.07996368408203" y="17.52" font-family="Virgil, Segoe UI Emoji" font-size="20px" fill="#1e1e1e" text-anchor="middle" style="white-space: pre;" direction="ltr" dominant-baseline="alphabetic">classes</text></g><g stroke-linecap="round" transform="translate(368.69841269841277 129.45240129743308) rotate(0 252.00000000000006 80)"><path d="M0 0 C132.99 1.48, 266.81 1.24, 504 0 M504 0 C503.16 57.48, 502.92 114.11, 504 160 M504 160 C338.91 159.77, 174.71 159.78, 0 160 M0 160 C-1.27 113.94, -2.96 71.9, 0 0" stroke="#1e1e1e" stroke-width="2.5" fill="none" stroke-dasharray="1.5 8"></path></g><g transform="translate(373.69841269841277 134.45240129743308) rotate(0 246.5999755859375 75)"><text x="0" y="17.52" font-family="Virgil, Segoe UI Emoji" font-size="20px" fill="#1e1e1e" text-anchor="start" style="white-space: pre;" direction="ltr" dominant-baseline="alphabetic">classes说明：</text><text x="0" y="42.519999999999996" font-family="Virgil, Segoe UI Emoji" font-size="20px" fill="#1e1e1e" text-anchor="start" style="white-space: pre;" direction="ltr" dominant-baseline="alphabetic">JVM启动的时候，并不会一次性加载所有的类，而是根</text><text x="0" y="67.52" font-family="Virgil, Segoe UI Emoji" font-size="20px" fill="#1e1e1e" text-anchor="start" style="white-space: pre;" direction="ltr" dominant-baseline="alphabetic">据需要去动态加载。（对于已经加载的类会被放在Class</text><text x="0" y="92.52" font-family="Virgil, Segoe UI Emoji" font-size="20px" fill="#1e1e1e" text-anchor="start" style="white-space: pre;" direction="ltr" dominant-baseline="alphabetic">Loader的classes中。）</text><text x="0" y="117.52" font-family="Virgil, Segoe UI Emoji" font-size="20px" fill="#1e1e1e" text-anchor="start" style="white-space: pre;" direction="ltr" dominant-baseline="alphabetic">在类加载的时候，系统会首先判断当前类是否被加载过</text><text x="0" y="142.52" font-family="Virgil, Segoe UI Emoji" font-size="20px" fill="#1e1e1e" text-anchor="start" style="white-space: pre;" direction="ltr" dominant-baseline="alphabetic">。已经被加载的类会直接返回，否则才会尝试加载。</text></g><g stroke-linecap="round"><g transform="translate(1043.8412698412699 286.8387485669869) rotate(0 -82.57142857142856 -27.935323754327143)"><path d="M0.25 -0.19 C-27.08 -9.18, -137.16 -45.61, -164.87 -54.81" stroke="#1e1e1e" stroke-width="2.5" fill="none" stroke-dasharray="1.5 8"></path></g><g transform="translate(1043.8412698412699 286.8387485669869) rotate(0 -82.57142857142856 -27.935323754327143)"><path d="M-139.88 -55.54 C-145.86 -54.86, -149.43 -56.58, -164.87 -54.81" stroke="#1e1e1e" stroke-width="2.5" fill="none" stroke-dasharray="1.5 6"></path></g><g transform="translate(1043.8412698412699 286.8387485669869) rotate(0 -82.57142857142856 -27.935323754327143)"><path d="M-145.26 -39.31 C-149.9 -42.32, -152.26 -47.71, -164.87 -54.81" stroke="#1e1e1e" stroke-width="2.5" fill="none" stroke-dasharray="1.5 6"></path></g></g><mask></mask><g stroke-linecap="round" transform="translate(877.1745828295511 10) rotate(0 259 55)"><path d="M0 0 C121.71 0.68, 242.84 -0.63, 518 0 M518 0 C517.04 30.64, 518.75 59.42, 518 110 M518 110 C412.52 110.31, 307.65 110.8, 0 110 M0 110 C1.76 69.5, -1.18 34.25, 0 0" stroke="#1e1e1e" stroke-width="2.5" fill="none" stroke-dasharray="1.5 8"></path></g><g transform="translate(882.1745828295511 15) rotate(0 244.90998840332034 50)"><text x="0" y="17.52" font-family="Virgil, Segoe UI Emoji" font-size="20px" fill="#1e1e1e" text-anchor="start" style="white-space: pre;" direction="ltr" dominant-baseline="alphabetic">类加载器说明：</text><text x="0" y="42.519999999999996" font-family="Virgil, Segoe UI Emoji" font-size="20px" fill="#1e1e1e" text-anchor="start" style="white-space: pre;" direction="ltr" dominant-baseline="alphabetic">类加载器负责加载、链接（验证、准备、解析）。</text><text x="0" y="67.52" font-family="Virgil, Segoe UI Emoji" font-size="20px" fill="#1e1e1e" text-anchor="start" style="white-space: pre;" direction="ltr" dominant-baseline="alphabetic">（除了加载类之外，类加载器还可以加载Java应用所需</text><text x="0" y="92.52" font-family="Virgil, Segoe UI Emoji" font-size="20px" fill="#1e1e1e" text-anchor="start" style="white-space: pre;" direction="ltr" dominant-baseline="alphabetic">的资源如文本、图像、配置文件等等文件资源）</text></g><g stroke-linecap="round"><g transform="translate(1104.007157655195 211.16668701171875) rotate(0 3.0905446495259525 -41.99999999999999)"><path d="M0.99 0.51 C2.2 -13.35, 6.3 -69.9, 7.17 -83.91" stroke="#1e1e1e" stroke-width="2.5" fill="none" stroke-dasharray="1.5 8"></path></g><g transform="translate(1104.007157655195 211.16668701171875) rotate(0 3.0905446495259525 -41.99999999999999)"><path d="M14.1 -59.89 C13.1 -65.14, 10.38 -73.71, 7.17 -83.91" stroke="#1e1e1e" stroke-width="2.5" fill="none" stroke-dasharray="1.5 6"></path></g><g transform="translate(1104.007157655195 211.16668701171875) rotate(0 3.0905446495259525 -41.99999999999999)"><path d="M-2.96 -61.06 C0.97 -66.11, 3.2 -74.34, 7.17 -83.91" stroke="#1e1e1e" stroke-width="2.5" fill="none" stroke-dasharray="1.5 6"></path></g></g><mask></mask><g stroke-linecap="round" transform="translate(1363.8412698412699 217.16668701171875) rotate(0 124 17.5)"><path d="M8.75 0 C76.66 -0.31, 143.2 0.29, 239.25 0 M8.75 0 C87.28 -1.13, 164.58 -1.1, 239.25 0 M239.25 0 C243.55 -0.09, 249.35 2.16, 248 8.75 M239.25 0 C246.03 0.92, 249.79 4.7, 248 8.75 M248 8.75 C248.12 13.78, 246.63 18.3, 248 26.25 M248 8.75 C248.68 14.16, 248.01 20.85, 248 26.25 M248 26.25 C248.91 30.69, 244.65 33.65, 239.25 35 M248 26.25 C249.56 30.65, 247.24 35.69, 239.25 35 M239.25 35 C180.97 32.02, 120.85 32.83, 8.75 35 M239.25 35 C177.22 34.92, 113.52 35.8, 8.75 35 M8.75 35 C4.26 34.98, 1.84 30.39, 0 26.25 M8.75 35 C2.14 33.95, -1.67 30.34, 0 26.25 M0 26.25 C1.59 18.27, 0.91 13.78, 0 8.75 M0 26.25 C0.41 20.22, 0.63 13.79, 0 8.75 M0 8.75 C-0.46 4.25, 2.95 -1.99, 8.75 0 M0 8.75 C-0.65 2.2, 5.09 2.07, 8.75 0" stroke="#1e1e1e" stroke-width="2" fill="none"></path></g><g transform="translate(1376.6013711596293 222.16668701171875) rotate(0 111.23989868164062 12.5)"><text x="111.23989868164062" y="17.52" font-family="Virgil, Segoe UI Emoji" font-size="20px" fill="#1e1e1e" text-anchor="middle" style="white-space: pre;" direction="ltr" dominant-baseline="alphabetic">BootstrapClassLoader</text></g><g stroke-linecap="round" transform="translate(1365.8412698412699 341.66668701171875) rotate(0 124 17.5)"><path d="M8.75 0 C62.92 0.93, 116 1.06, 239.25 0 M8.75 0 C82.15 0.51, 156.51 -0.71, 239.25 0 M239.25 0 C245.88 -1.43, 247.81 4.21, 248 8.75 M239.25 0 C247.29 0.78, 248.05 3.17, 248 8.75 M248 8.75 C248.04 13.45, 249.85 20.87, 248 26.25 M248 8.75 C247.86 13.75, 247.67 19.93, 248 26.25 M248 26.25 C249.89 33.16, 246.91 37, 239.25 35 M248 26.25 C248 32.93, 245.15 35.51, 239.25 35 M239.25 35 C169.59 36.64, 102.36 36.41, 8.75 35 M239.25 35 C179.78 36.75, 120.22 36.96, 8.75 35 M8.75 35 C1.06 34.18, 1 30.32, 0 26.25 M8.75 35 C2.72 34.8, -1.5 33.23, 0 26.25 M0 26.25 C0.2 21.16, -1.13 12, 0 8.75 M0 26.25 C0.02 21.79, -0.24 18.43, 0 8.75 M0 8.75 C1.68 1.86, 4.89 -1.07, 8.75 0 M0 8.75 C2.04 1.13, 2.2 -1.46, 8.75 0" stroke="#1e1e1e" stroke-width="2" fill="none"></path></g><g transform="translate(1413.1613382006449 346.66668701171875) rotate(0 76.679931640625 12.5)"><text x="76.679931640625" y="17.52" font-family="Virgil, Segoe UI Emoji" font-size="20px" fill="#1e1e1e" text-anchor="middle" style="white-space: pre;" direction="ltr" dominant-baseline="alphabetic">AppClassLoader</text></g><g stroke-linecap="round" transform="translate(1363.8412698412699 279.66668701171875) rotate(0 124 17.5)"><path d="M8.75 0 C81.96 1.21, 157.08 -1.23, 239.25 0 M8.75 0 C87.63 1, 165.71 0.2, 239.25 0 M239.25 0 C245.3 0.23, 249.39 4.32, 248 8.75 M239.25 0 C244.97 -0.98, 250.27 4.52, 248 8.75 M248 8.75 C247.71 13, 247.32 19.63, 248 26.25 M248 8.75 C248.97 15.65, 248.42 22.58, 248 26.25 M248 26.25 C248.45 32.08, 246.09 34.96, 239.25 35 M248 26.25 C247.22 34.36, 246.8 36.97, 239.25 35 M239.25 35 C179.62 36.9, 119.81 37.31, 8.75 35 M239.25 35 C190.7 35.91, 143.57 35.43, 8.75 35 M8.75 35 C3.91 36.35, -1.69 30.96, 0 26.25 M8.75 35 C2.99 36.75, -1.68 30.26, 0 26.25 M0 26.25 C0.15 21.08, -0.36 18.11, 0 8.75 M0 26.25 C-0.38 20.31, -0.59 12.55, 0 8.75 M0 8.75 C-1.27 4.89, 2.16 1.37, 8.75 0 M0 8.75 C2.23 4.95, 2.39 -0.57, 8.75 0" stroke="#1e1e1e" stroke-width="2" fill="none"></path></g><g transform="translate(1381.6013635302347 284.66668701171875) rotate(0 106.23990631103516 12.5)"><text x="106.23990631103516" y="17.52" font-family="Virgil, Segoe UI Emoji" font-size="20px" fill="#1e1e1e" text-anchor="middle" style="white-space: pre;" direction="ltr" dominant-baseline="alphabetic">ExtensionClassLoader</text></g><g stroke-linecap="round"><g transform="translate(1363.8412698412699 233.16668701171875) rotate(0 -81 17)"><path d="M-0.52 -1.17 C-27.61 4.24, -134.68 27.84, -161.72 33.5 M1.4 0.83 C-25.88 6.92, -135.57 29.33, -162.53 34.78" stroke="#1e1e1e" stroke-width="2" fill="none"></path></g></g><mask></mask><g stroke-linecap="round"><g transform="translate(1361.8412698412699 297.16668701171875) rotate(0 -80 -4)"><path d="M-0.66 -0.59 C-27.36 -1.65, -132.58 -6.17, -159.3 -7.54 M1.19 1.71 C-25.69 0.39, -133.25 -7.82, -159.89 -9.42" stroke="#1e1e1e" stroke-width="2" fill="none"></path></g></g><mask></mask><g stroke-linecap="round"><g transform="translate(1365.8412698412699 359.16668701171875) rotate(0 -82 -24)"><path d="M-0.07 0.04 C-27.2 -7.67, -136.29 -39.13, -163.79 -47 M-1.56 -0.98 C-28.75 -8.95, -137.77 -40.58, -164.63 -48.6" stroke="#1e1e1e" stroke-width="2" fill="none"></path></g></g><mask></mask><g stroke-linecap="round" transform="translate(1286.6984126984128 151.16668701171875) rotate(0 209 124)"><path d="M32 0 C108.25 0.96, 182.41 1.73, 386 0 M32 0 C132.7 -0.14, 234.16 -0.25, 386 0 M386 0 C407.66 -1.46, 419.6 10.79, 418 32 M386 0 C407.14 2.04, 420.28 11.57, 418 32 M418 32 C415.47 71.56, 417.09 111.65, 418 216 M418 32 C415.8 94.99, 416.55 157.62, 418 216 M418 216 C419.98 238.52, 408.2 247.2, 386 248 M418 216 C415.94 235.84, 407.84 247.9, 386 248 M386 248 C304.84 248.73, 221.6 248.1, 32 248 M386 248 C303.66 247.88, 220.45 247.92, 32 248 M32 248 C10.17 247.22, 1.12 236.69, 0 216 M32 248 C12.41 249.96, 0.38 236.94, 0 216 M0 216 C-1.49 167.67, 1.23 123.71, 0 32 M0 216 C0.89 162.36, -0.89 107.37, 0 32 M0 32 C1.04 10.93, 12.44 0.31, 32 0 M0 32 C-0.38 9.94, 12.22 -2.05, 32 0" stroke="#1e1e1e" stroke-width="2" fill="none"></path></g><g transform="translate(1373.8412698412699 161.16668701171875) rotate(0 110.25994873046875 12.5)"><text x="0" y="17.52" font-family="Virgil, Segoe UI Emoji" font-size="20px" fill="#1e1e1e" text-anchor="start" style="white-space: pre;" direction="ltr" dominant-baseline="alphabetic">内置的三个ClassLoader</text></g><g stroke-linecap="round" transform="translate(1795.8412698412699 67.16668701171875) rotate(0 325.9999999999999 67.5)"><path d="M0 0 C259.56 2.1, 516.97 1.79, 652 0 M652 0 C652.9 32.53, 654.67 63.19, 652 135 M652 135 C448.74 134.77, 245.03 135.98, 0 135 M0 135 C-2.3 109.64, 0.66 80.52, 0 0" stroke="#1e1e1e" stroke-width="2.5" fill="none" stroke-dasharray="1.5 8"></path></g><g transform="translate(1800.8412698412699 72.16668701171875) rotate(0 319.1099853515625 62.5)"><text x="0" y="17.52" font-family="Virgil, Segoe UI Emoji" font-size="20px" fill="#1e1e1e" text-anchor="start" style="white-space: pre;" direction="ltr" dominant-baseline="alphabetic">启动类加载器说明：</text><text x="0" y="42.519999999999996" font-family="Virgil, Segoe UI Emoji" font-size="20px" fill="#1e1e1e" text-anchor="start" style="white-space: pre;" direction="ltr" dominant-baseline="alphabetic">最顶层的加载类，由C++实现，用来加载JDK内部的核心类库，如lib目录</text><text x="0" y="67.52" font-family="Virgil, Segoe UI Emoji" font-size="20px" fill="#1e1e1e" text-anchor="start" style="white-space: pre;" direction="ltr" dominant-baseline="alphabetic">下的 rt.jar、resources.jar、charsets.jar等 jar 包和类。</text><text x="0" y="92.52" font-family="Virgil, Segoe UI Emoji" font-size="20px" fill="#1e1e1e" text-anchor="start" style="white-space: pre;" direction="ltr" dominant-baseline="alphabetic">rt.jar（RunTime）为Java基础类库，常用内置库比如java.util.*、jav</text><text x="0" y="117.52" font-family="Virgil, Segoe UI Emoji" font-size="20px" fill="#1e1e1e" text-anchor="start" style="white-space: pre;" direction="ltr" dominant-baseline="alphabetic">a.io.*、java.lang.*、java.math.*等。</text></g><g stroke-linecap="round"><g transform="translate(1613.8412698412699 229.74854168370834) rotate(0 87.5 -39.369197041670375)"><path d="M1.15 0.92 C30.35 -12.15, 146.34 -64.76, 175.41 -78.02" stroke="#1e1e1e" stroke-width="2.5" fill="none" stroke-dasharray="1.5 8"></path></g><g transform="translate(1613.8412698412699 229.74854168370834) rotate(0 87.5 -39.369197041670375)"><path d="M157.56 -60.52 C164.68 -65.55, 169.98 -70.85, 175.41 -78.02" stroke="#1e1e1e" stroke-width="2.5" fill="none" stroke-dasharray="1.5 6"></path></g><g transform="translate(1613.8412698412699 229.74854168370834) rotate(0 87.5 -39.369197041670375)"><path d="M150.48 -76.08 C159.89 -76.26, 167.43 -76.63, 175.41 -78.02" stroke="#1e1e1e" stroke-width="2.5" fill="none" stroke-dasharray="1.5 6"></path></g></g><mask></mask><g stroke-linecap="round" transform="translate(1793.8412698412699 239.66668701171875) rotate(0 357.9999999999999 67.5)"><path d="M0 0 C239.66 0.03, 479.97 -0.06, 716 0 M716 0 C715.64 33.86, 716.21 67.41, 716 135 M716 135 C490.3 137.5, 265.62 138.07, 0 135 M0 135 C0.3 85.67, 2.24 38.71, 0 0" stroke="#1e1e1e" stroke-width="2.5" fill="none" stroke-dasharray="1.5 8"></path></g><g transform="translate(1798.8412698412699 244.66668701171875) rotate(0 336.90997314453125 62.5)"><text x="0" y="17.52" font-family="Virgil, Segoe UI Emoji" font-size="20px" fill="#1e1e1e" text-anchor="start" style="white-space: pre;" direction="ltr" dominant-baseline="alphabetic">扩展类加载器说明：</text><text x="0" y="42.519999999999996" font-family="Virgil, Segoe UI Emoji" font-size="20px" fill="#1e1e1e" text-anchor="start" style="white-space: pre;" direction="ltr" dominant-baseline="alphabetic">负责加载lib/ext目录下的jar包和类。</text><text x="0" y="67.52" font-family="Virgil, Segoe UI Emoji" font-size="20px" fill="#1e1e1e" text-anchor="start" style="white-space: pre;" direction="ltr" dominant-baseline="alphabetic">Java 9 引入了模块系统，扩展类加载器被改名为平台类加载器（platform </text><text x="0" y="92.52" font-family="Virgil, Segoe UI Emoji" font-size="20px" fill="#1e1e1e" text-anchor="start" style="white-space: pre;" direction="ltr" dominant-baseline="alphabetic">class loader）。Java SE 中除了少数几个关键模块，比如说 java.base </text><text x="0" y="117.52" font-family="Virgil, Segoe UI Emoji" font-size="20px" fill="#1e1e1e" text-anchor="start" style="white-space: pre;" direction="ltr" dominant-baseline="alphabetic">是由启动类加载器加载之外，其他的模块均由平台类加载器所加载。</text></g><g stroke-linecap="round"><g transform="translate(1613.8412698412699 300.65312720267326) rotate(0 85 -1.063080394064201)"><path d="M-0.8 -1.15 C27.3 -1.28, 141.13 -1.7, 169.7 -1.71" stroke="#1e1e1e" stroke-width="2.5" fill="none" stroke-dasharray="1.5 8"></path></g><g transform="translate(1613.8412698412699 300.65312720267326) rotate(0 85 -1.063080394064201)"><path d="M146.23 6.9 C153.62 3.17, 165.47 1.29, 169.7 -1.71" stroke="#1e1e1e" stroke-width="2.5" fill="none" stroke-dasharray="1.5 6"></path></g><g transform="translate(1613.8412698412699 300.65312720267326) rotate(0 85 -1.063080394064201)"><path d="M146.19 -10.2 C153.47 -7.2, 165.33 -2.35, 169.7 -1.71" stroke="#1e1e1e" stroke-width="2.5" fill="none" stroke-dasharray="1.5 6"></path></g></g><mask></mask><g stroke-linecap="round" transform="translate(1792.8412698412699 409.16668701171875) rotate(0 235.9999999999999 30)"><path d="M0 0 C156.93 1.96, 314.5 1, 472 0 M472 0 C470.94 18.68, 473.17 35.28, 472 60 M472 60 C293.55 58.06, 115.85 57.67, 0 60 M0 60 C-1.55 45.14, 1.54 31.09, 0 0" stroke="#1e1e1e" stroke-width="2.5" fill="none" stroke-dasharray="1.5 8"></path></g><g transform="translate(1797.8412698412699 414.16668701171875) rotate(0 221.61996459960938 25)"><text x="0" y="17.52" font-family="Virgil, Segoe UI Emoji" font-size="20px" fill="#1e1e1e" text-anchor="start" style="white-space: pre;" direction="ltr" dominant-baseline="alphabetic">应用程序类加载器说明：</text><text x="0" y="42.519999999999996" font-family="Virgil, Segoe UI Emoji" font-size="20px" fill="#1e1e1e" text-anchor="start" style="white-space: pre;" direction="ltr" dominant-baseline="alphabetic">负责加载当前应用classpath下的所有jar包和类。</text></g><g stroke-linecap="round"><g transform="translate(1619.8412698412699 362.2168173162675) rotate(0 80.5 34.809438662736085)"><path d="M1 0.93 C27.75 12.86, 133.41 59, 160.14 70.58" stroke="#1e1e1e" stroke-width="2.5" fill="none" stroke-dasharray="1.5 8"></path></g><g transform="translate(1619.8412698412699 362.2168173162675) rotate(0 80.5 34.809438662736085)"><path d="M135.19 69.04 C143.42 67.82, 150.18 70.3, 160.14 70.58" stroke="#1e1e1e" stroke-width="2.5" fill="none" stroke-dasharray="1.5 6"></path></g><g transform="translate(1619.8412698412699 362.2168173162675) rotate(0 80.5 34.809438662736085)"><path d="M142.02 53.36 C148.28 56.41, 153.21 63.1, 160.14 70.58" stroke="#1e1e1e" stroke-width="2.5" fill="none" stroke-dasharray="1.5 6"></path></g></g><mask></mask><g stroke-linecap="round"><g transform="translate(1477.7142857142853 279.3571632021951) rotate(0 0 -12.857142857142861)"><path d="M0 0 C-0.96 -8.91, 0.74 -16.27, 0 -25.71 M0 0 C0.04 -7.39, -0.32 -15.13, 0 -25.71" stroke="#1e1e1e" stroke-width="2" fill="none"></path></g><g transform="translate(1477.7142857142853 279.3571632021951) rotate(0 0 -12.857142857142861)"><path d="M4.21 -13.57 C2.19 -17.8, 1.87 -21.07, 0 -25.71 M4.21 -13.57 C2.96 -17.01, 1.47 -20.68, 0 -25.71" stroke="#1e1e1e" stroke-width="2" fill="none"></path></g><g transform="translate(1477.7142857142853 279.3571632021951) rotate(0 0 -12.857142857142861)"><path d="M-4.58 -13.7 C-3.65 -17.93, -1.02 -21.15, 0 -25.71 M-4.58 -13.7 C-3.2 -17.1, -2.07 -20.73, 0 -25.71" stroke="#1e1e1e" stroke-width="2" fill="none"></path></g></g><mask></mask><g stroke-linecap="round"><g transform="translate(1483.428571428571 342.2143060593379) rotate(0 0 -12.857142857142776)"><path d="M0 0 C-0.05 -6.31, 0.97 -11.45, 0 -25.71 M0 0 C-0.27 -9.33, -0.14 -18.87, 0 -25.71" stroke="#1e1e1e" stroke-width="2" fill="none"></path></g><g transform="translate(1483.428571428571 342.2143060593379) rotate(0 0 -12.857142857142776)"><path d="M4.19 -13.56 C3.26 -16.7, 3.03 -19.08, 0 -25.71 M4.19 -13.56 C2.51 -17.96, 1.07 -22.51, 0 -25.71" stroke="#1e1e1e" stroke-width="2" fill="none"></path></g><g transform="translate(1483.428571428571 342.2143060593379) rotate(0 0 -12.857142857142776)"><path d="M-4.6 -13.71 C-3.68 -16.81, -2.06 -19.16, 0 -25.71 M-4.6 -13.71 C-3.1 -18.08, -1.36 -22.58, 0 -25.71" stroke="#1e1e1e" stroke-width="2" fill="none"></path></g></g><mask></mask><g stroke-linecap="round" transform="translate(1223.428571428571 453.6428774879096) rotate(0 265.71428571428567 87.14285714285711)"><path d="M32 0 C192.75 -2.45, 352.77 -2.11, 499.43 0 M32 0 C143.67 0.43, 256.05 0.23, 499.43 0 M499.43 0 C521.6 0.41, 531.32 10.61, 531.43 32 M499.43 0 C522.42 0.59, 532.21 11.37, 531.43 32 M531.43 32 C533.17 69.91, 532.81 102.26, 531.43 142.29 M531.43 32 C532.48 56.21, 531.44 78.68, 531.43 142.29 M531.43 142.29 C530.67 163.89, 521.46 172.41, 499.43 174.29 M531.43 142.29 C529.94 162.88, 520.03 173.32, 499.43 174.29 M499.43 174.29 C376.96 176.58, 252.83 175.58, 32 174.29 M499.43 174.29 C357.37 175.53, 214.62 175.49, 32 174.29 M32 174.29 C11.84 174.31, 1.6 162.88, 0 142.29 M32 174.29 C10.6 175.18, -0.63 161.6, 0 142.29 M0 142.29 C0.11 107.42, 2.39 68.21, 0 32 M0 142.29 C-1.08 106.93, -1.71 71.78, 0 32 M0 32 C1.9 12.11, 12.65 -0.35, 32 0 M0 32 C1.59 9.36, 9.25 1.1, 32 0" stroke="#1e1e1e" stroke-width="2" fill="none"></path></g><g transform="translate(1303.4285714285706 416.5000203450524) rotate(0 169.99999999999994 12.5)"><text x="0" y="17.52" font-family="Virgil, Segoe UI Emoji" font-size="20px" fill="#1e1e1e" text-anchor="start" style="white-space: pre;" direction="ltr" dominant-baseline="alphabetic">可以加入自定义的类加载器来进行拓展</text></g><g stroke-linecap="round" transform="translate(1049.6428571428569 330.35716320219547) rotate(0 62 29)"><path d="M14.5 0 C52.04 1.35, 90.34 -0.44, 109.5 0 M14.5 0 C49.84 1.21, 84.5 0.58, 109.5 0 M109.5 0 C118.52 -0.02, 123.77 6.04, 124 14.5 M109.5 0 C121.03 -1.85, 125.94 3.57, 124 14.5 M124 14.5 C123.05 22.83, 121.97 26.81, 124 43.5 M124 14.5 C123.06 22.2, 124.56 29.3, 124 43.5 M124 43.5 C122.71 52.86, 119.8 56.75, 109.5 58 M124 43.5 C125.27 51.09, 120.44 57.52, 109.5 58 M109.5 58 C78.36 60.8, 47.54 58.72, 14.5 58 M109.5 58 C75.28 58.62, 43.4 57.58, 14.5 58 M14.5 58 C3.53 58.62, 0.13 52.36, 0 43.5 M14.5 58 C5.14 59.91, -2.21 55.45, 0 43.5 M0 43.5 C-0.93 33.37, -0.15 24.62, 0 14.5 M0 43.5 C-0.65 36.82, -0.79 29.16, 0 14.5 M0 14.5 C-1.24 5.56, 4.52 1.86, 14.5 0 M0 14.5 C2.1 2.78, 4.65 -1.85, 14.5 0" stroke="#1e1e1e" stroke-width="2" fill="none"></path></g><g transform="translate(1079.9528852190288 346.85716320219547) rotate(0 31.689971923828125 12.5)"><text x="31.689971923828125" y="17.52" font-family="Virgil, Segoe UI Emoji" font-size="20px" fill="#1e1e1e" text-anchor="middle" style="white-space: pre;" direction="ltr" dominant-baseline="alphabetic">parent</text></g><g stroke-linecap="round" transform="translate(174.28571428571416 322.2143060593378) rotate(0 347.71428571428584 67.5)"><path d="M0 0 C250.7 -2.29, 500.7 -2.39, 695.43 0 M695.43 0 C696.94 41.19, 697.75 80.09, 695.43 135 M695.43 135 C511.95 134.79, 328.51 134.02, 0 135 M0 135 C-1.71 85.72, -2.68 39.81, 0 0" stroke="#1e1e1e" stroke-width="2.5" fill="none" stroke-dasharray="1.5 8"></path></g><g transform="translate(179.28571428571416 327.2143060593378) rotate(0 339.1199035644531 62.5)"><text x="0" y="17.52" font-family="Virgil, Segoe UI Emoji" font-size="20px" fill="#1e1e1e" text-anchor="start" style="white-space: pre;" direction="ltr" dominant-baseline="alphabetic">parent说明：</text><text x="0" y="42.519999999999996" font-family="Virgil, Segoe UI Emoji" font-size="20px" fill="#1e1e1e" text-anchor="start" style="white-space: pre;" direction="ltr" dominant-baseline="alphabetic">每个ClassLoader可以通过getParent()获取其父ClassLoader，如果获取到</text><text x="0" y="67.52" font-family="Virgil, Segoe UI Emoji" font-size="20px" fill="#1e1e1e" text-anchor="start" style="white-space: pre;" direction="ltr" dominant-baseline="alphabetic">ClassLoader为null的话，那么该类是通过BootstrapClassLoader加载的。</text><text x="0" y="92.52" font-family="Virgil, Segoe UI Emoji" font-size="20px" fill="#1e1e1e" text-anchor="start" style="white-space: pre;" direction="ltr" dominant-baseline="alphabetic">（因为BootstrapClassLoader由C++实现，由于这个C++实现的类加载器在</text><text x="0" y="117.52" font-family="Virgil, Segoe UI Emoji" font-size="20px" fill="#1e1e1e" text-anchor="start" style="white-space: pre;" direction="ltr" dominant-baseline="alphabetic">Java中是没有与之对应的类的，所以拿到的结果是null。）</text></g><g stroke-linecap="round"><g transform="translate(1040.2142857142853 364.5691857410787) rotate(0 -81.24999999999997 11.147215811130962)"><path d="M0.04 -0.95 C-27.05 2.58, -134.72 17.56, -161.62 21.57" stroke="#1e1e1e" stroke-width="2.5" fill="none" stroke-dasharray="1.5 8"></path></g><g transform="translate(1040.2142857142853 364.5691857410787) rotate(0 -81.24999999999997 11.147215811130962)"><path d="M-139.58 9.78 C-149.39 15.69, -157.29 20.57, -161.62 21.57" stroke="#1e1e1e" stroke-width="2.5" fill="none" stroke-dasharray="1.5 6"></path></g><g transform="translate(1040.2142857142853 364.5691857410787) rotate(0 -81.24999999999997 11.147215811130962)"><path d="M-137.15 26.71 C-147.93 26.26, -156.74 24.78, -161.62 21.57" stroke="#1e1e1e" stroke-width="2.5" fill="none" stroke-dasharray="1.5 6"></path></g></g><mask></mask><g stroke-linecap="round" transform="translate(1236.5714285714282 479.0000203450523) rotate(0 124 17.5)"><path d="M8.75 0 C80.56 -0.21, 153.92 0.29, 239.25 0 M8.75 0 C54.49 -1.38, 101.34 -0.96, 239.25 0 M239.25 0 C245.32 -1.49, 246.12 4.32, 248 8.75 M239.25 0 C243.42 0.7, 246.71 2.86, 248 8.75 M248 8.75 C247.85 15.44, 246.76 19.15, 248 26.25 M248 8.75 C247.72 12.32, 247.15 15.98, 248 26.25 M248 26.25 C249.56 32.68, 243.16 34.35, 239.25 35 M248 26.25 C246.2 34.01, 243 34.48, 239.25 35 M239.25 35 C150.88 34.14, 61.44 33.06, 8.75 35 M239.25 35 C148.59 34.49, 59.25 35.3, 8.75 35 M8.75 35 C3.06 33.99, 1.34 32.32, 0 26.25 M8.75 35 C3.77 36.57, 2.14 32.98, 0 26.25 M0 26.25 C0.9 23.41, 0.7 17.85, 0 8.75 M0 26.25 C-0.65 19.9, 0.69 14.27, 0 8.75 M0 8.75 C-1.9 2.88, 0.97 1.69, 8.75 0 M0 8.75 C-1.28 4.56, 5.01 -2.04, 8.75 0" stroke="#1e1e1e" stroke-width="2" fill="none"></path></g><g transform="translate(1262.5315192086352 484.0000203450523) rotate(0 98.03990936279297 12.5)"><text x="98.03990936279297" y="17.52" font-family="Virgil, Segoe UI Emoji" font-size="20px" fill="#1e1e1e" text-anchor="middle" style="white-space: pre;" direction="ltr" dominant-baseline="alphabetic">CustomClassLoader1</text></g><g stroke-linecap="round"><g transform="translate(1370.4642444430347 476.50002034505235) rotate(0 43.42175572654372 -48.5714285714287)"><path d="M0.84 0.18 C15.18 -16.34, 72.47 -82.01, 86.91 -98.07 M-0.18 -0.78 C13.93 -16.65, 71.46 -80.82, 86 -97.03" stroke="#1e1e1e" stroke-width="2" fill="none"></path></g><g transform="translate(1370.4642444430347 476.50002034505235) rotate(0 43.42175572654372 -48.5714285714287)"><path d="M76.68 -73.83 C80.28 -82.49, 81.94 -90.21, 86 -97.03 M76.68 -73.83 C80.3 -82.6, 84.13 -90.4, 86 -97.03" stroke="#1e1e1e" stroke-width="2" fill="none"></path></g><g transform="translate(1370.4642444430347 476.50002034505235) rotate(0 43.42175572654372 -48.5714285714287)"><path d="M63.95 -85.24 C72.43 -89.71, 78.87 -93.14, 86 -97.03 M63.95 -85.24 C72.4 -89.56, 81.07 -93.03, 86 -97.03" stroke="#1e1e1e" stroke-width="2" fill="none"></path></g></g><mask></mask><g stroke-linecap="round" transform="translate(1496.5714285714282 479.00002034505195) rotate(0 124 17.5)"><path d="M8.75 0 C62.11 1.22, 115.45 -0.31, 239.25 0 M8.75 0 C83.31 0.97, 159.33 0.28, 239.25 0 M239.25 0 C244.19 1.86, 249.13 3.19, 248 8.75 M239.25 0 C243.44 1.57, 248.7 4.65, 248 8.75 M248 8.75 C247.73 16.64, 246.88 21.3, 248 26.25 M248 8.75 C247.49 13.23, 248.25 17.39, 248 26.25 M248 26.25 C246.96 33.7, 243.44 36.4, 239.25 35 M248 26.25 C249.62 32.43, 246.51 36.26, 239.25 35 M239.25 35 C157.61 32.69, 73.93 33.75, 8.75 35 M239.25 35 C188.12 37.12, 134.94 36.41, 8.75 35 M8.75 35 C3.83 33.42, 0.38 31.01, 0 26.25 M8.75 35 C2.97 35.93, -1.41 31.49, 0 26.25 M0 26.25 C0.1 21.17, 0.4 16.39, 0 8.75 M0 26.25 C0.56 21.61, 0.77 18.15, 0 8.75 M0 8.75 C0.97 2.71, 1.88 0, 8.75 0 M0 8.75 C1.49 1.05, 0.92 1.45, 8.75 0" stroke="#1e1e1e" stroke-width="2" fill="none"></path></g><g transform="translate(1518.1215231759204 484.00002034505195) rotate(0 102.44990539550781 12.5)"><text x="102.44990539550781" y="17.52" font-family="Virgil, Segoe UI Emoji" font-size="20px" fill="#1e1e1e" text-anchor="middle" style="white-space: pre;" direction="ltr" dominant-baseline="alphabetic">CustomClassLoader2</text></g><g stroke-linecap="round"><g transform="translate(1614.8571428571422 473.64287748790923) rotate(0 -55.714285714285666 -47.14285714285714)"><path d="M-0.42 0.6 C-19.01 -15.34, -92.51 -78.47, -110.92 -94.48 M1.56 -0.13 C-17.2 -15.37, -92.78 -77.27, -111.61 -93.04" stroke="#1e1e1e" stroke-width="2" fill="none"></path></g><g transform="translate(1614.8571428571422 473.64287748790923) rotate(0 -55.714285714285666 -47.14285714285714)"><path d="M-88.05 -84.66 C-95.41 -86.85, -105.02 -89.77, -111.61 -93.04 M-88.05 -84.66 C-91.85 -86.46, -98.11 -87.98, -111.61 -93.04" stroke="#1e1e1e" stroke-width="2" fill="none"></path></g><g transform="translate(1614.8571428571422 473.64287748790923) rotate(0 -55.714285714285666 -47.14285714285714)"><path d="M-98.95 -71.48 C-102.6 -78.26, -108.38 -85.82, -111.61 -93.04 M-98.95 -71.48 C-100.63 -75.96, -104.69 -80.13, -111.61 -93.04" stroke="#1e1e1e" stroke-width="2" fill="none"></path></g></g><mask></mask><g stroke-linecap="round" transform="translate(1239.4285714285709 570.4285917736235) rotate(0 124 17.5)"><path d="M8.75 0 C82.75 0.09, 153.18 0.44, 239.25 0 M8.75 0 C94.57 -2.39, 182.08 -1.09, 239.25 0 M239.25 0 C245.39 0.52, 246.63 4.39, 248 8.75 M239.25 0 C244.85 1.72, 250.08 0.89, 248 8.75 M248 8.75 C247.49 14.07, 246.64 22.38, 248 26.25 M248 8.75 C247.8 14.14, 248.41 19.91, 248 26.25 M248 26.25 C248.83 31.05, 245.18 35.49, 239.25 35 M248 26.25 C247.67 31.64, 246.11 36.35, 239.25 35 M239.25 35 C161.29 33.7, 83.43 34.87, 8.75 35 M239.25 35 C184.35 33.89, 127.13 34.48, 8.75 35 M8.75 35 C3.92 36, 0.67 30.9, 0 26.25 M8.75 35 C0.92 33.66, -0.06 31.27, 0 26.25 M0 26.25 C0.56 19.02, 0.88 15.19, 0 8.75 M0 26.25 C0.42 19.49, -0.14 13.6, 0 8.75 M0 8.75 C-0.57 2.84, 2.87 0.11, 8.75 0 M0 8.75 C-0.79 5.12, 1.05 -0.89, 8.75 0" stroke="#1e1e1e" stroke-width="2" fill="none"></path></g><g transform="translate(1261.2886635916568 575.4285917736235) rotate(0 102.13990783691406 12.5)"><text x="102.13990783691406" y="17.52" font-family="Virgil, Segoe UI Emoji" font-size="20px" fill="#1e1e1e" text-anchor="middle" style="white-space: pre;" direction="ltr" dominant-baseline="alphabetic">CustomClassLoader3</text></g><g stroke-linecap="round"><g transform="translate(1354.8571428571424 565.0714489164806) rotate(0 0 -24.28571428571425)"><path d="M0.18 0.51 C0.13 -7.61, -0.19 -40.76, -0.29 -49 M-0.39 0.29 C-0.26 -7.74, 0.61 -40.38, 0.79 -48.52" stroke="#1e1e1e" stroke-width="2" fill="none"></path></g><g transform="translate(1354.8571428571424 565.0714489164806) rotate(0 0 -24.28571428571425)"><path d="M8.54 -25.5 C7.2 -32.91, 3.18 -40.01, 0.79 -48.52 M8.54 -25.5 C6.59 -30.54, 4.82 -36.66, 0.79 -48.52" stroke="#1e1e1e" stroke-width="2" fill="none"></path></g><g transform="translate(1354.8571428571424 565.0714489164806) rotate(0 0 -24.28571428571425)"><path d="M-8.07 -25.91 C-4.43 -33.22, -3.47 -40.21, 0.79 -48.52 M-8.07 -25.91 C-6.1 -30.84, -3.96 -36.86, 0.79 -48.52" stroke="#1e1e1e" stroke-width="2" fill="none"></path></g></g><mask></mask><g stroke-linecap="round" transform="translate(1080.95227922712 664.7143060593378) rotate(0 437.7142857142858 242.5)"><path d="M0 0 C322.62 -3.68, 646.87 -3.86, 875.43 0 M875.43 0 C876.33 185.53, 876.47 372.56, 875.43 485 M875.43 485 C658.09 487.73, 440.83 488.3, 0 485 M0 485 C1.46 371.41, 1.81 259.76, 0 0" stroke="#1e1e1e" stroke-width="2.5" fill="none" stroke-dasharray="1.5 8"></path></g><g transform="translate(1085.95227922712 669.7143060593378) rotate(0 431.5399475097656 237.5)"><text x="0" y="17.52" font-family="Virgil, Segoe UI Emoji" font-size="20px" fill="#1e1e1e" text-anchor="start" style="white-space: pre;" direction="ltr" dominant-baseline="alphabetic">双亲委派模型说明</text><text x="0" y="42.519999999999996" font-family="Virgil, Segoe UI Emoji" font-size="20px" fill="#1e1e1e" text-anchor="start" style="white-space: pre;" direction="ltr" dominant-baseline="alphabetic">用途：确定加载某一个类时使用的类加载器。</text><text x="0" y="67.52" font-family="Virgil, Segoe UI Emoji" font-size="20px" fill="#1e1e1e" text-anchor="start" style="white-space: pre;" direction="ltr" dominant-baseline="alphabetic">要求：除了顶层的启动类加载器外，其余的类加载器都应有自己的父类加载器。</text><text x="0" y="92.52" font-family="Virgil, Segoe UI Emoji" font-size="20px" fill="#1e1e1e" text-anchor="start" style="white-space: pre;" direction="ltr" dominant-baseline="alphabetic">原理：类加载器会在试图亲自查找类或资源之前，将搜索类或资源的任务委托给其父类加载器。</text><text x="0" y="117.52" font-family="Virgil, Segoe UI Emoji" font-size="20px" fill="#1e1e1e" text-anchor="start" style="white-space: pre;" direction="ltr" dominant-baseline="alphabetic">执行流程：</text><text x="0" y="142.52" font-family="Virgil, Segoe UI Emoji" font-size="20px" fill="#1e1e1e" text-anchor="start" style="white-space: pre;" direction="ltr" dominant-baseline="alphabetic">1.在类加载的时候，系统会首先判断当前类是否被加载过。已经被加载的类会直接返回，否则才会</text><text x="0" y="167.52" font-family="Virgil, Segoe UI Emoji" font-size="20px" fill="#1e1e1e" text-anchor="start" style="white-space: pre;" direction="ltr" dominant-baseline="alphabetic">尝试加载。（因此判断类是否加载时，是自底向上加载）</text><text x="0" y="192.52" font-family="Virgil, Segoe UI Emoji" font-size="20px" fill="#1e1e1e" text-anchor="start" style="white-space: pre;" direction="ltr" dominant-baseline="alphabetic">2.类加载器在进行类加载的时候，它首先不会自己去尝试加载这个类，而是把这个请求委派给父类</text><text x="0" y="217.52" font-family="Virgil, Segoe UI Emoji" font-size="20px" fill="#1e1e1e" text-anchor="start" style="white-space: pre;" direction="ltr" dominant-baseline="alphabetic">加载器去完成（调用父加载器loadClass()方法来加载类）。这样的话，所有的请求最终都会传送</text><text x="0" y="242.52" font-family="Virgil, Segoe UI Emoji" font-size="20px" fill="#1e1e1e" text-anchor="start" style="white-space: pre;" direction="ltr" dominant-baseline="alphabetic">到顶层的启动类加载器BootstrapClassLoader中。（因此尝试加载类时是自顶向下）</text><text x="0" y="267.52" font-family="Virgil, Segoe UI Emoji" font-size="20px" fill="#1e1e1e" text-anchor="start" style="white-space: pre;" direction="ltr" dominant-baseline="alphabetic">3.只有当父加载器反馈自己无法完成这个加载请求（它的搜索范围中没有找到所需的类）时，子加</text><text x="0" y="292.52" font-family="Virgil, Segoe UI Emoji" font-size="20px" fill="#1e1e1e" text-anchor="start" style="white-space: pre;" direction="ltr" dominant-baseline="alphabetic">载器才会尝试自己去加载（调用自己的findClass()方法来加载类）。如果子类加载器也无法加载这</text><text x="0" y="317.52" font-family="Virgil, Segoe UI Emoji" font-size="20px" fill="#1e1e1e" text-anchor="start" style="white-space: pre;" direction="ltr" dominant-baseline="alphabetic">个类，那么它会抛出一个ClassNotFoundException异常。</text><text x="0" y="342.52" font-family="Virgil, Segoe UI Emoji" font-size="20px" fill="#1e1e1e" text-anchor="start" style="white-space: pre;" direction="ltr" dominant-baseline="alphabetic"></text><text x="0" y="367.52" font-family="Virgil, Segoe UI Emoji" font-size="20px" fill="#1e1e1e" text-anchor="start" style="white-space: pre;" direction="ltr" dominant-baseline="alphabetic">（注意：类加载器之间的父子关系一般不是以继承的关系来实现的，而是通常使用组合关系来复用</text><text x="0" y="392.52" font-family="Virgil, Segoe UI Emoji" font-size="20px" fill="#1e1e1e" text-anchor="start" style="white-space: pre;" direction="ltr" dominant-baseline="alphabetic">父加载器的代码。）</text><text x="0" y="417.52" font-family="Virgil, Segoe UI Emoji" font-size="20px" fill="#1e1e1e" text-anchor="start" style="white-space: pre;" direction="ltr" dominant-baseline="alphabetic">（注意：双亲委派模型并不是一种强制性的约束）</text><text x="0" y="442.52" font-family="Virgil, Segoe UI Emoji" font-size="20px" fill="#1e1e1e" text-anchor="start" style="white-space: pre;" direction="ltr" dominant-baseline="alphabetic">（补充：JVM不仅要看类的全名是否相同，还要看加载此类的类加载器是否一样。只有两者都相同</text><text x="0" y="467.52" font-family="Virgil, Segoe UI Emoji" font-size="20px" fill="#1e1e1e" text-anchor="start" style="white-space: pre;" direction="ltr" dominant-baseline="alphabetic">的情况，才认为两个类是相同的。）</text></g><g stroke-linecap="round" transform="translate(1045.7142857142858 402.14287748790923) rotate(0 65.75 26.25)"><path d="M13.13 0 C41.9 -0.79, 67.13 1.28, 118.38 0 M13.13 0 C43.56 0.81, 73.47 0.23, 118.38 0 M118.38 0 C127.89 -0.46, 129.78 5.05, 131.5 13.13 M118.38 0 C126.77 -0.55, 133.76 4.42, 131.5 13.13 M131.5 13.13 C132.76 18.49, 133.18 26.05, 131.5 39.38 M131.5 13.13 C131.28 20.84, 130.52 29.38, 131.5 39.38 M131.5 39.38 C132.6 49.7, 128.31 51.72, 118.38 52.5 M131.5 39.38 C133.41 48, 126.2 50.43, 118.38 52.5 M118.38 52.5 C86.84 51.84, 57.75 52.12, 13.13 52.5 M118.38 52.5 C94.4 53.53, 71.29 53.99, 13.13 52.5 M13.13 52.5 C5.99 52.7, 0.04 49.13, 0 39.38 M13.13 52.5 C5.45 51, -1.84 49.06, 0 39.38 M0 39.38 C-0.8 31.43, 1.91 19.88, 0 13.13 M0 39.38 C-0.63 34.19, 0.66 26.64, 0 13.13 M0 13.13 C-1 2.73, 5.45 -1.17, 13.13 0 M0 13.13 C0.57 3.64, 2.76 -1.56, 13.13 0" stroke="#1e1e1e" stroke-width="2" fill="none"></path></g><g transform="translate(1056.8043354579381 415.89287748790923) rotate(0 54.659950256347656 12.5)"><text x="54.659950256347656" y="17.52" font-family="Virgil, Segoe UI Emoji" font-size="20px" fill="#1e1e1e" text-anchor="middle" style="white-space: pre;" direction="ltr" dominant-baseline="alphabetic">loadClass()</text></g><g stroke-linecap="round" transform="translate(1046.9642857142858 469.89287748790923) rotate(0 65.75 26.25)"><path d="M13.13 0 C38.86 -1.32, 62.91 0.81, 118.38 0 M13.13 0 C52.62 -0.09, 93.68 -1.2, 118.38 0 M118.38 0 C127.37 -1.59, 132.22 3.74, 131.5 13.13 M118.38 0 C129.17 -0.44, 132.24 5.78, 131.5 13.13 M131.5 13.13 C129.76 21.43, 130.41 30.49, 131.5 39.38 M131.5 13.13 C132.34 19.21, 131.56 26.19, 131.5 39.38 M131.5 39.38 C132.05 49.87, 127.31 53.72, 118.38 52.5 M131.5 39.38 C131.64 46.42, 125.7 50.39, 118.38 52.5 M118.38 52.5 C86.84 51.35, 57.7 53.19, 13.13 52.5 M118.38 52.5 C93.78 52.29, 68.9 52.56, 13.13 52.5 M13.13 52.5 C4.59 51.13, 1.8 46.2, 0 39.38 M13.13 52.5 C3.77 54.47, -1.11 46.12, 0 39.38 M0 39.38 C-0.7 34.19, -1.41 29.27, 0 13.13 M0 39.38 C-0.55 32.41, 0.43 23.67, 0 13.13 M0 13.13 C0.25 4.35, 3.29 -0.87, 13.13 0 M0 13.13 C-1.98 4.26, 6.42 1.1, 13.13 0" stroke="#1e1e1e" stroke-width="2" fill="none"></path></g><g transform="translate(1061.1743382045202 483.64287748790923) rotate(0 51.539947509765625 12.5)"><text x="51.539947509765625" y="17.52" font-family="Virgil, Segoe UI Emoji" font-size="20px" fill="#1e1e1e" text-anchor="middle" style="white-space: pre;" direction="ltr" dominant-baseline="alphabetic">findClass()</text></g><g stroke-linecap="round" transform="translate(10 493.64287748790923) rotate(0 430.2142857142859 137)"><path d="M0 0 C233.58 3.39, 468.87 2.7, 860.43 0 M860.43 0 C860.81 107.62, 860.89 215.64, 860.43 274 M860.43 274 C523.6 273.1, 186 273, 0 274 M0 274 C1.07 190.74, 1.03 106.54, 0 0" stroke="#1e1e1e" stroke-width="2.5" fill="none" stroke-dasharray="1.5 8"></path></g><g transform="translate(15 498.64287748790923) rotate(0 424.453125 132)"><text x="0" y="19.3125" font-family="Cascadia, Segoe UI Emoji" font-size="20px" fill="#1e1e1e" text-anchor="start" style="white-space: pre;" direction="ltr" dominant-baseline="alphabetic">loadClass()方法：</text><text x="0" y="43.3125" font-family="Cascadia, Segoe UI Emoji" font-size="20px" fill="#1e1e1e" text-anchor="start" style="white-space: pre;" direction="ltr" dominant-baseline="alphabetic">这是ClassLoader类的一个核心方法，用于加载指定名称的类。</text><text x="0" y="67.3125" font-family="Cascadia, Segoe UI Emoji" font-size="20px" fill="#1e1e1e" text-anchor="start" style="white-space: pre;" direction="ltr" dominant-baseline="alphabetic">遵循双亲委派模型，当调用loadClass()时，首先会委托给父类加载器尝试加载该类。只有当父</text><text x="0" y="91.3125" font-family="Cascadia, Segoe UI Emoji" font-size="20px" fill="#1e1e1e" text-anchor="start" style="white-space: pre;" direction="ltr" dominant-baseline="alphabetic">加载器找不到该类或者拒绝加载时，才会调用当前类加载器的loadClass()方法继续尝试加载。</text><text x="0" y="115.3125" font-family="Cascadia, Segoe UI Emoji" font-size="20px" fill="#1e1e1e" text-anchor="start" style="white-space: pre;" direction="ltr" dominant-baseline="alphabetic">默认实现中，当父加载器无法加载时，可能会调用findClass()方法来尝试自定义加载类。</text><text x="0" y="139.3125" font-family="Cascadia, Segoe UI Emoji" font-size="20px" fill="#1e1e1e" text-anchor="start" style="white-space: pre;" direction="ltr" dominant-baseline="alphabetic"></text><text x="0" y="163.3125" font-family="Cascadia, Segoe UI Emoji" font-size="20px" fill="#1e1e1e" text-anchor="start" style="white-space: pre;" direction="ltr" dominant-baseline="alphabetic">findClass()方法：</text><text x="0" y="187.3125" font-family="Cascadia, Segoe UI Emoji" font-size="20px" fill="#1e1e1e" text-anchor="start" style="white-space: pre;" direction="ltr" dominant-baseline="alphabetic">ClassLoader基类中未提供具体实现，开发者在自定义类加载器时，通常需要重写findClass(</text><text x="0" y="211.3125" font-family="Cascadia, Segoe UI Emoji" font-size="20px" fill="#1e1e1e" text-anchor="start" style="white-space: pre;" direction="ltr" dominant-baseline="alphabetic">)方法，以便实现从非标准来源（如网络、数据库或自定义的类存储机制）加载类的功能。</text><text x="0" y="235.3125" font-family="Cascadia, Segoe UI Emoji" font-size="20px" fill="#1e1e1e" text-anchor="start" style="white-space: pre;" direction="ltr" dominant-baseline="alphabetic">findClass()方法仅仅关注如何找到类的二进制数据流并将其转换为Class对象。它不涉及类加</text><text x="0" y="259.3125" font-family="Cascadia, Segoe UI Emoji" font-size="20px" fill="#1e1e1e" text-anchor="start" style="white-space: pre;" direction="ltr" dominant-baseline="alphabetic">载过程中的验证、准备、解析等其他步骤。</text></g><g stroke-linecap="round"><g transform="translate(1040.2142857142858 431.4418844039161) rotate(0 -82.49999999999994 63.790972848973695)"><path d="M-1.1 -0.66 C-28.67 20.68, -137.31 106.2, -164.74 127.66" stroke="#1e1e1e" stroke-width="2.5" fill="none" stroke-dasharray="1.5 8"></path></g><g transform="translate(1040.2142857142858 431.4418844039161) rotate(0 -82.49999999999994 63.790972848973695)"><path d="M-151.54 106.43 C-157.44 114.35, -160.95 120.35, -164.74 127.66" stroke="#1e1e1e" stroke-width="2.5" fill="none" stroke-dasharray="1.5 6"></path></g><g transform="translate(1040.2142857142858 431.4418844039161) rotate(0 -82.49999999999994 63.790972848973695)"><path d="M-140.98 119.88 C-150.63 122.88, -157.92 124.06, -164.74 127.66" stroke="#1e1e1e" stroke-width="2.5" fill="none" stroke-dasharray="1.5 6"></path></g></g><mask></mask><g stroke-linecap="round"><g transform="translate(1042.7142857142858 519.6056730289844) rotate(0 -84.99999999999994 31.169106360716285)"><path d="M-0.09 0.8 C-28.44 11.49, -140.98 53.29, -169.14 63.42" stroke="#1e1e1e" stroke-width="2.5" fill="none" stroke-dasharray="1.5 8"></path></g><g transform="translate(1042.7142857142858 519.6056730289844) rotate(0 -84.99999999999994 31.169106360716285)"><path d="M-150.03 47.31 C-156.08 54.85, -162.86 61.15, -169.14 63.42" stroke="#1e1e1e" stroke-width="2.5" fill="none" stroke-dasharray="1.5 6"></path></g><g transform="translate(1042.7142857142858 519.6056730289844) rotate(0 -84.99999999999994 31.169106360716285)"><path d="M-144.14 63.37 C-152.33 64.8, -161.35 64.99, -169.14 63.42" stroke="#1e1e1e" stroke-width="2.5" fill="none" stroke-dasharray="1.5 6"></path></g></g><mask></mask></svg>