<svg version="1.1" xmlns="http://www.w3.org/2000/svg" viewBox="0 0 1107.681032445841 282.54716743993225" width="1107.681032445841" height="282.54716743993225">
  <!-- svg-source:excalidraw -->
  
  <defs>
    <style class="style-fonts">
      @font-face {
        font-family: "Virgil";
        src: url("https://excalidraw.com/Virgil.woff2");
      }
      @font-face {
        font-family: "Cascadia";
        src: url("https://excalidraw.com/Cascadia.woff2");
      }
      @font-face {
        font-family: "Assistant";
        src: url("https://excalidraw.com/Assistant-Regular.woff2");
      }
    </style>
    
  </defs>
  <rect x="0" y="0" width="1107.681032445841" height="282.54716743993225" fill="#ffffff"></rect><g stroke-linecap="round"><g transform="translate(145.32875077534572 30.330313011023293) rotate(0 467.7538647969999 0)"><path d="M0.54 -0.27 C156.58 -0.43, 780.21 -0.55, 935.84 -0.43 M-0.63 -1.46 C155.31 -1.5, 778.86 0.91, 935.06 0.88" stroke="#1e1e1e" stroke-width="2" fill="none"></path></g></g><mask></mask><g stroke-linecap="round"><g transform="translate(148.09137496279993 220.06479129020784) rotate(0 432.00446968198065 0)"><path d="M-0.32 1.12 C143.4 1.35, 718.96 1.09, 863.21 0.87" stroke="#1e1e1e" stroke-width="2.5" fill="none" stroke-dasharray="8 10"></path></g></g><mask></mask><g transform="translate(67.99937510572909 16.444375011747667) rotate(0 26.55999755859375 12.500000000000014)"><text x="0" y="17.52" font-family="Virgil, Segoe UI Emoji" font-size="20px" fill="#1e1e1e" text-anchor="start" style="white-space: pre;" direction="ltr" dominant-baseline="alphabetic">进程A</text></g><g transform="translate(76.0548438704136 209.77562536417759) rotate(0 27.269996643066406 12.5)"><text x="0" y="17.52" font-family="Virgil, Segoe UI Emoji" font-size="20px" fill="#1e1e1e" text-anchor="start" style="white-space: pre;" direction="ltr" dominant-baseline="alphabetic">进程B</text></g><g stroke-linecap="round" transform="translate(187.2203128230608 10) rotate(0 52.36054697044983 17.5)"><path d="M8.75 0 C37.04 -2.76, 59.49 -4.34, 95.97 0 C102.59 -2.15, 108.23 4.42, 104.72 8.75 C104.23 15.99, 106.58 20.94, 104.72 26.25 C103.65 29.23, 104.21 37.21, 95.97 35 C76.49 31.26, 57.68 30.7, 8.75 35 C1.98 37.67, -2.36 30.34, 0 26.25 C1 20.53, -2.65 16.72, 0 8.75 C-1.04 1.61, 3.17 1.71, 8.75 0" stroke="none" stroke-width="0" fill="#ffffff"></path><path d="M8.75 0 C32.89 2.32, 61.67 0.46, 95.97 0 M8.75 0 C25.38 0.13, 42.91 -0.1, 95.97 0 M95.97 0 C100.82 -1.6, 103.84 2.84, 104.72 8.75 M95.97 0 C100.59 -0.63, 103.5 4.84, 104.72 8.75 M104.72 8.75 C105.4 14.71, 104.65 17.04, 104.72 26.25 M104.72 8.75 C105.25 13.13, 105.74 16.6, 104.72 26.25 M104.72 26.25 C104.22 32.68, 100.92 33.04, 95.97 35 M104.72 26.25 C104.56 29.98, 99.6 36, 95.97 35 M95.97 35 C63.47 34.84, 32.56 34.64, 8.75 35 M95.97 35 C72.19 35.4, 48.19 34.33, 8.75 35 M8.75 35 C2.94 35, -0.51 31.27, 0 26.25 M8.75 35 C3.54 34.69, 2.13 33.55, 0 26.25 M0 26.25 C0.68 22.48, 1.47 16.3, 0 8.75 M0 26.25 C0.65 19.41, -0.21 12.92, 0 8.75 M0 8.75 C-1.89 1.46, 2.27 0.05, 8.75 0 M0 8.75 C-1.73 2.62, 4.06 -0.47, 8.75 0" stroke="#1e1e1e" stroke-width="2" fill="none"></path></g><g transform="translate(199.58085979351063 15) rotate(0 40 12.5)"><text x="40" y="17.52" font-family="Virgil, Segoe UI Emoji" font-size="20px" fill="#1e1e1e" text-anchor="middle" style="white-space: pre;" direction="ltr" dominant-baseline="alphabetic">发起事务</text></g><g stroke-linecap="round" transform="translate(133.33785780127732 102.90643919714864) rotate(0 482.1715873222819 23.36087170925515)"><path d="M11.68 0 C386.89 4.54, 759.31 4.33, 952.66 0 C962.87 1.92, 962.81 5.09, 964.34 11.68 C965.25 17.06, 965.98 22.74, 964.34 35.04 C964.52 44.94, 957.7 45.93, 952.66 46.72 C678.27 43.51, 406.03 43.64, 11.68 46.72 C2.62 46.14, 1.13 45.03, 0 35.04 C-1.11 29.77, 0.62 18.14, 0 11.68 C3.58 5.19, 1.94 0.54, 11.68 0" stroke="none" stroke-width="0" fill="#ffffff"></path><path d="M11.68 0 C313.67 -3.71, 616.35 -4.43, 952.66 0 M11.68 0 C362.61 -0.56, 713.76 0.12, 952.66 0 M952.66 0 C960.77 0.13, 963.47 2.74, 964.34 11.68 M952.66 0 C962.44 -1.34, 963.93 4.42, 964.34 11.68 M964.34 11.68 C962.82 16.85, 963.52 23.4, 964.34 35.04 M964.34 11.68 C963.2 17.12, 965.15 22.14, 964.34 35.04 M964.34 35.04 C964.48 43.58, 960.35 48.08, 952.66 46.72 M964.34 35.04 C966.6 42.52, 958.64 48.71, 952.66 46.72 M952.66 46.72 C637.19 48.97, 320.94 49.95, 11.68 46.72 M952.66 46.72 C751.4 47.16, 550.84 46.85, 11.68 46.72 M11.68 46.72 C5.84 45.72, -1.05 41.16, 0 35.04 M11.68 46.72 C5.47 48.26, -1.92 45.08, 0 35.04 M0 35.04 C-0.91 26.94, 1.96 16.07, 0 11.68 M0 35.04 C-0.29 29.73, -0.76 22.9, 0 11.68 M0 11.68 C-1.34 4.91, 5.86 -1.51, 11.68 0 M0 11.68 C1.43 5.21, 5.11 -0.51, 11.68 0" stroke="#1e1e1e" stroke-width="2" fill="none"></path></g><g transform="translate(10 112.30447789483401) rotate(0 53.88993835449219 12.5)"><text x="0" y="17.52" font-family="Virgil, Segoe UI Emoji" font-size="20px" fill="#1e1e1e" text-anchor="start" style="white-space: pre;" direction="ltr" dominant-baseline="alphabetic">buffer pool</text></g><g transform="translate(145.33187524670097 113.1100247713025) rotate(0 15.439994812011719 12.5)"><text x="0" y="17.52" font-family="Virgil, Segoe UI Emoji" font-size="20px" fill="#1e1e1e" text-anchor="start" style="white-space: pre;" direction="ltr" dominant-baseline="alphabetic">A=1</text></g><g stroke-linecap="round"><g transform="translate(179.16484405837627 125.99877479479778) rotate(0 130.06704329009278 0)"><path d="M-0.75 0.89 C42.69 0.62, 216.93 -0.89, 260.61 -1.01" stroke="#1e1e1e" stroke-width="2.5" fill="none" stroke-dasharray="8 10"></path></g></g><mask></mask><g stroke-linecap="round" transform="translate(517.7314021920546 205.71821977576053) rotate(0 58.80492198219753 17.5)"><path d="M8.75 0 C50.12 -2.21, 84.3 -0.77, 108.86 0 C112.58 2.08, 117.99 2.23, 117.61 8.75 C116.53 12.88, 115.75 22.41, 117.61 26.25 C116.78 29.96, 117.58 37.17, 108.86 35 C79.92 35.3, 49.16 32.33, 8.75 35 C5.91 34.67, 1.01 35.42, 0 26.25 C3.11 19.03, -2.21 19.66, 0 8.75 C2.49 3.36, 2.26 3.55, 8.75 0" stroke="none" stroke-width="0" fill="#ffffff"></path><path d="M8.75 0 C44.37 1.47, 78.21 1.32, 108.86 0 M8.75 0 C28.46 -0.45, 49.72 -1.67, 108.86 0 M108.86 0 C113.29 -1.93, 119.21 2.62, 117.61 8.75 M108.86 0 C112.81 2.02, 118.72 4, 117.61 8.75 M117.61 8.75 C116.28 12.16, 118.87 17.79, 117.61 26.25 M117.61 8.75 C117.17 13.74, 117.46 19.29, 117.61 26.25 M117.61 26.25 C116.57 33.09, 114.34 33.71, 108.86 35 M117.61 26.25 C116.94 32.17, 116.31 34, 108.86 35 M108.86 35 C81.91 35.9, 54.41 37.3, 8.75 35 M108.86 35 C87.13 35.58, 64.32 35.27, 8.75 35 M8.75 35 C4.89 34.94, -1.79 31.33, 0 26.25 M8.75 35 C2.29 33.05, 0.56 33.15, 0 26.25 M0 26.25 C0.37 23.77, -0.87 18.81, 0 8.75 M0 26.25 C-0.44 21.93, -0.45 17.93, 0 8.75 M0 8.75 C-1.61 2.13, 2.6 1.17, 8.75 0 M0 8.75 C0.79 1.38, 1.06 -0.35, 8.75 0" stroke="#1e1e1e" stroke-width="2" fill="none"></path></g><g transform="translate(534.6563574384122 210.71821977576053) rotate(0 41.879966735839844 12.5)"><text x="41.879966735839844" y="17.52" font-family="Virgil, Segoe UI Emoji" font-size="20px" fill="#1e1e1e" text-anchor="middle" style="white-space: pre;" direction="ltr" dominant-baseline="alphabetic">Select A</text></g><g transform="translate(548.1638120946504 247.54716743993225) rotate(0 19.849990844726562 12.5)"><text x="0" y="17.52" font-family="Virgil, Segoe UI Emoji" font-size="20px" fill="#e03131" text-anchor="start" style="white-space: pre;" direction="ltr" dominant-baseline="alphabetic">A=2</text></g><g stroke-linecap="round" transform="translate(386.50876443776303 10.520300058336375) rotate(0 92.63789079387294 17.5)"><path d="M8.75 0 C52.61 0.5, 97.74 1.42, 176.53 0 C183.58 -3.23, 188.36 3.24, 185.28 8.75 C183.61 15.81, 187.83 18.09, 185.28 26.25 C183.68 33.95, 179.48 35.3, 176.53 35 C123.81 34.57, 68.96 33.18, 8.75 35 C1.63 35.23, -0.84 32.49, 0 26.25 C-0.16 21.58, -0.44 16.08, 0 8.75 C-0.23 2.6, -0.28 1.84, 8.75 0" stroke="none" stroke-width="0" fill="#ffffff"></path><path d="M8.75 0 C55.66 2.4, 106.1 2.03, 176.53 0 M8.75 0 C44.85 0.69, 80.34 1.94, 176.53 0 M176.53 0 C184.21 1.34, 185.45 3.69, 185.28 8.75 M176.53 0 C180.68 0.49, 183.95 3.76, 185.28 8.75 M185.28 8.75 C183.95 13.51, 186.6 20.96, 185.28 26.25 M185.28 8.75 C185.22 14.45, 185.3 19.47, 185.28 26.25 M185.28 26.25 C185.76 32.87, 184.08 35.55, 176.53 35 M185.28 26.25 C186.39 33.28, 184.35 34.11, 176.53 35 M176.53 35 C109.21 34.98, 45.47 36.25, 8.75 35 M176.53 35 C108.75 35.23, 41.87 35.07, 8.75 35 M8.75 35 C1.31 36.37, -0.02 31.72, 0 26.25 M8.75 35 C4.26 36.82, -0.61 31.2, 0 26.25 M0 26.25 C-1.65 21.37, -1.01 19.32, 0 8.75 M0 26.25 C-0.07 22.5, 0.74 19.03, 0 8.75 M0 8.75 C-1.8 1.95, 2.28 -0.44, 8.75 0 M0 8.75 C0.15 2.13, 1.19 2.23, 8.75 0" stroke="#1e1e1e" stroke-width="2" fill="none"></path></g><g transform="translate(398.65671840302264 15.520300058336375) rotate(0 80.48993682861322 12.5)"><text x="80.48993682861328" y="17.52" font-family="Virgil, Segoe UI Emoji" font-size="20px" fill="#1e1e1e" text-anchor="middle" style="white-space: pre;" direction="ltr" dominant-baseline="alphabetic">update set A=2</text></g><g stroke-linecap="round"><g transform="translate(469.96338464340977 45.64458418814189) rotate(0 0.2617294356589923 29.19768322545994)"><path d="M0.88 -0.45 C0.85 9.48, 0.12 49.48, 0.04 59.45 M-0.11 -1.74 C-0.37 7.89, -1.11 48, -1.17 57.88" stroke="#1e1e1e" stroke-width="2" fill="none"></path></g><g transform="translate(469.96338464340977 45.64458418814189) rotate(0 0.2617294356589923 29.19768322545994)"><path d="M-9.41 34.28 C-7.55 40.99, -2.38 49.13, -1.17 57.88 M-9.41 34.28 C-7.11 44.07, -3.85 51.72, -1.17 57.88" stroke="#1e1e1e" stroke-width="2" fill="none"></path></g><g transform="translate(469.96338464340977 45.64458418814189) rotate(0 0.2617294356589923 29.19768322545994)"><path d="M7.69 34.51 C4.06 41.27, 3.73 49.34, -1.17 57.88 M7.69 34.51 C3.45 44.29, 0.17 51.86, -1.17 57.88" stroke="#1e1e1e" stroke-width="2" fill="none"></path></g></g><mask></mask><g stroke-linecap="round" transform="translate(287.6528104954906 205.6467666909955) rotate(0 52.36054697044983 17.5)"><path d="M8.75 0 C31.87 0.18, 57.05 -0.85, 95.97 0 C101.68 -0.66, 107.46 0.64, 104.72 8.75 C103.11 12.41, 105.88 20.12, 104.72 26.25 C105.13 33.11, 105.27 32.87, 95.97 35 C71.65 36.07, 46.62 30.63, 8.75 35 C6.51 33.07, -2.04 31.67, 0 26.25 C2.05 20.03, -1.02 18.11, 0 8.75 C-3.14 0.34, 3.09 2.71, 8.75 0" stroke="none" stroke-width="0" fill="#ffffff"></path><path d="M8.75 0 C40.47 1.35, 68.79 0.63, 95.97 0 M8.75 0 C34.86 -0.05, 62.7 -0.97, 95.97 0 M95.97 0 C102.44 1.57, 106.05 2.74, 104.72 8.75 M95.97 0 C101.87 -0.77, 103.75 3.95, 104.72 8.75 M104.72 8.75 C105.7 13.66, 103.4 19.49, 104.72 26.25 M104.72 8.75 C104.85 12.61, 104 17.89, 104.72 26.25 M104.72 26.25 C105.12 31.08, 103.02 34.75, 95.97 35 M104.72 26.25 C102.54 31.88, 103.28 34.09, 95.97 35 M95.97 35 C66.96 36.14, 40.76 34.91, 8.75 35 M95.97 35 C75.93 36.53, 55.73 36.17, 8.75 35 M8.75 35 C4.17 36.67, 1.4 33.96, 0 26.25 M8.75 35 C1.41 36.66, 1.94 32.23, 0 26.25 M0 26.25 C0.48 22.01, 1.49 17.02, 0 8.75 M0 26.25 C-0.52 20.71, 0.48 14.77, 0 8.75 M0 8.75 C0.31 4.8, 3.51 1.24, 8.75 0 M0 8.75 C-1.19 0.8, 1.48 -1.45, 8.75 0" stroke="#1e1e1e" stroke-width="2" fill="none"></path></g><g transform="translate(300.01335746594043 210.6467666909955) rotate(0 40 12.5)"><text x="40" y="17.52" font-family="Virgil, Segoe UI Emoji" font-size="20px" fill="#1e1e1e" text-anchor="middle" style="white-space: pre;" direction="ltr" dominant-baseline="alphabetic">发起事务</text></g><g transform="translate(441.2082685841892 114.31450379023767) rotate(0 19.849990844726562 12.5)"><text x="0" y="17.52" font-family="Virgil, Segoe UI Emoji" font-size="20px" fill="#1e1e1e" text-anchor="start" style="white-space: pre;" direction="ltr" dominant-baseline="alphabetic">A=2</text></g><g stroke-linecap="round"><g transform="translate(485.0284534325599 125.83042592332373) rotate(0 157.56767446478386 0)"><path d="M-0.35 0.21 C52.14 0.03, 263.12 -1.05, 315.77 -0.91" stroke="#1e1e1e" stroke-width="2.5" fill="none" stroke-dasharray="8 10"></path></g></g><mask></mask><g stroke-linecap="round"><g transform="translate(579.6439814286946 152.50126270278423) rotate(0 1.3309000328149523 24.821393293155324)"><path d="M-0.13 0.45 C0.24 8.77, 1.91 41.45, 2.44 49.69 M0.8 0.2 C1.07 8.64, 1.54 42.29, 1.89 50.42" stroke="#1e1e1e" stroke-width="2" fill="none"></path></g><g transform="translate(579.6439814286946 152.50126270278423) rotate(0 1.3309000328149523 24.821393293155324)"><path d="M-7.22 27.29 C-3.4 34.65, -1.07 43.54, 1.89 50.42 M-7.22 27.29 C-4.45 35.82, -0.67 43.84, 1.89 50.42" stroke="#1e1e1e" stroke-width="2" fill="none"></path></g><g transform="translate(579.6439814286946 152.50126270278423) rotate(0 1.3309000328149523 24.821393293155324)"><path d="M9.77 26.84 C7.9 34.33, 4.53 43.37, 1.89 50.42 M9.77 26.84 C6.66 35.45, 4.54 43.63, 1.89 50.42" stroke="#1e1e1e" stroke-width="2" fill="none"></path></g></g><mask></mask><g stroke-linecap="round" transform="translate(736.1659807526648 12.803634182635108) rotate(0 92.637890793873 17.5)"><path d="M8.75 0 C62.35 -1.39, 117.96 -2.45, 176.53 0 C184.63 -0.56, 185.23 5.19, 185.28 8.75 C185.86 14.71, 186.29 21.19, 185.28 26.25 C186.78 31.79, 180.4 35.81, 176.53 35 C134.26 35.97, 85.59 35.9, 8.75 35 C-0.45 32.21, -0.22 33.93, 0 26.25 C0.71 19.31, 1.15 15.01, 0 8.75 C-2.17 1.34, 2.43 1.88, 8.75 0" stroke="none" stroke-width="0" fill="#ffffff"></path><path d="M8.75 0 C76.17 -0.4, 140.36 -0.34, 176.53 0 M8.75 0 C61.67 1.28, 114.84 1.64, 176.53 0 M176.53 0 C182.88 -1.77, 186.23 1.09, 185.28 8.75 M176.53 0 C184.35 -1.54, 184 2.32, 185.28 8.75 M185.28 8.75 C184.24 10.61, 185.24 17.09, 185.28 26.25 M185.28 8.75 C185.84 12.2, 185.97 16.12, 185.28 26.25 M185.28 26.25 C186.56 32.02, 183.23 35.8, 176.53 35 M185.28 26.25 C184.03 34.1, 183.74 37.22, 176.53 35 M176.53 35 C139.96 31.77, 102.8 33.7, 8.75 35 M176.53 35 C136.59 33.67, 96.9 32.67, 8.75 35 M8.75 35 C4.48 35.36, -0.62 30.5, 0 26.25 M8.75 35 C4.54 34.41, 1.92 30.44, 0 26.25 M0 26.25 C-0.73 19.31, 0.51 15.64, 0 8.75 M0 26.25 C-0.58 20.92, -0.46 15.45, 0 8.75 M0 8.75 C-0.72 2.99, 1.77 1.48, 8.75 0 M0 8.75 C1.03 3.32, 3 -2.14, 8.75 0" stroke="#1e1e1e" stroke-width="2" fill="none"></path></g><g transform="translate(749.2539371593307 17.803634182635108) rotate(0 79.54993438720703 12.5)"><text x="79.54993438720703" y="17.52" font-family="Virgil, Segoe UI Emoji" font-size="20px" fill="#1e1e1e" text-anchor="middle" style="white-space: pre;" direction="ltr" dominant-baseline="alphabetic">update set A=5</text></g><g stroke-linecap="round"><g transform="translate(824.985195655283 49.39701363890839) rotate(0 0 23.86672432034166)"><path d="M-0.21 -0.1 C-0.18 7.95, 0 40.19, 0.1 48.1 M0.68 -0.62 C0.66 7.28, -0.21 39.26, -0.29 47.33" stroke="#1e1e1e" stroke-width="2" fill="none"></path></g><g transform="translate(824.985195655283 49.39701363890839) rotate(0 0 23.86672432034166)"><path d="M-8.02 24.75 C-6.06 31.27, -3.04 38.13, -0.29 47.33 M-8.02 24.75 C-6.29 30.48, -4.5 34.88, -0.29 47.33" stroke="#1e1e1e" stroke-width="2" fill="none"></path></g><g transform="translate(824.985195655283 49.39701363890839) rotate(0 0 23.86672432034166)"><path d="M8.3 25.06 C5.69 31.46, 4.13 38.24, -0.29 47.33 M8.3 25.06 C6.21 30.76, 4.19 35.08, -0.29 47.33" stroke="#1e1e1e" stroke-width="2" fill="none"></path></g></g><mask></mask><g transform="translate(807.0445427561833 115.17986940962902) rotate(0 18.909988403320312 12.5)"><text x="0" y="17.52" font-family="Virgil, Segoe UI Emoji" font-size="20px" fill="#1e1e1e" text-anchor="start" style="white-space: pre;" direction="ltr" dominant-baseline="alphabetic">A=5</text></g><g stroke-linecap="round"><g transform="translate(853.6252648396928 125.77053146400164) rotate(0 120.28829057452185 0)"><path d="M-0.26 1 C39.96 1.23, 200.35 0.46, 240.46 0.4" stroke="#1e1e1e" stroke-width="2.5" fill="none" stroke-dasharray="8 10"></path></g></g><mask></mask><g stroke-linecap="round" transform="translate(896.0152539757441 204.78461918944464) rotate(0 58.80492198219747 17.5)"><path d="M8.75 0 C30.95 -3.66, 63.11 0.17, 108.86 0 C115.06 -0.89, 118.78 -0.23, 117.61 8.75 C117.4 17.5, 115.88 22.26, 117.61 26.25 C117.72 35.57, 111.66 32.98, 108.86 35 C75.07 39.15, 39.58 36.99, 8.75 35 C5.39 33.68, 3.35 35.56, 0 26.25 C-0.43 23.43, -2.75 14.76, 0 8.75 C1.49 2.62, 4.2 0.79, 8.75 0" stroke="none" stroke-width="0" fill="#ffffff"></path><path d="M8.75 0 C38.5 0.42, 65.3 0.31, 108.86 0 M8.75 0 C45.79 -0.16, 82.67 -0.44, 108.86 0 M108.86 0 C116.61 0.64, 117.87 4.27, 117.61 8.75 M108.86 0 C112.99 0.24, 118.54 1.85, 117.61 8.75 M117.61 8.75 C118.57 12.92, 115.94 15.84, 117.61 26.25 M117.61 8.75 C117.1 13.82, 117.06 17.14, 117.61 26.25 M117.61 26.25 C119.03 32.83, 113.57 35.32, 108.86 35 M117.61 26.25 C116.88 32.02, 114.73 36.78, 108.86 35 M108.86 35 C77.49 34.04, 41.34 34.23, 8.75 35 M108.86 35 C86.73 33.64, 62.83 34.8, 8.75 35 M8.75 35 C3.37 33.02, -1.91 31.93, 0 26.25 M8.75 35 C4.42 34.13, -1.49 30.67, 0 26.25 M0 26.25 C0.36 20.72, 0.4 16.33, 0 8.75 M0 26.25 C0.91 20.87, 0.91 14.45, 0 8.75 M0 8.75 C1.27 3.98, 4.8 1.16, 8.75 0 M0 8.75 C-1.32 3.08, 3.7 -0.27, 8.75 0" stroke="#1e1e1e" stroke-width="2" fill="none"></path></g><g transform="translate(912.9402092221017 209.78461918944464) rotate(0 41.879966735839844 12.5)"><text x="41.879966735839844" y="17.52" font-family="Virgil, Segoe UI Emoji" font-size="20px" fill="#1e1e1e" text-anchor="middle" style="white-space: pre;" direction="ltr" dominant-baseline="alphabetic">Select A</text></g><g transform="translate(926.4476638783399 246.6135668536163) rotate(0 18.909988403320312 12.5)"><text x="0" y="17.52" font-family="Virgil, Segoe UI Emoji" font-size="20px" fill="#e03131" text-anchor="start" style="white-space: pre;" direction="ltr" dominant-baseline="alphabetic">A=5</text></g><g stroke-linecap="round"><g transform="translate(957.927833212384 151.56766211646828) rotate(0 1.3309000328149523 24.821393293155324)"><path d="M-0.43 0.55 C-0.06 8.83, 2.08 41.87, 2.54 50.1 M0.35 0.35 C0.61 8.46, 1.52 41.26, 2.04 49.38" stroke="#1e1e1e" stroke-width="2" fill="none"></path></g><g transform="translate(957.927833212384 151.56766211646828) rotate(0 1.3309000328149523 24.821393293155324)"><path d="M-7.46 26.41 C-2.94 34.54, 0.35 42.47, 2.04 49.38 M-7.46 26.41 C-3.9 34.9, -0.96 42.79, 2.04 49.38" stroke="#1e1e1e" stroke-width="2" fill="none"></path></g><g transform="translate(957.927833212384 151.56766211646828) rotate(0 1.3309000328149523 24.821393293155324)"><path d="M9.53 25.67 C7.9 34, 5.03 42.2, 2.04 49.38 M9.53 25.67 C7.04 34.45, 3.95 42.6, 2.04 49.38" stroke="#1e1e1e" stroke-width="2" fill="none"></path></g></g><mask></mask><g stroke-linecap="round"><g transform="translate(921.0855414202454 258.85999558953125) rotate(0 -161.80548571630493 0)"><path d="M0.79 -0.05 C-53.24 -0.28, -270.31 -0.83, -324.39 -0.88" stroke="#e03131" stroke-width="2.5" fill="none" stroke-dasharray="8 10"></path></g><g transform="translate(921.0855414202454 258.85999558953125) rotate(0 -161.80548571630493 0)"><path d="M-22.72 8.44 C-16.15 4.57, -10.85 3.28, 0.79 -0.05" stroke="#e03131" stroke-width="2.5" fill="none"></path></g><g transform="translate(921.0855414202454 258.85999558953125) rotate(0 -161.80548571630493 0)"><path d="M-22.68 -8.66 C-16.04 -7.67, -10.75 -4.09, 0.79 -0.05" stroke="#e03131" stroke-width="2.5" fill="none"></path></g><g transform="translate(921.0855414202454 258.85999558953125) rotate(0 -161.80548571630493 0)"><path d="M-300.88 -9.39 C-307.62 -8.11, -315.69 -4.57, -324.39 -0.88" stroke="#e03131" stroke-width="2.5" fill="none"></path></g><g transform="translate(921.0855414202454 258.85999558953125) rotate(0 -161.80548571630493 0)"><path d="M-300.92 7.71 C-307.71 4.12, -315.78 2.8, -324.39 -0.88" stroke="#e03131" stroke-width="2.5" fill="none"></path></g></g><mask></mask><g transform="translate(718.8286842748641 233.39061357863142) rotate(0 44.4599609375 12.5)"><text x="0" y="17.52" font-family="Virgil, Segoe UI Emoji" font-size="20px" fill="#e03131" text-anchor="start" style="white-space: pre;" direction="ltr" dominant-baseline="alphabetic">conflict!!!</text></g></svg>