<svg version="1.1" xmlns="http://www.w3.org/2000/svg" viewBox="0 0 972.1564079857171 300.35838442384096" width="972.1564079857171" height="300.35838442384096">
  <!-- svg-source:excalidraw -->
  
  <defs>
    <style class="style-fonts">
      @font-face {
        font-family: "Virgil";
        src: url("https://excalidraw.com/Virgil.woff2");
      }
      @font-face {
        font-family: "Cascadia";
        src: url("https://excalidraw.com/Cascadia.woff2");
      }
      @font-face {
        font-family: "Assistant";
        src: url("https://excalidraw.com/Assistant-Regular.woff2");
      }
    </style>
    
  </defs>
  <rect x="0" y="0" width="972.1564079857171" height="300.35838442384096" fill="#ffffff"></rect><g stroke-linecap="round"><g transform="translate(142.10656326947196 30.330313011023293) rotate(0 407 0)"><path d="M0.54 -0.27 C136.33 -0.43, 678.95 -0.55, 814.33 -0.43 M-0.63 -1.46 C135.06 -1.5, 677.6 0.91, 813.55 0.88" stroke="#1e1e1e" stroke-width="2" fill="none"></path></g></g><mask></mask><g stroke-linecap="round"><g transform="translate(141.64699995105218 229.7313538078293) rotate(0 406.99999999999994 0)"><path d="M-0.32 1.12 C135.07 1.35, 677.28 1.09, 813.2 0.87 M1.71 0.67 C137.4 0.6, 679.94 -0.86, 815.49 -0.79" stroke="#1e1e1e" stroke-width="2" fill="none"></path></g></g><mask></mask><g transform="translate(67.99937510572909 16.444375011747667) rotate(0 26.55999755859375 12.500000000000014)"><text x="0" y="17.52" font-family="Virgil, Segoe UI Emoji" font-size="20px" fill="#1e1e1e" text-anchor="start" style="white-space: pre;" direction="ltr" dominant-baseline="alphabetic">进程A</text></g><g transform="translate(71.22156261160285 219.44218788179904) rotate(0 27.269996643066406 12.5)"><text x="0" y="17.52" font-family="Virgil, Segoe UI Emoji" font-size="20px" fill="#1e1e1e" text-anchor="start" style="white-space: pre;" direction="ltr" dominant-baseline="alphabetic">进程B</text></g><g stroke-linecap="round" transform="translate(187.2203128230608 10) rotate(0 52.36054697044983 17.5)"><path d="M8.75 0 C37.04 -2.76, 59.49 -4.34, 95.97 0 C102.59 -2.15, 108.23 4.42, 104.72 8.75 C104.23 15.99, 106.58 20.94, 104.72 26.25 C103.65 29.23, 104.21 37.21, 95.97 35 C76.49 31.26, 57.68 30.7, 8.75 35 C1.98 37.67, -2.36 30.34, 0 26.25 C1 20.53, -2.65 16.72, 0 8.75 C-1.04 1.61, 3.17 1.71, 8.75 0" stroke="none" stroke-width="0" fill="#ffffff"></path><path d="M8.75 0 C32.89 2.32, 61.67 0.46, 95.97 0 M8.75 0 C25.38 0.13, 42.91 -0.1, 95.97 0 M95.97 0 C100.82 -1.6, 103.84 2.84, 104.72 8.75 M95.97 0 C100.59 -0.63, 103.5 4.84, 104.72 8.75 M104.72 8.75 C105.4 14.71, 104.65 17.04, 104.72 26.25 M104.72 8.75 C105.25 13.13, 105.74 16.6, 104.72 26.25 M104.72 26.25 C104.22 32.68, 100.92 33.04, 95.97 35 M104.72 26.25 C104.56 29.98, 99.6 36, 95.97 35 M95.97 35 C63.47 34.84, 32.56 34.64, 8.75 35 M95.97 35 C72.19 35.4, 48.19 34.33, 8.75 35 M8.75 35 C2.94 35, -0.51 31.27, 0 26.25 M8.75 35 C3.54 34.69, 2.13 33.55, 0 26.25 M0 26.25 C0.68 22.48, 1.47 16.3, 0 8.75 M0 26.25 C0.65 19.41, -0.21 12.92, 0 8.75 M0 8.75 C-1.89 1.46, 2.27 0.05, 8.75 0 M0 8.75 C-1.73 2.62, 4.06 -0.47, 8.75 0" stroke="#1e1e1e" stroke-width="2" fill="none"></path></g><g transform="translate(199.58085979351063 15) rotate(0 40 12.5)"><text x="40" y="17.52" font-family="Virgil, Segoe UI Emoji" font-size="20px" fill="#1e1e1e" text-anchor="middle" style="white-space: pre;" direction="ltr" dominant-baseline="alphabetic">发起事务</text></g><g stroke-linecap="round" transform="translate(334.63539121678855 11.027578158774588) rotate(0 92.63789079387294 17.5)"><path d="M8.75 0 C53.92 -1.03, 92.87 3.65, 176.53 0 C183.45 -3.12, 182.06 3.21, 185.28 8.75 C182.95 13.18, 182.91 16.28, 185.28 26.25 C186.48 34.63, 179.78 34.77, 176.53 35 C124.02 31.89, 75.59 34.59, 8.75 35 C5.05 35.39, 2.61 33.73, 0 26.25 C0.86 23, 1.71 16.39, 0 8.75 C-1.16 4.89, 3.36 -0.78, 8.75 0" stroke="none" stroke-width="0" fill="#ffffff"></path><path d="M8.75 0 C72.78 -2.22, 136.75 -1.71, 176.53 0 M8.75 0 C66.07 -1.12, 122.2 -1.26, 176.53 0 M176.53 0 C182.4 0.04, 186.72 2.52, 185.28 8.75 M176.53 0 C183.69 -1.47, 185.12 1.86, 185.28 8.75 M185.28 8.75 C185.03 14.52, 185.33 19.58, 185.28 26.25 M185.28 8.75 C184.95 16.1, 184.46 21.99, 185.28 26.25 M185.28 26.25 C185.36 30.72, 183.19 34.98, 176.53 35 M185.28 26.25 C185.4 31.09, 182.59 33.06, 176.53 35 M176.53 35 C111.69 36.34, 48.84 37.59, 8.75 35 M176.53 35 C114.23 34.34, 51.75 34.35, 8.75 35 M8.75 35 C2.8 33.53, -1.85 31.15, 0 26.25 M8.75 35 C1.54 32.84, -2.17 33.19, 0 26.25 M0 26.25 C-0.47 23.52, 1 20.36, 0 8.75 M0 26.25 C-0.42 22.49, 0.73 17.3, 0 8.75 M0 8.75 C-1.69 2.32, 0.99 -1.86, 8.75 0 M0 8.75 C-1.74 3.72, 3.25 -0.04, 8.75 0" stroke="#1e1e1e" stroke-width="2" fill="none"></path></g><g transform="translate(344.313343961345 16.02757815877459) rotate(0 82.9599380493164 12.5)"><text x="82.9599380493164" y="17.52" font-family="Virgil, Segoe UI Emoji" font-size="20px" fill="#1e1e1e" text-anchor="middle" style="white-space: pre;" direction="ltr" dominant-baseline="alphabetic">update set A=10</text></g><g stroke-linecap="round" transform="translate(127.60984396439494 102.90643919714864) rotate(0 417.2732820106611 23.36087170925515)"><path d="M11.68 0 C335.31 3.75, 656.13 3.54, 822.87 0 C833.07 1.92, 833.01 5.09, 834.55 11.68 C835.45 17.06, 836.19 22.74, 834.55 35.04 C834.72 44.94, 827.91 45.93, 822.87 46.72 C586.16 43.97, 351.6 44.1, 11.68 46.72 C2.62 46.14, 1.13 45.03, 0 35.04 C-1.11 29.77, 0.62 18.14, 0 11.68 C3.58 5.19, 1.94 0.54, 11.68 0" stroke="none" stroke-width="0" fill="#ffffff"></path><path d="M11.68 0 C271.95 -3.2, 532.91 -3.92, 822.87 0 M11.68 0 C314.22 -0.53, 616.97 0.14, 822.87 0 M822.87 0 C830.98 0.13, 833.68 2.74, 834.55 11.68 M822.87 0 C832.64 -1.34, 834.13 4.42, 834.55 11.68 M834.55 11.68 C833.03 16.85, 833.72 23.4, 834.55 35.04 M834.55 11.68 C833.4 17.12, 835.36 22.14, 834.55 35.04 M834.55 35.04 C834.68 43.58, 830.55 48.08, 822.87 46.72 M834.55 35.04 C836.8 42.52, 828.84 48.71, 822.87 46.72 M822.87 46.72 C550.96 48.58, 278.28 49.57, 11.68 46.72 M822.87 46.72 C649.34 47.09, 476.52 46.78, 11.68 46.72 M11.68 46.72 C5.84 45.72, -1.05 41.16, 0 35.04 M11.68 46.72 C5.47 48.26, -1.92 45.08, 0 35.04 M0 35.04 C-0.91 26.94, 1.96 16.07, 0 11.68 M0 35.04 C-0.29 29.73, -0.76 22.9, 0 11.68 M0 11.68 C-1.34 4.91, 5.86 -1.51, 11.68 0 M0 11.68 C1.43 5.21, 5.11 -0.51, 11.68 0" stroke="#1e1e1e" stroke-width="2" fill="none"></path></g><g transform="translate(10 112.30447789483401) rotate(0 53.88993835449219 12.5)"><text x="0" y="17.52" font-family="Virgil, Segoe UI Emoji" font-size="20px" fill="#1e1e1e" text-anchor="start" style="white-space: pre;" direction="ltr" dominant-baseline="alphabetic">buffer pool</text></g><g transform="translate(145.33187524670097 114.72111852423944) rotate(0 15.439994812011719 12.5)"><text x="0" y="17.52" font-family="Virgil, Segoe UI Emoji" font-size="20px" fill="#1e1e1e" text-anchor="start" style="white-space: pre;" direction="ltr" dominant-baseline="alphabetic">A=1</text></g><g stroke-linecap="round"><g transform="translate(420.82890699891357 53.499555912636595) rotate(0 0.8055468764684974 23.36085941758529)"><path d="M-0.44 -0.26 C-0.25 7.5, 1.01 38.68, 1.35 46.43 M0.33 0.79 C0.42 8.64, 0.63 39.35, 0.78 46.98" stroke="#1e1e1e" stroke-width="2" fill="none"></path></g><g transform="translate(420.82890699891357 53.499555912636595) rotate(0 0.8055468764684974 23.36085941758529)"><path d="M-7.49 25.11 C-5.26 31.92, -2.57 39.67, 0.78 46.98 M-7.49 25.11 C-5.54 29.2, -4.26 34.42, 0.78 46.98" stroke="#1e1e1e" stroke-width="2" fill="none"></path></g><g transform="translate(420.82890699891357 53.499555912636595) rotate(0 0.8055468764684974 23.36085941758529)"><path d="M8.5 24.91 C5.42 31.72, 2.81 39.54, 0.78 46.98 M8.5 24.91 C7.16 29.07, 5.14 34.34, 0.78 46.98" stroke="#1e1e1e" stroke-width="2" fill="none"></path></g></g><mask></mask><g stroke-linecap="round"><g transform="translate(179.16484405837627 125.99877479479778) rotate(0 106.33218769383643 0.805546876468469)"><path d="M-0.75 0.89 C34.78 0.89, 177.37 0.46, 213.14 0.6" stroke="#1e1e1e" stroke-width="2.5" fill="none" stroke-dasharray="8 10"></path></g></g><mask></mask><g transform="translate(396.6625007048599 114.72111852423944) rotate(0 22.319992065429688 12.5)"><text x="0" y="17.52" font-family="Virgil, Segoe UI Emoji" font-size="20px" fill="#1e1e1e" text-anchor="start" style="white-space: pre;" direction="ltr" dominant-baseline="alphabetic">A=10</text></g><g stroke-linecap="round"><g transform="translate(446.60640704590423 127.07287007454204) rotate(0 107.13773457030481 -0.8055468764684406)"><path d="M0 -0.52 C35.4 -0.52, 177.87 -0.63, 213.62 -0.94" stroke="#e03131" stroke-width="2.5" fill="none" stroke-dasharray="8 10"></path></g></g><mask></mask><g stroke-linecap="round" transform="translate(493.3281258810746 217.29412023900937) rotate(0 58.80492198219747 17.5)"><path d="M8.75 0 C50.12 -2.21, 84.3 -0.77, 108.86 0 C112.58 2.08, 117.99 2.23, 117.61 8.75 C116.53 12.88, 115.75 22.41, 117.61 26.25 C116.78 29.96, 117.58 37.17, 108.86 35 C79.92 35.3, 49.16 32.33, 8.75 35 C5.91 34.67, 1.01 35.42, 0 26.25 C3.11 19.03, -2.21 19.66, 0 8.75 C2.49 3.36, 2.26 3.55, 8.75 0" stroke="none" stroke-width="0" fill="#ffffff"></path><path d="M8.75 0 C44.37 1.47, 78.21 1.32, 108.86 0 M8.75 0 C28.46 -0.45, 49.72 -1.67, 108.86 0 M108.86 0 C113.29 -1.93, 119.21 2.62, 117.61 8.75 M108.86 0 C112.81 2.02, 118.72 4, 117.61 8.75 M117.61 8.75 C116.28 12.16, 118.87 17.79, 117.61 26.25 M117.61 8.75 C117.17 13.74, 117.46 19.29, 117.61 26.25 M117.61 26.25 C116.57 33.09, 114.34 33.71, 108.86 35 M117.61 26.25 C116.94 32.17, 116.31 34, 108.86 35 M108.86 35 C81.91 35.9, 54.41 37.3, 8.75 35 M108.86 35 C87.13 35.58, 64.32 35.27, 8.75 35 M8.75 35 C4.89 34.94, -1.79 31.33, 0 26.25 M8.75 35 C2.29 33.05, 0.56 33.15, 0 26.25 M0 26.25 C0.37 23.77, -0.87 18.81, 0 8.75 M0 26.25 C-0.44 21.93, -0.45 17.93, 0 8.75 M0 8.75 C-1.61 2.13, 2.6 1.17, 8.75 0 M0 8.75 C0.79 1.38, 1.06 -0.35, 8.75 0" stroke="#1e1e1e" stroke-width="2" fill="none"></path></g><g transform="translate(510.2530811274322 222.29412023900937) rotate(0 41.87996673583979 12.5)"><text x="41.879966735839844" y="17.52" font-family="Virgil, Segoe UI Emoji" font-size="20px" fill="#1e1e1e" text-anchor="middle" style="white-space: pre;" direction="ltr" dominant-baseline="alphabetic">Select A</text></g><g stroke-linecap="round"><g transform="translate(559.3829697514884 154.46146387446964) rotate(0 0 28.999687552864458)"><path d="M0.13 0.72 C-0.22 10.42, -1.01 49.46, -1.19 59.15 M-1.27 0.06 C-1.35 9.37, 0.45 48.15, 0.9 57.63" stroke="#e03131" stroke-width="2" fill="none"></path></g><g transform="translate(559.3829697514884 154.46146387446964) rotate(0 0 28.999687552864458)"><path d="M-8.72 34.56 C-3.71 41.25, 0.62 50.32, 0.9 57.63 M-8.72 34.56 C-5.86 42.82, -2.3 50.73, 0.9 57.63" stroke="#e03131" stroke-width="2" fill="none"></path></g><g transform="translate(559.3829697514884 154.46146387446964) rotate(0 0 28.999687552864458)"><path d="M8.36 33.77 C6.95 40.77, 4.85 50.14, 0.9 57.63 M8.36 33.77 C4.9 42.21, 2.12 50.41, 0.9 57.63" stroke="#e03131" stroke-width="2" fill="none"></path></g></g><mask></mask><g stroke-linecap="round" transform="translate(624.6322667454333 12.63869649505125) rotate(0 52.36054697044983 17.5)"><path d="M8.75 0 C36.04 -1.14, 56.92 0.68, 95.97 0 C102.62 -0.16, 103.6 -0.28, 104.72 8.75 C103.85 14.4, 105.64 23.93, 104.72 26.25 C102.46 33.71, 105.01 37.27, 95.97 35 C76.06 34.24, 62.01 35.96, 8.75 35 C6.5 33.78, -1.49 29.98, 0 26.25 C0.32 17.79, -1.41 16.04, 0 8.75 C-0.79 1.99, 3.84 -0.5, 8.75 0" stroke="none" stroke-width="0" fill="#ffffff"></path><path d="M8.75 0 C38.67 1.47, 71.32 1.11, 95.97 0 M8.75 0 C27.8 0.87, 46.24 0.55, 95.97 0 M95.97 0 C102.34 -0.17, 106.57 3.69, 104.72 8.75 M95.97 0 C104.02 -1.7, 106.88 5.13, 104.72 8.75 M104.72 8.75 C102.98 11.77, 103.42 16.96, 104.72 26.25 M104.72 8.75 C103.92 13.84, 104.14 20.35, 104.72 26.25 M104.72 26.25 C102.87 31.64, 102.66 36.58, 95.97 35 M104.72 26.25 C105.24 31.29, 100.72 36.93, 95.97 35 M95.97 35 C62.95 33.75, 30.26 33.26, 8.75 35 M95.97 35 C68.45 34.33, 40.88 35.17, 8.75 35 M8.75 35 C4.31 34.85, -0.44 33.43, 0 26.25 M8.75 35 C3.1 36.23, 0.9 32.75, 0 26.25 M0 26.25 C0.97 21.3, 1.83 17.31, 0 8.75 M0 26.25 C-0.85 21.7, -0.8 17.46, 0 8.75 M0 8.75 C-0.48 1.25, 3.86 -1.68, 8.75 0 M0 8.75 C-1.64 1.58, 5.11 0.76, 8.75 0" stroke="#1e1e1e" stroke-width="2" fill="none"></path></g><g transform="translate(637.7728430127581 17.63869649505125) rotate(0 39.219970703125 12.5)"><text x="39.219970703125" y="17.52" font-family="Virgil, Segoe UI Emoji" font-size="20px" fill="#1e1e1e" text-anchor="middle" style="white-space: pre;" direction="ltr" dominant-baseline="alphabetic">Rollback</text></g><g stroke-linecap="round"><g transform="translate(681.8260949746939 49.740345350230314) rotate(0 0 23.36087170925515)"><path d="M-0.09 -0.5 C-0.11 7.41, -0.23 39.33, -0.24 47.16 M-0.81 0.43 C-0.91 8.22, -0.83 38.66, -0.8 46.42" stroke="#1e1e1e" stroke-width="2" fill="none"></path></g><g transform="translate(681.8260949746939 49.740345350230314) rotate(0 0 23.36087170925515)"><path d="M-8.85 24.49 C-7.58 30.15, -3.63 36.37, -0.8 46.42 M-8.85 24.49 C-6.37 29.83, -4.35 35.77, -0.8 46.42" stroke="#1e1e1e" stroke-width="2" fill="none"></path></g><g transform="translate(681.8260949746939 49.740345350230314) rotate(0 0 23.36087170925515)"><path d="M7.13 24.45 C3.96 30.11, 3.47 36.34, -0.8 46.42 M7.13 24.45 C5.43 29.82, 3.27 35.77, -0.8 46.42" stroke="#1e1e1e" stroke-width="2" fill="none"></path></g></g><mask></mask><g transform="translate(523.9389071868765 265.35838442384096) rotate(0 22.319992065429744 12.5)"><text x="0" y="17.52" font-family="Virgil, Segoe UI Emoji" font-size="20px" fill="#e03131" text-anchor="start" style="white-space: pre;" direction="ltr" dominant-baseline="alphabetic">A=10</text></g><g transform="translate(664.1040636923883 113.91559623111061) rotate(0 15.439994812011719 12.5)"><text x="0" y="17.52" font-family="Virgil, Segoe UI Emoji" font-size="20px" fill="#1e1e1e" text-anchor="start" style="white-space: pre;" direction="ltr" dominant-baseline="alphabetic">A=1</text></g><g stroke-linecap="round"><g transform="translate(704.3814075158107 125.46177632160504) rotate(0 124.05421897614247 -0.805546876468469)"><path d="M0.86 -0.44 C42.19 -0.37, 207.82 -0.26, 248.97 -0.63" stroke="#1e1e1e" stroke-width="2.5" fill="none" stroke-dasharray="8 10"></path></g></g><mask></mask></svg>