<svg version="1.1" xmlns="http://www.w3.org/2000/svg" viewBox="0 0 1064.888888888889 823" width="1064.888888888889" height="823">
  <!-- svg-source:excalidraw -->
  
  <defs>
    <style class="style-fonts">
      @font-face {
        font-family: "Virgil";
        src: url("https://excalidraw.com/Virgil.woff2");
      }
      @font-face {
        font-family: "Cascadia";
        src: url("https://excalidraw.com/Cascadia.woff2");
      }
      @font-face {
        font-family: "Assistant";
        src: url("https://excalidraw.com/Assistant-Regular.woff2");
      }
    </style>
    
  </defs>
  <rect x="0" y="0" width="1064.888888888889" height="823" fill="#ffffff"></rect><g stroke-linecap="round" transform="translate(366.3888888888889 10) rotate(0 344.25 401.5)"><path d="M32 0 C226.03 0.4, 420.49 0.08, 656.5 0 M32 0 C223.32 -1.32, 415.69 -1.51, 656.5 0 M656.5 0 C676.68 -0.88, 690.39 11.29, 688.5 32 M656.5 0 C675.86 1.76, 689.39 9.66, 688.5 32 M688.5 32 C688.33 243.85, 689.11 455.57, 688.5 771 M688.5 32 C686.16 324.23, 686.15 616.74, 688.5 771 M688.5 771 C689.93 790.39, 677.76 804.73, 656.5 803 M688.5 771 C687.93 793.1, 678.91 804.35, 656.5 803 M656.5 803 C422.77 802.16, 189.02 802.07, 32 803 M656.5 803 C515.2 800.86, 373.81 800.96, 32 803 M32 803 C12.13 801.21, 0.7 791.03, 0 771 M32 803 C9.81 804.73, 1.8 792.7, 0 771 M0 771 C-0.48 570.52, -1.17 368.72, 0 32 M0 771 C1.51 520.96, 1.08 270.28, 0 32 M0 32 C1.39 10.02, 12.34 0.88, 32 0 M0 32 C2.17 11.9, 12.69 -0.7, 32 0" stroke="#1e1e1e" stroke-width="2" fill="none"></path></g><g stroke-linecap="round" transform="translate(10 284.7777777777777) rotate(0 106 67.77777777777777)"><path d="M32 0 C86.33 1.06, 139.87 -0.29, 180 0 M32 0 C83.75 1.5, 136.6 1.64, 180 0 M180 0 C202.22 1.88, 213.07 12.43, 212 32 M180 0 C200.63 -0.83, 210.03 9.8, 212 32 M212 32 C212.55 55.3, 210.73 79.41, 212 103.56 M212 32 C211.11 50.83, 211.22 68.36, 212 103.56 M212 103.56 C211.02 124.01, 202.5 134.2, 180 135.56 M212 103.56 C213.58 124.17, 202.88 134.18, 180 135.56 M180 135.56 C148.59 135.26, 116.2 133.2, 32 135.56 M180 135.56 C131.33 134.84, 81.1 135.02, 32 135.56 M32 135.56 C9.04 134.58, 1.49 125.14, 0 103.56 M32 135.56 C8.95 135.17, 0.92 123.77, 0 103.56 M0 103.56 C-1.04 88.07, 0.19 73.97, 0 32 M0 103.56 C0.53 83.42, 0.29 65.16, 0 32 M0 32 C-0.15 9.44, 11.42 -1.58, 32 0 M0 32 C1.67 8.92, 12.22 0.72, 32 0" stroke="#1e1e1e" stroke-width="2" fill="none"></path></g><g stroke-linecap="round" transform="translate(38 332.7777777777777) rotate(0 77 18)"><path d="M9 0 C50.59 1.73, 93.27 1.88, 145 0 M9 0 C59.65 0.76, 109.14 -0.43, 145 0 M145 0 C152.71 0.06, 154.17 4.07, 154 9 M145 0 C149.84 -1.43, 155.02 4.2, 154 9 M154 9 C154.8 12.78, 155.74 19.68, 154 27 M154 9 C154.35 13.69, 153.16 20.02, 154 27 M154 27 C154.91 33.4, 152.1 36.87, 145 36 M154 27 C153.23 34.1, 152.55 37.73, 145 36 M145 36 C106.55 35.27, 69.73 36.51, 9 36 M145 36 C112.88 35.96, 81.47 37.3, 9 36 M9 36 C1.26 35.83, 0.78 33.61, 0 27 M9 36 C3.22 36.12, -0.41 32.63, 0 27 M0 27 C-0.73 22.69, 1.91 17.41, 0 9 M0 27 C0.35 20.95, -0.24 14.85, 0 9 M0 9 C0.85 4.47, 4.86 0.32, 9 0 M0 9 C2.2 4.11, 2.92 1.1, 9 0" stroke="#1e1e1e" stroke-width="2" fill="none"></path></g><g transform="translate(68.44000244140625 338.2777777777777) rotate(0 46.55999755859375 12.5)"><text x="46.55999755859375" y="17.52" font-family="Virgil, Segoe UI Emoji" font-size="20px" fill="#1e1e1e" text-anchor="middle" style="white-space: pre;" direction="ltr" dominant-baseline="alphabetic">执行事务A</text></g><g stroke-linecap="round" transform="translate(408.3888888888889 41.22222222222217) rotate(0 170 331.8888888888889)"><path d="M32 0 C138.06 -0.6, 246.24 0.08, 308 0 M32 0 C130.5 -1.34, 228.81 -1.11, 308 0 M308 0 C330.69 1.02, 340.25 10.48, 340 32 M308 0 C330.92 0.1, 342.25 10.56, 340 32 M340 32 C341.79 160.19, 341.21 289.64, 340 631.78 M340 32 C338.89 203.6, 339.32 374.81, 340 631.78 M340 631.78 C341.08 653.59, 330.99 664.3, 308 663.78 M340 631.78 C339.64 653.32, 330.38 661.52, 308 663.78 M308 663.78 C210.93 661.01, 112.96 661.31, 32 663.78 M308 663.78 C218.35 663.8, 127.28 664.02, 32 663.78 M32 663.78 C11.64 664.98, -1.64 651.69, 0 631.78 M32 663.78 C11.15 663.05, 1.2 654.35, 0 631.78 M0 631.78 C-0.13 482.39, 1.32 330.77, 0 32 M0 631.78 C-0.33 407.86, -0.63 183.5, 0 32 M0 32 C-1.9 10.78, 9.58 -0.04, 32 0 M0 32 C-0.57 9.32, 12.47 -0.58, 32 0" stroke="#1e1e1e" stroke-width="2" fill="none"></path></g><g transform="translate(522.1666666666667 707.6666666666666) rotate(0 27.119979858398438 12.5)"><text x="0" y="17.52" font-family="Virgil, Segoe UI Emoji" font-size="20px" fill="#1e1e1e" text-anchor="start" style="white-space: pre;" direction="ltr" dominant-baseline="alphabetic">cache</text></g><g stroke-linecap="round" transform="translate(770.3888888888889 36.11111111111097) rotate(0 124.44444444444446 346.4444444444445)"><path d="M32 0 C105.25 -2.72, 175.56 -2.76, 216.89 0 M32 0 C80.61 -0.11, 128.8 -0.78, 216.89 0 M216.89 0 C237.05 -1.29, 249.59 9.87, 248.89 32 M216.89 0 C236 -2.1, 249.45 9.23, 248.89 32 M248.89 32 C250.98 283.28, 251.35 534.25, 248.89 660.89 M248.89 32 C248.6 236.77, 248.8 441.34, 248.89 660.89 M248.89 660.89 C247.57 684.17, 240.01 693.01, 216.89 692.89 M248.89 660.89 C250.65 683.31, 238.34 693.88, 216.89 692.89 M216.89 692.89 C169.28 695.53, 117.4 695.79, 32 692.89 M216.89 692.89 C152.04 693.7, 88.71 693.41, 32 692.89 M32 692.89 C11.79 691.55, 1.38 683.83, 0 660.89 M32 692.89 C8.89 692.51, 1.8 680.12, 0 660.89 M0 660.89 C-1.16 514.5, -1.96 367.33, 0 32 M0 660.89 C-2.16 438.58, -2.03 216.94, 0 32 M0 32 C0.85 10.22, 9.02 0.66, 32 0 M0 32 C-2.26 12.33, 8.95 -0.23, 32 0" stroke="#1e1e1e" stroke-width="2" fill="none"></path></g><g transform="translate(871.7222222222222 738.5555555555555) rotate(0 20 12.5)"><text x="0" y="17.52" font-family="Virgil, Segoe UI Emoji" font-size="20px" fill="#1e1e1e" text-anchor="start" style="white-space: pre;" direction="ltr" dominant-baseline="alphabetic">磁盘</text></g><g stroke-linecap="round" transform="translate(452.3888888888889 313) rotate(0 72 26)"><path d="M13 0 C38.92 -0.43, 63.5 0.76, 131 0 M13 0 C52.69 1.18, 91.92 0.36, 131 0 M131 0 C139.78 1.35, 144.47 5.48, 144 13 M131 0 C140.4 2.06, 143.79 2.93, 144 13 M144 13 C143.39 21.24, 143.18 31.94, 144 39 M144 13 C143.63 21.32, 144.09 31.68, 144 39 M144 39 C145.23 48.5, 139.43 52.93, 131 52 M144 39 C145.29 45.57, 140.98 53.58, 131 52 M131 52 C98.67 53.35, 71.03 50.61, 13 52 M131 52 C103.14 53.87, 75.15 52.5, 13 52 M13 52 C2.74 53.5, -0.34 46.05, 0 39 M13 52 C6.39 53.13, -0.38 46.53, 0 39 M0 39 C0.18 33.9, 0.92 27.81, 0 13 M0 39 C0.04 29.83, 0.45 18.94, 0 13 M0 13 C1.23 5.53, 6.25 1.59, 13 0 M0 13 C-1.47 4.81, 4.22 -0.09, 13 0" stroke="#1e1e1e" stroke-width="2" fill="none"></path></g><g transform="translate(470.1889300876194 326.5) rotate(0 54.19995880126953 12.5)"><text x="54.19995880126953" y="17.52" font-family="Virgil, Segoe UI Emoji" font-size="20px" fill="#1e1e1e" text-anchor="middle" style="white-space: pre;" direction="ltr" dominant-baseline="alphabetic">page cache</text></g><g stroke-linecap="round"><g transform="translate(196.5 342.55082130380174) rotate(0 125.94444444444446 -4.192089278462561)"><path d="M1.13 -1.01 C43.1 -2.25, 209.55 -6.05, 251.37 -7.27 M0.26 1.08 C42.07 -0.49, 208.29 -7.47, 250.14 -8.81" stroke="#1e1e1e" stroke-width="2" fill="none"></path></g><g transform="translate(196.5 342.55082130380174) rotate(0 125.94444444444446 -4.192089278462561)"><path d="M226.99 0.62 C231.35 -2.93, 240.94 -4.25, 250.14 -8.81 M226.99 0.62 C234.87 -3, 240.46 -5.38, 250.14 -8.81" stroke="#1e1e1e" stroke-width="2" fill="none"></path></g><g transform="translate(196.5 342.55082130380174) rotate(0 125.94444444444446 -4.192089278462561)"><path d="M226.35 -16.47 C230.9 -15.56, 240.66 -12.41, 250.14 -8.81 M226.35 -16.47 C234.39 -14.86, 240.17 -12.01, 250.14 -8.81" stroke="#1e1e1e" stroke-width="2" fill="none"></path></g></g><mask></mask><g transform="translate(228.3888888888889 308.33333333333337) rotate(0 65.44999694824219 12.5)"><text x="0" y="17.52" font-family="Virgil, Segoe UI Emoji" font-size="20px" fill="#1e1e1e" text-anchor="start" style="white-space: pre;" direction="ltr" dominant-baseline="alphabetic">1.发送更新命令</text></g><g stroke-linecap="round"><g transform="translate(861.6304799680795 315.2048063494624) rotate(0 -127.62079553959524 4.8987087633280595)"><path d="M-0.72 -0.37 C-43.57 1.37, -213.74 7.6, -256.28 9.38 M1.11 -1.61 C-41.46 0.4, -211.69 9.05, -254.11 10.69" stroke="#1e1e1e" stroke-width="2" fill="none"></path></g><g transform="translate(861.6304799680795 315.2048063494624) rotate(0 -127.62079553959524 4.8987087633280595)"><path d="M-231.03 1.08 C-240.27 2.76, -248.87 6.86, -254.11 10.69 M-231.03 1.08 C-239.16 4.44, -246.87 7.49, -254.11 10.69" stroke="#1e1e1e" stroke-width="2" fill="none"></path></g><g transform="translate(861.6304799680795 315.2048063494624) rotate(0 -127.62079553959524 4.8987087633280595)"><path d="M-230.25 18.16 C-239.62 13.53, -248.51 11.32, -254.11 10.69 M-230.25 18.16 C-238.66 15.67, -246.64 12.86, -254.11 10.69" stroke="#1e1e1e" stroke-width="2" fill="none"></path></g></g><mask></mask><g transform="translate(640.833333333333 295.4444444444445) rotate(0 49.85999298095703 12.5)"><text x="0" y="17.52" font-family="Virgil, Segoe UI Emoji" font-size="20px" fill="#1e1e1e" text-anchor="start" style="white-space: pre;" direction="ltr" dominant-baseline="alphabetic">2.加载页块</text></g><g stroke-linecap="round" transform="translate(436.3888888888889 535) rotate(0 89 59)"><path d="M29.5 0 C73.34 1.78, 118.16 2.19, 148.5 0 M29.5 0 C69.38 -0.31, 108.61 -0.9, 148.5 0 M148.5 0 C166.58 -0.51, 178.38 11.16, 178 29.5 M148.5 0 C168.22 0.88, 177.45 11.53, 178 29.5 M178 29.5 C178.29 47.74, 176.74 64.95, 178 88.5 M178 29.5 C177.58 48.51, 178.47 66.7, 178 88.5 M178 88.5 C179.91 108.18, 169.4 116.6, 148.5 118 M178 88.5 C177.31 108.93, 166.78 119.74, 148.5 118 M148.5 118 C109.78 119.27, 74.62 116.98, 29.5 118 M148.5 118 C101.43 119.66, 53.21 118.72, 29.5 118 M29.5 118 C9.88 117.94, 0.14 107.62, 0 88.5 M29.5 118 C8.86 116.49, -2.19 108.44, 0 88.5 M0 88.5 C0.27 72.77, -2.1 57.46, 0 29.5 M0 88.5 C0.29 67.64, 0.9 47.09, 0 29.5 M0 29.5 C-0.81 8.34, 8.12 0.74, 29.5 0 M0 29.5 C1.63 11.21, 8.25 1.62, 29.5 0" stroke="#1e1e1e" stroke-width="2" fill="none"></path></g><g transform="translate(450.37896304660376 581.5) rotate(0 75.00992584228516 12.5)"><text x="75.00992584228516" y="17.52" font-family="Virgil, Segoe UI Emoji" font-size="20px" fill="#1e1e1e" text-anchor="middle" style="white-space: pre;" direction="ltr" dominant-baseline="alphabetic">undo log buffer</text></g><g stroke-linecap="round"><g transform="translate(499.1967401126476 373) rotate(0 -2.716073238026638 79)"><path d="M0.05 0.01 C-0.79 26.43, -3.54 130.93, -4.3 157.45 M-1.38 -1.03 C-2.35 25.65, -4.08 132.29, -4.65 158.7" stroke="#1e1e1e" stroke-width="2" fill="none"></path></g><g transform="translate(499.1967401126476 373) rotate(0 -2.716073238026638 79)"><path d="M-12.75 135.05 C-9.98 145.61, -7.94 153.92, -4.65 158.7 M-12.75 135.05 C-10.27 144.61, -6.59 154.1, -4.65 158.7" stroke="#1e1e1e" stroke-width="2" fill="none"></path></g><g transform="translate(499.1967401126476 373) rotate(0 -2.716073238026638 79)"><path d="M4.34 135.37 C0.86 145.82, -3.37 154.01, -4.65 158.7 M4.34 135.37 C0.06 144.82, -3.03 154.19, -4.65 158.7" stroke="#1e1e1e" stroke-width="2" fill="none"></path></g></g><mask></mask><g transform="translate(370.3888888888889 433) rotate(0 59.54999542236328 12.5)"><text x="0" y="17.52" font-family="Virgil, Segoe UI Emoji" font-size="20px" fill="#1e1e1e" text-anchor="start" style="white-space: pre;" direction="ltr" dominant-baseline="alphabetic">3.备份旧数据</text></g><g stroke-linecap="round"><g transform="translate(583.3150421342216 371.7546441808831) rotate(0 27.329899527024054 34.24775548450489)"><path d="M-0.85 0.22 C8.42 11.75, 45.98 56.74, 55.05 68.08 M0.91 -0.7 C10.1 11.09, 45.14 57.7, 54.3 69.4" stroke="#1e1e1e" stroke-width="2" fill="none"></path></g><g transform="translate(583.3150421342216 371.7546441808831) rotate(0 27.329899527024054 34.24775548450489)"><path d="M33.23 55.94 C38.85 60.17, 43.16 61.15, 54.3 69.4 M33.23 55.94 C39.42 60.45, 45.11 63.54, 54.3 69.4" stroke="#1e1e1e" stroke-width="2" fill="none"></path></g><g transform="translate(583.3150421342216 371.7546441808831) rotate(0 27.329899527024054 34.24775548450489)"><path d="M46.81 45.55 C48.88 52.32, 49.72 55.95, 54.3 69.4 M46.81 45.55 C49.21 52.93, 51.07 58.94, 54.3 69.4" stroke="#1e1e1e" stroke-width="2" fill="none"></path></g></g><mask></mask><g transform="translate(608.8333333333331 351.44444444444434) rotate(0 70.77999114990234 12.5)"><text x="0" y="17.52" font-family="Virgil, Segoe UI Emoji" font-size="20px" fill="#e03131" text-anchor="start" style="white-space: pre;" direction="ltr" dominant-baseline="alphabetic">n+2.持久化数据</text></g><g stroke-linecap="round" transform="translate(641.2777777777778 443) rotate(0 45 30)"><path d="M15 0 C36.5 -0.42, 59.69 -1.41, 75 0 M15 0 C37.51 -0.27, 59.24 -0.07, 75 0 M75 0 C84.17 0.21, 88.66 3.86, 90 15 M75 0 C85.74 1.37, 90.4 5.44, 90 15 M90 15 C91.41 24.28, 90.48 34.27, 90 45 M90 15 C90.65 26.42, 90.84 38.1, 90 45 M90 45 C90.78 54.89, 83.05 60.68, 75 60 M90 45 C91.58 54.22, 84.7 60.31, 75 60 M75 60 C58.92 60.54, 41.34 61.1, 15 60 M75 60 C61.63 60.22, 48.76 59.07, 15 60 M15 60 C5.37 58.51, -1.01 56.2, 0 45 M15 60 C6.12 59.81, 0.83 55.61, 0 45 M0 45 C-1.17 33.63, -0.92 23.16, 0 15 M0 45 C-0.78 34.33, -0.17 23.43, 0 15 M0 15 C0.16 6.23, 3.45 -0.61, 15 0 M0 15 C-1.11 6.88, 6.58 -2.17, 15 0" stroke="#1e1e1e" stroke-width="2" fill="none"></path></g><g transform="translate(656.0278159247505 448) rotate(0 30.249961853027344 25)"><text x="30.249961853027344" y="17.52" font-family="Virgil, Segoe UI Emoji" font-size="20px" fill="#1e1e1e" text-anchor="middle" style="white-space: pre;" direction="ltr" dominant-baseline="alphabetic">binlog </text><text x="30.249961853027344" y="42.519999999999996" font-family="Virgil, Segoe UI Emoji" font-size="20px" fill="#1e1e1e" text-anchor="middle" style="white-space: pre;" direction="ltr" dominant-baseline="alphabetic">buffer</text></g><g stroke-linecap="round"><g transform="translate(733.2777777777778 476.2026171119197) rotate(0 60.8888888888888 1.3986914440401392)"><path d="M0.29 0.26 C20.54 0.78, 101.52 2.37, 121.68 2.9 M-1.02 -0.64 C19.05 0.1, 100.48 4.14, 120.69 4.49" stroke="#e03131" stroke-width="2" fill="none"></path></g><g transform="translate(733.2777777777778 476.2026171119197) rotate(0 60.8888888888888 1.3986914440401392)"><path d="M96.91 12.19 C104.8 9.57, 111.98 6.48, 120.69 4.49 M96.91 12.19 C104.53 8.89, 114.55 7.53, 120.69 4.49" stroke="#e03131" stroke-width="2" fill="none"></path></g><g transform="translate(733.2777777777778 476.2026171119197) rotate(0 60.8888888888888 1.3986914440401392)"><path d="M97.52 -4.9 C105.2 -2.17, 112.18 0.09, 120.69 4.49 M97.52 -4.9 C104.93 -2.13, 114.73 2.58, 120.69 4.49" stroke="#e03131" stroke-width="2" fill="none"></path></g></g><mask></mask><g stroke-linecap="round"><g transform="translate(622.1666666666667 593.4222770219437) rotate(0 99.7777777777776 5.373739416160106)"><path d="M-0.67 1.05 C32.55 2.84, 166.06 8.3, 199.38 9.98 M1.18 0.56 C34.22 2.56, 165.48 9.7, 198.33 11.12" stroke="#1971c2" stroke-width="2" fill="none"></path></g><g transform="translate(622.1666666666667 593.4222770219437) rotate(0 99.7777777777776 5.373739416160106)"><path d="M174.45 18.49 C183.56 16.07, 187.84 13.56, 198.33 11.12 M174.45 18.49 C181.63 16.08, 189.78 14.13, 198.33 11.12" stroke="#1971c2" stroke-width="2" fill="none"></path></g><g transform="translate(622.1666666666667 593.4222770219437) rotate(0 99.7777777777776 5.373739416160106)"><path d="M175.3 1.41 C184.05 4.21, 188.06 6.93, 198.33 11.12 M175.3 1.41 C182.28 4.71, 190.14 8.47, 198.33 11.12" stroke="#1971c2" stroke-width="2" fill="none"></path></g></g><mask></mask><g transform="translate(651.0555555555554 614.3333333333331) rotate(0 77.18995666503906 12.5)"><text x="0" y="17.52" font-family="Virgil, Segoe UI Emoji" font-size="20px" fill="#1971c2" text-anchor="start" style="white-space: pre;" direction="ltr" dominant-baseline="alphabetic">y.持久化undo log</text></g><g stroke-linecap="round"><g transform="translate(556.3888888888889 526.7777777777777) rotate(0 -1 -78)"><path d="M-0.31 0.55 C-0.54 -25.64, -2.13 -130.18, -2.22 -156.35" stroke="#2f9e44" stroke-width="2.5" fill="none" stroke-dasharray="1.5 8"></path></g><g transform="translate(556.3888888888889 526.7777777777777) rotate(0 -1 -78)"><path d="M6.57 -132.94 C5.31 -138.71, 1.79 -141.84, -2.22 -156.35" stroke="#2f9e44" stroke-width="2.5" fill="none" stroke-dasharray="1.5 6"></path></g><g transform="translate(556.3888888888889 526.7777777777777) rotate(0 -1 -78)"><path d="M-10.53 -132.77 C-7.86 -138.54, -7.44 -141.7, -2.22 -156.35" stroke="#2f9e44" stroke-width="2.5" fill="none" stroke-dasharray="1.5 6"></path></g></g><mask></mask><g transform="translate(562.3888888888889 471) rotate(0 28.35999298095703 12.5)"><text x="0" y="17.52" font-family="Virgil, Segoe UI Emoji" font-size="20px" fill="#2f9e44" text-anchor="start" style="white-space: pre;" direction="ltr" dominant-baseline="alphabetic">x.回滚</text></g><g stroke-linecap="round" transform="translate(660.1666666666666 761.2222222222223) rotate(0 55.00000000000006 17.5)"><path d="M8.75 0 C34.32 -1.62, 62.31 0.51, 101.25 0 M8.75 0 C40.95 -0.1, 70.91 0.23, 101.25 0 M101.25 0 C108.64 -1.01, 111.76 3.56, 110 8.75 M101.25 0 C108.01 -1.3, 110.67 3.35, 110 8.75 M110 8.75 C109.92 15.38, 109.49 21.5, 110 26.25 M110 8.75 C110.54 13.04, 109.12 18.56, 110 26.25 M110 26.25 C110.53 33.62, 105.27 34.65, 101.25 35 M110 26.25 C109.96 30.77, 105.25 32.99, 101.25 35 M101.25 35 C82.46 36.06, 59.89 35.06, 8.75 35 M101.25 35 C74.57 33.45, 46.88 34.88, 8.75 35 M8.75 35 C3.93 33.92, -1.23 32.95, 0 26.25 M8.75 35 C4.41 35.83, -0.66 32.49, 0 26.25 M0 26.25 C1.48 21.62, -1.39 16.01, 0 8.75 M0 26.25 C0 20.74, 0.29 15.93, 0 8.75 M0 8.75 C0.4 3.58, 4.43 -0.24, 8.75 0 M0 8.75 C-0.77 2.91, 1.27 0.45, 8.75 0" stroke="#1e1e1e" stroke-width="2" fill="none"></path></g><g transform="translate(689.7766977945963 766.2222222222223) rotate(0 25.389968872070312 12.5)"><text x="25.389968872070312" y="17.52" font-family="Virgil, Segoe UI Emoji" font-size="20px" fill="#1e1e1e" text-anchor="middle" style="white-space: pre;" direction="ltr" dominant-baseline="alphabetic">purge</text></g><g stroke-linecap="round"><g transform="translate(774.7867411610453 769.2970407703895) rotate(0 38.326754867289196 -59.20011230503246)"><path d="M-1.2 -0.63 C11.66 -20.49, 64.29 -98.61, 77.11 -118.32 M0.38 1.66 C13.12 -18.07, 63.45 -96.82, 76.4 -116.74" stroke="#f08c00" stroke-width="2" fill="none"></path></g><g transform="translate(774.7867411610453 769.2970407703895) rotate(0 38.326754867289196 -59.20011230503246)"><path d="M70.87 -92.36 C71.31 -98.83, 74.13 -108.45, 76.4 -116.74 M70.87 -92.36 C72.67 -99.35, 73.72 -104.59, 76.4 -116.74" stroke="#f08c00" stroke-width="2" fill="none"></path></g><g transform="translate(774.7867411610453 769.2970407703895) rotate(0 38.326754867289196 -59.20011230503246)"><path d="M56.49 -101.62 C61.29 -105.18, 68.41 -112.03, 76.4 -116.74 M56.49 -101.62 C62.04 -106.37, 66.78 -109.23, 76.4 -116.74" stroke="#f08c00" stroke-width="2" fill="none"></path></g></g><mask></mask><g transform="translate(722.166666666667 727.2222222222223) rotate(0 20 12.5)"><text x="0" y="17.52" font-family="Virgil, Segoe UI Emoji" font-size="20px" fill="#f08c00" text-anchor="start" style="white-space: pre;" direction="ltr" dominant-baseline="alphabetic">回收</text></g><g stroke-linecap="round"><g transform="translate(197.197240757367 369.27589193670553) rotate(0 124.85200690739106 -4.453643495675465)"><path d="M0.3 0.31 C42.11 -1.01, 208.44 -6.38, 250.11 -8.08 M-1 -0.57 C40.75 -2.21, 207.56 -8.36, 249.37 -9.77" stroke="#e03131" stroke-width="2" fill="none"></path></g><g transform="translate(197.197240757367 369.27589193670553) rotate(0 124.85200690739106 -4.453643495675465)"><path d="M226.2 -0.39 C232.23 -2, 238.59 -3.9, 249.37 -9.77 M226.2 -0.39 C231.89 -2.32, 235.89 -5.56, 249.37 -9.77" stroke="#e03131" stroke-width="2" fill="none"></path></g><g transform="translate(197.197240757367 369.27589193670553) rotate(0 124.85200690739106 -4.453643495675465)"><path d="M225.59 -17.48 C231.74 -15.04, 238.25 -12.88, 249.37 -9.77 M225.59 -17.48 C231.49 -15.65, 235.62 -15.13, 249.37 -9.77" stroke="#e03131" stroke-width="2" fill="none"></path></g></g><mask></mask><g transform="translate(238.0000000000001 379.2777777777778) rotate(0 47.409996032714844 12.5)"><text x="0" y="17.52" font-family="Virgil, Segoe UI Emoji" font-size="20px" fill="#e03131" text-anchor="start" style="white-space: pre;" direction="ltr" dominant-baseline="alphabetic">n.提交事务</text></g><g stroke-linecap="round"><g transform="translate(552.8079716118317 309.6851400684201) rotate(4.230463096099279 13.576200797321462 -22.233384322536793)"><path d="M-0.64 0.33 C-2.38 -3.58, -13.06 -16.54, -10.93 -23.85 C-8.8 -31.16, 3.91 -42.56, 12.13 -43.52 C20.35 -44.48, 34.83 -36.12, 38.37 -29.6 C41.9 -23.07, 34.16 -8.93, 33.34 -4.36 M1.23 -0.54 C-0.61 -4.77, -13.53 -18.19, -11.78 -25.66 C-10.03 -33.13, 3.31 -44.85, 11.72 -45.37 C20.13 -45.88, 35.31 -35.58, 38.67 -28.77 C42.03 -21.96, 32.51 -8.85, 31.89 -4.49" stroke="#1e1e1e" stroke-width="2" fill="none"></path></g><g transform="translate(552.8079716118317 309.6851400684201) rotate(4.230463096099279 13.576200797321462 -22.233384322536793)"><path d="M32.35 -17.57 C32.55 -14, 32.71 -10.09, 31.89 -4.49 M32.35 -17.57 C32.21 -13.16, 32.08 -7.01, 31.89 -4.49" stroke="#1e1e1e" stroke-width="2" fill="none"></path></g><g transform="translate(552.8079716118317 309.6851400684201) rotate(4.230463096099279 13.576200797321462 -22.233384322536793)"><path d="M40.65 -14.22 C38.72 -11.56, 36.74 -8.51, 31.89 -4.49 M40.65 -14.22 C37.36 -11.11, 34.09 -6.24, 31.89 -4.49" stroke="#1e1e1e" stroke-width="2" fill="none"></path></g></g><mask></mask><g transform="translate(590.3333333333335 262.8888888888889) rotate(0 49.139991760253906 12.5)"><text x="0" y="17.52" font-family="Virgil, Segoe UI Emoji" font-size="20px" fill="#1e1e1e" text-anchor="start" style="white-space: pre;" direction="ltr" dominant-baseline="alphabetic">4.执行更新</text></g><g stroke-linecap="round"><g transform="translate(608.1111111111111 349.5555555555556) rotate(0 126.66666666666663 -5.555555555555543)"><path d="M0.79 -0.32 C42.97 -2.19, 211.14 -8.26, 253.11 -10.09 M-0.26 -1.53 C41.75 -3.22, 209.49 -10.25, 252.05 -11.68" stroke="#e03131" stroke-width="2" fill="none"></path></g><g transform="translate(608.1111111111111 349.5555555555556) rotate(0 126.66666666666663 -5.555555555555543)"><path d="M228.9 -2.23 C235.21 -5.58, 244.37 -9.23, 252.05 -11.68 M228.9 -2.23 C234.85 -5.18, 241.01 -8.13, 252.05 -11.68" stroke="#e03131" stroke-width="2" fill="none"></path></g><g transform="translate(608.1111111111111 349.5555555555556) rotate(0 126.66666666666663 -5.555555555555543)"><path d="M228.25 -19.32 C234.91 -17.55, 244.27 -16.1, 252.05 -11.68 M228.25 -19.32 C234.42 -17.45, 240.76 -15.58, 252.05 -11.68" stroke="#e03131" stroke-width="2" fill="none"></path></g></g><mask></mask><g stroke-linecap="round" transform="translate(863.6666666666667 242.88888888888897) rotate(0 68.88888888888891 86.66666666666666)"><path d="M32 0 C53.17 -1.56, 74.83 -1.54, 105.78 0 M32 0 C54.61 1.1, 77.22 0.23, 105.78 0 M105.78 0 C128.6 -1.84, 138.46 9.34, 137.78 32 M105.78 0 C125.59 -0.96, 139.09 9.29, 137.78 32 M137.78 32 C139.65 73.15, 139.18 111.99, 137.78 141.33 M137.78 32 C138.1 67.86, 138.59 103.32, 137.78 141.33 M137.78 141.33 C137.56 160.98, 127.6 174, 105.78 173.33 M137.78 141.33 C137.82 164.42, 128.73 171.77, 105.78 173.33 M105.78 173.33 C78.37 172.17, 46.51 171.66, 32 173.33 M105.78 173.33 C88.77 172.14, 70.79 172.4, 32 173.33 M32 173.33 C12.32 172.75, -1.06 161.29, 0 141.33 M32 173.33 C9.67 171.93, -2.21 164.64, 0 141.33 M0 141.33 C1.71 117.21, 1.71 89.2, 0 32 M0 141.33 C-0.07 117.82, -1.6 94.24, 0 32 M0 32 C1.49 11.76, 11.17 0.69, 32 0 M0 32 C-0.33 12.38, 12.23 0.89, 32 0" stroke="#1e1e1e" stroke-width="2" fill="none"></path></g><g transform="translate(902.5555555555557 317.05555555555566) rotate(0 30 12.500000000000014)"><text x="30" y="17.52" font-family="Virgil, Segoe UI Emoji" font-size="20px" fill="#1e1e1e" text-anchor="middle" style="white-space: pre;" direction="ltr" dominant-baseline="alphabetic">数据块</text></g><g stroke-linecap="round" transform="translate(857 445.1111111111112) rotate(0 68.88888888888891 37.77777777777777)"><path d="M18.89 0 C50.87 0.99, 84.22 -1.4, 118.89 0 M18.89 0 C52.36 0.98, 85.81 0.98, 118.89 0 M118.89 0 C132.81 0.59, 135.79 8.17, 137.78 18.89 M118.89 0 C131.12 2.17, 137.07 8.52, 137.78 18.89 M137.78 18.89 C137.22 28.45, 138.8 36.85, 137.78 56.67 M137.78 18.89 C137.48 27.22, 136.84 35.04, 137.78 56.67 M137.78 56.67 C136.84 71.25, 129.92 76.47, 118.89 75.56 M137.78 56.67 C136.23 71.32, 132.66 77.34, 118.89 75.56 M118.89 75.56 C99.41 73.8, 79.22 75.06, 18.89 75.56 M118.89 75.56 C95.43 74.42, 72.57 75.36, 18.89 75.56 M18.89 75.56 C6.78 74.13, 0.22 70.29, 0 56.67 M18.89 75.56 C8.2 75.14, 2.24 69.66, 0 56.67 M0 56.67 C1.73 50.6, 0.47 38.86, 0 18.89 M0 56.67 C0.64 43.41, 0.99 27.75, 0 18.89 M0 18.89 C-0.51 5.2, 4.65 0.37, 18.89 0 M0 18.89 C2.25 7.36, 7.32 -1.11, 18.89 0" stroke="#1e1e1e" stroke-width="2" fill="none"></path></g><g transform="translate(900.768916659885 470.38888888888897) rotate(0 25.119972229003906 12.5)"><text x="25.119972229003906" y="17.52" font-family="Virgil, Segoe UI Emoji" font-size="20px" fill="#1e1e1e" text-anchor="middle" style="white-space: pre;" direction="ltr" dominant-baseline="alphabetic">binlog</text></g><g stroke-linecap="round" transform="translate(439.1111111111114 68.33333333333337) rotate(0 89 59)"><path d="M29.5 0 C66.67 -0.51, 101.19 0.12, 148.5 0 M29.5 0 C63.32 -0.38, 97.24 0.61, 148.5 0 M148.5 0 C169.63 -0.84, 178.3 8.74, 178 29.5 M148.5 0 C169.12 2.21, 178.31 10.14, 178 29.5 M178 29.5 C176.96 40.93, 179.7 54.85, 178 88.5 M178 29.5 C179.17 49.49, 177.97 68.08, 178 88.5 M178 88.5 C179.84 107.92, 168.04 116.34, 148.5 118 M178 88.5 C179.83 109.24, 167.81 116.86, 148.5 118 M148.5 118 C103.21 117.74, 57.79 118.8, 29.5 118 M148.5 118 C117.44 118.33, 84.43 117.06, 29.5 118 M29.5 118 C9.44 118.6, -0.53 108.35, 0 88.5 M29.5 118 C8.77 117.29, 0.2 108.82, 0 88.5 M0 88.5 C-0.75 76.13, 0.79 62.77, 0 29.5 M0 88.5 C-0.42 70.07, -0.76 51.2, 0 29.5 M0 29.5 C-0.27 9.44, 8.67 1.21, 29.5 0 M0 29.5 C-1.14 10.71, 8.24 1.06, 29.5 0" stroke="#1e1e1e" stroke-width="2" fill="none"></path></g><g transform="translate(453.68118709988096 114.83333333333337) rotate(0 74.42992401123047 12.5)"><text x="74.42992401123047" y="17.52" font-family="Virgil, Segoe UI Emoji" font-size="20px" fill="#1e1e1e" text-anchor="middle" style="white-space: pre;" direction="ltr" dominant-baseline="alphabetic">redo log buffer</text></g><g stroke-linecap="round" transform="translate(830.3333333333333 565.1111111111111) rotate(0 68.88888888888891 37.77777777777777)"><path d="M18.89 0 C43.03 -0.65, 65.48 2.09, 118.89 0 M18.89 0 C58.24 1.77, 97.96 1.48, 118.89 0 M118.89 0 C130.48 1.69, 139.24 7.73, 137.78 18.89 M118.89 0 C132.12 -0.97, 136.99 4.71, 137.78 18.89 M137.78 18.89 C136.95 31.97, 135.87 41.54, 137.78 56.67 M137.78 18.89 C138.11 27.33, 137.23 34.9, 137.78 56.67 M137.78 56.67 C138.61 70.82, 132.06 74.87, 118.89 75.56 M137.78 56.67 C137.92 69.76, 131.28 74.74, 118.89 75.56 M118.89 75.56 C97.96 75.2, 75.45 76.1, 18.89 75.56 M118.89 75.56 C80.27 75.48, 42.07 76.54, 18.89 75.56 M18.89 75.56 C5.96 73.83, -1.87 69.92, 0 56.67 M18.89 75.56 C5.85 75.26, 1.47 71.51, 0 56.67 M0 56.67 C-0.05 45.39, 0.05 34.65, 0 18.89 M0 56.67 C0.15 45.03, 0.33 35.79, 0 18.89 M0 18.89 C0 5.61, 7.03 1.52, 18.89 0 M0 18.89 C1 5.74, 6.32 -0.88, 18.89 0" stroke="#1e1e1e" stroke-width="2" fill="none"></path></g><g transform="translate(859.4622582329644 590.3888888888888) rotate(0 39.75996398925781 12.5)"><text x="39.75996398925781" y="17.52" font-family="Virgil, Segoe UI Emoji" font-size="20px" fill="#1e1e1e" text-anchor="middle" style="white-space: pre;" direction="ltr" dominant-baseline="alphabetic">undo log</text></g><g stroke-linecap="round"><g transform="translate(822.7099184666245 581.5500621898179) rotate(0 -98.77777777777771 -6.322090619963831)"><path d="M0.57 0.82 C-32.08 -1.39, -163.7 -10.05, -196.74 -12.44" stroke="#2f9e44" stroke-width="2.5" fill="none" stroke-dasharray="1.5 8"></path></g><g transform="translate(822.7099184666245 581.5500621898179) rotate(0 -98.77777777777771 -6.322090619963831)"><path d="M-172.72 -19.36 C-176.89 -16.28, -183.47 -16.25, -196.74 -12.44" stroke="#2f9e44" stroke-width="2.5" fill="none" stroke-dasharray="1.5 6"></path></g><g transform="translate(822.7099184666245 581.5500621898179) rotate(0 -98.77777777777771 -6.322090619963831)"><path d="M-173.89 -2.3 C-177.9 -3.19, -184.21 -7.11, -196.74 -12.44" stroke="#2f9e44" stroke-width="2.5" fill="none" stroke-dasharray="1.5 6"></path></g></g><mask></mask><g stroke-linecap="round"><g transform="translate(499.2222222222224 311.7777777777779) rotate(0 0 -60)"><path d="M0.16 -0.65 C0.03 -20.36, -1.22 -99.42, -1.15 -119.28 M-1.22 1.62 C-0.96 -18.35, 0.73 -101.02, 0.96 -121.02" stroke="#1e1e1e" stroke-width="2" fill="none"></path></g><g transform="translate(499.2222222222224 311.7777777777779) rotate(0 0 -60)"><path d="M9.12 -97.39 C6.05 -105.62, 6.16 -109.05, 0.96 -121.02 M9.12 -97.39 C6.91 -105.3, 4.55 -112.99, 0.96 -121.02" stroke="#1e1e1e" stroke-width="2" fill="none"></path></g><g transform="translate(499.2222222222224 311.7777777777779) rotate(0 0 -60)"><path d="M-7.98 -97.67 C-6.48 -105.84, -1.8 -109.21, 0.96 -121.02 M-7.98 -97.67 C-4.79 -105.63, -1.75 -113.23, 0.96 -121.02" stroke="#1e1e1e" stroke-width="2" fill="none"></path></g></g><mask></mask><g transform="translate(501.4444444444447 218.4444444444445) rotate(0 68.91999053955078 12.5)"><text x="0" y="17.52" font-family="Virgil, Segoe UI Emoji" font-size="20px" fill="#1e1e1e" text-anchor="start" style="white-space: pre;" direction="ltr" dominant-baseline="alphabetic">5.备份更新操作</text></g><g stroke-linecap="round" transform="translate(816.9999999999998 94.00000000000017) rotate(0 68.88888888888891 37.77777777777777)"><path d="M18.89 0 C56.86 0.8, 95.89 0.12, 118.89 0 M18.89 0 C55.55 1.24, 91.92 1.27, 118.89 0 M118.89 0 C132.74 -0.12, 136.58 5.75, 137.78 18.89 M118.89 0 C132.73 -1.5, 138.33 8.17, 137.78 18.89 M137.78 18.89 C138.51 30, 137.47 37.66, 137.78 56.67 M137.78 18.89 C138.56 29.66, 138.21 41.66, 137.78 56.67 M137.78 56.67 C137.39 70.55, 133.04 75.33, 118.89 75.56 M137.78 56.67 C138.97 70.28, 131.87 76.3, 118.89 75.56 M118.89 75.56 C80.95 76.01, 39.02 76.11, 18.89 75.56 M118.89 75.56 C86.11 76.15, 54.26 76.78, 18.89 75.56 M18.89 75.56 C7.11 74.85, 0.66 69.58, 0 56.67 M18.89 75.56 C8.26 73.3, -0.31 71.41, 0 56.67 M0 56.67 C0.74 47.31, -1.35 35.14, 0 18.89 M0 56.67 C0.39 43.92, 0.14 34.07, 0 18.89 M0 18.89 C-0.12 6.84, 7.11 -1.29, 18.89 0 M0 18.89 C-1.48 6.86, 6.72 0.23, 18.89 0" stroke="#1e1e1e" stroke-width="2" fill="none"></path></g><g transform="translate(846.7089267306856 119.27777777777794) rotate(0 39.179962158203125 12.5)"><text x="39.179962158203125" y="17.52" font-family="Virgil, Segoe UI Emoji" font-size="20px" fill="#1e1e1e" text-anchor="middle" style="white-space: pre;" direction="ltr" dominant-baseline="alphabetic">redo log</text></g><g stroke-linecap="round"><g transform="translate(623.6666666666669 127.33333333333343) rotate(0 92.22222222222211 1.1111111111111143)"><path d="M-0.74 -0.93 C30.15 -0.64, 154.12 1.75, 185.19 2.1 M1.07 1.2 C31.88 1.65, 153.89 3.44, 184.63 3.58" stroke="#e03131" stroke-width="2" fill="none"></path></g><g transform="translate(623.6666666666669 127.33333333333343) rotate(0 92.22222222222211 1.1111111111111143)"><path d="M161.05 11.89 C166.24 10.89, 174.35 9.25, 184.63 3.58 M161.05 11.89 C167.08 10.14, 170.68 8.2, 184.63 3.58" stroke="#e03131" stroke-width="2" fill="none"></path></g><g transform="translate(623.6666666666669 127.33333333333343) rotate(0 92.22222222222211 1.1111111111111143)"><path d="M161.22 -5.21 C166.42 -1.31, 174.48 1.96, 184.63 3.58 M161.22 -5.21 C167.1 -3.26, 170.66 -1.49, 184.63 3.58" stroke="#e03131" stroke-width="2" fill="none"></path></g></g><mask></mask><g transform="translate(637.0000000000003 96.22222222222229) rotate(0 85.54995727539057 12.5)"><text x="0" y="17.52" font-family="Virgil, Segoe UI Emoji" font-size="20px" fill="#e03131" text-anchor="start" style="white-space: pre;" direction="ltr" dominant-baseline="alphabetic">n+1.持久化redo log</text></g><g transform="translate(701.7755644056531 510.388888888889) rotate(0 75.89996337890625 12.5)"><text x="0" y="17.52" font-family="Virgil, Segoe UI Emoji" font-size="20px" fill="#e03131" text-anchor="start" style="white-space: pre;" direction="ltr" dominant-baseline="alphabetic">n+2.持久化binlog</text></g><g transform="translate(625.888888888889 390.66666666666674) rotate(0 54.25996398925781 12.5)"><text x="0" y="17.52" font-family="Virgil, Segoe UI Emoji" font-size="20px" fill="#1e1e1e" text-anchor="start" style="white-space: pre;" direction="ltr" dominant-baseline="alphabetic">6.保存binlog</text></g></svg>