<svg version="1.1" xmlns="http://www.w3.org/2000/svg" viewBox="0 0 836 608" width="836" height="608">
  <!-- svg-source:excalidraw -->
  
  <defs>
    <style class="style-fonts">
      @font-face {
        font-family: "Virgil";
        src: url("https://excalidraw.com/Virgil.woff2");
      }
      @font-face {
        font-family: "Cascadia";
        src: url("https://excalidraw.com/Cascadia.woff2");
      }
      @font-face {
        font-family: "Assistant";
        src: url("https://excalidraw.com/Assistant-Regular.woff2");
      }
    </style>
    
  </defs>
  <rect x="0" y="0" width="836" height="608" fill="#ffffff"></rect><g stroke-linecap="round" transform="translate(340 10) rotate(0 243 294)"><path d="M32 0 C162.94 0.19, 294.45 -0.23, 454 0 M32 0 C161.03 -1.11, 291.45 -1.36, 454 0 M454 0 C474.18 -0.88, 487.89 11.29, 486 32 M454 0 C473.36 1.76, 486.89 9.66, 486 32 M486 32 C485.73 182.24, 486.51 332.36, 486 556 M486 32 C484.29 239.13, 484.28 446.55, 486 556 M486 556 C487.43 575.39, 475.26 589.73, 454 588 M486 556 C485.43 578.1, 476.41 589.35, 454 588 M454 588 C296.32 587.12, 138.62 586.99, 32 588 M454 588 C358.53 586.11, 262.95 586.24, 32 588 M32 588 C12.13 586.21, 0.7 576.03, 0 556 M32 588 C9.81 589.73, 1.8 577.7, 0 556 M0 556 C-0.18 414.04, -0.88 270.75, 0 32 M0 556 C1.13 378.76, 0.7 200.87, 0 32 M0 32 C1.39 10.02, 12.34 0.88, 32 0 M0 32 C2.17 11.9, 12.69 -0.7, 32 0" stroke="#1e1e1e" stroke-width="2" fill="none"></path></g><g stroke-linecap="round" transform="translate(10 72) rotate(0 106 210)"><path d="M32 0 C86.33 1.06, 139.87 -0.29, 180 0 M32 0 C83.75 1.5, 136.6 1.64, 180 0 M180 0 C202.22 1.88, 213.07 12.43, 212 32 M180 0 C200.63 -0.83, 210.03 9.8, 212 32 M212 32 C214.14 148.01, 212.98 264.54, 212 388 M212 32 C210.33 121.7, 210.4 210.56, 212 388 M212 388 C211.02 408.46, 202.5 418.64, 180 420 M212 388 C213.58 408.62, 202.88 418.62, 180 420 M180 420 C148.59 419.7, 116.2 417.64, 32 420 M180 420 C131.33 419.28, 81.1 419.47, 32 420 M32 420 C9.04 419.02, 1.49 409.58, 0 388 M32 420 C8.95 419.61, 0.92 408.21, 0 388 M0 388 C-1.88 311.42, -1.09 235.73, 0 32 M0 388 C1.46 290.43, 1.3 194.07, 0 32 M0 32 C-0.15 9.44, 11.42 -1.58, 32 0 M0 32 C1.67 8.92, 12.22 0.72, 32 0" stroke="#1e1e1e" stroke-width="2" fill="none"></path></g><g stroke-linecap="round" transform="translate(38 120) rotate(0 77 18)"><path d="M9 0 C50.59 1.73, 93.27 1.88, 145 0 M9 0 C59.65 0.76, 109.14 -0.43, 145 0 M145 0 C152.71 0.06, 154.17 4.07, 154 9 M145 0 C149.84 -1.43, 155.02 4.2, 154 9 M154 9 C154.8 12.78, 155.74 19.68, 154 27 M154 9 C154.35 13.69, 153.16 20.02, 154 27 M154 27 C154.91 33.4, 152.1 36.87, 145 36 M154 27 C153.23 34.1, 152.55 37.73, 145 36 M145 36 C106.55 35.27, 69.73 36.51, 9 36 M145 36 C112.88 35.96, 81.47 37.3, 9 36 M9 36 C1.26 35.83, 0.78 33.61, 0 27 M9 36 C3.22 36.12, -0.41 32.63, 0 27 M0 27 C-0.73 22.69, 1.91 17.41, 0 9 M0 27 C0.35 20.95, -0.24 14.85, 0 9 M0 9 C0.85 4.47, 4.86 0.32, 9 0 M0 9 C2.2 4.11, 2.92 1.1, 9 0" stroke="#1e1e1e" stroke-width="2" fill="none"></path></g><g transform="translate(68.44000244140625 125.5) rotate(0 46.55999755859375 12.5)"><text x="46.55999755859375" y="17.52" font-family="Virgil, Segoe UI Emoji" font-size="20px" fill="#1e1e1e" text-anchor="middle" style="white-space: pre;" direction="ltr" dominant-baseline="alphabetic">执行事务A</text></g><g stroke-linecap="round" transform="translate(382 64) rotate(0 170 213)"><path d="M32 0 C138.06 -0.6, 246.24 0.08, 308 0 M32 0 C130.5 -1.34, 228.81 -1.11, 308 0 M308 0 C330.69 1.02, 340.25 10.48, 340 32 M308 0 C330.92 0.1, 342.25 10.56, 340 32 M340 32 C341.76 108.89, 340.85 187.77, 340 394 M340 32 C338.88 135.69, 339.54 238.76, 340 394 M340 394 C341.08 415.81, 330.99 426.53, 308 426 M340 394 C339.64 415.54, 330.38 423.75, 308 426 M308 426 C210.93 423.23, 112.96 423.53, 32 426 M308 426 C218.35 426.02, 127.28 426.24, 32 426 M32 426 C11.64 427.2, -1.64 413.91, 0 394 M32 426 C11.15 425.28, 1.2 416.57, 0 394 M0 394 C-0.56 304.6, 1.72 211.71, 0 32 M0 394 C-0.32 259.13, -0.78 123.55, 0 32 M0 32 C-1.9 10.78, 9.58 -0.04, 32 0 M0 32 C-0.57 9.32, 12.47 -0.58, 32 0" stroke="#1e1e1e" stroke-width="2" fill="none"></path></g><g transform="translate(458 506) rotate(0 27.119979858398438 12.5)"><text x="0" y="17.52" font-family="Virgil, Segoe UI Emoji" font-size="20px" fill="#1e1e1e" text-anchor="start" style="white-space: pre;" direction="ltr" dominant-baseline="alphabetic">cache</text></g><g stroke-linecap="round" transform="translate(744 50) rotate(0 30 232)"><path d="M15 0 C27.99 -1.88, 38.04 -1.92, 45 0 M15 0 C23.48 -0.17, 31.54 -0.84, 45 0 M45 0 C53.83 -1.29, 60.7 4.21, 60 15 M45 0 C52.78 -2.1, 60.56 3.57, 60 15 M60 15 C61.95 188.59, 62.42 361.78, 60 449 M60 15 C59.68 156.46, 59.94 297.68, 60 449 M60 449 C58.68 460.95, 56.79 464.12, 45 464 M60 449 C61.76 460.09, 55.12 464.99, 45 464 M45 464 C38.45 465.18, 27.62 465.45, 15 464 M45 464 C34.21 464.35, 24.94 464.07, 15 464 M15 464 C6.12 462.66, 1.38 460.61, 0 449 M15 464 C3.22 463.62, 1.8 456.9, 0 449 M0 449 C-0.71 348.06, -1.73 246.13, 0 15 M0 449 C-2 295.48, -1.84 142.82, 0 15 M0 15 C0.85 4.56, 3.36 0.66, 15 0 M0 15 C-2.26 6.66, 3.28 -0.23, 15 0" stroke="#1e1e1e" stroke-width="2" fill="none"></path></g><g transform="translate(712 528) rotate(0 20 12.5)"><text x="0" y="17.52" font-family="Virgil, Segoe UI Emoji" font-size="20px" fill="#1e1e1e" text-anchor="start" style="white-space: pre;" direction="ltr" dominant-baseline="alphabetic">磁盘</text></g><g stroke-linecap="round" transform="translate(426 98) rotate(0 72 26)"><path d="M13 0 C38.92 -0.43, 63.5 0.76, 131 0 M13 0 C52.69 1.18, 91.92 0.36, 131 0 M131 0 C139.78 1.35, 144.47 5.48, 144 13 M131 0 C140.4 2.06, 143.79 2.93, 144 13 M144 13 C143.39 21.24, 143.18 31.94, 144 39 M144 13 C143.63 21.32, 144.09 31.68, 144 39 M144 39 C145.23 48.5, 139.43 52.93, 131 52 M144 39 C145.29 45.57, 140.98 53.58, 131 52 M131 52 C98.67 53.35, 71.03 50.61, 13 52 M131 52 C103.14 53.87, 75.15 52.5, 13 52 M13 52 C2.74 53.5, -0.34 46.05, 0 39 M13 52 C6.39 53.13, -0.38 46.53, 0 39 M0 39 C0.18 33.9, 0.92 27.81, 0 13 M0 39 C0.04 29.83, 0.45 18.94, 0 13 M0 13 C1.23 5.53, 6.25 1.59, 13 0 M0 13 C-1.47 4.81, 4.22 -0.09, 13 0" stroke="#1e1e1e" stroke-width="2" fill="none"></path></g><g transform="translate(443.80004119873047 111.5) rotate(0 54.19995880126953 12.5)"><text x="54.19995880126953" y="17.52" font-family="Virgil, Segoe UI Emoji" font-size="20px" fill="#1e1e1e" text-anchor="middle" style="white-space: pre;" direction="ltr" dominant-baseline="alphabetic">page cache</text></g><g stroke-linecap="round"><g transform="translate(194 134.2044974997536) rotate(0 114 -2.280055566101879)"><path d="M1.13 -1.01 C39.12 -1.62, 189.64 -2.86, 227.48 -3.44 M0.26 1.08 C38.09 0.14, 188.38 -4.28, 226.26 -4.98" stroke="#1e1e1e" stroke-width="2" fill="none"></path></g><g transform="translate(194 134.2044974997536) rotate(0 114 -2.280055566101879)"><path d="M202.98 4.15 C207.37 0.67, 216.99 -0.57, 226.26 -4.98 M202.98 4.15 C210.9 0.61, 216.53 -1.67, 226.26 -4.98" stroke="#1e1e1e" stroke-width="2" fill="none"></path></g><g transform="translate(194 134.2044974997536) rotate(0 114 -2.280055566101879)"><path d="M202.56 -12.95 C207.09 -11.96, 216.82 -8.73, 226.26 -4.98 M202.56 -12.95 C210.57 -11.25, 216.32 -8.31, 226.26 -4.98" stroke="#1e1e1e" stroke-width="2" fill="none"></path></g></g><mask></mask><g transform="translate(242 100) rotate(0 45.44999694824219 12.5)"><text x="0" y="17.52" font-family="Virgil, Segoe UI Emoji" font-size="20px" fill="#1e1e1e" text-anchor="start" style="white-space: pre;" direction="ltr" dominant-baseline="alphabetic">1.执行更新</text></g><g stroke-linecap="round"><g transform="translate(755.2415910791908 109.09369523835133) rotate(0 -87.62079553959535 0.4542643188836024)"><path d="M-0.72 -0.37 C-30.24 -0.11, -147.07 0.19, -176.28 0.49 M1.11 -1.61 C-28.12 -1.09, -145.02 1.64, -174.11 1.8" stroke="#1e1e1e" stroke-width="2" fill="none"></path></g><g transform="translate(755.2415910791908 109.09369523835133) rotate(0 -87.62079553959535 0.4542643188836024)"><path d="M-150.76 -7.11 C-160.08 -5.69, -168.79 -1.85, -174.11 1.8 M-150.76 -7.11 C-158.98 -3.99, -166.78 -1.18, -174.11 1.8" stroke="#1e1e1e" stroke-width="2" fill="none"></path></g><g transform="translate(755.2415910791908 109.09369523835133) rotate(0 -87.62079553959535 0.4542643188836024)"><path d="M-150.49 9.98 C-159.76 5.09, -168.56 2.62, -174.11 1.8 M-150.49 9.98 C-158.82 7.25, -166.71 4.2, -174.11 1.8" stroke="#1e1e1e" stroke-width="2" fill="none"></path></g></g><mask></mask><g transform="translate(610 76) rotate(0 54.85999298095703 12.5)"><text x="0" y="17.52" font-family="Virgil, Segoe UI Emoji" font-size="20px" fill="#1e1e1e" text-anchor="start" style="white-space: pre;" direction="ltr" dominant-baseline="alphabetic">2. 加载页块</text></g><g stroke-linecap="round" transform="translate(410 320) rotate(0 89 59)"><path d="M29.5 0 C73.34 1.78, 118.16 2.19, 148.5 0 M29.5 0 C69.38 -0.31, 108.61 -0.9, 148.5 0 M148.5 0 C166.58 -0.51, 178.38 11.16, 178 29.5 M148.5 0 C168.22 0.88, 177.45 11.53, 178 29.5 M178 29.5 C178.29 47.74, 176.74 64.95, 178 88.5 M178 29.5 C177.58 48.51, 178.47 66.7, 178 88.5 M178 88.5 C179.91 108.18, 169.4 116.6, 148.5 118 M178 88.5 C177.31 108.93, 166.78 119.74, 148.5 118 M148.5 118 C109.78 119.27, 74.62 116.98, 29.5 118 M148.5 118 C101.43 119.66, 53.21 118.72, 29.5 118 M29.5 118 C9.88 117.94, 0.14 107.62, 0 88.5 M29.5 118 C8.86 116.49, -2.19 108.44, 0 88.5 M0 88.5 C0.27 72.77, -2.1 57.46, 0 29.5 M0 88.5 C0.29 67.64, 0.9 47.09, 0 29.5 M0 29.5 C-0.81 8.34, 8.12 0.74, 29.5 0 M0 29.5 C1.63 11.21, 8.25 1.62, 29.5 0" stroke="#1e1e1e" stroke-width="2" fill="none"></path></g><g transform="translate(423.99007415771484 366.5) rotate(0 75.00992584228516 12.5)"><text x="75.00992584228516" y="17.52" font-family="Virgil, Segoe UI Emoji" font-size="20px" fill="#1e1e1e" text-anchor="middle" style="white-space: pre;" direction="ltr" dominant-baseline="alphabetic">undo log buffer</text></g><g stroke-linecap="round"><g transform="translate(472.8078512237587 158) rotate(0 -2.716073238026638 79)"><path d="M0.05 0.01 C-0.79 26.43, -3.54 130.93, -4.3 157.45 M-1.38 -1.03 C-2.35 25.65, -4.08 132.29, -4.65 158.7" stroke="#1e1e1e" stroke-width="2" fill="none"></path></g><g transform="translate(472.8078512237587 158) rotate(0 -2.716073238026638 79)"><path d="M-12.75 135.05 C-9.98 145.61, -7.94 153.92, -4.65 158.7 M-12.75 135.05 C-10.27 144.61, -6.59 154.1, -4.65 158.7" stroke="#1e1e1e" stroke-width="2" fill="none"></path></g><g transform="translate(472.8078512237587 158) rotate(0 -2.716073238026638 79)"><path d="M4.34 135.37 C0.86 145.82, -3.37 154.01, -4.65 158.7 M4.34 135.37 C0.06 144.82, -3.03 154.19, -4.65 158.7" stroke="#1e1e1e" stroke-width="2" fill="none"></path></g></g><mask></mask><g transform="translate(344 218) rotate(0 59.54999542236328 12.5)"><text x="0" y="17.52" font-family="Virgil, Segoe UI Emoji" font-size="20px" fill="#1e1e1e" text-anchor="start" style="white-space: pre;" direction="ltr" dominant-baseline="alphabetic">3.备份旧数据</text></g><g stroke-linecap="round"><g transform="translate(564.6938953078795 156.75464418088308) rotate(0 22.6731278962925 23.473780703200504)"><path d="M-0.85 0.22 C6.87 8.16, 38.22 38.78, 45.73 46.53 M0.91 -0.7 C8.55 7.49, 37.38 39.74, 44.99 47.85" stroke="#1e1e1e" stroke-width="2" fill="none"></path></g><g transform="translate(564.6938953078795 156.75464418088308) rotate(0 22.6731278962925 23.473780703200504)"><path d="M22.83 36.28 C28.75 40.03, 33.32 40.53, 44.99 47.85 M22.83 36.28 C29.31 40.26, 35.31 42.81, 44.99 47.85" stroke="#1e1e1e" stroke-width="2" fill="none"></path></g><g transform="translate(564.6938953078795 156.75464418088308) rotate(0 22.6731278962925 23.473780703200504)"><path d="M35.45 24.74 C38.05 31.34, 39.41 34.78, 44.99 47.85 M35.45 24.74 C38.43 31.92, 40.87 37.73, 44.99 47.85" stroke="#1e1e1e" stroke-width="2" fill="none"></path></g></g><mask></mask><g transform="translate(618 172) rotate(0 46.3699951171875 12.5)"><text x="0" y="17.52" font-family="Virgil, Segoe UI Emoji" font-size="20px" fill="#1e1e1e" text-anchor="start" style="white-space: pre;" direction="ltr" dominant-baseline="alphabetic">n+1.持久化</text></g><g stroke-linecap="round" transform="translate(606 208) rotate(0 45 17.5)"><path d="M8.75 0 C35.05 -0.49, 63.04 -1.48, 81.25 0 M8.75 0 C35.81 -0.18, 62.09 0.02, 81.25 0 M81.25 0 C86.26 0.21, 88.66 1.78, 90 8.75 M81.25 0 C87.82 1.37, 90.4 3.35, 90 8.75 M90 8.75 C91.15 14.32, 90.34 20.5, 90 26.25 M90 8.75 C90.57 15.27, 90.73 22.01, 90 26.25 M90 26.25 C90.78 31.97, 85.13 35.68, 81.25 35 M90 26.25 C91.58 31.3, 86.79 35.31, 81.25 35 M81.25 35 C61.49 35.47, 40.22 36.03, 8.75 35 M81.25 35 C65.21 35.15, 49.68 34, 8.75 35 M8.75 35 C3.29 33.51, -1.01 33.29, 0 26.25 M8.75 35 C4.03 34.81, 0.83 32.69, 0 26.25 M0 26.25 C-1.02 19.47, -0.8 13.49, 0 8.75 M0 26.25 C-0.7 20.16, -0.16 13.87, 0 8.75 M0 8.75 C0.16 4.15, 1.36 -0.61, 8.75 0 M0 8.75 C-1.11 4.8, 4.5 -2.17, 8.75 0" stroke="#1e1e1e" stroke-width="2" fill="none"></path></g><g transform="translate(625.8800277709961 213) rotate(0 25.119972229003906 12.5)"><text x="25.119972229003906" y="17.52" font-family="Virgil, Segoe UI Emoji" font-size="20px" fill="#1e1e1e" text-anchor="middle" style="white-space: pre;" direction="ltr" dominant-baseline="alphabetic">binlog</text></g><g stroke-linecap="round"><g transform="translate(698 226) rotate(0 32 -1)"><path d="M0.29 0.26 C10.91 -0.02, 53.37 -1.63, 63.91 -1.9 M-1.02 -0.64 C9.42 -0.7, 52.33 0.14, 62.91 -0.31" stroke="#1e1e1e" stroke-width="2" fill="none"></path></g><g transform="translate(698 226) rotate(0 32 -1)"><path d="M39.48 8.4 C47.27 5.47, 54.33 2.06, 62.91 -0.31 M39.48 8.4 C46.98 4.74, 56.87 3.02, 62.91 -0.31" stroke="#1e1e1e" stroke-width="2" fill="none"></path></g><g transform="translate(698 226) rotate(0 32 -1)"><path d="M39.36 -8.7 C47.16 -6.28, 54.26 -4.33, 62.91 -0.31 M39.36 -8.7 C46.91 -6.29, 56.84 -1.93, 62.91 -0.31" stroke="#1e1e1e" stroke-width="2" fill="none"></path></g></g><mask></mask><g stroke-linecap="round" transform="translate(35 358) rotate(0 77 18)"><path d="M9 0 C60.78 0.66, 114.18 -0.88, 145 0 M9 0 C41.87 -0.23, 77.26 -0.5, 145 0 M145 0 C150.54 -0.99, 155.22 4.35, 154 9 M145 0 C150.15 -0.33, 154.69 4.48, 154 9 M154 9 C153.6 14.02, 153.27 19.51, 154 27 M154 9 C154.17 14.09, 154.03 17.01, 154 27 M154 27 C154.35 34.71, 151.08 34.33, 145 36 M154 27 C154.33 32.77, 150.1 34.99, 145 36 M145 36 C94.57 37.14, 43.94 39.26, 9 36 M145 36 C112.33 36.15, 81.62 36.76, 9 36 M9 36 C4.33 36.29, -0.46 34.83, 0 27 M9 36 C3.7 36.58, 1.94 34.65, 0 27 M0 27 C-1.44 21.37, 0.53 15.09, 0 9 M0 27 C-0.63 22.11, -0.26 16.86, 0 9 M0 9 C1.66 3.21, 2.01 1.63, 9 0 M0 9 C-0.28 0.71, 2.5 1.14, 9 0" stroke="#1e1e1e" stroke-width="2" fill="none"></path></g><g transform="translate(64.7300033569336 363.5) rotate(0 47.269996643066406 12.5)"><text x="47.269996643066406" y="17.52" font-family="Virgil, Segoe UI Emoji" font-size="20px" fill="#1e1e1e" text-anchor="middle" style="white-space: pre;" direction="ltr" dominant-baseline="alphabetic">执行事务B</text></g><g stroke-linecap="round"><g transform="translate(198 370.89020696598595) rotate(0 104.5 -6.539560906463294)"><path d="M-0.68 -0.34 C34.08 -2.69, 174.66 -11.94, 209.66 -13.96 M1.16 -1.56 C35.72 -3.8, 174.47 -10.73, 209.05 -12.89" stroke="#1e1e1e" stroke-width="2" fill="none"></path></g><g transform="translate(198 370.89020696598595) rotate(0 104.5 -6.539560906463294)"><path d="M186.07 -3.05 C194.54 -5.7, 202.67 -10.21, 209.05 -12.89 M186.07 -3.05 C193.54 -7.08, 202.48 -10.67, 209.05 -12.89" stroke="#1e1e1e" stroke-width="2" fill="none"></path></g><g transform="translate(198 370.89020696598595) rotate(0 104.5 -6.539560906463294)"><path d="M185.12 -20.13 C193.98 -16.05, 202.49 -13.84, 209.05 -12.89 M185.12 -20.13 C193.07 -18.21, 202.33 -15.86, 209.05 -12.89" stroke="#1e1e1e" stroke-width="2" fill="none"></path></g></g><mask></mask><g transform="translate(236 330) rotate(0 51.84999084472656 12.5)"><text x="0" y="17.52" font-family="Virgil, Segoe UI Emoji" font-size="20px" fill="#1e1e1e" text-anchor="start" style="white-space: pre;" direction="ltr" dominant-baseline="alphabetic">4.1执行查询</text></g><g stroke-linecap="round"><g transform="translate(400 400) rotate(0 -102 -6)"><path d="M-0.86 1.16 C-34.97 -0.79, -169.79 -9.44, -203.59 -11.57 M0.89 0.72 C-33.43 -1.6, -170.13 -11.05, -204.33 -13.47" stroke="#1e1e1e" stroke-width="2" fill="none"></path></g><g transform="translate(400 400) rotate(0 -102 -6)"><path d="M-180.3 -20.36 C-187.69 -17.18, -198.22 -14.7, -204.33 -13.47 M-180.3 -20.36 C-189.03 -18.76, -196.71 -16.15, -204.33 -13.47" stroke="#1e1e1e" stroke-width="2" fill="none"></path></g><g transform="translate(400 400) rotate(0 -102 -6)"><path d="M-181.49 -3.3 C-188.43 -6.73, -198.5 -10.87, -204.33 -13.47 M-181.49 -3.3 C-189.74 -7.36, -197.02 -10.4, -204.33 -13.47" stroke="#1e1e1e" stroke-width="2" fill="none"></path></g></g><mask></mask><g transform="translate(224.15000915527344 399.5) rotate(0 56.259986877441406 12.5)"><text x="0" y="17.52" font-family="Virgil, Segoe UI Emoji" font-size="20px" fill="#1e1e1e" text-anchor="start" style="white-space: pre;" direction="ltr" dominant-baseline="alphabetic">4.2返回结果</text></g><g stroke-linecap="round"><g transform="translate(598 392) rotate(0 72 -1)"><path d="M-0.67 1.05 C23.29 0.72, 119.76 -2.33, 143.82 -2.77 M1.18 0.56 C24.96 0.43, 119.19 -0.92, 142.78 -1.63" stroke="#1e1e1e" stroke-width="2" fill="none"></path></g><g transform="translate(598 392) rotate(0 72 -1)"><path d="M119.47 7.41 C128.42 4.47, 132.52 1.46, 142.78 -1.63 M119.47 7.41 C126.45 4.44, 134.41 1.93, 142.78 -1.63" stroke="#1e1e1e" stroke-width="2" fill="none"></path></g><g transform="translate(598 392) rotate(0 72 -1)"><path d="M119.11 -9.69 C128.07 -7.39, 132.28 -5.17, 142.78 -1.63 M119.11 -9.69 C126.3 -6.93, 134.37 -3.73, 142.78 -1.63" stroke="#1e1e1e" stroke-width="2" fill="none"></path></g></g><mask></mask><g transform="translate(618 366) rotate(0 37.409996032714844 12.5)"><text x="0" y="17.52" font-family="Virgil, Segoe UI Emoji" font-size="20px" fill="#1e1e1e" text-anchor="start" style="white-space: pre;" direction="ltr" dominant-baseline="alphabetic">n.持久化</text></g><g stroke-linecap="round"><g transform="translate(530 314) rotate(0 -1 -78)"><path d="M-0.31 0.55 C-0.54 -25.64, -2.13 -130.18, -2.22 -156.35" stroke="#2f9e44" stroke-width="2.5" fill="none" stroke-dasharray="1.5 8"></path></g><g transform="translate(530 314) rotate(0 -1 -78)"><path d="M6.57 -132.94 C5.31 -138.71, 1.79 -141.84, -2.22 -156.35" stroke="#2f9e44" stroke-width="2.5" fill="none" stroke-dasharray="1.5 6"></path></g><g transform="translate(530 314) rotate(0 -1 -78)"><path d="M-10.53 -132.77 C-7.86 -138.54, -7.44 -141.7, -2.22 -156.35" stroke="#2f9e44" stroke-width="2.5" fill="none" stroke-dasharray="1.5 6"></path></g></g><mask></mask><g transform="translate(536 256) rotate(0 28.91999053955078 12.5)"><text x="0" y="17.52" font-family="Virgil, Segoe UI Emoji" font-size="20px" fill="#2f9e44" text-anchor="start" style="white-space: pre;" direction="ltr" dominant-baseline="alphabetic">5.回滚</text></g><g stroke-linecap="round" transform="translate(556 544) rotate(0 55 17.5)"><path d="M8.75 0 C34.32 -1.62, 62.31 0.51, 101.25 0 M8.75 0 C40.95 -0.1, 70.91 0.23, 101.25 0 M101.25 0 C108.64 -1.01, 111.76 3.56, 110 8.75 M101.25 0 C108.01 -1.3, 110.67 3.35, 110 8.75 M110 8.75 C109.92 15.38, 109.49 21.5, 110 26.25 M110 8.75 C110.54 13.04, 109.12 18.56, 110 26.25 M110 26.25 C110.53 33.62, 105.27 34.65, 101.25 35 M110 26.25 C109.96 30.77, 105.25 32.99, 101.25 35 M101.25 35 C82.46 36.06, 59.89 35.06, 8.75 35 M101.25 35 C74.57 33.45, 46.88 34.88, 8.75 35 M8.75 35 C3.93 33.92, -1.23 32.95, 0 26.25 M8.75 35 C4.41 35.83, -0.66 32.49, 0 26.25 M0 26.25 C1.48 21.62, -1.39 16.01, 0 8.75 M0 26.25 C0 20.74, 0.29 15.93, 0 8.75 M0 8.75 C0.4 3.58, 4.43 -0.24, 8.75 0 M0 8.75 C-0.77 2.91, 1.27 0.45, 8.75 0" stroke="#1e1e1e" stroke-width="2" fill="none"></path></g><g transform="translate(585.6100311279297 549) rotate(0 25.389968872070312 12.5)"><text x="25.389968872070312" y="17.52" font-family="Virgil, Segoe UI Emoji" font-size="20px" fill="#1e1e1e" text-anchor="middle" style="white-space: pre;" direction="ltr" dominant-baseline="alphabetic">purge</text></g><g stroke-linecap="round"><g transform="translate(663.0233218845974 540) rotate(0 36.488339057701296 -24.147313912563618)"><path d="M-1.2 -0.63 C11.05 -8.81, 61.23 -40.19, 73.43 -48.22 M0.38 1.66 C12.5 -6.38, 60.38 -38.4, 72.73 -46.64" stroke="#1e1e1e" stroke-width="2" fill="none"></path></g><g transform="translate(663.0233218845974 540) rotate(0 36.488339057701296 -24.147313912563618)"><path d="M57.94 -26.48 C61.17 -31.59, 66.76 -39.95, 72.73 -46.64 M57.94 -26.48 C62.14 -32.47, 65.57 -36.62, 72.73 -46.64" stroke="#1e1e1e" stroke-width="2" fill="none"></path></g><g transform="translate(663.0233218845974 540) rotate(0 36.488339057701296 -24.147313912563618)"><path d="M48.44 -40.7 C54.61 -41.47, 63.04 -45.57, 72.73 -46.64 M48.44 -40.7 C55.17 -43.13, 61.03 -43.64, 72.73 -46.64" stroke="#1e1e1e" stroke-width="2" fill="none"></path></g></g><mask></mask><g transform="translate(638 510) rotate(0 20 12.5)"><text x="0" y="17.52" font-family="Virgil, Segoe UI Emoji" font-size="20px" fill="#1e1e1e" text-anchor="start" style="white-space: pre;" direction="ltr" dominant-baseline="alphabetic">回收</text></g></svg>