<svg version="1.1" xmlns="http://www.w3.org/2000/svg" viewBox="0 0 1262 340" width="1262" height="340">
  <!-- svg-source:excalidraw -->
  
  <defs>
    <style class="style-fonts">
      @font-face {
        font-family: "Virgil";
        src: url("https://excalidraw.com/Virgil.woff2");
      }
      @font-face {
        font-family: "Cascadia";
        src: url("https://excalidraw.com/Cascadia.woff2");
      }
      @font-face {
        font-family: "Assistant";
        src: url("https://excalidraw.com/Assistant-Regular.woff2");
      }
    </style>
    
  </defs>
  <rect x="0" y="0" width="1262" height="340" fill="#ffffff"></rect><g stroke-linecap="round" transform="translate(10 44) rotate(0 258 142)"><path d="M32 0 C126.71 0.09, 221.67 -0.1, 484 0 M32 0 C165.55 0.1, 299.74 0.72, 484 0 M484 0 C503.41 -0.02, 514.37 10.74, 516 32 M484 0 C507.4 1.97, 516.06 9.9, 516 32 M516 32 C515.68 114.63, 515.46 194.72, 516 252 M516 32 C516.68 108.78, 516.3 185.71, 516 252 M516 252 C516.26 274.5, 504.5 284.38, 484 284 M516 252 C516.64 274.39, 503.18 283.03, 484 284 M484 284 C319.79 285, 153.83 284.1, 32 284 M484 284 C368.8 282.81, 253.61 282.78, 32 284 M32 284 C11.1 285.11, 1.77 273.92, 0 252 M32 284 C9.63 284.36, -1.69 271.27, 0 252 M0 252 C0.28 176.1, -2.6 97.55, 0 32 M0 252 C-0.45 177.87, -0.34 103.68, 0 32 M0 32 C0.1 9.71, 8.91 1.8, 32 0 M0 32 C-2.08 9.24, 11.61 1.12, 32 0" stroke="#1e1e1e" stroke-width="2" fill="none"></path></g><g transform="translate(30 14) rotate(0 71.46997833251953 12.5)"><text x="0" y="17.52" font-family="Virgil, Segoe UI Emoji" font-size="20px" fill="#1e1e1e" text-anchor="start" style="white-space: pre;" direction="ltr" dominant-baseline="alphabetic">MySQL执行事务</text></g><g stroke-linecap="round" transform="translate(18 86) rotate(0 248 33)"><path d="M16.5 0 C166.03 -2.23, 313.78 -1.76, 479.5 0 M16.5 0 C116.45 0.07, 215.89 0.3, 479.5 0 M479.5 0 C491.88 -1.38, 497.69 6.4, 496 16.5 M479.5 0 C491.86 1.21, 493.95 7.05, 496 16.5 M496 16.5 C497.27 30.12, 494.99 41.77, 496 49.5 M496 16.5 C496.31 26.82, 495.51 37.04, 496 49.5 M496 49.5 C494.83 58.92, 489.18 64.39, 479.5 66 M496 49.5 C496.35 58.3, 488.6 66.68, 479.5 66 M479.5 66 C324.47 66.94, 169.59 67, 16.5 66 M479.5 66 C353.33 66.36, 226.21 66.77, 16.5 66 M16.5 66 C7.09 65.28, -0.45 60.42, 0 49.5 M16.5 66 C4.52 64.38, -1.24 62.25, 0 49.5 M0 49.5 C2.16 35.27, 0.91 24.33, 0 16.5 M0 49.5 C0.15 37.2, 0.21 27.15, 0 16.5 M0 16.5 C1.53 6.94, 6.93 1.05, 16.5 0 M0 16.5 C-0.04 4.98, 4.59 0.79, 16.5 0" stroke="#1e1e1e" stroke-width="2" fill="none"></path></g><g transform="translate(30 64) rotate(0 30 12.5)"><text x="0" y="17.52" font-family="Virgil, Segoe UI Emoji" font-size="20px" fill="#1e1e1e" text-anchor="start" style="white-space: pre;" direction="ltr" dominant-baseline="alphabetic">事务一</text></g><g transform="translate(46 108) rotate(0 209.13983154296875 12.5)"><text x="0" y="17.52" font-family="Virgil, Segoe UI Emoji" font-size="20px" fill="#1e1e1e" text-anchor="start" style="white-space: pre;" direction="ltr" dominant-baseline="alphabetic">insert into table1 (id,name) values (1,chilun)</text></g><g stroke-linecap="round" transform="translate(16 214) rotate(0 248 33)"><path d="M16.5 0 C196.04 -1.45, 375.15 -1.13, 479.5 0 M16.5 0 C136.22 1.43, 256.78 1.84, 479.5 0 M479.5 0 C492.4 1.61, 495.05 7.17, 496 16.5 M479.5 0 C491.36 -1.68, 497.98 5.65, 496 16.5 M496 16.5 C494.59 23.61, 497.09 33.88, 496 49.5 M496 16.5 C496.37 22.7, 494.89 29.4, 496 49.5 M496 49.5 C497.45 59.77, 492.26 64.82, 479.5 66 M496 49.5 C497.53 59.28, 489.57 66.35, 479.5 66 M479.5 66 C349.77 66.1, 220.5 67.55, 16.5 66 M479.5 66 C349.39 66.76, 219.14 66.6, 16.5 66 M16.5 66 C6.51 67.09, 0.43 60.26, 0 49.5 M16.5 66 C4.46 65.04, -0.08 59.52, 0 49.5 M0 49.5 C1.27 34.42, -0.21 23.54, 0 16.5 M0 49.5 C-1 42.05, -0.2 34.38, 0 16.5 M0 16.5 C-0.41 3.69, 4.82 -1.1, 16.5 0 M0 16.5 C-0.67 4.44, 3.59 0.09, 16.5 0" stroke="#1e1e1e" stroke-width="2" fill="none"></path></g><g transform="translate(28 192) rotate(0 30 12.5)"><text x="0" y="17.52" font-family="Virgil, Segoe UI Emoji" font-size="20px" fill="#1e1e1e" text-anchor="start" style="white-space: pre;" direction="ltr" dominant-baseline="alphabetic">事务二</text></g><g transform="translate(44 236) rotate(0 192.99984741210938 12.5)"><text x="0" y="17.52" font-family="Virgil, Segoe UI Emoji" font-size="20px" fill="#1e1e1e" text-anchor="start" style="white-space: pre;" direction="ltr" dominant-baseline="alphabetic">update table1 set name=xmf where id=1</text></g><g stroke-linecap="round" transform="translate(630 40) rotate(0 311 145)"><path d="M32 0 C179.38 0.99, 325.82 1.9, 590 0 M32 0 C223.41 1.19, 415.47 1.08, 590 0 M590 0 C609.96 1.08, 621.56 9.17, 622 32 M590 0 C611.88 -1.43, 619.9 9.36, 622 32 M622 32 C622.74 118.44, 623.46 206.81, 622 258 M622 32 C621.37 90.3, 619.94 146.57, 622 258 M622 258 C623.47 280.44, 610.15 290.15, 590 290 M622 258 C621.25 279.91, 613.39 289.09, 590 290 M590 290 C416.85 292.23, 244.14 290.83, 32 290 M590 290 C414.46 290.86, 237.99 291.54, 32 290 M32 290 C9.4 291.64, 0.1 281.17, 0 258 M32 290 C11.43 290.39, -0.65 281.45, 0 258 M0 258 C-0.12 169.26, 2.77 79.91, 0 32 M0 258 C0.28 207.64, -0.74 159.06, 0 32 M0 32 C-1.98 12.55, 9.11 1.78, 32 0 M0 32 C1.17 9.92, 9.95 -1.63, 32 0" stroke="#1e1e1e" stroke-width="2" fill="none"></path></g><g transform="translate(662 10) rotate(0 39.75996398925781 12.5)"><text x="0" y="17.52" font-family="Virgil, Segoe UI Emoji" font-size="20px" fill="#1e1e1e" text-anchor="start" style="white-space: pre;" direction="ltr" dominant-baseline="alphabetic">undo log</text></g><g stroke-linecap="round" transform="translate(666 76) rotate(0 278 30)"><path d="M15 0 C223.7 1.13, 433.32 1, 541 0 M15 0 C222.73 1.74, 430.5 1.78, 541 0 M541 0 C551.34 -0.38, 555.92 5.63, 556 15 M541 0 C552.3 -1.87, 556.09 3.95, 556 15 M556 15 C555.73 20.31, 557.6 27.69, 556 45 M556 15 C556.42 25.32, 556.19 37.12, 556 45 M556 45 C554.8 54.51, 550.75 61.72, 541 60 M556 45 C555.62 55.42, 549.66 60.64, 541 60 M541 60 C425.29 60.65, 310.63 61.22, 15 60 M541 60 C337.04 60.33, 133.11 60.25, 15 60 M15 60 C6.52 61.38, 1.83 55.57, 0 45 M15 60 C3.09 59.61, -1.01 56.23, 0 45 M0 45 C0.98 35.46, 1.16 28.98, 0 15 M0 45 C0.65 34.13, -1.08 22.83, 0 15 M0 15 C-1.67 4.55, 3.12 -0.09, 15 0 M0 15 C-1.02 6.82, 5.9 -1.57, 15 0" stroke="#1e1e1e" stroke-width="2" fill="none"></path></g><g stroke-linecap="round"><g transform="translate(516 121.85676109425259) rotate(0 72 -6.662936484896278)"><path d="M1.2 -0.13 C25 -2.13, 119.93 -10.07, 143.72 -12.26 M0.37 -1.24 C23.91 -3.54, 118.83 -12.04, 142.62 -13.82" stroke="#1e1e1e" stroke-width="2" fill="none"></path></g><g transform="translate(516 121.85676109425259) rotate(0 72 -6.662936484896278)"><path d="M119.92 -3.35 C128.23 -7.98, 138.73 -11.59, 142.62 -13.82 M119.92 -3.35 C127.31 -6.49, 132.9 -9.52, 142.62 -13.82" stroke="#1e1e1e" stroke-width="2" fill="none"></path></g><g transform="translate(516 121.85676109425259) rotate(0 72 -6.662936484896278)"><path d="M118.5 -20.39 C127.31 -18.64, 138.35 -15.87, 142.62 -13.82 M118.5 -20.39 C126.24 -18.32, 132.27 -16.15, 142.62 -13.82" stroke="#1e1e1e" stroke-width="2" fill="none"></path></g></g><mask></mask><g stroke-linecap="round"><g transform="translate(242 156) rotate(0 0 25)"><path d="M1.19 0.32 C1.2 8.65, 0.94 41.6, 0.71 49.82 M0.36 -0.55 C0.21 7.97, 0.37 42.7, 0.14 51.26" stroke="#1e1e1e" stroke-width="2" fill="none"></path></g><g transform="translate(242 156) rotate(0 0 25)"><path d="M-8.2 27.69 C-4.7 37.21, -2.57 44.17, 0.14 51.26 M-8.2 27.69 C-5.27 34.02, -3.42 41.23, 0.14 51.26" stroke="#1e1e1e" stroke-width="2" fill="none"></path></g><g transform="translate(242 156) rotate(0 0 25)"><path d="M8.9 27.84 C6.29 37.48, 2.31 44.39, 0.14 51.26 M8.9 27.84 C7.21 34.06, 4.44 41.22, 0.14 51.26" stroke="#1e1e1e" stroke-width="2" fill="none"></path></g></g><mask></mask><g transform="translate(256 172) rotate(0 50 12.5)"><text x="0" y="17.52" font-family="Virgil, Segoe UI Emoji" font-size="20px" fill="#1e1e1e" text-anchor="start" style="white-space: pre;" direction="ltr" dominant-baseline="alphabetic">下一个执行</text></g><g transform="translate(560 90) rotate(0 20 12.5)"><text x="0" y="17.52" font-family="Virgil, Segoe UI Emoji" font-size="20px" fill="#1e1e1e" text-anchor="start" style="white-space: pre;" direction="ltr" dominant-baseline="alphabetic">创建</text></g><g transform="translate(672 96) rotate(0 31.65998077392578 12.5)"><text x="0" y="17.52" font-family="Virgil, Segoe UI Emoji" font-size="20px" fill="#1e1e1e" text-anchor="start" style="white-space: pre;" direction="ltr" dominant-baseline="alphabetic">RowID</text></g><g stroke-linecap="round"><g transform="translate(742 78) rotate(0 0 28)"><path d="M-0.89 -0.46 C-0.85 8.97, 0.77 46.62, 0.82 56.08 M0.84 -1.75 C0.74 7.94, 0.71 47.73, 0.3 57.65" stroke="#1e1e1e" stroke-width="2" fill="none"></path></g></g><mask></mask><g transform="translate(750 96) rotate(0 33.24999237060547 12.5)"><text x="0" y="17.52" font-family="Virgil, Segoe UI Emoji" font-size="20px" fill="#1e1e1e" text-anchor="start" style="white-space: pre;" direction="ltr" dominant-baseline="alphabetic">事务ID</text></g><g stroke-linecap="round"><g transform="translate(826 78) rotate(0 0 29)"><path d="M-0.69 0.67 C-0.52 10.36, 0.28 49.02, 0.46 58.75 M1.15 -0.02 C1.24 9.27, -0.03 47.48, -0.25 57.02" stroke="#1e1e1e" stroke-width="2" fill="none"></path></g></g><mask></mask><g stroke-linecap="round"><g transform="translate(898 78) rotate(0 0 28)"><path d="M-0.49 0.03 C-0.56 9.22, -0.32 46.39, -0.32 55.58 M1.46 -0.99 C1.19 8.33, -0.94 47.39, -1.44 56.89" stroke="#1e1e1e" stroke-width="2" fill="none"></path></g></g><mask></mask><g transform="translate(832 87.62500000000006) rotate(0 31 19.37499999999997)"><text x="0" y="13.577999999999978" font-family="Virgil, Segoe UI Emoji" font-size="15.499999999999973px" fill="#1e1e1e" text-anchor="start" style="white-space: pre;" direction="ltr" dominant-baseline="alphabetic">回滚指针</text><text x="0" y="32.952999999999946" font-family="Virgil, Segoe UI Emoji" font-size="15.499999999999973px" fill="#1e1e1e" text-anchor="start" style="white-space: pre;" direction="ltr" dominant-baseline="alphabetic">null</text></g><g transform="translate(918 98) rotate(0 37.939964294433594 12.5)"><text x="0" y="17.52" font-family="Virgil, Segoe UI Emoji" font-size="20px" fill="#1e1e1e" text-anchor="start" style="white-space: pre;" direction="ltr" dominant-baseline="alphabetic">(1,chilun)</text></g><g stroke-linecap="round" transform="translate(666 205.62647961936887) rotate(0 278 30)"><path d="M15 0 C127.46 0.23, 240 -0.24, 541 0 M15 0 C157.64 2.32, 299.99 1.72, 541 0 M541 0 C550.42 -0.61, 554.94 6.37, 556 15 M541 0 C551.72 -1.06, 557.72 6.11, 556 15 M556 15 C557.65 23.26, 556.31 32.21, 556 45 M556 15 C555.18 25.66, 556.79 36.76, 556 45 M556 45 C554.59 53.24, 551.84 58.75, 541 60 M556 45 C554.35 56.24, 548.91 59.23, 541 60 M541 60 C416.61 60.94, 294.24 59.65, 15 60 M541 60 C351.01 61.54, 160.28 61.37, 15 60 M15 60 C6.09 60.07, 0.37 55.67, 0 45 M15 60 C2.8 59.12, 1.92 57.19, 0 45 M0 45 C-2.03 36.99, 1.77 31.43, 0 15 M0 45 C0.53 34.54, 0.67 23.86, 0 15 M0 15 C0.52 3.78, 5.54 -1.77, 15 0 M0 15 C-0.64 4.95, 6.54 0.61, 15 0" stroke="#1e1e1e" stroke-width="2" fill="none"></path></g><g transform="translate(672 225.62647961936887) rotate(0 31.65998077392578 12.5)"><text x="0" y="17.52" font-family="Virgil, Segoe UI Emoji" font-size="20px" fill="#1e1e1e" text-anchor="start" style="white-space: pre;" direction="ltr" dominant-baseline="alphabetic">RowID</text></g><g stroke-linecap="round"><g transform="translate(742 207.62647961936887) rotate(0 0 28)"><path d="M0.38 -0.34 C0.28 8.62, 0.52 45.31, 0.44 54.88 M-0.87 -1.57 C-1.19 8.01, -0.26 46.35, -0.28 55.83" stroke="#1e1e1e" stroke-width="2" fill="none"></path></g></g><mask></mask><g transform="translate(750 225.62647961936887) rotate(0 33.24999237060547 12.5)"><text x="0" y="17.52" font-family="Virgil, Segoe UI Emoji" font-size="20px" fill="#1e1e1e" text-anchor="start" style="white-space: pre;" direction="ltr" dominant-baseline="alphabetic">事务ID</text></g><g stroke-linecap="round"><g transform="translate(826 207.62647961936887) rotate(0 0 29)"><path d="M-0.12 1.07 C-0.37 10.79, -1.05 47.82, -1.09 57.25 M-1.64 0.58 C-1.58 10.54, 0.99 48.7, 1.05 58.39" stroke="#1e1e1e" stroke-width="2" fill="none"></path></g></g><mask></mask><g stroke-linecap="round"><g transform="translate(898 207.62647961936887) rotate(0 0 28)"><path d="M-1.09 -0.75 C-1.13 8.34, -0.42 46.04, -0.35 55.63 M0.53 1.47 C0.32 11.25, -1.1 48.07, -1.48 56.98" stroke="#1e1e1e" stroke-width="2" fill="none"></path></g></g><mask></mask><g transform="translate(832 225.25147961936898) rotate(0 31 9.6875)"><text x="0" y="13.577999999999978" font-family="Virgil, Segoe UI Emoji" font-size="15.499999999999973px" fill="#1e1e1e" text-anchor="start" style="white-space: pre;" direction="ltr" dominant-baseline="alphabetic">回滚指针</text></g><g transform="translate(918 227.62647961936887) rotate(0 37.939964294433594 12.5)"><text x="0" y="17.52" font-family="Virgil, Segoe UI Emoji" font-size="20px" fill="#1e1e1e" text-anchor="start" style="white-space: pre;" direction="ltr" dominant-baseline="alphabetic">(1,chilun)</text></g><g stroke-linecap="round"><g transform="translate(515.9587111883657 239.48549562174514) rotate(0 73 -1.1458823736761587)"><path d="M-0.48 0.05 C23.8 -0.29, 120.71 -1.83, 145.3 -2.21 M1.48 -0.98 C26.17 -1.09, 123.41 -0.64, 147.65 -0.63" stroke="#1e1e1e" stroke-width="2" fill="none"></path></g><g transform="translate(515.9587111883657 239.48549562174514) rotate(0 73 -1.1458823736761587)"><path d="M124.14 7.86 C130.63 4.48, 137.1 5.19, 147.65 -0.63 M124.14 7.86 C130.73 6.08, 138.77 3.13, 147.65 -0.63" stroke="#1e1e1e" stroke-width="2" fill="none"></path></g><g transform="translate(515.9587111883657 239.48549562174514) rotate(0 73 -1.1458823736761587)"><path d="M124.18 -9.24 C130.64 -7.96, 137.1 -2.59, 147.65 -0.63 M124.18 -9.24 C130.85 -5.8, 138.87 -3.54, 147.65 -0.63" stroke="#1e1e1e" stroke-width="2" fill="none"></path></g></g><mask></mask><g transform="translate(559.9587111883657 214.13566084649642) rotate(0 20 12.5)"><text x="0" y="17.52" font-family="Virgil, Segoe UI Emoji" font-size="20px" fill="#1e1e1e" text-anchor="start" style="white-space: pre;" direction="ltr" dominant-baseline="alphabetic">创建</text></g><g stroke-linecap="round"><g transform="translate(862 216) rotate(0 -2 -38)"><path d="M1.09 -0.98 C0.17 -13.85, -4.22 -64.3, -5.08 -76.81 M0.21 1.13 C-0.4 -11.65, -2.08 -63.05, -2.93 -75.7" stroke="#1e1e1e" stroke-width="2" fill="none"></path></g><g transform="translate(862 216) rotate(0 -2 -38)"><path d="M6.72 -52.64 C1.76 -62.13, -1.23 -68.22, -2.93 -75.7 M6.72 -52.64 C4.87 -59.43, 0.29 -65.64, -2.93 -75.7" stroke="#1e1e1e" stroke-width="2" fill="none"></path></g><g transform="translate(862 216) rotate(0 -2 -38)"><path d="M-10.36 -51.83 C-9.56 -61.75, -6.78 -68.11, -2.93 -75.7 M-10.36 -51.83 C-7.19 -58.82, -6.75 -65.27, -2.93 -75.7" stroke="#1e1e1e" stroke-width="2" fill="none"></path></g></g><mask></mask><g transform="translate(866 176) rotate(0 50 8.928571428571416)"><text x="0" y="12.514285714285712" font-family="Virgil, Segoe UI Emoji" font-size="14.285714285714283px" fill="#1e1e1e" text-anchor="start" style="white-space: pre;" direction="ltr" dominant-baseline="alphabetic">指向前一个版本</text></g></svg>