<svg version="1.1" xmlns="http://www.w3.org/2000/svg" viewBox="0 0 1032.5 404" width="1032.5" height="404">
  <!-- svg-source:excalidraw -->
  
  <defs>
    <style class="style-fonts">
      @font-face {
        font-family: "Virgil";
        src: url("https://excalidraw.com/Virgil.woff2");
      }
      @font-face {
        font-family: "Cascadia";
        src: url("https://excalidraw.com/Cascadia.woff2");
      }
      @font-face {
        font-family: "Assistant";
        src: url("https://excalidraw.com/Assistant-Regular.woff2");
      }
    </style>
    
  </defs>
  <rect x="0" y="0" width="1032.5" height="404" fill="#ffffff"></rect><g stroke-linecap="round" transform="translate(406 10) rotate(0 77 191)"><path d="M32 0 C60.31 -0.33, 87.74 0.17, 122 0 M32 0 C59.91 -0.64, 89.76 -1.03, 122 0 M122 0 C142.85 1.45, 153.03 12.09, 154 32 M122 0 C144.59 0.71, 153.27 9.17, 154 32 M154 32 C155.63 153.71, 155.32 272.45, 154 350 M154 32 C154.97 107.5, 155.11 184.94, 154 350 M154 350 C152.59 371.74, 142.14 381.34, 122 382 M154 350 C152.04 373.16, 144.1 383.08, 122 382 M122 382 C91.2 380.02, 59.16 383.74, 32 382 M122 382 C102.3 382.27, 83.6 383.29, 32 382 M32 382 C11.85 380.14, -1.71 370.24, 0 350 M32 382 C9.66 381.29, 1.94 369.08, 0 350 M0 350 C-0.58 274, 0 198.67, 0 32 M0 350 C0.7 279.63, 1.34 210.59, 0 32 M0 32 C-0.98 12.01, 11.03 1, 32 0 M0 32 C0.5 9.79, 8.44 -0.23, 32 0" stroke="#1e1e1e" stroke-width="2" fill="none"></path></g><g stroke-linecap="round"><g transform="translate(408 278) rotate(0 77 0)"><path d="M0.09 0.99 C25.91 1.02, 128.18 0.04, 153.75 0.03 M-1.32 0.47 C24.42 0.71, 127.04 1.81, 152.68 1.59" stroke="#1e1e1e" stroke-width="2" fill="none"></path></g></g><mask></mask><g stroke-linecap="round"><g transform="translate(405.7838673297688 107.17341694758778) rotate(0 77 0)"><path d="M-0.37 0.07 C25.31 0.11, 129.26 -0.38, 154.88 -0.24 M1.64 -0.93 C27.16 -0.67, 129.29 1.17, 154.4 1.17" stroke="#1e1e1e" stroke-width="2" fill="none"></path></g></g><mask></mask><g transform="translate(254 252) rotate(0 68.58992767333984 12.5)"><text x="0" y="17.52" font-family="Virgil, Segoe UI Emoji" font-size="20px" fill="#1e1e1e" text-anchor="start" style="white-space: pre;" direction="ltr" dominant-baseline="alphabetic">m_up_limit_id</text></g><g transform="translate(566 270) rotate(0 40 12.5)"><text x="0" y="17.52" font-family="Virgil, Segoe UI Emoji" font-size="20px" fill="#1e1e1e" text-anchor="start" style="white-space: pre;" direction="ltr" dominant-baseline="alphabetic">低水位线</text></g><g transform="translate(258 86) rotate(0 72.23992919921875 12.5)"><text x="0" y="17.52" font-family="Virgil, Segoe UI Emoji" font-size="20px" fill="#1e1e1e" text-anchor="start" style="white-space: pre;" direction="ltr" dominant-baseline="alphabetic">m_low_limit_id</text></g><g transform="translate(568 94) rotate(0 40 12.5)"><text x="0" y="17.52" font-family="Virgil, Segoe UI Emoji" font-size="20px" fill="#1e1e1e" text-anchor="start" style="white-space: pre;" direction="ltr" dominant-baseline="alphabetic">高水位线</text></g><g stroke-linecap="round" transform="translate(406 108) rotate(0 77 86)"><path d="M1.6 -1.23 L154.62 0.66 L153.76 173.98 L-1.9 170.71" stroke="none" stroke-width="0" fill="#ffec99"></path><path d="M0 0 C38.81 -3.27, 78.87 -0.5, 154 0 M0 0 C32.35 -0.87, 62.96 -1.13, 154 0 M154 0 C154.76 55.26, 155.88 108.6, 154 172 M154 0 C154.27 54.08, 154.18 108.77, 154 172 M154 172 C120.37 173.31, 89.34 173.97, 0 172 M154 172 C94.3 170.82, 34.81 170.95, 0 172 M0 172 C1.79 113.41, 1.18 59.92, 0 0 M0 172 C0.07 108.43, -0.09 44.41, 0 0" stroke="#1e1e1e" stroke-width="2" fill="none"></path></g><g stroke-linecap="round" transform="translate(406 280) rotate(0 77 57)"><path d="M-1.26 -0.93 L152.18 -1.18 L154.36 112.48 L-0.59 112.23" stroke="none" stroke-width="0" fill="#b2f2bb"></path><path d="M0 0 C33.48 -0.97, 66.12 0.7, 154 0 M0 0 C48.73 -0.62, 97.93 -1.35, 154 0 M154 0 C156.08 38.16, 156.86 76.28, 154 114 M154 0 C154.14 34.43, 155.25 67.71, 154 114 M154 114 C118.47 114.1, 79.2 111.62, 0 114 M154 114 C103.77 116.22, 55.19 115.37, 0 114 M0 114 C-2.16 72.82, -2.7 31.71, 0 0 M0 114 C0.81 79.98, -0.02 47.95, 0 0" stroke="#1e1e1e" stroke-width="2" fill="none"></path></g><g stroke-linecap="round" transform="translate(406 10) rotate(0 77 48)"><path d="M-1.07 -0.64 L153.82 -1.66 L152.52 94.22 L-1.2 96.75" stroke="none" stroke-width="0" fill="#ffc9c9"></path><path d="M0 0 C57.37 -1.54, 118.69 -2.39, 154 0 M0 0 C49.34 -0.02, 100.47 0.98, 154 0 M154 0 C152.36 19.31, 153.69 40.1, 154 96 M154 0 C154.63 27.86, 155.45 54.53, 154 96 M154 96 C95.5 95.19, 37.79 97.26, 0 96 M154 96 C94.73 94.15, 35.27 93.92, 0 96 M0 96 C0.69 62.83, 0.09 29.91, 0 0 M0 96 C-0.2 61.84, -0.34 27.56, 0 0" stroke="#1e1e1e" stroke-width="2" fill="none"></path></g><g transform="translate(10 108) rotate(0 200 25)"><text x="0" y="17.52" font-family="Virgil, Segoe UI Emoji" font-size="20px" fill="#1e1e1e" text-anchor="start" style="white-space: pre;" direction="ltr" dominant-baseline="alphabetic">最大的未提交事务ID+1，代表目前已存在的</text><text x="0" y="42.519999999999996" font-family="Virgil, Segoe UI Emoji" font-size="20px" fill="#1e1e1e" text-anchor="start" style="white-space: pre;" direction="ltr" dominant-baseline="alphabetic">未提交写事务和未来出现的新事务的隔离线。</text></g><g transform="translate(420 168) rotate(0 70 25)"><text x="0" y="17.52" font-family="Virgil, Segoe UI Emoji" font-size="20px" fill="#1e1e1e" text-anchor="start" style="white-space: pre;" direction="ltr" dominant-baseline="alphabetic">所有可能未提交</text><text x="0" y="42.519999999999996" font-family="Virgil, Segoe UI Emoji" font-size="20px" fill="#1e1e1e" text-anchor="start" style="white-space: pre;" direction="ltr" dominant-baseline="alphabetic">事务ID的集合</text></g><g transform="translate(29.33331298828125 198.33331298828125) rotate(0 183.25 25)"><text x="0" y="17.52" font-family="Virgil, Segoe UI Emoji" font-size="20px" fill="#1e1e1e" text-anchor="start" style="white-space: pre;" direction="ltr" dominant-baseline="alphabetic">最小的未提交事务ID，代表目前已提交的</text><text x="0" y="42.519999999999996" font-family="Virgil, Segoe UI Emoji" font-size="20px" fill="#1e1e1e" text-anchor="start" style="white-space: pre;" direction="ltr" dominant-baseline="alphabetic">写事务和未提交写事务的隔离线。</text></g><g transform="translate(434 314) rotate(0 50 25)"><text x="0" y="17.52" font-family="Virgil, Segoe UI Emoji" font-size="20px" fill="#1e1e1e" text-anchor="start" style="white-space: pre;" direction="ltr" dominant-baseline="alphabetic">已提交事务</text><text x="0" y="42.519999999999996" font-family="Virgil, Segoe UI Emoji" font-size="20px" fill="#1e1e1e" text-anchor="start" style="white-space: pre;" direction="ltr" dominant-baseline="alphabetic">ID集合</text></g><g transform="translate(440 34) rotate(0 40 25)"><text x="0" y="17.52" font-family="Virgil, Segoe UI Emoji" font-size="20px" fill="#1e1e1e" text-anchor="start" style="white-space: pre;" direction="ltr" dominant-baseline="alphabetic">未来事务</text><text x="0" y="42.519999999999996" font-family="Virgil, Segoe UI Emoji" font-size="20px" fill="#1e1e1e" text-anchor="start" style="white-space: pre;" direction="ltr" dominant-baseline="alphabetic">ID集合</text></g><g transform="translate(572 178) rotate(0 27.89997100830078 12.5)"><text x="0" y="17.52" font-family="Virgil, Segoe UI Emoji" font-size="20px" fill="#1e1e1e" text-anchor="start" style="white-space: pre;" direction="ltr" dominant-baseline="alphabetic">m_ids</text></g><g transform="translate(656 180) rotate(0 183.25 12.5)"><text x="0" y="17.52" font-family="Virgil, Segoe UI Emoji" font-size="20px" fill="#1e1e1e" text-anchor="start" style="white-space: pre;" direction="ltr" dominant-baseline="alphabetic">记录创建快照时还未提交的事务ID的集合</text></g></svg>