<svg version="1.1" xmlns="http://www.w3.org/2000/svg" viewBox="0 0 1353.9856274317663 314.05265674046495" width="1353.9856274317663" height="314.05265674046495">
  <!-- svg-source:excalidraw -->
  
  <defs>
    <style class="style-fonts">
      @font-face {
        font-family: "Virgil";
        src: url("https://excalidraw.com/Virgil.woff2");
      }
      @font-face {
        font-family: "Cascadia";
        src: url("https://excalidraw.com/Cascadia.woff2");
      }
      @font-face {
        font-family: "Assistant";
        src: url("https://excalidraw.com/Assistant-Regular.woff2");
      }
    </style>
    
  </defs>
  <rect x="0" y="0" width="1353.9856274317663" height="314.05265674046495" fill="#ffffff"></rect><g stroke-linecap="round"><g transform="translate(145.32875077534572 56.107788474674095) rotate(0 345.77843738839715 -1.6110937529369096)"><path d="M0.54 -0.27 C115.92 -0.97, 576.92 -3.24, 691.89 -3.65 M-0.63 -1.46 C114.65 -2.03, 575.57 -1.78, 691.11 -2.34" stroke="#1e1e1e" stroke-width="2" fill="none"></path></g></g><mask></mask><g stroke-linecap="round"><g transform="translate(148.09137496279993 245.84226675385864) rotate(0 434.3885937999277 0.8055468764684406)"><path d="M-0.32 1.12 C144.2 1.61, 722.93 2.43, 867.97 2.49 M1.71 0.67 C146.53 0.87, 725.59 0.49, 870.26 0.82" stroke="#1e1e1e" stroke-width="2" fill="none"></path></g></g><mask></mask><g transform="translate(67.99937510572909 42.22185047539847) rotate(0 26.55999755859375 12.500000000000014)"><text x="0" y="17.52" font-family="Virgil, Segoe UI Emoji" font-size="20px" fill="#1e1e1e" text-anchor="start" style="white-space: pre;" direction="ltr" dominant-baseline="alphabetic">进程A</text></g><g transform="translate(76.0548438704136 235.5531008278284) rotate(0 27.269996643066406 12.5)"><text x="0" y="17.52" font-family="Virgil, Segoe UI Emoji" font-size="20px" fill="#1e1e1e" text-anchor="start" style="white-space: pre;" direction="ltr" dominant-baseline="alphabetic">进程B</text></g><g stroke-linecap="round" transform="translate(187.2203128230608 35.7774754636508) rotate(0 52.36054697044983 17.5)"><path d="M8.75 0 C37.04 -2.76, 59.49 -4.34, 95.97 0 C102.59 -2.15, 108.23 4.42, 104.72 8.75 C104.23 15.99, 106.58 20.94, 104.72 26.25 C103.65 29.23, 104.21 37.21, 95.97 35 C76.49 31.26, 57.68 30.7, 8.75 35 C1.98 37.67, -2.36 30.34, 0 26.25 C1 20.53, -2.65 16.72, 0 8.75 C-1.04 1.61, 3.17 1.71, 8.75 0" stroke="none" stroke-width="0" fill="#ffffff"></path><path d="M8.75 0 C32.89 2.32, 61.67 0.46, 95.97 0 M8.75 0 C25.38 0.13, 42.91 -0.1, 95.97 0 M95.97 0 C100.82 -1.6, 103.84 2.84, 104.72 8.75 M95.97 0 C100.59 -0.63, 103.5 4.84, 104.72 8.75 M104.72 8.75 C105.4 14.71, 104.65 17.04, 104.72 26.25 M104.72 8.75 C105.25 13.13, 105.74 16.6, 104.72 26.25 M104.72 26.25 C104.22 32.68, 100.92 33.04, 95.97 35 M104.72 26.25 C104.56 29.98, 99.6 36, 95.97 35 M95.97 35 C63.47 34.84, 32.56 34.64, 8.75 35 M95.97 35 C72.19 35.4, 48.19 34.33, 8.75 35 M8.75 35 C2.94 35, -0.51 31.27, 0 26.25 M8.75 35 C3.54 34.69, 2.13 33.55, 0 26.25 M0 26.25 C0.68 22.48, 1.47 16.3, 0 8.75 M0 26.25 C0.65 19.41, -0.21 12.92, 0 8.75 M0 8.75 C-1.89 1.46, 2.27 0.05, 8.75 0 M0 8.75 C-1.73 2.62, 4.06 -0.47, 8.75 0" stroke="#1e1e1e" stroke-width="2" fill="none"></path></g><g transform="translate(199.58085979351063 40.7774754636508) rotate(0 40 12.5)"><text x="40" y="17.52" font-family="Virgil, Segoe UI Emoji" font-size="20px" fill="#1e1e1e" text-anchor="middle" style="white-space: pre;" direction="ltr" dominant-baseline="alphabetic">发起事务</text></g><g stroke-linecap="round" transform="translate(334.63539121678855 36.80505362242539) rotate(0 92.63789079387294 17.5)"><path d="M8.75 0 C53.92 -1.03, 92.87 3.65, 176.53 0 C183.45 -3.12, 182.06 3.21, 185.28 8.75 C182.95 13.18, 182.91 16.28, 185.28 26.25 C186.48 34.63, 179.78 34.77, 176.53 35 C124.02 31.89, 75.59 34.59, 8.75 35 C5.05 35.39, 2.61 33.73, 0 26.25 C0.86 23, 1.71 16.39, 0 8.75 C-1.16 4.89, 3.36 -0.78, 8.75 0" stroke="none" stroke-width="0" fill="#ffffff"></path><path d="M8.75 0 C72.78 -2.22, 136.75 -1.71, 176.53 0 M8.75 0 C66.07 -1.12, 122.2 -1.26, 176.53 0 M176.53 0 C182.4 0.04, 186.72 2.52, 185.28 8.75 M176.53 0 C183.69 -1.47, 185.12 1.86, 185.28 8.75 M185.28 8.75 C185.03 14.52, 185.33 19.58, 185.28 26.25 M185.28 8.75 C184.95 16.1, 184.46 21.99, 185.28 26.25 M185.28 26.25 C185.36 30.72, 183.19 34.98, 176.53 35 M185.28 26.25 C185.4 31.09, 182.59 33.06, 176.53 35 M176.53 35 C111.69 36.34, 48.84 37.59, 8.75 35 M176.53 35 C114.23 34.34, 51.75 34.35, 8.75 35 M8.75 35 C2.8 33.53, -1.85 31.15, 0 26.25 M8.75 35 C1.54 32.84, -2.17 33.19, 0 26.25 M0 26.25 C-0.47 23.52, 1 20.36, 0 8.75 M0 26.25 C-0.42 22.49, 0.73 17.3, 0 8.75 M0 8.75 C-1.69 2.32, 0.99 -1.86, 8.75 0 M0 8.75 C-1.74 3.72, 3.25 -0.04, 8.75 0" stroke="#1e1e1e" stroke-width="2" fill="none"></path></g><g transform="translate(391.0433168007005 41.80505362242539) rotate(0 36.22996520996094 12.5)"><text x="36.22996520996094" y="17.52" font-family="Virgil, Segoe UI Emoji" font-size="20px" fill="#1e1e1e" text-anchor="middle" style="white-space: pre;" direction="ltr" dominant-baseline="alphabetic">selectA</text></g><g stroke-linecap="round" transform="translate(127.60984396439494 128.68391466079945) rotate(0 608.1878917336857 23.36087170925515)"><path d="M11.68 0 C487.07 6.07, 959.65 5.86, 1204.7 0 C1214.9 1.92, 1214.84 5.09, 1216.38 11.68 C1217.28 17.06, 1218.02 22.74, 1216.38 35.04 C1216.55 44.94, 1209.73 45.93, 1204.7 46.72 C857.13 42.62, 511.7 42.75, 11.68 46.72 C2.62 46.14, 1.13 45.03, 0 35.04 C-1.11 29.77, 0.62 18.14, 0 11.68 C3.58 5.19, 1.94 0.54, 11.68 0" stroke="none" stroke-width="0" fill="#ffffff"></path><path d="M11.68 0 C394.69 -4.7, 778.37 -5.42, 1204.7 0 M11.68 0 C456.59 -0.61, 901.71 0.06, 1204.7 0 M1204.7 0 C1212.8 0.13, 1215.51 2.74, 1216.38 11.68 M1204.7 0 C1214.47 -1.34, 1215.96 4.42, 1216.38 11.68 M1216.38 11.68 C1214.86 16.85, 1215.55 23.4, 1216.38 35.04 M1216.38 11.68 C1215.23 17.12, 1217.19 22.14, 1216.38 35.04 M1216.38 35.04 C1216.51 43.58, 1212.38 48.08, 1204.7 46.72 M1216.38 35.04 C1218.63 42.52, 1210.67 48.71, 1204.7 46.72 M1204.7 46.72 C804.63 49.72, 403.79 50.7, 11.68 46.72 M1204.7 46.72 C949.57 47.3, 695.14 47, 11.68 46.72 M11.68 46.72 C5.84 45.72, -1.05 41.16, 0 35.04 M11.68 46.72 C5.47 48.26, -1.92 45.08, 0 35.04 M0 35.04 C-0.91 26.94, 1.96 16.07, 0 11.68 M0 35.04 C-0.29 29.73, -0.76 22.9, 0 11.68 M0 11.68 C-1.34 4.91, 5.86 -1.51, 11.68 0 M0 11.68 C1.43 5.21, 5.11 -0.51, 11.68 0" stroke="#1e1e1e" stroke-width="2" fill="none"></path></g><g transform="translate(10 138.0819533584848) rotate(0 53.88993835449219 12.5)"><text x="0" y="17.52" font-family="Virgil, Segoe UI Emoji" font-size="20px" fill="#1e1e1e" text-anchor="start" style="white-space: pre;" direction="ltr" dominant-baseline="alphabetic">buffer pool</text></g><g transform="translate(145.33187524670097 138.8875002349533) rotate(0 15.439994812011719 12.5)"><text x="0" y="17.52" font-family="Virgil, Segoe UI Emoji" font-size="20px" fill="#1e1e1e" text-anchor="start" style="white-space: pre;" direction="ltr" dominant-baseline="alphabetic">A=1</text></g><g stroke-linecap="round"><g transform="translate(451.78498070615365 122.77656270558404) rotate(0 2.011364182163618 -23.36085941758523)"><path d="M-0.44 -0.26 C0.16 -8.07, 3.01 -39.19, 3.76 -47.02 M0.33 0.79 C0.82 -6.94, 2.64 -38.52, 3.19 -46.47" stroke="#1e1e1e" stroke-width="2" fill="none"></path></g><g transform="translate(451.78498070615365 122.77656270558404) rotate(0 2.011364182163618 -23.36085941758523)"><path d="M9.81 -23.97 C7.17 -31.94, 4.92 -38.91, 3.19 -46.47 M9.81 -23.97 C8.72 -28.98, 6.93 -32.88, 3.19 -46.47" stroke="#1e1e1e" stroke-width="2" fill="none"></path></g><g transform="translate(451.78498070615365 122.77656270558404) rotate(0 2.011364182163618 -23.36085941758523)"><path d="M-6.19 -24.98 C-3.53 -32.55, -0.47 -39.18, 3.19 -46.47 M-6.19 -24.98 C-4 -29.82, -2.49 -33.51, 3.19 -46.47" stroke="#1e1e1e" stroke-width="2" fill="none"></path></g></g><mask></mask><g stroke-linecap="round"><g transform="translate(179.16484405837627 151.77625025844858) rotate(0 322.21875058738306 1.611093752936938)"><path d="M-0.75 0.89 C106.74 1.16, 537.18 1.8, 644.91 2.21" stroke="#1e1e1e" stroke-width="2.5" fill="none" stroke-dasharray="8 10"></path></g></g><mask></mask><g stroke-linecap="round" transform="translate(485.27265711638984 233.40503318503872) rotate(0 58.80492198219747 17.5)"><path d="M8.75 0 C50.12 -2.21, 84.3 -0.77, 108.86 0 C112.58 2.08, 117.99 2.23, 117.61 8.75 C116.53 12.88, 115.75 22.41, 117.61 26.25 C116.78 29.96, 117.58 37.17, 108.86 35 C79.92 35.3, 49.16 32.33, 8.75 35 C5.91 34.67, 1.01 35.42, 0 26.25 C3.11 19.03, -2.21 19.66, 0 8.75 C2.49 3.36, 2.26 3.55, 8.75 0" stroke="none" stroke-width="0" fill="#ffffff"></path><path d="M8.75 0 C44.37 1.47, 78.21 1.32, 108.86 0 M8.75 0 C28.46 -0.45, 49.72 -1.67, 108.86 0 M108.86 0 C113.29 -1.93, 119.21 2.62, 117.61 8.75 M108.86 0 C112.81 2.02, 118.72 4, 117.61 8.75 M117.61 8.75 C116.28 12.16, 118.87 17.79, 117.61 26.25 M117.61 8.75 C117.17 13.74, 117.46 19.29, 117.61 26.25 M117.61 26.25 C116.57 33.09, 114.34 33.71, 108.86 35 M117.61 26.25 C116.94 32.17, 116.31 34, 108.86 35 M108.86 35 C81.91 35.9, 54.41 37.3, 8.75 35 M108.86 35 C87.13 35.58, 64.32 35.27, 8.75 35 M8.75 35 C4.89 34.94, -1.79 31.33, 0 26.25 M8.75 35 C2.29 33.05, 0.56 33.15, 0 26.25 M0 26.25 C0.37 23.77, -0.87 18.81, 0 8.75 M0 26.25 C-0.44 21.93, -0.45 17.93, 0 8.75 M0 8.75 C-1.61 2.13, 2.6 1.17, 8.75 0 M0 8.75 C0.79 1.38, 1.06 -0.35, 8.75 0" stroke="#1e1e1e" stroke-width="2" fill="none"></path></g><g transform="translate(502.19761236274746 238.40503318503872) rotate(0 41.8799667358399 12.5)"><text x="41.879966735839844" y="17.52" font-family="Virgil, Segoe UI Emoji" font-size="20px" fill="#1e1e1e" text-anchor="middle" style="white-space: pre;" direction="ltr" dominant-baseline="alphabetic">Select A</text></g><g stroke-linecap="round"><g transform="translate(438.5509382812196 22.351751550302623) rotate(0 80.55468764684582 -2.842170943040401e-14)"><path d="M0.86 -0.44 C27.69 -0.1, 135.32 1.08, 161.97 0.98" stroke="#1e1e1e" stroke-width="2.5" fill="none" stroke-dasharray="8 10"></path></g></g><mask></mask><g stroke-linecap="round" transform="translate(284.6914848757442 232.55296918760044) rotate(0 52.36054697044983 17.5)"><path d="M8.75 0 C35.4 -0.52, 67.35 2.7, 95.97 0 C98.46 -1.07, 102.29 2.11, 104.72 8.75 C106.55 11.22, 105.7 15.25, 104.72 26.25 C101.88 33.24, 100.29 33.44, 95.97 35 C69.09 37.65, 49.81 35.49, 8.75 35 C3.91 36.18, 0.23 32.45, 0 26.25 C-1.37 20.05, 1.61 19.61, 0 8.75 C-1.9 3.63, 0.75 -1.69, 8.75 0" stroke="none" stroke-width="0" fill="#ffffff"></path><path d="M8.75 0 C42.76 -1.56, 74.16 1.01, 95.97 0 M8.75 0 C38.33 1.21, 68.61 0.49, 95.97 0 M95.97 0 C102.75 -1.24, 103.7 4.43, 104.72 8.75 M95.97 0 C100.1 -1.57, 104.6 3.92, 104.72 8.75 M104.72 8.75 C105.8 13.45, 104.67 21.63, 104.72 26.25 M104.72 8.75 C104.17 13.89, 104.84 17.14, 104.72 26.25 M104.72 26.25 C104.7 30.72, 101.74 35.88, 95.97 35 M104.72 26.25 C106.98 33.12, 103.62 35.79, 95.97 35 M95.97 35 C65.4 34.65, 32.01 34.24, 8.75 35 M95.97 35 C72.75 35.21, 47.83 36.05, 8.75 35 M8.75 35 C2.33 34.91, 1.74 32.48, 0 26.25 M8.75 35 C3.7 34.5, -0.56 31, 0 26.25 M0 26.25 C1.82 21.83, -0.86 14.08, 0 8.75 M0 26.25 C0.64 20.65, 0.51 13.42, 0 8.75 M0 8.75 C-1.98 1.74, 4.83 -1.3, 8.75 0 M0 8.75 C-0.99 1.18, 2.09 2.18, 8.75 0" stroke="#1e1e1e" stroke-width="2" fill="none"></path></g><g transform="translate(297.05203184619404 237.55296918760044) rotate(0 40 12.5)"><text x="40" y="17.52" font-family="Virgil, Segoe UI Emoji" font-size="20px" fill="#1e1e1e" text-anchor="middle" style="white-space: pre;" direction="ltr" dominant-baseline="alphabetic">发起事务</text></g><g stroke-linecap="round"><g transform="translate(575.5257425386214 181.611477112264) rotate(0 0.6627620480028327 24.971965462192117)"><path d="M-0.39 -0.02 C-0.24 8.3, 0.97 41.5, 1.3 49.91 M0.41 -0.5 C0.46 7.9, 0.7 42.24, 0.85 50.59" stroke="#1e1e1e" stroke-width="2" fill="none"></path></g><g transform="translate(575.5257425386214 181.611477112264) rotate(0 0.6627620480028327 24.971965462192117)"><path d="M-7.97 27.22 C-4.77 35.74, -1.58 44.77, 0.85 50.59 M-7.97 27.22 C-4.14 36.54, -1.49 45.32, 0.85 50.59" stroke="#1e1e1e" stroke-width="2" fill="none"></path></g><g transform="translate(575.5257425386214 181.611477112264) rotate(0 0.6627620480028327 24.971965462192117)"><path d="M9.12 27.01 C6.07 35.55, 3.02 44.65, 0.85 50.59 M9.12 27.01 C6.41 36.47, 2.53 45.34, 0.85 50.59" stroke="#1e1e1e" stroke-width="2" fill="none"></path></g></g><mask></mask><g transform="translate(399.88468821073366 10) rotate(0 15.439994812011719 12.5)"><text x="0" y="17.52" font-family="Virgil, Segoe UI Emoji" font-size="20px" fill="#1e1e1e" text-anchor="start" style="white-space: pre;" direction="ltr" dominant-baseline="alphabetic">A=1</text></g><g transform="translate(527.1610946927499 279.05265674046495) rotate(0 15.439994812011719 12.5)"><text x="0" y="17.52" font-family="Virgil, Segoe UI Emoji" font-size="20px" fill="#1e1e1e" text-anchor="start" style="white-space: pre;" direction="ltr" dominant-baseline="alphabetic">A=1</text></g><g stroke-linecap="round" transform="translate(579.5216416631993 39.22171883517049) rotate(0 48.3328125881078 17.5)"><path d="M8.75 0 C26.6 0.79, 51.52 -1.43, 87.92 0 C91.88 -0.06, 94.56 5.63, 96.67 8.75 C97.48 15.86, 99.36 19.11, 96.67 26.25 C94.92 32.69, 92.15 36.35, 87.92 35 C58.51 33.22, 29.39 34.17, 8.75 35 C0.36 32.12, 2.37 34.7, 0 26.25 C-2.57 22.92, 1.68 14.03, 0 8.75 C3.25 -0.6, 1.67 3.43, 8.75 0" stroke="none" stroke-width="0" fill="#ffffff"></path><path d="M8.75 0 C38.79 -2.32, 69.17 -2.73, 87.92 0 M8.75 0 C38.63 -1.31, 71.29 0.06, 87.92 0 M87.92 0 C92.83 0.4, 95.42 4.06, 96.67 8.75 M87.92 0 C94.16 1.28, 98.13 1.73, 96.67 8.75 M96.67 8.75 C96.11 17.16, 96.4 24.1, 96.67 26.25 M96.67 8.75 C95.79 13.63, 96.18 18.3, 96.67 26.25 M96.67 26.25 C96.88 30.51, 93.14 36.47, 87.92 35 M96.67 26.25 C97.61 33.28, 94.09 33.65, 87.92 35 M87.92 35 C62.31 34.36, 40.36 35.51, 8.75 35 M87.92 35 C62.19 35.97, 36.08 34.63, 8.75 35 M8.75 35 C3.56 36.3, -1.4 33.85, 0 26.25 M8.75 35 C0.85 36.72, 0.2 31.65, 0 26.25 M0 26.25 C-0.7 19.74, -1.31 11.58, 0 8.75 M0 26.25 C-0.51 19.35, -0.47 13.54, 0 8.75 M0 8.75 C-1.17 2.88, 2.22 0.71, 8.75 0 M0 8.75 C-2.27 4.85, 4.35 -0.08, 8.75 0" stroke="#1e1e1e" stroke-width="2" fill="none"></path></g><g transform="translate(606.1644594392953 44.22171883517049) rotate(0 21.68999481201172 12.5)"><text x="21.68999481201172" y="17.52" font-family="Virgil, Segoe UI Emoji" font-size="20px" fill="#1e1e1e" text-anchor="middle" style="white-space: pre;" direction="ltr" dominant-baseline="alphabetic">A+=1</text></g><g transform="translate(604.4935948337218 11.611093752936938) rotate(0 19.849990844726562 12.5)"><text x="0" y="17.52" font-family="Virgil, Segoe UI Emoji" font-size="20px" fill="#1e1e1e" text-anchor="start" style="white-space: pre;" direction="ltr" dominant-baseline="alphabetic">A=2</text></g><g stroke-linecap="round" transform="translate(745.4642982157013 34.38843757635979) rotate(0 92.63789079387288 17.5)"><path d="M8.75 0 C52.61 0.5, 97.74 1.42, 176.53 0 C183.58 -3.23, 188.36 3.24, 185.28 8.75 C183.61 15.81, 187.83 18.09, 185.28 26.25 C183.68 33.95, 179.48 35.3, 176.53 35 C123.81 34.57, 68.96 33.18, 8.75 35 C1.63 35.23, -0.84 32.49, 0 26.25 C-0.16 21.58, -0.44 16.08, 0 8.75 C-0.23 2.6, -0.28 1.84, 8.75 0" stroke="none" stroke-width="0" fill="#ffffff"></path><path d="M8.75 0 C55.66 2.4, 106.1 2.03, 176.53 0 M8.75 0 C44.85 0.69, 80.34 1.94, 176.53 0 M176.53 0 C184.21 1.34, 185.45 3.69, 185.28 8.75 M176.53 0 C180.68 0.49, 183.95 3.76, 185.28 8.75 M185.28 8.75 C183.95 13.51, 186.6 20.96, 185.28 26.25 M185.28 8.75 C185.22 14.45, 185.3 19.47, 185.28 26.25 M185.28 26.25 C185.76 32.87, 184.08 35.55, 176.53 35 M185.28 26.25 C186.39 33.28, 184.35 34.11, 176.53 35 M176.53 35 C109.21 34.98, 45.47 36.25, 8.75 35 M176.53 35 C108.75 35.23, 41.87 35.07, 8.75 35 M8.75 35 C1.31 36.37, -0.02 31.72, 0 26.25 M8.75 35 C4.26 36.82, -0.61 31.2, 0 26.25 M0 26.25 C-1.65 21.37, -1.01 19.32, 0 8.75 M0 26.25 C-0.07 22.5, 0.74 19.03, 0 8.75 M0 8.75 C-1.8 1.95, 2.28 -0.44, 8.75 0 M0 8.75 C0.15 2.13, 1.19 2.23, 8.75 0" stroke="#1e1e1e" stroke-width="2" fill="none"></path></g><g transform="translate(757.6122521809609 39.38843757635979) rotate(0 80.48993682861328 12.5)"><text x="80.48993682861328" y="17.52" font-family="Virgil, Segoe UI Emoji" font-size="20px" fill="#1e1e1e" text-anchor="middle" style="white-space: pre;" direction="ltr" dominant-baseline="alphabetic">update set A=2</text></g><g stroke-linecap="round"><g transform="translate(647.9931261630181 19.666562517621514) rotate(0 78.1380470174405 0)"><path d="M0.56 0.78 C26.45 1.06, 129.89 1.05, 155.66 0.85" stroke="#1e1e1e" stroke-width="2.5" fill="none" stroke-dasharray="8 10"></path></g></g><mask></mask><g transform="translate(808.5856356472261 11.999843776432272) rotate(0 19.849990844726562 12.5)"><text x="0" y="17.52" font-family="Virgil, Segoe UI Emoji" font-size="20px" fill="#1e1e1e" text-anchor="start" style="white-space: pre;" direction="ltr" dominant-baseline="alphabetic">A=2</text></g><g stroke-linecap="round"><g transform="translate(842.3804751333278 76.05484387041358) rotate(0 -0.2662039998982664 24.97195317052217)"><path d="M0.4 -0.21 C0.26 8.21, -0.59 41.99, -0.76 50.43 M-0.05 -0.79 C-0.3 7.49, -1.15 41.32, -1.3 49.71" stroke="#1e1e1e" stroke-width="2" fill="none"></path></g><g transform="translate(842.3804751333278 76.05484387041358) rotate(0 -0.2662039998982664 24.97195317052217)"><path d="M-9.32 26.06 C-7.14 33.22, -3.3 41.1, -1.3 49.71 M-9.32 26.06 C-6.68 35.49, -3.56 43.84, -1.3 49.71" stroke="#1e1e1e" stroke-width="2" fill="none"></path></g><g transform="translate(842.3804751333278 76.05484387041358) rotate(0 -0.2662039998982664 24.97195317052217)"><path d="M7.76 26.44 C4.46 33.54, 2.81 41.3, -1.3 49.71 M7.76 26.44 C3.87 35.76, 0.45 43.98, -1.3 49.71" stroke="#1e1e1e" stroke-width="2" fill="none"></path></g></g><mask></mask><g transform="translate(819.4400066916887 140.8873440113854) rotate(0 19.849990844726562 12.5)"><text x="0" y="17.52" font-family="Virgil, Segoe UI Emoji" font-size="20px" fill="#1e1e1e" text-anchor="start" style="white-space: pre;" direction="ltr" dominant-baseline="alphabetic">A=2</text></g><g stroke-linecap="round" transform="translate(726.9367200569263 227.71968792878974) rotate(0 48.3328125881078 17.5)"><path d="M8.75 0 C41.35 2.9, 66.56 2.29, 87.92 0 C93.33 -1.88, 100.15 1.64, 96.67 8.75 C95.48 12.35, 98.22 22.81, 96.67 26.25 C98.47 34.12, 90.81 32.84, 87.92 35 C67.72 36.39, 54.3 32.66, 8.75 35 C5.61 31.9, 1.95 30.46, 0 26.25 C0.08 17.62, -0.38 17.62, 0 8.75 C-0.28 -0.36, 6.42 1.33, 8.75 0" stroke="none" stroke-width="0" fill="#ffffff"></path><path d="M8.75 0 C34.19 2.25, 56.17 1.53, 87.92 0 M8.75 0 C27.49 0.77, 44.4 1.61, 87.92 0 M87.92 0 C95.16 -0.93, 95.86 4.73, 96.67 8.75 M87.92 0 C93.92 0.17, 97.57 3.15, 96.67 8.75 M96.67 8.75 C96.51 13.33, 96.35 19.88, 96.67 26.25 M96.67 8.75 C97.35 13.97, 97.61 18.85, 96.67 26.25 M96.67 26.25 C95.91 32, 94.84 36.72, 87.92 35 M96.67 26.25 C96.55 30.34, 93.75 36.09, 87.92 35 M87.92 35 C69.98 36.64, 52.41 37.2, 8.75 35 M87.92 35 C61.13 35.4, 33.49 34.03, 8.75 35 M8.75 35 C2.74 36.97, -1.91 32.81, 0 26.25 M8.75 35 C2.89 33.21, -2.09 30.79, 0 26.25 M0 26.25 C-0.08 21.96, -0.93 20.54, 0 8.75 M0 26.25 C-0.64 21.36, -0.64 17.2, 0 8.75 M0 8.75 C-0.93 2.91, 3.41 -1.6, 8.75 0 M0 8.75 C1.41 1.99, 3.97 1.82, 8.75 0" stroke="#e03131" stroke-width="2" fill="none"></path></g><g transform="translate(755.7195448520654 232.71968792878974) rotate(0 19.54998779296875 12.5)"><text x="19.54998779296875" y="17.52" font-family="Virgil, Segoe UI Emoji" font-size="20px" fill="#e03131" text-anchor="middle" style="white-space: pre;" direction="ltr" dominant-baseline="alphabetic">A-=1</text></g><g stroke-linecap="round"><g transform="translate(560.1351322181642 290.05527718539474) rotate(0 95.86007829974653 -2.842170943040401e-14)"><path d="M1.17 0.44 C33.01 0.57, 159.03 -0.13, 190.97 -0.31" stroke="#e03131" stroke-width="2.5" fill="none" stroke-dasharray="8 10"></path></g></g><mask></mask><g transform="translate(757.0306355532443 276.21921925808647) rotate(0 19.60999298095703 12.5)"><text x="0" y="17.52" font-family="Virgil, Segoe UI Emoji" font-size="20px" fill="#e03131" text-anchor="start" style="white-space: pre;" direction="ltr" dominant-baseline="alphabetic">A=0</text></g><g stroke-linecap="round" transform="translate(921.0735172858251 232.55296918760033) rotate(0 92.63789079387288 17.5)"><path d="M8.75 0 C52.11 -3.28, 88.35 -4.72, 176.53 0 C183.76 -1.31, 182.36 1.13, 185.28 8.75 C185.6 15.24, 186.34 19.21, 185.28 26.25 C184.39 35.55, 183.47 38.07, 176.53 35 C111.93 32.38, 55.33 29.21, 8.75 35 C-0.61 33.67, 0.86 33.02, 0 26.25 C-0.83 20.96, -0.37 9.34, 0 8.75 C-1.87 4.12, 2.53 -0.08, 8.75 0" stroke="none" stroke-width="0" fill="#ffffff"></path><path d="M8.75 0 C69.58 0.8, 132.25 0.9, 176.53 0 M8.75 0 C74 -0.86, 137.67 0.36, 176.53 0 M176.53 0 C181.47 -1.35, 184.95 4.77, 185.28 8.75 M176.53 0 C183.28 1.22, 183.91 1.21, 185.28 8.75 M185.28 8.75 C183.78 12.41, 184.84 15.32, 185.28 26.25 M185.28 8.75 C185.28 14.65, 184.84 20.77, 185.28 26.25 M185.28 26.25 C184.14 30.13, 184.08 33.6, 176.53 35 M185.28 26.25 C185.28 32.29, 181.56 36.01, 176.53 35 M176.53 35 C120.56 34.81, 65.96 36.81, 8.75 35 M176.53 35 C140.74 32.99, 104.55 34.22, 8.75 35 M8.75 35 C3.12 35.96, 1.34 31.04, 0 26.25 M8.75 35 C1.69 34.86, -1.97 30.01, 0 26.25 M0 26.25 C0.7 19.8, -0.61 11.89, 0 8.75 M0 26.25 C-0.05 21.15, -0.72 16.43, 0 8.75 M0 8.75 C0.68 3.46, 2.96 -1.54, 8.75 0 M0 8.75 C-0.12 0.92, 4.85 1.54, 8.75 0" stroke="#e03131" stroke-width="2" fill="none"></path></g><g transform="translate(933.4614691148543 237.55296918760033) rotate(0 80.24993896484375 12.5)"><text x="80.24993896484375" y="17.52" font-family="Virgil, Segoe UI Emoji" font-size="20px" fill="#e03131" text-anchor="middle" style="white-space: pre;" direction="ltr" dominant-baseline="alphabetic">update set A=0</text></g><g transform="translate(992.4903213458037 274.60812550514936) rotate(0 19.60999298095703 12.5)"><text x="0" y="17.52" font-family="Virgil, Segoe UI Emoji" font-size="20px" fill="#e03131" text-anchor="start" style="white-space: pre;" direction="ltr" dominant-baseline="alphabetic">A=0</text></g><g stroke-linecap="round"><g transform="translate(804.8642542228156 287.03423523377023) rotate(0 95.86007829974653 -2.842170943040401e-14)"><path d="M-0.97 0.94 C31.17 1.01, 160.23 -0.08, 192.46 -0.37" stroke="#e03131" stroke-width="2.5" fill="none" stroke-dasharray="8 10"></path></g></g><mask></mask><g stroke-linecap="round"><g transform="translate(1016.9335955855715 232.3309379052943) rotate(0 0 -26.58304692345908)"><path d="M0.28 -0.86 C0.28 -9.57, -0.31 -43.68, -0.28 -52.27 M-1.04 1.3 C-1.19 -7.74, -1.53 -44.64, -1.38 -53.92" stroke="#e03131" stroke-width="2" fill="none"></path></g><g transform="translate(1016.9335955855715 232.3309379052943) rotate(0 0 -26.58304692345908)"><path d="M7.13 -30.41 C3.36 -37.33, 3.94 -42.61, -1.38 -53.92 M7.13 -30.41 C3.76 -39.5, 1.9 -47.06, -1.38 -53.92" stroke="#e03131" stroke-width="2" fill="none"></path></g><g transform="translate(1016.9335955855715 232.3309379052943) rotate(0 0 -26.58304692345908)"><path d="M-9.97 -30.44 C-9.04 -37.39, -3.74 -42.66, -1.38 -53.92 M-9.97 -30.44 C-7.14 -39.45, -2.8 -47.01, -1.38 -53.92" stroke="#e03131" stroke-width="2" fill="none"></path></g></g><mask></mask><g transform="translate(997.0836047408452 140.8873440113854) rotate(0 19.60999298095703 12.5)"><text x="0" y="17.52" font-family="Virgil, Segoe UI Emoji" font-size="20px" fill="#e03131" text-anchor="start" style="white-space: pre;" direction="ltr" dominant-baseline="alphabetic">A=0</text></g><g stroke-linecap="round"><g transform="translate(862.2685953036275 153.38734401138547) rotate(0 63.63820324100823 0)"><path d="M-0.72 0.85 C20.53 0.56, 106.61 -0.76, 127.89 -0.79" stroke="#1e1e1e" stroke-width="2.5" fill="none" stroke-dasharray="8 10"></path></g></g><mask></mask><g stroke-linecap="round"><g transform="translate(1034.6556268678776 153.38734401138547) rotate(0 150.48814380325632 -0.805546876468469)"><path d="M0.65 -1 C50.97 -1.24, 251.77 -0.64, 301.7 -0.9" stroke="#e03131" stroke-width="2.5" fill="none" stroke-dasharray="8 10"></path></g></g><mask></mask></svg>