<svg version="1.1" xmlns="http://www.w3.org/2000/svg" viewBox="0 0 1107.681032445841 305.5173844651618" width="1107.681032445841" height="305.5173844651618">
  <!-- svg-source:excalidraw -->
  
  <defs>
    <style class="style-fonts">
      @font-face {
        font-family: "Virgil";
        src: url("https://excalidraw.com/Virgil.woff2");
      }
      @font-face {
        font-family: "Cascadia";
        src: url("https://excalidraw.com/Cascadia.woff2");
      }
      @font-face {
        font-family: "Assistant";
        src: url("https://excalidraw.com/Assistant-Regular.woff2");
      }
    </style>
    
  </defs>
  <rect x="0" y="0" width="1107.681032445841" height="305.5173844651618" fill="#ffffff"></rect><g stroke-linecap="round"><g transform="translate(145.32875077534572 30.330313011023293) rotate(0 467.7538647969999 0)"><path d="M0.54 -0.27 C156.58 -0.43, 780.21 -0.55, 935.84 -0.43 M-0.63 -1.46 C155.31 -1.5, 778.86 0.91, 935.06 0.88" stroke="#1e1e1e" stroke-width="2" fill="none"></path></g></g><mask></mask><g stroke-linecap="round"><g transform="translate(148.09137496279993 220.06479129020784) rotate(0 432.00446968198065 0)"><path d="M-0.32 1.12 C143.4 1.35, 718.96 1.09, 863.21 0.87" stroke="#1e1e1e" stroke-width="2.5" fill="none" stroke-dasharray="8 10"></path></g></g><mask></mask><g transform="translate(67.99937510572909 16.444375011747667) rotate(0 26.55999755859375 12.500000000000014)"><text x="0" y="17.52" font-family="Virgil, Segoe UI Emoji" font-size="20px" fill="#1e1e1e" text-anchor="start" style="white-space: pre;" direction="ltr" dominant-baseline="alphabetic">进程A</text></g><g transform="translate(76.0548438704136 209.77562536417759) rotate(0 27.269996643066406 12.5)"><text x="0" y="17.52" font-family="Virgil, Segoe UI Emoji" font-size="20px" fill="#1e1e1e" text-anchor="start" style="white-space: pre;" direction="ltr" dominant-baseline="alphabetic">进程B</text></g><g stroke-linecap="round" transform="translate(187.2203128230608 10) rotate(0 52.36054697044983 17.5)"><path d="M8.75 0 C37.04 -2.76, 59.49 -4.34, 95.97 0 C102.59 -2.15, 108.23 4.42, 104.72 8.75 C104.23 15.99, 106.58 20.94, 104.72 26.25 C103.65 29.23, 104.21 37.21, 95.97 35 C76.49 31.26, 57.68 30.7, 8.75 35 C1.98 37.67, -2.36 30.34, 0 26.25 C1 20.53, -2.65 16.72, 0 8.75 C-1.04 1.61, 3.17 1.71, 8.75 0" stroke="none" stroke-width="0" fill="#ffffff"></path><path d="M8.75 0 C32.89 2.32, 61.67 0.46, 95.97 0 M8.75 0 C25.38 0.13, 42.91 -0.1, 95.97 0 M95.97 0 C100.82 -1.6, 103.84 2.84, 104.72 8.75 M95.97 0 C100.59 -0.63, 103.5 4.84, 104.72 8.75 M104.72 8.75 C105.4 14.71, 104.65 17.04, 104.72 26.25 M104.72 8.75 C105.25 13.13, 105.74 16.6, 104.72 26.25 M104.72 26.25 C104.22 32.68, 100.92 33.04, 95.97 35 M104.72 26.25 C104.56 29.98, 99.6 36, 95.97 35 M95.97 35 C63.47 34.84, 32.56 34.64, 8.75 35 M95.97 35 C72.19 35.4, 48.19 34.33, 8.75 35 M8.75 35 C2.94 35, -0.51 31.27, 0 26.25 M8.75 35 C3.54 34.69, 2.13 33.55, 0 26.25 M0 26.25 C0.68 22.48, 1.47 16.3, 0 8.75 M0 26.25 C0.65 19.41, -0.21 12.92, 0 8.75 M0 8.75 C-1.89 1.46, 2.27 0.05, 8.75 0 M0 8.75 C-1.73 2.62, 4.06 -0.47, 8.75 0" stroke="#1e1e1e" stroke-width="2" fill="none"></path></g><g transform="translate(199.58085979351063 15) rotate(0 40 12.5)"><text x="40" y="17.52" font-family="Virgil, Segoe UI Emoji" font-size="20px" fill="#1e1e1e" text-anchor="middle" style="white-space: pre;" direction="ltr" dominant-baseline="alphabetic">发起事务</text></g><g stroke-linecap="round" transform="translate(133.33785780127732 99.3011326183314) rotate(0 482.1715873222819 27.867504932776797)"><path d="M13.93 0 C387.36 4.51, 757.98 4.3, 950.41 0 C962.11 1.92, 962.81 5.85, 964.34 13.93 C965.24 20.54, 965.97 27.45, 964.34 41.8 C964.52 53.21, 956.95 54.94, 950.41 55.74 C677.33 52.54, 406.39 52.67, 13.93 55.74 C3.37 55.15, 1.13 53.29, 0 41.8 C-1.15 34.82, 0.58 21.48, 0 13.93 C3.58 5.94, 2.69 0.54, 13.93 0" stroke="none" stroke-width="0" fill="#ffffff"></path><path d="M13.93 0 C314.48 -3.7, 615.71 -4.41, 950.41 0 M13.93 0 C363.19 -0.56, 712.66 0.12, 950.41 0 M950.41 0 C960.02 0.13, 963.47 3.49, 964.34 13.93 M950.41 0 C961.69 -1.34, 963.93 5.17, 964.34 13.93 M964.34 13.93 C962.83 20.09, 963.53 27.63, 964.34 41.8 M964.34 13.93 C963.17 20.33, 965.12 26.32, 964.34 41.8 M964.34 41.8 C964.48 51.85, 959.6 57.09, 950.41 55.74 M964.34 41.8 C966.6 50.78, 957.89 57.72, 950.41 55.74 M950.41 55.74 C636.45 57.97, 321.72 58.95, 13.93 55.74 M950.41 55.74 C750.11 56.17, 550.51 55.86, 13.93 55.74 M13.93 55.74 C6.59 54.73, -1.05 49.42, 0 41.8 M13.93 55.74 C6.22 57.28, -1.92 53.34, 0 41.8 M0 41.8 C-0.9 31.99, 1.97 19.4, 0 13.93 M0 41.8 C-0.32 35.3, -0.78 27.28, 0 13.93 M0 13.93 C-1.34 5.67, 6.61 -1.51, 13.93 0 M0 13.93 C1.43 5.96, 5.86 -0.51, 13.93 0" stroke="#1e1e1e" stroke-width="2" fill="none"></path></g><g transform="translate(10 112.30447789483401) rotate(0 53.88993835449219 12.5)"><text x="0" y="17.52" font-family="Virgil, Segoe UI Emoji" font-size="20px" fill="#1e1e1e" text-anchor="start" style="white-space: pre;" direction="ltr" dominant-baseline="alphabetic">buffer pool</text></g><g transform="translate(145.33187524670097 113.1100247713025) rotate(0 15.439994812011719 12.5)"><text x="0" y="17.52" font-family="Virgil, Segoe UI Emoji" font-size="20px" fill="#1e1e1e" text-anchor="start" style="white-space: pre;" direction="ltr" dominant-baseline="alphabetic">A=1</text></g><g stroke-linecap="round"><g transform="translate(179.16484405837627 125.99877479479778) rotate(0 130.06704329009278 0)"><path d="M-0.75 0.89 C42.69 0.62, 216.93 -0.89, 260.61 -1.01" stroke="#1e1e1e" stroke-width="2.5" fill="none" stroke-dasharray="8 10"></path></g></g><mask></mask><g stroke-linecap="round" transform="translate(515.9287489026459 205.71821977576053) rotate(0 58.80492198219753 17.5)"><path d="M8.75 0 C50.12 -2.21, 84.3 -0.77, 108.86 0 C112.58 2.08, 117.99 2.23, 117.61 8.75 C116.53 12.88, 115.75 22.41, 117.61 26.25 C116.78 29.96, 117.58 37.17, 108.86 35 C79.92 35.3, 49.16 32.33, 8.75 35 C5.91 34.67, 1.01 35.42, 0 26.25 C3.11 19.03, -2.21 19.66, 0 8.75 C2.49 3.36, 2.26 3.55, 8.75 0" stroke="none" stroke-width="0" fill="#ffffff"></path><path d="M8.75 0 C44.37 1.47, 78.21 1.32, 108.86 0 M8.75 0 C28.46 -0.45, 49.72 -1.67, 108.86 0 M108.86 0 C113.29 -1.93, 119.21 2.62, 117.61 8.75 M108.86 0 C112.81 2.02, 118.72 4, 117.61 8.75 M117.61 8.75 C116.28 12.16, 118.87 17.79, 117.61 26.25 M117.61 8.75 C117.17 13.74, 117.46 19.29, 117.61 26.25 M117.61 26.25 C116.57 33.09, 114.34 33.71, 108.86 35 M117.61 26.25 C116.94 32.17, 116.31 34, 108.86 35 M108.86 35 C81.91 35.9, 54.41 37.3, 8.75 35 M108.86 35 C87.13 35.58, 64.32 35.27, 8.75 35 M8.75 35 C4.89 34.94, -1.79 31.33, 0 26.25 M8.75 35 C2.29 33.05, 0.56 33.15, 0 26.25 M0 26.25 C0.37 23.77, -0.87 18.81, 0 8.75 M0 26.25 C-0.44 21.93, -0.45 17.93, 0 8.75 M0 8.75 C-1.61 2.13, 2.6 1.17, 8.75 0 M0 8.75 C0.79 1.38, 1.06 -0.35, 8.75 0" stroke="#1e1e1e" stroke-width="2" fill="none"></path></g><g transform="translate(534.2537056748824 210.71821977576053) rotate(0 40.47996520996094 12.5)"><text x="40.47996520996094" y="17.52" font-family="Virgil, Segoe UI Emoji" font-size="20px" fill="#1e1e1e" text-anchor="middle" style="white-space: pre;" direction="ltr" dominant-baseline="alphabetic">Select *</text></g><g stroke-linecap="round" transform="translate(386.50876443776303 10.520300058336375) rotate(0 92.63789079387294 17.5)"><path d="M8.75 0 C52.61 0.5, 97.74 1.42, 176.53 0 C183.58 -3.23, 188.36 3.24, 185.28 8.75 C183.61 15.81, 187.83 18.09, 185.28 26.25 C183.68 33.95, 179.48 35.3, 176.53 35 C123.81 34.57, 68.96 33.18, 8.75 35 C1.63 35.23, -0.84 32.49, 0 26.25 C-0.16 21.58, -0.44 16.08, 0 8.75 C-0.23 2.6, -0.28 1.84, 8.75 0" stroke="none" stroke-width="0" fill="#ffffff"></path><path d="M8.75 0 C55.66 2.4, 106.1 2.03, 176.53 0 M8.75 0 C44.85 0.69, 80.34 1.94, 176.53 0 M176.53 0 C184.21 1.34, 185.45 3.69, 185.28 8.75 M176.53 0 C180.68 0.49, 183.95 3.76, 185.28 8.75 M185.28 8.75 C183.95 13.51, 186.6 20.96, 185.28 26.25 M185.28 8.75 C185.22 14.45, 185.3 19.47, 185.28 26.25 M185.28 26.25 C185.76 32.87, 184.08 35.55, 176.53 35 M185.28 26.25 C186.39 33.28, 184.35 34.11, 176.53 35 M176.53 35 C109.21 34.98, 45.47 36.25, 8.75 35 M176.53 35 C108.75 35.23, 41.87 35.07, 8.75 35 M8.75 35 C1.31 36.37, -0.02 31.72, 0 26.25 M8.75 35 C4.26 36.82, -0.61 31.2, 0 26.25 M0 26.25 C-1.65 21.37, -1.01 19.32, 0 8.75 M0 26.25 C-0.07 22.5, 0.74 19.03, 0 8.75 M0 8.75 C-1.8 1.95, 2.28 -0.44, 8.75 0 M0 8.75 C0.15 2.13, 1.19 2.23, 8.75 0" stroke="#1e1e1e" stroke-width="2" fill="none"></path></g><g transform="translate(402.82671657196806 15.520300058336375) rotate(0 76.31993865966797 12.5)"><text x="76.31993865966797" y="17.52" font-family="Virgil, Segoe UI Emoji" font-size="20px" fill="#1e1e1e" text-anchor="middle" style="white-space: pre;" direction="ltr" dominant-baseline="alphabetic">insert into B=2</text></g><g stroke-linecap="round"><g transform="translate(470.2446065064222 46.520300058336375) rotate(0 -0.845525853215122 22.450538777432428)"><path d="M0.4 -0.21 C0.07 7.37, -1.55 37.79, -1.91 45.39 M-0.05 -0.79 C-0.49 6.65, -2.11 37.12, -2.46 44.67" stroke="#1e1e1e" stroke-width="2" fill="none"></path></g><g transform="translate(470.2446065064222 46.520300058336375) rotate(0 -0.845525853215122 22.450538777432428)"><path d="M-9.07 23.2 C-7.34 29.66, -3.96 36.84, -2.46 44.67 M-9.07 23.2 C-6.96 31.79, -4.38 39.32, -2.46 44.67" stroke="#1e1e1e" stroke-width="2" fill="none"></path></g><g transform="translate(470.2446065064222 46.520300058336375) rotate(0 -0.845525853215122 22.450538777432428)"><path d="M6.27 23.97 C3.08 30.24, 1.53 37.17, -2.46 44.67 M6.27 23.97 C2.52 32.31, -0.77 39.54, -2.46 44.67" stroke="#1e1e1e" stroke-width="2" fill="none"></path></g></g><mask></mask><g stroke-linecap="round" transform="translate(287.6528104954906 205.6467666909955) rotate(0 52.36054697044983 17.5)"><path d="M8.75 0 C31.87 0.18, 57.05 -0.85, 95.97 0 C101.68 -0.66, 107.46 0.64, 104.72 8.75 C103.11 12.41, 105.88 20.12, 104.72 26.25 C105.13 33.11, 105.27 32.87, 95.97 35 C71.65 36.07, 46.62 30.63, 8.75 35 C6.51 33.07, -2.04 31.67, 0 26.25 C2.05 20.03, -1.02 18.11, 0 8.75 C-3.14 0.34, 3.09 2.71, 8.75 0" stroke="none" stroke-width="0" fill="#ffffff"></path><path d="M8.75 0 C40.47 1.35, 68.79 0.63, 95.97 0 M8.75 0 C34.86 -0.05, 62.7 -0.97, 95.97 0 M95.97 0 C102.44 1.57, 106.05 2.74, 104.72 8.75 M95.97 0 C101.87 -0.77, 103.75 3.95, 104.72 8.75 M104.72 8.75 C105.7 13.66, 103.4 19.49, 104.72 26.25 M104.72 8.75 C104.85 12.61, 104 17.89, 104.72 26.25 M104.72 26.25 C105.12 31.08, 103.02 34.75, 95.97 35 M104.72 26.25 C102.54 31.88, 103.28 34.09, 95.97 35 M95.97 35 C66.96 36.14, 40.76 34.91, 8.75 35 M95.97 35 C75.93 36.53, 55.73 36.17, 8.75 35 M8.75 35 C4.17 36.67, 1.4 33.96, 0 26.25 M8.75 35 C1.41 36.66, 1.94 32.23, 0 26.25 M0 26.25 C0.48 22.01, 1.49 17.02, 0 8.75 M0 26.25 C-0.52 20.71, 0.48 14.77, 0 8.75 M0 8.75 C0.31 4.8, 3.51 1.24, 8.75 0 M0 8.75 C-1.19 0.8, 1.48 -1.45, 8.75 0" stroke="#1e1e1e" stroke-width="2" fill="none"></path></g><g transform="translate(300.01335746594043 210.6467666909955) rotate(0 40 12.5)"><text x="40" y="17.52" font-family="Virgil, Segoe UI Emoji" font-size="20px" fill="#1e1e1e" text-anchor="middle" style="white-space: pre;" direction="ltr" dominant-baseline="alphabetic">发起事务</text></g><g transform="translate(448.41888174182384 123.32777023728096) rotate(0 20.55998992919922 12.5)"><text x="0" y="17.52" font-family="Virgil, Segoe UI Emoji" font-size="20px" fill="#1e1e1e" text-anchor="start" style="white-space: pre;" direction="ltr" dominant-baseline="alphabetic">B=2</text></g><g stroke-linecap="round"><g transform="translate(485.0284534325599 125.83042592332373) rotate(0 157.56767446478386 0)"><path d="M-0.35 0.21 C52.14 0.03, 263.12 -1.05, 315.77 -0.91" stroke="#1e1e1e" stroke-width="2.5" fill="none" stroke-dasharray="8 10"></path></g></g><mask></mask><g stroke-linecap="round"><g transform="translate(579.3209977922081 157.90922257101028) rotate(0 0.7701478885248889 22.117413359042303)"><path d="M-0.13 0.45 C0.06 7.87, 0.97 36.94, 1.32 44.28 M0.8 0.2 C0.88 7.74, 0.61 37.78, 0.77 45.01" stroke="#1e1e1e" stroke-width="2" fill="none"></path></g><g transform="translate(579.3209977922081 157.90922257101028) rotate(0 0.7701478885248889 22.117413359042303)"><path d="M-6.89 24.25 C-3.55 30.81, -1.71 38.91, 0.77 45.01 M-6.89 24.25 C-4.61 31.95, -1.34 39.15, 0.77 45.01" stroke="#1e1e1e" stroke-width="2" fill="none"></path></g><g transform="translate(579.3209977922081 157.90922257101028) rotate(0 0.7701478885248889 22.117413359042303)"><path d="M8.25 24.18 C6.51 30.75, 3.28 38.87, 0.77 45.01 M8.25 24.18 C5.29 31.84, 3.31 39.06, 0.77 45.01" stroke="#1e1e1e" stroke-width="2" fill="none"></path></g></g><mask></mask><g stroke-linecap="round" transform="translate(736.1659807526648 12.803634182635108) rotate(0 92.637890793873 17.5)"><path d="M8.75 0 C62.35 -1.39, 117.96 -2.45, 176.53 0 C184.63 -0.56, 185.23 5.19, 185.28 8.75 C185.86 14.71, 186.29 21.19, 185.28 26.25 C186.78 31.79, 180.4 35.81, 176.53 35 C134.26 35.97, 85.59 35.9, 8.75 35 C-0.45 32.21, -0.22 33.93, 0 26.25 C0.71 19.31, 1.15 15.01, 0 8.75 C-2.17 1.34, 2.43 1.88, 8.75 0" stroke="none" stroke-width="0" fill="#ffffff"></path><path d="M8.75 0 C76.17 -0.4, 140.36 -0.34, 176.53 0 M8.75 0 C61.67 1.28, 114.84 1.64, 176.53 0 M176.53 0 C182.88 -1.77, 186.23 1.09, 185.28 8.75 M176.53 0 C184.35 -1.54, 184 2.32, 185.28 8.75 M185.28 8.75 C184.24 10.61, 185.24 17.09, 185.28 26.25 M185.28 8.75 C185.84 12.2, 185.97 16.12, 185.28 26.25 M185.28 26.25 C186.56 32.02, 183.23 35.8, 176.53 35 M185.28 26.25 C184.03 34.1, 183.74 37.22, 176.53 35 M176.53 35 C139.96 31.77, 102.8 33.7, 8.75 35 M176.53 35 C136.59 33.67, 96.9 32.67, 8.75 35 M8.75 35 C4.48 35.36, -0.62 30.5, 0 26.25 M8.75 35 C4.54 34.41, 1.92 30.44, 0 26.25 M0 26.25 C-0.73 19.31, 0.51 15.64, 0 8.75 M0 26.25 C-0.58 20.92, -0.46 15.45, 0 8.75 M0 8.75 C-0.72 2.99, 1.77 1.48, 8.75 0 M0 8.75 C1.03 3.32, 3 -2.14, 8.75 0" stroke="#1e1e1e" stroke-width="2" fill="none"></path></g><g transform="translate(753.6239322765182 17.803634182635108) rotate(0 75.17993927001953 12.5)"><text x="75.17993927001953" y="17.52" font-family="Virgil, Segoe UI Emoji" font-size="20px" fill="#1e1e1e" text-anchor="middle" style="white-space: pre;" direction="ltr" dominant-baseline="alphabetic">insert into C=3</text></g><g stroke-linecap="round"><g transform="translate(824.985195655283 49.39701363890839) rotate(0 0 22.064071030933036)"><path d="M-0.21 -0.1 C-0.18 7.35, 0 37.19, 0.1 44.5 M0.68 -0.62 C0.66 6.68, -0.21 36.26, -0.29 43.72" stroke="#1e1e1e" stroke-width="2" fill="none"></path></g><g transform="translate(824.985195655283 49.39701363890839) rotate(0 0 22.064071030933036)"><path d="M-7.4 22.84 C-5.61 28.88, -2.77 35.27, -0.29 43.72 M-7.4 22.84 C-5.83 28.17, -4.17 32.17, -0.29 43.72" stroke="#1e1e1e" stroke-width="2" fill="none"></path></g><g transform="translate(824.985195655283 49.39701363890839) rotate(0 0 22.064071030933036)"><path d="M7.69 23.15 C5.25 29.08, 3.86 35.38, -0.29 43.72 M7.69 23.15 C5.73 28.45, 3.86 32.38, -0.29 43.72" stroke="#1e1e1e" stroke-width="2" fill="none"></path></g></g><mask></mask><g stroke-linecap="round"><g transform="translate(853.6252648396928 125.77053146400164) rotate(0 120.28829057452185 0)"><path d="M-0.26 1 C39.96 1.23, 200.35 0.46, 240.46 0.4" stroke="#1e1e1e" stroke-width="2.5" fill="none" stroke-dasharray="8 10"></path></g></g><mask></mask><g stroke-linecap="round" transform="translate(896.0152539757441 204.78461918944464) rotate(0 58.80492198219747 17.5)"><path d="M8.75 0 C30.95 -3.66, 63.11 0.17, 108.86 0 C115.06 -0.89, 118.78 -0.23, 117.61 8.75 C117.4 17.5, 115.88 22.26, 117.61 26.25 C117.72 35.57, 111.66 32.98, 108.86 35 C75.07 39.15, 39.58 36.99, 8.75 35 C5.39 33.68, 3.35 35.56, 0 26.25 C-0.43 23.43, -2.75 14.76, 0 8.75 C1.49 2.62, 4.2 0.79, 8.75 0" stroke="none" stroke-width="0" fill="#ffffff"></path><path d="M8.75 0 C38.5 0.42, 65.3 0.31, 108.86 0 M8.75 0 C45.79 -0.16, 82.67 -0.44, 108.86 0 M108.86 0 C116.61 0.64, 117.87 4.27, 117.61 8.75 M108.86 0 C112.99 0.24, 118.54 1.85, 117.61 8.75 M117.61 8.75 C118.57 12.92, 115.94 15.84, 117.61 26.25 M117.61 8.75 C117.1 13.82, 117.06 17.14, 117.61 26.25 M117.61 26.25 C119.03 32.83, 113.57 35.32, 108.86 35 M117.61 26.25 C116.88 32.02, 114.73 36.78, 108.86 35 M108.86 35 C77.49 34.04, 41.34 34.23, 8.75 35 M108.86 35 C86.73 33.64, 62.83 34.8, 8.75 35 M8.75 35 C3.37 33.02, -1.91 31.93, 0 26.25 M8.75 35 C4.42 34.13, -1.49 30.67, 0 26.25 M0 26.25 C0.36 20.72, 0.4 16.33, 0 8.75 M0 26.25 C0.91 20.87, 0.91 14.45, 0 8.75 M0 8.75 C1.27 3.98, 4.8 1.16, 8.75 0 M0 8.75 C-1.32 3.08, 3.7 -0.27, 8.75 0" stroke="#1e1e1e" stroke-width="2" fill="none"></path></g><g transform="translate(914.3402107479808 209.78461918944464) rotate(0 40.47996520996094 12.5)"><text x="40.47996520996094" y="17.52" font-family="Virgil, Segoe UI Emoji" font-size="20px" fill="#1e1e1e" text-anchor="middle" style="white-space: pre;" direction="ltr" dominant-baseline="alphabetic">Select *</text></g><g stroke-linecap="round"><g transform="translate(958.276308546581 156.97562198469433) rotate(0 1.1654690670642367 22.117413359042303)"><path d="M-0.43 0.55 C-0.12 7.93, 1.8 37.36, 2.21 44.7 M0.35 0.35 C0.55 7.56, 1.25 36.75, 1.71 43.97" stroke="#1e1e1e" stroke-width="2" fill="none"></path></g><g transform="translate(958.276308546581 156.97562198469433) rotate(0 1.1654690670642367 22.117413359042303)"><path d="M-6.71 23.48 C-2.59 30.71, 0.3 37.74, 1.71 43.97 M-6.71 23.48 C-3.55 31.09, -0.99 38.1, 1.71 43.97" stroke="#1e1e1e" stroke-width="2" fill="none"></path></g><g transform="translate(958.276308546581 156.97562198469433) rotate(0 1.1654690670642367 22.117413359042303)"><path d="M8.43 22.86 C7.07 30.26, 4.48 37.51, 1.71 43.97 M8.43 22.86 C6.21 30.72, 3.38 37.94, 1.71 43.97" stroke="#1e1e1e" stroke-width="2" fill="none"></path></g></g><mask></mask><g stroke-linecap="round"><g transform="translate(926.2561444930245 264.2955334618284) rotate(0 -162.58813396328583 3.1953769027720966)"><path d="M0.79 -0.05 C-53.5 0.79, -271.61 4.49, -325.96 5.51" stroke="#e03131" stroke-width="2.5" fill="none" stroke-dasharray="8 10"></path></g><g transform="translate(926.2561444930245 264.2955334618284) rotate(0 -162.58813396328583 3.1953769027720966)"><path d="M-22.55 8.9 C-16.03 4.9, -10.77 3.48, 0.79 -0.05" stroke="#e03131" stroke-width="2.5" fill="none"></path></g><g transform="translate(926.2561444930245 264.2955334618284) rotate(0 -162.58813396328583 3.1953769027720966)"><path d="M-22.84 -8.2 C-16.16 -7.34, -10.82 -3.9, 0.79 -0.05" stroke="#e03131" stroke-width="2.5" fill="none"></path></g><g transform="translate(926.2561444930245 264.2955334618284) rotate(0 -162.58813396328583 3.1953769027720966)"><path d="M-302.62 -3.45 C-309.3 -2.05, -317.33 1.62, -325.96 5.51" stroke="#e03131" stroke-width="2.5" fill="none"></path></g><g transform="translate(926.2561444930245 264.2955334618284) rotate(0 -162.58813396328583 3.1953769027720966)"><path d="M-302.32 13.64 C-309.16 10.19, -317.27 9, -325.96 5.51" stroke="#e03131" stroke-width="2.5" fill="none"></path></g></g><mask></mask><g transform="translate(717.0260309854555 235.1932668680401) rotate(0 44.4599609375 12.5)"><text x="0" y="17.52" font-family="Virgil, Segoe UI Emoji" font-size="20px" fill="#e03131" text-anchor="start" style="white-space: pre;" direction="ltr" dominant-baseline="alphabetic">conflict!!!</text></g><g transform="translate(451.9065191922764 104.54301202226293) rotate(0 15.439994812011719 12.5)"><text x="0" y="17.52" font-family="Virgil, Segoe UI Emoji" font-size="20px" fill="#1e1e1e" text-anchor="start" style="white-space: pre;" direction="ltr" dominant-baseline="alphabetic">A=1</text></g><g transform="translate(807.3171819568204 115.73804441918082) rotate(0 20.55998992919922 12.5)"><text x="0" y="17.52" font-family="Virgil, Segoe UI Emoji" font-size="20px" fill="#1e1e1e" text-anchor="start" style="white-space: pre;" direction="ltr" dominant-baseline="alphabetic">B=2</text></g><g transform="translate(809.0021661178641 98.7559394935713) rotate(0 15.439994812011719 12.5)"><text x="0" y="17.52" font-family="Virgil, Segoe UI Emoji" font-size="20px" fill="#1e1e1e" text-anchor="start" style="white-space: pre;" direction="ltr" dominant-baseline="alphabetic">A=1</text></g><g transform="translate(808.0479857025241 131.46423833753232) rotate(0 19.41999053955078 12.5)"><text x="0" y="17.52" font-family="Virgil, Segoe UI Emoji" font-size="20px" fill="#1e1e1e" text-anchor="start" style="white-space: pre;" direction="ltr" dominant-baseline="alphabetic">C=3</text></g><g transform="translate(547.7351082819737 263.5556141506904) rotate(0 20.55998992919922 12.500000000000028)"><text x="0" y="17.52" font-family="Virgil, Segoe UI Emoji" font-size="20px" fill="#e03131" text-anchor="start" style="white-space: pre;" direction="ltr" dominant-baseline="alphabetic">B=2</text></g><g transform="translate(551.2227457324261 244.77085593567244) rotate(0 15.439994812011719 12.5)"><text x="0" y="17.52" font-family="Virgil, Segoe UI Emoji" font-size="20px" fill="#e03131" text-anchor="start" style="white-space: pre;" direction="ltr" dominant-baseline="alphabetic">A=1</text></g><g transform="translate(937.1082187942434 254.79119054681024) rotate(0 20.55998992919922 12.5)"><text x="0" y="17.52" font-family="Virgil, Segoe UI Emoji" font-size="20px" fill="#e03131" text-anchor="start" style="white-space: pre;" direction="ltr" dominant-baseline="alphabetic">B=2</text></g><g transform="translate(938.7932029552871 237.80908562120072) rotate(0 15.439994812011719 12.5)"><text x="0" y="17.52" font-family="Virgil, Segoe UI Emoji" font-size="20px" fill="#e03131" text-anchor="start" style="white-space: pre;" direction="ltr" dominant-baseline="alphabetic">A=1</text></g><g transform="translate(937.8390225399471 270.5173844651618) rotate(0 19.41999053955078 12.5)"><text x="0" y="17.52" font-family="Virgil, Segoe UI Emoji" font-size="20px" fill="#e03131" text-anchor="start" style="white-space: pre;" direction="ltr" dominant-baseline="alphabetic">C=3</text></g></svg>