<svg version="1.1" xmlns="http://www.w3.org/2000/svg" viewBox="0 0 1867.0833333333337 1049.8214285714284" width="1867.0833333333337" height="1049.8214285714284">
  <!-- svg-source:excalidraw -->
  
  <defs>
    <style class="style-fonts">
      @font-face {
        font-family: "Virgil";
        src: url("https://excalidraw.com/Virgil.woff2");
      }
      @font-face {
        font-family: "Cascadia";
        src: url("https://excalidraw.com/Cascadia.woff2");
      }
      @font-face {
        font-family: "Assistant";
        src: url("https://excalidraw.com/Assistant-Regular.woff2");
      }
    </style>
    
  </defs>
  <rect x="0" y="0" width="1867.0833333333337" height="1049.8214285714284" fill="#ffffff"></rect><g stroke-linecap="round" transform="translate(336.16668701171875 271.16666666666663) rotate(0 352 52)"><path d="M0 0 C266.71 0.86, 533.48 1.96, 704 0 M0 0 C246.43 1.58, 492.23 1.95, 704 0 M704 0 C705.65 25.47, 702.47 51.84, 704 104 M704 0 C704.7 40.03, 704.36 80.94, 704 104 M704 104 C429.86 107.17, 155.92 105.79, 0 104 M704 104 C510.76 105.13, 316.48 105.59, 0 104 M0 104 C-2.03 73.47, -1.35 40.45, 0 0 M0 104 C-0.66 73.19, 0.81 43.38, 0 0" stroke="#1e1e1e" stroke-width="2" fill="none"></path></g><g transform="translate(340.16668701171875 245.16666666666663) rotate(0 32.27996826171875 12.5)"><text x="0" y="17.52" font-family="Virgil, Segoe UI Emoji" font-size="20px" fill="#1e1e1e" text-anchor="start" style="white-space: pre;" direction="ltr" dominant-baseline="alphabetic">TopicA</text></g><g stroke-linecap="round"><g transform="translate(338.16668701171875 323.16666666666663) rotate(0 350 0)"><path d="M0 0 C184.19 0.77, 368.8 0.44, 700 0 M0 0 C251.03 2, 502.21 1.73, 700 0" stroke="#1e1e1e" stroke-width="2" fill="none"></path></g></g><mask></mask><g transform="translate(342.16668701171875 277.16666666666663) rotate(0 39.47996520996094 12.5)"><text x="0" y="17.52" font-family="Virgil, Segoe UI Emoji" font-size="20px" fill="#1e1e1e" text-anchor="start" style="white-space: pre;" direction="ltr" dominant-baseline="alphabetic">Queue1: </text></g><g transform="translate(342.16668701171875 329.4670248480621) rotate(0 43.88996124267578 12.5)"><text x="0" y="17.52" font-family="Virgil, Segoe UI Emoji" font-size="20px" fill="#1e1e1e" text-anchor="start" style="white-space: pre;" direction="ltr" dominant-baseline="alphabetic">Queue2: </text></g><g stroke-linecap="round" transform="translate(484.16668701171875 278.500010172526) rotate(0 64 20)"><path d="M10 0 C51.45 0.8, 91.43 0.82, 118 0 M10 0 C39.03 0.13, 66.43 -0.24, 118 0 M118 0 C123.7 -1.85, 126.82 2.88, 128 10 M118 0 C122.65 0.38, 127.89 3.25, 128 10 M128 10 C127.58 19.21, 128.29 24.22, 128 30 M128 10 C128.49 14.35, 128.77 20.24, 128 30 M128 30 C127.84 36.25, 123.98 41.04, 118 40 M128 30 C130.18 36.59, 122.48 40.05, 118 40 M118 40 C84 40.29, 48.78 40.34, 10 40 M118 40 C80.33 40.15, 44.16 41.72, 10 40 M10 40 C2.86 38.81, 1.03 36.75, 0 30 M10 40 C1.64 41.04, -2.18 37.41, 0 30 M0 30 C-1.71 24.78, 1.87 14.25, 0 10 M0 30 C-0.26 22.51, 0.65 14.52, 0 10 M0 10 C0.71 4.42, 2 -1.61, 10 0 M0 10 C1.65 3.09, 3.77 1.85, 10 0" stroke="#1e1e1e" stroke-width="2" fill="none"></path></g><g transform="translate(502.9767303466797 286.000010172526) rotate(0 45.18995666503906 12.5)"><text x="45.18995666503906" y="17.52" font-family="Virgil, Segoe UI Emoji" font-size="20px" fill="#1e1e1e" text-anchor="middle" style="white-space: pre;" direction="ltr" dominant-baseline="alphabetic">message7</text></g><g stroke-linecap="round" transform="translate(628.1666870117188 276.16666666666663) rotate(0 64 20)"><path d="M10 0 C34.19 0.02, 56.21 0.46, 118 0 M10 0 C46.39 0.14, 83.06 0.01, 118 0 M118 0 C123.07 0.27, 129.86 1.6, 128 10 M118 0 C123.52 -0.1, 126.56 3.57, 128 10 M128 10 C126.24 15.76, 128.97 22.31, 128 30 M128 10 C127.97 17.16, 128.03 23.41, 128 30 M128 30 C127.93 38.51, 124.18 38.7, 118 40 M128 30 C126.76 36.1, 125.77 41.88, 118 40 M118 40 C90.68 39.27, 68.77 41.35, 10 40 M118 40 C77.55 38.15, 35.28 38.25, 10 40 M10 40 C1.36 41.74, -1.71 34.77, 0 30 M10 40 C3.02 39.51, 0.39 38.54, 0 30 M0 30 C-0.27 27.44, -1.73 22.56, 0 10 M0 30 C-0.71 25.65, -0.53 20.1, 0 10 M0 10 C-0.17 3.36, 2.13 -0.92, 10 0 M0 10 C-0.05 3.14, 3.09 1.81, 10 0" stroke="#1e1e1e" stroke-width="2" fill="none"></path></g><g transform="translate(646.1767349243164 283.66666666666663) rotate(0 45.989952087402344 12.5)"><text x="45.989952087402344" y="17.52" font-family="Virgil, Segoe UI Emoji" font-size="20px" fill="#1e1e1e" text-anchor="middle" style="white-space: pre;" direction="ltr" dominant-baseline="alphabetic">message5</text></g><g stroke-linecap="round" transform="translate(766.1666870117188 276.16666666666663) rotate(0 64 20)"><path d="M10 0 C31.12 -0.59, 56.18 -2.56, 118 0 M10 0 C49.21 1.15, 87.77 1.79, 118 0 M118 0 C122.85 -0.21, 128.86 3.98, 128 10 M118 0 C124.3 -0.21, 128.18 2.43, 128 10 M128 10 C128.36 18.79, 127.49 26.91, 128 30 M128 10 C129.11 15.32, 127.85 20.69, 128 30 M128 30 C129.98 37.63, 126.36 38.15, 118 40 M128 30 C127.64 36.91, 125.93 41.89, 118 40 M118 40 C81.91 41.83, 50.86 41.77, 10 40 M118 40 C96.12 39.28, 73.3 38.73, 10 40 M10 40 C2.61 39.33, 1.62 36.46, 0 30 M10 40 C2.17 38.23, -0.15 38.64, 0 30 M0 30 C-1.23 25.63, 0.16 20.98, 0 10 M0 30 C-0.64 24.11, 0.01 19.46, 0 10 M0 10 C0.79 1.58, 4.46 -0.41, 10 0 M0 10 C-1.79 5.28, 1.32 0.12, 10 0" stroke="#1e1e1e" stroke-width="2" fill="none"></path></g><g transform="translate(783.5467300415039 283.66666666666663) rotate(0 46.619956970214844 12.5)"><text x="46.619956970214844" y="17.52" font-family="Virgil, Segoe UI Emoji" font-size="20px" fill="#1e1e1e" text-anchor="middle" style="white-space: pre;" direction="ltr" dominant-baseline="alphabetic">message3</text></g><g stroke-linecap="round" transform="translate(904.1666870117188 276.16666666666663) rotate(0 64 20)"><path d="M10 0 C43.61 -2.26, 77.62 -1.62, 118 0 M10 0 C36.16 0, 61.73 -0.66, 118 0 M118 0 C125.58 -0.61, 128.35 1.64, 128 10 M118 0 C125.05 0.69, 129.72 1.33, 128 10 M128 10 C126.75 15.66, 126.66 23.5, 128 30 M128 10 C128.58 16.64, 128.4 23.22, 128 30 M128 30 C126.93 35.57, 126.38 41.91, 118 40 M128 30 C129.45 36.76, 126.91 39.91, 118 40 M118 40 C84.39 39.58, 52.29 42.63, 10 40 M118 40 C77.56 39.33, 36.39 38.81, 10 40 M10 40 C3.36 39.15, 0.55 36.89, 0 30 M10 40 C5.52 38.26, 1.73 35.15, 0 30 M0 30 C-0.34 26.63, -0.49 19.75, 0 10 M0 30 C0.1 24.06, -0.9 18.53, 0 10 M0 10 C-1.91 1.79, 2.48 1.23, 10 0 M0 10 C1.54 3.4, 1.59 -0.5, 10 0" stroke="#1e1e1e" stroke-width="2" fill="none"></path></g><g transform="translate(925.646728515625 283.66666666666663) rotate(0 42.51995849609375 12.5)"><text x="42.51995849609375" y="17.52" font-family="Virgil, Segoe UI Emoji" font-size="20px" fill="#1e1e1e" text-anchor="middle" style="white-space: pre;" direction="ltr" dominant-baseline="alphabetic">message1</text></g><g transform="translate(436.16668701171875 294.500010172526) rotate(0 16.439987182617188 12.5)"><text x="0" y="17.52" font-family="Virgil, Segoe UI Emoji" font-size="20px" fill="#1e1e1e" text-anchor="start" style="white-space: pre;" direction="ltr" dominant-baseline="alphabetic">......</text></g><g stroke-linecap="round" transform="translate(484.16668701171875 330.8333384195963) rotate(0 64 20)"><path d="M10 0 C39.94 -0.28, 71.54 1.31, 118 0 M10 0 C34.29 0.65, 60.82 0.4, 118 0 M118 0 C124.92 -0.16, 127.76 1.74, 128 10 M118 0 C123.51 -2.03, 126.42 4.99, 128 10 M128 10 C126.78 16.83, 126.93 26.44, 128 30 M128 10 C128.86 14.43, 128.05 20.26, 128 30 M128 30 C127.2 35.07, 125.17 40.55, 118 40 M128 30 C126.38 37.76, 123.26 41.59, 118 40 M118 40 C79.74 40.8, 44.34 40.78, 10 40 M118 40 C83 40.19, 47.55 41.75, 10 40 M10 40 C2.5 40.49, -1.89 36.09, 0 30 M10 40 C3.77 40.27, 1.38 36.71, 0 30 M0 30 C2.16 23.4, 0.98 15.71, 0 10 M0 30 C0.15 23.95, 0.13 16.64, 0 10 M0 10 C-0.63 4, 1.4 -0.62, 10 0 M0 10 C0.58 4.26, 2.36 -1.07, 10 0" stroke="#1e1e1e" stroke-width="2" fill="none"></path></g><g transform="translate(500.7067337036133 338.3333384195963) rotate(0 47.45995330810547 12.5)"><text x="47.45995330810547" y="17.52" font-family="Virgil, Segoe UI Emoji" font-size="20px" fill="#1e1e1e" text-anchor="middle" style="white-space: pre;" direction="ltr" dominant-baseline="alphabetic">message8</text></g><g stroke-linecap="round" transform="translate(628.1666870117188 328.49999491373694) rotate(0 64 20)"><path d="M10 0 C37.27 0.43, 65.92 -2.4, 118 0 M10 0 C42.18 0.22, 73.98 -0.49, 118 0 M118 0 C123.66 -1.77, 126.62 4.77, 128 10 M118 0 C126.91 0.42, 126.51 1.89, 128 10 M128 10 C126.81 14.52, 127.78 21.55, 128 30 M128 10 C127.62 14.21, 128.27 20.29, 128 30 M128 30 C126.59 37.62, 123.44 41.38, 118 40 M128 30 C129.03 37.69, 126.06 38.84, 118 40 M118 40 C85.31 41.51, 53.56 40.02, 10 40 M118 40 C94.15 41.03, 70.19 40.5, 10 40 M10 40 C3.72 40.23, 1.2 36.71, 0 30 M10 40 C3.68 38.05, 1.99 38.96, 0 30 M0 30 C0.27 25.76, 1.22 19.21, 0 10 M0 30 C-0.37 23.72, -1.02 16.46, 0 10 M0 10 C0.5 4.14, 2.48 -0.93, 10 0 M0 10 C-1.22 5.33, 2.25 1.07, 10 0" stroke="#1e1e1e" stroke-width="2" fill="none"></path></g><g transform="translate(645.9567337036133 335.99999491373694) rotate(0 46.20995330810547 12.5)"><text x="46.20995330810547" y="17.52" font-family="Virgil, Segoe UI Emoji" font-size="20px" fill="#1e1e1e" text-anchor="middle" style="white-space: pre;" direction="ltr" dominant-baseline="alphabetic">message6</text></g><g stroke-linecap="round" transform="translate(766.1666870117188 328.49999491373694) rotate(0 64 20)"><path d="M10 0 C47.25 1.68, 84.07 1.29, 118 0 M10 0 C41.02 -0.02, 72.37 1.58, 118 0 M118 0 C126.61 0.36, 126.7 2.08, 128 10 M118 0 C123.38 -1.27, 128.62 2.1, 128 10 M128 10 C126.99 15.8, 128.81 20.47, 128 30 M128 10 C127.35 14.88, 127.44 19.5, 128 30 M128 30 C128.9 37.56, 125.88 38.99, 118 40 M128 30 C128.16 37.65, 124.82 40.55, 118 40 M118 40 C76.18 38.96, 39.15 39.13, 10 40 M118 40 C83.16 39.81, 48.54 39.71, 10 40 M10 40 C3.63 38.3, 1.73 38.66, 0 30 M10 40 C2.98 40.94, -1.95 37.08, 0 30 M0 30 C0.49 23.1, -1.42 14.46, 0 10 M0 30 C0.44 23.74, -0.23 16.2, 0 10 M0 10 C-1.06 5.07, 2.39 0.93, 10 0 M0 10 C0.86 1.68, 4.65 1.75, 10 0" stroke="#1e1e1e" stroke-width="2" fill="none"></path></g><g transform="translate(783.9567337036133 335.99999491373694) rotate(0 46.20995330810547 12.5)"><text x="46.20995330810547" y="17.52" font-family="Virgil, Segoe UI Emoji" font-size="20px" fill="#1e1e1e" text-anchor="middle" style="white-space: pre;" direction="ltr" dominant-baseline="alphabetic">message4</text></g><g stroke-linecap="round" transform="translate(904.1666870117188 328.49999491373694) rotate(0 64 20)"><path d="M10 0 C45.7 -0.38, 80.12 -1.15, 118 0 M10 0 C33.82 -0.59, 55.04 -1.41, 118 0 M118 0 C123.55 -1.1, 128.54 2.26, 128 10 M118 0 C124.25 -0.13, 130.07 2.19, 128 10 M128 10 C126.49 16.66, 128.64 20.92, 128 30 M128 10 C128.33 17.4, 128.48 23.4, 128 30 M128 30 C128.14 37.52, 124.8 40.48, 118 40 M128 30 C129.65 38.84, 124.61 38.09, 118 40 M118 40 C91.52 37.66, 63.5 39.93, 10 40 M118 40 C84.48 39.17, 51.54 41.02, 10 40 M10 40 C3.03 40.81, -1.69 37.02, 0 30 M10 40 C5.01 41.5, 0.69 37.38, 0 30 M0 30 C0.79 21.51, -0.49 17.38, 0 10 M0 30 C-0.44 24.06, -0.39 16.86, 0 10 M0 10 C0.75 1.9, 4.48 1.52, 10 0 M0 10 C1.23 1.98, 2.01 0.94, 10 0" stroke="#1e1e1e" stroke-width="2" fill="none"></path></g><g transform="translate(921.2367324829102 335.99999491373694) rotate(0 46.929954528808594 12.5)"><text x="46.929954528808594" y="17.52" font-family="Virgil, Segoe UI Emoji" font-size="20px" fill="#1e1e1e" text-anchor="middle" style="white-space: pre;" direction="ltr" dominant-baseline="alphabetic">message2</text></g><g transform="translate(436.16668701171875 346.8333384195963) rotate(0 16.439987182617188 12.5)"><text x="0" y="17.52" font-family="Virgil, Segoe UI Emoji" font-size="20px" fill="#1e1e1e" text-anchor="start" style="white-space: pre;" direction="ltr" dominant-baseline="alphabetic">......</text></g><g stroke-linecap="round" transform="translate(16.16668701171875 246.500010172526) rotate(0 81 62.00001525878906)"><path d="M76.78 1.06 C87.7 -0.17, 101.29 1.24, 112.16 4.59 C123.03 7.94, 134.05 14.31, 142 21.15 C149.96 27.99, 156.62 36.94, 159.89 45.65 C163.15 54.36, 163.67 64.52, 161.58 73.41 C159.49 82.31, 154.51 91.87, 147.34 99.01 C140.17 106.16, 128.99 112.25, 118.58 116.27 C108.16 120.3, 96.38 122.64, 84.86 123.16 C73.35 123.68, 60.35 122.82, 49.49 119.41 C38.63 116, 27.31 109.38, 19.71 102.72 C12.1 96.06, 6.83 87.92, 3.88 79.46 C0.93 71.01, 0.05 60.8, 1.99 51.97 C3.94 43.14, 8.69 33.82, 15.53 26.48 C22.37 19.14, 32.28 12.38, 43.03 7.95 C53.78 3.52, 73.23 1.19, 80.02 -0.08 C86.8 -1.35, 83.58 -0.85, 83.72 0.34 M55.83 3.23 C65.87 -0.56, 80.08 -2.32, 91.66 -0.97 C103.23 0.37, 115.6 6.39, 125.28 11.3 C134.97 16.22, 143.67 20.94, 149.75 28.52 C155.84 36.09, 160.64 47.78, 161.81 56.76 C162.98 65.73, 161.01 74.27, 156.75 82.39 C152.48 90.51, 144.35 99.08, 136.21 105.48 C128.06 111.87, 118.74 117.69, 107.88 120.77 C97.02 123.85, 82.99 125.23, 71.07 123.96 C59.14 122.7, 46.44 118.1, 36.35 113.19 C26.26 108.28, 16.4 102.14, 10.54 94.5 C4.69 86.85, 2.13 76.22, 1.22 67.35 C0.3 58.47, 1.05 49.54, 5.07 41.27 C9.1 33, 16.98 24.03, 25.37 17.71 C33.76 11.38, 50.34 5.46, 55.43 3.32 C60.53 1.18, 55.49 4.13, 55.94 4.87" stroke="#1e1e1e" stroke-width="2" fill="none"></path></g><g transform="translate(48.32109144654589 296.1593942081559) rotate(0 49.0699462890625 12.5)"><text x="49.0699462890625" y="17.52" font-family="Virgil, Segoe UI Emoji" font-size="20px" fill="#1e1e1e" text-anchor="middle" style="white-space: pre;" direction="ltr" dominant-baseline="alphabetic">producers1</text></g><g stroke-linecap="round"><g transform="translate(178.42527393947222 298.6570259837687) rotate(0 69.8707065361233 -0.8207808923422419)"><path d="M0.72 -0.41 C24.27 -0.68, 117.36 -1.84, 140.42 -2.03 M-0.37 -1.67 C23.16 -1.73, 116.78 -0.95, 139.83 -0.69" stroke="#1e1e1e" stroke-width="2" fill="none"></path></g><g transform="translate(178.42527393947222 298.6570259837687) rotate(0 69.8707065361233 -0.8207808923422419)"><path d="M116.26 7.64 C120.94 6.75, 126.32 2.63, 139.83 -0.69 M116.26 7.64 C122.72 4.41, 130.34 3.55, 139.83 -0.69" stroke="#1e1e1e" stroke-width="2" fill="none"></path></g><g transform="translate(178.42527393947222 298.6570259837687) rotate(0 69.8707065361233 -0.8207808923422419)"><path d="M116.42 -9.46 C121.01 -6.48, 126.35 -6.73, 139.83 -0.69 M116.42 -9.46 C122.96 -7.38, 130.53 -2.93, 139.83 -0.69" stroke="#1e1e1e" stroke-width="2" fill="none"></path></g></g><mask></mask><g stroke-linecap="round"><g transform="translate(180.16668701171875 330.50004069010413) rotate(0 70.00000000000003 9.548437356178454)"><path d="M-0.26 -0.79 C23.2 2.18, 117.09 15.23, 140.35 18.48 M1.8 1.41 C25.17 4.47, 116.26 16.62, 139.59 19.7" stroke="#1e1e1e" stroke-width="2" fill="none"></path></g><g transform="translate(180.16668701171875 330.50004069010413) rotate(0 70.00000000000003 9.548437356178454)"><path d="M115.18 25.08 C120.33 24.29, 127.11 21.08, 139.59 19.7 M115.18 25.08 C121.58 23.62, 128.09 22.04, 139.59 19.7" stroke="#1e1e1e" stroke-width="2" fill="none"></path></g><g transform="translate(180.16668701171875 330.50004069010413) rotate(0 70.00000000000003 9.548437356178454)"><path d="M117.43 8.13 C122.08 11.84, 128.26 13.15, 139.59 19.7 M117.43 8.13 C123.13 11.28, 129.03 14.3, 139.59 19.7" stroke="#1e1e1e" stroke-width="2" fill="none"></path></g></g><mask></mask><g stroke-linecap="round" transform="translate(1354.0000203450522 79.33334350585938) rotate(0 75 38)"><path d="M89.07 1.4 C100.15 1.86, 111.45 4.97, 120.65 8.51 C129.85 12.05, 139.48 17.41, 144.26 22.66 C149.03 27.9, 150.16 34.1, 149.3 39.97 C148.45 45.84, 145.13 52.77, 139.1 57.87 C133.07 62.97, 123.08 67.61, 113.12 70.57 C103.15 73.53, 90.71 75.2, 79.32 75.64 C67.92 76.09, 55.19 75.52, 44.73 73.24 C34.28 70.96, 23.99 66.62, 16.58 61.97 C9.18 57.32, 2.58 51.22, 0.33 45.36 C-1.93 39.5, -0.66 32.49, 3.06 26.83 C6.79 21.17, 14.39 15.48, 22.7 11.41 C31.01 7.34, 40.88 3.99, 52.92 2.42 C64.97 0.84, 86.75 1.82, 94.94 1.98 C103.13 2.14, 102.43 2.98, 102.07 3.38 M51.67 1.35 C61.94 -0.96, 75.21 0.16, 86.41 1.4 C97.62 2.64, 109.72 5.42, 118.9 8.79 C128.09 12.16, 136.45 16.61, 141.51 21.63 C146.57 26.64, 149.44 32.83, 149.25 38.88 C149.06 44.93, 146.15 52.59, 140.39 57.94 C134.63 63.28, 124.54 68.17, 114.7 70.93 C104.87 73.69, 92.73 74.35, 81.36 74.51 C69.99 74.66, 57.25 74.13, 46.5 71.86 C35.75 69.6, 24.31 65.48, 16.85 60.93 C9.4 56.38, 4.23 50.24, 1.77 44.57 C-0.69 38.89, -0.82 32.52, 2.09 26.87 C4.99 21.21, 10.96 14.73, 19.21 10.64 C27.47 6.55, 46.09 3.63, 51.6 2.32 C57.11 1.01, 51.73 2.26, 52.25 2.77" stroke="#1e1e1e" stroke-width="2" fill="none"></path></g><g transform="translate(1382.1570599738345 104.96328582077058) rotate(0 46.80995178222656 12.5)"><text x="46.80995178222656" y="17.52" font-family="Virgil, Segoe UI Emoji" font-size="20px" fill="#1e1e1e" text-anchor="middle" style="white-space: pre;" direction="ltr" dominant-baseline="alphabetic">comsumer1</text></g><g stroke-linecap="round" transform="translate(1359.0000203450522 169) rotate(0 82 42.5)"><path d="M87.41 -0.59 C99.22 -0.74, 113.67 3.53, 124.66 7.18 C135.65 10.83, 146.74 15.67, 153.36 21.31 C159.98 26.95, 164.04 34.63, 164.39 41.02 C164.74 47.41, 160.8 53.72, 155.44 59.65 C150.08 65.57, 142.19 72.48, 132.22 76.56 C122.25 80.64, 108.16 82.98, 95.62 84.11 C83.09 85.25, 68.96 85.31, 57.01 83.37 C45.07 81.42, 33 77.12, 23.95 72.45 C14.9 67.77, 6.35 61.87, 2.72 55.33 C-0.91 48.8, -0.59 39.69, 2.18 33.22 C4.94 26.75, 11.55 21.45, 19.31 16.51 C27.07 11.58, 36.42 6.16, 48.75 3.61 C61.08 1.06, 85.04 1.6, 93.3 1.21 C101.56 0.82, 98.55 0.77, 98.33 1.26 M90.31 -1.21 C102.73 -1.18, 117.5 4.05, 127.96 7.77 C138.43 11.49, 147.18 15.52, 153.1 21.1 C159.01 26.67, 163.06 34.46, 163.45 41.22 C163.84 47.98, 160.92 55.53, 155.45 61.66 C149.98 67.78, 140.95 74.05, 130.63 77.95 C120.31 81.86, 105.93 84.38, 93.55 85.1 C81.17 85.81, 68.07 84.34, 56.35 82.23 C44.62 80.13, 32.06 77.06, 23.18 72.47 C14.3 67.87, 6.84 61.03, 3.05 54.66 C-0.74 48.29, -2.41 40.99, 0.43 34.24 C3.27 27.48, 11.76 19.48, 20.09 14.14 C28.42 8.79, 39.07 4.71, 50.42 2.16 C61.76 -0.38, 81.7 -0.69, 88.17 -1.11 C94.64 -1.53, 89.1 -1.19, 89.24 -0.35" stroke="#1e1e1e" stroke-width="2" fill="none"></path></g><g transform="translate(1389.797316472814 198.94796179957171) rotate(0 51.219947814941406 12.5)"><text x="51.219947814941406" y="17.52" font-family="Virgil, Segoe UI Emoji" font-size="20px" fill="#1e1e1e" text-anchor="middle" style="white-space: pre;" direction="ltr" dominant-baseline="alphabetic">comsumer2</text></g><g stroke-linecap="round"><g transform="translate(962.1666870117188 255.16666666666663) rotate(0 1 70)"><path d="M-0.52 0.91 C-0.47 24.17, 0.93 116.37, 1.25 139.54" stroke="#fab005" stroke-width="2.5" fill="none" stroke-dasharray="8 10"></path></g></g><mask></mask><g transform="translate(930.1666870117188 231.66666666666663) rotate(0 32.551971435546875 10)"><text x="0" y="14.016" font-family="Virgil, Segoe UI Emoji" font-size="16px" fill="#fab005" text-anchor="start" style="white-space: pre;" direction="ltr" dominant-baseline="alphabetic">offset=1</text></g><g stroke-linecap="round"><g transform="translate(833.6147155761719 259.1447851207728) rotate(0 1 71)"><path d="M0.14 -0.35 C0.52 23.1, 1.56 117.01, 1.8 140.85" stroke="#fab005" stroke-width="2.5" fill="none" stroke-dasharray="8 10"></path></g></g><mask></mask><g transform="translate(803.6147155761719 235.64478512077278) rotate(0 36.07997131347656 10)"><text x="0" y="14.016" font-family="Virgil, Segoe UI Emoji" font-size="16px" fill="#fab005" text-anchor="start" style="white-space: pre;" direction="ltr" dominant-baseline="alphabetic">offset=2</text></g><g stroke-linecap="round"><g transform="translate(688.0867156982422 261.4916002058113) rotate(0 1 70)"><path d="M-1.11 -0.77 C-0.57 22.57, 1.86 115.59, 2.26 139.15" stroke="#fab005" stroke-width="2.5" fill="none" stroke-dasharray="8 10"></path></g></g><mask></mask><g transform="translate(658.0867156982422 235.99160020581132) rotate(0 35.83197021484375 10)"><text x="0" y="14.016" font-family="Virgil, Segoe UI Emoji" font-size="16px" fill="#fab005" text-anchor="start" style="white-space: pre;" direction="ltr" dominant-baseline="alphabetic">offset=3</text></g><g stroke-linecap="round"><g transform="translate(1034.1666870117188 286.26433206795053) rotate(0 161.97632301748445 -76.27488579765567)"><path d="M-0.79 1.08 C53.36 -24.27, 269.56 -126.93, 323.69 -152.45 M1 0.59 C55.07 -24.5, 268.89 -125.07, 322.61 -150.86" stroke="#1e1e1e" stroke-width="2" fill="none"></path></g><g transform="translate(1034.1666870117188 286.26433206795053) rotate(0 161.97632301748445 -76.27488579765567)"><path d="M305.05 -133.06 C310.42 -136.96, 312.32 -139.99, 322.61 -150.86 M305.05 -133.06 C311.35 -140.03, 316.75 -145.86, 322.61 -150.86" stroke="#1e1e1e" stroke-width="2" fill="none"></path></g><g transform="translate(1034.1666870117188 286.26433206795053) rotate(0 161.97632301748445 -76.27488579765567)"><path d="M297.72 -148.52 C304.51 -149.26, 307.88 -149.19, 322.61 -150.86 M297.72 -148.52 C306.46 -150.19, 314.36 -150.75, 322.61 -150.86" stroke="#1e1e1e" stroke-width="2" fill="none"></path></g></g><mask></mask><g stroke-linecap="round"><g transform="translate(1033.1666870117188 338.11079966024806) rotate(0 169.18237279065943 -51.32057988134767)"><path d="M-0.68 0.16 C55.7 -16.99, 282.27 -84.41, 338.91 -101.74 M1.17 -0.8 C57.38 -17.77, 281.98 -86.34, 338.24 -103.39" stroke="#1e1e1e" stroke-width="2" fill="none"></path></g><g transform="translate(1033.1666870117188 338.11079966024806) rotate(0 169.18237279065943 -51.32057988134767)"><path d="M318.26 -88.37 C325.42 -92.64, 333.7 -97.55, 338.24 -103.39 M318.26 -88.37 C322.61 -92.49, 326.55 -94.05, 338.24 -103.39" stroke="#1e1e1e" stroke-width="2" fill="none"></path></g><g transform="translate(1033.1666870117188 338.11079966024806) rotate(0 169.18237279065943 -51.32057988134767)"><path d="M313.28 -104.73 C322.35 -103.21, 332.39 -102.36, 338.24 -103.39 M313.28 -104.73 C318.65 -105.55, 323.61 -103.78, 338.24 -103.39" stroke="#1e1e1e" stroke-width="2" fill="none"></path></g></g><mask></mask><g stroke-linecap="round" transform="translate(1284.0000203450522 44) rotate(0 284.25 125)"><path d="M32 0 C138.39 0.41, 243.54 -0.03, 536.5 0 M536.5 0 C556.58 -0.85, 567.81 9.41, 568.5 32 M568.5 32 C569.16 85.21, 567.87 142.82, 568.5 218 M568.5 218 C569.59 237.62, 557.55 249.28, 536.5 250 M536.5 250 C412.22 251.07, 287.94 250.58, 32 250 M32 250 C11.64 251.36, -1.52 240.29, 0 218 M0 218 C0.24 178.55, 0.25 138.66, 0 32 M0 32 C0.89 12.39, 11.7 -1.79, 32 0" stroke="#1e1e1e" stroke-width="2.5" fill="none" stroke-dasharray="8 10"></path></g><g transform="translate(1647.5000203450522 10) rotate(0 78.99992370605469 12.5)"><text x="0" y="17.52" font-family="Virgil, Segoe UI Emoji" font-size="20px" fill="#1e1e1e" text-anchor="start" style="white-space: pre;" direction="ltr" dominant-baseline="alphabetic">comsumerGroupA</text></g><g transform="translate(1504.8333333333335 91.75) rotate(0 113.95987701416016 25)"><text x="0" y="17.52" font-family="Virgil, Segoe UI Emoji" font-size="20px" fill="#2f9e44" text-anchor="start" style="white-space: pre;" direction="ltr" dominant-baseline="alphabetic">TopicA-Queue1-offset=1</text><text x="0" y="42.519999999999996" font-family="Virgil, Segoe UI Emoji" font-size="20px" fill="#2f9e44" text-anchor="start" style="white-space: pre;" direction="ltr" dominant-baseline="alphabetic">TopicB-Queue1-offset=1</text></g><g transform="translate(1529.3333333333335 200.75) rotate(0 121.18987274169922 25)"><text x="0" y="17.52" font-family="Virgil, Segoe UI Emoji" font-size="20px" fill="#2f9e44" text-anchor="start" style="white-space: pre;" direction="ltr" dominant-baseline="alphabetic">TopicA-queue2-offset=2</text><text x="0" y="42.519999999999996" font-family="Virgil, Segoe UI Emoji" font-size="20px" fill="#2f9e44" text-anchor="start" style="white-space: pre;" direction="ltr" dominant-baseline="alphabetic">TopicB-queue2-offset=2</text></g><g stroke-linecap="round"><g transform="translate(1499.3333333333337 115.43442499640659) rotate(0 -238.41666666666686 77.99112083513002)"><path d="M0.21 0.65 C-48.24 7.62, -210.99 15.86, -290.44 41.73 C-369.9 67.6, -445.26 136.98, -476.51 155.86 M-1.14 -0.05 C-49.21 7.06, -208.72 16.68, -288.05 42.87 C-367.38 69.06, -445.41 138.32, -477.11 157.12" stroke="#2f9e44" stroke-width="2" fill="none"></path></g><g transform="translate(1499.3333333333337 115.43442499640659) rotate(0 -238.41666666666686 77.99112083513002)"><path d="M-462.82 136.61 C-466.31 142.18, -473.23 150.29, -477.11 157.12 M-462.82 136.61 C-467.1 142.89, -472.3 148.49, -477.11 157.12" stroke="#2f9e44" stroke-width="2" fill="none"></path></g><g transform="translate(1499.3333333333337 115.43442499640659) rotate(0 -238.41666666666686 77.99112083513002)"><path d="M-452.98 150.59 C-459.61 151.7, -469.68 155.34, -477.11 157.12 M-452.98 150.59 C-459.98 152.74, -468.03 154.29, -477.11 157.12" stroke="#2f9e44" stroke-width="2" fill="none"></path></g></g><mask></mask><g stroke-linecap="round"><g transform="translate(1524.3333333333335 236.6924443778077) rotate(0 -336.66666666666674 107.61211114442946)"><path d="M0.27 0.48 C-79.64 36.5, -366.95 192.76, -479.13 216.03 C-591.31 239.31, -640.46 152.94, -672.8 140.14 M-1.04 -0.31 C-81.08 35.37, -367.67 191.24, -479.71 214.34 C-591.75 237.43, -641.1 150.61, -673.29 138.27" stroke="#2f9e44" stroke-width="2" fill="none"></path></g><g transform="translate(1524.3333333333335 236.6924443778077) rotate(0 -336.66666666666674 107.61211114442946)"><path d="M-649.38 145.58 C-656.43 144.4, -663.74 141.72, -673.29 138.27 M-649.38 145.58 C-659.04 143.21, -667.2 139.26, -673.29 138.27" stroke="#2f9e44" stroke-width="2" fill="none"></path></g><g transform="translate(1524.3333333333335 236.6924443778077) rotate(0 -336.66666666666674 107.61211114442946)"><path d="M-659.67 159.24 C-663.33 153.55, -667.26 146.38, -673.29 138.27 M-659.67 159.24 C-665.48 151.74, -669.77 142.65, -673.29 138.27" stroke="#2f9e44" stroke-width="2" fill="none"></path></g></g><mask></mask><g stroke-linecap="round" transform="translate(335 668.4291331680181) rotate(0 352 52)"><path d="M0 0 C268.69 -0.39, 538.35 0.55, 704 0 M0 0 C248.33 -2.37, 496.36 -2.61, 704 0 M704 0 C701.28 28.67, 703.66 51.79, 704 104 M704 0 C705.15 28.78, 705.4 57.9, 704 104 M704 104 C460.93 106.23, 216.25 105.89, 0 104 M704 104 C503.78 103.13, 303.44 102.79, 0 104 M0 104 C-2.78 73.65, -0.49 48.71, 0 0 M0 104 C-0.28 63.7, -0.54 22.29, 0 0" stroke="#1e1e1e" stroke-width="2" fill="none"></path></g><g transform="translate(339 642.4291331680181) rotate(0 32.989967346191406 12.5)"><text x="0" y="17.52" font-family="Virgil, Segoe UI Emoji" font-size="20px" fill="#1e1e1e" text-anchor="start" style="white-space: pre;" direction="ltr" dominant-baseline="alphabetic">TopicB</text></g><g stroke-linecap="round"><g transform="translate(337 720.4291331680181) rotate(0 350 0)"><path d="M0 0 C193.01 -3.38, 385.88 -2.66, 700 0 M0 0 C236.02 0.37, 472.1 0.26, 700 0" stroke="#1e1e1e" stroke-width="2" fill="none"></path></g></g><mask></mask><g transform="translate(341 674.4291331680181) rotate(0 39.47996520996094 12.5)"><text x="0" y="17.52" font-family="Virgil, Segoe UI Emoji" font-size="20px" fill="#1e1e1e" text-anchor="start" style="white-space: pre;" direction="ltr" dominant-baseline="alphabetic">Queue1: </text></g><g transform="translate(341 726.7294913494136) rotate(0 43.88996124267578 12.5)"><text x="0" y="17.52" font-family="Virgil, Segoe UI Emoji" font-size="20px" fill="#1e1e1e" text-anchor="start" style="white-space: pre;" direction="ltr" dominant-baseline="alphabetic">Queue2: </text></g><g stroke-linecap="round" transform="translate(483 675.7624766738775) rotate(0 64 20)"><path d="M10 0 C40.99 0.17, 71.5 -0.39, 118 0 M10 0 C30.76 -0.41, 53.78 -0.41, 118 0 M118 0 C126.1 -0.73, 129.92 2.55, 128 10 M118 0 C125.73 -1.64, 130.12 5.45, 128 10 M128 10 C127.65 13.33, 127.27 19.8, 128 30 M128 10 C127.6 17.44, 128.08 22.17, 128 30 M128 30 C126.13 37.11, 126.35 41.85, 118 40 M128 30 C128.99 35.57, 125.05 41.15, 118 40 M118 40 C85.95 40.22, 53.6 41.4, 10 40 M118 40 C90.42 38.81, 62.52 39.27, 10 40 M10 40 C4.36 41.61, -1 37.89, 0 30 M10 40 C4.36 39.72, -0.79 35.47, 0 30 M0 30 C-0.55 23.61, -0.47 17.28, 0 10 M0 30 C-0.71 22.78, -0.53 14.26, 0 10 M0 10 C0.79 4.67, 4.53 1.25, 10 0 M0 10 C0.63 2.63, 3.42 0.66, 10 0" stroke="#1e1e1e" stroke-width="2" fill="none"></path></g><g transform="translate(501.81004333496094 683.2624766738775) rotate(0 45.18995666503906 12.5)"><text x="45.18995666503906" y="17.52" font-family="Virgil, Segoe UI Emoji" font-size="20px" fill="#1e1e1e" text-anchor="middle" style="white-space: pre;" direction="ltr" dominant-baseline="alphabetic">message7</text></g><g stroke-linecap="round" transform="translate(627 673.4291331680181) rotate(0 64 20)"><path d="M10 0 C35.86 2.61, 66.09 -1.08, 118 0 M10 0 C40.98 -0.15, 71.5 -0.18, 118 0 M118 0 C125.59 -1.43, 129.84 5.18, 128 10 M118 0 C123.61 -0.38, 125.97 2.97, 128 10 M128 10 C128.47 12.89, 126.75 17.96, 128 30 M128 10 C127.11 18.02, 128.88 26.52, 128 30 M128 30 C128.86 35.71, 125 41, 118 40 M128 30 C127.79 36.42, 124.97 39.25, 118 40 M118 40 C84.39 42.3, 50.67 41.66, 10 40 M118 40 C89.08 41.01, 58.62 40.82, 10 40 M10 40 C4.23 39.76, -0.68 35.62, 0 30 M10 40 C3.31 38.38, 2.18 35.87, 0 30 M0 30 C1.67 25.34, -1.92 17.6, 0 10 M0 30 C0.48 23.89, 0.68 17.06, 0 10 M0 10 C0.55 2.72, 3.41 0.57, 10 0 M0 10 C-2.1 4.05, 4.03 -0.97, 10 0" stroke="#1e1e1e" stroke-width="2" fill="none"></path></g><g transform="translate(645.0100479125977 680.9291331680181) rotate(0 45.989952087402344 12.5)"><text x="45.989952087402344" y="17.52" font-family="Virgil, Segoe UI Emoji" font-size="20px" fill="#1e1e1e" text-anchor="middle" style="white-space: pre;" direction="ltr" dominant-baseline="alphabetic">message5</text></g><g stroke-linecap="round" transform="translate(765 673.4291331680181) rotate(0 64 20)"><path d="M10 0 C52.02 1.83, 94.44 2.42, 118 0 M10 0 C38.93 -0.29, 67.85 1.35, 118 0 M118 0 C123.75 -0.33, 126.23 3.02, 128 10 M118 0 C122.65 -0.8, 127.57 3.96, 128 10 M128 10 C129.68 15.08, 126.04 17.42, 128 30 M128 10 C128.6 15.97, 128.33 23.39, 128 30 M128 30 C127.82 36.45, 124.93 39.35, 118 40 M128 30 C128.09 34.84, 126.11 39.08, 118 40 M118 40 C76.31 41.86, 36.1 41.56, 10 40 M118 40 C77.36 40.54, 35.49 40.14, 10 40 M10 40 C3.31 38.59, 1.89 35.98, 0 30 M10 40 C2.85 39.3, -0.88 38.52, 0 30 M0 30 C0.98 22.2, -0.85 16.94, 0 10 M0 30 C0.16 22.35, -0.08 15.61, 0 10 M0 10 C-1.83 3.96, 3.94 -0.85, 10 0 M0 10 C0.81 1.44, 5.1 -0.18, 10 0" stroke="#1e1e1e" stroke-width="2" fill="none"></path></g><g transform="translate(782.3800430297852 680.9291331680181) rotate(0 46.619956970214844 12.5)"><text x="46.619956970214844" y="17.52" font-family="Virgil, Segoe UI Emoji" font-size="20px" fill="#1e1e1e" text-anchor="middle" style="white-space: pre;" direction="ltr" dominant-baseline="alphabetic">message3</text></g><g stroke-linecap="round" transform="translate(903 673.4291331680181) rotate(0 64 20)"><path d="M10 0 C46.19 1.15, 83.06 0.15, 118 0 M10 0 C34.24 -1.16, 58.52 -1.15, 118 0 M118 0 C122.91 -0.69, 127.63 3.88, 128 10 M118 0 C123.11 -1.35, 127.4 5.4, 128 10 M128 10 C128.26 18.12, 129.66 23.73, 128 30 M128 10 C127.94 14.94, 128.17 19.77, 128 30 M128 30 C128.08 35.08, 125.92 39.2, 118 40 M128 30 C129.86 34.71, 125.79 39.37, 118 40 M118 40 C80.03 39.55, 40.07 41.45, 10 40 M118 40 C86.88 38.73, 56.74 39.09, 10 40 M10 40 C2.91 39.39, -0.76 38.28, 0 30 M10 40 C4.39 37.73, -1.42 37.57, 0 30 M0 30 C1.44 26.07, 1.36 20.31, 0 10 M0 30 C-0.92 24.93, 0.3 18.81, 0 10 M0 10 C0.71 1.69, 4.87 -0.15, 10 0 M0 10 C0.1 2.72, 5.06 0.1, 10 0" stroke="#1e1e1e" stroke-width="2" fill="none"></path></g><g transform="translate(924.4800415039062 680.9291331680181) rotate(0 42.51995849609375 12.5)"><text x="42.51995849609375" y="17.52" font-family="Virgil, Segoe UI Emoji" font-size="20px" fill="#1e1e1e" text-anchor="middle" style="white-space: pre;" direction="ltr" dominant-baseline="alphabetic">message1</text></g><g transform="translate(435 691.7624766738775) rotate(0 16.439987182617188 12.5)"><text x="0" y="17.52" font-family="Virgil, Segoe UI Emoji" font-size="20px" fill="#1e1e1e" text-anchor="start" style="white-space: pre;" direction="ltr" dominant-baseline="alphabetic">......</text></g><g stroke-linecap="round" transform="translate(483 728.0958049209478) rotate(0 64 20)"><path d="M10 0 C49.24 -1.91, 84.47 -2.76, 118 0 M10 0 C40.52 0.65, 70.73 -0.21, 118 0 M118 0 C124.14 1.8, 128.44 1.49, 128 10 M118 0 C122.52 0.51, 129.93 5.46, 128 10 M128 10 C128.91 16.67, 127.69 23.98, 128 30 M128 10 C128.64 14.95, 128.82 19.85, 128 30 M128 30 C128.98 36.12, 126 40.39, 118 40 M128 30 C129.18 38.52, 123.51 41.41, 118 40 M118 40 C79.73 39.61, 42.15 41.52, 10 40 M118 40 C88.95 40.48, 61.13 38.68, 10 40 M10 40 C2.09 40.78, -0.88 35.62, 0 30 M10 40 C4.24 41.54, 1.37 38.11, 0 30 M0 30 C0.63 21.63, 0.69 17.51, 0 10 M0 30 C0.7 24.77, -0.03 19.42, 0 10 M0 10 C1.5 3.42, 2.51 -1.57, 10 0 M0 10 C1.22 5.52, 5.33 -0.76, 10 0" stroke="#1e1e1e" stroke-width="2" fill="none"></path></g><g transform="translate(499.54004669189453 735.5958049209478) rotate(0 47.45995330810547 12.5)"><text x="47.45995330810547" y="17.52" font-family="Virgil, Segoe UI Emoji" font-size="20px" fill="#1e1e1e" text-anchor="middle" style="white-space: pre;" direction="ltr" dominant-baseline="alphabetic">message8</text></g><g stroke-linecap="round" transform="translate(627 725.7624614150884) rotate(0 64 20)"><path d="M10 0 C37.14 -0.8, 64.22 0.58, 118 0 M10 0 C45.07 1.54, 80.88 -0.28, 118 0 M118 0 C122.8 0.44, 129.68 5.18, 128 10 M118 0 C125.65 -1.1, 128.38 4.49, 128 10 M128 10 C127.33 15.89, 126.39 22.89, 128 30 M128 10 C128.65 14.92, 128.83 20.59, 128 30 M128 30 C129.03 38.27, 123.66 41.23, 118 40 M128 30 C129.03 36.39, 123.88 38.8, 118 40 M118 40 C85.04 40.6, 52.85 40.26, 10 40 M118 40 C76.28 39.32, 35.37 38.41, 10 40 M10 40 C4.12 41.34, 1.19 37.92, 0 30 M10 40 C3.96 39.29, 0.09 37.32, 0 30 M0 30 C-0.91 26.53, -1.71 23.18, 0 10 M0 30 C0.74 24.2, -0.42 17.52, 0 10 M0 10 C1.06 5.23, 5.07 -0.66, 10 0 M0 10 C0.78 5.53, 1.52 2.13, 10 0" stroke="#1e1e1e" stroke-width="2" fill="none"></path></g><g transform="translate(644.7900466918945 733.2624614150884) rotate(0 46.20995330810547 12.5)"><text x="46.20995330810547" y="17.52" font-family="Virgil, Segoe UI Emoji" font-size="20px" fill="#1e1e1e" text-anchor="middle" style="white-space: pre;" direction="ltr" dominant-baseline="alphabetic">message6</text></g><g stroke-linecap="round" transform="translate(765 725.7624614150884) rotate(0 64 20)"><path d="M10 0 C33.45 -1.16, 54.64 -0.32, 118 0 M10 0 C51.19 1.21, 95.09 1.92, 118 0 M118 0 C125.53 -0.95, 128.33 4.34, 128 10 M118 0 C124.45 -0.25, 128.31 2.59, 128 10 M128 10 C127.04 17.7, 126.14 23.13, 128 30 M128 10 C128.65 16.26, 127.63 21.52, 128 30 M128 30 C128.89 36.43, 123.98 38.96, 118 40 M128 30 C127.97 35.05, 126.84 39.2, 118 40 M118 40 C89.47 40.51, 55.74 38.35, 10 40 M118 40 C81.77 40.11, 45.35 40.06, 10 40 M10 40 C3.88 39.39, 0.08 37.24, 0 30 M10 40 C1.23 40.72, 0.7 35.69, 0 30 M0 30 C0.01 23.38, -0.37 18.09, 0 10 M0 30 C0.61 24.86, 0.95 17.5, 0 10 M0 10 C0.68 5.24, 1.76 1.85, 10 0 M0 10 C-1.46 4.87, 4.27 -0.87, 10 0" stroke="#1e1e1e" stroke-width="2" fill="none"></path></g><g transform="translate(782.7900466918945 733.2624614150884) rotate(0 46.20995330810547 12.5)"><text x="46.20995330810547" y="17.52" font-family="Virgil, Segoe UI Emoji" font-size="20px" fill="#1e1e1e" text-anchor="middle" style="white-space: pre;" direction="ltr" dominant-baseline="alphabetic">message4</text></g><g stroke-linecap="round" transform="translate(903 725.7624614150884) rotate(0 64 20)"><path d="M10 0 C36.87 0.72, 58.31 -1.58, 118 0 M10 0 C45.22 -1.47, 79.75 -0.49, 118 0 M118 0 C124.48 -0.22, 128.27 2.68, 128 10 M118 0 C124.75 -1.83, 129.44 2.41, 128 10 M128 10 C127.28 18.95, 128.22 26.27, 128 30 M128 10 C128.35 17.49, 127.56 24.69, 128 30 M128 30 C127.98 35.26, 126.56 39.31, 118 40 M128 30 C127.52 35.97, 123.79 41.85, 118 40 M118 40 C81.4 38.45, 42.2 40.12, 10 40 M118 40 C78.65 40.37, 38.79 40.96, 10 40 M10 40 C1.51 40.63, 0.61 35.82, 0 30 M10 40 C4.15 38.11, 1.76 36.49, 0 30 M0 30 C0.14 23.09, -1.51 18.88, 0 10 M0 30 C0.17 23.06, -0.96 15.13, 0 10 M0 10 C-1.27 4.67, 4.15 -0.76, 10 0 M0 10 C1.71 3.32, 2.62 0.41, 10 0" stroke="#1e1e1e" stroke-width="2" fill="none"></path></g><g transform="translate(920.0700454711914 733.2624614150884) rotate(0 46.929954528808594 12.5)"><text x="46.929954528808594" y="17.52" font-family="Virgil, Segoe UI Emoji" font-size="20px" fill="#1e1e1e" text-anchor="middle" style="white-space: pre;" direction="ltr" dominant-baseline="alphabetic">message2</text></g><g transform="translate(435 744.0958049209478) rotate(0 16.439987182617188 12.5)"><text x="0" y="17.52" font-family="Virgil, Segoe UI Emoji" font-size="20px" fill="#1e1e1e" text-anchor="start" style="white-space: pre;" direction="ltr" dominant-baseline="alphabetic">......</text></g><g stroke-linecap="round" transform="translate(10 641.2624766738775) rotate(0 83.5 62.00001525878906)"><path d="M101.8 1.33 C113.33 2.23, 125.44 7.74, 134.82 13.29 C144.2 18.83, 152.82 26.48, 158.05 34.6 C163.28 42.72, 166.1 52.93, 166.2 62.03 C166.31 71.12, 163.82 81.08, 158.68 89.17 C153.53 97.26, 144.69 104.95, 135.34 110.59 C125.99 116.22, 114.16 120.89, 102.59 122.97 C91.02 125.06, 77.52 125.2, 65.9 123.09 C54.28 120.98, 42.32 115.88, 32.88 110.34 C23.43 104.81, 14.73 97.9, 9.24 89.89 C3.74 81.87, 0.19 71.3, -0.12 62.26 C-0.42 53.21, 2.36 43.53, 7.4 35.63 C12.44 27.73, 20.71 20.54, 30.11 14.85 C39.51 9.16, 49.25 3.12, 63.79 1.48 C78.32 -0.15, 105.9 3.07, 117.32 5.03 C128.74 7, 133.02 12.36, 132.33 13.27 M100.31 2.18 C112.07 3.21, 124.92 8.23, 134.55 13.37 C144.17 18.51, 152.65 25.16, 158.06 33.04 C163.48 40.91, 166.97 51.52, 167.02 60.64 C167.07 69.76, 163.23 79.74, 158.38 87.75 C153.52 95.76, 146.79 103.2, 137.88 108.7 C128.98 114.21, 116.53 118.46, 104.95 120.79 C93.38 123.12, 80.35 124.31, 68.43 122.7 C56.5 121.1, 43.07 116.52, 33.41 111.17 C23.75 105.81, 16.14 98.66, 10.47 90.57 C4.8 82.47, -0.18 71.35, -0.58 62.62 C-0.98 53.88, 2.81 46.22, 8.05 38.15 C13.29 30.07, 21.7 19.96, 30.88 14.17 C40.05 8.38, 51.81 5.34, 63.09 3.41 C74.37 1.48, 92.65 2.57, 98.54 2.57 C104.43 2.57, 98.42 2.71, 98.45 3.4" stroke="#1e1e1e" stroke-width="2" fill="none"></path></g><g transform="translate(39.976641449145916 690.9218607095073) rotate(0 53.479942321777344 12.5)"><text x="53.479942321777344" y="17.52" font-family="Virgil, Segoe UI Emoji" font-size="20px" fill="#1e1e1e" text-anchor="middle" style="white-space: pre;" direction="ltr" dominant-baseline="alphabetic">producers2</text></g><g stroke-linecap="round"><g transform="translate(177.3329602367926 693.9365341196116) rotate(0 69.83351988160373 -0.3856595843037667)"><path d="M0.2 0.6 C23.37 0.55, 116.29 -0.61, 139.56 -0.9 M-1.15 -0.13 C21.81 0.06, 115.17 0.55, 138.55 0.57" stroke="#1e1e1e" stroke-width="2" fill="none"></path></g><g transform="translate(177.3329602367926 693.9365341196116) rotate(0 69.83351988160373 -0.3856595843037667)"><path d="M115.03 9.04 C124.14 5.91, 130.98 3.45, 138.55 0.57 M115.03 9.04 C121.95 6.56, 128.42 3.84, 138.55 0.57" stroke="#1e1e1e" stroke-width="2" fill="none"></path></g><g transform="translate(177.3329602367926 693.9365341196116) rotate(0 69.83351988160373 -0.3856595843037667)"><path d="M115.09 -8.06 C124.1 -5.33, 130.92 -1.92, 138.55 0.57 M115.09 -8.06 C122 -5.97, 128.46 -4.11, 138.55 0.57" stroke="#1e1e1e" stroke-width="2" fill="none"></path></g></g><mask></mask><g stroke-linecap="round"><g transform="translate(178.462098600599 726.0992415976123) rotate(0 70.26895069970053 10.052868077371215)"><path d="M-0.11 -0.13 C23.31 3.05, 117.25 16.5, 140.7 19.72 M-1.63 -1.25 C21.63 2.06, 116.26 17.51, 139.83 21.05" stroke="#1e1e1e" stroke-width="2" fill="none"></path></g><g transform="translate(178.462098600599 726.0992415976123) rotate(0 70.26895069970053 10.052868077371215)"><path d="M115.3 25.85 C122.82 24.62, 130.16 22.91, 139.83 21.05 M115.3 25.85 C121.49 24.03, 126.58 23.55, 139.83 21.05" stroke="#1e1e1e" stroke-width="2" fill="none"></path></g><g transform="translate(178.462098600599 726.0992415976123) rotate(0 70.26895069970053 10.052868077371215)"><path d="M117.96 8.95 C124.73 13.07, 131.22 16.71, 139.83 21.05 M117.96 8.95 C123.67 10.86, 128.17 14.1, 139.83 21.05" stroke="#1e1e1e" stroke-width="2" fill="none"></path></g></g><mask></mask><g stroke-linecap="round"><g transform="translate(961 652.4291331680181) rotate(0 1 70)"><path d="M0.16 -0.39 C0.52 22.81, 1.61 115.73, 2.05 139.05" stroke="#fab005" stroke-width="2.5" fill="none" stroke-dasharray="8 10"></path></g></g><mask></mask><g transform="translate(929 628.9291331680181) rotate(0 32.551971435546875 10)"><text x="0" y="14.016" font-family="Virgil, Segoe UI Emoji" font-size="16px" fill="#fab005" text-anchor="start" style="white-space: pre;" direction="ltr" dominant-baseline="alphabetic">offset=1</text></g><g stroke-linecap="round"><g transform="translate(832.4480285644531 656.4072516221242) rotate(0 1 71)"><path d="M0.75 -0.48 C1.24 23.17, 2.67 117.29, 2.97 140.98" stroke="#fab005" stroke-width="2.5" fill="none" stroke-dasharray="8 10"></path></g></g><mask></mask><g transform="translate(802.4480285644531 632.9072516221242) rotate(0 36.07997131347656 10)"><text x="0" y="14.016" font-family="Virgil, Segoe UI Emoji" font-size="16px" fill="#fab005" text-anchor="start" style="white-space: pre;" direction="ltr" dominant-baseline="alphabetic">offset=2</text></g><g stroke-linecap="round"><g transform="translate(686.9200286865234 658.7540667071628) rotate(0 1 70)"><path d="M0.59 -0.33 C0.89 23.21, 2.46 116.68, 2.8 140.23" stroke="#fab005" stroke-width="2.5" fill="none" stroke-dasharray="8 10"></path></g></g><mask></mask><g transform="translate(656.9200286865234 633.2540667071628) rotate(0 35.83197021484375 10)"><text x="0" y="14.016" font-family="Virgil, Segoe UI Emoji" font-size="16px" fill="#fab005" text-anchor="start" style="white-space: pre;" direction="ltr" dominant-baseline="alphabetic">offset=3</text></g><g stroke-linecap="round" transform="translate(1336.0833333333335 507.8333435058594) rotate(0 75 38)"><path d="M43.9 3.16 C53.63 0.22, 67.83 -0.39, 79.41 0.07 C90.98 0.54, 103.23 3.09, 113.34 5.97 C123.44 8.85, 134.03 12.33, 140.04 17.35 C146.05 22.38, 148.7 30.08, 149.4 36.12 C150.1 42.16, 148.8 48.3, 144.23 53.6 C139.66 58.9, 131.28 64.13, 121.99 67.9 C112.69 71.68, 99.83 75.21, 88.47 76.26 C77.11 77.3, 64.75 76, 53.81 74.15 C42.86 72.3, 31.08 69.3, 22.8 65.15 C14.53 61, 7.8 54.81, 4.15 49.25 C0.51 43.69, -1.16 37.49, 0.94 31.79 C3.03 26.08, 7.8 20.21, 16.72 15.01 C25.64 9.8, 46.09 2.73, 54.47 0.56 C62.85 -1.62, 66.56 1.33, 66.98 1.94 M49.66 1.44 C60.01 -1.23, 74.48 -1.79, 86.05 -1 C97.62 -0.2, 109.57 2.58, 119.09 6.21 C128.6 9.84, 137.94 15.3, 143.16 20.78 C148.37 26.27, 150.67 33.06, 150.4 39.11 C150.13 45.16, 147.2 51.99, 141.54 57.08 C135.88 62.17, 126.16 66.67, 116.45 69.64 C106.74 72.61, 94.8 74.26, 83.27 74.9 C71.74 75.53, 58.03 75.45, 47.27 73.44 C36.51 71.43, 26.41 67.05, 18.7 62.82 C11 58.59, 3.81 53.66, 1.01 48.07 C-1.78 42.48, -1.18 35.39, 1.93 29.28 C5.05 23.18, 11.75 15.73, 19.72 11.44 C27.7 7.15, 44.82 4.74, 49.78 3.54 C54.75 2.33, 49.04 4.04, 49.53 4.21" stroke="#1e1e1e" stroke-width="2" fill="none"></path></g><g transform="translate(1364.2403729621158 533.4632858207706) rotate(0 46.80995178222656 12.5)"><text x="46.80995178222656" y="17.52" font-family="Virgil, Segoe UI Emoji" font-size="20px" fill="#1e1e1e" text-anchor="middle" style="white-space: pre;" direction="ltr" dominant-baseline="alphabetic">comsumer1</text></g><g stroke-linecap="round" transform="translate(1341.0833333333335 597.5) rotate(0 82 42.5)"><path d="M72.47 0.8 C84.47 -0.68, 100.84 -0.41, 112.66 1.97 C124.47 4.35, 135.05 9.95, 143.37 15.08 C151.69 20.21, 159.43 26.42, 162.55 32.75 C165.66 39.08, 165.36 46.54, 162.05 53.05 C158.75 59.57, 151.16 66.98, 142.71 71.84 C134.27 76.7, 123.16 80.03, 111.41 82.21 C99.65 84.38, 84.8 85.71, 72.16 84.87 C59.52 84.02, 46.13 80.87, 35.57 77.14 C25.01 73.41, 14.6 68.26, 8.82 62.49 C3.03 56.72, 0.8 49.34, 0.87 42.53 C0.93 35.71, 3.27 27.33, 9.19 21.62 C15.11 15.91, 24.32 12, 36.39 8.26 C48.46 4.52, 72.75 0.48, 81.61 -0.82 C90.46 -2.12, 89.52 -0.45, 89.5 0.47 M58.14 1.3 C69.28 -0.95, 85.37 -0.58, 97.79 0.82 C110.2 2.22, 122.74 5.5, 132.61 9.69 C142.48 13.89, 151.9 20.09, 157.01 25.98 C162.11 31.87, 164.02 38.77, 163.23 45.01 C162.44 51.25, 158.75 57.79, 152.26 63.42 C145.76 69.04, 135.03 75.21, 124.27 78.77 C113.5 82.33, 100.42 84.12, 87.67 84.77 C74.91 85.41, 59.47 85.16, 47.75 82.63 C36.03 80.1, 24.98 75.14, 17.34 69.58 C9.69 64.02, 4.03 55.65, 1.87 49.27 C-0.29 42.88, 0.73 37.18, 4.37 31.26 C8.01 25.34, 14.72 18.87, 23.72 13.75 C32.71 8.64, 52.51 2.18, 58.35 0.58 C64.19 -1.02, 58.55 3.01, 58.78 4.14" stroke="#1e1e1e" stroke-width="2" fill="none"></path></g><g transform="translate(1371.8806294610952 627.4479617995718) rotate(0 51.219947814941406 12.5)"><text x="51.219947814941406" y="17.52" font-family="Virgil, Segoe UI Emoji" font-size="20px" fill="#1e1e1e" text-anchor="middle" style="white-space: pre;" direction="ltr" dominant-baseline="alphabetic">comsumer2</text></g><g stroke-linecap="round" transform="translate(1266.0833333333335 472.5) rotate(0 284.25 125)"><path d="M32 0 C171.73 0.41, 312.74 -0.75, 536.5 0 M536.5 0 C556.93 0.99, 570.04 10.83, 568.5 32 M568.5 32 C570.37 100.86, 568.27 167.31, 568.5 218 M568.5 218 C568.94 240.74, 557.57 249.47, 536.5 250 M536.5 250 C356.85 250.1, 178.37 251.51, 32 250 M32 250 C10.72 248.36, -1.42 238.14, 0 218 M0 218 C1.03 162.12, 0.47 108.82, 0 32 M0 32 C1.94 10.88, 11.2 1.06, 32 0" stroke="#1e1e1e" stroke-width="2.5" fill="none" stroke-dasharray="8 10"></path></g><g transform="translate(1647.0833333333335 438.5) rotate(0 79.70992279052734 12.5)"><text x="0" y="17.52" font-family="Virgil, Segoe UI Emoji" font-size="20px" fill="#1e1e1e" text-anchor="start" style="white-space: pre;" direction="ltr" dominant-baseline="alphabetic">comsumerGroupB</text></g><g transform="translate(1489.4166463216147 512.75) rotate(0 118.369873046875 25)"><text x="0" y="17.52" font-family="Virgil, Segoe UI Emoji" font-size="20px" fill="#1971c2" text-anchor="start" style="white-space: pre;" direction="ltr" dominant-baseline="alphabetic">TopicA-Queue1-offset=3</text><text x="0" y="42.519999999999996" font-family="Virgil, Segoe UI Emoji" font-size="20px" fill="#1971c2" text-anchor="start" style="white-space: pre;" direction="ltr" dominant-baseline="alphabetic">TopicB-Queue1-offset=2</text></g><g transform="translate(1506.4166463216147 614.25) rotate(0 122.4698715209961 25)"><text x="0" y="17.52" font-family="Virgil, Segoe UI Emoji" font-size="20px" fill="#1971c2" text-anchor="start" style="white-space: pre;" direction="ltr" dominant-baseline="alphabetic">TopicA-queue-offset=4</text><text x="0" y="42.519999999999996" font-family="Virgil, Segoe UI Emoji" font-size="20px" fill="#1971c2" text-anchor="start" style="white-space: pre;" direction="ltr" dominant-baseline="alphabetic">TopicB-Queue2-offset=3</text></g><g stroke-linecap="round"><g transform="translate(1034.5 286.570658440156) rotate(0 149.57420242530725 133.22405109154707)"><path d="M-0.69 -1 C49.35 43.3, 249.15 221.29, 299.3 265.87 M1.14 1.09 C51.12 45.54, 248.62 222.65, 298.43 267.1" stroke="#1e1e1e" stroke-width="2" fill="none"></path></g><g transform="translate(1034.5 286.570658440156) rotate(0 149.57420242530725 133.22405109154707)"><path d="M275.22 257.81 C278.72 260.26, 284.57 263.85, 298.43 267.1 M275.22 257.81 C281.93 259.98, 289.16 263.32, 298.43 267.1" stroke="#1e1e1e" stroke-width="2" fill="none"></path></g><g transform="translate(1034.5 286.570658440156) rotate(0 149.57420242530725 133.22405109154707)"><path d="M286.63 245.06 C287.59 250.28, 290.91 256.7, 298.43 267.1 M286.63 245.06 C289.98 251.11, 293.79 258.27, 298.43 267.1" stroke="#1e1e1e" stroke-width="2" fill="none"></path></g></g><mask></mask><g stroke-linecap="round"><g transform="translate(1034.5 341.7621088119061) rotate(0 150.45063628252194 152.08331955754753)"><path d="M0.95 -0.84 C51.11 49.66, 250.38 252.83, 300.28 303.81 M-0.01 1.33 C50.6 51.94, 252.79 254.85, 302.66 305.16" stroke="#1e1e1e" stroke-width="2" fill="none"></path></g><g transform="translate(1034.5 341.7621088119061) rotate(0 150.45063628252194 152.08331955754753)"><path d="M280.03 294.53 C284.22 295.9, 290.56 298.55, 302.66 305.16 M280.03 294.53 C289.35 297.77, 296.72 303.16, 302.66 305.16" stroke="#1e1e1e" stroke-width="2" fill="none"></path></g><g transform="translate(1034.5 341.7621088119061) rotate(0 150.45063628252194 152.08331955754753)"><path d="M292.16 282.47 C293.47 286.89, 296.84 292.48, 302.66 305.16 M292.16 282.47 C296.94 290.13, 299.79 300.02, 302.66 305.16" stroke="#1e1e1e" stroke-width="2" fill="none"></path></g></g><mask></mask><g stroke-linecap="round"><g transform="translate(1562.938159196556 504.25) rotate(0 -416.719079598278 -147.91666666666669)"><path d="M0.94 0.18 C-92.71 -49.16, -423.8 -258.28, -562.84 -296.55 C-701.89 -334.82, -788.39 -240.61, -833.33 -229.41 M-0.03 -0.77 C-93.7 -49.93, -424.48 -257.41, -563.48 -295.39 C-702.48 -333.37, -789.33 -239.76, -834.03 -228.66" stroke="#1971c2" stroke-width="2" fill="none"></path></g><g transform="translate(1562.938159196556 504.25) rotate(0 -416.719079598278 -147.91666666666669)"><path d="M-817 -246.95 C-820.54 -241.78, -825.81 -238.53, -834.03 -228.66 M-817 -246.95 C-819.57 -242.54, -824.3 -239.16, -834.03 -228.66" stroke="#1971c2" stroke-width="2" fill="none"></path></g><g transform="translate(1562.938159196556 504.25) rotate(0 -416.719079598278 -147.91666666666669)"><path d="M-809.22 -231.72 C-814.42 -229.86, -821.42 -229.98, -834.03 -228.66 M-809.22 -231.72 C-813.55 -230.58, -819.92 -230.4, -834.03 -228.66" stroke="#1971c2" stroke-width="2" fill="none"></path></g></g><mask></mask><g stroke-linecap="round"><g transform="translate(1528.8092344421757 609.25) rotate(0 -493.40461722108785 -116.66666666666669)"><path d="M-1.05 0.79 C-129.18 -16.92, -603.18 -67.76, -767.62 -106.71 C-932.07 -145.67, -951.27 -211.93, -987.72 -232.95 M0.61 0.16 C-127.25 -17.39, -601.02 -66.43, -765.34 -105.64 C-929.66 -144.84, -948.55 -213.51, -985.3 -235.08" stroke="#1971c2" stroke-width="2" fill="none"></path></g><g transform="translate(1528.8092344421757 609.25) rotate(0 -493.40461722108785 -116.66666666666669)"><path d="M-962.23 -225.47 C-970.03 -230.84, -981.97 -234.82, -985.3 -235.08 M-962.23 -225.47 C-969.75 -229.14, -978.59 -231.12, -985.3 -235.08" stroke="#1971c2" stroke-width="2" fill="none"></path></g><g transform="translate(1528.8092344421757 609.25) rotate(0 -493.40461722108785 -116.66666666666669)"><path d="M-973.81 -212.88 C-976.97 -223.15, -984.32 -232.12, -985.3 -235.08 M-973.81 -212.88 C-977.54 -220.79, -982.52 -226.95, -985.3 -235.08" stroke="#1971c2" stroke-width="2" fill="none"></path></g></g><mask></mask><g stroke-linecap="round"><g transform="translate(1034.5 692.4258935437732) rotate(0 153.90481317774072 -64.99731541779943)"><path d="M-0.13 -0.56 C51.3 -22.3, 257.15 -109.53, 308.31 -131.03 M-1.66 1.75 C49.68 -19.82, 255.81 -107.79, 307.63 -130.04" stroke="#1e1e1e" stroke-width="2" fill="none"></path></g><g transform="translate(1034.5 692.4258935437732) rotate(0 153.90481317774072 -64.99731541779943)"><path d="M289.39 -112.94 C293.61 -116.83, 297.9 -124.05, 307.63 -130.04 M289.39 -112.94 C295.3 -119.01, 302.36 -124.96, 307.63 -130.04" stroke="#1e1e1e" stroke-width="2" fill="none"></path></g><g transform="translate(1034.5 692.4258935437732) rotate(0 153.90481317774072 -64.99731541779943)"><path d="M282.67 -128.66 C288.68 -128.18, 294.83 -131.02, 307.63 -130.04 M282.67 -128.66 C290.91 -129.53, 300.21 -130.24, 307.63 -130.04" stroke="#1e1e1e" stroke-width="2" fill="none"></path></g></g><mask></mask><g stroke-linecap="round"><g transform="translate(1032 745.677219382654) rotate(0 157.1731183757836 -42.25335588308417)"><path d="M-0.95 0.6 C51.64 -13.62, 261.66 -71.49, 314.34 -85.63 M0.76 -0.12 C53.29 -14.21, 261.06 -70.91, 313.39 -84.69" stroke="#1e1e1e" stroke-width="2" fill="none"></path></g><g transform="translate(1032 745.677219382654) rotate(0 157.1731183757836 -42.25335588308417)"><path d="M292.92 -70.33 C298.1 -73.08, 299.35 -74.66, 313.39 -84.69 M292.92 -70.33 C298.56 -75.38, 307.01 -78.9, 313.39 -84.69" stroke="#1e1e1e" stroke-width="2" fill="none"></path></g><g transform="translate(1032 745.677219382654) rotate(0 157.1731183757836 -42.25335588308417)"><path d="M288.49 -86.85 C294.52 -86.22, 296.66 -84.47, 313.39 -84.69 M288.49 -86.85 C295.5 -86.58, 305.38 -84.79, 313.39 -84.69" stroke="#1e1e1e" stroke-width="2" fill="none"></path></g></g><mask></mask><g stroke-linecap="round"><g transform="translate(1036.1666666666665 687.5845924812487) rotate(0 158.25421997478588 -278.77877816665233)"><path d="M1.18 0.92 C54.3 -91.94, 265.11 -463.93, 317.67 -557.11 M0.35 0.36 C53.5 -92.87, 264.76 -466.08, 317.33 -559" stroke="#1e1e1e" stroke-width="2" fill="none"></path></g><g transform="translate(1036.1666666666665 687.5845924812487) rotate(0 158.25421997478588 -278.77877816665233)"><path d="M313.2 -534.34 C315.61 -537.73, 315.7 -544.89, 317.33 -559 M313.2 -534.34 C314.97 -541.36, 314.3 -547.14, 317.33 -559" stroke="#1e1e1e" stroke-width="2" fill="none"></path></g><g transform="translate(1036.1666666666665 687.5845924812487) rotate(0 158.25421997478588 -278.77877816665233)"><path d="M298.32 -542.77 C303.93 -544.5, 307.21 -549.85, 317.33 -559 M298.32 -542.77 C303.82 -547.77, 306.87 -551.44, 317.33 -559" stroke="#1e1e1e" stroke-width="2" fill="none"></path></g></g><mask></mask><g stroke-linecap="round"><g transform="translate(1033.6666666666665 742.7435837803579) rotate(0 166.67759792496463 -250.28384276333122)"><path d="M-0.71 -0.34 C54.82 -83.74, 277.06 -418.28, 332.85 -501.52 M1.12 -1.57 C56.48 -84.74, 276.23 -417.13, 331.63 -500.49" stroke="#1e1e1e" stroke-width="2" fill="none"></path></g><g transform="translate(1033.6666666666665 742.7435837803579) rotate(0 166.67759792496463 -250.28384276333122)"><path d="M325.78 -476.18 C327.04 -483.64, 327.62 -488.38, 331.63 -500.49 M325.78 -476.18 C328.69 -485.18, 330.36 -492.98, 331.63 -500.49" stroke="#1e1e1e" stroke-width="2" fill="none"></path></g><g transform="translate(1033.6666666666665 742.7435837803579) rotate(0 166.67759792496463 -250.28384276333122)"><path d="M311.53 -485.63 C316.59 -490.42, 321.06 -492.58, 331.63 -500.49 M311.53 -485.63 C319.55 -491.08, 326.42 -495.43, 331.63 -500.49" stroke="#1e1e1e" stroke-width="2" fill="none"></path></g></g><mask></mask><g stroke-linecap="round"><g transform="translate(1616.2010062746658 149.25) rotate(0 -304.6005031373329 260.8333333333333)"><path d="M-0.09 -0.91 C-70.33 52.41, -318.85 232.29, -420.37 319.44 C-521.89 406.6, -577.69 488.5, -609.22 522.03 M-1.6 1.23 C-71.58 54.21, -316.87 231.02, -418.27 317.46 C-519.67 403.9, -578.13 485.93, -609.99 519.87" stroke="#2f9e44" stroke-width="2" fill="none"></path></g><g transform="translate(1616.2010062746658 149.25) rotate(0 -304.6005031373329 260.8333333333333)"><path d="M-601.2 496.47 C-606.22 503.64, -607.68 514.68, -609.99 519.87 M-601.2 496.47 C-604.72 504.72, -606.42 512.37, -609.99 519.87" stroke="#2f9e44" stroke-width="2" fill="none"></path></g><g transform="translate(1616.2010062746658 149.25) rotate(0 -304.6005031373329 260.8333333333333)"><path d="M-588.21 507.6 C-598.26 510.42, -604.78 517.12, -609.99 519.87 M-588.21 507.6 C-595.99 512.06, -601.98 516.03, -609.99 519.87" stroke="#2f9e44" stroke-width="2" fill="none"></path></g></g><mask></mask><g stroke-linecap="round"><g transform="translate(1644.6055849050801 256.75) rotate(0 -388.8027924525401 254.58333333333331)"><path d="M0.95 0.5 C-67.59 56.57, -280.18 252.6, -410.14 337.33 C-540.1 422.05, -717.69 480.22, -778.8 508.86 M-0.01 -0.29 C-68.81 55.36, -281.68 250.5, -411.1 335.55 C-540.52 420.6, -715.7 480.9, -776.54 510.01" stroke="#2f9e44" stroke-width="2" fill="none"></path></g><g transform="translate(1644.6055849050801 256.75) rotate(0 -388.8027924525401 254.58333333333331)"><path d="M-758.24 492.97 C-764.49 499.77, -771.42 504.55, -776.54 510.01 M-758.24 492.97 C-763.7 497.38, -768.29 502.41, -776.54 510.01" stroke="#2f9e44" stroke-width="2" fill="none"></path></g><g transform="translate(1644.6055849050801 256.75) rotate(0 -388.8027924525401 254.58333333333331)"><path d="M-751.57 508.72 C-760.56 509.37, -770.13 507.94, -776.54 510.01 M-751.57 508.72 C-758.96 508.81, -765.38 509.52, -776.54 510.01" stroke="#2f9e44" stroke-width="2" fill="none"></path></g></g><mask></mask><g stroke-linecap="round"><g transform="translate(1550.3946114046535 566.75) rotate(0 -337.94730570232673 53.333333333333314)"><path d="M-0.25 -0.73 C-97.77 8.11, -471.52 36.36, -584.26 54.14 C-697 71.92, -661.6 97.34, -676.7 105.95 M1.83 1.5 C-95.4 11.05, -469.33 38.09, -582 55.66 C-694.68 73.22, -658.88 98.42, -674.23 106.9" stroke="#1971c2" stroke-width="2" fill="none"></path></g><g transform="translate(1550.3946114046535 566.75) rotate(0 -337.94730570232673 53.333333333333314)"><path d="M-671.98 82 C-673.8 89.88, -673.48 99.3, -674.23 106.9 M-671.98 82 C-671.42 87.29, -673.72 93.11, -674.23 106.9" stroke="#1971c2" stroke-width="2" fill="none"></path></g><g transform="translate(1550.3946114046535 566.75) rotate(0 -337.94730570232673 53.333333333333314)"><path d="M-656.5 89.27 C-664.19 94.4, -669.67 101.1, -674.23 106.9 M-656.5 89.27 C-659.73 92.71, -665.75 96.77, -674.23 106.9" stroke="#1971c2" stroke-width="2" fill="none"></path></g></g><mask></mask><g stroke-linecap="round"><g transform="translate(1685.508328000859 666.75) rotate(0 -486.75416400042945 95.83333333333331)"><path d="M0.73 -0.65 C-108.82 31.41, -495.87 174.14, -658.34 191.33 C-820.81 208.52, -921.77 117.29, -974.1 102.51 M-0.34 1.63 C-109.94 33.95, -496.73 176.19, -659.2 192.69 C-821.67 209.19, -922.52 115.96, -975.17 100.61" stroke="#1971c2" stroke-width="2" fill="none"></path></g><g transform="translate(1685.508328000859 666.75) rotate(0 -486.75416400042945 95.83333333333331)"><path d="M-950.31 103.27 C-956.65 103.14, -961.41 101.31, -975.17 100.61 M-950.31 103.27 C-959.15 102.96, -969.53 101.02, -975.17 100.61" stroke="#1971c2" stroke-width="2" fill="none"></path></g><g transform="translate(1685.508328000859 666.75) rotate(0 -486.75416400042945 95.83333333333331)"><path d="M-957.84 118.63 C-962.44 115.18, -965.61 110.1, -975.17 100.61 M-957.84 118.63 C-964.04 112.57, -971.64 104.95, -975.17 100.61" stroke="#1971c2" stroke-width="2" fill="none"></path></g></g><mask></mask><g stroke-linecap="round" transform="translate(1358.5833333333337 921.8214387439543) rotate(0 75 38.00000000000006)"><path d="M60.38 1.13 C71.13 -0.52, 85.27 -0.78, 96.44 0.97 C107.61 2.72, 119.01 7.35, 127.37 11.63 C135.74 15.91, 143.16 21.18, 146.63 26.67 C150.11 32.16, 150.31 38.74, 148.23 44.58 C146.14 50.43, 141.2 57.1, 134.12 61.74 C127.05 66.37, 116.17 70.07, 105.77 72.39 C95.38 74.72, 83.1 75.86, 71.77 75.67 C60.44 75.48, 47.9 74.26, 37.8 71.26 C27.69 68.26, 17.38 62.71, 11.14 57.68 C4.9 52.65, 1.16 46.91, 0.35 41.09 C-0.47 35.26, 1.5 28.06, 6.25 22.74 C10.99 17.41, 18.9 12.8, 28.8 9.13 C38.7 5.46, 58.2 1.97, 65.63 0.74 C73.06 -0.49, 73.24 1.12, 73.38 1.77 M47.67 3.82 C57.62 1.08, 70.77 -1.17, 82.37 -0.64 C93.96 -0.1, 107.69 3.43, 117.25 7.05 C126.8 10.68, 134.03 16.07, 139.71 21.1 C145.39 26.12, 151.15 31.74, 151.31 37.21 C151.46 42.68, 146.36 48.53, 140.63 53.94 C134.9 59.35, 126.32 66.14, 116.94 69.69 C107.57 73.25, 95.57 74.44, 84.39 75.28 C73.22 76.12, 60.62 76.9, 49.9 74.74 C39.19 72.58, 27.99 66.7, 20.08 62.31 C12.18 57.92, 5.39 53.84, 2.49 48.41 C-0.41 42.99, 0.18 35.4, 2.68 29.76 C5.19 24.13, 9.84 19.33, 17.51 14.61 C25.18 9.88, 43.64 3.14, 48.69 1.4 C53.73 -0.33, 47.73 3.3, 47.77 4.19" stroke="#1e1e1e" stroke-width="2" fill="none"></path></g><g transform="translate(1386.7403729621162 947.4513810588655) rotate(0 46.80995178222656 12.5)"><text x="46.80995178222656" y="17.52" font-family="Virgil, Segoe UI Emoji" font-size="20px" fill="#1e1e1e" text-anchor="middle" style="white-space: pre;" direction="ltr" dominant-baseline="alphabetic">comsumer1</text></g><g stroke-linecap="round" transform="translate(1288.5833333333337 886.488095238095) rotate(0 284.25 76.66666666666669)"><path d="M32 0 C205.36 1.9, 379.14 1.55, 536.5 0 M536.5 0 C556.48 0.21, 567.75 11.87, 568.5 32 M568.5 32 C567.85 54.58, 569.51 73.21, 568.5 121.33 M568.5 121.33 C567.89 142.99, 558.67 153.22, 536.5 153.33 M536.5 153.33 C385.08 155.37, 235.88 155.76, 32 153.33 M32 153.33 C8.84 154.54, -1.5 141.01, 0 121.33 M0 121.33 C-1.05 92.64, 0.49 67.03, 0 32 M0 32 C-1.66 12.25, 12.42 -0.4, 32 0" stroke="#1e1e1e" stroke-width="2.5" fill="none" stroke-dasharray="8 10"></path></g><g transform="translate(1669.5833333333337 852.488095238095) rotate(0 78.87992095947266 12.5)"><text x="0" y="17.52" font-family="Virgil, Segoe UI Emoji" font-size="20px" fill="#1e1e1e" text-anchor="start" style="white-space: pre;" direction="ltr" dominant-baseline="alphabetic">comsumerGroupC</text></g><g transform="translate(1525.2499796549482 936.738095238095) rotate(0 122.77986907958984 25)"><text x="0" y="17.52" font-family="Virgil, Segoe UI Emoji" font-size="20px" fill="#e03131" text-anchor="start" style="white-space: pre;" direction="ltr" dominant-baseline="alphabetic">TopicB-Queue1-offset=3</text><text x="0" y="42.519999999999996" font-family="Virgil, Segoe UI Emoji" font-size="20px" fill="#e03131" text-anchor="start" style="white-space: pre;" direction="ltr" dominant-baseline="alphabetic">TopicB-Queue2-offset=2</text></g><g stroke-linecap="round"><g transform="translate(1636.7189759824018 931.1547619047616) rotate(0 -453.6094879912007 -164.99999999999994)"><path d="M0.25 0.33 C-100.96 -54.74, -456.19 -286.74, -607.27 -330.09 C-758.34 -373.45, -856.21 -271.57, -906.19 -259.79 M-1.07 -0.54 C-102.46 -55.45, -457.35 -285.63, -608.24 -328.6 C-759.13 -371.58, -856.65 -269.52, -906.41 -258.36" stroke="#e03131" stroke-width="2" fill="none"></path></g><g transform="translate(1636.7189759824018 931.1547619047616) rotate(0 -453.6094879912007 -164.99999999999994)"><path d="M-889.05 -276.35 C-893.72 -270.93, -899.69 -263.68, -906.41 -258.36 M-889.05 -276.35 C-895.09 -271.42, -900.42 -264.03, -906.41 -258.36" stroke="#e03131" stroke-width="2" fill="none"></path></g><g transform="translate(1636.7189759824018 931.1547619047616) rotate(0 -453.6094879912007 -164.99999999999994)"><path d="M-881.55 -260.98 C-888.54 -260.21, -896.79 -257.62, -906.41 -258.36 M-881.55 -260.98 C-889.98 -260.89, -897.69 -258.38, -906.41 -258.36" stroke="#e03131" stroke-width="2" fill="none"></path></g></g><mask></mask><g stroke-linecap="round"><g transform="translate(1520.8333129882822 960.272301751569) rotate(0 -343.9999898274741 -92.89210325673702)"><path d="M-0.62 -0.36 C-87.5 -20.94, -405.82 -92.19, -520.19 -123.29 C-634.56 -154.38, -658.84 -176.39, -686.85 -186.91 M1.25 -1.59 C-85.77 -22.06, -405.82 -91.42, -520.53 -122.19 C-635.24 -152.95, -659.08 -175.61, -687.01 -186.19" stroke="#e03131" stroke-width="2" fill="none"></path></g><g transform="translate(1520.8333129882822 960.272301751569) rotate(0 -343.9999898274741 -92.89210325673702)"><path d="M-662.12 -183.8 C-672.34 -182.94, -682.76 -183.85, -687.01 -186.19 M-662.12 -183.8 C-667.64 -184.54, -672.15 -185.07, -687.01 -186.19" stroke="#e03131" stroke-width="2" fill="none"></path></g><g transform="translate(1520.8333129882822 960.272301751569) rotate(0 -343.9999898274741 -92.89210325673702)"><path d="M-669.48 -168.36 C-676.88 -173.43, -684.45 -180.31, -687.01 -186.19 M-669.48 -168.36 C-673.45 -172.25, -676.45 -175.95, -687.01 -186.19" stroke="#e03131" stroke-width="2" fill="none"></path></g></g><mask></mask><g stroke-linecap="round"><g transform="translate(1036.1666666666672 704.4880952380952) rotate(0 158.33333333333326 118.33333333333326)"><path d="M0.01 -0.36 C52.55 39.13, 262.99 198.34, 315.81 237.79 M-1.45 -1.59 C51.42 37.51, 265.11 196.4, 318.07 236.26" stroke="#1e1e1e" stroke-width="2" fill="none"></path></g><g transform="translate(1036.1666666666672 704.4880952380952) rotate(0 158.33333333333326 118.33333333333326)"><path d="M294.13 229.05 C301.9 230.11, 312.68 234.46, 318.07 236.26 M294.13 229.05 C300.48 231.1, 306.96 232.23, 318.07 236.26" stroke="#1e1e1e" stroke-width="2" fill="none"></path></g><g transform="translate(1036.1666666666672 704.4880952380952) rotate(0 158.33333333333326 118.33333333333326)"><path d="M304.37 215.35 C308.69 221.17, 315.91 230.27, 318.07 236.26 M304.37 215.35 C307.87 221.22, 311.54 226.12, 318.07 236.26" stroke="#1e1e1e" stroke-width="2" fill="none"></path></g></g><mask></mask><g stroke-linecap="round"><g transform="translate(1036.1666666666672 754.4880952380951) rotate(0 159.9999999999999 100.00000000000006)"><path d="M0.58 -0.54 C53.76 32.89, 266.41 166.97, 319.81 200.58 M-0.58 1.8 C52.37 34.86, 265.22 165.83, 318.76 198.76" stroke="#1e1e1e" stroke-width="2" fill="none"></path></g><g transform="translate(1036.1666666666672 754.4880952380951) rotate(0 159.9999999999999 100.00000000000006)"><path d="M294.28 193.73 C302.18 195.11, 312.84 198.85, 318.76 198.76 M294.28 193.73 C303.79 195.07, 312.71 197.51, 318.76 198.76" stroke="#1e1e1e" stroke-width="2" fill="none"></path></g><g transform="translate(1036.1666666666672 754.4880952380951) rotate(0 159.9999999999999 100.00000000000006)"><path d="M303.24 179.17 C307.93 185.82, 315.37 194.79, 318.76 198.76 M303.24 179.17 C309.21 186.21, 314.58 194.41, 318.76 198.76" stroke="#1e1e1e" stroke-width="2" fill="none"></path></g></g><mask></mask></svg>