<svg version="1.1" xmlns="http://www.w3.org/2000/svg" viewBox="0 0 2693.333333333333 1113.587154969144" width="2693.333333333333" height="1113.587154969144">
  <!-- svg-source:excalidraw -->
  
  <defs>
    <style class="style-fonts">
      @font-face {
        font-family: "Virgil";
        src: url("https://excalidraw.com/Virgil.woff2");
      }
      @font-face {
        font-family: "Cascadia";
        src: url("https://excalidraw.com/Cascadia.woff2");
      }
      @font-face {
        font-family: "Assistant";
        src: url("https://excalidraw.com/Assistant-Regular.woff2");
      }
    </style>
    
  </defs>
  <rect x="0" y="0" width="2693.333333333333" height="1113.587154969144" fill="#ffffff"></rect><g stroke-linecap="round" transform="translate(1461.6666666666665 626.087154969144) rotate(0 259 19)"><path d="M9.5 0 C179.63 -0.34, 349.85 0.12, 508.5 0 M9.5 0 C180.44 1.81, 350.7 1.9, 508.5 0 M508.5 0 C515.28 0.55, 517.89 2.44, 518 9.5 M508.5 0 C514.45 -1.6, 516.64 4.97, 518 9.5 M518 9.5 C517.64 15.57, 518.02 22.52, 518 28.5 M518 9.5 C518.75 14.03, 518.53 18.87, 518 28.5 M518 28.5 C517.69 35.13, 513.45 39.24, 508.5 38 M518 28.5 C517.3 33.36, 512.93 38.73, 508.5 38 M508.5 38 C388.76 36.83, 269.64 37.25, 9.5 38 M508.5 38 C405.57 39.95, 302.92 40.2, 9.5 38 M9.5 38 C3.28 39.34, -0.59 36.51, 0 28.5 M9.5 38 C3.95 40.22, -1.84 34.85, 0 28.5 M0 28.5 C0.34 21.04, -0.45 17.64, 0 9.5 M0 28.5 C-0.44 24.38, -0.62 19.53, 0 9.5 M0 9.5 C-1.19 3.85, 3.25 1.57, 9.5 0 M0 9.5 C-0.39 4.99, 2.09 2.08, 9.5 0" stroke="#1e1e1e" stroke-width="2" fill="none"></path></g><g transform="translate(1683.6466929117837 632.587154969144) rotate(0 37.01997375488281 12.5)"><text x="37.01997375488281" y="17.52" font-family="Virgil, Segoe UI Emoji" font-size="20px" fill="#1e1e1e" text-anchor="middle" style="white-space: pre;" direction="ltr" dominant-baseline="alphabetic">id: 1,......</text></g><g stroke-linecap="round" transform="translate(1460.6666666666665 667.087154969144) rotate(0 259 19)"><path d="M9.5 0 C202.94 0.67, 395.71 -0.15, 508.5 0 M9.5 0 C191.64 -0.94, 373.7 -1.34, 508.5 0 M508.5 0 C515.74 1.22, 518.48 4.52, 518 9.5 M508.5 0 C514.52 2.07, 516.58 3.86, 518 9.5 M518 9.5 C518.08 16.48, 517.2 23.57, 518 28.5 M518 9.5 C518.65 15.73, 517.87 22.59, 518 28.5 M518 28.5 C516.34 33.5, 516.14 38.96, 508.5 38 M518 28.5 C517.5 34.75, 514.41 38.03, 508.5 38 M508.5 38 C406.8 37.53, 303.56 38.17, 9.5 38 M508.5 38 C316.75 38.97, 125.32 39.2, 9.5 38 M9.5 38 C4.24 38.63, -0.17 33.94, 0 28.5 M9.5 38 C4.85 39.81, 0.02 34.6, 0 28.5 M0 28.5 C-0.42 23.63, 0.95 18.13, 0 9.5 M0 28.5 C0.47 21.55, -0.34 13.26, 0 9.5 M0 9.5 C1.18 4.26, 4.78 -1.42, 9.5 0 M0 9.5 C0.99 3.14, 4.99 1.41, 9.5 0" stroke="#1e1e1e" stroke-width="2" fill="none"></path></g><g transform="translate(1678.2366968790689 673.587154969144) rotate(0 41.429969787597656 12.5)"><text x="41.429969787597656" y="17.52" font-family="Virgil, Segoe UI Emoji" font-size="20px" fill="#1e1e1e" text-anchor="middle" style="white-space: pre;" direction="ltr" dominant-baseline="alphabetic">id: 2,......</text></g><g stroke-linecap="round" transform="translate(1460.6666666666665 707.087154969144) rotate(0 259 19)"><path d="M9.5 0 C191.91 -0.76, 373.61 -1.38, 508.5 0 M9.5 0 C111.13 -1.95, 212.44 -1.56, 508.5 0 M508.5 0 C515.59 -1.02, 519.36 1.84, 518 9.5 M508.5 0 C515.25 -0.26, 516.06 4.11, 518 9.5 M518 9.5 C519.66 13.89, 519.52 17.34, 518 28.5 M518 9.5 C518.93 17.34, 518.91 23.55, 518 28.5 M518 28.5 C517.79 32.93, 516.12 36.32, 508.5 38 M518 28.5 C519.94 33.15, 513.1 38.65, 508.5 38 M508.5 38 C382.05 39.09, 255.99 37.85, 9.5 38 M508.5 38 C369.76 37.75, 230.94 38.28, 9.5 38 M9.5 38 C2.33 36.85, -1.07 35.66, 0 28.5 M9.5 38 C3.87 36.82, -0.6 34.27, 0 28.5 M0 28.5 C-1.04 22.28, -0.89 17.77, 0 9.5 M0 28.5 C0.49 22.29, -0.73 16.16, 0 9.5 M0 9.5 C-1.38 2.93, 4.55 0.07, 9.5 0 M0 9.5 C1.34 1.68, 3.06 -0.7, 9.5 0" stroke="#1e1e1e" stroke-width="2" fill="none"></path></g><g transform="translate(1678.5466944376626 713.587154969144) rotate(0 41.119972229003906 12.5)"><text x="41.119972229003906" y="17.52" font-family="Virgil, Segoe UI Emoji" font-size="20px" fill="#1e1e1e" text-anchor="middle" style="white-space: pre;" direction="ltr" dominant-baseline="alphabetic">id: 3,......</text></g><g stroke-linecap="round" transform="translate(1461.1666666666665 746.587154969144) rotate(0 259 19)"><path d="M9.5 0 C206 0.84, 403.83 0.63, 508.5 0 M9.5 0 C166.73 -1.26, 324.57 -1.76, 508.5 0 M508.5 0 C516.14 1.57, 516.88 3.89, 518 9.5 M508.5 0 C514.83 2.11, 518.63 1.52, 518 9.5 M518 9.5 C517.97 13.26, 519.75 17.27, 518 28.5 M518 9.5 C519.03 16.22, 519.03 24.77, 518 28.5 M518 28.5 C518.56 35.72, 514.69 36.23, 508.5 38 M518 28.5 C516.35 33.39, 513.37 36.59, 508.5 38 M508.5 38 C365.35 38.61, 224.19 38.81, 9.5 38 M508.5 38 C380.48 36.72, 251.62 36.82, 9.5 38 M9.5 38 C2.73 39.9, -1.94 33.55, 0 28.5 M9.5 38 C4.38 39.92, 2.16 33.24, 0 28.5 M0 28.5 C-1.29 23.65, 1.54 18.22, 0 9.5 M0 28.5 C0.43 24.21, 0.22 21.37, 0 9.5 M0 9.5 C-0.91 5.16, 4.67 -1.33, 9.5 0 M0 9.5 C-1.02 2.9, 5.02 1.81, 9.5 0" stroke="#1e1e1e" stroke-width="2" fill="none"></path></g><g transform="translate(1679.456698099772 753.087154969144) rotate(0 40.70996856689453 12.5)"><text x="40.70996856689453" y="17.52" font-family="Virgil, Segoe UI Emoji" font-size="20px" fill="#1e1e1e" text-anchor="middle" style="white-space: pre;" direction="ltr" dominant-baseline="alphabetic">id: 4,......</text></g><g stroke-linecap="round" transform="translate(1460.1666666666665 787.587154969144) rotate(0 259 19)"><path d="M9.5 0 C197.18 -1.35, 385.27 -1.78, 508.5 0 M9.5 0 C205.68 0.95, 401.12 0.77, 508.5 0 M508.5 0 C514.83 1.84, 518.55 1.73, 518 9.5 M508.5 0 C512.96 1.22, 517.26 3.01, 518 9.5 M518 9.5 C519.7 16.44, 516.65 21.85, 518 28.5 M518 9.5 C518.44 14.59, 518.11 17.99, 518 28.5 M518 28.5 C516.56 33.58, 513.56 36.78, 508.5 38 M518 28.5 C517.66 36.85, 515.16 35.85, 508.5 38 M508.5 38 C338.27 39.16, 168.15 39.92, 9.5 38 M508.5 38 C340.29 39.61, 171.86 38.98, 9.5 38 M9.5 38 C4.22 39.67, 1.88 33.45, 0 28.5 M9.5 38 C1.46 37.03, -0.25 33.17, 0 28.5 M0 28.5 C-1.81 21.61, -0.1 18.73, 0 9.5 M0 28.5 C-0.44 24.27, 0.71 17.52, 0 9.5 M0 9.5 C-0.89 2.94, 4.78 1.57, 9.5 0 M0 9.5 C-1.4 4, 1.52 -2.13, 9.5 0" stroke="#1e1e1e" stroke-width="2" fill="none"></path></g><g transform="translate(1678.676699320475 794.087154969144) rotate(0 40.489967346191406 12.5)"><text x="40.489967346191406" y="17.52" font-family="Virgil, Segoe UI Emoji" font-size="20px" fill="#1e1e1e" text-anchor="middle" style="white-space: pre;" direction="ltr" dominant-baseline="alphabetic">id: 5,......</text></g><g stroke-linecap="round" transform="translate(1460.1666666666665 827.587154969144) rotate(0 259 19)"><path d="M9.5 0 C138.69 1.6, 266.13 2.46, 508.5 0 M9.5 0 C198.44 -0.35, 387.49 -1.01, 508.5 0 M508.5 0 C513.21 1.06, 517.36 3.03, 518 9.5 M508.5 0 C514.35 2, 517.35 5.03, 518 9.5 M518 9.5 C516.82 18.57, 519.45 24.71, 518 28.5 M518 9.5 C517.3 15.45, 517.38 22.01, 518 28.5 M518 28.5 C517.71 36.59, 515.12 36.13, 508.5 38 M518 28.5 C518.93 36.25, 516.34 37.01, 508.5 38 M508.5 38 C368.59 39.05, 228.57 39.35, 9.5 38 M508.5 38 C311.64 37.05, 114.73 36.44, 9.5 38 M9.5 38 C1.68 37.16, -0.22 33.39, 0 28.5 M9.5 38 C2.49 39.77, -2.06 32.81, 0 28.5 M0 28.5 C-0.53 24.64, 1.87 19.74, 0 9.5 M0 28.5 C-0.57 20.8, 0.62 14.06, 0 9.5 M0 9.5 C-1.22 3.89, 1.73 -1.85, 9.5 0 M0 9.5 C1.42 1.88, 4.85 -0.04, 9.5 0" stroke="#1e1e1e" stroke-width="2" fill="none"></path></g><g transform="translate(1678.456698099772 834.087154969144) rotate(0 40.70996856689453 12.5)"><text x="40.70996856689453" y="17.52" font-family="Virgil, Segoe UI Emoji" font-size="20px" fill="#1e1e1e" text-anchor="middle" style="white-space: pre;" direction="ltr" dominant-baseline="alphabetic">id: 6,......</text></g><g stroke-linecap="round" transform="translate(1461.1666666666665 868.587154969144) rotate(0 259 19)"><path d="M9.5 0 C181.39 -0.11, 354.23 -0.27, 508.5 0 M9.5 0 C148 -1.55, 285.84 -1.45, 508.5 0 M508.5 0 C514.97 0.95, 517.8 4.53, 518 9.5 M508.5 0 C515.34 0.72, 516.27 3.76, 518 9.5 M518 9.5 C517.33 18.39, 519.91 23.9, 518 28.5 M518 9.5 C518.22 17.07, 518.71 22.59, 518 28.5 M518 28.5 C518.97 35.74, 513.05 39.32, 508.5 38 M518 28.5 C520.22 35.5, 513.35 36.27, 508.5 38 M508.5 38 C338.76 40.5, 169.17 39.66, 9.5 38 M508.5 38 C404.12 39.64, 299.09 39.9, 9.5 38 M9.5 38 C4.14 38.2, 0.53 35.47, 0 28.5 M9.5 38 C3.46 37.74, 2.07 35.47, 0 28.5 M0 28.5 C-1.21 24.64, -0.12 20.39, 0 9.5 M0 28.5 C-0.91 24, 0.18 19.89, 0 9.5 M0 9.5 C0.7 3.13, 5.02 0.57, 9.5 0 M0 9.5 C-1.46 3.09, 4.21 1.47, 9.5 0" stroke="#1e1e1e" stroke-width="2" fill="none"></path></g><g transform="translate(1680.4766947428384 875.087154969144) rotate(0 39.689971923828125 12.5)"><text x="39.689971923828125" y="17.52" font-family="Virgil, Segoe UI Emoji" font-size="20px" fill="#1e1e1e" text-anchor="middle" style="white-space: pre;" direction="ltr" dominant-baseline="alphabetic">id: 7,......</text></g><g stroke-linecap="round" transform="translate(1460.1666666666665 909.587154969144) rotate(0 259 19)"><path d="M9.5 0 C130.37 0.84, 252.28 2.25, 508.5 0 M9.5 0 C172.9 -0.84, 336.21 -0.76, 508.5 0 M508.5 0 C515.27 0.63, 516.5 3.68, 518 9.5 M508.5 0 C516.47 0.44, 517.47 2.31, 518 9.5 M518 9.5 C519.43 17.9, 518.27 24.86, 518 28.5 M518 9.5 C518.59 16.89, 517.28 24.04, 518 28.5 M518 28.5 C519.93 35.41, 513.54 36.5, 508.5 38 M518 28.5 C518.93 34.63, 517.1 38.39, 508.5 38 M508.5 38 C325.3 37.71, 144.18 37.94, 9.5 38 M508.5 38 C348.99 39.73, 189.19 39.82, 9.5 38 M9.5 38 C3.42 37.77, 1.8 35.39, 0 28.5 M9.5 38 C2.12 35.99, -2.13 33.16, 0 28.5 M0 28.5 C-1.26 23.42, 1.09 13.66, 0 9.5 M0 28.5 C0.27 22.96, 0.81 17.73, 0 9.5 M0 9.5 C-1.27 3.1, 4.08 1.28, 9.5 0 M0 9.5 C0.97 2.6, 5.17 -0.76, 9.5 0" stroke="#1e1e1e" stroke-width="2" fill="none"></path></g><g transform="translate(1677.206698099772 916.087154969144) rotate(0 41.95996856689453 12.5)"><text x="41.95996856689453" y="17.52" font-family="Virgil, Segoe UI Emoji" font-size="20px" fill="#1e1e1e" text-anchor="middle" style="white-space: pre;" direction="ltr" dominant-baseline="alphabetic">id: 8,......</text></g><g stroke-linecap="round" transform="translate(1460.1666666666665 949.587154969144) rotate(0 259 19)"><path d="M9.5 0 C114.84 -1.67, 220.15 -1.66, 508.5 0 M9.5 0 C183.04 -1.24, 356.11 -1.27, 508.5 0 M508.5 0 C516.25 0.38, 517.54 2.42, 518 9.5 M508.5 0 C517.06 2.27, 518.37 4.67, 518 9.5 M518 9.5 C519.26 17.32, 516.43 23.55, 518 28.5 M518 9.5 C518.75 16.33, 517.22 21.9, 518 28.5 M518 28.5 C518.81 34.65, 516.8 38.34, 508.5 38 M518 28.5 C519.51 36.02, 513.94 35.93, 508.5 38 M508.5 38 C328.84 39.91, 149.54 40.17, 9.5 38 M508.5 38 C353.96 38.59, 199.69 38.75, 9.5 38 M9.5 38 C2.26 36.25, -1.85 33.38, 0 28.5 M9.5 38 C4.35 37.66, 1.89 33.27, 0 28.5 M0 28.5 C-0.28 21.88, 0.32 14.58, 0 9.5 M0 28.5 C-0.78 22.81, 0.26 17.78, 0 9.5 M0 9.5 C0.85 2.68, 4.91 -0.66, 9.5 0 M0 9.5 C1.65 4.8, 3.46 0.51, 9.5 0" stroke="#1e1e1e" stroke-width="2" fill="none"></path></g><g transform="translate(1678.7666956583657 956.087154969144) rotate(0 40.39997100830078 12.5)"><text x="40.39997100830078" y="17.52" font-family="Virgil, Segoe UI Emoji" font-size="20px" fill="#1e1e1e" text-anchor="middle" style="white-space: pre;" direction="ltr" dominant-baseline="alphabetic">id: 9,......</text></g><g stroke-linecap="round" transform="translate(1459.1666666666665 986.587154969144) rotate(0 259 19)"><path d="M9.5 0 C118.75 1.2, 227.21 2.12, 508.5 0 M9.5 0 C203.23 1.93, 397.24 1.66, 508.5 0 M508.5 0 C513.92 1.11, 517.75 1.52, 518 9.5 M508.5 0 C516.32 -0.59, 518.57 4.27, 518 9.5 M518 9.5 C518.75 14.99, 516.22 21.14, 518 28.5 M518 9.5 C517.55 16.93, 517.33 23.17, 518 28.5 M518 28.5 C518.5 33.85, 515.34 39.49, 508.5 38 M518 28.5 C516.15 33.12, 515.95 37.21, 508.5 38 M508.5 38 C359.7 36.07, 209.84 36.04, 9.5 38 M508.5 38 C378.67 39.61, 248.58 39.74, 9.5 38 M9.5 38 C4.2 39.54, -0.59 34.02, 0 28.5 M9.5 38 C3.75 37, -1.96 35.15, 0 28.5 M0 28.5 C-1.73 24.32, 1 17.72, 0 9.5 M0 28.5 C-0.22 21.81, -0.76 14.28, 0 9.5 M0 9.5 C-1.18 1.96, 1.87 1.76, 9.5 0 M0 9.5 C-1.86 4.87, 3.25 -0.65, 9.5 0" stroke="#1e1e1e" stroke-width="2" fill="none"></path></g><g transform="translate(1674.2666956583657 993.087154969144) rotate(0 43.89997100830078 12.5)"><text x="43.89997100830078" y="17.52" font-family="Virgil, Segoe UI Emoji" font-size="20px" fill="#1e1e1e" text-anchor="middle" style="white-space: pre;" direction="ltr" dominant-baseline="alphabetic">id: 10,......</text></g><g stroke-linecap="round" transform="translate(1460.1666666666665 1025.587154969144) rotate(0 259 19)"><path d="M9.5 0 C127.38 -0.5, 243.04 -0.88, 508.5 0 M9.5 0 C149.48 1.93, 289.78 1.37, 508.5 0 M508.5 0 C516.13 -0.51, 518.49 4.13, 518 9.5 M508.5 0 C514.49 -2.19, 519.09 4.29, 518 9.5 M518 9.5 C519.1 16.3, 517.46 19.92, 518 28.5 M518 9.5 C518.08 15.67, 518.09 23.49, 518 28.5 M518 28.5 C516.39 33.34, 515.8 37.31, 508.5 38 M518 28.5 C517.97 33.28, 512.77 38.73, 508.5 38 M508.5 38 C367.13 37.11, 227.13 38.18, 9.5 38 M508.5 38 C386.72 37.84, 264.4 37.37, 9.5 38 M9.5 38 C3.68 37.13, -1.7 35.11, 0 28.5 M9.5 38 C2.04 39.91, -0.71 32.92, 0 28.5 M0 28.5 C0.83 20.61, -0.17 15.15, 0 9.5 M0 28.5 C-0.38 22.32, -0.43 18.13, 0 9.5 M0 9.5 C-1.62 4.65, 3.24 -0.57, 9.5 0 M0 9.5 C1.93 2.95, 1.92 1.68, 9.5 0" stroke="#1e1e1e" stroke-width="2" fill="none"></path></g><g transform="translate(1679.436693827311 1032.087154969144) rotate(0 39.72997283935547 12.5)"><text x="39.72997283935547" y="17.52" font-family="Virgil, Segoe UI Emoji" font-size="20px" fill="#1e1e1e" text-anchor="middle" style="white-space: pre;" direction="ltr" dominant-baseline="alphabetic">id: 11,......</text></g><g stroke-linecap="round" transform="translate(1458.1666666666665 1065.587154969144) rotate(0 259 19)"><path d="M9.5 0 C189.77 0.5, 369.66 -0.65, 508.5 0 M9.5 0 C187.03 1.55, 364.14 1.84, 508.5 0 M508.5 0 C514.54 -1.9, 518.95 4.14, 518 9.5 M508.5 0 C514.92 -1.94, 518.97 4.69, 518 9.5 M518 9.5 C518.9 14.69, 517.46 23.44, 518 28.5 M518 9.5 C517.28 13.56, 518.51 18.7, 518 28.5 M518 28.5 C517.97 33.48, 513.04 38.63, 508.5 38 M518 28.5 C517.6 33.28, 514.37 37.1, 508.5 38 M508.5 38 C388.94 40.11, 270.09 39.88, 9.5 38 M508.5 38 C320.39 37.01, 131.73 37.24, 9.5 38 M9.5 38 C2.19 39.67, -0.62 33.17, 0 28.5 M9.5 38 C3.89 39.41, -1.5 35.97, 0 28.5 M0 28.5 C-0.09 22.55, -1.86 19.16, 0 9.5 M0 28.5 C-0.65 24.65, 0.16 19.12, 0 9.5 M0 9.5 C1.68 2.98, 2.08 1.46, 9.5 0 M0 9.5 C-0.66 5.13, 4.22 0.33, 9.5 0" stroke="#1e1e1e" stroke-width="2" fill="none"></path></g><g transform="translate(1673.0266977945962 1072.087154969144) rotate(0 44.13996887207031 12.5)"><text x="44.13996887207031" y="17.52" font-family="Virgil, Segoe UI Emoji" font-size="20px" fill="#1e1e1e" text-anchor="middle" style="white-space: pre;" direction="ltr" dominant-baseline="alphabetic">id: 12,......</text></g><g transform="translate(1676.6666666666665 595.087154969144) rotate(0 35.749961853027344 12.5)"><text x="0" y="17.52" font-family="Virgil, Segoe UI Emoji" font-size="20px" fill="#1e1e1e" text-anchor="start" style="white-space: pre;" direction="ltr" dominant-baseline="alphabetic">records</text></g><g stroke-linecap="round" transform="translate(10 455.08720583177427) rotate(0 227.5 21.25)"><path d="M10.63 0 C130.87 1.79, 252.24 0.85, 444.38 0 M10.63 0 C181.97 0.6, 352.58 0.8, 444.38 0 M444.38 0 C452.9 0.72, 453 4.45, 455 10.63 M444.38 0 C452.97 0.28, 455.02 5.36, 455 10.63 M455 10.63 C454.94 18.03, 454.45 22.61, 455 31.88 M455 10.63 C454.75 15.62, 454.36 19.67, 455 31.88 M455 31.88 C453.27 39.97, 450.07 41.19, 444.38 42.5 M455 31.88 C454.91 39.6, 453.21 41.29, 444.38 42.5 M444.38 42.5 C273.15 40.36, 104.49 40.67, 10.63 42.5 M444.38 42.5 C277.56 41.13, 110.28 41.18, 10.63 42.5 M10.63 42.5 C4.86 40.99, 1.74 40.33, 0 31.88 M10.63 42.5 C2.48 42.27, 0.21 39.83, 0 31.88 M0 31.88 C-1.34 24.01, -0.06 13.85, 0 10.63 M0 31.88 C-0.1 25.25, -0.53 17.12, 0 10.63 M0 10.63 C0.99 3.74, 4.41 -0.41, 10.63 0 M0 10.63 C1.08 4.23, 4.11 2.29, 10.63 0" stroke="#1e1e1e" stroke-width="2" fill="none"></path></g><g transform="translate(197.5 424.67052644945005) rotate(0 30 12.5)"><text x="0" y="17.52" font-family="Virgil, Segoe UI Emoji" font-size="20px" fill="#1e1e1e" text-anchor="start" style="white-space: pre;" direction="ltr" dominant-baseline="alphabetic">叶节点</text></g><g transform="translate(22.5 467.17052644945005) rotate(0 9.319992065429688 12.5)"><text x="0" y="17.52" font-family="Virgil, Segoe UI Emoji" font-size="20px" fill="#1e1e1e" text-anchor="start" style="white-space: pre;" direction="ltr" dominant-baseline="alphabetic">P1</text></g><g stroke-linecap="round"><g transform="translate(50 455.08720583177427) rotate(0 0 21.25)"><path d="M-0.49 0.15 C-0.48 7.18, -0.28 35.22, -0.19 42.31 M0.26 -0.25 C0.2 6.85, -0.63 35.92, -0.72 42.91" stroke="#1e1e1e" stroke-width="2" fill="none"></path></g></g><mask></mask><g transform="translate(67.5 464.67052644945005) rotate(0 16.759986877441406 12.5)"><text x="0" y="17.52" font-family="Virgil, Segoe UI Emoji" font-size="20px" fill="#1e1e1e" text-anchor="start" style="white-space: pre;" direction="ltr" dominant-baseline="alphabetic">id=1</text></g><g transform="translate(135 462.17052644945005) rotate(0 13.729988098144531 12.5)"><text x="0" y="17.52" font-family="Virgil, Segoe UI Emoji" font-size="20px" fill="#1e1e1e" text-anchor="start" style="white-space: pre;" direction="ltr" dominant-baseline="alphabetic">P2</text></g><g transform="translate(182.5 467.1704883024774) rotate(0 21.16998291015625 12.5)"><text x="0" y="17.52" font-family="Virgil, Segoe UI Emoji" font-size="20px" fill="#1e1e1e" text-anchor="start" style="white-space: pre;" direction="ltr" dominant-baseline="alphabetic">id=2</text></g><g transform="translate(257.5 467.1704883024774) rotate(0 13.419990539550781 12.5)"><text x="0" y="17.52" font-family="Virgil, Segoe UI Emoji" font-size="20px" fill="#1e1e1e" text-anchor="start" style="white-space: pre;" direction="ltr" dominant-baseline="alphabetic">P3</text></g><g transform="translate(320 467.1704883024774) rotate(0 20.8599853515625 12.5)"><text x="0" y="17.52" font-family="Virgil, Segoe UI Emoji" font-size="20px" fill="#1e1e1e" text-anchor="start" style="white-space: pre;" direction="ltr" dominant-baseline="alphabetic">id=3</text></g><g transform="translate(402.5 464.6704883024774) rotate(0 22.439979553222656 12.5)"><text x="0" y="17.52" font-family="Virgil, Segoe UI Emoji" font-size="20px" fill="#1e1e1e" text-anchor="start" style="white-space: pre;" direction="ltr" dominant-baseline="alphabetic">Pend</text></g><g stroke-linecap="round"><g transform="translate(122.5 455.08720583177427) rotate(0 0 21.25)"><path d="M-0.03 -0.38 C-0.17 6.76, -0.44 35.34, -0.35 42.48 M-0.72 0.62 C-0.71 7.88, 0.51 36.1, 0.7 43.17" stroke="#1e1e1e" stroke-width="2" fill="none"></path></g></g><mask></mask><g stroke-linecap="round"><g transform="translate(172.5 455.08720583177427) rotate(0 0 21.25)"><path d="M0.45 -0.47 C0.44 6.64, 0.24 35.54, 0.24 42.8 M0.01 0.47 C-0.07 7.41, -0.12 35.02, -0.07 41.98" stroke="#1e1e1e" stroke-width="2" fill="none"></path></g></g><mask></mask><g stroke-linecap="round"><g transform="translate(240 455.08720583177427) rotate(0 0 21.25)"><path d="M0.46 -0.47 C0.47 6.66, 0.3 35.54, 0.18 42.7 M0.04 0.48 C-0.03 7.45, -0.03 34.74, -0.17 41.84" stroke="#1e1e1e" stroke-width="2" fill="none"></path></g></g><mask></mask><g stroke-linecap="round"><g transform="translate(305 455.08720583177427) rotate(0 0 21.25)"><path d="M0.44 0.06 C0.58 7.24, 0.44 35.67, 0.3 42.76 M0.01 -0.38 C0.14 6.66, -0.09 34.66, 0.02 41.93" stroke="#1e1e1e" stroke-width="2" fill="none"></path></g></g><mask></mask><g stroke-linecap="round"><g transform="translate(377.5 455.08720583177427) rotate(0 0 21.25)"><path d="M-0.35 0.43 C-0.25 7.44, 0.25 35.23, 0.4 42.32 M0.48 0.18 C0.56 7.23, 0.18 35.93, 0.17 42.92" stroke="#1e1e1e" stroke-width="2" fill="none"></path></g></g><mask></mask><g stroke-linecap="round"><g transform="translate(466.6666666666665 479.97278794538283) rotate(0 53.75000000000004 0.7760930945584477)"><path d="M1.17 -0.8 C19.12 -0.63, 88.95 1.2, 106.57 1.39 M0.32 1.39 C18.74 1.73, 91.21 2.9, 108.79 2.84" stroke="#1e1e1e" stroke-width="2" fill="none"></path></g><g transform="translate(466.6666666666665 479.97278794538283) rotate(0 53.75000000000004 0.7760930945584477)"><path d="M85.23 11.2 C88.69 7.72, 94.57 6.54, 108.79 2.84 M85.23 11.2 C90.79 8.95, 95.3 6.78, 108.79 2.84" stroke="#1e1e1e" stroke-width="2" fill="none"></path></g><g transform="translate(466.6666666666665 479.97278794538283) rotate(0 53.75000000000004 0.7760930945584477)"><path d="M85.37 -5.9 C88.84 -5.89, 94.7 -3.56, 108.79 2.84 M85.37 -5.9 C91.05 -4.71, 95.53 -3.45, 108.79 2.84" stroke="#1e1e1e" stroke-width="2" fill="none"></path></g></g><mask></mask><g stroke-linecap="round" transform="translate(578.3333333333336 458.71179355103123) rotate(0 227.5 21.25)"><path d="M10.63 0 C109.23 1.13, 207.42 1.03, 444.38 0 M10.63 0 C145.39 -0.6, 280.52 -0.67, 444.38 0 M444.38 0 C449.76 -1.21, 454.04 3.91, 455 10.63 M444.38 0 C452.73 2.03, 452.75 4.26, 455 10.63 M455 10.63 C454.67 15.13, 454.68 21.48, 455 31.88 M455 10.63 C454.4 17.44, 455.96 26.58, 455 31.88 M455 31.88 C456.98 40.06, 453.33 43.97, 444.38 42.5 M455 31.88 C453.21 39.09, 451.22 40.57, 444.38 42.5 M444.38 42.5 C299.28 41.99, 151.92 41.17, 10.63 42.5 M444.38 42.5 C308.27 44.19, 172.39 43.84, 10.63 42.5 M10.63 42.5 C2.05 42.79, -0.61 38.74, 0 31.88 M10.63 42.5 C4.31 44.49, 2.1 39.17, 0 31.88 M0 31.88 C-0.99 25.26, 1.72 20.5, 0 10.63 M0 31.88 C-0.16 28.11, -1.01 23.07, 0 10.63 M0 10.63 C-0.37 3.62, 2.85 -0.21, 10.63 0 M0 10.63 C1.2 3.79, 4.26 1.5, 10.63 0" stroke="#1e1e1e" stroke-width="2" fill="none"></path></g><g transform="translate(765.8333333333336 428.295114168707) rotate(0 30 12.5)"><text x="0" y="17.52" font-family="Virgil, Segoe UI Emoji" font-size="20px" fill="#1e1e1e" text-anchor="start" style="white-space: pre;" direction="ltr" dominant-baseline="alphabetic">叶节点</text></g><g transform="translate(590.8333333333336 470.795114168707) rotate(0 9.319992065429688 12.5)"><text x="0" y="17.52" font-family="Virgil, Segoe UI Emoji" font-size="20px" fill="#1e1e1e" text-anchor="start" style="white-space: pre;" direction="ltr" dominant-baseline="alphabetic">P1</text></g><g stroke-linecap="round"><g transform="translate(618.3333333333336 458.71179355103123) rotate(0 0 21.25)"><path d="M0.37 0.15 C0.3 7.22, 0.02 35.45, 0.03 42.5 M-0.1 -0.25 C-0.28 6.91, -0.46 35.99, -0.39 43.2" stroke="#1e1e1e" stroke-width="2" fill="none"></path></g></g><mask></mask><g transform="translate(635.8333333333336 468.295114168707) rotate(0 20.449981689453125 12.5)"><text x="0" y="17.52" font-family="Virgil, Segoe UI Emoji" font-size="20px" fill="#1e1e1e" text-anchor="start" style="white-space: pre;" direction="ltr" dominant-baseline="alphabetic">id=4</text></g><g transform="translate(703.3333333333336 465.795114168707) rotate(0 13.729988098144531 12.5)"><text x="0" y="17.52" font-family="Virgil, Segoe UI Emoji" font-size="20px" fill="#1e1e1e" text-anchor="start" style="white-space: pre;" direction="ltr" dominant-baseline="alphabetic">P2</text></g><g transform="translate(750.8333333333336 470.79507602173436) rotate(0 20.22998046875 12.5)"><text x="0" y="17.52" font-family="Virgil, Segoe UI Emoji" font-size="20px" fill="#1e1e1e" text-anchor="start" style="white-space: pre;" direction="ltr" dominant-baseline="alphabetic">id=5</text></g><g transform="translate(825.8333333333336 470.79507602173436) rotate(0 13.419990539550781 12.5)"><text x="0" y="17.52" font-family="Virgil, Segoe UI Emoji" font-size="20px" fill="#1e1e1e" text-anchor="start" style="white-space: pre;" direction="ltr" dominant-baseline="alphabetic">P3</text></g><g transform="translate(888.3333333333336 470.79507602173436) rotate(0 15.6099853515625 12.5)"><text x="0" y="17.52" font-family="Virgil, Segoe UI Emoji" font-size="20px" fill="#1e1e1e" text-anchor="start" style="white-space: pre;" direction="ltr" dominant-baseline="alphabetic">null</text></g><g transform="translate(970.8333333333336 468.29507602173436) rotate(0 22.439979553222656 12.5)"><text x="0" y="17.52" font-family="Virgil, Segoe UI Emoji" font-size="20px" fill="#1e1e1e" text-anchor="start" style="white-space: pre;" direction="ltr" dominant-baseline="alphabetic">Pend</text></g><g stroke-linecap="round"><g transform="translate(690.8333333333336 458.71179355103123) rotate(0 0 21.25)"><path d="M-0.13 0.28 C-0.08 7.31, -0.18 35.36, -0.22 42.38 M0.8 -0.05 C0.81 7.05, -0.75 35.85, -0.76 43.02" stroke="#1e1e1e" stroke-width="2" fill="none"></path></g></g><mask></mask><g stroke-linecap="round"><g transform="translate(744.8333333333336 458.71179355103123) rotate(0 0 21.25)"><path d="M-0.22 -0.12 C-0.26 6.9, -0.37 35.23, -0.37 42.38 M0.67 -0.66 C0.81 6.42, 0.9 35.93, 0.67 43.02" stroke="#1e1e1e" stroke-width="2" fill="none"></path></g></g><mask></mask><g stroke-linecap="round"><g transform="translate(808.3333333333336 458.71179355103123) rotate(0 0 21.25)"><path d="M-0.37 -0.12 C-0.38 7.04, -0.38 35.75, -0.24 42.82 M0.43 -0.65 C0.36 6.36, -0.78 34.77, -0.8 42.02" stroke="#1e1e1e" stroke-width="2" fill="none"></path></g></g><mask></mask><g stroke-linecap="round"><g transform="translate(873.3333333333336 458.71179355103123) rotate(0 0 21.25)"><path d="M-0.24 0.32 C-0.11 7.4, 0.47 35.38, 0.44 42.34 M0.64 0.01 C0.77 7.18, 0.22 35.88, 0.23 42.95" stroke="#1e1e1e" stroke-width="2" fill="none"></path></g></g><mask></mask><g stroke-linecap="round"><g transform="translate(945.8333333333336 458.71179355103123) rotate(0 0 21.25)"><path d="M0.44 -0.16 C0.41 6.79, -0.42 34.88, -0.42 42.06 M0 -0.72 C0.16 6.26, 0.54 35.41, 0.6 42.53" stroke="#1e1e1e" stroke-width="2" fill="none"></path></g></g><mask></mask><g stroke-linecap="round" transform="translate(1135 460.5175783033281) rotate(0 227.5 21.25)"><path d="M10.63 0 C135.07 1.21, 260.58 0.74, 444.38 0 M10.63 0 C168.32 0.72, 325.72 0.12, 444.38 0 M444.38 0 C453.08 -1.08, 456.15 4.32, 455 10.63 M444.38 0 C453.54 1.28, 455.23 5.33, 455 10.63 M455 10.63 C456.67 19.37, 455.43 24.61, 455 31.88 M455 10.63 C455.21 19.01, 454.19 25.36, 455 31.88 M455 31.88 C456.66 40.78, 450.49 43.18, 444.38 42.5 M455 31.88 C453.25 38.66, 452.17 41.84, 444.38 42.5 M444.38 42.5 C292.33 41.84, 139.66 42.69, 10.63 42.5 M444.38 42.5 C292.8 43.1, 141.83 42.76, 10.63 42.5 M10.63 42.5 C2.45 43.84, -1.54 37.8, 0 31.88 M10.63 42.5 C2.25 44.06, 2.2 40.08, 0 31.88 M0 31.88 C-1.56 25.66, -1.39 20.88, 0 10.63 M0 31.88 C0.45 25.07, 0.69 18.94, 0 10.63 M0 10.63 C-0.08 1.71, 3.66 -1.86, 10.63 0 M0 10.63 C-2.1 4.29, 1.37 -1.9, 10.63 0" stroke="#1e1e1e" stroke-width="2" fill="none"></path></g><g transform="translate(1147.5 472.6008989210039) rotate(0 9.319992065429688 12.5)"><text x="0" y="17.52" font-family="Virgil, Segoe UI Emoji" font-size="20px" fill="#1e1e1e" text-anchor="start" style="white-space: pre;" direction="ltr" dominant-baseline="alphabetic">P1</text></g><g stroke-linecap="round"><g transform="translate(1175 460.5175783033281) rotate(0 0 21.25)"><path d="M0.1 0.35 C0.07 7.47, 0.15 35.32, 0.16 42.4 M-0.51 0.05 C-0.63 7.29, -0.26 36.07, -0.19 43.05" stroke="#1e1e1e" stroke-width="2" fill="none"></path></g></g><mask></mask><g transform="translate(1192.5 470.1008989210039) rotate(0 20.449981689453125 12.5)"><text x="0" y="17.52" font-family="Virgil, Segoe UI Emoji" font-size="20px" fill="#1e1e1e" text-anchor="start" style="white-space: pre;" direction="ltr" dominant-baseline="alphabetic">id=6</text></g><g transform="translate(1260 467.6008989210039) rotate(0 13.729988098144531 12.5)"><text x="0" y="17.52" font-family="Virgil, Segoe UI Emoji" font-size="20px" fill="#1e1e1e" text-anchor="start" style="white-space: pre;" direction="ltr" dominant-baseline="alphabetic">P2</text></g><g transform="translate(1307.5 472.6008607740312) rotate(0 19.42998504638672 12.5)"><text x="0" y="17.52" font-family="Virgil, Segoe UI Emoji" font-size="20px" fill="#1e1e1e" text-anchor="start" style="white-space: pre;" direction="ltr" dominant-baseline="alphabetic">id=7</text></g><g transform="translate(1382.5 472.6008607740312) rotate(0 13.419990539550781 12.5)"><text x="0" y="17.52" font-family="Virgil, Segoe UI Emoji" font-size="20px" fill="#1e1e1e" text-anchor="start" style="white-space: pre;" direction="ltr" dominant-baseline="alphabetic">P3</text></g><g transform="translate(1445 472.6008607740312) rotate(0 21.699981689453182 12.5)"><text x="0" y="17.52" font-family="Virgil, Segoe UI Emoji" font-size="20px" fill="#1e1e1e" text-anchor="start" style="white-space: pre;" direction="ltr" dominant-baseline="alphabetic">id=8</text></g><g transform="translate(1527.5 470.1008607740312) rotate(0 22.439979553222656 12.5)"><text x="0" y="17.52" font-family="Virgil, Segoe UI Emoji" font-size="20px" fill="#1e1e1e" text-anchor="start" style="white-space: pre;" direction="ltr" dominant-baseline="alphabetic">Pend</text></g><g stroke-linecap="round"><g transform="translate(1247.5 460.5175783033281) rotate(0 0 21.25)"><path d="M0.05 0.43 C-0.01 7.49, 0.12 35.59, 0.13 42.67 M-0.58 0.17 C-0.75 7.04, -0.31 34.81, -0.23 41.8" stroke="#1e1e1e" stroke-width="2" fill="none"></path></g></g><mask></mask><g stroke-linecap="round"><g transform="translate(1297.5 460.5175783033281) rotate(0 0 21.25)"><path d="M0.13 0.17 C0.14 7.26, 0.07 35.87, 0.13 42.94 M-0.47 -0.21 C-0.52 6.69, -0.38 34.96, -0.23 42.2" stroke="#1e1e1e" stroke-width="2" fill="none"></path></g></g><mask></mask><g stroke-linecap="round"><g transform="translate(1365 460.5175783033281) rotate(0 0 21.25)"><path d="M0.13 0.44 C0.2 7.51, 0.53 35.53, 0.51 42.6 M-0.46 0.19 C-0.44 7.07, 0.31 34.72, 0.35 41.69" stroke="#1e1e1e" stroke-width="2" fill="none"></path></g></g><mask></mask><g stroke-linecap="round"><g transform="translate(1430 460.5175783033281) rotate(0 0 21.25)"><path d="M0.51 0.1 C0.5 7.17, 0.19 35.74, 0.06 42.86 M0.12 -0.32 C0.03 6.56, -0.2 35.04, -0.34 42.09" stroke="#1e1e1e" stroke-width="2" fill="none"></path></g></g><mask></mask><g stroke-linecap="round"><g transform="translate(1502.5 460.5175783033281) rotate(0 0 21.25)"><path d="M0.06 0.36 C-0.06 7.49, -0.24 35.77, -0.22 42.85 M-0.57 0.08 C-0.83 7.04, -0.85 35.08, -0.77 42.06" stroke="#1e1e1e" stroke-width="2" fill="none"></path></g></g><mask></mask><g stroke-linecap="round" transform="translate(1681.6666666666665 460.5175783033281) rotate(0 227.5 21.25)"><path d="M10.63 0 C143.36 -1.59, 275.76 -1.63, 444.38 0 M10.63 0 C172.51 -1.06, 333.44 -1.32, 444.38 0 M444.38 0 C452.13 -1.51, 453.99 4.68, 455 10.63 M444.38 0 C453.44 -1.98, 453.11 3.22, 455 10.63 M455 10.63 C455.33 19.13, 454.04 24.49, 455 31.88 M455 10.63 C455.76 17.65, 454.48 27.3, 455 31.88 M455 31.88 C454.65 38.34, 452.2 41.78, 444.38 42.5 M455 31.88 C456.44 41.09, 451.98 44, 444.38 42.5 M444.38 42.5 C353.99 41.63, 265.88 41.07, 10.63 42.5 M444.38 42.5 C339.62 42.64, 235.14 42.68, 10.63 42.5 M10.63 42.5 C3.76 41.43, 0.81 39.63, 0 31.88 M10.63 42.5 C3.45 41.61, -0.59 37.04, 0 31.88 M0 31.88 C0.29 23.39, 0.38 17.89, 0 10.63 M0 31.88 C0.79 26.74, 0.88 20.51, 0 10.63 M0 10.63 C0.08 4.84, 1.64 0.94, 10.63 0 M0 10.63 C-0.63 5.73, 5.41 -1.68, 10.63 0" stroke="#1e1e1e" stroke-width="2" fill="none"></path></g><g transform="translate(1694.1666666666665 472.6008989210039) rotate(0 9.319992065429688 12.5)"><text x="0" y="17.52" font-family="Virgil, Segoe UI Emoji" font-size="20px" fill="#1e1e1e" text-anchor="start" style="white-space: pre;" direction="ltr" dominant-baseline="alphabetic">P1</text></g><g stroke-linecap="round"><g transform="translate(1721.6666666666665 460.5175783033281) rotate(0 0 21.25)"><path d="M-0.35 0.4 C-0.28 7.56, -0.06 35.75, 0.07 42.77 M0.48 0.13 C0.5 7.15, -0.3 34.77, -0.33 41.94" stroke="#1e1e1e" stroke-width="2" fill="none"></path></g></g><mask></mask><g transform="translate(1739.1666666666665 470.1008989210039) rotate(0 20.139984130859375 12.5)"><text x="0" y="17.52" font-family="Virgil, Segoe UI Emoji" font-size="20px" fill="#1e1e1e" text-anchor="start" style="white-space: pre;" direction="ltr" dominant-baseline="alphabetic">id=9</text></g><g transform="translate(1806.6666666666665 467.6008989210039) rotate(0 13.729988098144531 12.5)"><text x="0" y="17.52" font-family="Virgil, Segoe UI Emoji" font-size="20px" fill="#1e1e1e" text-anchor="start" style="white-space: pre;" direction="ltr" dominant-baseline="alphabetic">P2</text></g><g transform="translate(1854.1666666666665 472.6008607740312) rotate(0 23.639984130859375 12.5)"><text x="0" y="17.52" font-family="Virgil, Segoe UI Emoji" font-size="20px" fill="#1e1e1e" text-anchor="start" style="white-space: pre;" direction="ltr" dominant-baseline="alphabetic">id=10</text></g><g transform="translate(1929.1666666666665 472.6008607740312) rotate(0 13.419990539550781 12.5)"><text x="0" y="17.52" font-family="Virgil, Segoe UI Emoji" font-size="20px" fill="#1e1e1e" text-anchor="start" style="white-space: pre;" direction="ltr" dominant-baseline="alphabetic">P3</text></g><g transform="translate(1991.6666666666665 472.6008607740312) rotate(0 15.6099853515625 12.5)"><text x="0" y="17.52" font-family="Virgil, Segoe UI Emoji" font-size="20px" fill="#1e1e1e" text-anchor="start" style="white-space: pre;" direction="ltr" dominant-baseline="alphabetic">null</text></g><g transform="translate(2074.1666666666665 470.1008607740312) rotate(0 22.439979553222656 12.5)"><text x="0" y="17.52" font-family="Virgil, Segoe UI Emoji" font-size="20px" fill="#1e1e1e" text-anchor="start" style="white-space: pre;" direction="ltr" dominant-baseline="alphabetic">Pend</text></g><g stroke-linecap="round"><g transform="translate(1794.1666666666665 460.5175783033281) rotate(0 0 21.25)"><path d="M-0.45 -0.08 C-0.52 7.08, -0.03 35.38, 0.07 42.49 M0.32 -0.59 C0.14 6.7, -0.25 35.88, -0.33 43.19" stroke="#1e1e1e" stroke-width="2" fill="none"></path></g></g><mask></mask><g stroke-linecap="round"><g transform="translate(1844.1666666666665 460.5175783033281) rotate(0 0 21.25)"><path d="M0.07 -0.01 C0.16 7.1, 0.06 35.55, 0.14 42.59 M-0.56 -0.49 C-0.49 6.45, -0.39 34.47, -0.22 41.67" stroke="#1e1e1e" stroke-width="2" fill="none"></path></g></g><mask></mask><g stroke-linecap="round"><g transform="translate(1911.6666666666665 460.5175783033281) rotate(0 0 21.25)"><path d="M0.14 0.09 C0.21 7.13, 0.51 35.1, 0.51 42.24 M-0.46 -0.34 C-0.41 6.77, 0.29 35.74, 0.35 42.8" stroke="#1e1e1e" stroke-width="2" fill="none"></path></g></g><mask></mask><g stroke-linecap="round"><g transform="translate(1979.9999999999998 460.5175783033281) rotate(0 0 21.25)"><path d="M0.51 -0.26 C0.52 6.87, 0.33 35.67, 0.16 42.89 M0.11 0.79 C0.05 7.76, -0.27 35.21, -0.18 42.12" stroke="#1e1e1e" stroke-width="2" fill="none"></path></g></g><mask></mask><g stroke-linecap="round"><g transform="translate(2049.1666666666665 460.5175783033281) rotate(0 0 21.25)"><path d="M0.16 0.39 C0 7.6, -0.52 36.08, -0.46 43.02 M-0.41 0.11 C-0.46 7.21, 0.39 35.28, 0.53 42.32" stroke="#1e1e1e" stroke-width="2" fill="none"></path></g></g><mask></mask><g stroke-linecap="round" transform="translate(2228.333333333333 460.45626465145335) rotate(0 227.5 21.25)"><path d="M10.63 0 C141.74 0.54, 271.52 -0.64, 444.38 0 M10.63 0 C174.95 0.21, 339.37 0.42, 444.38 0 M444.38 0 C451.03 -1.72, 455.35 3.89, 455 10.63 M444.38 0 C452.74 -1.15, 455.99 5.71, 455 10.63 M455 10.63 C455.14 16.92, 453.71 21.41, 455 31.88 M455 10.63 C455.5 17.94, 455.4 23.98, 455 31.88 M455 31.88 C456.45 39.38, 451.69 42.74, 444.38 42.5 M455 31.88 C456.72 37.16, 453.52 41.71, 444.38 42.5 M444.38 42.5 C283.58 43.83, 121.25 43.37, 10.63 42.5 M444.38 42.5 C296.15 40.8, 148.26 40.81, 10.63 42.5 M10.63 42.5 C3.54 43.38, -1.66 37.53, 0 31.88 M10.63 42.5 C2.41 43.83, 1.15 37.47, 0 31.88 M0 31.88 C-2.08 23.12, 1.33 17.56, 0 10.63 M0 31.88 C-1.03 27.16, 0.07 21.44, 0 10.63 M0 10.63 C-1.12 5.53, 4.83 -0.59, 10.63 0 M0 10.63 C0.98 5.08, 3.37 0.84, 10.63 0" stroke="#1e1e1e" stroke-width="2" fill="none"></path></g><g transform="translate(2240.833333333333 472.53958526912913) rotate(0 9.319992065429688 12.5)"><text x="0" y="17.52" font-family="Virgil, Segoe UI Emoji" font-size="20px" fill="#1e1e1e" text-anchor="start" style="white-space: pre;" direction="ltr" dominant-baseline="alphabetic">P1</text></g><g stroke-linecap="round"><g transform="translate(2268.333333333333 460.45626465145335) rotate(0 0 21.25)"><path d="M-0.37 0.43 C-0.48 7.47, -0.46 35.43, -0.38 42.42 M0.45 0.18 C0.49 7.28, 0.77 35.96, 0.66 43.08" stroke="#1e1e1e" stroke-width="2" fill="none"></path></g></g><mask></mask><g transform="translate(2285.833333333333 470.03958526912913) rotate(0 19.469985961914062 12.5)"><text x="0" y="17.52" font-family="Virgil, Segoe UI Emoji" font-size="20px" fill="#1e1e1e" text-anchor="start" style="white-space: pre;" direction="ltr" dominant-baseline="alphabetic">id=11</text></g><g transform="translate(2353.333333333333 467.53958526912913) rotate(0 13.729988098144531 12.5)"><text x="0" y="17.52" font-family="Virgil, Segoe UI Emoji" font-size="20px" fill="#1e1e1e" text-anchor="start" style="white-space: pre;" direction="ltr" dominant-baseline="alphabetic">P2</text></g><g transform="translate(2400.833333333333 472.5395471221565) rotate(0 23.879981994628906 12.5)"><text x="0" y="17.52" font-family="Virgil, Segoe UI Emoji" font-size="20px" fill="#1e1e1e" text-anchor="start" style="white-space: pre;" direction="ltr" dominant-baseline="alphabetic">id=12</text></g><g transform="translate(2475.833333333333 472.5395471221565) rotate(0 13.419990539550781 12.5)"><text x="0" y="17.52" font-family="Virgil, Segoe UI Emoji" font-size="20px" fill="#1e1e1e" text-anchor="start" style="white-space: pre;" direction="ltr" dominant-baseline="alphabetic">P3</text></g><g transform="translate(2538.333333333333 472.5395471221565) rotate(0 15.6099853515625 12.5)"><text x="0" y="17.52" font-family="Virgil, Segoe UI Emoji" font-size="20px" fill="#1e1e1e" text-anchor="start" style="white-space: pre;" direction="ltr" dominant-baseline="alphabetic">null</text></g><g transform="translate(2620.833333333333 470.0395471221565) rotate(0 22.439979553222656 12.5)"><text x="0" y="17.52" font-family="Virgil, Segoe UI Emoji" font-size="20px" fill="#1e1e1e" text-anchor="start" style="white-space: pre;" direction="ltr" dominant-baseline="alphabetic">Pend</text></g><g stroke-linecap="round"><g transform="translate(2340.833333333333 460.45626465145335) rotate(0 0 21.25)"><path d="M0.24 0.52 C0.17 7.56, 0.02 34.97, -0.08 41.98 M-0.31 0.31 C-0.47 7.43, -0.74 35.26, -0.55 42.42" stroke="#1e1e1e" stroke-width="2" fill="none"></path></g></g><mask></mask><g stroke-linecap="round"><g transform="translate(2390.833333333333 460.45626465145335) rotate(0 0 21.25)"><path d="M-0.08 -0.52 C-0.17 6.49, -0.34 35.47, -0.32 42.59 M-0.78 0.41 C-0.72 7.47, 0.66 34.64, 0.75 41.68" stroke="#1e1e1e" stroke-width="2" fill="none"></path></g></g><mask></mask><g stroke-linecap="round"><g transform="translate(2458.333333333333 460.45626465145335) rotate(0 0 21.25)"><path d="M-0.32 0.09 C-0.3 7.21, 0.07 35.13, 0.06 42.2 M0.52 -0.33 C0.48 6.9, -0.38 35.51, -0.34 42.75" stroke="#1e1e1e" stroke-width="2" fill="none"></path></g></g><mask></mask><g stroke-linecap="round"><g transform="translate(2526.6666666666665 460.45626465145335) rotate(0 0 21.25)"><path d="M0.06 -0.3 C0.05 6.77, -0.43 35.38, -0.38 42.49 M-0.58 0.74 C-0.38 7.89, 0.52 36.15, 0.66 43.19" stroke="#1e1e1e" stroke-width="2" fill="none"></path></g></g><mask></mask><g stroke-linecap="round"><g transform="translate(2595.833333333333 460.45626465145335) rotate(0 0 21.25)"><path d="M-0.38 -0.01 C-0.32 7.11, 0.31 35.22, 0.41 42.39 M0.43 -0.49 C0.45 6.74, 0.27 35.91, 0.19 43.03" stroke="#1e1e1e" stroke-width="2" fill="none"></path></g></g><mask></mask><g stroke-linecap="round"><g transform="translate(1035.8333333333335 478.4205264494499) rotate(0 46.66666666666663 -5.684341886080802e-14)"><path d="M0.15 -0.62 C15.83 -0.47, 77.71 0.47, 93.42 0.71 M-1.24 1.68 C14.36 1.5, 76.61 -0.58, 92.51 -1.05" stroke="#1e1e1e" stroke-width="2" fill="none"></path></g><g transform="translate(1035.8333333333335 478.4205264494499) rotate(0 46.66666666666663 -5.684341886080802e-14)"><path d="M69.3 8.23 C73.93 6.09, 81.77 5.43, 92.51 -1.05 M69.3 8.23 C78.73 5.64, 86.9 1.48, 92.51 -1.05" stroke="#1e1e1e" stroke-width="2" fill="none"></path></g><g transform="translate(1035.8333333333335 478.4205264494499) rotate(0 46.66666666666663 -5.684341886080802e-14)"><path d="M68.76 -8.86 C73.5 -6.85, 81.47 -3.35, 92.51 -1.05 M68.76 -8.86 C78.32 -5.18, 86.7 -3.06, 92.51 -1.05" stroke="#1e1e1e" stroke-width="2" fill="none"></path></g></g><mask></mask><g stroke-linecap="round"><g transform="translate(1595.8333333333335 481.75385978278314) rotate(0 40 0)"><path d="M0.97 -0.11 C14.35 0.06, 67.55 0.15, 80.59 0.01 M0.02 -1.22 C13.26 -0.75, 66.34 1.37, 79.95 1.55" stroke="#1e1e1e" stroke-width="2" fill="none"></path></g><g transform="translate(1595.8333333333335 481.75385978278314) rotate(0 40 0)"><path d="M56.22 9.43 C63.85 7.64, 71.8 2.73, 79.95 1.55 M56.22 9.43 C61.81 6.91, 66.37 6.42, 79.95 1.55" stroke="#1e1e1e" stroke-width="2" fill="none"></path></g><g transform="translate(1595.8333333333335 481.75385978278314) rotate(0 40 0)"><path d="M56.7 -7.66 C64.03 -3.87, 71.82 -3.19, 79.95 1.55 M56.7 -7.66 C62.23 -6.43, 66.69 -3.17, 79.95 1.55" stroke="#1e1e1e" stroke-width="2" fill="none"></path></g></g><mask></mask><g stroke-linecap="round"><g transform="translate(2142.5 481.75385978278314) rotate(0 38.33333333333326 0)"><path d="M-0.22 1.02 C12.62 1.22, 63.08 0.31, 75.88 0.04 M-1.8 0.5 C11.53 1.02, 65.26 1.61, 78.18 1.59" stroke="#1e1e1e" stroke-width="2" fill="none"></path></g><g transform="translate(2142.5 481.75385978278314) rotate(0 38.33333333333326 0)"><path d="M54.63 9.99 C61.21 7.02, 64.37 6.45, 78.18 1.59 M54.63 9.99 C60.16 7.39, 65.73 6.93, 78.18 1.59" stroke="#1e1e1e" stroke-width="2" fill="none"></path></g><g transform="translate(2142.5 481.75385978278314) rotate(0 38.33333333333326 0)"><path d="M54.74 -7.11 C61.13 -6.6, 64.27 -3.69, 78.18 1.59 M54.74 -7.11 C60.09 -5.43, 65.62 -1.61, 78.18 1.59" stroke="#1e1e1e" stroke-width="2" fill="none"></path></g></g><mask></mask><g transform="translate(1338.6904761904766 427.58719311611657) rotate(0 30 12.5)"><text x="0" y="17.52" font-family="Virgil, Segoe UI Emoji" font-size="20px" fill="#1e1e1e" text-anchor="start" style="white-space: pre;" direction="ltr" dominant-baseline="alphabetic">叶节点</text></g><g transform="translate(1890.1190476190482 427.5871931161165) rotate(0 30 12.5)"><text x="0" y="17.52" font-family="Virgil, Segoe UI Emoji" font-size="20px" fill="#1e1e1e" text-anchor="start" style="white-space: pre;" direction="ltr" dominant-baseline="alphabetic">叶节点</text></g><g transform="translate(2432.976190476191 430.4443359732595) rotate(0 30 12.5)"><text x="0" y="17.52" font-family="Virgil, Segoe UI Emoji" font-size="20px" fill="#1e1e1e" text-anchor="start" style="white-space: pre;" direction="ltr" dominant-baseline="alphabetic">叶节点</text></g><g stroke-linecap="round" transform="translate(444.0476190476194 261.121615536815) rotate(0 227.5 21.25)"><path d="M10.63 0 C99.86 1.17, 191.11 -0.39, 444.38 0 M10.63 0 C105 1.47, 198.07 1.12, 444.38 0 M444.38 0 C449.93 1.21, 456.15 4.74, 455 10.63 M444.38 0 C451.63 -0.8, 455.09 4.53, 455 10.63 M455 10.63 C456.39 18.99, 454.3 25.62, 455 31.88 M455 10.63 C454.36 16.13, 454.22 19.79, 455 31.88 M455 31.88 C455.13 37.01, 450.48 43.69, 444.38 42.5 M455 31.88 C455.7 39.12, 450.92 42.94, 444.38 42.5 M444.38 42.5 C322.45 44.99, 198.16 43.8, 10.63 42.5 M444.38 42.5 C307.11 41.98, 171.17 42.09, 10.63 42.5 M10.63 42.5 C5.21 42.69, 0.3 40.87, 0 31.88 M10.63 42.5 C2.2 42.9, -1.34 36.95, 0 31.88 M0 31.88 C-1.12 24.12, 1.15 16.89, 0 10.63 M0 31.88 C0.5 26.74, 0.24 22.59, 0 10.63 M0 10.63 C-1.25 3.28, 3.61 0.7, 10.63 0 M0 10.63 C-1.16 2.24, 4.51 -0.69, 10.63 0" stroke="#1e1e1e" stroke-width="2" fill="none"></path></g><g transform="translate(456.5476190476194 273.2049361544908) rotate(0 9.319992065429688 12.5)"><text x="0" y="17.52" font-family="Virgil, Segoe UI Emoji" font-size="20px" fill="#1e1e1e" text-anchor="start" style="white-space: pre;" direction="ltr" dominant-baseline="alphabetic">P1</text></g><g stroke-linecap="round"><g transform="translate(484.0476190476194 261.121615536815) rotate(0 0 21.25)"><path d="M-0.4 -0.46 C-0.44 6.49, 0.05 35, 0.2 42.21 M0.39 0.49 C0.26 7.75, -0.13 35.86, -0.13 42.76" stroke="#1e1e1e" stroke-width="2" fill="none"></path></g></g><mask></mask><g transform="translate(501.5476190476194 270.7049361544908) rotate(0 20.449981689453125 12.5)"><text x="0" y="17.52" font-family="Virgil, Segoe UI Emoji" font-size="20px" fill="#1e1e1e" text-anchor="start" style="white-space: pre;" direction="ltr" dominant-baseline="alphabetic">id=4</text></g><g transform="translate(569.0476190476194 268.2049361544908) rotate(0 13.729988098144531 12.5)"><text x="0" y="17.52" font-family="Virgil, Segoe UI Emoji" font-size="20px" fill="#1e1e1e" text-anchor="start" style="white-space: pre;" direction="ltr" dominant-baseline="alphabetic">P2</text></g><g transform="translate(616.5476190476194 273.2048980075181) rotate(0 20.449981689453125 12.5)"><text x="0" y="17.52" font-family="Virgil, Segoe UI Emoji" font-size="20px" fill="#1e1e1e" text-anchor="start" style="white-space: pre;" direction="ltr" dominant-baseline="alphabetic">id=6</text></g><g transform="translate(691.5476190476194 273.2048980075181) rotate(0 13.419990539550781 12.5)"><text x="0" y="17.52" font-family="Virgil, Segoe UI Emoji" font-size="20px" fill="#1e1e1e" text-anchor="start" style="white-space: pre;" direction="ltr" dominant-baseline="alphabetic">P3</text></g><g transform="translate(754.0476190476194 273.2048980075181) rotate(0 15.6099853515625 12.5)"><text x="0" y="17.52" font-family="Virgil, Segoe UI Emoji" font-size="20px" fill="#1e1e1e" text-anchor="start" style="white-space: pre;" direction="ltr" dominant-baseline="alphabetic">null</text></g><g transform="translate(836.5476190476194 270.7048980075181) rotate(0 22.439979553222656 12.5)"><text x="0" y="17.52" font-family="Virgil, Segoe UI Emoji" font-size="20px" fill="#1e1e1e" text-anchor="start" style="white-space: pre;" direction="ltr" dominant-baseline="alphabetic">Pend</text></g><g stroke-linecap="round"><g transform="translate(556.5476190476194 261.121615536815) rotate(0 0 21.25)"><path d="M0.02 0.24 C0.02 7.31, 0.13 35.15, 0.03 42.26 M-0.63 -0.12 C-0.71 7.05, -0.57 35.81, -0.38 42.84" stroke="#1e1e1e" stroke-width="2" fill="none"></path></g></g><mask></mask><g stroke-linecap="round"><g transform="translate(606.5476190476194 261.121615536815) rotate(0 0 21.25)"><path d="M0.03 -0.24 C-0.06 6.88, -0.62 35.81, -0.54 42.91 M-0.61 -0.83 C-0.55 6.11, 0.24 34.87, 0.41 42.15" stroke="#1e1e1e" stroke-width="2" fill="none"></path></g></g><mask></mask><g stroke-linecap="round"><g transform="translate(674.0476190476194 261.121615536815) rotate(0 0 21.25)"><path d="M-0.54 0.41 C-0.46 7.5, 0.33 35.38, 0.51 42.33 M0.18 0.14 C0.23 7.33, 0.29 35.88, 0.34 42.94" stroke="#1e1e1e" stroke-width="2" fill="none"></path></g></g><mask></mask><g stroke-linecap="round"><g transform="translate(739.0476190476194 261.121615536815) rotate(0 0 21.25)"><path d="M0.51 -0.17 C0.69 6.79, 0.68 34.95, 0.54 42.14 M0.11 -0.73 C0.31 6.25, 0.55 35.51, 0.39 42.65" stroke="#1e1e1e" stroke-width="2" fill="none"></path></g></g><mask></mask><g stroke-linecap="round"><g transform="translate(811.5476190476194 261.121615536815) rotate(0 0 21.25)"><path d="M0.54 -0.36 C0.4 6.83, -0.18 35.76, -0.32 42.95 M0.16 0.64 C0.15 7.7, 0.91 35.34, 0.76 42.21" stroke="#1e1e1e" stroke-width="2" fill="none"></path></g></g><mask></mask><g transform="translate(638.2142857142861 225.8014788304023) rotate(0 40 12.5)"><text x="0" y="17.52" font-family="Virgil, Segoe UI Emoji" font-size="20px" fill="#1e1e1e" text-anchor="start" style="white-space: pre;" direction="ltr" dominant-baseline="alphabetic">内部节点</text></g><g stroke-linecap="round" transform="translate(1527.3809523809523 251.98680337307917) rotate(0 227.5 21.25)"><path d="M10.63 0 C128.53 0.76, 245.88 0.9, 444.38 0 M10.63 0 C133.95 -0.56, 257 -0.71, 444.38 0 M444.38 0 C449.8 1.33, 456.32 1.96, 455 10.63 M444.38 0 C453.39 1.89, 455.44 2.3, 455 10.63 M455 10.63 C454.59 17, 454.14 21.59, 455 31.88 M455 10.63 C455.66 18.15, 455.35 25.24, 455 31.88 M455 31.88 C454.87 39.81, 450.04 43.04, 444.38 42.5 M455 31.88 C455.84 38.76, 450.95 43.87, 444.38 42.5 M444.38 42.5 C315.98 43.34, 185.35 42.96, 10.63 42.5 M444.38 42.5 C354.58 41.33, 265.83 41.35, 10.63 42.5 M10.63 42.5 C1.6 42.38, -1.13 38.33, 0 31.88 M10.63 42.5 C5.6 42.84, 1.64 39.57, 0 31.88 M0 31.88 C1.24 27.48, -0.21 19.39, 0 10.63 M0 31.88 C1.02 22.88, 0.29 14.74, 0 10.63 M0 10.63 C1.15 2.81, 2.36 -0.27, 10.63 0 M0 10.63 C-2.06 5.19, 4.06 -1.7, 10.63 0" stroke="#1e1e1e" stroke-width="2" fill="none"></path></g><g transform="translate(1539.8809523809523 264.07012399075495) rotate(0 9.319992065429688 12.5)"><text x="0" y="17.52" font-family="Virgil, Segoe UI Emoji" font-size="20px" fill="#1e1e1e" text-anchor="start" style="white-space: pre;" direction="ltr" dominant-baseline="alphabetic">P1</text></g><g stroke-linecap="round"><g transform="translate(1567.3809523809523 251.98680337307917) rotate(0 0 21.25)"><path d="M0.29 -0.09 C0.26 7.01, 0.03 35.53, 0.06 42.6 M-0.23 -0.61 C-0.34 6.32, -0.43 34.44, -0.35 41.68" stroke="#1e1e1e" stroke-width="2" fill="none"></path></g></g><mask></mask><g transform="translate(1584.8809523809523 261.57012399075495) rotate(0 19.469985961914062 12.5)"><text x="0" y="17.52" font-family="Virgil, Segoe UI Emoji" font-size="20px" fill="#1e1e1e" text-anchor="start" style="white-space: pre;" direction="ltr" dominant-baseline="alphabetic">id=11</text></g><g transform="translate(1652.3809523809523 259.07012399075495) rotate(0 13.729988098144531 12.5)"><text x="0" y="17.52" font-family="Virgil, Segoe UI Emoji" font-size="20px" fill="#1e1e1e" text-anchor="start" style="white-space: pre;" direction="ltr" dominant-baseline="alphabetic">P2</text></g><g transform="translate(1699.8809523809523 264.0700858437823) rotate(0 15.6099853515625 12.5)"><text x="0" y="17.52" font-family="Virgil, Segoe UI Emoji" font-size="20px" fill="#1e1e1e" text-anchor="start" style="white-space: pre;" direction="ltr" dominant-baseline="alphabetic">null</text></g><g transform="translate(1774.8809523809523 264.0700858437823) rotate(0 13.419990539550781 12.5)"><text x="0" y="17.52" font-family="Virgil, Segoe UI Emoji" font-size="20px" fill="#1e1e1e" text-anchor="start" style="white-space: pre;" direction="ltr" dominant-baseline="alphabetic">P3</text></g><g transform="translate(1837.3809523809523 264.0700858437823) rotate(0 15.6099853515625 12.5)"><text x="0" y="17.52" font-family="Virgil, Segoe UI Emoji" font-size="20px" fill="#1e1e1e" text-anchor="start" style="white-space: pre;" direction="ltr" dominant-baseline="alphabetic">null</text></g><g transform="translate(1919.8809523809523 261.5700858437823) rotate(0 22.439979553222656 12.5)"><text x="0" y="17.52" font-family="Virgil, Segoe UI Emoji" font-size="20px" fill="#1e1e1e" text-anchor="start" style="white-space: pre;" direction="ltr" dominant-baseline="alphabetic">Pend</text></g><g stroke-linecap="round"><g transform="translate(1639.8809523809523 251.98680337307917) rotate(0 0 21.25)"><path d="M0.11 -0.3 C-0.03 6.63, -0.36 34.91, -0.36 42.03 M-0.5 0.74 C-0.51 7.68, 0.64 35.44, 0.69 42.48" stroke="#1e1e1e" stroke-width="2" fill="none"></path></g></g><mask></mask><g stroke-linecap="round"><g transform="translate(1689.8809523809523 251.98680337307917) rotate(0 0 21.25)"><path d="M-0.36 -0.47 C-0.37 6.65, -0.05 35.31, 0.07 42.44 M0.45 0.47 C0.37 7.71, -0.28 36.05, -0.32 43.11" stroke="#1e1e1e" stroke-width="2" fill="none"></path></g></g><mask></mask><g stroke-linecap="round"><g transform="translate(1757.3809523809523 251.98680337307917) rotate(0 0 21.25)"><path d="M0.07 -0.06 C0.2 7.07, 0.35 35.19, 0.39 42.31 M-0.55 -0.57 C-0.43 6.68, 0.05 35.87, 0.15 42.92" stroke="#1e1e1e" stroke-width="2" fill="none"></path></g></g><mask></mask><g stroke-linecap="round"><g transform="translate(1822.3809523809523 251.98680337307917) rotate(0 0 21.25)"><path d="M0.39 -0.19 C0.42 6.93, 0.4 35.6, 0.28 42.66 M-0.08 -0.76 C-0.1 6.2, 0.12 34.55, -0.01 41.78" stroke="#1e1e1e" stroke-width="2" fill="none"></path></g></g><mask></mask><g stroke-linecap="round"><g transform="translate(1894.8809523809523 251.98680337307917) rotate(0 0 21.25)"><path d="M0.28 0.16 C0.16 7.23, -0.34 35.09, -0.32 42.2 M-0.24 -0.23 C-0.21 6.92, 0.66 35.72, 0.75 42.74" stroke="#1e1e1e" stroke-width="2" fill="none"></path></g></g><mask></mask><g transform="translate(1721.547619047619 216.66666666666646) rotate(0 40 12.5)"><text x="0" y="17.52" font-family="Virgil, Segoe UI Emoji" font-size="20px" fill="#1e1e1e" text-anchor="start" style="white-space: pre;" direction="ltr" dominant-baseline="alphabetic">内部节点</text></g><g stroke-linecap="round" transform="translate(977.3809523809525 45.32013670641271) rotate(0 227.5 21.25)"><path d="M10.63 0 C157.68 -0.75, 307.27 -1.86, 444.38 0 M10.63 0 C127.6 -1.37, 245.37 -2.22, 444.38 0 M444.38 0 C451.71 0.4, 455.92 2.38, 455 10.63 M444.38 0 C450.46 1.97, 454.55 2.13, 455 10.63 M455 10.63 C456.33 15.76, 455.59 18.2, 455 31.88 M455 10.63 C455.31 17.94, 454.21 26.51, 455 31.88 M455 31.88 C456.2 39.74, 452.83 40.85, 444.38 42.5 M455 31.88 C452.78 37.57, 449.79 42.65, 444.38 42.5 M444.38 42.5 C304 40.78, 162.68 41.17, 10.63 42.5 M444.38 42.5 C298.12 44.05, 150.99 43.36, 10.63 42.5 M10.63 42.5 C2.19 41.93, -1.33 38.97, 0 31.88 M10.63 42.5 C3.03 44.19, 0.23 37.83, 0 31.88 M0 31.88 C0.38 25.71, -0.91 14.72, 0 10.63 M0 31.88 C0.75 26.53, 0.73 19.09, 0 10.63 M0 10.63 C-0.18 4.65, 4.21 0.26, 10.63 0 M0 10.63 C0.48 3, 2.1 0.2, 10.63 0" stroke="#1e1e1e" stroke-width="2" fill="none"></path></g><g transform="translate(989.8809523809525 57.40345732408849) rotate(0 9.319992065429688 12.5)"><text x="0" y="17.52" font-family="Virgil, Segoe UI Emoji" font-size="20px" fill="#1e1e1e" text-anchor="start" style="white-space: pre;" direction="ltr" dominant-baseline="alphabetic">P1</text></g><g stroke-linecap="round"><g transform="translate(1017.3809523809525 45.32013670641271) rotate(0 0 21.25)"><path d="M-0.52 -0.16 C-0.47 6.9, 0.31 35.76, 0.35 42.94 M0.22 -0.72 C0.22 6.42, 0.26 35.06, 0.1 42.19" stroke="#1e1e1e" stroke-width="2" fill="none"></path></g></g><mask></mask><g transform="translate(1034.8809523809525 54.90345732408849) rotate(0 20.139984130859375 12.5)"><text x="0" y="17.52" font-family="Virgil, Segoe UI Emoji" font-size="20px" fill="#1e1e1e" text-anchor="start" style="white-space: pre;" direction="ltr" dominant-baseline="alphabetic">id=9</text></g><g transform="translate(1102.3809523809525 52.40345732408849) rotate(0 13.729988098144531 12.5)"><text x="0" y="17.52" font-family="Virgil, Segoe UI Emoji" font-size="20px" fill="#1e1e1e" text-anchor="start" style="white-space: pre;" direction="ltr" dominant-baseline="alphabetic">P2</text></g><g transform="translate(1149.8809523809525 57.403419177115836) rotate(0 15.6099853515625 12.5)"><text x="0" y="17.52" font-family="Virgil, Segoe UI Emoji" font-size="20px" fill="#1e1e1e" text-anchor="start" style="white-space: pre;" direction="ltr" dominant-baseline="alphabetic">null</text></g><g transform="translate(1224.8809523809525 57.403419177115836) rotate(0 13.419990539550781 12.5)"><text x="0" y="17.52" font-family="Virgil, Segoe UI Emoji" font-size="20px" fill="#1e1e1e" text-anchor="start" style="white-space: pre;" direction="ltr" dominant-baseline="alphabetic">P3</text></g><g transform="translate(1287.3809523809525 57.403419177115836) rotate(0 15.6099853515625 12.5)"><text x="0" y="17.52" font-family="Virgil, Segoe UI Emoji" font-size="20px" fill="#1e1e1e" text-anchor="start" style="white-space: pre;" direction="ltr" dominant-baseline="alphabetic">null</text></g><g transform="translate(1369.8809523809525 54.903419177115836) rotate(0 22.439979553222656 12.5)"><text x="0" y="17.52" font-family="Virgil, Segoe UI Emoji" font-size="20px" fill="#1e1e1e" text-anchor="start" style="white-space: pre;" direction="ltr" dominant-baseline="alphabetic">Pend</text></g><g stroke-linecap="round"><g transform="translate(1089.8809523809525 45.32013670641271) rotate(0 0 21.25)"><path d="M-0.11 -0.34 C-0.15 6.72, -0.51 35.62, -0.51 42.81 M-0.83 0.68 C-0.69 7.82, 0.4 35.13, 0.47 42.01" stroke="#1e1e1e" stroke-width="2" fill="none"></path></g></g><mask></mask><g stroke-linecap="round"><g transform="translate(1139.8809523809525 45.32013670641271) rotate(0 0 21.25)"><path d="M-0.51 0.31 C-0.5 7.51, -0.18 35.78, -0.06 42.83 M0.23 0 C0.17 7.07, -0.48 34.82, -0.53 42.04" stroke="#1e1e1e" stroke-width="2" fill="none"></path></g></g><mask></mask><g stroke-linecap="round"><g transform="translate(1207.3809523809525 45.32013670641271) rotate(0 0 21.25)"><path d="M-0.06 0.33 C0.05 7.38, 0.24 35.53, 0.2 42.63 M-0.76 0.03 C-0.66 6.88, -0.39 34.73, -0.13 41.73" stroke="#1e1e1e" stroke-width="2" fill="none"></path></g></g><mask></mask><g stroke-linecap="round"><g transform="translate(1272.3809523809525 45.32013670641271) rotate(0 0 21.25)"><path d="M0.2 0.13 C0.15 7.22, -0.27 35.86, -0.35 42.9 M-0.37 -0.28 C-0.23 6.63, 0.77 34.94, 0.71 42.13" stroke="#1e1e1e" stroke-width="2" fill="none"></path></g></g><mask></mask><g stroke-linecap="round"><g transform="translate(1344.8809523809525 45.32013670641271) rotate(0 0 21.25)"><path d="M-0.35 0.4 C-0.42 7.43, -0.34 35.4, -0.24 42.36 M0.48 0.12 C0.29 7.23, -0.72 35.91, -0.8 42.99" stroke="#1e1e1e" stroke-width="2" fill="none"></path></g></g><mask></mask><g transform="translate(1171.5476190476193 10) rotate(0 30 12.5)"><text x="0" y="17.52" font-family="Virgil, Segoe UI Emoji" font-size="20px" fill="#1e1e1e" text-anchor="start" style="white-space: pre;" direction="ltr" dominant-baseline="alphabetic">根节点</text></g><g stroke-linecap="round"><g transform="translate(998.2142857142854 92.4681454970688) rotate(0 -48.33333333333326 83.33333333333334)"><path d="M-0.38 0.57 C-16.44 28.18, -79.87 139.33, -96.04 166.85 M1.63 -0.18 C-14.57 28.16, -80.58 140.71, -96.66 168.48" stroke="#1e1e1e" stroke-width="2" fill="none"></path></g><g transform="translate(998.2142857142854 92.4681454970688) rotate(0 -48.33333333333326 83.33333333333334)"><path d="M-92.21 143.88 C-92.49 152.97, -94.58 158.79, -96.66 168.48 M-92.21 143.88 C-93.21 149.3, -94.06 154.69, -96.66 168.48" stroke="#1e1e1e" stroke-width="2" fill="none"></path></g><g transform="translate(998.2142857142854 92.4681454970688) rotate(0 -48.33333333333326 83.33333333333334)"><path d="M-77.44 152.5 C-82.63 158.72, -89.56 161.71, -96.66 168.48 M-77.44 152.5 C-81.7 155.96, -85.78 159.47, -96.66 168.48" stroke="#1e1e1e" stroke-width="2" fill="none"></path></g></g><mask></mask><g stroke-linecap="round"><g transform="translate(1121.5476190476188 92.4681454970688) rotate(0 203.33333333333331 79.99999999999997)"><path d="M-1.17 1.05 C66.69 27.79, 339.31 133.56, 407.2 160.17 M0.42 0.56 C68.16 27.54, 339.08 135.43, 406.54 161.8" stroke="#1e1e1e" stroke-width="2" fill="none"></path></g><g transform="translate(1121.5476190476188 92.4681454970688) rotate(0 203.33333333333331 79.99999999999997)"><path d="M381.55 161.12 C390.98 162.47, 397.18 161.01, 406.54 161.8 M381.55 161.12 C389.96 161.85, 400.42 162.15, 406.54 161.8" stroke="#1e1e1e" stroke-width="2" fill="none"></path></g><g transform="translate(1121.5476190476188 92.4681454970688) rotate(0 203.33333333333331 79.99999999999997)"><path d="M387.83 145.21 C395.3 151.39, 399.57 154.81, 406.54 161.8 M387.83 145.21 C394.01 151.63, 402.2 157.67, 406.54 161.8" stroke="#1e1e1e" stroke-width="2" fill="none"></path></g></g><mask></mask><g stroke-linecap="round"><g transform="translate(461.5476190476188 305.8014788304021) rotate(0 1.6666666666667425 73.33333333333331)"><path d="M-0.38 0.44 C-0.07 25.08, 1.76 122.17, 2.28 146.69 M1.63 -0.37 C2.26 24.57, 4.43 123.89, 4.45 148.25" stroke="#1e1e1e" stroke-width="2" fill="none"></path></g><g transform="translate(461.5476190476188 305.8014788304021) rotate(0 1.6666666666667425 73.33333333333331)"><path d="M-4.41 124.87 C-0.91 131.03, 1.39 139.72, 4.45 148.25 M-4.41 124.87 C-1.65 134.53, 2.8 142.3, 4.45 148.25" stroke="#1e1e1e" stroke-width="2" fill="none"></path></g><g transform="translate(461.5476190476188 305.8014788304021) rotate(0 1.6666666666667425 73.33333333333331)"><path d="M12.69 124.65 C10.42 130.83, 6.96 139.6, 4.45 148.25 M12.69 124.65 C9 134.43, 6.99 142.29, 4.45 148.25" stroke="#1e1e1e" stroke-width="2" fill="none"></path></g></g><mask></mask><g stroke-linecap="round"><g transform="translate(581.5476190476188 302.46814549706875) rotate(0 1.6666666666667425 75)"><path d="M0.6 -0.8 C1.15 24.17, 1.87 125.64, 2.38 150.84 M-0.54 1.39 C0.45 25.95, 3.99 124.68, 4.6 149.15" stroke="#1e1e1e" stroke-width="2" fill="none"></path></g><g transform="translate(581.5476190476188 302.46814549706875) rotate(0 1.6666666666667425 75)"><path d="M-4.68 125.94 C-3.72 129.59, 1.12 137.04, 4.6 149.15 M-4.68 125.94 C-1.5 134.61, 0.59 140.91, 4.6 149.15" stroke="#1e1e1e" stroke-width="2" fill="none"></path></g><g transform="translate(581.5476190476188 302.46814549706875) rotate(0 1.6666666666667425 75)"><path d="M12.41 125.4 C9.49 129.26, 10.44 136.84, 4.6 149.15 M12.41 125.4 C9.92 134.15, 6.35 140.63, 4.6 149.15" stroke="#1e1e1e" stroke-width="2" fill="none"></path></g></g><mask></mask><g stroke-linecap="round"><g transform="translate(708.2142857142857 309.13481216373555) rotate(0 215 73.33333333333331)"><path d="M-1.07 -0.8 C70.39 23.51, 357.78 121.97, 429.76 146.55 M0.57 1.39 C71.77 25.84, 357.03 123.59, 428.69 148.03" stroke="#1e1e1e" stroke-width="2" fill="none"></path></g><g transform="translate(708.2142857142857 309.13481216373555) rotate(0 215 73.33333333333331)"><path d="M403.69 148.52 C411.92 148.16, 422.63 149.77, 428.69 148.03 M403.69 148.52 C411.38 147.72, 418.75 148.85, 428.69 148.03" stroke="#1e1e1e" stroke-width="2" fill="none"></path></g><g transform="translate(708.2142857142857 309.13481216373555) rotate(0 215 73.33333333333331)"><path d="M409.23 132.34 C415.42 138.12, 424.02 145.92, 428.69 148.03 M409.23 132.34 C415.38 136.38, 421.09 142.37, 428.69 148.03" stroke="#1e1e1e" stroke-width="2" fill="none"></path></g></g><mask></mask><g stroke-linecap="round"><g transform="translate(1534.8809523809523 295.8014788304021) rotate(0 71.66666666666663 81.66666666666666)"><path d="M-0.42 -0.38 C23.38 26.86, 119.39 136.59, 143.38 163.86 M1.56 -1.62 C25.16 25.22, 118.91 134.33, 142.46 162.01" stroke="#1e1e1e" stroke-width="2" fill="none"></path></g><g transform="translate(1534.8809523809523 295.8014788304021) rotate(0 71.66666666666663 81.66666666666666)"><path d="M120.69 149.73 C127.64 154.14, 136.68 158.66, 142.46 162.01 M120.69 149.73 C126.63 153.44, 132.88 156.99, 142.46 162.01" stroke="#1e1e1e" stroke-width="2" fill="none"></path></g><g transform="translate(1534.8809523809523 295.8014788304021) rotate(0 71.66666666666663 81.66666666666666)"><path d="M133.68 138.61 C136.18 146.82, 140.72 155.19, 142.46 162.01 M133.68 138.61 C135.84 145.45, 138.3 152.26, 142.46 162.01" stroke="#1e1e1e" stroke-width="2" fill="none"></path></g></g><mask></mask><g stroke-linecap="round"><g transform="translate(1664.8809523809523 295.8014788304022) rotate(0 285 81.66666666666663)"><path d="M0.29 -0.9 C95.45 26.54, 474.69 137.08, 569.77 164.41 M-1.01 1.24 C94.07 28.38, 473.46 135.68, 568.7 162.85" stroke="#1e1e1e" stroke-width="2" fill="none"></path></g><g transform="translate(1664.8809523809523 295.8014788304022) rotate(0 285 81.66666666666663)"><path d="M543.77 164.66 C547.34 163.85, 555.71 165.19, 568.7 162.85 M543.77 164.66 C551.75 163.62, 558.28 163.97, 568.7 162.85" stroke="#1e1e1e" stroke-width="2" fill="none"></path></g><g transform="translate(1664.8809523809523 295.8014788304022) rotate(0 285 81.66666666666663)"><path d="M548.44 148.21 C551.04 150.76, 558.45 155.44, 568.7 162.85 M548.44 148.21 C555 151.83, 560.22 156.8, 568.7 162.85" stroke="#1e1e1e" stroke-width="2" fill="none"></path></g></g><mask></mask><g transform="translate(424.2142857142858 352.46814549706886) rotate(0 12.449989318847656 12.5)"><text x="0" y="17.52" font-family="Virgil, Segoe UI Emoji" font-size="20px" fill="#1e1e1e" text-anchor="start" style="white-space: pre;" direction="ltr" dominant-baseline="alphabetic">&lt;4</text></g><g transform="translate(588.2142857142857 396.46814549706886) rotate(0 30.889976501464844 12.5)"><text x="0" y="17.52" font-family="Virgil, Segoe UI Emoji" font-size="20px" fill="#1e1e1e" text-anchor="start" style="white-space: pre;" direction="ltr" dominant-baseline="alphabetic">&gt;4&amp;&lt;6</text></g><g transform="translate(912.2142857142857 348.46814549706886) rotate(0 30.579978942871094 12.5)"><text x="0" y="17.52" font-family="Virgil, Segoe UI Emoji" font-size="20px" fill="#1e1e1e" text-anchor="start" style="white-space: pre;" direction="ltr" dominant-baseline="alphabetic">&gt;6&amp;&lt;9</text></g><g transform="translate(966.8809523809525 168.46814549706892) rotate(0 12.139991760253906 12.5)"><text x="0" y="17.52" font-family="Virgil, Segoe UI Emoji" font-size="20px" fill="#1e1e1e" text-anchor="start" style="white-space: pre;" direction="ltr" dominant-baseline="alphabetic">&lt;9</text></g><g transform="translate(1306.8809523809523 181.80147883040223) rotate(0 10.939994812011719 12.5)"><text x="0" y="17.52" font-family="Virgil, Segoe UI Emoji" font-size="20px" fill="#1e1e1e" text-anchor="start" style="white-space: pre;" direction="ltr" dominant-baseline="alphabetic">&gt;9</text></g><g transform="translate(1626.8809523809523 375.13481216373555) rotate(0 29.59998321533203 12.5)"><text x="0" y="17.52" font-family="Virgil, Segoe UI Emoji" font-size="20px" fill="#1e1e1e" text-anchor="start" style="white-space: pre;" direction="ltr" dominant-baseline="alphabetic">&gt;9&amp;&lt;11</text></g><g transform="translate(1980.2142857142858 358.468145497069) rotate(0 10.269996643066406 12.5)"><text x="0" y="17.52" font-family="Virgil, Segoe UI Emoji" font-size="20px" fill="#1e1e1e" text-anchor="start" style="white-space: pre;" direction="ltr" dominant-baseline="alphabetic">&gt;11</text></g><g stroke-linecap="round"><g transform="translate(26.880952380952863 504.46814549706886) rotate(0 715.9999999999998 69.99999999999994)"><path d="M0.46 0.62 C239.12 23.7, 1194.71 116.32, 1433.1 139.39 M-0.76 -0.09 C237.75 23.05, 1193.76 117.28, 1432.74 140.61" stroke="#1e1e1e" stroke-width="2" fill="none"></path></g><g transform="translate(26.880952380952863 504.46814549706886) rotate(0 715.9999999999998 69.99999999999994)"><path d="M1408.52 146.82 C1419.04 146.13, 1426.51 139.86, 1432.74 140.61 M1408.52 146.82 C1414.25 146.26, 1418.38 144.65, 1432.74 140.61" stroke="#1e1e1e" stroke-width="2" fill="none"></path></g><g transform="translate(26.880952380952863 504.46814549706886) rotate(0 715.9999999999998 69.99999999999994)"><path d="M1410.19 129.8 C1420.19 135.81, 1427 136.24, 1432.74 140.61 M1410.19 129.8 C1415.7 133.02, 1419.46 135.19, 1432.74 140.61" stroke="#1e1e1e" stroke-width="2" fill="none"></path></g></g><mask></mask><g stroke-linecap="round"><g transform="translate(146.88095238095286 500.46814549706886) rotate(0 655.9999999999998 91.99999999999994)"><path d="M-0.61 -0.13 C218.11 30.42, 1094.17 153.17, 1312.76 183.8 M1.28 -1.24 C219.86 29.45, 1093.55 154.22, 1312.22 185.23" stroke="#1e1e1e" stroke-width="2" fill="none"></path></g><g transform="translate(146.88095238095286 500.46814549706886) rotate(0 655.9999999999998 91.99999999999994)"><path d="M1287.75 190.39 C1295.79 190.05, 1303.93 185.26, 1312.22 185.23 M1287.75 190.39 C1293.9 188.44, 1300.32 187.64, 1312.22 185.23" stroke="#1e1e1e" stroke-width="2" fill="none"></path></g><g transform="translate(146.88095238095286 500.46814549706886) rotate(0 655.9999999999998 91.99999999999994)"><path d="M1290.17 173.46 C1297.46 178.82, 1304.78 179.76, 1312.22 185.23 M1290.17 173.46 C1295.59 176.15, 1301.35 179.99, 1312.22 185.23" stroke="#1e1e1e" stroke-width="2" fill="none"></path></g></g><mask></mask><g stroke-linecap="round"><g transform="translate(270.88095238095275 492.46814549706886) rotate(0 593.9999999999999 115.99999999999994)"><path d="M-0.04 0.79 C198.01 39.14, 989.89 192.64, 1187.88 231.13 M-1.52 0.16 C196.39 39.16, 988.77 193.42, 1186.88 232.21" stroke="#1e1e1e" stroke-width="2" fill="none"></path></g><g transform="translate(270.88095238095275 492.46814549706886) rotate(0 593.9999999999999 115.99999999999994)"><path d="M1162.18 236.1 C1170.09 234.87, 1173.94 233.87, 1186.88 232.21 M1162.18 236.1 C1168.67 234.1, 1175.55 234.06, 1186.88 232.21" stroke="#1e1e1e" stroke-width="2" fill="none"></path></g><g transform="translate(270.88095238095275 492.46814549706886) rotate(0 593.9999999999999 115.99999999999994)"><path d="M1165.46 219.31 C1172.63 222.59, 1175.6 226.09, 1186.88 232.21 M1165.46 219.31 C1170.91 221.96, 1176.89 226.54, 1186.88 232.21" stroke="#1e1e1e" stroke-width="2" fill="none"></path></g></g><mask></mask><g stroke-linecap="round"><g transform="translate(598.8809523809527 500.46814549706886) rotate(0 429.9999999999999 131.99999999999994)"><path d="M-0.75 1.13 C142.43 44.9, 716.12 219.84, 859.56 263.67 M1.06 0.67 C144 45.14, 715.38 220.9, 858.39 265.04" stroke="#1e1e1e" stroke-width="2" fill="none"></path></g><g transform="translate(598.8809523809527 500.46814549706886) rotate(0 429.9999999999999 131.99999999999994)"><path d="M833.42 266.29 C843.86 265.29, 850.02 265.44, 858.39 265.04 M833.42 266.29 C841.45 265.38, 848.65 265.81, 858.39 265.04" stroke="#1e1e1e" stroke-width="2" fill="none"></path></g><g transform="translate(598.8809523809527 500.46814549706886) rotate(0 429.9999999999999 131.99999999999994)"><path d="M838.45 249.95 C847.31 254.53, 851.74 260.3, 858.39 265.04 M838.45 249.95 C844.81 254.11, 850.44 259.61, 858.39 265.04" stroke="#1e1e1e" stroke-width="2" fill="none"></path></g></g><mask></mask><g stroke-linecap="round"><g transform="translate(714.8809523809527 500.46814549706886) rotate(0 369.9999999999999 149.99999999999994)"><path d="M-0.14 -0.9 C123.18 49.11, 616.05 249.83, 739.22 299.93 M-1.68 1.24 C122.1 51.46, 617.71 251.49, 741.53 301.44" stroke="#1e1e1e" stroke-width="2" fill="none"></path></g><g transform="translate(714.8809523809527 500.46814549706886) rotate(0 369.9999999999999 149.99999999999994)"><path d="M716.54 300.57 C720.99 299.52, 728.33 299.21, 741.53 301.44 M716.54 300.57 C724.07 301.39, 730.51 301.92, 741.53 301.44" stroke="#1e1e1e" stroke-width="2" fill="none"></path></g><g transform="translate(714.8809523809527 500.46814549706886) rotate(0 369.9999999999999 149.99999999999994)"><path d="M722.94 284.72 C725.85 287.42, 731.66 290.89, 741.53 301.44 M722.94 284.72 C728.72 289.89, 733.37 294.84, 741.53 301.44" stroke="#1e1e1e" stroke-width="2" fill="none"></path></g></g><mask></mask><g stroke-linecap="round"><g transform="translate(1154.8809523809527 504.46814549706886) rotate(0 149.9999999999999 169.99999999999994)"><path d="M0.47 -0.06 C50.53 56.55, 251.1 283.45, 300.95 340.1 M-0.75 -1.13 C49.19 55.65, 250.61 284.65, 300.5 341.69" stroke="#1e1e1e" stroke-width="2" fill="none"></path></g><g transform="translate(1154.8809523809527 504.46814549706886) rotate(0 149.9999999999999 169.99999999999994)"><path d="M278.58 329.67 C286.15 335.35, 294.04 337.28, 300.5 341.69 M278.58 329.67 C285.14 333.42, 292.32 337.74, 300.5 341.69" stroke="#1e1e1e" stroke-width="2" fill="none"></path></g><g transform="translate(1154.8809523809527 504.46814549706886) rotate(0 149.9999999999999 169.99999999999994)"><path d="M291.43 318.4 C294.57 328.05, 297.99 333.89, 300.5 341.69 M291.43 318.4 C294.32 325.33, 297.77 332.92, 300.5 341.69" stroke="#1e1e1e" stroke-width="2" fill="none"></path></g></g><mask></mask><g stroke-linecap="round"><g transform="translate(1274.8809523809527 504.46814549706886) rotate(0 91.99999999999989 191.99999999999994)"><path d="M0.59 -0.88 C31.12 62.81, 153.24 318.69, 183.94 383.03 M-0.57 1.27 C29.74 65, 152.13 320.37, 182.97 384.05" stroke="#1e1e1e" stroke-width="2" fill="none"></path></g><g transform="translate(1274.8809523809527 504.46814549706886) rotate(0 91.99999999999989 191.99999999999994)"><path d="M165.07 366.59 C170.24 372.75, 176.58 380.53, 182.97 384.05 M165.07 366.59 C171.96 373.53, 179.67 380.98, 182.97 384.05" stroke="#1e1e1e" stroke-width="2" fill="none"></path></g><g transform="translate(1274.8809523809527 504.46814549706886) rotate(0 91.99999999999989 191.99999999999994)"><path d="M180.48 359.18 C180.11 368.11, 180.85 378.57, 182.97 384.05 M180.48 359.18 C181.24 369.07, 182.87 379.44, 182.97 384.05" stroke="#1e1e1e" stroke-width="2" fill="none"></path></g></g><mask></mask><g stroke-linecap="round"><g transform="translate(1390.8809523809525 504.46814549706886) rotate(0 32 213.99999999999994)"><path d="M-1.01 1.16 C10.02 72.78, 54.35 357.9, 65.17 429.08 M0.66 0.72 C11.72 72.09, 54.42 356.04, 64.84 427.53" stroke="#1e1e1e" stroke-width="2" fill="none"></path></g><g transform="translate(1390.8809523809525 504.46814549706886) rotate(0 32 213.99999999999994)"><path d="M52.94 405.55 C57.32 412.37, 59.78 415.13, 64.84 427.53 M52.94 405.55 C55.77 412.18, 60.71 419.34, 64.84 427.53" stroke="#1e1e1e" stroke-width="2" fill="none"></path></g><g transform="translate(1390.8809523809525 504.46814549706886) rotate(0 32 213.99999999999994)"><path d="M69.85 403.03 C70.55 410.26, 69.35 413.56, 64.84 427.53 M69.85 403.03 C67.27 410.36, 66.82 418.31, 64.84 427.53" stroke="#1e1e1e" stroke-width="2" fill="none"></path></g></g><mask></mask><g stroke-linecap="round"><g transform="translate(1698.8809523809527 504.46814549706886) rotate(0 -210 229.99999999999994)"><path d="M0.38 -1.12 C-69.41 54.38, -378.11 255.58, -418.98 332.56 C-459.85 409.53, -273.87 439.55, -244.83 460.75 M-0.87 0.9 C-70.72 56.09, -379.14 254.41, -419.39 330.72 C-459.64 407.04, -271.46 437.13, -242.37 458.81" stroke="#1e1e1e" stroke-width="2" fill="none"></path></g><g transform="translate(1698.8809523809527 504.46814549706886) rotate(0 -210 229.99999999999994)"><path d="M-267.37 458.27 C-262.21 460.04, -252.39 457.11, -242.37 458.81 M-267.37 458.27 C-257.69 459.41, -249.16 458.92, -242.37 458.81" stroke="#1e1e1e" stroke-width="2" fill="none"></path></g><g transform="translate(1698.8809523809527 504.46814549706886) rotate(0 -210 229.99999999999994)"><path d="M-261.17 442.33 C-257.82 448.6, -249.74 450.15, -242.37 458.81 M-261.17 442.33 C-253.84 449.24, -247.56 454.54, -242.37 458.81" stroke="#1e1e1e" stroke-width="2" fill="none"></path></g></g><mask></mask><g stroke-linecap="round"><g transform="translate(1818.8809523809527 500.46814549706886) rotate(0 -349.99999999999994 251.99999999999994)"><path d="M1.17 0.36 C-115.49 49.71, -639.72 211.62, -700.39 295.48 C-761.05 379.35, -418.89 468.98, -362.81 503.56 M0.32 -0.49 C-116.49 49.06, -640.99 212.56, -701.54 296.75 C-762.08 380.93, -419.27 470.18, -362.96 504.65" stroke="#1e1e1e" stroke-width="2" fill="none"></path></g><g transform="translate(1818.8809523809527 500.46814549706886) rotate(0 -349.99999999999994 251.99999999999994)"><path d="M-387.94 503.78 C-380.75 503.12, -375.63 505.97, -362.96 504.65 M-387.94 503.78 C-380.42 505.19, -374.96 504.65, -362.96 504.65" stroke="#1e1e1e" stroke-width="2" fill="none"></path></g><g transform="translate(1818.8809523809527 500.46814549706886) rotate(0 -349.99999999999994 251.99999999999994)"><path d="M-381.54 487.92 C-376.11 491.51, -372.68 498.54, -362.96 504.65 M-381.54 487.92 C-375.69 493.45, -371.92 497.09, -362.96 504.65" stroke="#1e1e1e" stroke-width="2" fill="none"></path></g></g><mask></mask><g stroke-linecap="round"><g transform="translate(2246.8809523809523 500.46814549706886) rotate(0 -132 267.99999999999994)"><path d="M-0.12 -0.34 C-44.3 89.24, -220.56 447.09, -264.61 536.5 M-1.64 -1.57 C-45.47 87.74, -218.26 444.79, -262.22 534.65" stroke="#1e1e1e" stroke-width="2" fill="none"></path></g><g transform="translate(2246.8809523809523 500.46814549706886) rotate(0 -132 267.99999999999994)"><path d="M-259.64 509.78 C-261.29 517.29, -260.77 526.16, -262.22 534.65 M-259.64 509.78 C-259.93 516.61, -260.66 526.07, -262.22 534.65" stroke="#1e1e1e" stroke-width="2" fill="none"></path></g><g transform="translate(2246.8809523809523 500.46814549706886) rotate(0 -132 267.99999999999994)"><path d="M-244.26 517.26 C-251.13 522.19, -255.89 528.49, -262.22 534.65 M-244.26 517.26 C-249.34 521.66, -254.91 528.78, -262.22 534.65" stroke="#1e1e1e" stroke-width="2" fill="none"></path></g></g><mask></mask><g stroke-linecap="round"><g transform="translate(2366.8809523809523 504.46814549706886) rotate(0 -194 289.99999999999994)"><path d="M0.09 0.41 C-64.86 97.08, -324.33 483.05, -388.86 579.81 M-1.33 -0.42 C-65.96 96.45, -322.25 484.66, -386.59 581.24" stroke="#1e1e1e" stroke-width="2" fill="none"></path></g><g transform="translate(2366.8809523809523 504.46814549706886) rotate(0 -194 289.99999999999994)"><path d="M-380.74 556.94 C-382.25 564.43, -385.4 576.29, -386.59 581.24 M-380.74 556.94 C-382.73 566.15, -385.96 575, -386.59 581.24" stroke="#1e1e1e" stroke-width="2" fill="none"></path></g><g transform="translate(2366.8809523809523 504.46814549706886) rotate(0 -194 289.99999999999994)"><path d="M-366.49 566.38 C-373.21 570.42, -381.59 578.81, -386.59 581.24 M-366.49 566.38 C-373.79 572.09, -382.39 577.38, -386.59 581.24" stroke="#1e1e1e" stroke-width="2" fill="none"></path></g></g><mask></mask></svg>