<svg version="1.1" xmlns="http://www.w3.org/2000/svg" viewBox="0 0 950.1998748779297 553.5" width="950.1998748779297" height="553.5">
  <!-- svg-source:excalidraw -->
  
  <defs>
    <style class="style-fonts">
      @font-face {
        font-family: "Virgil";
        src: url("https://excalidraw.com/Virgil.woff2");
      }
      @font-face {
        font-family: "Cascadia";
        src: url("https://excalidraw.com/Cascadia.woff2");
      }
      @font-face {
        font-family: "Assistant";
        src: url("https://excalidraw.com/Assistant-Regular.woff2");
      }
    </style>
    
  </defs>
  <rect x="0" y="0" width="950.1998748779297" height="553.5" fill="#ffffff"></rect><g stroke-linecap="round" transform="translate(298 66) rotate(0 259 19)"><path d="M9.5 0 C179.63 -0.34, 349.85 0.12, 508.5 0 M9.5 0 C180.44 1.81, 350.7 1.9, 508.5 0 M508.5 0 C515.28 0.55, 517.89 2.44, 518 9.5 M508.5 0 C514.45 -1.6, 516.64 4.97, 518 9.5 M518 9.5 C517.64 15.57, 518.02 22.52, 518 28.5 M518 9.5 C518.75 14.03, 518.53 18.87, 518 28.5 M518 28.5 C517.69 35.13, 513.45 39.24, 508.5 38 M518 28.5 C517.3 33.36, 512.93 38.73, 508.5 38 M508.5 38 C388.76 36.83, 269.64 37.25, 9.5 38 M508.5 38 C405.57 39.95, 302.92 40.2, 9.5 38 M9.5 38 C3.28 39.34, -0.59 36.51, 0 28.5 M9.5 38 C3.95 40.22, -1.84 34.85, 0 28.5 M0 28.5 C0.34 21.04, -0.45 17.64, 0 9.5 M0 28.5 C-0.44 24.38, -0.62 19.53, 0 9.5 M0 9.5 C-1.19 3.85, 3.25 1.57, 9.5 0 M0 9.5 C-0.39 4.99, 2.09 2.08, 9.5 0" stroke="#1e1e1e" stroke-width="2" fill="none"></path></g><g transform="translate(519.9800262451172 72.5) rotate(0 37.01997375488281 12.5)"><text x="37.01997375488281" y="17.52" font-family="Virgil, Segoe UI Emoji" font-size="20px" fill="#1e1e1e" text-anchor="middle" style="white-space: pre;" direction="ltr" dominant-baseline="alphabetic">id: 1,......</text></g><g stroke-linecap="round" transform="translate(297 107) rotate(0 259 19)"><path d="M9.5 0 C202.94 0.67, 395.71 -0.15, 508.5 0 M9.5 0 C191.64 -0.94, 373.7 -1.34, 508.5 0 M508.5 0 C515.74 1.22, 518.48 4.52, 518 9.5 M508.5 0 C514.52 2.07, 516.58 3.86, 518 9.5 M518 9.5 C518.08 16.48, 517.2 23.57, 518 28.5 M518 9.5 C518.65 15.73, 517.87 22.59, 518 28.5 M518 28.5 C516.34 33.5, 516.14 38.96, 508.5 38 M518 28.5 C517.5 34.75, 514.41 38.03, 508.5 38 M508.5 38 C406.8 37.53, 303.56 38.17, 9.5 38 M508.5 38 C316.75 38.97, 125.32 39.2, 9.5 38 M9.5 38 C4.24 38.63, -0.17 33.94, 0 28.5 M9.5 38 C4.85 39.81, 0.02 34.6, 0 28.5 M0 28.5 C-0.42 23.63, 0.95 18.13, 0 9.5 M0 28.5 C0.47 21.55, -0.34 13.26, 0 9.5 M0 9.5 C1.18 4.26, 4.78 -1.42, 9.5 0 M0 9.5 C0.99 3.14, 4.99 1.41, 9.5 0" stroke="#1e1e1e" stroke-width="2" fill="none"></path></g><g transform="translate(514.5700302124023 113.5) rotate(0 41.429969787597656 12.5)"><text x="41.429969787597656" y="17.52" font-family="Virgil, Segoe UI Emoji" font-size="20px" fill="#1e1e1e" text-anchor="middle" style="white-space: pre;" direction="ltr" dominant-baseline="alphabetic">id: 2,......</text></g><g stroke-linecap="round" transform="translate(297 147) rotate(0 259 19)"><path d="M9.5 0 C191.91 -0.76, 373.61 -1.38, 508.5 0 M9.5 0 C111.13 -1.95, 212.44 -1.56, 508.5 0 M508.5 0 C515.59 -1.02, 519.36 1.84, 518 9.5 M508.5 0 C515.25 -0.26, 516.06 4.11, 518 9.5 M518 9.5 C519.66 13.89, 519.52 17.34, 518 28.5 M518 9.5 C518.93 17.34, 518.91 23.55, 518 28.5 M518 28.5 C517.79 32.93, 516.12 36.32, 508.5 38 M518 28.5 C519.94 33.15, 513.1 38.65, 508.5 38 M508.5 38 C382.05 39.09, 255.99 37.85, 9.5 38 M508.5 38 C369.76 37.75, 230.94 38.28, 9.5 38 M9.5 38 C2.33 36.85, -1.07 35.66, 0 28.5 M9.5 38 C3.87 36.82, -0.6 34.27, 0 28.5 M0 28.5 C-1.04 22.28, -0.89 17.77, 0 9.5 M0 28.5 C0.49 22.29, -0.73 16.16, 0 9.5 M0 9.5 C-1.38 2.93, 4.55 0.07, 9.5 0 M0 9.5 C1.34 1.68, 3.06 -0.7, 9.5 0" stroke="#1e1e1e" stroke-width="2" fill="none"></path></g><g transform="translate(514.8800277709961 153.5) rotate(0 41.119972229003906 12.5)"><text x="41.119972229003906" y="17.52" font-family="Virgil, Segoe UI Emoji" font-size="20px" fill="#1e1e1e" text-anchor="middle" style="white-space: pre;" direction="ltr" dominant-baseline="alphabetic">id: 3,......</text></g><g stroke-linecap="round" transform="translate(297.5 186.5) rotate(0 259 19)"><path d="M9.5 0 C206 0.84, 403.83 0.63, 508.5 0 M9.5 0 C166.73 -1.26, 324.57 -1.76, 508.5 0 M508.5 0 C516.14 1.57, 516.88 3.89, 518 9.5 M508.5 0 C514.83 2.11, 518.63 1.52, 518 9.5 M518 9.5 C517.97 13.26, 519.75 17.27, 518 28.5 M518 9.5 C519.03 16.22, 519.03 24.77, 518 28.5 M518 28.5 C518.56 35.72, 514.69 36.23, 508.5 38 M518 28.5 C516.35 33.39, 513.37 36.59, 508.5 38 M508.5 38 C365.35 38.61, 224.19 38.81, 9.5 38 M508.5 38 C380.48 36.72, 251.62 36.82, 9.5 38 M9.5 38 C2.73 39.9, -1.94 33.55, 0 28.5 M9.5 38 C4.38 39.92, 2.16 33.24, 0 28.5 M0 28.5 C-1.29 23.65, 1.54 18.22, 0 9.5 M0 28.5 C0.43 24.21, 0.22 21.37, 0 9.5 M0 9.5 C-0.91 5.16, 4.67 -1.33, 9.5 0 M0 9.5 C-1.02 2.9, 5.02 1.81, 9.5 0" stroke="#1e1e1e" stroke-width="2" fill="none"></path></g><g transform="translate(515.7900314331055 193) rotate(0 40.70996856689453 12.5)"><text x="40.70996856689453" y="17.52" font-family="Virgil, Segoe UI Emoji" font-size="20px" fill="#1e1e1e" text-anchor="middle" style="white-space: pre;" direction="ltr" dominant-baseline="alphabetic">id: 4,......</text></g><g stroke-linecap="round" transform="translate(296.5 227.5) rotate(0 259 19)"><path d="M9.5 0 C197.18 -1.35, 385.27 -1.78, 508.5 0 M9.5 0 C205.68 0.95, 401.12 0.77, 508.5 0 M508.5 0 C514.83 1.84, 518.55 1.73, 518 9.5 M508.5 0 C512.96 1.22, 517.26 3.01, 518 9.5 M518 9.5 C519.7 16.44, 516.65 21.85, 518 28.5 M518 9.5 C518.44 14.59, 518.11 17.99, 518 28.5 M518 28.5 C516.56 33.58, 513.56 36.78, 508.5 38 M518 28.5 C517.66 36.85, 515.16 35.85, 508.5 38 M508.5 38 C338.27 39.16, 168.15 39.92, 9.5 38 M508.5 38 C340.29 39.61, 171.86 38.98, 9.5 38 M9.5 38 C4.22 39.67, 1.88 33.45, 0 28.5 M9.5 38 C1.46 37.03, -0.25 33.17, 0 28.5 M0 28.5 C-1.81 21.61, -0.1 18.73, 0 9.5 M0 28.5 C-0.44 24.27, 0.71 17.52, 0 9.5 M0 9.5 C-0.89 2.94, 4.78 1.57, 9.5 0 M0 9.5 C-1.4 4, 1.52 -2.13, 9.5 0" stroke="#1e1e1e" stroke-width="2" fill="none"></path></g><g transform="translate(515.0100326538086 234) rotate(0 40.489967346191406 12.5)"><text x="40.489967346191406" y="17.52" font-family="Virgil, Segoe UI Emoji" font-size="20px" fill="#1e1e1e" text-anchor="middle" style="white-space: pre;" direction="ltr" dominant-baseline="alphabetic">id: 5,......</text></g><g stroke-linecap="round" transform="translate(296.5 267.5) rotate(0 259 19)"><path d="M9.5 0 C138.69 1.6, 266.13 2.46, 508.5 0 M9.5 0 C198.44 -0.35, 387.49 -1.01, 508.5 0 M508.5 0 C513.21 1.06, 517.36 3.03, 518 9.5 M508.5 0 C514.35 2, 517.35 5.03, 518 9.5 M518 9.5 C516.82 18.57, 519.45 24.71, 518 28.5 M518 9.5 C517.3 15.45, 517.38 22.01, 518 28.5 M518 28.5 C517.71 36.59, 515.12 36.13, 508.5 38 M518 28.5 C518.93 36.25, 516.34 37.01, 508.5 38 M508.5 38 C368.59 39.05, 228.57 39.35, 9.5 38 M508.5 38 C311.64 37.05, 114.73 36.44, 9.5 38 M9.5 38 C1.68 37.16, -0.22 33.39, 0 28.5 M9.5 38 C2.49 39.77, -2.06 32.81, 0 28.5 M0 28.5 C-0.53 24.64, 1.87 19.74, 0 9.5 M0 28.5 C-0.57 20.8, 0.62 14.06, 0 9.5 M0 9.5 C-1.22 3.89, 1.73 -1.85, 9.5 0 M0 9.5 C1.42 1.88, 4.85 -0.04, 9.5 0" stroke="#1e1e1e" stroke-width="2" fill="none"></path></g><g transform="translate(514.7900314331055 274) rotate(0 40.70996856689453 12.5)"><text x="40.70996856689453" y="17.52" font-family="Virgil, Segoe UI Emoji" font-size="20px" fill="#1e1e1e" text-anchor="middle" style="white-space: pre;" direction="ltr" dominant-baseline="alphabetic">id: 6,......</text></g><g stroke-linecap="round" transform="translate(297.5 308.5) rotate(0 259 19)"><path d="M9.5 0 C181.39 -0.11, 354.23 -0.27, 508.5 0 M9.5 0 C148 -1.55, 285.84 -1.45, 508.5 0 M508.5 0 C514.97 0.95, 517.8 4.53, 518 9.5 M508.5 0 C515.34 0.72, 516.27 3.76, 518 9.5 M518 9.5 C517.33 18.39, 519.91 23.9, 518 28.5 M518 9.5 C518.22 17.07, 518.71 22.59, 518 28.5 M518 28.5 C518.97 35.74, 513.05 39.32, 508.5 38 M518 28.5 C520.22 35.5, 513.35 36.27, 508.5 38 M508.5 38 C338.76 40.5, 169.17 39.66, 9.5 38 M508.5 38 C404.12 39.64, 299.09 39.9, 9.5 38 M9.5 38 C4.14 38.2, 0.53 35.47, 0 28.5 M9.5 38 C3.46 37.74, 2.07 35.47, 0 28.5 M0 28.5 C-1.21 24.64, -0.12 20.39, 0 9.5 M0 28.5 C-0.91 24, 0.18 19.89, 0 9.5 M0 9.5 C0.7 3.13, 5.02 0.57, 9.5 0 M0 9.5 C-1.46 3.09, 4.21 1.47, 9.5 0" stroke="#1e1e1e" stroke-width="2" fill="none"></path></g><g transform="translate(516.8100280761719 315) rotate(0 39.689971923828125 12.5)"><text x="39.689971923828125" y="17.52" font-family="Virgil, Segoe UI Emoji" font-size="20px" fill="#1e1e1e" text-anchor="middle" style="white-space: pre;" direction="ltr" dominant-baseline="alphabetic">id: 7,......</text></g><g stroke-linecap="round" transform="translate(296.5 349.5) rotate(0 259 19)"><path d="M9.5 0 C130.37 0.84, 252.28 2.25, 508.5 0 M9.5 0 C172.9 -0.84, 336.21 -0.76, 508.5 0 M508.5 0 C515.27 0.63, 516.5 3.68, 518 9.5 M508.5 0 C516.47 0.44, 517.47 2.31, 518 9.5 M518 9.5 C519.43 17.9, 518.27 24.86, 518 28.5 M518 9.5 C518.59 16.89, 517.28 24.04, 518 28.5 M518 28.5 C519.93 35.41, 513.54 36.5, 508.5 38 M518 28.5 C518.93 34.63, 517.1 38.39, 508.5 38 M508.5 38 C325.3 37.71, 144.18 37.94, 9.5 38 M508.5 38 C348.99 39.73, 189.19 39.82, 9.5 38 M9.5 38 C3.42 37.77, 1.8 35.39, 0 28.5 M9.5 38 C2.12 35.99, -2.13 33.16, 0 28.5 M0 28.5 C-1.26 23.42, 1.09 13.66, 0 9.5 M0 28.5 C0.27 22.96, 0.81 17.73, 0 9.5 M0 9.5 C-1.27 3.1, 4.08 1.28, 9.5 0 M0 9.5 C0.97 2.6, 5.17 -0.76, 9.5 0" stroke="#1e1e1e" stroke-width="2" fill="none"></path></g><g transform="translate(513.5400314331055 356) rotate(0 41.95996856689453 12.5)"><text x="41.95996856689453" y="17.52" font-family="Virgil, Segoe UI Emoji" font-size="20px" fill="#1e1e1e" text-anchor="middle" style="white-space: pre;" direction="ltr" dominant-baseline="alphabetic">id: 8,......</text></g><g stroke-linecap="round" transform="translate(296.5 389.5) rotate(0 259 19)"><path d="M9.5 0 C114.84 -1.67, 220.15 -1.66, 508.5 0 M9.5 0 C183.04 -1.24, 356.11 -1.27, 508.5 0 M508.5 0 C516.25 0.38, 517.54 2.42, 518 9.5 M508.5 0 C517.06 2.27, 518.37 4.67, 518 9.5 M518 9.5 C519.26 17.32, 516.43 23.55, 518 28.5 M518 9.5 C518.75 16.33, 517.22 21.9, 518 28.5 M518 28.5 C518.81 34.65, 516.8 38.34, 508.5 38 M518 28.5 C519.51 36.02, 513.94 35.93, 508.5 38 M508.5 38 C328.84 39.91, 149.54 40.17, 9.5 38 M508.5 38 C353.96 38.59, 199.69 38.75, 9.5 38 M9.5 38 C2.26 36.25, -1.85 33.38, 0 28.5 M9.5 38 C4.35 37.66, 1.89 33.27, 0 28.5 M0 28.5 C-0.28 21.88, 0.32 14.58, 0 9.5 M0 28.5 C-0.78 22.81, 0.26 17.78, 0 9.5 M0 9.5 C0.85 2.68, 4.91 -0.66, 9.5 0 M0 9.5 C1.65 4.8, 3.46 0.51, 9.5 0" stroke="#1e1e1e" stroke-width="2" fill="none"></path></g><g transform="translate(515.1000289916992 396) rotate(0 40.39997100830078 12.5)"><text x="40.39997100830078" y="17.52" font-family="Virgil, Segoe UI Emoji" font-size="20px" fill="#1e1e1e" text-anchor="middle" style="white-space: pre;" direction="ltr" dominant-baseline="alphabetic">id: 9,......</text></g><g stroke-linecap="round" transform="translate(295.5 426.5) rotate(0 259 19)"><path d="M9.5 0 C118.75 1.2, 227.21 2.12, 508.5 0 M9.5 0 C203.23 1.93, 397.24 1.66, 508.5 0 M508.5 0 C513.92 1.11, 517.75 1.52, 518 9.5 M508.5 0 C516.32 -0.59, 518.57 4.27, 518 9.5 M518 9.5 C518.75 14.99, 516.22 21.14, 518 28.5 M518 9.5 C517.55 16.93, 517.33 23.17, 518 28.5 M518 28.5 C518.5 33.85, 515.34 39.49, 508.5 38 M518 28.5 C516.15 33.12, 515.95 37.21, 508.5 38 M508.5 38 C359.7 36.07, 209.84 36.04, 9.5 38 M508.5 38 C378.67 39.61, 248.58 39.74, 9.5 38 M9.5 38 C4.2 39.54, -0.59 34.02, 0 28.5 M9.5 38 C3.75 37, -1.96 35.15, 0 28.5 M0 28.5 C-1.73 24.32, 1 17.72, 0 9.5 M0 28.5 C-0.22 21.81, -0.76 14.28, 0 9.5 M0 9.5 C-1.18 1.96, 1.87 1.76, 9.5 0 M0 9.5 C-1.86 4.87, 3.25 -0.65, 9.5 0" stroke="#1e1e1e" stroke-width="2" fill="none"></path></g><g transform="translate(510.6000289916992 433) rotate(0 43.89997100830078 12.5)"><text x="43.89997100830078" y="17.52" font-family="Virgil, Segoe UI Emoji" font-size="20px" fill="#1e1e1e" text-anchor="middle" style="white-space: pre;" direction="ltr" dominant-baseline="alphabetic">id: 10,......</text></g><g stroke-linecap="round" transform="translate(296.5 465.5) rotate(0 259 19)"><path d="M9.5 0 C127.38 -0.5, 243.04 -0.88, 508.5 0 M9.5 0 C149.48 1.93, 289.78 1.37, 508.5 0 M508.5 0 C516.13 -0.51, 518.49 4.13, 518 9.5 M508.5 0 C514.49 -2.19, 519.09 4.29, 518 9.5 M518 9.5 C519.1 16.3, 517.46 19.92, 518 28.5 M518 9.5 C518.08 15.67, 518.09 23.49, 518 28.5 M518 28.5 C516.39 33.34, 515.8 37.31, 508.5 38 M518 28.5 C517.97 33.28, 512.77 38.73, 508.5 38 M508.5 38 C367.13 37.11, 227.13 38.18, 9.5 38 M508.5 38 C386.72 37.84, 264.4 37.37, 9.5 38 M9.5 38 C3.68 37.13, -1.7 35.11, 0 28.5 M9.5 38 C2.04 39.91, -0.71 32.92, 0 28.5 M0 28.5 C0.83 20.61, -0.17 15.15, 0 9.5 M0 28.5 C-0.38 22.32, -0.43 18.13, 0 9.5 M0 9.5 C-1.62 4.65, 3.24 -0.57, 9.5 0 M0 9.5 C1.93 2.95, 1.92 1.68, 9.5 0" stroke="#1e1e1e" stroke-width="2" fill="none"></path></g><g transform="translate(515.7700271606445 472) rotate(0 39.72997283935547 12.5)"><text x="39.72997283935547" y="17.52" font-family="Virgil, Segoe UI Emoji" font-size="20px" fill="#1e1e1e" text-anchor="middle" style="white-space: pre;" direction="ltr" dominant-baseline="alphabetic">id: 11,......</text></g><g stroke-linecap="round" transform="translate(294.5 505.5) rotate(0 259 19)"><path d="M9.5 0 C189.77 0.5, 369.66 -0.65, 508.5 0 M9.5 0 C187.03 1.55, 364.14 1.84, 508.5 0 M508.5 0 C514.54 -1.9, 518.95 4.14, 518 9.5 M508.5 0 C514.92 -1.94, 518.97 4.69, 518 9.5 M518 9.5 C518.9 14.69, 517.46 23.44, 518 28.5 M518 9.5 C517.28 13.56, 518.51 18.7, 518 28.5 M518 28.5 C517.97 33.48, 513.04 38.63, 508.5 38 M518 28.5 C517.6 33.28, 514.37 37.1, 508.5 38 M508.5 38 C388.94 40.11, 270.09 39.88, 9.5 38 M508.5 38 C320.39 37.01, 131.73 37.24, 9.5 38 M9.5 38 C2.19 39.67, -0.62 33.17, 0 28.5 M9.5 38 C3.89 39.41, -1.5 35.97, 0 28.5 M0 28.5 C-0.09 22.55, -1.86 19.16, 0 9.5 M0 28.5 C-0.65 24.65, 0.16 19.12, 0 9.5 M0 9.5 C1.68 2.98, 2.08 1.46, 9.5 0 M0 9.5 C-0.66 5.13, 4.22 0.33, 9.5 0" stroke="#1e1e1e" stroke-width="2" fill="none"></path></g><g transform="translate(509.3600311279297 512) rotate(0 44.13996887207031 12.5)"><text x="44.13996887207031" y="17.52" font-family="Virgil, Segoe UI Emoji" font-size="20px" fill="#1e1e1e" text-anchor="middle" style="white-space: pre;" direction="ltr" dominant-baseline="alphabetic">id: 12,......</text></g><g stroke-linecap="round" transform="translate(20 84) rotate(0 50 17.5)"><path d="M8.75 0 C41.06 -1.44, 69.07 -0.4, 91.25 0 M8.75 0 C34.13 -0.74, 59.19 0.13, 91.25 0 M91.25 0 C98.54 -0.19, 98.84 1.52, 100 8.75 M91.25 0 C98.99 0.74, 101.68 3.45, 100 8.75 M100 8.75 C100.33 11.42, 100.93 15.63, 100 26.25 M100 8.75 C99.06 14.86, 99.7 19.87, 100 26.25 M100 26.25 C101.49 31.18, 95.14 36.66, 91.25 35 M100 26.25 C98.94 34.27, 98.68 34.1, 91.25 35 M91.25 35 C63.86 35.52, 35.05 33.35, 8.75 35 M91.25 35 C71.25 36.14, 53.25 35.69, 8.75 35 M8.75 35 C4.86 33.19, -0.92 33.28, 0 26.25 M8.75 35 C0.96 34.72, -1.63 31.28, 0 26.25 M0 26.25 C1.77 19.96, 0.93 15.21, 0 8.75 M0 26.25 C-0.23 19.38, -0.03 13.36, 0 8.75 M0 8.75 C1.4 3.53, 4.14 0.72, 8.75 0 M0 8.75 C1.09 0.72, 1.32 1.51, 8.75 0" stroke="#1e1e1e" stroke-width="2" fill="none"></path></g><g transform="translate(43.6500244140625 89) rotate(0 26.3499755859375 12.5)"><text x="26.3499755859375" y="17.52" font-family="Virgil, Segoe UI Emoji" font-size="20px" fill="#1e1e1e" text-anchor="middle" style="white-space: pre;" direction="ltr" dominant-baseline="alphabetic">index1</text></g><g stroke-linecap="round" transform="translate(22 122.5) rotate(0 50 17.5)"><path d="M8.75 0 C39.78 -1.03, 67.16 -1.85, 91.25 0 M8.75 0 C41.68 -1.08, 73.81 -0.9, 91.25 0 M91.25 0 C95.36 1.24, 98.93 2.33, 100 8.75 M91.25 0 C95.88 -1.86, 99.35 4.75, 100 8.75 M100 8.75 C99.04 13.75, 100.03 20.02, 100 26.25 M100 8.75 C100.27 13.06, 100.42 17.74, 100 26.25 M100 26.25 C98.34 32.07, 95.32 36.05, 91.25 35 M100 26.25 C100.51 29.84, 95.01 33.99, 91.25 35 M91.25 35 C65.85 34.43, 41.65 36.74, 8.75 35 M91.25 35 C68.54 34.62, 44.79 34.76, 8.75 35 M8.75 35 C4.33 35.58, 1.72 33.21, 0 26.25 M8.75 35 C1.19 35.57, -2.01 32.5, 0 26.25 M0 26.25 C-0.79 23.8, -0.52 18.59, 0 8.75 M0 26.25 C0.51 22.26, 0.41 16.89, 0 8.75 M0 8.75 C-1.17 1.76, 4.88 0.56, 8.75 0 M0 8.75 C-0.79 4.44, 2.66 1.42, 8.75 0" stroke="#1e1e1e" stroke-width="2" fill="none"></path></g><g transform="translate(41.240028381347656 127.5) rotate(0 30.759971618652344 12.5)"><text x="30.759971618652344" y="17.52" font-family="Virgil, Segoe UI Emoji" font-size="20px" fill="#1e1e1e" text-anchor="middle" style="white-space: pre;" direction="ltr" dominant-baseline="alphabetic">index2</text></g><g stroke-linecap="round" transform="translate(20 158.5) rotate(0 50 17.5)"><path d="M8.75 0 C32.39 1.03, 57.74 -2.41, 91.25 0 M8.75 0 C38.07 -0.57, 68.16 1.04, 91.25 0 M91.25 0 C98.49 -0.98, 99.94 1.91, 100 8.75 M91.25 0 C95.13 0.15, 97.77 1.92, 100 8.75 M100 8.75 C99.53 15.7, 99.89 19.95, 100 26.25 M100 8.75 C100.04 13.14, 99.06 18.85, 100 26.25 M100 26.25 C100.04 33.61, 97.03 34.52, 91.25 35 M100 26.25 C99.37 32.37, 99.11 34.55, 91.25 35 M91.25 35 C59.39 34.99, 27.01 36.77, 8.75 35 M91.25 35 C63.36 35.71, 36.1 35.64, 8.75 35 M8.75 35 C1.08 33.15, 0.22 31, 0 26.25 M8.75 35 C4.48 34.1, -0.5 30.93, 0 26.25 M0 26.25 C0.63 21.82, -1.36 14.71, 0 8.75 M0 26.25 C-0.47 22.59, -0.27 18.32, 0 8.75 M0 8.75 C-1.69 1.68, 0.96 -1.37, 8.75 0 M0 8.75 C0.5 2.54, 2.17 -1.42, 8.75 0" stroke="#1e1e1e" stroke-width="2" fill="none"></path></g><g transform="translate(39.550025939941406 163.5) rotate(0 30.449974060058594 12.5)"><text x="30.449974060058594" y="17.52" font-family="Virgil, Segoe UI Emoji" font-size="20px" fill="#1e1e1e" text-anchor="middle" style="white-space: pre;" direction="ltr" dominant-baseline="alphabetic">index3</text></g><g stroke-linecap="round" transform="translate(20 196.5) rotate(0 50 17.5)"><path d="M8.75 0 C27.45 -0.13, 50.99 1.84, 91.25 0 M8.75 0 C28.61 0.48, 49.19 -0.02, 91.25 0 M91.25 0 C98.31 -1.25, 100.36 2.5, 100 8.75 M91.25 0 C97.91 0, 98.1 2.9, 100 8.75 M100 8.75 C98.38 10.88, 99.32 16.2, 100 26.25 M100 8.75 C99.75 15.45, 100.77 21.75, 100 26.25 M100 26.25 C101.92 30.2, 97.95 35.8, 91.25 35 M100 26.25 C99.58 33.31, 98.71 35.67, 91.25 35 M91.25 35 C59.88 32.63, 27.89 32.54, 8.75 35 M91.25 35 C74.82 34.16, 56.81 34.05, 8.75 35 M8.75 35 C2.92 36.43, 1.17 32.94, 0 26.25 M8.75 35 C4.01 33.38, -1.34 30.75, 0 26.25 M0 26.25 C1.11 19.09, 1.03 10.83, 0 8.75 M0 26.25 C0.36 21.94, -0.11 17.37, 0 8.75 M0 8.75 C-0.75 1.55, 4.16 -0.23, 8.75 0 M0 8.75 C1.46 3.24, 3.13 -0.23, 8.75 0" stroke="#1e1e1e" stroke-width="2" fill="none"></path></g><g transform="translate(39.96002960205078 201.5) rotate(0 30.03997039794922 12.5)"><text x="30.03997039794922" y="17.52" font-family="Virgil, Segoe UI Emoji" font-size="20px" fill="#1e1e1e" text-anchor="middle" style="white-space: pre;" direction="ltr" dominant-baseline="alphabetic">index4</text></g><g stroke-linecap="round" transform="translate(24 232.5) rotate(0 50 17.5)"><path d="M8.75 0 C33.38 -1.24, 56.9 1.93, 91.25 0 M8.75 0 C28.71 0.17, 47.12 0.17, 91.25 0 M91.25 0 C95.32 1.05, 100.45 0.96, 100 8.75 M91.25 0 C95.01 -1.01, 100.05 4.67, 100 8.75 M100 8.75 C100.18 15.5, 99.62 20.84, 100 26.25 M100 8.75 C99.92 12.82, 100.69 16.21, 100 26.25 M100 26.25 C101.72 33.21, 95.58 35.49, 91.25 35 M100 26.25 C97.99 32.5, 94.97 32.87, 91.25 35 M91.25 35 C64.81 35.13, 38.93 35.57, 8.75 35 M91.25 35 C61.06 34.65, 29.33 34.78, 8.75 35 M8.75 35 C4.88 35.56, -0.68 33.41, 0 26.25 M8.75 35 C2.66 36.42, -1.95 30.66, 0 26.25 M0 26.25 C-0.16 22.15, -0.96 18.52, 0 8.75 M0 26.25 C0.45 22.32, -0.03 18.05, 0 8.75 M0 8.75 C1.92 2.23, 2.5 1.09, 8.75 0 M0 8.75 C1.82 3.5, 4.96 2.24, 8.75 0" stroke="#1e1e1e" stroke-width="2" fill="none"></path></g><g transform="translate(44.180030822753906 237.5) rotate(0 29.819969177246094 12.5)"><text x="29.819969177246094" y="17.52" font-family="Virgil, Segoe UI Emoji" font-size="20px" fill="#1e1e1e" text-anchor="middle" style="white-space: pre;" direction="ltr" dominant-baseline="alphabetic">index5</text></g><g stroke-linecap="round" transform="translate(24 268.5) rotate(0 50 17.5)"><path d="M8.75 0 C34.99 -1.95, 61.22 -2.06, 91.25 0 M8.75 0 C36.92 0.37, 66.91 1.57, 91.25 0 M91.25 0 C97.03 -0.48, 99.45 3.17, 100 8.75 M91.25 0 C99.11 -0.45, 102.2 0.75, 100 8.75 M100 8.75 C101 16, 100.58 22.28, 100 26.25 M100 8.75 C99.1 15.14, 99.06 20.41, 100 26.25 M100 26.25 C100.22 31, 98.44 34.22, 91.25 35 M100 26.25 C99.5 30.93, 97.09 36.65, 91.25 35 M91.25 35 C60.29 34.22, 30.98 37.36, 8.75 35 M91.25 35 C64.1 36.17, 36.32 34.93, 8.75 35 M8.75 35 C0.96 33.63, 0.43 31.76, 0 26.25 M8.75 35 C2.17 33.58, -0.86 30.51, 0 26.25 M0 26.25 C0.27 20.07, -0.16 15.25, 0 8.75 M0 26.25 C0.73 21.82, 0.81 17.8, 0 8.75 M0 8.75 C1.57 1.6, 2.97 0.72, 8.75 0 M0 8.75 C0.16 1.45, 1.35 -0.19, 8.75 0" stroke="#1e1e1e" stroke-width="2" fill="none"></path></g><g transform="translate(43.96002960205078 273.5) rotate(0 30.03997039794922 12.5)"><text x="30.03997039794922" y="17.52" font-family="Virgil, Segoe UI Emoji" font-size="20px" fill="#1e1e1e" text-anchor="middle" style="white-space: pre;" direction="ltr" dominant-baseline="alphabetic">index6</text></g><g stroke-linecap="round" transform="translate(24 306.5) rotate(0 50 17.5)"><path d="M8.75 0 C34.46 0.79, 63.45 0.69, 91.25 0 M8.75 0 C32.42 -0.3, 55.28 -1.05, 91.25 0 M91.25 0 C97.95 0.8, 99.63 3.98, 100 8.75 M91.25 0 C98.71 0.67, 101.98 4.21, 100 8.75 M100 8.75 C100.36 11.08, 98.42 16.82, 100 26.25 M100 8.75 C99.93 12.61, 100.12 17.98, 100 26.25 M100 26.25 C101.17 32.94, 98.03 33.59, 91.25 35 M100 26.25 C98.66 30.75, 99.34 35.64, 91.25 35 M91.25 35 C70.56 33.22, 46.16 32.95, 8.75 35 M91.25 35 C71.84 34.25, 52.71 34.18, 8.75 35 M8.75 35 C4.16 34.77, 1.27 32.36, 0 26.25 M8.75 35 C3.13 34.77, 2.21 31.3, 0 26.25 M0 26.25 C0.35 22.92, 1.61 17.86, 0 8.75 M0 26.25 C0.05 21.6, -0.6 17.99, 0 8.75 M0 8.75 C0.47 2.5, 3.6 1.77, 8.75 0 M0 8.75 C-1.51 0.95, 3.24 1.23, 8.75 0" stroke="#1e1e1e" stroke-width="2" fill="none"></path></g><g transform="translate(44.98002624511719 311.5) rotate(0 29.019973754882812 12.5)"><text x="29.019973754882812" y="17.52" font-family="Virgil, Segoe UI Emoji" font-size="20px" fill="#1e1e1e" text-anchor="middle" style="white-space: pre;" direction="ltr" dominant-baseline="alphabetic">index7</text></g><g stroke-linecap="round" transform="translate(24 342.5) rotate(0 50 17.5)"><path d="M8.75 0 C30.84 1.19, 51.83 0.14, 91.25 0 M8.75 0 C37.51 -0.15, 65.71 0.12, 91.25 0 M91.25 0 C95.58 0.49, 98.25 3.28, 100 8.75 M91.25 0 C94.97 -2.13, 100.25 1.67, 100 8.75 M100 8.75 C99.05 15.2, 101.19 22.65, 100 26.25 M100 8.75 C99.57 14.25, 100.94 21, 100 26.25 M100 26.25 C99.32 33.41, 96.86 36.24, 91.25 35 M100 26.25 C98.05 30.66, 94.83 33.42, 91.25 35 M91.25 35 C63.49 33.98, 36.83 35.98, 8.75 35 M91.25 35 C67.56 35.01, 44.64 34.77, 8.75 35 M8.75 35 C2.5 36.09, 1.58 32.59, 0 26.25 M8.75 35 C4.96 37.24, 1.81 30.56, 0 26.25 M0 26.25 C-1.18 19.76, -0.21 16.06, 0 8.75 M0 26.25 C-0.64 20.61, 0.06 16.94, 0 8.75 M0 8.75 C-0.14 4.83, 1.39 0.35, 8.75 0 M0 8.75 C2.28 2.44, 2.01 -1.97, 8.75 0" stroke="#1e1e1e" stroke-width="2" fill="none"></path></g><g transform="translate(42.71002960205078 347.5) rotate(0 31.28997039794922 12.5)"><text x="31.28997039794922" y="17.52" font-family="Virgil, Segoe UI Emoji" font-size="20px" fill="#1e1e1e" text-anchor="middle" style="white-space: pre;" direction="ltr" dominant-baseline="alphabetic">index8</text></g><g stroke-linecap="round" transform="translate(24 378.5) rotate(0 50 17.5)"><path d="M8.75 0 C32.56 1.14, 56.34 -2.08, 91.25 0 M8.75 0 C34.61 -1.07, 62.42 -0.69, 91.25 0 M91.25 0 C98.44 -0.78, 99.57 1.91, 100 8.75 M91.25 0 C97.09 1.65, 101.34 3.91, 100 8.75 M100 8.75 C98.86 16.55, 100.36 20.31, 100 26.25 M100 8.75 C99.24 14.62, 99.12 20.97, 100 26.25 M100 26.25 C100.43 31.76, 96.44 33.77, 91.25 35 M100 26.25 C99.14 30.51, 98.51 34.73, 91.25 35 M91.25 35 C61.07 37, 30.61 34.66, 8.75 35 M91.25 35 C62.88 36.18, 33.53 34.55, 8.75 35 M8.75 35 C2.97 35.72, 0.14 30.8, 0 26.25 M8.75 35 C1.35 34.81, 0.54 31.61, 0 26.25 M0 26.25 C-1.65 20.65, 0.78 14.43, 0 8.75 M0 26.25 C1 19.15, -0.21 11.66, 0 8.75 M0 8.75 C0.01 1.43, 4.33 1.59, 8.75 0 M0 8.75 C2.07 2.88, 1.69 1.24, 8.75 0" stroke="#1e1e1e" stroke-width="2" fill="none"></path></g><g transform="translate(44.27002716064453 383.5) rotate(0 29.72997283935547 12.5)"><text x="29.72997283935547" y="17.52" font-family="Virgil, Segoe UI Emoji" font-size="20px" fill="#1e1e1e" text-anchor="middle" style="white-space: pre;" direction="ltr" dominant-baseline="alphabetic">index9</text></g><g stroke-linecap="round" transform="translate(24 416.5) rotate(0 50 17.5)"><path d="M8.75 0 C24.44 0.98, 42.74 2.12, 91.25 0 M8.75 0 C30.28 1.13, 52.38 0.84, 91.25 0 M91.25 0 C98.03 -1.41, 98.83 1.76, 100 8.75 M91.25 0 C99.34 0.64, 99.21 4.44, 100 8.75 M100 8.75 C99.03 12.09, 98.91 19.24, 100 26.25 M100 8.75 C99.62 13.12, 100.49 18.58, 100 26.25 M100 26.25 C101.27 32.36, 97.27 34.8, 91.25 35 M100 26.25 C102.21 31.3, 96.6 36.26, 91.25 35 M91.25 35 C61.92 37.31, 27.37 35.79, 8.75 35 M91.25 35 C62.85 34.39, 36.04 34.27, 8.75 35 M8.75 35 C3.6 36.77, -1.32 30.37, 0 26.25 M8.75 35 C3.24 36.23, -0.16 34.28, 0 26.25 M0 26.25 C-0.39 21.65, -1.53 18.44, 0 8.75 M0 26.25 C0.66 22.29, -0.59 18.82, 0 8.75 M0 8.75 C0.17 2.18, 3.46 -0.39, 8.75 0 M0 8.75 C1.01 4.99, 5.17 0.1, 8.75 0" stroke="#1e1e1e" stroke-width="2" fill="none"></path></g><g transform="translate(40.77002716064453 421.5) rotate(0 33.22997283935547 12.5)"><text x="33.22997283935547" y="17.52" font-family="Virgil, Segoe UI Emoji" font-size="20px" fill="#1e1e1e" text-anchor="middle" style="white-space: pre;" direction="ltr" dominant-baseline="alphabetic">index10</text></g><g stroke-linecap="round" transform="translate(26 454.5) rotate(0 50 17.5)"><path d="M8.75 0 C33.14 1.16, 55.53 0.95, 91.25 0 M8.75 0 C28.69 0.76, 46.31 1.14, 91.25 0 M91.25 0 C96.86 1.24, 98.31 1.68, 100 8.75 M91.25 0 C94.83 -1.58, 100.5 2.54, 100 8.75 M100 8.75 C98.7 14.52, 99.69 19.23, 100 26.25 M100 8.75 C100.86 13.95, 99.83 20.22, 100 26.25 M100 26.25 C101.58 32.59, 98.86 36.95, 91.25 35 M100 26.25 C101.81 30.56, 97.15 35.83, 91.25 35 M91.25 35 C65.77 34.9, 40.21 35.12, 8.75 35 M91.25 35 C59.35 34.83, 27.09 35.25, 8.75 35 M8.75 35 C1.39 35.35, 1.99 31.67, 0 26.25 M8.75 35 C2.01 33.03, 0.01 30.38, 0 26.25 M0 26.25 C-0.17 18.83, 0.81 13.42, 0 8.75 M0 26.25 C0.34 22.43, 0.81 17.07, 0 8.75 M0 8.75 C-1.39 1.95, 4.76 1.51, 8.75 0 M0 8.75 C1.13 3.46, 4.97 -1.25, 8.75 0" stroke="#1e1e1e" stroke-width="2" fill="none"></path></g><g transform="translate(46.940025329589844 459.5) rotate(0 29.059974670410156 12.5)"><text x="29.059974670410156" y="17.52" font-family="Virgil, Segoe UI Emoji" font-size="20px" fill="#1e1e1e" text-anchor="middle" style="white-space: pre;" direction="ltr" dominant-baseline="alphabetic">index11</text></g><g stroke-linecap="round" transform="translate(26 492.5) rotate(0 50 17.5)"><path d="M8.75 0 C29.24 -1.49, 49.93 -1.03, 91.25 0 M8.75 0 C37.63 -0.18, 68.68 0.35, 91.25 0 M91.25 0 C96.44 -1.23, 99.25 1.55, 100 8.75 M91.25 0 C98.51 -0.27, 101.46 3.24, 100 8.75 M100 8.75 C99.38 13.79, 100.94 20.96, 100 26.25 M100 8.75 C100.84 13.87, 100.18 20.45, 100 26.25 M100 26.25 C100.14 30.8, 95.72 34.83, 91.25 35 M100 26.25 C100.54 31.61, 97.87 37.03, 91.25 35 M91.25 35 C73 34.97, 54.51 33.59, 8.75 35 M91.25 35 C64.64 33.97, 38.83 34.09, 8.75 35 M8.75 35 C4.33 36.59, 1.8 32.05, 0 26.25 M8.75 35 C1.69 36.24, 0.2 31.24, 0 26.25 M0 26.25 C1.62 22.24, 0.11 13.59, 0 8.75 M0 26.25 C0.27 22.05, 0.62 16.96, 0 8.75 M0 8.75 C0.57 4.6, 1.25 -0.59, 8.75 0 M0 8.75 C-1.29 3.29, 1.7 -2.1, 8.75 0" stroke="#1e1e1e" stroke-width="2" fill="none"></path></g><g transform="translate(42.530029296875 497.5) rotate(0 33.469970703125 12.5)"><text x="33.469970703125" y="17.52" font-family="Virgil, Segoe UI Emoji" font-size="20px" fill="#1e1e1e" text-anchor="middle" style="white-space: pre;" direction="ltr" dominant-baseline="alphabetic">index12</text></g><g stroke-linecap="round"><g transform="translate(124 98) rotate(0 84 -5)"><path d="M-0.55 0.06 C27.61 -1.52, 140.11 -8.82, 168.4 -10.48 M1.36 -0.96 C29.45 -2.28, 139.71 -7.93, 167.66 -9.2" stroke="#1e1e1e" stroke-width="2" fill="none"></path></g><g transform="translate(124 98) rotate(0 84 -5)"><path d="M144.61 0.48 C150.59 -1.19, 155.5 -2.35, 167.66 -9.2 M144.61 0.48 C151.1 -1.95, 158.53 -4.72, 167.66 -9.2" stroke="#1e1e1e" stroke-width="2" fill="none"></path></g><g transform="translate(124 98) rotate(0 84 -5)"><path d="M143.78 -16.6 C149.83 -13.97, 154.94 -10.82, 167.66 -9.2 M143.78 -16.6 C150.41 -13.82, 158.1 -11.38, 167.66 -9.2" stroke="#1e1e1e" stroke-width="2" fill="none"></path></g></g><mask></mask><g stroke-linecap="round"><g transform="translate(128 140) rotate(0 83 -7)"><path d="M-0.22 -0.51 C27.53 -2.88, 137.66 -11.29, 165.36 -13.72 M-1.8 -1.83 C26.45 -4.61, 139.9 -13.61, 167.74 -15.69" stroke="#1e1e1e" stroke-width="2" fill="none"></path></g><g transform="translate(128 140) rotate(0 83 -7)"><path d="M144.98 -5.35 C148.75 -8.49, 154.73 -9.51, 167.74 -15.69 M144.98 -5.35 C148.83 -8.17, 155.11 -10.88, 167.74 -15.69" stroke="#1e1e1e" stroke-width="2" fill="none"></path></g><g transform="translate(128 140) rotate(0 83 -7)"><path d="M143.66 -22.4 C147.76 -22.04, 154.01 -19.57, 167.74 -15.69 M143.66 -22.4 C147.73 -21.65, 154.3 -20.79, 167.74 -15.69" stroke="#1e1e1e" stroke-width="2" fill="none"></path></g></g><mask></mask><g stroke-linecap="round"><g transform="translate(128 174) rotate(0 82 -5)"><path d="M1.1 1.05 C28.18 -0.67, 135.93 -7.98, 163.17 -9.95 M0.21 0.55 C27.62 -0.99, 138.15 -6.64, 165.44 -8.38" stroke="#1e1e1e" stroke-width="2" fill="none"></path></g><g transform="translate(128 174) rotate(0 82 -5)"><path d="M142.47 1.48 C152.32 -3.61, 158.79 -4.89, 165.44 -8.38 M142.47 1.48 C147.95 -1.91, 153.03 -2.44, 165.44 -8.38" stroke="#1e1e1e" stroke-width="2" fill="none"></path></g><g transform="translate(128 174) rotate(0 82 -5)"><path d="M141.5 -15.59 C151.75 -14.65, 158.57 -9.88, 165.44 -8.38 M141.5 -15.59 C147.22 -14.96, 152.52 -11.47, 165.44 -8.38" stroke="#1e1e1e" stroke-width="2" fill="none"></path></g></g><mask></mask><g stroke-linecap="round"><g transform="translate(128 212) rotate(0 80 -6)"><path d="M-0.18 0.34 C26.49 -1.84, 134.24 -10.7, 160.75 -12.68 M-1.73 -0.52 C24.78 -2.6, 133.04 -9.32, 160.2 -11.49" stroke="#1e1e1e" stroke-width="2" fill="none"></path></g><g transform="translate(128 212) rotate(0 80 -6)"><path d="M137.36 -1.32 C146.23 -3.74, 152.85 -10.49, 160.2 -11.49 M137.36 -1.32 C146.12 -5.26, 152.55 -9.03, 160.2 -11.49" stroke="#1e1e1e" stroke-width="2" fill="none"></path></g><g transform="translate(128 212) rotate(0 80 -6)"><path d="M136.17 -18.38 C145.53 -14.58, 152.58 -15.11, 160.2 -11.49 M136.17 -18.38 C145.28 -16.49, 152.11 -14.43, 160.2 -11.49" stroke="#1e1e1e" stroke-width="2" fill="none"></path></g></g><mask></mask><g stroke-linecap="round"><g transform="translate(126 250) rotate(0 82 -1)"><path d="M0.69 0.95 C28.2 0.74, 137.74 -1.43, 165.12 -1.85 M-0.4 0.4 C27.03 0.47, 137.24 0.44, 164.76 -0.24" stroke="#1e1e1e" stroke-width="2" fill="none"></path></g><g transform="translate(126 250) rotate(0 82 -1)"><path d="M141.36 8.56 C150.2 7.57, 156.09 4.62, 164.76 -0.24 M141.36 8.56 C149.69 6.06, 156.42 2.21, 164.76 -0.24" stroke="#1e1e1e" stroke-width="2" fill="none"></path></g><g transform="translate(126 250) rotate(0 82 -1)"><path d="M141.18 -8.54 C149.99 -4.25, 155.93 -1.93, 164.76 -0.24 M141.18 -8.54 C149.53 -5.28, 156.33 -3.37, 164.76 -0.24" stroke="#1e1e1e" stroke-width="2" fill="none"></path></g></g><mask></mask><g stroke-linecap="round"><g transform="translate(128 288) rotate(0 82 -1)"><path d="M-0.85 -0.27 C26.56 -0.46, 136.89 -1.44, 164.26 -1.65 M0.9 -1.46 C28.2 -1.97, 136.55 -3.22, 163.45 -3.6" stroke="#1e1e1e" stroke-width="2" fill="none"></path></g><g transform="translate(128 288) rotate(0 82 -1)"><path d="M140.07 5.25 C146.24 3.37, 153.84 -0.56, 163.45 -3.6 M140.07 5.25 C148.23 2.05, 154.86 0.03, 163.45 -3.6" stroke="#1e1e1e" stroke-width="2" fill="none"></path></g><g transform="translate(128 288) rotate(0 82 -1)"><path d="M139.85 -11.85 C146.01 -8.92, 153.67 -8.04, 163.45 -3.6 M139.85 -11.85 C148.08 -9.32, 154.78 -5.62, 163.45 -3.6" stroke="#1e1e1e" stroke-width="2" fill="none"></path></g></g><mask></mask><g stroke-linecap="round"><g transform="translate(128 322) rotate(0 83 2)"><path d="M-0.02 -0.6 C27.69 0.12, 139.45 4.07, 167.09 4.77 M-1.5 1.7 C26.09 2.04, 138.97 2.55, 166.72 3.04" stroke="#1e1e1e" stroke-width="2" fill="none"></path></g><g transform="translate(128 322) rotate(0 83 2)"><path d="M143.14 11.35 C150.77 10.13, 161.72 5.03, 166.72 3.04 M143.14 11.35 C150.01 10.13, 154.86 7.89, 166.72 3.04" stroke="#1e1e1e" stroke-width="2" fill="none"></path></g><g transform="translate(128 322) rotate(0 83 2)"><path d="M143.32 -5.75 C150.95 -0.69, 161.83 0.5, 166.72 3.04 M143.32 -5.75 C150.02 -2.44, 154.82 -0.16, 166.72 3.04" stroke="#1e1e1e" stroke-width="2" fill="none"></path></g></g><mask></mask><g stroke-linecap="round"><g transform="translate(122 360) rotate(0 85 5)"><path d="M0.8 0.54 C29.14 1.87, 142.31 7.38, 170.39 9.08 M-0.24 -0.22 C27.95 1.75, 141.58 8.64, 169.65 10.14" stroke="#1e1e1e" stroke-width="2" fill="none"></path></g><g transform="translate(122 360) rotate(0 85 5)"><path d="M145.7 17.32 C154.39 15.46, 159.8 11.32, 169.65 10.14 M145.7 17.32 C154.95 14.83, 163.66 11.76, 169.65 10.14" stroke="#1e1e1e" stroke-width="2" fill="none"></path></g><g transform="translate(122 360) rotate(0 85 5)"><path d="M146.69 0.25 C155.21 3.99, 160.29 5.44, 169.65 10.14 M146.69 0.25 C155.47 3.94, 163.82 7.04, 169.65 10.14" stroke="#1e1e1e" stroke-width="2" fill="none"></path></g></g><mask></mask><g stroke-linecap="round"><g transform="translate(126 398) rotate(0 82 4)"><path d="M-0.71 -0.76 C26.57 0.54, 137.43 5.6, 164.7 7.25 M1.11 1.46 C28.21 2.94, 136.76 7.4, 164.12 8.4" stroke="#1e1e1e" stroke-width="2" fill="none"></path></g><g transform="translate(126 398) rotate(0 82 4)"><path d="M140.31 16.02 C148.23 14.39, 157.39 8.52, 164.12 8.4 M140.31 16.02 C148.96 13.63, 158.55 9.37, 164.12 8.4" stroke="#1e1e1e" stroke-width="2" fill="none"></path></g><g transform="translate(126 398) rotate(0 82 4)"><path d="M140.98 -1.07 C148.58 3.87, 157.48 4.57, 164.12 8.4 M140.98 -1.07 C149.28 3.35, 158.61 5.89, 164.12 8.4" stroke="#1e1e1e" stroke-width="2" fill="none"></path></g></g><mask></mask><g stroke-linecap="round"><g transform="translate(126 430) rotate(0 83 7)"><path d="M0.87 1.17 C28.42 3.39, 138.33 10.76, 165.89 13.06 M-0.14 0.73 C27.2 3.1, 137.27 12.04, 164.88 14.11" stroke="#1e1e1e" stroke-width="2" fill="none"></path></g><g transform="translate(126 430) rotate(0 83 7)"><path d="M140.79 20.79 C151.11 18.11, 155.96 16.33, 164.88 14.11 M140.79 20.79 C149.86 18.34, 159.88 16.44, 164.88 14.11" stroke="#1e1e1e" stroke-width="2" fill="none"></path></g><g transform="translate(126 430) rotate(0 83 7)"><path d="M142.13 3.74 C151.95 6.99, 156.33 11.12, 164.88 14.11 M142.13 3.74 C150.61 7.78, 160.13 12.36, 164.88 14.11" stroke="#1e1e1e" stroke-width="2" fill="none"></path></g></g><mask></mask><g stroke-linecap="round"><g transform="translate(132 470) rotate(0 80 6)"><path d="M-1.04 -0.76 C25.66 1.29, 133.94 10.53, 160.92 12.49 M0.62 1.46 C27.17 3.12, 133.8 8.9, 160.46 10.62" stroke="#1e1e1e" stroke-width="2" fill="none"></path></g><g transform="translate(132 470) rotate(0 80 6)"><path d="M136.5 17.78 C143.92 16.92, 154.69 14.24, 160.46 10.62 M136.5 17.78 C141.76 15.81, 147.45 14.14, 160.46 10.62" stroke="#1e1e1e" stroke-width="2" fill="none"></path></g><g transform="translate(132 470) rotate(0 80 6)"><path d="M137.51 0.71 C144.6 6.04, 155 9.55, 160.46 10.62 M137.51 0.71 C142.39 2.45, 147.87 4.48, 160.46 10.62" stroke="#1e1e1e" stroke-width="2" fill="none"></path></g></g><mask></mask><g stroke-linecap="round"><g transform="translate(128 510) rotate(0 82 7)"><path d="M1.1 -0.53 C28.41 1.93, 137.85 11.92, 164.87 14.52 M0.22 1.81 C27.37 3.93, 136.79 10.75, 164.38 12.67" stroke="#1e1e1e" stroke-width="2" fill="none"></path></g><g transform="translate(128 510) rotate(0 82 7)"><path d="M140.38 19.66 C148.66 18.24, 159.55 12.87, 164.38 12.67 M140.38 19.66 C149.9 17.71, 159.94 14.32, 164.38 12.67" stroke="#1e1e1e" stroke-width="2" fill="none"></path></g><g transform="translate(128 510) rotate(0 82 7)"><path d="M141.5 2.6 C149.32 7.68, 159.79 8.82, 164.38 12.67 M141.5 2.6 C150.66 7.32, 160.26 10.61, 164.38 12.67" stroke="#1e1e1e" stroke-width="2" fill="none"></path></g></g><mask></mask><g stroke-linecap="round"><g transform="translate(818 84) rotate(0 9 21)"><path d="M-0.19 -0.38 C2.61 2.45, 18.04 9.82, 17.9 16.87 C17.75 23.93, 1.86 37.81, -1.06 41.93 M-1.75 -1.63 C0.79 1.33, 16.39 10.34, 16.9 17.82 C17.4 25.29, 3.96 39.1, 1.27 43.22" stroke="#1e1e1e" stroke-width="2" fill="none"></path></g><g transform="translate(818 84) rotate(0 9 21)"><path d="M5.99 28.98 C3.66 34.38, 0.89 38.71, 1.27 43.22 M5.99 28.98 C4 33.2, 3.34 37.68, 1.27 43.22" stroke="#1e1e1e" stroke-width="2" fill="none"></path></g><g transform="translate(818 84) rotate(0 9 21)"><path d="M14.04 35.34 C8.58 38.26, 2.69 40.11, 1.27 43.22 M14.04 35.34 C9.66 37.67, 6.63 40.27, 1.27 43.22" stroke="#1e1e1e" stroke-width="2" fill="none"></path></g></g><mask></mask><g stroke-linecap="round"><g transform="translate(821.9265414255453 131.2062009441015) rotate(0 9 21)"><path d="M0.21 0.83 C3.16 3.83, 18.42 10.95, 18.19 17.99 C17.96 25.04, 1.96 39.17, -1.17 43.1 M-1.15 0.22 C1.63 3.43, 16.97 12.67, 17.35 19.52 C17.72 26.38, 4.1 37.52, 1.11 41.34" stroke="#1e1e1e" stroke-width="2" fill="none"></path></g><g transform="translate(821.9265414255453 131.2062009441015) rotate(0 9 21)"><path d="M7.17 27.62 C6.15 32.52, 3.05 35.46, 1.11 41.34 M7.17 27.62 C4.38 32.54, 1.78 38.69, 1.11 41.34" stroke="#1e1e1e" stroke-width="2" fill="none"></path></g><g transform="translate(821.9265414255453 131.2062009441015) rotate(0 9 21)"><path d="M14.57 34.73 C11.04 37.23, 5.43 37.77, 1.11 41.34 M14.57 34.73 C8.92 36.83, 3.41 40.2, 1.11 41.34" stroke="#1e1e1e" stroke-width="2" fill="none"></path></g></g><mask></mask><g stroke-linecap="round"><g transform="translate(819.9265414255453 167.2062009441015) rotate(0 9 21)"><path d="M1.11 -0.84 C4.2 2.37, 18.67 11.88, 18.53 19.05 C18.4 26.22, 3.3 38.24, 0.3 42.16 M0.23 1.34 C3.22 4.25, 17.95 10.44, 17.86 17.48 C17.77 24.52, 2.49 39.76, -0.3 43.56" stroke="#1e1e1e" stroke-width="2" fill="none"></path></g><g transform="translate(819.9265414255453 167.2062009441015) rotate(0 9 21)"><path d="M4.99 29.53 C2.34 34.43, 3.12 38.33, -0.3 43.56 M4.99 29.53 C3.93 33.25, 1.04 38.91, -0.3 43.56" stroke="#1e1e1e" stroke-width="2" fill="none"></path></g><g transform="translate(819.9265414255453 167.2062009441015) rotate(0 9 21)"><path d="M12.77 36.21 C7.81 39.19, 6.27 41.1, -0.3 43.56 M12.77 36.21 C9.24 37.88, 3.91 41.44, -0.3 43.56" stroke="#1e1e1e" stroke-width="2" fill="none"></path></g></g><mask></mask><g stroke-linecap="round"><g transform="translate(821.9265414255453 247.2062009441015) rotate(0 9 21)"><path d="M0.13 0.11 C3.3 3.31, 19.11 11.4, 19.07 18.23 C19.03 25.06, 3.02 37.2, -0.12 41.09 M-1.26 -0.88 C1.84 2.02, 18.63 9.1, 18.68 16.23 C18.73 23.37, 2.07 37.55, -0.95 41.93" stroke="#1e1e1e" stroke-width="2" fill="none"></path></g><g transform="translate(821.9265414255453 247.2062009441015) rotate(0 9 21)"><path d="M4.74 28.06 C3.02 33.65, 1.43 36.4, -0.95 41.93 M4.74 28.06 C2.95 31.55, 2.62 33.87, -0.95 41.93" stroke="#1e1e1e" stroke-width="2" fill="none"></path></g><g transform="translate(821.9265414255453 247.2062009441015) rotate(0 9 21)"><path d="M12.33 34.96 C8.34 38.45, 4.43 39.09, -0.95 41.93 M12.33 34.96 C8.82 36.89, 6.79 37.65, -0.95 41.93" stroke="#1e1e1e" stroke-width="2" fill="none"></path></g></g><mask></mask><g stroke-linecap="round"><g transform="translate(815.9265414255453 199.2062009441015) rotate(0 9 21)"><path d="M0.42 0.31 C3.23 3.31, 17.55 11.64, 17.3 18.57 C17.05 25.5, 1.94 38.16, -1.08 41.89 M-0.81 -0.57 C2.35 2.02, 19.31 9.47, 19.65 16.75 C19.99 24.04, 4.68 39.02, 1.24 43.15" stroke="#1e1e1e" stroke-width="2" fill="none"></path></g><g transform="translate(815.9265414255453 199.2062009441015) rotate(0 9 21)"><path d="M6.89 29.25 C5.44 33.08, 3.87 37.28, 1.24 43.15 M6.89 29.25 C4.78 33.62, 3.17 37.31, 1.24 43.15" stroke="#1e1e1e" stroke-width="2" fill="none"></path></g><g transform="translate(815.9265414255453 199.2062009441015) rotate(0 9 21)"><path d="M14.5 36.13 C10.46 37.67, 6.32 39.55, 1.24 43.15 M14.5 36.13 C10.22 38.43, 6.41 40.13, 1.24 43.15" stroke="#1e1e1e" stroke-width="2" fill="none"></path></g></g><mask></mask><g stroke-linecap="round"><g transform="translate(819.9265414255453 283.2062009441015) rotate(0 9 21)"><path d="M-0.78 0.34 C2.31 3.66, 17.47 11.84, 17.77 18.85 C18.07 25.86, 3.99 38.75, 1.01 42.42 M1.01 -0.53 C3.99 2.55, 16.73 10.37, 16.7 17.17 C16.66 23.98, 3.54 36.27, 0.78 40.3" stroke="#1e1e1e" stroke-width="2" fill="none"></path></g><g transform="translate(819.9265414255453 283.2062009441015) rotate(0 9 21)"><path d="M5.98 26.23 C5.05 29.21, 4.47 34.07, 0.78 40.3 M5.98 26.23 C4.94 31.22, 1.91 35.56, 0.78 40.3" stroke="#1e1e1e" stroke-width="2" fill="none"></path></g><g transform="translate(819.9265414255453 283.2062009441015) rotate(0 9 21)"><path d="M13.81 32.86 C11.1 34.23, 8.68 37.54, 0.78 40.3 M13.81 32.86 C10.15 35.55, 4.5 37.67, 0.78 40.3" stroke="#1e1e1e" stroke-width="2" fill="none"></path></g></g><mask></mask><g stroke-linecap="round"><g transform="translate(819.9265414255453 329.2062009441015) rotate(0 9 21)"><path d="M-0.87 -1.18 C2.23 1.73, 18.16 10.66, 18.38 17.76 C18.59 24.85, 3.61 37.4, 0.42 41.37 M0.87 0.82 C3.87 3.88, 17.79 12.24, 17.63 19.17 C17.46 26.09, 2.96 38.47, -0.13 42.36" stroke="#1e1e1e" stroke-width="2" fill="none"></path></g><g transform="translate(819.9265414255453 329.2062009441015) rotate(0 9 21)"><path d="M5.89 28.62 C2.77 32.88, 2.27 36.76, -0.13 42.36 M5.89 28.62 C4.25 31.83, 3.5 35.4, -0.13 42.36" stroke="#1e1e1e" stroke-width="2" fill="none"></path></g><g transform="translate(819.9265414255453 329.2062009441015) rotate(0 9 21)"><path d="M13.31 35.7 C8.11 37.93, 5.54 39.84, -0.13 42.36 M13.31 35.7 C9.88 37.13, 7.29 38.95, -0.13 42.36" stroke="#1e1e1e" stroke-width="2" fill="none"></path></g></g><mask></mask><g stroke-linecap="round"><g transform="translate(819.9265414255453 369.2062009441015) rotate(0 9 21)"><path d="M-0.9 -0.56 C2.24 2.19, 17.84 10.27, 18.18 17.42 C18.52 24.56, 4.29 38.08, 1.17 42.29 M0.83 1.75 C3.88 4.59, 17.3 11.65, 17.33 18.65 C17.36 25.65, 4.01 40.13, 1.01 43.77" stroke="#1e1e1e" stroke-width="2" fill="none"></path></g><g transform="translate(819.9265414255453 369.2062009441015) rotate(0 9 21)"><path d="M6.23 29.7 C4.33 33.38, 3.02 38.1, 1.01 43.77 M6.23 29.7 C4.88 34.05, 2.52 38.97, 1.01 43.77" stroke="#1e1e1e" stroke-width="2" fill="none"></path></g><g transform="translate(819.9265414255453 369.2062009441015) rotate(0 9 21)"><path d="M14.05 36.35 C10.17 38.31, 6.91 41.39, 1.01 43.77 M14.05 36.35 C10.19 38.58, 5.29 41.35, 1.01 43.77" stroke="#1e1e1e" stroke-width="2" fill="none"></path></g></g><mask></mask><g stroke-linecap="round"><g transform="translate(821.9265414255453 403.2062009441015) rotate(0 9 21)"><path d="M0.21 -0.84 C3.44 1.85, 18.15 10.1, 18.25 17.29 C18.35 24.48, 3.88 38.11, 0.8 42.31 M-1.14 1.33 C2.05 4.68, 17.17 11.38, 17.43 18.45 C17.7 25.53, 3.38 39.56, 0.45 43.79" stroke="#1e1e1e" stroke-width="2" fill="none"></path></g><g transform="translate(821.9265414255453 403.2062009441015) rotate(0 9 21)"><path d="M5.55 29.68 C3.57 32.93, 2.68 36.54, 0.45 43.79 M5.55 29.68 C4.27 34.94, 2.55 39.28, 0.45 43.79" stroke="#1e1e1e" stroke-width="2" fill="none"></path></g><g transform="translate(821.9265414255453 403.2062009441015) rotate(0 9 21)"><path d="M13.43 36.25 C9.75 38.15, 7.22 40.4, 0.45 43.79 M13.43 36.25 C9.6 39.41, 5.32 41.6, 0.45 43.79" stroke="#1e1e1e" stroke-width="2" fill="none"></path></g></g><mask></mask><g stroke-linecap="round"><g transform="translate(821.9265414255453 445.2062009441015) rotate(0 9 21)"><path d="M-0.1 0.31 C2.88 3.48, 18.74 11.59, 18.85 18.67 C18.95 25.75, 3.57 38.75, 0.54 42.8 M-1.61 -0.57 C1.2 2.28, 18.06 9.99, 18.34 16.9 C18.62 23.81, 2.91 36.88, 0.06 40.87" stroke="#1e1e1e" stroke-width="2" fill="none"></path></g><g transform="translate(821.9265414255453 445.2062009441015) rotate(0 9 21)"><path d="M5.93 27.07 C4.03 33.41, 2.24 38.31, 0.06 40.87 M5.93 27.07 C4.21 32.38, 1.44 37.9, 0.06 40.87" stroke="#1e1e1e" stroke-width="2" fill="none"></path></g><g transform="translate(821.9265414255453 445.2062009441015) rotate(0 9 21)"><path d="M13.43 34.07 C8.68 37.72, 4.01 39.95, 0.06 40.87 M13.43 34.07 C8.92 36.88, 3.41 39.83, 0.06 40.87" stroke="#1e1e1e" stroke-width="2" fill="none"></path></g></g><mask></mask><g stroke-linecap="round"><g transform="translate(819.9265414255453 487.2062009441015) rotate(0 9 21)"><path d="M0.95 0.23 C3.97 3.46, 18.64 12.19, 18.68 18.98 C18.72 25.77, 4.14 37.04, 1.2 40.99 M-0.02 -0.69 C2.86 2.25, 17.91 10.29, 18.09 17.37 C18.27 24.45, 4.38 37.93, 1.06 41.78" stroke="#1e1e1e" stroke-width="2" fill="none"></path></g><g transform="translate(819.9265414255453 487.2062009441015) rotate(0 9 21)"><path d="M6.82 27.93 C5.08 33.6, 4.03 39.02, 1.06 41.78 M6.82 27.93 C6.05 30.29, 4.1 34.54, 1.06 41.78" stroke="#1e1e1e" stroke-width="2" fill="none"></path></g><g transform="translate(819.9265414255453 487.2062009441015) rotate(0 9 21)"><path d="M14.37 34.87 C10.05 38.21, 6.39 41.24, 1.06 41.78 M14.37 34.87 C11.91 35.78, 8.33 38.52, 1.06 41.78" stroke="#1e1e1e" stroke-width="2" fill="none"></path></g></g><mask></mask><g transform="translate(10 26) rotate(0 58.849945068359375 12.5)"><text x="0" y="17.52" font-family="Virgil, Segoe UI Emoji" font-size="20px" fill="#1e1e1e" text-anchor="start" style="white-space: pre;" direction="ltr" dominant-baseline="alphabetic">index entrys</text></g><g transform="translate(508 10) rotate(0 35.749961853027344 12.5)"><text x="0" y="17.52" font-family="Virgil, Segoe UI Emoji" font-size="20px" fill="#1e1e1e" text-anchor="start" style="white-space: pre;" direction="ltr" dominant-baseline="alphabetic">records</text></g><g transform="translate(810 18) rotate(0 65.09993743896484 12.5)"><text x="0" y="17.52" font-family="Virgil, Segoe UI Emoji" font-size="20px" fill="#1e1e1e" text-anchor="start" style="white-space: pre;" direction="ltr" dominant-baseline="alphabetic">ordered index</text></g></svg>