<?xml version="1.0" standalone="no"?>
<!DOCTYPE svg PUBLIC "-//W3C//DTD SVG 20010904//EN"
 "http://www.w3.org/TR/2001/REC-SVG-20010904/DTD/svg10.dtd">
<svg version="1.0" xmlns="http://www.w3.org/2000/svg"
 width="512.000000pt" height="512.000000pt" viewBox="0 0 512.000000 512.000000"
 preserveAspectRatio="xMidYMid meet">
<metadata>
Created by potrace 1.14, written by Peter Selinger 2001-2017
</metadata>
<g transform="translate(0.000000,512.000000) scale(0.100000,-0.100000)"
fill="#000000" stroke="none">
<path d="M2380 4900 c-76 -9 -138 -39 -182 -88 -49 -55 -67 -99 -73 -186 -6
-84 -7 -89 -25 -141 -56 -168 -211 -276 -400 -278 -121 -2 -193 27 -310 127
-92 79 -207 94 -308 42 -59 -30 -270 -238 -324 -318 -76 -112 -63 -229 38
-348 63 -75 98 -143 112 -218 43 -237 -126 -468 -363 -497 -33 -4 -75 -9 -94
-11 -82 -10 -170 -75 -206 -150 -22 -47 -32 -148 -30 -307 3 -161 10 -210 40
-262 51 -88 125 -130 247 -139 199 -15 326 -112 399 -305 7 -19 13 -73 12
-120 0 -123 -35 -207 -126 -306 -90 -98 -97 -250 -16 -354 58 -74 248 -258
308 -297 40 -26 52 -29 125 -29 93 1 112 9 208 86 155 126 333 149 498 64 103
-53 202 -201 215 -320 17 -156 23 -175 78 -237 68 -78 138 -95 377 -93 209 2
261 15 330 84 53 53 76 109 84 211 7 84 9 95 39 160 116 259 464 327 674 133
70 -65 124 -87 208 -87 51 0 81 6 110 21 83 43 325 288 358 362 46 106 29 197
-59 306 -66 82 -101 152 -113 227 -17 106 1 199 55 289 78 129 204 202 359
208 126 5 229 81 262 191 24 82 23 403 -1 482 -36 112 -122 175 -259 189 -105
10 -118 13 -180 42 -210 98 -304 365 -202 572 13 28 45 75 71 105 85 102 108
190 74 287 -21 61 -37 83 -125 173 -173 179 -258 240 -337 240 -72 0 -132 -20
-183 -60 -140 -111 -213 -143 -330 -142 -162 1 -300 83 -373 221 -36 67 -49
113 -56 203 -9 121 -60 198 -162 245 -51 23 -67 25 -222 27 -92 1 -192 -1
-222 -4z m335 -1720 c66 -17 165 -62 212 -96 60 -43 145 -136 181 -197 102
-170 117 -403 37 -584 -78 -174 -238 -310 -430 -364 -62 -17 -253 -17 -315 0
-174 48 -335 178 -408 331 -56 118 -66 158 -66 290 -1 129 13 188 71 301 76
147 250 288 389 314 16 2 43 9 59 14 40 12 208 7 270 -9z"/>
</g>
</svg>
