<?xml version="1.0" standalone="no"?>
<!DOCTYPE svg PUBLIC "-//W3C//DTD SVG 1.1//EN" "http://www.w3.org/Graphics/SVG/1.1/DTD/svg11.dtd">
<svg t="1710315030909" class="icon" viewBox="0 0 1024 1024" version="1.1" xmlns="http://www.w3.org/2000/svg" p-id="9367" data-spm-anchor-id="a313x.search_index.0.i4.40a93a81P2OU6c" xmlns:xlink="http://www.w3.org/1999/xlink" width="512" height="512" style="transform: rotate(-30deg);">
    <circle cx="512" cy="512" r="512" fill="white"/>
    <path d="M512 71.68c242.7904 0 440.32 197.5296 440.32 440.32s-197.5296 440.32-440.32 440.32-440.32-197.5296-440.32-440.32 197.5296-440.32 440.32-440.32m0-71.68C229.2224 0 0 229.2224 0 512s229.2224 512 512 512 512-229.2224 512-512S794.7776 0 512 0z" fill="#e6e6e6" p-id="9368" data-spm-anchor-id="a313x.search_index.0.i0.40a93a81P2OU6c" class=""></path>
    <path d="M512 632.7808c-61.44 0-112.1792-45.6704-120.0128-104.8576H305.1008c8.1408 106.9056 97.6384 191.1296 206.8992 191.1296 32.2048 0 62.6688-7.3216 89.856-20.3776l-43.3664-75.1104c-14.336 5.9392-30.0032 9.216-46.4896 9.216zM512 391.2192c16.5376 0 32.256 3.2768 46.592 9.2672l43.3664-75.1104A206.8992 206.8992 0 0 0 512 304.9472c-109.312 0-198.912 84.3776-206.8992 191.4368h86.8864C399.616 437.0432 450.4576 391.2192 512 391.2192z" fill="#707070" p-id="9369" data-spm-anchor-id="a313x.search_index.0.i5.40a93a81P2OU6c" class=""></path>
    <path d="M429.6192 512.6656c0 45.5168 36.9152 82.3808 82.3808 82.3808 45.5168 0 82.3808-36.9152 82.3808-82.3808 0-45.5168-36.864-82.3808-82.3808-82.3808-45.5168-0.0512-82.3808 36.864-82.3808 82.3808z m118.7328 0c0 20.0704-16.2816 36.352-36.352 36.352s-36.352-16.2816-36.352-36.352c0-20.0704 16.2816-36.352 36.352-36.352s36.352 16.2816 36.352 36.352z" fill="#000000" p-id="9370"></path>
    <path d="M512 143.9232c-203.264 0-368.0768 164.8128-368.0768 368.0768S308.736 880.0768 512 880.0768s368.0768-164.8128 368.0768-368.0768S715.264 143.9232 512 143.9232z m308.7872 437.1456l-6.7584 25.1904a10.90048 10.90048 0 0 1-13.0048 7.7824l-7.3216-1.6896c-12.3392-2.8672-25.1392 2.6624-31.488 13.6192l-26.1632 45.2096a28.69248 28.69248 0 0 0 3.9424 34.048l5.0688 5.4272c4.0448 4.3008 3.9424 11.008-0.256 15.2064l-18.4832 18.4832c-4.1472 4.1472-10.8544 4.2496-15.1552 0.256l-5.4272-5.0688a28.928 28.928 0 0 0-34.0992-3.9424l-45.312 26.112a28.75392 28.75392 0 0 0-13.6704 31.4368l1.6896 7.2704c1.3312 5.7344-2.0992 11.52-7.8336 13.0048l-25.2928 6.7584c-5.6832 1.536-11.52-1.7408-13.2608-7.3728l-2.2016-7.168a28.83584 28.83584 0 0 0-27.5968-20.4288H485.8368c-12.6976 0-23.9104 8.2944-27.5968 20.4288l-2.2016 7.168a10.89024 10.89024 0 0 1-13.2608 7.3728l-25.2928-6.7584a10.9312 10.9312 0 0 1-7.8336-13.0048l1.6896-7.2704c2.8672-12.3392-2.6624-25.088-13.6704-31.4368l-45.312-26.112a28.75904 28.75904 0 0 0-34.0992 3.9424l-5.4272 5.0688c-4.3008 3.9936-11.008 3.8912-15.1552-0.256l-18.4832-18.4832c-4.1472-4.1472-4.3008-10.9056-0.256-15.2064l5.0688-5.4272c8.704-9.216 10.2912-23.0912 3.9424-34.048l-26.1632-45.2096a28.86656 28.86656 0 0 0-31.488-13.6192l-7.3216 1.6896c-5.7344 1.3312-11.4688-2.0992-13.0048-7.7824l-6.7584-25.1904c-1.536-5.6832 1.7408-11.5712 7.3728-13.2608l7.168-2.1504c12.1344-3.6864 20.48-14.848 20.48-27.5456V485.888c0-12.6464-8.2944-23.8592-20.48-27.5456l-7.168-2.1504a10.89024 10.89024 0 0 1-7.3728-13.2608l6.7584-25.1904c1.536-5.6832 7.2704-9.1136 13.0048-7.7824l7.3216 1.6896c12.3392 2.8672 25.1392-2.6624 31.488-13.6192l26.1632-45.2096c6.3488-10.9568 4.7616-24.7808-3.9424-34.048l-5.0688-5.376c-4.0448-4.3008-3.9424-11.008 0.256-15.2064l18.4832-18.4832c4.1472-4.1472 10.8544-4.2496 15.1552-0.256l5.4272 5.12a28.928 28.928 0 0 0 34.0992 3.9424l45.312-26.112a28.75392 28.75392 0 0 0 13.6704-31.4368l-1.6896-7.2704c-1.3312-5.7344 2.0992-11.52 7.8336-13.0048l25.2928-6.7584c5.6832-1.536 11.52 1.7408 13.2608 7.3728l2.1504 7.168a28.83584 28.83584 0 0 0 27.5968 20.4288h52.3264c12.6976 0 23.9104-8.2944 27.5968-20.4288l2.2016-7.168c1.6896-5.632 7.5776-8.9088 13.2608-7.3728l25.2928 6.7584c5.6832 1.536 9.1648 7.2704 7.8336 13.0048l-1.6896 7.2704c-2.8672 12.3392 2.6624 25.088 13.6704 31.4368l45.312 26.112c11.008 6.3488 24.832 4.7616 34.0992-3.9424l5.4272-5.12c4.3008-3.9936 11.008-3.8912 15.1552 0.256l18.4832 18.4832c4.1472 4.1472 4.3008 10.9056 0.256 15.2064l-5.0688 5.376a28.68224 28.68224 0 0 0-3.9424 34.048l26.1632 45.2096a28.86656 28.86656 0 0 0 31.488 13.6192l7.3216-1.6896c5.7344-1.3312 11.4688 2.0992 13.0048 7.7824l6.7584 25.1904c1.536 5.6832-1.7408 11.5712-7.3728 13.2608l-7.168 2.1504c-12.1344 3.6864-20.48 14.848-20.48 27.5456v52.224c0 12.6464 8.2944 23.8592 20.48 27.5456l7.168 2.1504c5.6832 1.6896 8.96 7.5776 7.424 13.2608z" fill="#bfbfbf" p-id="9371" data-spm-anchor-id="a313x.search_index.0.i3.40a93a81P2OU6c" class=""></path>
    <path d="M629.248 341.1456l-43.3664 75.1616c28.672 22.0672 47.2064 56.7296 47.2064 95.6928 0 39.0144-18.5344 73.728-47.3088 95.7952l43.3664 75.1616c54.5792-37.3248 90.368-99.9424 90.368-170.9056-0.0512-70.9632-35.7888-133.5808-90.2656-170.9056z" fill="#707070" p-id="9372" data-spm-anchor-id="a313x.search_index.0.i7.40a93a81P2OU6c" class=""></path>
</svg>