<svg version="1.1" xmlns="http://www.w3.org/2000/svg" viewBox="0 0 3524.0000000000086 1582.4920634920652" width="3524.0000000000086" height="1582.4920634920652">
  <!-- svg-source:excalidraw -->
  
  <defs>
    <style class="style-fonts">
      @font-face {
        font-family: "Virgil";
        src: url("https://excalidraw.com/Virgil.woff2");
      }
      @font-face {
        font-family: "Cascadia";
        src: url("https://excalidraw.com/Cascadia.woff2");
      }
      @font-face {
        font-family: "Assistant";
        src: url("https://excalidraw.com/Assistant-Regular.woff2");
      }
    </style>
    
  </defs>
  <rect x="0" y="0" width="3524.0000000000086" height="1582.4920634920652" fill="#ffffff"></rect><g stroke-linecap="round" transform="translate(911.8571428571523 42) rotate(0 432 301)"><path d="M32 0 C317.24 1.99, 602.79 1.61, 832 0 M32 0 C255.03 1.38, 478.36 1.19, 832 0 M832 0 C854.62 0.78, 864.45 9.55, 864 32 M832 0 C852.75 2.07, 865.69 10.33, 864 32 M864 32 C863.18 154.55, 863.3 276.88, 864 570 M864 32 C863.23 155.47, 863.6 279.65, 864 570 M864 570 C864.53 590.55, 853.72 601.8, 832 602 M864 570 C863.97 590.96, 855.1 601.55, 832 602 M832 602 C519.01 601.95, 205.28 601.9, 32 602 M832 602 C615.96 604.89, 399.7 604.27, 32 602 M32 602 C12.47 603.12, -0.09 593.15, 0 570 M32 602 C11.24 601.21, 0.16 591.16, 0 570 M0 570 C1.11 426.57, 1.17 284.31, 0 32 M0 570 C0.95 422.88, 1.46 276.23, 0 32 M0 32 C1.49 12.4, 9.88 -0.32, 32 0 M0 32 C-0.66 9.06, 10.88 1.26, 32 0" stroke="#1e1e1e" stroke-width="2" fill="none"></path></g><g transform="translate(985.8571428571523 10) rotate(0 60 12.5)"><text x="0" y="17.52" font-family="Virgil, Segoe UI Emoji" font-size="20px" fill="#1e1e1e" text-anchor="start" style="white-space: pre;" direction="ltr" dominant-baseline="alphabetic">运行时数据区</text></g><g stroke-linecap="round" transform="translate(927.8571428571523 524) rotate(0 419 53)"><path d="M26.5 0 C264.94 -0.89, 501.52 -0.25, 811.5 0 M26.5 0 C183.84 -2.72, 340.79 -2.05, 811.5 0 M811.5 0 C829.94 -0.34, 839.14 10.16, 838 26.5 M811.5 0 C829.35 1.58, 840.08 7.55, 838 26.5 M838 26.5 C836.67 47.84, 839.23 64.81, 838 79.5 M838 26.5 C837.07 46.44, 838.28 66.07, 838 79.5 M838 79.5 C839.44 97.19, 828.51 107.95, 811.5 106 M838 79.5 C839.96 96.44, 829.71 107.43, 811.5 106 M811.5 106 C563.42 103.59, 313.64 103.82, 26.5 106 M811.5 106 C502.97 105.92, 194.13 106.33, 26.5 106 M26.5 106 C10.55 107.3, 1.69 98.17, 0 79.5 M26.5 106 C7.8 106.11, 1.12 97.49, 0 79.5 M0 79.5 C1.48 62.53, 1.57 43.65, 0 26.5 M0 79.5 C-0.57 61.23, 1.21 41.53, 0 26.5 M0 26.5 C0.65 8.54, 10.63 -0.54, 26.5 0 M0 26.5 C-1.28 9.89, 10.14 1.6, 26.5 0" stroke="#1e1e1e" stroke-width="2" fill="none"></path></g><g transform="translate(945.8571428571523 566) rotate(0 40 12.5)"><text x="0" y="17.52" font-family="Virgil, Segoe UI Emoji" font-size="20px" fill="#1e1e1e" text-anchor="start" style="white-space: pre;" direction="ltr" dominant-baseline="alphabetic">本地内存</text></g><g stroke-linecap="round" transform="translate(1039.8571428571522 540) rotate(0 355 37)"><path d="M18.5 0 C250.36 0.19, 482.62 1.09, 691.5 0 M18.5 0 C234.48 -0.07, 450.83 -0.31, 691.5 0 M691.5 0 C704.42 -1.41, 710.37 7.51, 710 18.5 M691.5 0 C705.08 -2.02, 709.74 6.18, 710 18.5 M710 18.5 C710.96 32.88, 711.63 49.25, 710 55.5 M710 18.5 C708.99 26.5, 710.24 36.05, 710 55.5 M710 55.5 C709.09 65.88, 705.04 73.17, 691.5 74 M710 55.5 C711.39 68.79, 703.93 72.84, 691.5 74 M691.5 74 C492.24 76.01, 293.66 76.77, 18.5 74 M691.5 74 C509.18 75.57, 326.92 75.07, 18.5 74 M18.5 74 C7.77 74.84, -1.64 67.9, 0 55.5 M18.5 74 C6.26 73.02, -1.58 65.95, 0 55.5 M0 55.5 C-0.18 43.68, 0.43 35.83, 0 18.5 M0 55.5 C0.73 47.43, 0.11 40.03, 0 18.5 M0 18.5 C0.45 7.58, 4.18 0.29, 18.5 0 M0 18.5 C1.62 8.03, 6.44 1.29, 18.5 0" stroke="#1e1e1e" stroke-width="2" fill="none"></path></g><g transform="translate(1314.8571428571522 564.5) rotate(0 80 12.5)"><text x="80" y="17.52" font-family="Virgil, Segoe UI Emoji" font-size="20px" fill="#1e1e1e" text-anchor="middle" style="white-space: pre;" direction="ltr" dominant-baseline="alphabetic">元空间（方法区）</text></g><g stroke-linecap="round" transform="translate(1571.8571428571522 56) rotate(0 96 227)"><path d="M32 0 C74.4 1.24, 114.79 1.56, 160 0 M32 0 C79.21 -0.94, 127.25 -0.47, 160 0 M160 0 C183.32 -1.72, 190.63 9.63, 192 32 M160 0 C183.58 1.07, 190.68 10.98, 192 32 M192 32 C194.86 173.18, 193.36 315.76, 192 422 M192 32 C191.63 161.09, 191.16 290.52, 192 422 M192 422 C190.44 445.25, 183.14 453.79, 160 454 M192 422 C191.53 442.92, 183.07 456.15, 160 454 M160 454 C128.53 451.51, 95.62 453.31, 32 454 M160 454 C128.98 454.12, 99.57 453.65, 32 454 M32 454 C9.41 454.86, 1.91 443.93, 0 422 M32 454 C11.78 452.01, -0.68 445.34, 0 422 M0 422 C3.23 324.28, 1.55 227.4, 0 32 M0 422 C1.26 323.86, 1.82 225.51, 0 32 M0 32 C-1.01 9.05, 11.4 0.58, 32 0 M0 32 C1.5 8.74, 11.54 -2.22, 32 0" stroke="#1e1e1e" stroke-width="2" fill="none"></path></g><g transform="translate(1657.8571428571522 270.5) rotate(0 10 12.5)"><text x="10" y="17.52" font-family="Virgil, Segoe UI Emoji" font-size="20px" fill="#1e1e1e" text-anchor="middle" style="white-space: pre;" direction="ltr" dominant-baseline="alphabetic">堆</text></g><g stroke-linecap="round" transform="translate(1599.8571428571522 454) rotate(0 73 17.5)"><path d="M8.75 0 C51.8 -1.33, 97.22 -1.63, 137.25 0 M8.75 0 C38.3 -0.82, 68.39 -0.16, 137.25 0 M137.25 0 C143.68 -1.73, 147.88 3.29, 146 8.75 M137.25 0 C142.59 1.68, 146.72 4.9, 146 8.75 M146 8.75 C144.62 15.85, 144.81 20.26, 146 26.25 M146 8.75 C146.67 14.76, 146.53 21.28, 146 26.25 M146 26.25 C145.26 32.34, 144.36 33.95, 137.25 35 M146 26.25 C144.11 31.63, 141.95 35.75, 137.25 35 M137.25 35 C88.13 36.88, 40.73 35.54, 8.75 35 M137.25 35 C111.18 35.24, 85.3 35.42, 8.75 35 M8.75 35 C1.27 34.1, 0.11 33.08, 0 26.25 M8.75 35 C3.59 33.58, 1.19 32, 0 26.25 M0 26.25 C-1.27 19.77, 0.72 11.77, 0 8.75 M0 26.25 C0.89 20.9, 0.2 16.24, 0 8.75 M0 8.75 C-1.08 1.11, 1.49 0.09, 8.75 0 M0 8.75 C0.03 0.93, 3.32 0.3, 8.75 0" stroke="#1e1e1e" stroke-width="2" fill="none"></path></g><g transform="translate(1612.8571428571522 459) rotate(0 60 12.5)"><text x="60" y="17.52" font-family="Virgil, Segoe UI Emoji" font-size="20px" fill="#1e1e1e" text-anchor="middle" style="white-space: pre;" direction="ltr" dominant-baseline="alphabetic">字符串常量池</text></g><g stroke-linecap="round" transform="translate(921.8571428571523 82) rotate(0 320 214)"><path d="M32 0 C222.57 1.9, 413.41 2.02, 608 0 M608 0 C629.51 1.66, 638.14 10.69, 640 32 M640 32 C639.95 173.12, 639.06 314.38, 640 396 M640 396 C641.11 418.3, 630.77 428.24, 608 428 M608 428 C432.51 425.97, 258.06 426.04, 32 428 M32 428 C9.68 429.21, 0.63 417.76, 0 396 M0 396 C-0.33 295.86, 0.59 197.41, 0 32 M0 32 C0.66 9.37, 10.97 -1.71, 32 0" stroke="#1e1e1e" stroke-width="2.5" fill="none" stroke-dasharray="8 10"></path></g><g stroke-linecap="round" transform="translate(1582.8571428571522 558.5) rotate(0 73 17.5)"><path d="M8.75 0 C58.84 -0.53, 107.8 2.45, 137.25 0 M8.75 0 C50.92 0.32, 94.22 0.32, 137.25 0 M137.25 0 C143.9 0.11, 146.98 4.43, 146 8.75 M137.25 0 C141.94 1.81, 147.35 2.39, 146 8.75 M146 8.75 C145.62 13.21, 147.42 17.51, 146 26.25 M146 8.75 C145.28 15.52, 146.02 23.48, 146 26.25 M146 26.25 C145.35 33.22, 141.56 35.43, 137.25 35 M146 26.25 C147.71 30.89, 143.22 34.63, 137.25 35 M137.25 35 C100.42 37.48, 65.59 35.46, 8.75 35 M137.25 35 C109.66 33.66, 82.81 34.87, 8.75 35 M8.75 35 C2.46 35.23, 0.29 30.64, 0 26.25 M8.75 35 C4.73 36.25, -0.55 33.96, 0 26.25 M0 26.25 C-0.91 19.16, -1.2 14.82, 0 8.75 M0 26.25 C-0.74 22.43, -0.1 18.49, 0 8.75 M0 8.75 C-0.83 2.56, 2.48 -1.57, 8.75 0 M0 8.75 C-0.63 4.28, 0.81 -0.38, 8.75 0" stroke="#1e1e1e" stroke-width="2" fill="none"></path></g><g transform="translate(1595.8571428571522 563.5) rotate(0 60 12.5)"><text x="60" y="17.52" font-family="Virgil, Segoe UI Emoji" font-size="20px" fill="#1e1e1e" text-anchor="middle" style="white-space: pre;" direction="ltr" dominant-baseline="alphabetic">运行时常量池</text></g><g transform="translate(1185.8571428571522 56) rotate(0 40 12.5)"><text x="0" y="17.52" font-family="Virgil, Segoe UI Emoji" font-size="20px" fill="#1e1e1e" text-anchor="start" style="white-space: pre;" direction="ltr" dominant-baseline="alphabetic">线程私有</text></g><g stroke-linecap="round" transform="translate(1421.8571428571522 100) rotate(0 60 84)"><path d="M30 0 C53.85 -0.72, 74.9 -0.14, 90 0 M30 0 C45.45 1.15, 62.75 -0.53, 90 0 M90 0 C110.17 1.13, 118.28 10.3, 120 30 M90 0 C111.21 -0.25, 119.34 10.5, 120 30 M120 30 C119.49 70.75, 122.44 110.22, 120 138 M120 30 C119.64 63.49, 120.17 97.99, 120 138 M120 138 C118.12 157.93, 108.36 166.32, 90 168 M120 138 C118.74 160.19, 110.59 169.72, 90 168 M90 168 C78.19 168.32, 65.75 167.14, 30 168 M90 168 C75.83 168.42, 59.41 168.63, 30 168 M30 168 C9.63 166.96, 1.65 156.17, 0 138 M30 168 C9.31 167.55, -1.62 156.77, 0 138 M0 138 C-1.45 100.85, -0.11 67.69, 0 30 M0 138 C-0.82 99.87, -0.9 59.76, 0 30 M0 30 C0.3 8.97, 11.18 0.49, 30 0 M0 30 C-0.73 11.2, 10.73 0.03, 30 0" stroke="#1e1e1e" stroke-width="2" fill="none"></path></g><g transform="translate(1431.8571428571522 171.5) rotate(0 50 12.5)"><text x="50" y="17.52" font-family="Virgil, Segoe UI Emoji" font-size="20px" fill="#1e1e1e" text-anchor="middle" style="white-space: pre;" direction="ltr" dominant-baseline="alphabetic">程序计数器</text></g><g stroke-linecap="round" transform="translate(933.8571428571523 285) rotate(0 308 107)"><path d="M32 0 C179.44 -1.53, 327.07 -1.53, 584 0 M32 0 C154.9 2, 277.13 1.68, 584 0 M584 0 C605.95 -1.73, 615.19 10.31, 616 32 M584 0 C604.57 -0.13, 616.76 11.84, 616 32 M616 32 C617.93 63.5, 617.25 90.67, 616 182 M616 32 C617.36 87.22, 616.9 142.32, 616 182 M616 182 C615.92 203.19, 604.5 212.9, 584 214 M616 182 C614.68 202.27, 606.67 213.59, 584 214 M584 214 C393.69 215.77, 202.54 216.18, 32 214 M584 214 C443.46 215.1, 303.53 215.01, 32 214 M32 214 C10.61 215.69, 0.25 201.46, 0 182 M32 214 C10.55 216.16, -1.42 203.68, 0 182 M0 182 C1.07 146.76, -0.47 111.68, 0 32 M0 182 C0.14 123.12, -0.84 61.86, 0 32 M0 32 C-1.83 8.89, 10.79 0.93, 32 0 M0 32 C-1.49 11.41, 9.09 -0.31, 32 0" stroke="#1e1e1e" stroke-width="2" fill="none"></path></g><g transform="translate(1171.8571428571522 296) rotate(0 64.90998840332031 12.5)"><text x="0" y="17.52" font-family="Virgil, Segoe UI Emoji" font-size="20px" fill="#1e1e1e" text-anchor="start" style="white-space: pre;" direction="ltr" dominant-baseline="alphabetic">Java虚拟机栈</text></g><g stroke-linecap="round" transform="translate(933.8571428571523 101) rotate(0 236 84)"><path d="M32 0 C116.63 0.21, 200.11 -1.67, 440 0 M32 0 C169.83 -1.3, 308 -1.44, 440 0 M440 0 C462.83 -0.17, 470.47 11.81, 472 32 M440 0 C459.32 0.25, 470.19 10.91, 472 32 M472 32 C474.15 59.05, 471.81 83.64, 472 136 M472 32 C472.48 56.28, 472.81 81.98, 472 136 M472 136 C472.2 155.62, 462.23 167.76, 440 168 M472 136 C473.74 157.56, 463.19 170.29, 440 168 M440 168 C320.79 167.6, 202.68 167.15, 32 168 M440 168 C311.45 168.64, 181.9 168.48, 32 168 M32 168 C8.97 168.43, -0.94 156.06, 0 136 M32 168 C11.84 168.14, 0.69 158.86, 0 136 M0 136 C2.05 94.78, 2.3 53.9, 0 32 M0 136 C0.06 101.6, -1.38 67.59, 0 32 M0 32 C-1.2 11.67, 10.52 0.62, 32 0 M0 32 C-0.95 11.51, 11.71 -0.56, 32 0" stroke="#1e1e1e" stroke-width="2" fill="none"></path></g><g transform="translate(1115.8571428571522 110) rotate(0 50 12.5)"><text x="0" y="17.52" font-family="Virgil, Segoe UI Emoji" font-size="20px" fill="#1e1e1e" text-anchor="start" style="white-space: pre;" direction="ltr" dominant-baseline="alphabetic">本地方法栈</text></g><g stroke-linecap="round" transform="translate(1112.535537659726 -19.32160519742672) rotate(270 59 220)"><path d="M29.5 0 C44.05 1.31, 61.7 -0.88, 88.5 0 M29.5 0 C51.78 0.39, 75.96 -0.24, 88.5 0 M88.5 0 C106.21 0.22, 116.61 11.08, 118 29.5 M88.5 0 C110.22 1.53, 118.85 11.44, 118 29.5 M118 29.5 C115.77 106.6, 115.47 182.37, 118 410.5 M118 29.5 C117.94 169.64, 118.24 309.27, 118 410.5 M118 410.5 C116.73 428.8, 107.89 441.22, 88.5 440 M118 410.5 C118.24 432.4, 107.38 441.78, 88.5 440 M88.5 440 C75.84 441.46, 58.52 439.09, 29.5 440 M88.5 440 C72.24 438.88, 54.81 440.71, 29.5 440 M29.5 440 C11.24 440.97, -0.93 432.13, 0 410.5 M29.5 440 C7.83 441.06, -0.94 431.71, 0 410.5 M0 410.5 C0.57 331.66, 0.77 251.16, 0 29.5 M0 410.5 C-0.73 275.47, -0.49 140.07, 0 29.5 M0 29.5 C-0.31 11.74, 8.63 0.88, 29.5 0 M0 29.5 C1.15 7.62, 8.36 -1.61, 29.5 0" stroke="#1e1e1e" stroke-width="4" fill="none"></path></g><g transform="translate(1163.3155440684175 188.17839480257328) rotate(270 8.219993591308594 12.5)"><text x="8.219993591308594" y="17.52" font-family="Virgil, Segoe UI Emoji" font-size="20px" fill="#1e1e1e" text-anchor="middle" style="white-space: pre;" direction="ltr" dominant-baseline="alphabetic">...</text></g><g stroke-linecap="round"><g transform="translate(932.7814605222522 198.30533634471414) rotate(270 59 0)"><path d="M-0.3 1.12 C19.02 0.97, 97.42 0.13, 116.95 0.03 M1.74 0.66 C21.33 0.63, 99.54 1.95, 119.12 1.58" stroke="#1e1e1e" stroke-width="4" fill="none"></path></g></g><mask></mask><g stroke-linecap="round"><g transform="translate(972.688020218614 199.5163625161797) rotate(270 59 0)"><path d="M-1.05 0.03 C18.49 -0.08, 97.04 0.53, 116.9 0.48 M0.61 -1.01 C20.52 -0.96, 99.57 -1.7, 119.04 -1.38" stroke="#1e1e1e" stroke-width="4" fill="none"></path></g></g><mask></mask><g stroke-linecap="round"><g transform="translate(1012.0398541272101 199.57537956956463) rotate(270 59 0)"><path d="M-1.1 0.48 C18.76 0.43, 98.44 -0.21, 118.1 -0.27 M0.53 -0.31 C20.32 -0.18, 97.44 0.82, 117.2 1.12" stroke="#1e1e1e" stroke-width="4" fill="none"></path></g></g><mask></mask><g stroke-linecap="round"><g transform="translate(1051.9380897380024 199.46788877155853) rotate(270 59 0)"><path d="M0.1 -0.27 C19.75 -0.33, 97.31 -0.04, 116.83 0.13 M-1.31 -1.46 C18.79 -1.35, 98.76 1.7, 118.92 1.74" stroke="#1e1e1e" stroke-width="4" fill="none"></path></g></g><mask></mask><g stroke-linecap="round"><g transform="translate(1092.1082230101033 202.84497047685437) rotate(270 59 0)"><path d="M-1.17 0.13 C18.34 0.3, 97.12 0.64, 117.17 0.75 M0.41 -0.84 C20.29 -0.99, 99.7 -0.94, 119.44 -0.98" stroke="#1e1e1e" stroke-width="4" fill="none"></path></g></g><mask></mask><g transform="translate(954.0355376597264 189.17839480257442) rotate(270 20 12.5)"><text x="0" y="17.52" font-family="Virgil, Segoe UI Emoji" font-size="20px" fill="#1e1e1e" text-anchor="start" style="white-space: pre;" direction="ltr" dominant-baseline="alphabetic">栈帧</text></g><g transform="translate(995.5355376597261 187.17839480257447) rotate(270 20 12.5)"><text x="0" y="17.52" font-family="Virgil, Segoe UI Emoji" font-size="20px" fill="#1e1e1e" text-anchor="start" style="white-space: pre;" direction="ltr" dominant-baseline="alphabetic">栈帧</text></g><g transform="translate(1035.5355376597258 187.17839480257408) rotate(270 20 12.5)"><text x="0" y="17.52" font-family="Virgil, Segoe UI Emoji" font-size="20px" fill="#1e1e1e" text-anchor="start" style="white-space: pre;" direction="ltr" dominant-baseline="alphabetic">栈帧</text></g><g transform="translate(1075.535537659726 187.17839480257385) rotate(270 20 12.5)"><text x="0" y="17.52" font-family="Virgil, Segoe UI Emoji" font-size="20px" fill="#1e1e1e" text-anchor="start" style="white-space: pre;" direction="ltr" dominant-baseline="alphabetic">栈帧</text></g><g transform="translate(1113.5355376597263 187.17839480257368) rotate(270 20 12.5)"><text x="0" y="17.52" font-family="Virgil, Segoe UI Emoji" font-size="20px" fill="#1e1e1e" text-anchor="start" style="white-space: pre;" direction="ltr" dominant-baseline="alphabetic">栈帧</text></g><g stroke-linecap="round"><g transform="translate(1078.8961349428873 402.49788419316076) rotate(629.9999999999999 70 5.684341886080802e-14)"><path d="M-0.83 -1.04 C22.76 -1.09, 117.6 -0.11, 141.19 -0.09 M0.93 1.03 C24.51 1.16, 117.64 1.58, 140.87 1.4" stroke="#1e1e1e" stroke-width="4" fill="none"></path></g></g><mask></mask><g stroke-linecap="round" transform="translate(1171.2587268594534 114.71500409549736) rotate(629.9999999999999 71 287.0000000000001)"><path d="M32 0 C49.59 1.27, 67.55 -0.85, 110 0 M32 0 C54.41 0.35, 77.51 0.12, 110 0 M110 0 C132.44 1.18, 140.4 12.64, 142 32 M110 0 C130.59 1.04, 143.97 8.5, 142 32 M142 32 C140.94 236.05, 139.83 439.13, 142 542 M142 32 C141.45 191.61, 141.38 350.97, 142 542 M142 542 C143.44 564.95, 132.95 572.64, 110 574 M142 542 C142.43 561.93, 131.94 575.03, 110 574 M110 574 C81.57 574.76, 53.95 573.16, 32 574 M110 574 C86.33 572.76, 61.97 574.41, 32 574 M32 574 C12.61 572.75, -0.57 563.31, 0 542 M32 574 C12.88 575.95, 0.54 563.78, 0 542 M0 542 C0.84 400.11, 1.34 256.21, 0 32 M0 542 C-0.2 345.04, 0.09 147.62, 0 32 M0 32 C-1.19 11.8, 9.35 1.16, 32 0 M0 32 C-0.11 9.62, 11.65 -0.13, 32 0" stroke="#1e1e1e" stroke-width="4" fill="none"></path></g><g transform="translate(1234.0387332681448 389.21500409549753) rotate(629.9999999999999 8.219993591308594 12.5)"><text x="8.219993591308594" y="17.52" font-family="Virgil, Segoe UI Emoji" font-size="20px" fill="#1e1e1e" text-anchor="middle" style="white-space: pre;" direction="ltr" dominant-baseline="alphabetic">...</text></g><g stroke-linecap="round"><g transform="translate(947.5046497219804 402.34194563766084) rotate(629.9999999999999 70 5.684341886080802e-14)"><path d="M-0.81 -0.11 C22.47 -0.04, 116.74 0.56, 140.15 0.75 M0.97 -1.22 C24.06 -1.52, 116.32 -1.05, 139.29 -0.98" stroke="#1e1e1e" stroke-width="4" fill="none"></path></g></g><mask></mask><g transform="translate(965.7587268594536 390.215004095523) rotate(629.9999999999999 20 12.5)"><text x="0" y="17.52" font-family="Virgil, Segoe UI Emoji" font-size="20px" fill="#1e1e1e" text-anchor="start" style="white-space: pre;" direction="ltr" dominant-baseline="alphabetic">栈帧</text></g><g transform="translate(1033.258726859452 392.21500409551845) rotate(629.9999999999999 20 12.5)"><text x="0" y="17.52" font-family="Virgil, Segoe UI Emoji" font-size="20px" fill="#1e1e1e" text-anchor="start" style="white-space: pre;" direction="ltr" dominant-baseline="alphabetic">栈帧</text></g><g transform="translate(1103.258726859453 392.21500409551084) rotate(629.9999999999999 20 12.5)"><text x="0" y="17.52" font-family="Virgil, Segoe UI Emoji" font-size="20px" fill="#1e1e1e" text-anchor="start" style="white-space: pre;" direction="ltr" dominant-baseline="alphabetic">栈帧</text></g><g transform="translate(1161.258726859453 390.2150040955046) rotate(629.9999999999999 20 12.5)"><text x="0" y="17.52" font-family="Virgil, Segoe UI Emoji" font-size="20px" fill="#1e1e1e" text-anchor="start" style="white-space: pre;" direction="ltr" dominant-baseline="alphabetic">栈帧</text></g><g stroke-linecap="round"><g transform="translate(1017.2459196710878 402.8241859977693) rotate(629.9999999999999 70 0)"><path d="M0.28 -0.49 C23.33 -0.63, 115.98 -0.82, 139.26 -0.91 M-1.03 -1.79 C22.32 -1.8, 118.21 -0.11, 141.58 0.15" stroke="#1e1e1e" stroke-width="4" fill="none"></path></g></g><mask></mask><g stroke-linecap="round"><g transform="translate(1140.3619627212033 401.15335753842714) rotate(629.9999999999999 70 0)"><path d="M1.05 -1.05 C24.53 -0.85, 116.92 -0.13, 140.09 0.21 M0.15 1.01 C23.55 0.92, 115.99 -1.5, 139.19 -1.79" stroke="#1e1e1e" stroke-width="4" fill="none"></path></g></g><mask></mask><g stroke-linecap="round" transform="translate(506.492063492073 187.77777777777777) rotate(0 179 117.50000000000003)"><path d="M0 0 C82.82 -2.6, 165.42 -1, 358 0 M358 0 C355.97 54.65, 356.91 107.96, 358 235 M358 235 C268.13 235.8, 180.54 236.54, 0 235 M0 235 C-0.69 183.8, -0.77 133.69, 0 0" stroke="#1e1e1e" stroke-width="2.5" fill="none" stroke-dasharray="1.5 8"></path></g><g transform="translate(511.492063492073 192.77777777777777) rotate(0 170 112.50000000000003)"><text x="0" y="17.52" font-family="Virgil, Segoe UI Emoji" font-size="20px" fill="#1e1e1e" text-anchor="start" style="white-space: pre;" direction="ltr" dominant-baseline="alphabetic">栈帧说明：</text><text x="0" y="42.519999999999996" font-family="Virgil, Segoe UI Emoji" font-size="20px" fill="#1e1e1e" text-anchor="start" style="white-space: pre;" direction="ltr" dominant-baseline="alphabetic">支持虚拟机进行方法调用和方法执行的</text><text x="0" y="67.52" font-family="Virgil, Segoe UI Emoji" font-size="20px" fill="#1e1e1e" text-anchor="start" style="white-space: pre;" direction="ltr" dominant-baseline="alphabetic">数据结构。每一个方法从调用开始到执</text><text x="0" y="92.52" font-family="Virgil, Segoe UI Emoji" font-size="20px" fill="#1e1e1e" text-anchor="start" style="white-space: pre;" direction="ltr" dominant-baseline="alphabetic">行完成，都对应着一个栈帧在虚拟机栈</text><text x="0" y="117.52" font-family="Virgil, Segoe UI Emoji" font-size="20px" fill="#1e1e1e" text-anchor="start" style="white-space: pre;" direction="ltr" dominant-baseline="alphabetic">/本地方法栈里从入栈到出栈的过程。</text><text x="0" y="142.52" font-family="Virgil, Segoe UI Emoji" font-size="20px" fill="#1e1e1e" text-anchor="start" style="white-space: pre;" direction="ltr" dominant-baseline="alphabetic"></text><text x="0" y="167.52" font-family="Virgil, Segoe UI Emoji" font-size="20px" fill="#1e1e1e" text-anchor="start" style="white-space: pre;" direction="ltr" dominant-baseline="alphabetic">每一个栈帧都包括了局部变量表、操作</text><text x="0" y="192.52" font-family="Virgil, Segoe UI Emoji" font-size="20px" fill="#1e1e1e" text-anchor="start" style="white-space: pre;" direction="ltr" dominant-baseline="alphabetic">数栈、动态链接、方法返回地址和一些</text><text x="0" y="217.52" font-family="Virgil, Segoe UI Emoji" font-size="20px" fill="#1e1e1e" text-anchor="start" style="white-space: pre;" direction="ltr" dominant-baseline="alphabetic">额外的附加信息。</text></g><g stroke-linecap="round"><g transform="translate(959.8571428571522 202.24893578899554) rotate(0 -46.354276584347105 4.131921524743177)"><path d="M0 0 C-23.53 2.35, -45.34 3.01, -92.71 8.26" stroke="#1e1e1e" stroke-width="2.5" fill="none" stroke-dasharray="1.5 8"></path></g><g transform="translate(959.8571428571522 202.24893578899554) rotate(0 -46.354276584347105 4.131921524743177)"><path d="M-70.19 -2.59 C-76.13 0.22, -80.36 1.52, -92.71 8.26" stroke="#1e1e1e" stroke-width="2.5" fill="none" stroke-dasharray="1.5 6"></path></g><g transform="translate(959.8571428571522 202.24893578899554) rotate(0 -46.354276584347105 4.131921524743177)"><path d="M-68.48 14.43 C-74.81 12.97, -79.47 10.01, -92.71 8.26" stroke="#1e1e1e" stroke-width="2.5" fill="none" stroke-dasharray="1.5 6"></path></g></g><mask></mask><g stroke-linecap="round"><g transform="translate(967.6349206349296 404.1887962107535) rotate(0 -46.82498750703496 0.9702587212302092)"><path d="M0 0 C-37.25 1.32, -73.57 3.43, -93.65 1.94" stroke="#1e1e1e" stroke-width="2.5" fill="none" stroke-dasharray="1.5 8"></path></g><g transform="translate(967.6349206349296 404.1887962107535) rotate(0 -46.82498750703496 0.9702587212302092)"><path d="M-69.97 -6.09 C-80.15 -2.76, -89.35 1.7, -93.65 1.94" stroke="#1e1e1e" stroke-width="2.5" fill="none" stroke-dasharray="1.5 6"></path></g><g transform="translate(967.6349206349296 404.1887962107535) rotate(0 -46.82498750703496 0.9702587212302092)"><path d="M-70.35 11.01 C-80.22 7.7, -89.27 5.54, -93.65 1.94" stroke="#1e1e1e" stroke-width="2.5" fill="none" stroke-dasharray="1.5 6"></path></g></g><mask></mask><g stroke-linecap="round"><g transform="translate(982.7881931001052 473.7150040954979) rotate(0 -0.8476439755015122 121.92027573002866)"><path d="M-0.41 0.72 C-0.81 41.58, -1.64 203.89, -1.84 244.58 M1.57 0.04 C0.96 40.63, -2.21 202.34, -2.86 242.85" stroke="#1e1e1e" stroke-width="2" fill="none"></path></g><g transform="translate(982.7881931001052 473.7150040954979) rotate(0 -0.8476439755015122 121.92027573002866)"><path d="M-10.99 219.21 C-7.14 227.08, -4.31 235.53, -2.86 242.85 M-10.99 219.21 C-7.46 228.27, -4.75 237.43, -2.86 242.85" stroke="#1e1e1e" stroke-width="2" fill="none"></path></g><g transform="translate(982.7881931001052 473.7150040954979) rotate(0 -0.8476439755015122 121.92027573002866)"><path d="M6.11 219.51 C4.11 227.23, 1.09 235.57, -2.86 242.85 M6.11 219.51 C3.01 228.38, -0.91 237.42, -2.86 242.85" stroke="#1e1e1e" stroke-width="2" fill="none"></path></g></g><mask></mask><g stroke-linecap="round" transform="translate(880.5238095238194 719.7777777777776) rotate(0 88.88888888888889 203.33333333333348)"><path d="M32 0 C63.75 0.36, 94.33 2.16, 145.78 0 M32 0 C59.83 -0.29, 89.79 -0.77, 145.78 0 M145.78 0 C168.18 1.89, 179.18 11.64, 177.78 32 M145.78 0 C166.04 2.25, 175.77 11.72, 177.78 32 M177.78 32 C179.33 120.61, 179.99 210.17, 177.78 374.67 M177.78 32 C177.13 158.8, 176.88 285.14, 177.78 374.67 M177.78 374.67 C178.4 396.11, 166.8 408.57, 145.78 406.67 M177.78 374.67 C176.4 397.01, 168.27 404.46, 145.78 406.67 M145.78 406.67 C120.44 409.65, 93.73 407.96, 32 406.67 M145.78 406.67 C113.36 405.61, 81.87 405.42, 32 406.67 M32 406.67 C12.07 406.93, -0.13 397.84, 0 374.67 M32 406.67 C10.55 407.85, -1.74 394.54, 0 374.67 M0 374.67 C-1.54 283.5, 0.36 191.06, 0 32 M0 374.67 C0.44 270.35, 0.09 167.23, 0 32 M0 32 C-0.67 10.93, 10.98 1.56, 32 0 M0 32 C1.75 12.62, 11.86 0.34, 32 0" stroke="#1e1e1e" stroke-width="2" fill="none"></path></g><g stroke-linecap="round" transform="translate(893.8571428571524 737.5555555555554) rotate(0 75.55555555555563 35.55555555555554)"><path d="M17.78 0 C61.99 -2.81, 106.98 -0.18, 133.33 0 M17.78 0 C49.27 0.17, 81.5 -0.59, 133.33 0 M133.33 0 C146.55 0.05, 151.65 6.22, 151.11 17.78 M133.33 0 C144.1 -2.25, 149.25 4.96, 151.11 17.78 M151.11 17.78 C150.5 27.33, 149.94 34.68, 151.11 53.33 M151.11 17.78 C152.22 26.68, 150.67 33.5, 151.11 53.33 M151.11 53.33 C151.97 66.34, 143.62 72.16, 133.33 71.11 M151.11 53.33 C151.42 62.95, 145.68 71.83, 133.33 71.11 M133.33 71.11 C98.52 70.42, 64.99 71.56, 17.78 71.11 M133.33 71.11 C101.1 70.15, 67.19 71.03, 17.78 71.11 M17.78 71.11 C4.96 72.07, 1.46 66.33, 0 53.33 M17.78 71.11 C3.73 68.92, -1.76 67.43, 0 53.33 M0 53.33 C0.93 41.56, -1.02 33.76, 0 17.78 M0 53.33 C-0.23 40.14, -1.26 26, 0 17.78 M0 17.78 C-1.91 5.65, 7.25 1.03, 17.78 0 M0 17.78 C1.56 7.23, 3.75 -1.11, 17.78 0" stroke="#1e1e1e" stroke-width="2" fill="none"></path></g><g transform="translate(919.412698412708 760.611111111111) rotate(0 50 12.5)"><text x="50" y="17.52" font-family="Virgil, Segoe UI Emoji" font-size="20px" fill="#1e1e1e" text-anchor="middle" style="white-space: pre;" direction="ltr" dominant-baseline="alphabetic">局部变量表</text></g><g stroke-linecap="round" transform="translate(893.8571428571522 821.9999999999999) rotate(0 75.55555555555563 35.555555555555486)"><path d="M17.78 0 C54.73 -0.67, 92.09 1.64, 133.33 0 M17.78 0 C55 -1.34, 91.74 -0.82, 133.33 0 M133.33 0 C144.24 1.45, 152.23 6.84, 151.11 17.78 M133.33 0 C143.6 -1.41, 152.68 6.98, 151.11 17.78 M151.11 17.78 C150.76 26.03, 149.75 35.64, 151.11 53.33 M151.11 17.78 C150.31 27.16, 151.19 34.19, 151.11 53.33 M151.11 53.33 C150.76 66, 147.11 72.72, 133.33 71.11 M151.11 53.33 C152.26 65.29, 146.37 69.94, 133.33 71.11 M133.33 71.11 C110.01 69.35, 83.63 70.75, 17.78 71.11 M133.33 71.11 C86.64 69.36, 40.42 69.96, 17.78 71.11 M17.78 71.11 C6.04 70.12, -1.8 63.2, 0 53.33 M17.78 71.11 C4.47 69.69, -1.05 65.14, 0 53.33 M0 53.33 C-1.88 40.55, 0.86 25.27, 0 17.78 M0 53.33 C-0.94 43.58, 0.49 32.45, 0 17.78 M0 17.78 C-1.96 5.97, 6.72 -1.46, 17.78 0 M0 17.78 C-0.53 3.65, 5.66 0.29, 17.78 0" stroke="#1e1e1e" stroke-width="2" fill="none"></path></g><g transform="translate(929.4126984127079 845.0555555555554) rotate(0 40 12.5)"><text x="40" y="17.52" font-family="Virgil, Segoe UI Emoji" font-size="20px" fill="#1e1e1e" text-anchor="middle" style="white-space: pre;" direction="ltr" dominant-baseline="alphabetic">操作数栈</text></g><g stroke-linecap="round" transform="translate(891.6349206349303 906.4444444444446) rotate(0 75.55555555555563 35.55555555555554)"><path d="M17.78 0 C61.37 1.13, 104.34 1.9, 133.33 0 M17.78 0 C48.8 -0.94, 80.2 -1.27, 133.33 0 M133.33 0 C144.71 -1.68, 150 6.39, 151.11 17.78 M133.33 0 C147.1 -1.82, 150.55 6.98, 151.11 17.78 M151.11 17.78 C151.67 30.68, 150.52 44.1, 151.11 53.33 M151.11 17.78 C150.91 30.5, 150.98 44.84, 151.11 53.33 M151.11 53.33 C152.67 66.61, 146.12 70.93, 133.33 71.11 M151.11 53.33 C151.8 65.79, 143.23 68.83, 133.33 71.11 M133.33 71.11 C103.69 70.8, 78.56 70.31, 17.78 71.11 M133.33 71.11 C90.58 71.09, 46.3 70.5, 17.78 71.11 M17.78 71.11 C7.35 71.73, -0.12 66.26, 0 53.33 M17.78 71.11 C3.68 70.83, -1.32 64.87, 0 53.33 M0 53.33 C0.61 38.36, 1.69 25.24, 0 17.78 M0 53.33 C-0.65 42.9, 0.97 30.82, 0 17.78 M0 17.78 C-0.46 5.64, 5.75 1.67, 17.78 0 M0 17.78 C0.14 4.55, 5.59 1.9, 17.78 0" stroke="#1e1e1e" stroke-width="2" fill="none"></path></g><g transform="translate(927.1904761904859 929.5) rotate(0 40 12.5)"><text x="40" y="17.52" font-family="Virgil, Segoe UI Emoji" font-size="20px" fill="#1e1e1e" text-anchor="middle" style="white-space: pre;" direction="ltr" dominant-baseline="alphabetic">动态链接</text></g><g stroke-linecap="round" transform="translate(893.8571428571523 990.8888888888889) rotate(0 75.55555555555566 35.55555555555554)"><path d="M17.78 0 C45.94 0.08, 77.85 -2.23, 133.33 0 M17.78 0 C40.74 0.09, 64.98 0.1, 133.33 0 M133.33 0 C144.11 -1.9, 149.75 7.18, 151.11 17.78 M133.33 0 C146.86 1.8, 151.73 6.15, 151.11 17.78 M151.11 17.78 C150.5 29.7, 152.21 44.87, 151.11 53.33 M151.11 17.78 C151.58 27.28, 151.6 37.29, 151.11 53.33 M151.11 53.33 C150.72 63.55, 145.09 72.59, 133.33 71.11 M151.11 53.33 C149.7 64.94, 145.16 70.01, 133.33 71.11 M133.33 71.11 C98.09 71.11, 61.66 70.21, 17.78 71.11 M133.33 71.11 C104.82 71.45, 74.54 72.93, 17.78 71.11 M17.78 71.11 C7.71 71.8, -0.71 66.39, 0 53.33 M17.78 71.11 C8.07 72.26, -1.41 66.95, 0 53.33 M0 53.33 C-1.28 39.81, -1.17 29.76, 0 17.78 M0 53.33 C0.01 45.51, -0.12 36.04, 0 17.78 M0 17.78 C1.71 6.18, 6.48 1.81, 17.78 0 M0 17.78 C1.91 4.92, 4.32 0.57, 17.78 0" stroke="#1e1e1e" stroke-width="2" fill="none"></path></g><g transform="translate(909.412698412708 1013.9444444444443) rotate(0 60 12.5)"><text x="60" y="17.52" font-family="Virgil, Segoe UI Emoji" font-size="20px" fill="#1e1e1e" text-anchor="middle" style="white-space: pre;" direction="ltr" dominant-baseline="alphabetic">方法返回链接</text></g><g stroke-linecap="round"><g transform="translate(1051.63492063493 470.88888888888823) rotate(0 -25.3024773958669 121.1111111111112)"><path d="M-0.74 -0.23 C-9.25 40.36, -43 202.82, -51.42 243.11 M1.07 -1.4 C-7.02 38.9, -40.22 200.81, -49.14 241.46" stroke="#1e1e1e" stroke-width="2" fill="none"></path></g><g transform="translate(1051.63492063493 470.88888888888823) rotate(0 -25.3024773958669 121.1111111111112)"><path d="M-52.66 216.71 C-52.19 221.97, -49.38 228.79, -49.14 241.46 M-52.66 216.71 C-51.64 223.38, -51.3 228.77, -49.14 241.46" stroke="#1e1e1e" stroke-width="2" fill="none"></path></g><g transform="translate(1051.63492063493 470.88888888888823) rotate(0 -25.3024773958669 121.1111111111112)"><path d="M-35.92 220.24 C-39.91 224.46, -41.57 230.33, -49.14 241.46 M-35.92 220.24 C-38.99 226.21, -42.72 230.75, -49.14 241.46" stroke="#1e1e1e" stroke-width="2" fill="none"></path></g></g><mask></mask><g stroke-linecap="round"><g transform="translate(1122.7460317460414 473.1111111111105) rotate(0 0 0)"><path d="M0.09 -0.31 C0.09 -0.39, 0.26 -0.41, 0.23 -0.31 M-0.29 0.3 C-0.33 0.24, 0.08 0.07, 0.08 -0.01" stroke="#1e1e1e" stroke-width="2" fill="none"></path></g><g transform="translate(1122.7460317460414 473.1111111111105) rotate(0 0 0)"><path d="M0.08 -0.01 C0.08 -0.01, 0.08 -0.01, 0.08 -0.01 M0.08 -0.01 C0.08 -0.01, 0.08 -0.01, 0.08 -0.01" stroke="#1e1e1e" stroke-width="2" fill="none"></path></g><g transform="translate(1122.7460317460414 473.1111111111105) rotate(0 0 0)"><path d="M0.08 -0.01 C0.08 -0.01, 0.08 -0.01, 0.08 -0.01 M0.08 -0.01 C0.08 -0.01, 0.08 -0.01, 0.08 -0.01" stroke="#1e1e1e" stroke-width="2" fill="none"></path></g></g><mask></mask><g stroke-linecap="round"><g transform="translate(1121.900983435718 473.71500409549765) rotate(0 -44.584948056159874 120.80916461891758)"><path d="M0.29 0.89 C-14.42 41.44, -74.2 202.13, -89.11 242.23 M-1.02 0.31 C-15.8 40.61, -75.21 200.02, -90.02 240.43" stroke="#1e1e1e" stroke-width="2" fill="none"></path></g><g transform="translate(1121.900983435718 473.71500409549765) rotate(0 -44.584948056159874 120.80916461891758)"><path d="M-89.89 215.43 C-88.67 221.17, -89.16 226.78, -90.02 240.43 M-89.89 215.43 C-90.36 223.37, -89.34 230.27, -90.02 240.43" stroke="#1e1e1e" stroke-width="2" fill="none"></path></g><g transform="translate(1121.900983435718 473.71500409549765) rotate(0 -44.584948056159874 120.80916461891758)"><path d="M-73.85 221.36 C-76.19 225.8, -80.3 230.08, -90.02 240.43 M-73.85 221.36 C-78.94 227.49, -82.58 232.67, -90.02 240.43" stroke="#1e1e1e" stroke-width="2" fill="none"></path></g></g><mask></mask><g stroke-linecap="round" transform="translate(893.8571428571522 1077.555555555556) rotate(0 75.55555555555563 17.5)"><path d="M8.75 0 C44.4 -1.43, 77.9 0.85, 142.36 0 M8.75 0 C45.26 -0.38, 81.14 -0.03, 142.36 0 M142.36 0 C149.93 0.5, 149.37 1.92, 151.11 8.75 M142.36 0 C146.44 -0.95, 150.36 1.54, 151.11 8.75 M151.11 8.75 C152.42 13.74, 149.52 21.06, 151.11 26.25 M151.11 8.75 C151.13 15.38, 151.9 22.42, 151.11 26.25 M151.11 26.25 C152.59 32.66, 149.38 33.7, 142.36 35 M151.11 26.25 C149.76 32.76, 149.74 34.13, 142.36 35 M142.36 35 C110.06 34.56, 78.85 35.49, 8.75 35 M142.36 35 C103.3 34.77, 65.5 35.62, 8.75 35 M8.75 35 C3.53 33.66, 0.22 30.8, 0 26.25 M8.75 35 C3.11 34.46, 0.29 32.6, 0 26.25 M0 26.25 C-0.57 22.74, -0.05 14.53, 0 8.75 M0 26.25 C0.87 22.11, -0.11 18.62, 0 8.75 M0 8.75 C-1.75 2.3, 1.28 -0.53, 8.75 0 M0 8.75 C1.17 1.31, 4.9 1.8, 8.75 0" stroke="#1e1e1e" stroke-width="2" fill="none"></path></g><g transform="translate(961.1927048213993 1082.555555555556) rotate(0 8.219993591308594 12.5)"><text x="8.219993591308594" y="17.52" font-family="Virgil, Segoe UI Emoji" font-size="20px" fill="#1e1e1e" text-anchor="middle" style="white-space: pre;" direction="ltr" dominant-baseline="alphabetic">...</text></g><g stroke-linecap="round" transform="translate(199.92857142858145 716.0873015873017) rotate(0 282.8571428571429 58.571428571428555)"><path d="M29.29 0 C154.36 1.44, 282.31 1.36, 536.43 0 C556.84 -2.72, 565.81 12.6, 565.71 29.29 C566.21 45.83, 565.72 59.95, 565.71 87.86 C565.37 108.94, 553.3 116.02, 536.43 117.14 C333.53 118.32, 133.18 119.29, 29.29 117.14 C12.82 115.53, 2.82 109.28, 0 87.86 C1.01 70.46, -1.71 55.23, 0 29.29 C-3.54 12.13, 8.6 0.11, 29.29 0" stroke="none" stroke-width="0" fill="#ffffff"></path><path d="M29.29 0 C230.95 1.22, 434.13 1.8, 536.43 0 M29.29 0 C183.99 -0.47, 338.65 -0.55, 536.43 0 M536.43 0 C556.52 -0.49, 566.51 10.88, 565.71 29.29 M536.43 0 C554.73 2.17, 567.53 10.2, 565.71 29.29 M565.71 29.29 C563.87 44.21, 564.21 61.64, 565.71 87.86 M565.71 29.29 C565.39 53.4, 566.75 76.1, 565.71 87.86 M565.71 87.86 C566.6 108.96, 557.81 117.47, 536.43 117.14 M565.71 87.86 C564.87 106.62, 557.42 116.48, 536.43 117.14 M536.43 117.14 C341.7 117.72, 147.23 117.84, 29.29 117.14 M536.43 117.14 C402.78 116.92, 269.88 116.65, 29.29 117.14 M29.29 117.14 C8.57 116.64, -1.86 108.78, 0 87.86 M29.29 117.14 C11.44 116.66, 1.88 107.34, 0 87.86 M0 87.86 C-1.28 76.25, -1.13 61.06, 0 29.29 M0 87.86 C-0.32 68.9, 0.61 51.8, 0 29.29 M0 29.29 C0.26 11.59, 8.5 -0.97, 29.29 0 M0 29.29 C0.19 8.69, 11.16 -0.19, 29.29 0" stroke="#1e1e1e" stroke-width="2" fill="none"></path></g><g stroke-linecap="round"><g transform="translate(265.64285714286723 718.5873015873018) rotate(0 0 58.75)"><path d="M1.05 -0.21 C1.11 19.24, 0.97 96.56, 0.96 116.35 M0.14 -1.37 C0.08 18.22, 0.42 97.6, 0.51 117.29" stroke="#1e1e1e" stroke-width="2" fill="none"></path></g></g><mask></mask><g stroke-linecap="round"><g transform="translate(200.64285714286723 776.0873015873018) rotate(0 281.25 0)"><path d="M-0.7 -0.66 C93.09 -0.67, 467.64 -0.41, 561.64 -0.39 M1.13 1.61 C95.4 1.79, 470.27 1.13, 563.91 0.94" stroke="#1e1e1e" stroke-width="2" fill="none"></path></g></g><mask></mask><g transform="translate(223.14285714286723 733.5873015873017) rotate(0 10 12.5)"><text x="0" y="17.52" font-family="Virgil, Segoe UI Emoji" font-size="20px" fill="#1e1e1e" text-anchor="start" style="white-space: pre;" direction="ltr" dominant-baseline="alphabetic">槽</text></g><g stroke-linecap="round"><g transform="translate(327.5464590421292 718.1306517045736) rotate(0 0 58.75)"><path d="M0.32 -0.8 C0.2 18.84, -0.29 98.41, -0.18 118.25 M-0.97 1.39 C-1.31 20.66, -1.51 97.38, -1.22 116.52" stroke="#1e1e1e" stroke-width="2" fill="none"></path></g></g><mask></mask><g transform="translate(283.14285714286723 736.0873015873018) rotate(0 6.879997253417969 12.5)"><text x="0" y="17.52" font-family="Virgil, Segoe UI Emoji" font-size="20px" fill="#1e1e1e" text-anchor="start" style="white-space: pre;" direction="ltr" dominant-baseline="alphabetic">0</text></g><g stroke-linecap="round"><g transform="translate(892.4285714285816 777.0099856442905) rotate(0 -60.89285714285717 -0.7193108556283505)"><path d="M0.32 0.51 C-19.85 0.3, -100.68 -0.54, -120.98 -0.93 M-0.97 -0.27 C-21.23 -0.87, -101.32 -2.72, -121.5 -2.79" stroke="#1e1e1e" stroke-width="2" fill="none"></path></g><g transform="translate(892.4285714285816 777.0099856442905) rotate(0 -60.89285714285717 -0.7193108556283505)"><path d="M-97.88 -10.99 C-104.19 -7.08, -111.36 -5.37, -121.5 -2.79 M-97.88 -10.99 C-103.64 -8.7, -111.05 -7.68, -121.5 -2.79" stroke="#1e1e1e" stroke-width="2" fill="none"></path></g><g transform="translate(892.4285714285816 777.0099856442905) rotate(0 -60.89285714285717 -0.7193108556283505)"><path d="M-98.13 6.11 C-104.41 4.82, -111.51 1.34, -121.5 -2.79 M-98.13 6.11 C-103.86 3.8, -111.2 0.21, -121.5 -2.79" stroke="#1e1e1e" stroke-width="2" fill="none"></path></g></g><mask></mask><g transform="translate(213.14285714286723 793.5873015873018) rotate(0 20 12.5)"><text x="0" y="17.52" font-family="Virgil, Segoe UI Emoji" font-size="20px" fill="#1e1e1e" text-anchor="start" style="white-space: pre;" direction="ltr" dominant-baseline="alphabetic">变量</text></g><g transform="translate(280.64285714286723 793.5873015873018) rotate(0 18.209976196289062 12.5)"><text x="0" y="17.52" font-family="Virgil, Segoe UI Emoji" font-size="20px" fill="#1e1e1e" text-anchor="start" style="white-space: pre;" direction="ltr" dominant-baseline="alphabetic">this</text></g><g stroke-linecap="round"><g transform="translate(518.1428571428672 716.0873015873018) rotate(0 0 58.75)"><path d="M1.16 0.92 C1.04 20.62, -0.78 98.42, -1.05 117.73 M0.32 0.36 C0.58 19.71, 1.4 96.17, 1.11 115.73" stroke="#1e1e1e" stroke-width="2" fill="none"></path></g></g><mask></mask><g transform="translate(370.95238095239074 791.9920634920638) rotate(0 48.219993591308594 12.5)"><text x="0" y="17.52" font-family="Virgil, Segoe UI Emoji" font-size="20px" fill="#1e1e1e" text-anchor="start" style="white-space: pre;" direction="ltr" dominant-baseline="alphabetic">方法实参...</text></g><g transform="translate(593.8095238095335 791.992063492064) rotate(0 48.219993591308594 12.5)"><text x="0" y="17.52" font-family="Virgil, Segoe UI Emoji" font-size="20px" fill="#1e1e1e" text-anchor="start" style="white-space: pre;" direction="ltr" dominant-baseline="alphabetic">局部变量...</text></g><g stroke-linecap="round"><g transform="translate(353.8095238095335 717.7063492063496) rotate(0 0 28.571428571428555)"><path d="M-0.64 -0.58 C-0.79 8.96, -1.19 47.83, -1.06 57.43 M1.22 1.74 C1.45 10.88, 1.39 46.04, 1.09 55.46" stroke="#1e1e1e" stroke-width="2" fill="none"></path></g></g><mask></mask><g stroke-linecap="round"><g transform="translate(382.2445163455834 717.85106711202) rotate(0 0 28.571428571428555)"><path d="M0.77 1.04 C0.65 10.55, -0.82 47.18, -0.88 56.41 M-0.29 0.55 C-0.01 10.25, 1.35 48.09, 1.37 57.56" stroke="#1e1e1e" stroke-width="2" fill="none"></path></g></g><mask></mask><g stroke-linecap="round"><g transform="translate(413.67308777415474 717.85106711202) rotate(0 0 28.571428571428555)"><path d="M-0.32 0.86 C-0.41 10.45, -0.58 47.1, -0.41 56.38 M1.71 0.27 C1.42 10.09, -1.34 47.96, -1.57 57.52" stroke="#1e1e1e" stroke-width="2" fill="none"></path></g></g><mask></mask><g stroke-linecap="round"><g transform="translate(547.9588020598691 720.708209969163) rotate(0 0 28.571428571428555)"><path d="M-0.25 -0.78 C-0.26 8.72, 0.59 46.64, 0.57 56.36 M1.81 1.43 C1.64 11.11, 0.45 48.48, -0.08 57.48" stroke="#1e1e1e" stroke-width="2" fill="none"></path></g></g><mask></mask><g stroke-linecap="round"><g transform="translate(576.5302306312976 714.9939242548771) rotate(0 0 28.571428571428555)"><path d="M-1.19 1.09 C-0.96 10.8, 0.39 48.12, 0.57 57.66 M0.38 0.61 C0.58 10.01, 0.13 46.47, -0.08 55.8" stroke="#1e1e1e" stroke-width="2" fill="none"></path></g></g><mask></mask><g stroke-linecap="round"><g transform="translate(610.8159449170118 714.9939242548771) rotate(0 0 28.571428571428555)"><path d="M-0.97 0.96 C-0.97 10.62, -0.89 48.39, -0.57 57.94 M0.73 0.42 C0.56 9.75, -1.81 46.88, -1.81 56.23" stroke="#1e1e1e" stroke-width="2" fill="none"></path></g></g><mask></mask><g transform="translate(456.6666666666764 734.8492063492064) rotate(0 8.219993591308594 12.5)"><text x="0" y="17.52" font-family="Virgil, Segoe UI Emoji" font-size="20px" fill="#1e1e1e" text-anchor="start" style="white-space: pre;" direction="ltr" dominant-baseline="alphabetic">...</text></g><g transform="translate(674.1609587896535 733.7777777777782) rotate(0 8.219993591308594 12.5)"><text x="0" y="17.52" font-family="Virgil, Segoe UI Emoji" font-size="20px" fill="#1e1e1e" text-anchor="start" style="white-space: pre;" direction="ltr" dominant-baseline="alphabetic">...</text></g><g stroke-linecap="round" transform="translate(303.3809523809606 525.920634920635) rotate(0 179 57.85714285714289)"><path d="M0 0 C130.11 2.6, 259.06 2.96, 358 0 M358 0 C356.66 34.4, 356.03 67.68, 358 115.71 M358 115.71 C237.67 116.25, 118.72 117.53, 0 115.71 M0 115.71 C1.97 75.73, 1.54 38.72, 0 0" stroke="#1e1e1e" stroke-width="2.5" fill="none" stroke-dasharray="1.5 8"></path></g><g transform="translate(308.3809523809606 533.7777777777779) rotate(0 170 50)"><text x="0" y="17.52" font-family="Virgil, Segoe UI Emoji" font-size="20px" fill="#1e1e1e" text-anchor="start" style="white-space: pre;" direction="ltr" dominant-baseline="alphabetic">局部变量表说明：</text><text x="0" y="42.519999999999996" font-family="Virgil, Segoe UI Emoji" font-size="20px" fill="#1e1e1e" text-anchor="start" style="white-space: pre;" direction="ltr" dominant-baseline="alphabetic">槽：最小单位，32位，占用 64 </text><text x="0" y="67.52" font-family="Virgil, Segoe UI Emoji" font-size="20px" fill="#1e1e1e" text-anchor="start" style="white-space: pre;" direction="ltr" dominant-baseline="alphabetic">位的数据类型会占用两个紧挨着的槽。</text><text x="0" y="92.52" font-family="Virgil, Segoe UI Emoji" font-size="20px" fill="#1e1e1e" text-anchor="start" style="white-space: pre;" direction="ltr" dominant-baseline="alphabetic">this：调用该成员方法的对象。</text></g><g stroke-linecap="round"><g transform="translate(463.94231779525205 717.7063492063493) rotate(0 0.30360062111137864 -35.71428571428572)"><path d="M-1.09 -0.85 C-1.14 -12.54, 0.33 -58.9, 0.77 -70.56" stroke="#1e1e1e" stroke-width="2.5" fill="none" stroke-dasharray="1.5 8"></path></g><g transform="translate(463.94231779525205 717.7063492063493) rotate(0 0.30360062111137864 -35.71428571428572)"><path d="M8.53 -46.79 C4.18 -55.82, 4.04 -63.77, 0.77 -70.56" stroke="#1e1e1e" stroke-width="2.5" fill="none" stroke-dasharray="1.5 6"></path></g><g transform="translate(463.94231779525205 717.7063492063493) rotate(0 0.30360062111137864 -35.71428571428572)"><path d="M-8.56 -47.37 C-6.26 -56.02, 0.24 -63.75, 0.77 -70.56" stroke="#1e1e1e" stroke-width="2.5" fill="none" stroke-dasharray="1.5 6"></path></g></g><mask></mask><g stroke-linecap="round" transform="translate(1358.2380952381054 682.7063492063495) rotate(0 316.1428571428572 244.99999999999994)"><path d="M0 0 C192.41 -0.03, 385.65 -0.01, 632.29 0 M632.29 0 C631.29 164.46, 632.04 327.64, 632.29 490 M632.29 490 C452.13 488.84, 272.5 488.96, 0 490 M0 490 C-1.56 323.67, -1.35 155.6, 0 0" stroke="#1e1e1e" stroke-width="2.5" fill="none" stroke-dasharray="1.5 8"></path></g><g transform="translate(1363.2380952381054 687.7063492063495) rotate(0 310.3125 239.99999999999994)"><text x="0" y="19.3125" font-family="Cascadia, Segoe UI Emoji" font-size="20px" fill="#1e1e1e" text-anchor="start" style="white-space: pre;" direction="ltr" dominant-baseline="alphabetic">操作数栈说明：</text><text x="0" y="43.3125" font-family="Cascadia, Segoe UI Emoji" font-size="20px" fill="#1e1e1e" text-anchor="start" style="white-space: pre;" direction="ltr" dominant-baseline="alphabetic">操作数栈（Operand </text><text x="0" y="67.3125" font-family="Cascadia, Segoe UI Emoji" font-size="20px" fill="#1e1e1e" text-anchor="start" style="white-space: pre;" direction="ltr" dominant-baseline="alphabetic">Stack）是一种栈结构，用于保存方法执行时的中间结果、参数和返回</text><text x="0" y="91.3125" font-family="Cascadia, Segoe UI Emoji" font-size="20px" fill="#1e1e1e" text-anchor="start" style="white-space: pre;" direction="ltr" dominant-baseline="alphabetic">值。当一个方法刚刚开始执行的时候，这个方法的操作数栈是空的。</text><text x="0" y="115.3125" font-family="Cascadia, Segoe UI Emoji" font-size="20px" fill="#1e1e1e" text-anchor="start" style="white-space: pre;" direction="ltr" dominant-baseline="alphabetic"></text><text x="0" y="139.3125" font-family="Cascadia, Segoe UI Emoji" font-size="20px" fill="#1e1e1e" text-anchor="start" style="white-space: pre;" direction="ltr" dominant-baseline="alphabetic">在方法执行的过程中，操作数栈被用于执行各种字节码指令。例如，将</text><text x="0" y="163.3125" font-family="Cascadia, Segoe UI Emoji" font-size="20px" fill="#1e1e1e" text-anchor="start" style="white-space: pre;" direction="ltr" dominant-baseline="alphabetic">两个数字相加的指令会从操作数栈中弹出两个数字，将它们相加，然后</text><text x="0" y="187.3125" font-family="Cascadia, Segoe UI Emoji" font-size="20px" fill="#1e1e1e" text-anchor="start" style="white-space: pre;" direction="ltr" dominant-baseline="alphabetic">将结果压入操作数栈中。</text><text x="0" y="211.3125" font-family="Cascadia, Segoe UI Emoji" font-size="20px" fill="#1e1e1e" text-anchor="start" style="white-space: pre;" direction="ltr" dominant-baseline="alphabetic"></text><text x="0" y="235.3125" font-family="Cascadia, Segoe UI Emoji" font-size="20px" fill="#1e1e1e" text-anchor="start" style="white-space: pre;" direction="ltr" dominant-baseline="alphabetic">另外，操作数栈的内容是临时的，它的生命周期和方法的生命周期是一</text><text x="0" y="259.3125" font-family="Cascadia, Segoe UI Emoji" font-size="20px" fill="#1e1e1e" text-anchor="start" style="white-space: pre;" direction="ltr" dominant-baseline="alphabetic">样的，当方法执行结束后，操作数栈也会被销毁。</text><text x="0" y="283.3125" font-family="Cascadia, Segoe UI Emoji" font-size="20px" fill="#1e1e1e" text-anchor="start" style="white-space: pre;" direction="ltr" dominant-baseline="alphabetic"></text><text x="0" y="307.3125" font-family="Cascadia, Segoe UI Emoji" font-size="20px" fill="#1e1e1e" text-anchor="start" style="white-space: pre;" direction="ltr" dominant-baseline="alphabetic">字节码说明：</text><text x="0" y="331.3125" font-family="Cascadia, Segoe UI Emoji" font-size="20px" fill="#1e1e1e" text-anchor="start" style="white-space: pre;" direction="ltr" dominant-baseline="alphabetic">aload_0 用于将局部变量表中下标为 0 的引用类型的变量，也就是 </text><text x="0" y="355.3125" font-family="Cascadia, Segoe UI Emoji" font-size="20px" fill="#1e1e1e" text-anchor="start" style="white-space: pre;" direction="ltr" dominant-baseline="alphabetic">this 加载到操作数栈中；</text><text x="0" y="379.3125" font-family="Cascadia, Segoe UI Emoji" font-size="20px" fill="#1e1e1e" text-anchor="start" style="white-space: pre;" direction="ltr" dominant-baseline="alphabetic">iconst_1 用于将整数 1 加载到操作数栈中；</text><text x="0" y="403.3125" font-family="Cascadia, Segoe UI Emoji" font-size="20px" fill="#1e1e1e" text-anchor="start" style="white-space: pre;" direction="ltr" dominant-baseline="alphabetic">iconst_2 用于将整数 2 加载到操作数栈中；</text><text x="0" y="427.3125" font-family="Cascadia, Segoe UI Emoji" font-size="20px" fill="#1e1e1e" text-anchor="start" style="white-space: pre;" direction="ltr" dominant-baseline="alphabetic">invokevirtual 用于调用对象的成员方法；</text><text x="0" y="451.3125" font-family="Cascadia, Segoe UI Emoji" font-size="20px" fill="#1e1e1e" text-anchor="start" style="white-space: pre;" direction="ltr" dominant-baseline="alphabetic">pop 用于将栈顶的值出栈；</text><text x="0" y="475.3125" font-family="Cascadia, Segoe UI Emoji" font-size="20px" fill="#1e1e1e" text-anchor="start" style="white-space: pre;" direction="ltr" dominant-baseline="alphabetic">return 为 void 方法的返回指令。</text></g><g stroke-linecap="round"><g transform="translate(1045.9682539682635 857.5192135467352) rotate(0 151.6349206349209 -1.1348555040761994)"><path d="M0.58 -0.5 C50.75 -0.8, 251.58 -1.85, 302.1 -2.09" stroke="#1e1e1e" stroke-width="2.5" fill="none" stroke-dasharray="1.5 8"></path></g><g transform="translate(1045.9682539682635 857.5192135467352) rotate(0 151.6349206349209 -1.1348555040761994)"><path d="M278.65 6.58 C287 1.13, 297.29 0.36, 302.1 -2.09" stroke="#1e1e1e" stroke-width="2.5" fill="none" stroke-dasharray="1.5 6"></path></g><g transform="translate(1045.9682539682635 857.5192135467352) rotate(0 151.6349206349209 -1.1348555040761994)"><path d="M278.56 -10.52 C286.91 -9.29, 297.23 -3.38, 302.1 -2.09" stroke="#1e1e1e" stroke-width="2.5" fill="none" stroke-dasharray="1.5 6"></path></g></g><mask></mask><g transform="translate(2541.8095238095325 100.65873015873049) rotate(0 59.16999053955078 12.499999999999986)"><text x="0" y="17.52" font-family="Virgil, Segoe UI Emoji" font-size="20px" fill="#1e1e1e" text-anchor="start" style="white-space: pre;" direction="ltr" dominant-baseline="alphabetic">JVM运行图示</text></g><g stroke-linecap="round" transform="translate(2075.714285714295 199.42063492063505) rotate(0 516.857142857143 503.7142857142856)"><path d="M32 0 C313.29 1.94, 591.48 -0.35, 1001.71 0 C1023.87 -0.31, 1031.62 10.17, 1033.71 32 C1027.25 341.28, 1026.89 650.64, 1033.71 975.43 C1034.44 997.33, 1023.54 1006.03, 1001.71 1007.43 C798.21 1003.31, 594.57 1004.97, 32 1007.43 C13.68 1010.07, 0.84 994.52, 0 975.43 C-3.65 637.32, -1.82 299.83, 0 32 C1.39 11.81, 7.11 0.68, 32 0" stroke="none" stroke-width="0" fill="#ffffff"></path><path d="M32 0 C280.09 1.68, 526.64 1.6, 1001.71 0 M32 0 C356.59 3.66, 680.78 3.53, 1001.71 0 M1001.71 0 C1022.01 -1.42, 1033.09 10.48, 1033.71 32 M1001.71 0 C1021.34 1.75, 1034.55 11.25, 1033.71 32 M1033.71 32 C1034.94 248.42, 1035.34 462.87, 1033.71 975.43 M1033.71 32 C1036.38 343.72, 1036.64 654.99, 1033.71 975.43 M1033.71 975.43 C1032.82 996.35, 1024.58 1007.5, 1001.71 1007.43 M1033.71 975.43 C1034.24 995.47, 1025.13 1006.34, 1001.71 1007.43 M1001.71 1007.43 C657.25 1006.94, 311.76 1007.11, 32 1007.43 M1001.71 1007.43 C744.51 1005.98, 487.31 1005.95, 32 1007.43 M32 1007.43 C12.28 1008.26, -0.58 995.57, 0 975.43 M32 1007.43 C11.28 1007.3, -0.5 997.01, 0 975.43 M0 975.43 C-0.99 780.15, -0.69 584.32, 0 32 M0 975.43 C-0.27 701.85, -0.03 428.67, 0 32 M0 32 C1.64 12.26, 10.04 1.48, 32 0 M0 32 C-1.6 10.39, 12.75 0.66, 32 0" stroke="#1e1e1e" stroke-width="2" fill="none"></path></g><g transform="translate(2584.285714285724 174.27777777777806) rotate(0 17.578125 12)"><text x="0" y="19.3125" font-family="Cascadia, Segoe UI Emoji" font-size="20px" fill="#1e1e1e" text-anchor="start" style="white-space: pre;" direction="ltr" dominant-baseline="alphabetic">JVM</text></g><g stroke-linecap="round" transform="translate(2741.428571428581 257.7063492063495) rotate(0 161.99999999999977 239.71428571428567)"><path d="M32 0 C136.07 1.07, 235.41 0.07, 292 0 C314.4 0.3, 325.74 7.37, 324 32 C324.55 159.75, 324.05 286.68, 324 447.43 C323.08 468.58, 313.27 482.25, 292 479.43 C205.51 482.08, 123.3 479.9, 32 479.43 C12.59 479.68, -2.83 466.22, 0 447.43 C-0.19 328.07, 0.36 206.05, 0 32 C-0.99 12.15, 14.21 0.33, 32 0" stroke="none" stroke-width="0" fill="#ffffff"></path><path d="M32 0 C121.68 -0.12, 213.14 1.55, 292 0 M32 0 C114.03 1.12, 195.31 1.42, 292 0 M292 0 C312.6 -0.43, 322.79 11.61, 324 32 M292 0 C312.19 -0.28, 326.27 12.26, 324 32 M324 32 C324.42 122.3, 324.42 214.11, 324 447.43 M324 32 C324.98 155.27, 324.99 279, 324 447.43 M324 447.43 C323.71 467.36, 313.56 481.06, 292 479.43 M324 447.43 C322.78 468.36, 312.92 477.32, 292 479.43 M292 479.43 C212.56 478.06, 133.94 478.19, 32 479.43 M292 479.43 C204.11 480, 116.07 478.82, 32 479.43 M32 479.43 C12.51 480.34, 0.79 468.36, 0 447.43 M32 479.43 C12.81 477.55, 1.92 470.7, 0 447.43 M0 447.43 C-0.06 318.41, 0.94 191.14, 0 32 M0 447.43 C-2 288.16, -2.32 128.33, 0 32 M0 32 C1.35 11.89, 9.15 -1.43, 32 0 M0 32 C-1.8 10.94, 12.7 0.65, 32 0" stroke="#1e1e1e" stroke-width="2" fill="none"></path></g><g transform="translate(2833.428571428581 485.42063492063517) rotate(0 70 12)"><text x="70" y="19.3125" font-family="Cascadia, Segoe UI Emoji" font-size="20px" fill="#1e1e1e" text-anchor="middle" style="white-space: pre;" direction="ltr" dominant-baseline="alphabetic">字节码执行引擎</text></g><g stroke-linecap="round" transform="translate(2733.428571428581 809.1349206349208) rotate(0 167.99999999999977 186.00000000000006)"><path d="M32 0 C113.36 -0.66, 194.02 -1.95, 304 0 C324.15 -2.5, 337.19 13.85, 336 32 C330.21 153.41, 331.31 276.56, 336 340 C335.75 363.5, 326.77 374.77, 304 372 C244.03 371.28, 180.92 372.1, 32 372 C10.18 369.53, -1.86 360.78, 0 340 C5.5 219.63, 2 100.41, 0 32 C2.75 13.67, 9.37 -3.5, 32 0" stroke="none" stroke-width="0" fill="#ffffff"></path><path d="M32 0 C124.25 -1.5, 218.51 -1.77, 304 0 M32 0 C99.52 0.63, 169.05 1.09, 304 0 M304 0 C325.93 0.64, 336.79 12.6, 336 32 M304 0 C323.43 0.32, 337.15 8.89, 336 32 M336 32 C334.45 125.25, 333.88 214.26, 336 340 M336 32 C337.15 104.3, 337.18 175.63, 336 340 M336 340 C336.17 361.11, 323.79 371.14, 304 372 M336 340 C336.01 361.8, 327.5 372.97, 304 372 M304 372 C250.06 372.78, 195.82 370.5, 32 372 M304 372 C238.01 371.95, 171.19 371.18, 32 372 M32 372 C11.64 372.07, -1.57 359.77, 0 340 M32 372 C9.9 373.39, 1.38 360.2, 0 340 M0 340 C-1.03 249.51, -1.05 162.97, 0 32 M0 340 C2 274.88, 1.82 210.42, 0 32 M0 32 C-0.25 12.05, 9.04 0.05, 32 0 M0 32 C1.47 9.43, 12.46 0.99, 32 0" stroke="#1e1e1e" stroke-width="2" fill="none"></path></g><g transform="translate(2891.428571428581 983.134920634921) rotate(0 10 12)"><text x="10" y="19.3125" font-family="Cascadia, Segoe UI Emoji" font-size="20px" fill="#1e1e1e" text-anchor="middle" style="white-space: pre;" direction="ltr" dominant-baseline="alphabetic">堆</text></g><g stroke-linecap="round" transform="translate(2165.428571428581 449.13492063492095) rotate(0 179.9999999999999 358)"><path d="M32 0 C93.02 3.61, 153.78 4.67, 328 0 C346.15 -0.5, 361.31 12.93, 360 32 C360.11 220.13, 360.09 411.54, 360 684 C356.53 703.83, 351.91 717.39, 328 716 C249.5 717.47, 170.82 720.09, 32 716 C9.14 718.77, -0.74 708.34, 0 684 C3.91 543.73, 1.53 403.12, 0 32 C1.6 8.15, 12.6 -2.01, 32 0" stroke="none" stroke-width="0" fill="#ffffff"></path><path d="M32 0 C115.74 0.31, 200.64 0.83, 328 0 M32 0 C119.17 -0.93, 205.29 -0.2, 328 0 M328 0 C349.41 1.23, 359.67 9.04, 360 32 M328 0 C347.71 -2.15, 361.6 12, 360 32 M360 32 C360.22 284.74, 360.74 537.47, 360 684 M360 32 C357.84 278.39, 357.71 524.42, 360 684 M360 684 C361.41 705.75, 347.51 717.3, 328 716 M360 684 C358.41 703.93, 347.6 716.12, 328 716 M328 716 C239.69 715.11, 149.37 717.33, 32 716 M328 716 C217.09 717.06, 107.65 718.13, 32 716 M32 716 C12.25 717.48, -1.41 703.57, 0 684 M32 716 C8.96 716.69, -0.62 706.84, 0 684 M0 684 C1.11 508.8, 1.59 334.05, 0 32 M0 684 C1.74 471.49, 1.64 258.17, 0 32 M0 32 C1.51 9.85, 12.27 -0.54, 32 0 M0 32 C1.32 11.83, 10.32 1.07, 32 0" stroke="#1e1e1e" stroke-width="2" fill="none"></path></g><g transform="translate(2301.428571428581 457.13492063492095) rotate(0 43.4375 12)"><text x="0" y="19.3125" font-family="Cascadia, Segoe UI Emoji" font-size="20px" fill="#1e1e1e" text-anchor="start" style="white-space: pre;" direction="ltr" dominant-baseline="alphabetic">main线程</text></g><g stroke-linecap="round" transform="translate(2189.428571428581 489.13492063492095) rotate(0 156.0000000000001 35.99999999999994)"><path d="M18 0 C104.52 1.34, 189.86 -1.06, 294 0 C306.32 -1.99, 315.41 3.38, 312 18 C309.83 27.94, 308.98 41.03, 312 54 C310.6 67.1, 308.67 73.47, 294 72 C236.48 78, 173.53 77.58, 18 72 C7.95 75.19, 2.69 62.84, 0 54 C1.3 43.2, -2.32 27.65, 0 18 C1.27 8.98, 5.1 -1.46, 18 0" stroke="none" stroke-width="0" fill="#ffffff"></path><path d="M18 0 C124.99 2.18, 232.18 0, 294 0 M18 0 C97.82 0.88, 177.18 1.13, 294 0 M294 0 C305.23 -0.61, 313.3 6.83, 312 18 M294 0 C307.89 1.1, 312.11 5.51, 312 18 M312 18 C312.24 25.34, 310.52 37.8, 312 54 M312 18 C312.35 28.44, 311.74 39.49, 312 54 M312 54 C313.6 66.47, 304.2 73.88, 294 72 M312 54 C312.7 66.47, 307.6 72.37, 294 72 M294 72 C205.97 71.1, 117.97 69.8, 18 72 M294 72 C207.51 69.33, 120.46 69.89, 18 72 M18 72 C6.86 72.11, -1.86 66.25, 0 54 M18 72 C5.06 72.68, 0.15 67.12, 0 54 M0 54 C-0.66 39.73, -0.22 28.16, 0 18 M0 54 C-0.57 40.76, -0.4 27.84, 0 18 M0 18 C-0.4 6.11, 6.36 0.78, 18 0 M0 18 C0.97 5.72, 5.66 -0.46, 18 0" stroke="#1e1e1e" stroke-width="2" fill="none"></path></g><g transform="translate(2295.428571428581 513.134920634921) rotate(0 50 12)"><text x="50" y="19.3125" font-family="Cascadia, Segoe UI Emoji" font-size="20px" fill="#1e1e1e" text-anchor="middle" style="white-space: pre;" direction="ltr" dominant-baseline="alphabetic">程序计数器</text></g><g stroke-linecap="round" transform="translate(2193.428571428581 601.1349206349208) rotate(0 150.0000000000001 266.00000000000006)"><path d="M32 0 C105.25 5.11, 184.4 4.18, 268 0 C289.46 0.83, 297.92 11.91, 300 32 C302.28 161.58, 303.77 292.46, 300 500 C296.71 519.15, 287.2 533.17, 268 532 C189.3 528.22, 107.49 531.67, 32 532 C11.76 531.13, -1.28 518.95, 0 500 C2.27 358.73, -0.6 217.94, 0 32 C2.41 10.02, 12.2 -1.15, 32 0" stroke="none" stroke-width="0" fill="#ffffff"></path><path d="M32 0 C125.96 -0.4, 222.14 2.02, 268 0 M32 0 C125.32 -0.12, 220.29 -1.42, 268 0 M268 0 C289.96 0.94, 301.19 8.75, 300 32 M268 0 C287.04 2.08, 299.39 10.33, 300 32 M300 32 C298.34 217.44, 299.64 405.07, 300 500 M300 32 C299.79 134.96, 300.03 238.71, 300 500 M300 500 C299.79 523.11, 288.32 531.91, 268 532 M300 500 C301.33 521.32, 290.71 532.36, 268 532 M268 532 C214.11 532.21, 161.44 532.15, 32 532 M268 532 C200.83 531.73, 135.15 530.89, 32 532 M32 532 C12.13 530.77, 0.85 519.95, 0 500 M32 532 C10.2 533.36, 2.24 519.7, 0 500 M0 500 C-2.12 327.13, -0.72 156.5, 0 32 M0 500 C-1.07 337.89, -1.29 175.61, 0 32 M0 32 C0.38 11.34, 12.55 -1.72, 32 0 M0 32 C0.49 9.67, 11.22 0.37, 32 0" stroke="#1e1e1e" stroke-width="2" fill="none"></path></g><g transform="translate(2301.428571428581 613.1349206349208) rotate(0 40 12)"><text x="0" y="19.3125" font-family="Cascadia, Segoe UI Emoji" font-size="20px" fill="#1e1e1e" text-anchor="start" style="white-space: pre;" direction="ltr" dominant-baseline="alphabetic">虚拟机栈</text></g><g stroke-linecap="round" transform="translate(2208.2857142857238 645.7063492063494) rotate(0 132.8571428571429 37.14285714285717)"><path d="M18.57 0 C101 -0.88, 182.72 -0.21, 247.14 0 C263.04 -2.59, 268.43 5.68, 265.71 18.57 C262.96 29.34, 265.27 40.85, 265.71 55.71 C265.26 67.87, 260.01 76.43, 247.14 74.29 C190.74 77.56, 132.94 77.78, 18.57 74.29 C9.44 74.94, -1.88 66.24, 0 55.71 C0.17 46.92, 1.31 35.86, 0 18.57 C2.72 6.49, 4.03 -3.28, 18.57 0" stroke="none" stroke-width="0" fill="#ffffff"></path><path d="M18.57 0 C101.95 -0.99, 182.81 -2.17, 247.14 0 M18.57 0 C77.64 -0.51, 138.57 -0.58, 247.14 0 M247.14 0 C258.68 -0.69, 264.53 5.95, 265.71 18.57 M247.14 0 C259.16 -1.99, 266.69 8.06, 265.71 18.57 M265.71 18.57 C266.4 30.23, 263.41 37.93, 265.71 55.71 M265.71 18.57 C266.04 26.42, 265.19 33.19, 265.71 55.71 M265.71 55.71 C267.68 68.65, 261.01 75.04, 247.14 74.29 M265.71 55.71 C263.61 70.12, 257.61 74.68, 247.14 74.29 M247.14 74.29 C187.64 73.17, 128.83 71.32, 18.57 74.29 M247.14 74.29 C178.46 72.79, 108.32 73.21, 18.57 74.29 M18.57 74.29 C6.19 73.68, -0.33 68.3, 0 55.71 M18.57 74.29 C4.32 76.27, 0.61 70.19, 0 55.71 M0 55.71 C2.04 47.18, -1.36 40.96, 0 18.57 M0 55.71 C0.01 46.74, -0.11 36.51, 0 18.57 M0 18.57 C-0.1 6.52, 5.35 -0.85, 18.57 0 M0 18.57 C0.97 4.04, 4.31 -0.77, 18.57 0" stroke="#1e1e1e" stroke-width="2" fill="none"></path></g><g transform="translate(2301.142857142867 670.8492063492065) rotate(0 40 12)"><text x="40" y="19.3125" font-family="Cascadia, Segoe UI Emoji" font-size="20px" fill="#1e1e1e" text-anchor="middle" style="white-space: pre;" direction="ltr" dominant-baseline="alphabetic">局部变量</text></g><g stroke-linecap="round" transform="translate(2209.7142857142962 742.8492063492066) rotate(0 132.8571428571429 37.14285714285717)"><path d="M18.57 0 C107.55 1.62, 195.94 -3.13, 247.14 0 C260.74 0.39, 265.33 6.12, 265.71 18.57 C262.43 29.91, 265.94 38.93, 265.71 55.71 C263.98 69.59, 262.08 75.76, 247.14 74.29 C189.39 75.83, 131.73 74.77, 18.57 74.29 C2.77 71.95, -0.79 67.07, 0 55.71 C3 46.57, 3.21 30.39, 0 18.57 C1.22 5.99, 6.66 2.87, 18.57 0" stroke="none" stroke-width="0" fill="#ffffff"></path><path d="M18.57 0 C82.05 0.37, 144.73 -0.45, 247.14 0 M18.57 0 C66.67 -0.61, 114.46 -1.4, 247.14 0 M247.14 0 C259.75 1.54, 265.09 5.29, 265.71 18.57 M247.14 0 C258.56 0.39, 267.35 7.39, 265.71 18.57 M265.71 18.57 C264.77 27.54, 265.87 38.94, 265.71 55.71 M265.71 18.57 C266.02 29.44, 266.09 42.75, 265.71 55.71 M265.71 55.71 C266.85 67.05, 257.83 73.73, 247.14 74.29 M265.71 55.71 C265.39 69.41, 261.62 75.5, 247.14 74.29 M247.14 74.29 C160.89 74.2, 71.78 73.81, 18.57 74.29 M247.14 74.29 C189.04 73.29, 130.81 73.55, 18.57 74.29 M18.57 74.29 C5.06 75.65, -1.29 68.37, 0 55.71 M18.57 74.29 C4.39 76.38, 0.22 67.07, 0 55.71 M0 55.71 C-1.28 46.17, 1.75 31.96, 0 18.57 M0 55.71 C0.23 40.01, 0.01 25.38, 0 18.57 M0 18.57 C1.68 6.68, 7.21 -1.57, 18.57 0 M0 18.57 C-1.98 6.16, 6.71 1.37, 18.57 0" stroke="#1e1e1e" stroke-width="2" fill="none"></path></g><g transform="translate(2302.5714285714394 767.9920634920638) rotate(0 40 12)"><text x="40" y="19.3125" font-family="Cascadia, Segoe UI Emoji" font-size="20px" fill="#1e1e1e" text-anchor="middle" style="white-space: pre;" direction="ltr" dominant-baseline="alphabetic">操作数栈</text></g><g stroke-linecap="round" transform="translate(2209.7142857142962 839.9920634920636) rotate(0 132.8571428571429 37.14285714285711)"><path d="M18.57 0 C73.22 1.76, 126.56 3.24, 247.14 0 C259.17 -1.13, 268.25 8.89, 265.71 18.57 C265.33 28.92, 264.02 40.18, 265.71 55.71 C265.32 70.09, 259.9 74.66, 247.14 74.29 C188.39 73.95, 130.41 69.53, 18.57 74.29 C6.03 76.25, -1.41 69.32, 0 55.71 C1.43 43.72, 1.11 29.74, 0 18.57 C0.1 4.1, 3.57 3.5, 18.57 0" stroke="none" stroke-width="0" fill="#ffffff"></path><path d="M18.57 0 C72.06 -2.57, 123.91 -0.71, 247.14 0 M18.57 0 C96.6 -0.72, 175.62 -1.67, 247.14 0 M247.14 0 C260.14 0.39, 265.61 5.87, 265.71 18.57 M247.14 0 C261.12 -0.4, 266.98 6.02, 265.71 18.57 M265.71 18.57 C265.96 34.34, 264.33 46.12, 265.71 55.71 M265.71 18.57 C265.99 31.99, 265.24 44.98, 265.71 55.71 M265.71 55.71 C266.05 68.45, 260.57 74.25, 247.14 74.29 M265.71 55.71 C264.7 69.85, 258.99 75.96, 247.14 74.29 M247.14 74.29 C188.53 73.72, 131.13 73.96, 18.57 74.29 M247.14 74.29 C157.19 73.15, 66 72.6, 18.57 74.29 M18.57 74.29 C7.62 75.75, 1.88 69.72, 0 55.71 M18.57 74.29 C7.37 75.2, -0.11 67.09, 0 55.71 M0 55.71 C1.15 42.35, -1.56 30.55, 0 18.57 M0 55.71 C-0.3 41.71, -0.09 27.36, 0 18.57 M0 18.57 C-0.48 7.04, 7.79 1.55, 18.57 0 M0 18.57 C0.26 8.18, 5.77 0.18, 18.57 0" stroke="#1e1e1e" stroke-width="2" fill="none"></path></g><g transform="translate(2302.571428571439 865.1349206349207) rotate(0 40 12)"><text x="40" y="19.3125" font-family="Cascadia, Segoe UI Emoji" font-size="20px" fill="#1e1e1e" text-anchor="middle" style="white-space: pre;" direction="ltr" dominant-baseline="alphabetic">动态链接</text></g><g stroke-linecap="round" transform="translate(2209.7142857142962 939.9920634920636) rotate(0 132.8571428571429 37.14285714285711)"><path d="M18.57 0 C97.98 -4.77, 178.92 -3.72, 247.14 0 C257.38 0.28, 268.29 5.15, 265.71 18.57 C267.08 29.26, 264.14 43.18, 265.71 55.71 C265.23 67.75, 261.02 76.93, 247.14 74.29 C173.92 77.76, 103.6 76.55, 18.57 74.29 C7.41 75.76, -0.73 70.72, 0 55.71 C-1.54 46.6, -1.22 32.3, 0 18.57 C3.18 6.61, 9.28 1.26, 18.57 0" stroke="none" stroke-width="0" fill="#ffffff"></path><path d="M18.57 0 C98.21 0.03, 178.61 -2.21, 247.14 0 M18.57 0 C94.08 1.34, 171.6 1.62, 247.14 0 M247.14 0 C261.25 -1.78, 265.6 4.5, 265.71 18.57 M247.14 0 C258.67 -0.26, 264.55 5.02, 265.71 18.57 M265.71 18.57 C266.91 29.18, 264.47 38.21, 265.71 55.71 M265.71 18.57 C265.27 27.39, 265.93 38.11, 265.71 55.71 M265.71 55.71 C264.44 67.86, 260.32 75.77, 247.14 74.29 M265.71 55.71 C265.4 69.85, 259.67 74.27, 247.14 74.29 M247.14 74.29 C177.08 74.92, 105.49 74.82, 18.57 74.29 M247.14 74.29 C200.94 73.04, 154.01 71.83, 18.57 74.29 M18.57 74.29 C7.39 75.41, -0.29 69.83, 0 55.71 M18.57 74.29 C7.77 72.01, -0.98 69.14, 0 55.71 M0 55.71 C1.38 43.21, -0.1 31.59, 0 18.57 M0 55.71 C-0.14 46.01, 0.91 34.8, 0 18.57 M0 18.57 C-0.45 8.11, 4.59 -1.02, 18.57 0 M0 18.57 C1.13 6.02, 5.61 1.63, 18.57 0" stroke="#1e1e1e" stroke-width="2" fill="none"></path></g><g transform="translate(2302.5714285714394 965.1349206349207) rotate(0 40 12)"><text x="40" y="19.3125" font-family="Cascadia, Segoe UI Emoji" font-size="20px" fill="#1e1e1e" text-anchor="middle" style="white-space: pre;" direction="ltr" dominant-baseline="alphabetic">返回地址</text></g><g stroke-linecap="round"><g transform="translate(2476.8571428571518 782.8492063492065) rotate(0 130 -70.59226664643546)"><path d="M0 0 C46.46 -0.66, 91.29 -0.63, 134.29 0 M0 0 C34.23 0.13, 67.86 -0.05, 134.29 0 M134.29 0 C135.18 -32.62, 132.46 -66.98, 134.29 -134.29 M134.29 0 C136.33 -38.37, 136.24 -75.39, 134.29 -134.29 M134.29 -134.29 C179.91 -139.21, 229.99 -139.41, 260 -141.18 M134.29 -134.29 C180.55 -135.48, 224.67 -138.86, 260 -141.18" stroke="#1e1e1e" stroke-width="2" fill="none"></path></g><g transform="translate(2476.8571428571518 782.8492063492065) rotate(0 130 -70.59226664643546)"><path d="M23.46 -8.65 C16.99 -5.63, 8.96 -2.7, 0 0 M23.46 -8.65 C18.02 -5.86, 11.98 -3.87, 0 0" stroke="#1e1e1e" stroke-width="2" fill="none"></path></g><g transform="translate(2476.8571428571518 782.8492063492065) rotate(0 130 -70.59226664643546)"><path d="M23.53 8.45 C17.16 5.74, 9.1 2.93, 0 0 M23.53 8.45 C18.08 6.94, 12.03 4.64, 0 0" stroke="#1e1e1e" stroke-width="2" fill="none"></path></g><g transform="translate(2476.8571428571518 782.8492063492065) rotate(0 130 -70.59226664643546)"><path d="M237.14 -131.07 C246.33 -134.57, 253.82 -137.93, 260 -141.18 M237.14 -131.07 C243.35 -133.15, 248.97 -135.86, 260 -141.18" stroke="#1e1e1e" stroke-width="2" fill="none"></path></g><g transform="translate(2476.8571428571518 782.8492063492065) rotate(0 130 -70.59226664643546)"><path d="M235.99 -148.14 C245.44 -145.92, 253.32 -143.56, 260 -141.18 M235.99 -148.14 C242.48 -145.92, 248.39 -144.35, 260 -141.18" stroke="#1e1e1e" stroke-width="2" fill="none"></path></g></g><mask></mask><g transform="translate(2619.714285714295 657.134920634921) rotate(0 20 12)"><text x="0" y="19.3125" font-family="Cascadia, Segoe UI Emoji" font-size="20px" fill="#1e1e1e" text-anchor="start" style="white-space: pre;" direction="ltr" dominant-baseline="alphabetic">数据</text></g><g stroke-linecap="round" transform="translate(2162.571428571436 248.56349206349233) rotate(0 252.85714285714278 71.42857142857142)"><path d="M1.61 -0.76 L504.69 -1.16 L506.73 144.21 L-1.96 143.03" stroke="none" stroke-width="0" fill="#ffffff"></path><path d="M0 0 C114.31 -1.38, 229.95 -0.76, 505.71 0 M0 0 C167.01 1.16, 334.77 1.26, 505.71 0 M505.71 0 C503.4 49.96, 503.46 104.04, 505.71 142.86 M505.71 0 C504.56 41.27, 505.06 84.8, 505.71 142.86 M505.71 142.86 C375.4 140.17, 245.28 140.99, 0 142.86 M505.71 142.86 C401.14 142.78, 296.27 142.96, 0 142.86 M0 142.86 C0.81 99.72, 0.31 53.77, 0 0 M0 142.86 C-1.34 94.69, -0.32 45.65, 0 0" stroke="#1e1e1e" stroke-width="2" fill="none"></path></g><g transform="translate(2385.428571428579 307.9920634920637) rotate(0 30 12)"><text x="30" y="19.3125" font-family="Cascadia, Segoe UI Emoji" font-size="20px" fill="#1e1e1e" text-anchor="middle" style="white-space: pre;" direction="ltr" dominant-baseline="alphabetic">方法区</text></g><g stroke-linecap="round"><g transform="translate(2468.285714285722 488.5634920634923) rotate(0 135.71428571428567 -47.14285714285711)"><path d="M0 0 C1.39 -25.18, -1.18 -47.21, 2.86 -94.29 M0 0 C-0.19 -26.02, 1.22 -50.66, 2.86 -94.29 M2.86 -94.29 C64.23 -78.1, 130.35 -61.58, 271.43 -22.86 M2.86 -94.29 C88.25 -71.6, 173.1 -48.25, 271.43 -22.86" stroke="#1e1e1e" stroke-width="2" fill="none"></path></g><g transform="translate(2468.285714285722 488.5634920634923) rotate(0 135.71428571428567 -47.14285714285711)"><path d="M246.54 -20.54 C254.34 -22.84, 257.3 -21.81, 271.43 -22.86 M246.54 -20.54 C252.63 -22.29, 259.89 -22.48, 271.43 -22.86" stroke="#1e1e1e" stroke-width="2" fill="none"></path></g><g transform="translate(2468.285714285722 488.5634920634923) rotate(0 135.71428571428567 -47.14285714285711)"><path d="M250.87 -37.08 C257.75 -35.2, 259.62 -30.01, 271.43 -22.86 M250.87 -37.08 C255.88 -34.4, 261.99 -30.19, 271.43 -22.86" stroke="#1e1e1e" stroke-width="2" fill="none"></path></g></g><mask></mask><g transform="translate(2479.714285714293 414.27777777777794) rotate(0 20 12)"><text x="0" y="19.3125" font-family="Cascadia, Segoe UI Emoji" font-size="20px" fill="#1e1e1e" text-anchor="start" style="white-space: pre;" direction="ltr" dominant-baseline="alphabetic">指令</text></g><g stroke-linecap="round" transform="translate(3165.42857142858 385.7063492063503) rotate(0 174.28571428571422 122.85714285714289)"><path d="M32 0 C104.17 -0.29, 183.49 -4.09, 316.57 0 C335.42 -2.93, 350.91 10.11, 348.57 32 C349.8 80.67, 351.19 125.54, 348.57 213.71 C349.43 233.26, 339.42 246.64, 316.57 245.71 C230.51 247.42, 148.57 245.45, 32 245.71 C12.7 242.81, 2.55 235.94, 0 213.71 C1.08 148.48, 2.72 74.73, 0 32 C-1.42 11.55, 7.25 -1.54, 32 0" stroke="none" stroke-width="0" fill="#ffffff"></path><path d="M32 0 C124.97 -2.98, 221.49 -0.25, 316.57 0 M32 0 C119.95 0.75, 207.51 -0.51, 316.57 0 M316.57 0 C338.14 0.59, 348.43 9.43, 348.57 32 M316.57 0 C338.63 1.26, 348.67 9.92, 348.57 32 M348.57 32 C347.06 102.65, 347.31 172.07, 348.57 213.71 M348.57 32 C350.75 87.87, 350.89 144.33, 348.57 213.71 M348.57 213.71 C347.9 236.57, 335.94 245.79, 316.57 245.71 M348.57 213.71 C349.79 235.77, 336.49 247.92, 316.57 245.71 M316.57 245.71 C220.09 245.48, 120.62 246.44, 32 245.71 M316.57 245.71 C223.44 245.42, 128.67 245.62, 32 245.71 M32 245.71 C12.35 247.41, -1.03 234.93, 0 213.71 M32 245.71 C11.27 246.94, 0.76 237.17, 0 213.71 M0 213.71 C-1.54 173.02, -2.25 131.08, 0 32 M0 213.71 C-0.73 142.24, -0.04 68.17, 0 32 M0 32 C0.16 11.74, 10.62 -0.97, 32 0 M0 32 C-1.02 10.41, 9.56 0.72, 32 0" stroke="#1e1e1e" stroke-width="2" fill="none"></path></g><g transform="translate(3322.1361607142944 496.5634920634932) rotate(0 17.578125 12)"><text x="17.578125" y="19.3125" font-family="Cascadia, Segoe UI Emoji" font-size="20px" fill="#1e1e1e" text-anchor="middle" style="white-space: pre;" direction="ltr" dominant-baseline="alphabetic">CPU</text></g><g stroke-linecap="round"><g transform="translate(3071.14285714286 450.1385303117297) rotate(0 46.642857142860066 0)"><path d="M0.96 -0.1 C16.46 -0.09, 78.31 0.51, 93.53 0.62 M0 -1.2 C15.32 -1.59, 76.93 -1.12, 92.72 -1.18" stroke="#1e1e1e" stroke-width="2" fill="none"></path></g><g transform="translate(3071.14285714286 450.1385303117297) rotate(0 46.642857142860066 0)"><path d="M69.21 7.32 C77.07 4.63, 86.32 -0.32, 92.72 -1.18 M69.21 7.32 C78.21 4.28, 85.83 2.39, 92.72 -1.18" stroke="#1e1e1e" stroke-width="2" fill="none"></path></g><g transform="translate(3071.14285714286 450.1385303117297) rotate(0 46.642857142860066 0)"><path d="M69.24 -9.78 C77.17 -6.6, 86.42 -5.69, 92.72 -1.18 M69.24 -9.78 C78.22 -6.95, 85.82 -2.96, 92.72 -1.18" stroke="#1e1e1e" stroke-width="2" fill="none"></path></g></g><mask></mask><g stroke-linecap="round"><g transform="translate(3162.5714285714375 511.4206349206361) rotate(0 -47.14285714285711 0)"><path d="M0.94 -0.26 C-14.62 -0.45, -78.03 0.13, -93.98 0.05 M-0.03 -1.44 C-15.66 -0.92, -78.81 1.34, -94.77 1.61" stroke="#1e1e1e" stroke-width="2" fill="none"></path></g><g transform="translate(3162.5714285714375 511.4206349206361) rotate(0 -47.14285714285711 0)"><path d="M-71.53 -7.59 C-77.63 -4.62, -82.87 -3.66, -94.77 1.61 M-71.53 -7.59 C-77.23 -5.07, -83 -2.96, -94.77 1.61" stroke="#1e1e1e" stroke-width="2" fill="none"></path></g><g transform="translate(3162.5714285714375 511.4206349206361) rotate(0 -47.14285714285711 0)"><path d="M-71.05 9.51 C-77.44 8.24, -82.8 4.97, -94.77 1.61 M-71.05 9.51 C-76.72 7.95, -82.61 5.97, -94.77 1.61" stroke="#1e1e1e" stroke-width="2" fill="none"></path></g></g><mask></mask><g stroke-linecap="round"><g transform="translate(2736.857142857148 528.5634920634927) rotate(0 -117.14285714285711 0)"><path d="M-0.36 1.04 C-39.39 1.31, -195.34 0.66, -234.34 0.47 M1.65 0.53 C-37.53 0.54, -195.85 -1.51, -235.31 -1.4" stroke="#1e1e1e" stroke-width="2" fill="none"></path></g><g transform="translate(2736.857142857148 528.5634920634927) rotate(0 -117.14285714285711 0)"><path d="M-211.77 -9.81 C-216.88 -7.55, -224.57 -5.1, -235.31 -1.4 M-211.77 -9.81 C-219.02 -6.42, -226.39 -4.64, -235.31 -1.4" stroke="#1e1e1e" stroke-width="2" fill="none"></path></g><g transform="translate(2736.857142857148 528.5634920634927) rotate(0 -117.14285714285711 0)"><path d="M-211.87 7.29 C-216.79 4.64, -224.45 2.19, -235.31 -1.4 M-211.87 7.29 C-219.11 5.67, -226.45 2.43, -235.31 -1.4" stroke="#1e1e1e" stroke-width="2" fill="none"></path></g></g><mask></mask><g transform="translate(2599.714285714291 497.1349206349212) rotate(0 20 12)"><text x="0" y="19.3125" font-family="Cascadia, Segoe UI Emoji" font-size="20px" fill="#1e1e1e" text-anchor="start" style="white-space: pre;" direction="ltr" dominant-baseline="alphabetic">修改</text></g><g stroke-linecap="round"><g transform="translate(2476.8571428571454 683.8015873015877) rotate(0 157.1428571428571 87.14285714285717)"><path d="M0.16 0.88 C52.33 29.85, 261.02 146.03, 313.45 174.82 M-1.21 0.29 C51.3 28.82, 263.15 143.93, 315.72 172.98" stroke="#1e1e1e" stroke-width="2" fill="none"></path></g><g transform="translate(2476.8571428571454 683.8015873015877) rotate(0 157.1428571428571 87.14285714285717)"><path d="M291.01 169.2 C300.78 169.04, 308.48 172.46, 315.72 172.98 M291.01 169.2 C296.77 169.38, 303.61 171.35, 315.72 172.98" stroke="#1e1e1e" stroke-width="2" fill="none"></path></g><g transform="translate(2476.8571428571454 683.8015873015877) rotate(0 157.1428571428571 87.14285714285717)"><path d="M299.22 154.2 C306.36 159.07, 311.31 167.52, 315.72 172.98 M299.22 154.2 C303 158.08, 307.85 163.7, 315.72 172.98" stroke="#1e1e1e" stroke-width="2" fill="none"></path></g></g><mask></mask><g transform="translate(2799.714285714287 846.6587301587305) rotate(0 20 12)"><text x="0" y="19.3125" font-family="Cascadia, Segoe UI Emoji" font-size="20px" fill="#1e1e1e" text-anchor="start" style="white-space: pre;" direction="ltr" dominant-baseline="alphabetic">对象</text></g><g transform="translate(2428.285714285717 669.5158730158735) rotate(0 20 12)"><text x="0" y="19.3125" font-family="Cascadia, Segoe UI Emoji" font-size="20px" fill="#1e1e1e" text-anchor="start" style="white-space: pre;" direction="ltr" dominant-baseline="alphabetic">引用</text></g><g stroke-linecap="round"><g transform="translate(2205.1904761904775 705.2301587301594) rotate(0 -15.714285714285666 27.14285714285711)"><path d="M-0.11 0.81 C-5.33 4.96, -30.27 16.41, -30.36 25.18 C-30.45 33.95, -5.58 48.58, -0.65 53.43 M-1.63 0.19 C-6.99 4.47, -30.73 17.43, -30.75 26.44 C-30.77 35.46, -6.72 49.48, -1.75 54.3" stroke="#1e1e1e" stroke-width="2" fill="none"></path></g><g transform="translate(2205.1904761904775 705.2301587301594) rotate(0 -15.714285714285666 27.14285714285711)"><path d="M-22.03 47.99 C-12.99 52.17, -7.56 51.7, -1.75 54.3 M-22.03 47.99 C-17.08 49.88, -12.43 49.91, -1.75 54.3" stroke="#1e1e1e" stroke-width="2" fill="none"></path></g><g transform="translate(2205.1904761904775 705.2301587301594) rotate(0 -15.714285714285666 27.14285714285711)"><path d="M-13.23 36.43 C-7.5 44.98, -5.39 48.88, -1.75 54.3 M-13.23 36.43 C-10.37 40.96, -7.73 43.63, -1.75 54.3" stroke="#1e1e1e" stroke-width="2" fill="none"></path></g></g><mask></mask><g transform="translate(2133.761904761906 722.3730158730166) rotate(0 20 12)"><text x="0" y="19.3125" font-family="Cascadia, Segoe UI Emoji" font-size="20px" fill="#1e1e1e" text-anchor="start" style="white-space: pre;" direction="ltr" dominant-baseline="alphabetic">加载</text></g><g stroke-linecap="round"><g transform="translate(889.0000000000008 937.2932152769702) rotate(0 -67.33333333333553 0)"><path d="M0.35 -0.56 C-22.38 -0.33, -113.12 0.9, -135.8 0.91" stroke="#1e1e1e" stroke-width="2.5" fill="none" stroke-dasharray="1.5 8"></path></g><g transform="translate(889.0000000000008 937.2932152769702) rotate(0 -67.33333333333553 0)"><path d="M-112.38 -7.83 C-121.48 -6.62, -127.16 -3.47, -135.8 0.91" stroke="#1e1e1e" stroke-width="2.5" fill="none" stroke-dasharray="1.5 6"></path></g><g transform="translate(889.0000000000008 937.2932152769702) rotate(0 -67.33333333333553 0)"><path d="M-112.25 9.27 C-121.32 4.54, -127.05 1.76, -135.8 0.91" stroke="#1e1e1e" stroke-width="2.5" fill="none" stroke-dasharray="1.5 6"></path></g></g><mask></mask><g stroke-linecap="round" transform="translate(10 864.0396825396831) rotate(0 370.4285714285713 230)"><path d="M0 0 C202.01 0.27, 402.69 0.89, 740.86 0 M740.86 0 C740.17 161.82, 739.26 322.28, 740.86 460 M740.86 460 C561.47 459.15, 383.22 459.69, 0 460 M0 460 C0.08 333.65, 1.04 209.09, 0 0" stroke="#1e1e1e" stroke-width="2.5" fill="none" stroke-dasharray="1.5 8"></path></g><g transform="translate(15 869.0396825396831) rotate(0 364.90997314453125 225)"><text x="0" y="17.52" font-family="Virgil, Segoe UI Emoji" font-size="20px" fill="#1e1e1e" text-anchor="start" style="white-space: pre;" direction="ltr" dominant-baseline="alphabetic">动态链接说明：指向运行时常量池的方法和字段引用，用于方法调用的解析，即创</text><text x="0" y="42.519999999999996" font-family="Virgil, Segoe UI Emoji" font-size="20px" fill="#1e1e1e" text-anchor="start" style="white-space: pre;" direction="ltr" dominant-baseline="alphabetic">建当前栈帧对应的方法在运行时常量池中的方法引用。</text><text x="0" y="67.52" font-family="Virgil, Segoe UI Emoji" font-size="20px" fill="#1e1e1e" text-anchor="start" style="white-space: pre;" direction="ltr" dominant-baseline="alphabetic"></text><text x="0" y="92.52" font-family="Virgil, Segoe UI Emoji" font-size="20px" fill="#1e1e1e" text-anchor="start" style="white-space: pre;" direction="ltr" dominant-baseline="alphabetic">创建栈帧发生在方法调用之前。当JVM决定调用一个方法时，它会为新的方法调用</text><text x="0" y="117.52" font-family="Virgil, Segoe UI Emoji" font-size="20px" fill="#1e1e1e" text-anchor="start" style="white-space: pre;" direction="ltr" dominant-baseline="alphabetic">创建一个新的栈帧，并将其压入Java虚拟机栈顶。这个栈帧包含了局部变量表、操</text><text x="0" y="142.52" font-family="Virgil, Segoe UI Emoji" font-size="20px" fill="#1e1e1e" text-anchor="start" style="white-space: pre;" direction="ltr" dominant-baseline="alphabetic">作数栈以及其他必要的数据结构。</text><text x="0" y="167.52" font-family="Virgil, Segoe UI Emoji" font-size="20px" fill="#1e1e1e" text-anchor="start" style="white-space: pre;" direction="ltr" dominant-baseline="alphabetic"></text><text x="0" y="192.52" font-family="Virgil, Segoe UI Emoji" font-size="20px" fill="#1e1e1e" text-anchor="start" style="white-space: pre;" direction="ltr" dominant-baseline="alphabetic">对象实例引用被压入操作数栈通常是在调用方法之前，也就是在调用invokevirtual</text><text x="0" y="217.52" font-family="Virgil, Segoe UI Emoji" font-size="20px" fill="#1e1e1e" text-anchor="start" style="white-space: pre;" direction="ltr" dominant-baseline="alphabetic">指令之前的某一步骤。比如，如果你有一个表达式obj.method()，那么首先会在操</text><text x="0" y="242.52" font-family="Virgil, Segoe UI Emoji" font-size="20px" fill="#1e1e1e" text-anchor="start" style="white-space: pre;" direction="ltr" dominant-baseline="alphabetic">作数栈上放置对obj的引用，然后才是调用方法的指令。</text><text x="0" y="267.52" font-family="Virgil, Segoe UI Emoji" font-size="20px" fill="#1e1e1e" text-anchor="start" style="white-space: pre;" direction="ltr" dominant-baseline="alphabetic"></text><text x="0" y="292.52" font-family="Virgil, Segoe UI Emoji" font-size="20px" fill="#1e1e1e" text-anchor="start" style="white-space: pre;" direction="ltr" dominant-baseline="alphabetic">当一个方法通过invokevirtual指令被调用时，它用于调用对象实例上的虚方法（非</text><text x="0" y="317.52" font-family="Virgil, Segoe UI Emoji" font-size="20px" fill="#1e1e1e" text-anchor="start" style="white-space: pre;" direction="ltr" dominant-baseline="alphabetic">私有、非静态、非最终方法）。在此之前，实际的对象引用通常已经在操作数栈上</text><text x="0" y="342.52" font-family="Virgil, Segoe UI Emoji" font-size="20px" fill="#1e1e1e" text-anchor="start" style="white-space: pre;" direction="ltr" dominant-baseline="alphabetic">准备好了。</text><text x="0" y="367.52" font-family="Virgil, Segoe UI Emoji" font-size="20px" fill="#1e1e1e" text-anchor="start" style="white-space: pre;" direction="ltr" dominant-baseline="alphabetic"></text><text x="0" y="392.52" font-family="Virgil, Segoe UI Emoji" font-size="20px" fill="#1e1e1e" text-anchor="start" style="white-space: pre;" direction="ltr" dominant-baseline="alphabetic">invokevirtual指令执行时，会检查栈顶的对象引用，并根据对象的实际类型动态地</text><text x="0" y="417.52" font-family="Virgil, Segoe UI Emoji" font-size="20px" fill="#1e1e1e" text-anchor="start" style="white-space: pre;" direction="ltr" dominant-baseline="alphabetic">解析要调用的方法版本，这就是所谓的动态绑定（动态链接的一部分）。一旦确定</text><text x="0" y="442.52" font-family="Virgil, Segoe UI Emoji" font-size="20px" fill="#1e1e1e" text-anchor="start" style="white-space: pre;" direction="ltr" dominant-baseline="alphabetic">了具体的方法实现，JVM就会开始执行该方法的字节码。</text></g><g stroke-linecap="round" transform="translate(889.0476190476171 1212.4920634920652) rotate(0 549 180)"><path d="M0 0 C275.1 -3.3, 549.61 -4.46, 1098 0 M1098 0 C1099.18 88.12, 1100.27 175.82, 1098 360 M1098 360 C817.4 360.28, 537.1 360.69, 0 360 M0 360 C-0.82 248.33, -1.1 136.6, 0 0" stroke="#1e1e1e" stroke-width="2.5" fill="none" stroke-dasharray="1.5 8"></path></g><g transform="translate(894.0476190476171 1217.4920634920652) rotate(0 540.8699951171875 175)"><text x="0" y="17.52" font-family="Virgil, Segoe UI Emoji" font-size="20px" fill="#1e1e1e" text-anchor="start" style="white-space: pre;" direction="ltr" dominant-baseline="alphabetic">invokevirtual说明：（invokevirtual是如何实现多态的）</text><text x="0" y="42.519999999999996" font-family="Virgil, Segoe UI Emoji" font-size="20px" fill="#1e1e1e" text-anchor="start" style="white-space: pre;" direction="ltr" dominant-baseline="alphabetic"></text><text x="0" y="67.52" font-family="Virgil, Segoe UI Emoji" font-size="20px" fill="#1e1e1e" text-anchor="start" style="white-space: pre;" direction="ltr" dominant-baseline="alphabetic">1. 虚方法表（Virtual Method Table, VMT）:</text><text x="0" y="92.52" font-family="Virgil, Segoe UI Emoji" font-size="20px" fill="#1e1e1e" text-anchor="start" style="white-space: pre;" direction="ltr" dominant-baseline="alphabetic">JVM为每个类维护了一个虚方法表，表中包含了类中所有虚方法（即非private、非static、非final的方法）的地址引用。</text><text x="0" y="117.52" font-family="Virgil, Segoe UI Emoji" font-size="20px" fill="#1e1e1e" text-anchor="start" style="white-space: pre;" direction="ltr" dominant-baseline="alphabetic">对于每个对象实例，其内部都会有一个指向所属类的VMT的指针。当子类继承父类时，子类的虚方法表不仅包含自己的方法</text><text x="0" y="142.52" font-family="Virgil, Segoe UI Emoji" font-size="20px" fill="#1e1e1e" text-anchor="start" style="white-space: pre;" direction="ltr" dominant-baseline="alphabetic">，还包括从父类继承来的虚方法。如果子类重写了父类的某个方法，则在子类的虚方法表中，对应的方法地址将指向子类的</text><text x="0" y="167.52" font-family="Virgil, Segoe UI Emoji" font-size="20px" fill="#1e1e1e" text-anchor="start" style="white-space: pre;" direction="ltr" dominant-baseline="alphabetic">实现而不是父类的实现。</text><text x="0" y="192.52" font-family="Virgil, Segoe UI Emoji" font-size="20px" fill="#1e1e1e" text-anchor="start" style="white-space: pre;" direction="ltr" dominant-baseline="alphabetic"></text><text x="0" y="217.52" font-family="Virgil, Segoe UI Emoji" font-size="20px" fill="#1e1e1e" text-anchor="start" style="white-space: pre;" direction="ltr" dominant-baseline="alphabetic">2. 动态分派:</text><text x="0" y="242.52" font-family="Virgil, Segoe UI Emoji" font-size="20px" fill="#1e1e1e" text-anchor="start" style="white-space: pre;" direction="ltr" dominant-baseline="alphabetic">当invokevirtual指令被执行时，JVM首先检查操作数栈顶的对象引用。</text><text x="0" y="267.52" font-family="Virgil, Segoe UI Emoji" font-size="20px" fill="#1e1e1e" text-anchor="start" style="white-space: pre;" direction="ltr" dominant-baseline="alphabetic">JVM根据对象的实际类型（即对象运行时的真实类，而非声明类型）找到对应的虚方法表。</text><text x="0" y="292.52" font-family="Virgil, Segoe UI Emoji" font-size="20px" fill="#1e1e1e" text-anchor="start" style="white-space: pre;" direction="ltr" dominant-baseline="alphabetic">然后，JVM根据方法引用索引（由指令中的indexbyte1和indexbyte2组成）在虚方法表中查找对应的方法入口地址。</text><text x="0" y="317.52" font-family="Virgil, Segoe UI Emoji" font-size="20px" fill="#1e1e1e" text-anchor="start" style="white-space: pre;" direction="ltr" dominant-baseline="alphabetic"></text><text x="0" y="342.52" font-family="Virgil, Segoe UI Emoji" font-size="20px" fill="#1e1e1e" text-anchor="start" style="white-space: pre;" direction="ltr" dominant-baseline="alphabetic">因此，尽管调用指令是在编译期确定的，但具体调用哪个方法是在运行时决定的，这就是所谓的“动态链接”。</text></g><g stroke-linecap="round"><g transform="translate(750.8571428571432 1296.9548736076529) rotate(0 62.84523809523711 -0.2803229013948112)"><path d="M-0.79 -0.05 C20.43 -0.07, 105.38 -0.02, 126.47 -0.22" stroke="#1e1e1e" stroke-width="2.5" fill="none" stroke-dasharray="1.5 8"></path></g><g transform="translate(750.8571428571432 1296.9548736076529) rotate(0 62.84523809523711 -0.2803229013948112)"><path d="M103.01 8.42 C108.29 7.89, 114.31 4.65, 126.47 -0.22" stroke="#1e1e1e" stroke-width="2.5" fill="none" stroke-dasharray="1.5 6"></path></g><g transform="translate(750.8571428571432 1296.9548736076529) rotate(0 62.84523809523711 -0.2803229013948112)"><path d="M102.94 -8.68 C108.23 -5.3, 114.26 -4.63, 126.47 -0.22" stroke="#1e1e1e" stroke-width="2.5" fill="none" stroke-dasharray="1.5 6"></path></g></g><mask></mask></svg>