<svg version="1.1" xmlns="http://www.w3.org/2000/svg" viewBox="0 0 1440.714285714285 1519.4047909691228" width="1440.714285714285" height="1519.4047909691228">
  <!-- svg-source:excalidraw -->
  
  <defs>
    <style class="style-fonts">
      @font-face {
        font-family: "Virgil";
        src: url("https://excalidraw.com/Virgil.woff2");
      }
      @font-face {
        font-family: "Cascadia";
        src: url("https://excalidraw.com/Cascadia.woff2");
      }
      @font-face {
        font-family: "Assistant";
        src: url("https://excalidraw.com/Assistant-Regular.woff2");
      }
    </style>
    
  </defs>
  <rect x="0" y="0" width="1440.714285714285" height="1519.4047909691228" fill="#ffffff"></rect><g stroke-linecap="round" transform="translate(69.69841269841208 412.05559479244323) rotate(0 476 253.88890414767792)"><path d="M32 0 C379.21 0.09, 724.68 0.08, 920 0 M32 0 C374.94 -0.59, 718.35 -0.88, 920 0 M920 0 C941.2 0.34, 952.85 10.9, 952 32 M920 0 C943.43 -1.31, 952.18 11.25, 952 32 M952 32 C954.47 161.21, 953.76 292.09, 952 475.78 M952 32 C950.19 195.27, 950.16 358.65, 952 475.78 M952 475.78 C953.47 499.11, 942.94 506.95, 920 507.78 M952 475.78 C952.43 495.39, 939.42 507.13, 920 507.78 M920 507.78 C655 509.41, 389.9 510.41, 32 507.78 M920 507.78 C707.83 510.54, 495.58 510.63, 32 507.78 M32 507.78 C11.63 507.08, 0.09 496.24, 0 475.78 M32 507.78 C11.29 506.14, -0.16 495.39, 0 475.78 M0 475.78 C-1.22 327.62, -1.36 177.08, 0 32 M0 475.78 C1.77 359.26, 1.34 243.56, 0 32 M0 32 C1.07 10.12, 10.69 1.63, 32 0 M0 32 C-1.92 10.33, 10.94 -2.06, 32 0" stroke="#1e1e1e" stroke-width="2" fill="none"></path></g><g stroke-linecap="round" transform="translate(97.92063492063426 446.27781701466535) rotate(0 92 225.7777930365668)"><path d="M32 0 C57.29 -0.45, 84.91 -1.32, 152 0 M32 0 C59.55 -0.45, 84.83 -0.44, 152 0 M152 0 C173.39 -0.45, 184.59 9.87, 184 32 M152 0 C172.87 -0.05, 186.2 8.64, 184 32 M184 32 C182.05 126.58, 182.11 222.06, 184 419.56 M184 32 C184.8 142.77, 185.38 252.49, 184 419.56 M184 419.56 C182.9 440.41, 172.05 451.68, 152 451.56 M184 419.56 C184.7 439.15, 171.7 453.28, 152 451.56 M152 451.56 C117.72 453.5, 79.89 452.47, 32 451.56 M152 451.56 C128.18 450.71, 103.37 451.96, 32 451.56 M32 451.56 C10.31 452.24, 0.16 439.96, 0 419.56 M32 451.56 C8.84 451.21, -0.21 442.8, 0 419.56 M0 419.56 C1.31 267.71, 1.46 116.62, 0 32 M0 419.56 C-1.38 286.71, -1.93 154.3, 0 32 M0 32 C0.17 9.74, 9.83 -1.64, 32 0 M0 32 C0.4 10.01, 9.31 -0.75, 32 0" stroke="#1e1e1e" stroke-width="2" fill="none"></path></g><g stroke-linecap="round" transform="translate(295.1269841269832 444.2143554687515) rotate(0 222.57142857142867 75.85714285714283)"><path d="M32 0 C126.1 -2.77, 221.04 -2.28, 413.14 0 M32 0 C152.7 0.19, 272.62 0.12, 413.14 0 M413.14 0 C432.82 0.32, 443.69 11.16, 445.14 32 M413.14 0 C433.07 -1.99, 443.33 12.02, 445.14 32 M445.14 32 C444.84 49.79, 443.39 67.5, 445.14 119.71 M445.14 32 C445.5 51.16, 444.55 72.86, 445.14 119.71 M445.14 119.71 C446.96 140.86, 434.36 150.27, 413.14 151.71 M445.14 119.71 C446 139.04, 433.59 150.16, 413.14 151.71 M413.14 151.71 C334 153.21, 255.95 151.11, 32 151.71 M413.14 151.71 C267.88 153.88, 122.56 154.05, 32 151.71 M32 151.71 C12.3 151.01, 1.69 140.39, 0 119.71 M32 151.71 C10.84 150.29, 1.69 140.21, 0 119.71 M0 119.71 C-0.69 91.48, 1.33 61.36, 0 32 M0 119.71 C-0.31 87.58, -0.24 54.4, 0 32 M0 32 C-1.1 9.11, 12.37 0.55, 32 0 M0 32 C0.06 9.26, 8.74 -1.68, 32 0" stroke="#1e1e1e" stroke-width="2" fill="none"></path></g><g transform="translate(507.69841269841186 507.5714983258943) rotate(0 10 12.5)"><text x="10" y="17.52" font-family="Virgil, Segoe UI Emoji" font-size="20px" fill="#1e1e1e" text-anchor="middle" style="white-space: pre;" direction="ltr" dominant-baseline="alphabetic">堆</text></g><g transform="translate(133.92063492063426 422.27781701466535) rotate(0 30 12.5)"><text x="0" y="17.52" font-family="Virgil, Segoe UI Emoji" font-size="20px" fill="#1e1e1e" text-anchor="start" style="white-space: pre;" direction="ltr" dominant-baseline="alphabetic">各线程</text></g><g stroke-linecap="round" transform="translate(115.92063492063426 558.2778170146653) rotate(0 74 155.11112636990023)"><path d="M32 0 C59.6 0.43, 87.09 -1.28, 116 0 M32 0 C61.97 1.1, 93.89 -0.36, 116 0 M116 0 C139.32 -1.5, 149.39 9.13, 148 32 M116 0 C137.3 2.15, 146.09 11.41, 148 32 M148 32 C148.1 106, 148.12 181.22, 148 278.22 M148 32 C147.7 123.77, 148.01 214.97, 148 278.22 M148 278.22 C147.32 300.69, 137.93 311.02, 116 310.22 M148 278.22 C149.27 301.32, 136.66 309.86, 116 310.22 M116 310.22 C98.96 309.68, 80.7 311.84, 32 310.22 M116 310.22 C95.74 310.09, 74.55 310.1, 32 310.22 M32 310.22 C10.68 312.05, 1.8 299.18, 0 278.22 M32 310.22 C12.02 310.14, 0.51 301.55, 0 278.22 M0 278.22 C-2.8 213.18, -0.38 149.72, 0 32 M0 278.22 C-1.69 227.57, -2.07 178.25, 0 32 M0 32 C1.36 10.48, 10.73 -0.23, 32 0 M0 32 C0.34 10.92, 12.75 1.24, 32 0" stroke="#1e1e1e" stroke-width="2" fill="none"></path></g><g transform="translate(179.92063492063426 700.8889433845656) rotate(0 10 12.5)"><text x="10" y="17.52" font-family="Virgil, Segoe UI Emoji" font-size="20px" fill="#1e1e1e" text-anchor="middle" style="white-space: pre;" direction="ltr" dominant-baseline="alphabetic">栈</text></g><g stroke-linecap="round" transform="translate(292.42063492063426 621.5159020802346) rotate(0 351.9999999999998 137.7142857142857)"><path d="M32 0 C185.43 -1.81, 338.14 -1.94, 672 0 M32 0 C287.92 -2.42, 542.86 -2.38, 672 0 M672 0 C695.22 1.22, 704.41 10.45, 704 32 M672 0 C694.67 1.87, 703.47 9.22, 704 32 M704 32 C705.38 86.77, 705.38 141.46, 704 243.43 M704 32 C703 81.73, 701.79 132.93, 704 243.43 M704 243.43 C702.39 263.17, 692.88 276.15, 672 275.43 M704 243.43 C702.9 266.87, 694.16 276.5, 672 275.43 M672 275.43 C500.27 276.61, 327.26 276.7, 32 275.43 M672 275.43 C477.81 275.67, 283.54 275.98, 32 275.43 M32 275.43 C9.28 275.62, 0.32 264.47, 0 243.43 M32 275.43 C11.01 277.27, 1.21 262.49, 0 243.43 M0 243.43 C2.09 193.01, 1.31 141.6, 0 32 M0 243.43 C0.57 191.68, -0.42 141.74, 0 32 M0 32 C0.25 9.81, 8.71 -1.65, 32 0 M0 32 C-1.61 9.3, 12.18 -0.66, 32 0" stroke="#1e1e1e" stroke-width="2" fill="none"></path></g><g stroke-linecap="round" transform="translate(109.92063492063448 462.0873306516631) rotate(0 79.00000000000011 41)"><path d="M20.5 0 C60 1.88, 94.13 0.81, 137.5 0 M20.5 0 C44.85 -1.03, 71.01 -1.31, 137.5 0 M137.5 0 C149.78 1.44, 156.35 6.43, 158 20.5 M137.5 0 C150.01 -1.82, 156.01 5.34, 158 20.5 M158 20.5 C158.58 33.44, 159.66 48.46, 158 61.5 M158 20.5 C156.89 33.42, 157.41 45.91, 158 61.5 M158 61.5 C157.68 74.93, 149.2 81.19, 137.5 82 M158 61.5 C159.97 73.49, 149.34 80.88, 137.5 82 M137.5 82 C102.04 80.96, 69.45 81.63, 20.5 82 M137.5 82 C112.6 82.73, 87.05 81.19, 20.5 82 M20.5 82 C7.68 80.85, 0.58 75.02, 0 61.5 M20.5 82 C7.26 81.82, -0.42 73.66, 0 61.5 M0 61.5 C0.94 50.52, -1.79 39.08, 0 20.5 M0 61.5 C1.29 52.63, 1.15 44.63, 0 20.5 M0 20.5 C0.8 5.37, 5.27 -0.97, 20.5 0 M0 20.5 C0.51 4.67, 6.48 0.66, 20.5 0" stroke="#1e1e1e" stroke-width="2" fill="none"></path></g><g transform="translate(138.9206349206346 490.5873306516631) rotate(0 50 12.5)"><text x="50" y="17.52" font-family="Virgil, Segoe UI Emoji" font-size="20px" fill="#1e1e1e" text-anchor="middle" style="white-space: pre;" direction="ltr" dominant-baseline="alphabetic">程序计数器</text></g><g stroke-linecap="round" transform="translate(139.92063492063426 578.9444735088059) rotate(0 51 17.5)"><path d="M8.75 0 C30.81 1.94, 51.35 -1.24, 93.25 0 M8.75 0 C34.67 0.57, 57.65 -1.05, 93.25 0 M93.25 0 C100.13 -1.17, 102.3 3.32, 102 8.75 M93.25 0 C98.4 0.69, 102.52 4.63, 102 8.75 M102 8.75 C100.42 13.09, 103.48 18.78, 102 26.25 M102 8.75 C102.69 14.23, 102.19 20.02, 102 26.25 M102 26.25 C103.31 30.89, 99.71 33.69, 93.25 35 M102 26.25 C100.64 29.85, 101.24 33.51, 93.25 35 M93.25 35 C64.03 34.45, 32.95 34.58, 8.75 35 M93.25 35 C63.29 34.28, 35.32 34.37, 8.75 35 M8.75 35 C4.53 35.71, -0.77 30.89, 0 26.25 M8.75 35 C4.1 33.64, -0.93 32.1, 0 26.25 M0 26.25 C-0.19 21.41, 0.92 19.41, 0 8.75 M0 26.25 C-0.5 21.5, -0.02 15.07, 0 8.75 M0 8.75 C0.45 1.52, 2.59 0.33, 8.75 0 M0 8.75 C-0.61 2.05, 3.4 2.07, 8.75 0" stroke="#1e1e1e" stroke-width="2" fill="none"></path></g><g transform="translate(170.92063492063426 583.9444735088059) rotate(0 20 12.5)"><text x="20" y="17.52" font-family="Virgil, Segoe UI Emoji" font-size="20px" fill="#1e1e1e" text-anchor="middle" style="white-space: pre;" direction="ltr" dominant-baseline="alphabetic">栈帧</text></g><g stroke-linecap="round" transform="translate(765.5079365079357 448.94447350880597) rotate(0 113.71428571428555 72.85714285714286)"><path d="M32 0 C78.99 -0.98, 124.69 -0.6, 195.43 0 M32 0 C65.13 1.38, 98.73 0.29, 195.43 0 M195.43 0 C217.46 -1.07, 228.64 12.06, 227.43 32 M195.43 0 C215.97 -0.56, 226.16 11.6, 227.43 32 M227.43 32 C226.97 55.89, 227.81 82.19, 227.43 113.71 M227.43 32 C227.52 49.7, 227.25 67.37, 227.43 113.71 M227.43 113.71 C225.77 136.98, 218.7 146.66, 195.43 145.71 M227.43 113.71 C228.28 136.92, 215.7 144.22, 195.43 145.71 M195.43 145.71 C144.3 145.7, 93.23 145.04, 32 145.71 M195.43 145.71 C148.47 143.66, 104 144.77, 32 145.71 M32 145.71 C9.85 145.51, 0.29 135.36, 0 113.71 M32 145.71 C8.4 146.38, -0.7 135.36, 0 113.71 M0 113.71 C-2.06 83.43, 0 54.72, 0 32 M0 113.71 C-1.36 84.37, -1.16 56.54, 0 32 M0 32 C-1.56 10.27, 11.75 -0.41, 32 0 M0 32 C-1.91 11.52, 8.52 1.63, 32 0" stroke="#1e1e1e" stroke-width="2" fill="none"></path></g><g transform="translate(829.2222222222213 509.3016163659488) rotate(0 50 12.5)"><text x="50" y="17.52" font-family="Virgil, Segoe UI Emoji" font-size="20px" fill="#1e1e1e" text-anchor="middle" style="white-space: pre;" direction="ltr" dominant-baseline="alphabetic">本地方法栈</text></g><g transform="translate(454.80952380952317 370.2778068421394) rotate(0 60 12.5)"><text x="0" y="17.52" font-family="Virgil, Segoe UI Emoji" font-size="20px" fill="#1e1e1e" text-anchor="start" style="white-space: pre;" direction="ltr" dominant-baseline="alphabetic">运行时数据区</text></g><g stroke-linecap="round" transform="translate(56.071428571428214 1087.2619338262662) rotate(0 498.7301587301587 102.85714285714278)"><path d="M32 0 C274.12 -3.47, 515.55 -3.07, 965.46 0 M32 0 C324.03 -1.16, 616.73 -1.55, 965.46 0 M965.46 0 C984.88 -1.66, 997.53 9.83, 997.46 32 M965.46 0 C986.39 -2.13, 999.72 11.9, 997.46 32 M997.46 32 C998.74 85.09, 995.22 138.58, 997.46 173.71 M997.46 32 C997.2 71.02, 997.71 111.48, 997.46 173.71 M997.46 173.71 C997.71 193.83, 988.4 205.75, 965.46 205.71 M997.46 173.71 C995.85 194.52, 986.54 204.91, 965.46 205.71 M965.46 205.71 C608.06 207.4, 250 206.99, 32 205.71 M965.46 205.71 C672.57 203.98, 379.84 203.95, 32 205.71 M32 205.71 C8.92 206.56, -1.11 196.54, 0 173.71 M32 205.71 C12.96 205.24, 2.05 193.96, 0 173.71 M0 173.71 C-1.63 134.78, 1.78 101.07, 0 32 M0 173.71 C1.04 122.47, 1.21 71.25, 0 32 M0 32 C-1.53 9.6, 9.55 0, 32 0 M0 32 C-2.13 10.66, 8.84 -1.64, 32 0" stroke="#1e1e1e" stroke-width="2" fill="none"></path></g><g transform="translate(84.64285714285688 1058.6905052548377) rotate(0 40 12.5)"><text x="0" y="17.52" font-family="Virgil, Segoe UI Emoji" font-size="20px" fill="#1e1e1e" text-anchor="start" style="white-space: pre;" direction="ltr" dominant-baseline="alphabetic">类加载器</text></g><g stroke-linecap="round" transform="translate(1050.7142857142853 467.619076683409) rotate(0 189.9999999999999 212.8571428571428)"><path d="M32 0 C117.32 1.82, 201.71 1.92, 348 0 M32 0 C136.96 0.46, 240.3 1.58, 348 0 M348 0 C368.92 -0.95, 381.62 11.67, 380 32 M348 0 C369.48 1.14, 382.29 11.42, 380 32 M380 32 C381.64 156.51, 381.88 283.39, 380 393.71 M380 32 C381.64 125.35, 381.68 218.9, 380 393.71 M380 393.71 C380.87 416.82, 368.21 425.67, 348 425.71 M380 393.71 C377.89 416.24, 368.84 424.68, 348 425.71 M348 425.71 C253.82 426.98, 156.09 424.85, 32 425.71 M348 425.71 C242.76 426.3, 137.26 425.57, 32 425.71 M32 425.71 C12.54 424.79, -1.26 414.71, 0 393.71 M32 425.71 C10.68 425.52, -2.04 415.42, 0 393.71 M0 393.71 C-0.7 297.51, -0.33 201.41, 0 32 M0 393.71 C-1.01 310.04, -0.88 227.22, 0 32 M0 32 C-1.34 10.08, 9.71 -1.81, 32 0 M0 32 C0.59 12.71, 11.91 -0.18, 32 0" stroke="#1e1e1e" stroke-width="2" fill="none"></path></g><g transform="translate(1232.4942921229767 667.9762195405518) rotate(0 8.219993591308594 12.5)"><text x="8.219993591308594" y="17.52" font-family="Virgil, Segoe UI Emoji" font-size="20px" fill="#1e1e1e" text-anchor="middle" style="white-space: pre;" direction="ltr" dominant-baseline="alphabetic">...</text></g><g transform="translate(1073.571428571427 441.90479096912327) rotate(0 40 12.5)"><text x="0" y="17.52" font-family="Virgil, Segoe UI Emoji" font-size="20px" fill="#1e1e1e" text-anchor="start" style="white-space: pre;" direction="ltr" dominant-baseline="alphabetic">执行引擎</text></g><g stroke-linecap="round" transform="translate(238.92857142857076 1384.4047909691233) rotate(0 101.42857142857144 44.285714285714334)"><path d="M22.14 0 C84.38 0.75, 149 -1.46, 180.71 0 M22.14 0 C76.11 1.49, 130.84 1.84, 180.71 0 M180.71 0 C193.87 0.15, 201.23 7.62, 202.86 22.14 M180.71 0 C195.5 -0.13, 201.36 6.56, 202.86 22.14 M202.86 22.14 C200.94 36.81, 204.21 49.56, 202.86 66.43 M202.86 22.14 C202.09 34.3, 203.49 47.09, 202.86 66.43 M202.86 66.43 C204.18 79.42, 195.14 86.98, 180.71 88.57 M202.86 66.43 C202.24 80.49, 195.17 90.08, 180.71 88.57 M180.71 88.57 C130.22 88.17, 82.44 91.15, 22.14 88.57 M180.71 88.57 C145.39 90.23, 108.33 90.22, 22.14 88.57 M22.14 88.57 C5.45 87.89, -0.4 82.47, 0 66.43 M22.14 88.57 C9.58 90.41, 2.22 79.04, 0 66.43 M0 66.43 C-0.15 52.47, 0.67 40.82, 0 22.14 M0 66.43 C-0.73 52.12, 0.84 37.05, 0 22.14 M0 22.14 C0.33 7.8, 8.08 1.62, 22.14 0 M0 22.14 C1.71 5.45, 7.14 -0.21, 22.14 0" stroke="#1e1e1e" stroke-width="2" fill="none"></path></g><g transform="translate(292.4371675763805 1416.1905052548377) rotate(0 47.91997528076172 12.5)"><text x="47.91997528076172" y="17.52" font-family="Virgil, Segoe UI Emoji" font-size="20px" fill="#1e1e1e" text-anchor="middle" style="white-space: pre;" direction="ltr" dominant-baseline="alphabetic">.class文件</text></g><g stroke-linecap="round" transform="translate(87.49999999999932 1132.976219540552) rotate(0 92.85714285714283 54.28571428571428)"><path d="M27.14 0 C77.49 -1.11, 127.66 0.69, 158.57 0 M27.14 0 C67.17 -0.81, 106.14 -0.62, 158.57 0 M158.57 0 C175.47 -0.28, 184.03 8.63, 185.71 27.14 M158.57 0 C175.91 -1.26, 184.51 9.93, 185.71 27.14 M185.71 27.14 C186.63 44.99, 186.63 63.42, 185.71 81.43 M185.71 27.14 C186.17 38.61, 185.19 51.45, 185.71 81.43 M185.71 81.43 C185.74 99.77, 175.49 107.27, 158.57 108.57 M185.71 81.43 C184.74 100.07, 174.37 109, 158.57 108.57 M158.57 108.57 C107.18 107.51, 55 108.06, 27.14 108.57 M158.57 108.57 C119.08 107.96, 80.44 108.63, 27.14 108.57 M27.14 108.57 C8.75 107.37, -0.99 100.26, 0 81.43 M27.14 108.57 C6.94 107.94, 0.39 98.57, 0 81.43 M0 81.43 C-0.1 64.33, 1.23 43.99, 0 27.14 M0 81.43 C0.44 65.41, 0.3 48.63, 0 27.14 M0 27.14 C1.31 9.48, 8.5 0.29, 27.14 0 M0 27.14 C-1.35 8.1, 7.9 0.63, 27.14 0" stroke="#1e1e1e" stroke-width="2" fill="none"></path></g><g transform="translate(160.3571428571422 1174.7619338262662) rotate(0 20 12.5)"><text x="20" y="17.52" font-family="Virgil, Segoe UI Emoji" font-size="20px" fill="#1e1e1e" text-anchor="middle" style="white-space: pre;" direction="ltr" dominant-baseline="alphabetic">加载</text></g><g stroke-linecap="round"><g transform="translate(282.3686330756801 1383.4047909691233) rotate(0 -28.673422449725592 -66.642857142857)"><path d="M-0.62 -0.43 C-10.07 -22.98, -47.91 -112.02, -57.56 -134.34 M1.26 -1.71 C-8.29 -24.22, -49.04 -111.37, -58.62 -133.36" stroke="#1e1e1e" stroke-width="2" fill="none"></path></g><g transform="translate(282.3686330756801 1383.4047909691233) rotate(0 -28.673422449725592 -66.642857142857)"><path d="M-41.13 -115.49 C-45.96 -119.98, -50.96 -125.57, -58.62 -133.36 M-41.13 -115.49 C-44.31 -118.71, -49.16 -122.44, -58.62 -133.36" stroke="#1e1e1e" stroke-width="2" fill="none"></path></g><g transform="translate(282.3686330756801 1383.4047909691233) rotate(0 -28.673422449725592 -66.642857142857)"><path d="M-56.71 -108.43 C-58.06 -114.44, -59.53 -121.63, -58.62 -133.36 M-56.71 -108.43 C-56.67 -113.17, -58.27 -118.38, -58.62 -133.36" stroke="#1e1e1e" stroke-width="2" fill="none"></path></g></g><mask></mask><g transform="translate(288.4523809523804 1319.3254258897582) rotate(0 72.70999908447266 12.5)"><text x="0" y="17.52" font-family="Virgil, Segoe UI Emoji" font-size="20px" fill="#1e1e1e" text-anchor="start" style="white-space: pre;" direction="ltr" dominant-baseline="alphabetic">字节流（验证1）</text></g><g stroke-linecap="round"><g transform="translate(208.9221167615981 1127.2619338262662) rotate(0 62.79954906335428 -182.55952380952402)"><path d="M-0.87 0.73 C19.97 -60.35, 103.77 -304.73, 125 -365.74 M0.87 0.06 C22.12 -60.93, 106.5 -303.82, 127.4 -364.53" stroke="#1e1e1e" stroke-width="2" fill="none"></path></g><g transform="translate(208.9221167615981 1127.2619338262662) rotate(0 62.79954906335428 -182.55952380952402)"><path d="M127.8 -339.53 C128.74 -347.91, 126.38 -352.72, 127.4 -364.53 M127.8 -339.53 C127.65 -347.11, 128.68 -353.58, 127.4 -364.53" stroke="#1e1e1e" stroke-width="2" fill="none"></path></g><g transform="translate(208.9221167615981 1127.2619338262662) rotate(0 62.79954906335428 -182.55952380952402)"><path d="M111.64 -345.13 C117.38 -351.73, 119.78 -354.89, 127.4 -364.53 M111.64 -345.13 C115.96 -351.04, 121.5 -355.95, 127.4 -364.53" stroke="#1e1e1e" stroke-width="2" fill="none"></path></g></g><mask></mask><g stroke-linecap="round" transform="translate(325.3968253968245 692.420663984996) rotate(0 78.41269841269843 30)"><path d="M15 0 C55.23 -0.5, 94.8 1.02, 141.83 0 M15 0 C51.42 -0.88, 88.93 -0.87, 141.83 0 M141.83 0 C150.57 -0.21, 157.59 4.24, 156.83 15 M141.83 0 C151.4 -2.27, 158.54 4.05, 156.83 15 M156.83 15 C155.77 25.06, 158.11 37.86, 156.83 45 M156.83 15 C157.45 25.97, 157.88 35.09, 156.83 45 M156.83 45 C155.42 53.69, 152.92 61.93, 141.83 60 M156.83 45 C154.69 56.95, 153.91 58.51, 141.83 60 M141.83 60 C105.96 58.39, 71.74 58.75, 15 60 M141.83 60 C112.42 58.09, 80.4 59.39, 15 60 M15 60 C5.87 59.09, 1.64 54.47, 0 45 M15 60 C3.82 61.29, 1.26 55.27, 0 45 M0 45 C-1.77 39.9, -0.12 33.33, 0 15 M0 45 C0.83 36.29, -0.24 27.63, 0 15 M0 15 C1.26 5.87, 6.18 -0.74, 15 0 M0 15 C0.85 3.25, 3.35 -0.06, 15 0" stroke="#1e1e1e" stroke-width="2" fill="none"></path></g><g transform="translate(333.80952380952294 709.920663984996) rotate(0 70 12.5)"><text x="70" y="17.52" font-family="Virgil, Segoe UI Emoji" font-size="20px" fill="#1e1e1e" text-anchor="middle" style="white-space: pre;" direction="ltr" dominant-baseline="alphabetic">运行时数据结构</text></g><g transform="translate(221.23015873015834 960.3968108646466) rotate(0 20 12.5)"><text x="0" y="17.52" font-family="Virgil, Segoe UI Emoji" font-size="20px" fill="#1e1e1e" text-anchor="start" style="white-space: pre;" direction="ltr" dominant-baseline="alphabetic">生成</text></g><g stroke-linecap="round" transform="translate(340.55555555555543 1105.7143729073678) rotate(0 198.57142857142856 80)"><path d="M32 0 C125.8 2.61, 220.29 0.54, 365.14 0 M32 0 C153.45 1.73, 274.11 2.1, 365.14 0 M365.14 0 C386.05 -0.92, 398.07 12.45, 397.14 32 M365.14 0 C386.64 -0.94, 396.34 10.77, 397.14 32 M397.14 32 C396.29 65.47, 395.89 95.83, 397.14 128 M397.14 32 C395.51 66.84, 395.76 104.31, 397.14 128 M397.14 128 C396.95 149.61, 385.69 158.31, 365.14 160 M397.14 128 C398.7 151.6, 386.5 158.56, 365.14 160 M365.14 160 C291.2 161, 218.05 159.99, 32 160 M365.14 160 C248.5 162.13, 130.25 162.19, 32 160 M32 160 C9.89 158.49, 0.58 149.72, 0 128 M32 160 C9.66 159.31, -2.2 149.25, 0 128 M0 128 C2.4 102.27, 0.07 78.58, 0 32 M0 128 C-0.21 99.89, 1.02 71.89, 0 32 M0 32 C-0.13 11.97, 11.29 1.45, 32 0 M0 32 C2.08 10.09, 12.84 -1.13, 32 0" stroke="#2f9e44" stroke-width="2" fill="none"></path></g><g transform="translate(345.55555555555543 1123.2143729073678) rotate(0 182.0499725341797 62.5)"><text x="0" y="17.52" font-family="Virgil, Segoe UI Emoji" font-size="20px" fill="#2f9e44" text-anchor="start" style="white-space: pre;" direction="ltr" dominant-baseline="alphabetic">验证：</text><text x="0" y="42.519999999999996" font-family="Virgil, Segoe UI Emoji" font-size="20px" fill="#2f9e44" text-anchor="start" style="white-space: pre;" direction="ltr" dominant-baseline="alphabetic">1. 文件格式验证（Class 文件格式检查）</text><text x="0" y="67.52" font-family="Virgil, Segoe UI Emoji" font-size="20px" fill="#2f9e44" text-anchor="start" style="white-space: pre;" direction="ltr" dominant-baseline="alphabetic">2. 元数据验证（字节码语义检查）</text><text x="0" y="92.52" font-family="Virgil, Segoe UI Emoji" font-size="20px" fill="#2f9e44" text-anchor="start" style="white-space: pre;" direction="ltr" dominant-baseline="alphabetic">3. 字节码验证（程序语义检查）</text><text x="0" y="117.52" font-family="Virgil, Segoe UI Emoji" font-size="20px" fill="#2f9e44" text-anchor="start" style="white-space: pre;" direction="ltr" dominant-baseline="alphabetic">4. 符号引用验证（类的正确性检查）</text></g><g transform="translate(255.83333333333303 1484.4047909691228) rotate(0 60 12.5)"><text x="0" y="17.52" font-family="Virgil, Segoe UI Emoji" font-size="20px" fill="#1e1e1e" text-anchor="start" style="white-space: pre;" direction="ltr" dominant-baseline="alphabetic">静态存储结构</text></g><g stroke-linecap="round"><g transform="translate(413.88888888888823 757.8896466197083) rotate(0 0.42334563670567604 19.281148505671183)"><path d="M-0.29 0.53 C-0.09 7.04, 1.08 32.43, 1.28 38.81 M0.57 0.33 C0.71 6.69, 1.06 31.72, 1.07 37.98" stroke="#1e1e1e" stroke-width="2" fill="none"></path></g><g transform="translate(413.88888888888823 757.8896466197083) rotate(0 0.42334563670567604 19.281148505671183)"><path d="M-5.68 19.91 C-2.61 26.51, -0.93 31.72, 1.07 37.98 M-5.68 19.91 C-2.85 25.98, -1.07 32.35, 1.07 37.98" stroke="#1e1e1e" stroke-width="2" fill="none"></path></g><g transform="translate(413.88888888888823 757.8896466197083) rotate(0 0.42334563670567604 19.281148505671183)"><path d="M7.51 19.8 C6.33 26.4, 3.76 31.64, 1.07 37.98 M7.51 19.8 C5.77 25.89, 2.98 32.3, 1.07 37.98" stroke="#1e1e1e" stroke-width="2" fill="none"></path></g></g><mask></mask><g stroke-linecap="round" transform="translate(538.0555555555551 673.2936798580113) rotate(0 101.11111111111103 30)"><path d="M15 0 C52.86 -1.63, 93.3 -0.18, 187.22 0 M15 0 C69.27 0.09, 125.23 -0.06, 187.22 0 M187.22 0 C199.12 0.38, 202.23 4.12, 202.22 15 M187.22 0 C196.94 1.34, 202.23 5.38, 202.22 15 M202.22 15 C200.71 26.2, 204.04 38.83, 202.22 45 M202.22 15 C202.3 20.59, 203.27 27.45, 202.22 45 M202.22 45 C201.05 54.01, 195.86 61.24, 187.22 60 M202.22 45 C203.03 54.49, 198.14 58.25, 187.22 60 M187.22 60 C142.17 60.79, 95.65 60.43, 15 60 M187.22 60 C133.52 61.06, 77.66 59.98, 15 60 M15 60 C3.47 58.5, -1.25 55.1, 0 45 M15 60 C4.06 61.3, -1.45 53.35, 0 45 M0 45 C0.27 36.28, -0.23 29.94, 0 15 M0 45 C-0.68 33.66, -0.84 22.84, 0 15 M0 15 C-1.84 4.57, 4.75 0.93, 15 0 M0 15 C1.7 3.74, 4.67 0.74, 15 0" stroke="#1971c2" stroke-width="2" fill="none"></path></g><g transform="translate(549.1666666666661 678.2936798580113) rotate(0 90 25)"><text x="90" y="17.52" font-family="Virgil, Segoe UI Emoji" font-size="20px" fill="#1971c2" text-anchor="middle" style="white-space: pre;" direction="ltr" dominant-baseline="alphabetic">准备阶段：静态变量</text><text x="90" y="42.519999999999996" font-family="Virgil, Segoe UI Emoji" font-size="20px" fill="#1971c2" text-anchor="middle" style="white-space: pre;" direction="ltr" dominant-baseline="alphabetic">分配内存（初始值）</text></g><g transform="translate(588.8888888888887 633.293679858011) rotate(0 80 12.5)"><text x="0" y="17.52" font-family="Virgil, Segoe UI Emoji" font-size="20px" fill="#1e1e1e" text-anchor="start" style="white-space: pre;" direction="ltr" dominant-baseline="alphabetic">方法区（元空间）</text></g><g stroke-linecap="round"><g transform="translate(624.1856378054313 735.5159020802334) rotate(0 0.0575956971214282 24.444444444444343)"><path d="M-0.22 0.01 C-0.15 8.12, 0.48 40.8, 0.51 48.88 M0.66 -0.46 C0.7 7.72, 0.47 41.35, 0.28 49.57" stroke="#1e1e1e" stroke-width="2" fill="none"></path></g><g transform="translate(624.1856378054313 735.5159020802334) rotate(0 0.0575956971214282 24.444444444444343)"><path d="M-7.77 26.49 C-5.22 34.38, -2.76 40.55, 0.28 49.57 M-7.77 26.49 C-5.48 32.12, -4.17 36.82, 0.28 49.57" stroke="#1e1e1e" stroke-width="2" fill="none"></path></g><g transform="translate(624.1856378054313 735.5159020802334) rotate(0 0.0575956971214282 24.444444444444343)"><path d="M8.95 26.71 C6.32 34.5, 3.61 40.6, 0.28 49.57 M8.95 26.71 C7.46 32.31, 4.98 36.97, 0.28 49.57" stroke="#1e1e1e" stroke-width="2" fill="none"></path></g></g><mask></mask><g stroke-linecap="round" transform="translate(531.1111111111111 793.293679858011) rotate(0 108.88888888888891 45.55555555555554)"><path d="M22.78 0 C65.6 1.12, 105.37 -2.66, 195 0 M22.78 0 C84.77 1.72, 147.05 1.71, 195 0 M195 0 C212.02 -0.68, 218.15 6.37, 217.78 22.78 M195 0 C210.36 1.47, 216.98 8.26, 217.78 22.78 M217.78 22.78 C219.5 33.08, 218.96 43.4, 217.78 68.33 M217.78 22.78 C216.81 39.13, 217.96 55.79, 217.78 68.33 M217.78 68.33 C216.74 82.08, 208.28 89.83, 195 91.11 M217.78 68.33 C215.51 84.86, 208.58 91.47, 195 91.11 M195 91.11 C152.85 92.56, 107.81 94.1, 22.78 91.11 M195 91.11 C137.16 91.44, 77.14 90.43, 22.78 91.11 M22.78 91.11 C8.62 92.14, 0.22 83.37, 0 68.33 M22.78 91.11 C6.84 89.69, 1.96 82.48, 0 68.33 M0 68.33 C-2.05 57.66, 0.78 43.03, 0 22.78 M0 68.33 C0.6 50, 0.25 32.18, 0 22.78 M0 22.78 C-0.71 7.71, 9.13 -0.57, 22.78 0 M0 22.78 C1.9 7.51, 7.79 0.13, 22.78 0" stroke="#f08c00" stroke-width="2" fill="none"></path></g><g transform="translate(543.4000244140625 801.3492354135666) rotate(0 96.5999755859375 37.5)"><text x="96.5999755859375" y="17.52" font-family="Virgil, Segoe UI Emoji" font-size="20px" fill="#f08c00" text-anchor="middle" style="white-space: pre;" direction="ltr" dominant-baseline="alphabetic">解析阶段：（验证4）</text><text x="96.5999755859375" y="42.519999999999996" font-family="Virgil, Segoe UI Emoji" font-size="20px" fill="#f08c00" text-anchor="middle" style="white-space: pre;" direction="ltr" dominant-baseline="alphabetic">Class对象中的符号引</text><text x="96.5999755859375" y="67.52" font-family="Virgil, Segoe UI Emoji" font-size="20px" fill="#f08c00" text-anchor="middle" style="white-space: pre;" direction="ltr" dominant-baseline="alphabetic">用，变成直接引用</text></g><g stroke-linecap="round" transform="translate(313.33333333333303 548.8492354135667) rotate(0 65.55555555555554 17.5)"><path d="M8.75 0 C42.08 -0.55, 75.01 -1.38, 122.36 0 M8.75 0 C53.03 0.7, 98.36 -0.88, 122.36 0 M122.36 0 C128.44 -0.28, 132.17 4.92, 131.11 8.75 M122.36 0 C127.96 -1.95, 131.99 4.19, 131.11 8.75 M131.11 8.75 C131.64 12.14, 129.65 19.5, 131.11 26.25 M131.11 8.75 C130.53 13.81, 131.5 19.98, 131.11 26.25 M131.11 26.25 C129.56 31.23, 128.52 36.39, 122.36 35 M131.11 26.25 C132.12 31.71, 128.88 37.2, 122.36 35 M122.36 35 C99.52 32.95, 74.56 34.67, 8.75 35 M122.36 35 C100.09 34.87, 76.37 35.77, 8.75 35 M8.75 35 C3.61 34.9, -1.24 32.81, 0 26.25 M8.75 35 C4.45 33.18, -0.82 29.9, 0 26.25 M0 26.25 C1.16 19.48, -0.49 13.79, 0 8.75 M0 26.25 C0.21 20.68, -0.9 15.29, 0 8.75 M0 8.75 C-1.24 1.52, 2.43 -0.09, 8.75 0 M0 8.75 C0.44 4.03, 3.99 2.16, 8.75 0" stroke="#1e1e1e" stroke-width="2" fill="none"></path></g><g transform="translate(332.2889133029511 553.8492354135667) rotate(0 46.5999755859375 12.5)"><text x="46.5999755859375" y="17.52" font-family="Virgil, Segoe UI Emoji" font-size="20px" fill="#1e1e1e" text-anchor="middle" style="white-space: pre;" direction="ltr" dominant-baseline="alphabetic">Class对象</text></g><g stroke-linecap="round"><g transform="translate(200.3497610188698 1123.8492354135667) rotate(0 73.9006574357415 -268.6111111111111)"><path d="M0.49 0.96 C25.25 -88.36, 124.12 -447.42, 148.68 -536.97 M-0.71 0.41 C23.95 -89.19, 123.56 -449.18, 148.19 -538.96" stroke="#1e1e1e" stroke-width="2" fill="none"></path></g><g transform="translate(200.3497610188698 1123.8492354135667) rotate(0 73.9006574357415 -268.6111111111111)"><path d="M150.19 -514.04 C151.39 -520.32, 149.6 -529.51, 148.19 -538.96 M150.19 -514.04 C149.08 -523.96, 149.42 -532.02, 148.19 -538.96" stroke="#1e1e1e" stroke-width="2" fill="none"></path></g><g transform="translate(200.3497610188698 1123.8492354135667) rotate(0 73.9006574357415 -268.6111111111111)"><path d="M133.7 -518.58 C139.99 -523.52, 143.32 -531.3, 148.19 -538.96 M133.7 -518.58 C138.75 -526.86, 145.23 -533.22, 148.19 -538.96" stroke="#1e1e1e" stroke-width="2" fill="none"></path></g></g><mask></mask><g stroke-linecap="round"><g transform="translate(378.5959203323092 586.6270131913444) rotate(0 -8.177259637271902 49.86111111111114)"><path d="M-0.37 1.06 C-3.11 17.97, -14.72 84.59, -17.23 100.85" stroke="#1e1e1e" stroke-width="2.5" fill="none" stroke-dasharray="1.5 8"></path></g><g transform="translate(378.5959203323092 586.6270131913444) rotate(0 -8.177259637271902 49.86111111111114)"><path d="M-21.82 76.27 C-19.09 80.64, -17.9 89.44, -17.23 100.85" stroke="#1e1e1e" stroke-width="2.5" fill="none" stroke-dasharray="1.5 6"></path></g><g transform="translate(378.5959203323092 586.6270131913444) rotate(0 -8.177259637271902 49.86111111111114)"><path d="M-4.95 79.07 C-6.19 82.72, -8.99 90.86, -17.23 100.85" stroke="#1e1e1e" stroke-width="2.5" fill="none" stroke-dasharray="1.5 6"></path></g></g><mask></mask><g transform="translate(375.2777777777774 644.9603465246778) rotate(0 20 12.5)"><text x="0" y="17.52" font-family="Virgil, Segoe UI Emoji" font-size="20px" fill="#1e1e1e" text-anchor="start" style="white-space: pre;" direction="ltr" dominant-baseline="alphabetic">指向</text></g><g stroke-linecap="round"><g transform="translate(537.3038452057989 671.2024593638957) rotate(0 -46.23742811873461 -42.30109617265035)"><path d="M-0.45 -0.29 C-15.72 -14.29, -76.76 -69.95, -92.22 -83.84" stroke="#1e1e1e" stroke-width="2.5" fill="none" stroke-dasharray="1.5 8"></path></g><g transform="translate(537.3038452057989 671.2024593638957) rotate(0 -46.23742811873461 -42.30109617265035)"><path d="M-69.07 -74.4 C-75.34 -76.42, -79.36 -80.46, -92.22 -83.84" stroke="#1e1e1e" stroke-width="2.5" fill="none" stroke-dasharray="1.5 6"></path></g><g transform="translate(537.3038452057989 671.2024593638957) rotate(0 -46.23742811873461 -42.30109617265035)"><path d="M-80.55 -61.73 C-83.98 -66.86, -85.13 -74.07, -92.22 -83.84" stroke="#1e1e1e" stroke-width="2.5" fill="none" stroke-dasharray="1.5 6"></path></g></g><mask></mask><g stroke-linecap="round"><g transform="translate(531.1111111111109 797.7381243024555) rotate(0 -55.55555555555554 -104.44444444444443)"><path d="M-0.46 0.34 C-18.89 -34.6, -93.06 -174.84, -111.59 -209.72" stroke="#1e1e1e" stroke-width="2.5" fill="none" stroke-dasharray="1.5 8"></path></g><g transform="translate(531.1111111111109 797.7381243024555) rotate(0 -55.55555555555554 -104.44444444444443)"><path d="M-93.03 -192.96 C-96.48 -197.46, -102.45 -201.16, -111.59 -209.72" stroke="#1e1e1e" stroke-width="2.5" fill="none" stroke-dasharray="1.5 6"></path></g><g transform="translate(531.1111111111109 797.7381243024555) rotate(0 -55.55555555555554 -104.44444444444443)"><path d="M-108.14 -184.96 C-108.31 -191.13, -111 -196.57, -111.59 -209.72" stroke="#1e1e1e" stroke-width="2.5" fill="none" stroke-dasharray="1.5 6"></path></g></g><mask></mask><g transform="translate(448.8888888888887 637.7381243024554) rotate(0 40 12.5)"><text x="0" y="17.52" font-family="Virgil, Segoe UI Emoji" font-size="20px" fill="#1e1e1e" text-anchor="start" style="white-space: pre;" direction="ltr" dominant-baseline="alphabetic">间接依赖</text></g><g stroke-linecap="round"><g transform="translate(393.39188757608304 1266.7143729073678) rotate(0 -8.962957733111466 22.178542364210557)"><path d="M0.25 -0.26 C-3.09 7, -16.28 36.15, -19.12 43.68" stroke="#2f9e44" stroke-width="2.5" fill="none" stroke-dasharray="8 10"></path></g><g transform="translate(393.39188757608304 1266.7143729073678) rotate(0 -8.962957733111466 22.178542364210557)"><path d="M-17.96 19.78 C-18.79 26.78, -19.94 39.68, -19.12 43.68" stroke="#2f9e44" stroke-width="2.5" fill="none"></path></g><g transform="translate(393.39188757608304 1266.7143729073678) rotate(0 -8.962957733111466 22.178542364210557)"><path d="M-2.87 26.12 C-9.38 30.77, -16.2 41.28, -19.12 43.68" stroke="#2f9e44" stroke-width="2.5" fill="none"></path></g></g><mask></mask><g stroke-linecap="round"><g transform="translate(476.7123554355296 1099.6825687469) rotate(0 36.83740763455103 -104.30555555555554)"><path d="M1.18 1 C13.43 -33.86, 61.64 -174.36, 73.74 -209.48" stroke="#2f9e44" stroke-width="2.5" fill="none" stroke-dasharray="8 10"></path></g><g transform="translate(476.7123554355296 1099.6825687469) rotate(0 36.83740763455103 -104.30555555555554)"><path d="M74.19 -184.49 C75.78 -192.38, 72.51 -200.32, 73.74 -209.48" stroke="#2f9e44" stroke-width="2.5" fill="none"></path></g><g transform="translate(476.7123554355296 1099.6825687469) rotate(0 36.83740763455103 -104.30555555555554)"><path d="M58.02 -190.05 C64.78 -196.32, 66.68 -202.48, 73.74 -209.48" stroke="#2f9e44" stroke-width="2.5" fill="none"></path></g></g><mask></mask><g stroke-linecap="round" transform="translate(10 1007.7381243024554) rotate(0 526.9642857142856 17.5)"><path d="M8.75 0 C412.01 -2.55, 816.54 -3.48, 1045.18 0 M1045.18 0 C1050.97 0.52, 1054.18 2.48, 1053.93 8.75 M1053.93 8.75 C1053.42 14.92, 1052.48 20.21, 1053.93 26.25 M1053.93 26.25 C1052.8 33.04, 1049.9 33.06, 1045.18 35 M1045.18 35 C756.18 37.44, 467.44 36.2, 8.75 35 M8.75 35 C3.22 33.71, -0.58 31.59, 0 26.25 M0 26.25 C-1.27 22.96, 1.71 17.17, 0 8.75 M0 8.75 C-0.29 1.29, 1.52 1.1, 8.75 0" stroke="#1e1e1e" stroke-width="2.5" fill="none" stroke-dasharray="8 10"></path></g><g transform="translate(462.79429517473477 1012.7381243024554) rotate(0 74.16999053955078 12.5)"><text x="74.16999053955078" y="17.52" font-family="Virgil, Segoe UI Emoji" font-size="20px" fill="#1e1e1e" text-anchor="middle" style="white-space: pre;" direction="ltr" dominant-baseline="alphabetic">JVM 提供的接口</text></g><g stroke-linecap="round" transform="translate(808.8888888888887 1115.2381243024554) rotate(0 101.11111111111097 30)"><path d="M15 0 C52.59 -1.91, 88.32 -0.11, 187.22 0 M15 0 C57.35 -1.83, 99.82 -1.74, 187.22 0 M187.22 0 C196.41 0.8, 204.04 4.77, 202.22 15 M187.22 0 C196.05 -0.05, 200.75 5.57, 202.22 15 M202.22 15 C203.59 24.84, 200.07 37.33, 202.22 45 M202.22 15 C202.67 21.33, 202.76 26.93, 202.22 45 M202.22 45 C202.38 53.03, 198.22 60.26, 187.22 60 M202.22 45 C200.74 52.99, 196.34 60.99, 187.22 60 M187.22 60 C135.64 57.32, 82.18 58.05, 15 60 M187.22 60 C140.05 59.48, 91.83 59.13, 15 60 M15 60 C5.98 58.42, 0.69 55.37, 0 45 M15 60 C4.9 60.24, 0.85 52.99, 0 45 M0 45 C1.18 37.75, 0.76 30.34, 0 15 M0 45 C-0.62 35.86, -1.23 27.46, 0 15 M0 15 C0.93 5.22, 4.28 1.88, 15 0 M0 15 C0.96 3.13, 2.81 -0.89, 15 0" stroke="#1971c2" stroke-width="2" fill="none"></path></g><g transform="translate(889.9999999999998 1132.7381243024554) rotate(0 20 12.5)"><text x="20" y="17.52" font-family="Virgil, Segoe UI Emoji" font-size="20px" fill="#1971c2" text-anchor="middle" style="white-space: pre;" direction="ltr" dominant-baseline="alphabetic">准备</text></g><g stroke-linecap="round"><g transform="translate(868.1390499900924 1107.7381243024556) rotate(0 -61.56952499504621 -196.14260285985318)"><path d="M1.15 0.61 C-19.01 -64.84, -101.24 -327.23, -122.03 -392.52" stroke="#1971c2" stroke-width="2.5" fill="none" stroke-dasharray="8 10"></path></g><g transform="translate(868.1390499900924 1107.7381243024556) rotate(0 -61.56952499504621 -196.14260285985318)"><path d="M-106.8 -372.69 C-109.05 -374.89, -113.67 -381.63, -122.03 -392.52" stroke="#1971c2" stroke-width="2.5" fill="none"></path></g><g transform="translate(868.1390499900924 1107.7381243024556) rotate(0 -61.56952499504621 -196.14260285985318)"><path d="M-123.11 -367.54 C-121.91 -370.99, -123.08 -378.82, -122.03 -392.52" stroke="#1971c2" stroke-width="2.5" fill="none"></path></g></g><mask></mask><g stroke-linecap="round" transform="translate(802.5 1190.2381243024554) rotate(0 103.75 35)"><path d="M17.5 0 C73.92 -0.13, 129.25 1.13, 190 0 M17.5 0 C54.9 0.96, 93.73 1.13, 190 0 M190 0 C202.77 1.97, 206.78 4.17, 207.5 17.5 M190 0 C203.27 -1.3, 208.86 4.94, 207.5 17.5 M207.5 17.5 C205.69 28.53, 208.75 36.86, 207.5 52.5 M207.5 17.5 C206.94 29.51, 206.74 42.92, 207.5 52.5 M207.5 52.5 C209.21 65.85, 202.5 69, 190 70 M207.5 52.5 C209.8 66.11, 201.24 68.96, 190 70 M190 70 C134.83 69.77, 76.55 69.6, 17.5 70 M190 70 C140.69 69.69, 89.98 69.51, 17.5 70 M17.5 70 C7.25 70.67, 1.81 65.72, 0 52.5 M17.5 70 C4.56 68.37, 1.8 65.33, 0 52.5 M0 52.5 C-1.17 40.5, 1.11 28.33, 0 17.5 M0 52.5 C0.11 42.7, 0.46 33.74, 0 17.5 M0 17.5 C-0.24 6.36, 6.08 0.46, 17.5 0 M0 17.5 C-0.11 7.69, 5.65 -0.69, 17.5 0" stroke="#f08c00" stroke-width="2" fill="none"></path></g><g transform="translate(886.25 1212.7381243024554) rotate(0 20 12.5)"><text x="20" y="17.52" font-family="Virgil, Segoe UI Emoji" font-size="20px" fill="#f08c00" text-anchor="middle" style="white-space: pre;" direction="ltr" dominant-baseline="alphabetic">解析</text></g><g stroke-linecap="round"><g transform="translate(797.5 1218.4996563938175) rotate(0 -33.46236455300959 -164.13076604568107)"><path d="M-0.68 0.18 C-11.94 -54.42, -56.41 -273.01, -67.27 -327.59" stroke="#f08c00" stroke-width="2.5" fill="none" stroke-dasharray="8 10"></path></g><g transform="translate(797.5 1218.4996563938175) rotate(0 -33.46236455300959 -164.13076604568107)"><path d="M-54.24 -306.25 C-58.17 -313.81, -61.57 -318.29, -67.27 -327.59" stroke="#f08c00" stroke-width="2.5" fill="none"></path></g><g transform="translate(797.5 1218.4996563938175) rotate(0 -33.46236455300959 -164.13076604568107)"><path d="M-71.01 -302.87 C-69.5 -311.43, -67.46 -317.01, -67.27 -327.59" stroke="#f08c00" stroke-width="2.5" fill="none"></path></g></g><mask></mask><g stroke-linecap="round" transform="translate(347.5 800.2381243024554) rotate(0 66.25 35)"><path d="M17.5 0 C42.05 0.1, 68.69 1.23, 115 0 M17.5 0 C39.77 -1.48, 63.46 0.11, 115 0 M115 0 C127.91 -1.38, 131.95 3.99, 132.5 17.5 M115 0 C124.92 -0.13, 134.26 5.13, 132.5 17.5 M132.5 17.5 C131.23 27.32, 134.23 37.17, 132.5 52.5 M132.5 17.5 C131.5 29.51, 132.14 39.2, 132.5 52.5 M132.5 52.5 C133.63 64.17, 125.19 71.07, 115 70 M132.5 52.5 C133.81 64.96, 127.03 72.22, 115 70 M115 70 C78.04 72.55, 42.19 72.12, 17.5 70 M115 70 C80.79 70.26, 46.47 70.18, 17.5 70 M17.5 70 C5.76 68.39, -0.47 65.89, 0 52.5 M17.5 70 C7.89 68.63, 0.55 66.37, 0 52.5 M0 52.5 C0.24 46.02, 0.61 36.05, 0 17.5 M0 52.5 C0.18 40.85, -0.85 28.98, 0 17.5 M0 17.5 C0.05 7.63, 6.06 -0.59, 17.5 0 M0 17.5 C-1.95 5.88, 6.66 -1.24, 17.5 0" stroke="#2f9e44" stroke-width="2" fill="none"></path></g><g transform="translate(363.75 810.2381243024554) rotate(0 50 25)"><text x="50" y="17.52" font-family="Virgil, Segoe UI Emoji" font-size="20px" fill="#2f9e44" text-anchor="middle" style="white-space: pre;" direction="ltr" dominant-baseline="alphabetic">校验阶段：</text><text x="50" y="42.519999999999996" font-family="Virgil, Segoe UI Emoji" font-size="20px" fill="#2f9e44" text-anchor="middle" style="white-space: pre;" direction="ltr" dominant-baseline="alphabetic">2/3</text></g><g stroke-linecap="round"><g transform="translate(417.5 1102.7381243024554) rotate(0 -2.5 -113.75)"><path d="M0.61 -1.17 C-0.43 -39.13, -5.08 -189.66, -5.83 -227.54" stroke="#2f9e44" stroke-width="2.5" fill="none" stroke-dasharray="8 10"></path></g><g transform="translate(417.5 1102.7381243024554) rotate(0 -2.5 -113.75)"><path d="M3.33 -204.28 C-1.71 -213.37, -2.89 -217.94, -5.83 -227.54" stroke="#2f9e44" stroke-width="2.5" fill="none"></path></g><g transform="translate(417.5 1102.7381243024554) rotate(0 -2.5 -113.75)"><path d="M-13.76 -203.83 C-13.11 -213.16, -8.59 -217.87, -5.83 -227.54" stroke="#2f9e44" stroke-width="2.5" fill="none"></path></g></g><mask></mask><g stroke-linecap="round"><g transform="translate(480 797.7381243024554) rotate(0 26.25 -31.25)"><path d="M0.54 -0.77 C9.12 -10.99, 44.03 -52.04, 52.66 -62.4 M-0.64 1.44 C7.7 -8.48, 43.11 -50.27, 51.8 -60.81" stroke="#1e1e1e" stroke-width="2" fill="none"></path></g><g transform="translate(480 797.7381243024554) rotate(0 26.25 -31.25)"><path d="M43.27 -37.31 C45.56 -46.36, 50.38 -56.22, 51.8 -60.81 M43.27 -37.31 C44.95 -43.51, 47.06 -50.82, 51.8 -60.81" stroke="#1e1e1e" stroke-width="2" fill="none"></path></g><g transform="translate(480 797.7381243024554) rotate(0 26.25 -31.25)"><path d="M30.16 -48.28 C37.54 -53.06, 47.54 -58.59, 51.8 -60.81 M30.16 -48.28 C35.35 -51.49, 40.97 -55.85, 51.8 -60.81" stroke="#1e1e1e" stroke-width="2" fill="none"></path></g></g><mask></mask><g stroke-linecap="round"><g transform="translate(467.5 795.2381243024554) rotate(0 -31.25 -103.75)"><path d="M-0.46 1.07 C-10.86 -33.51, -52.9 -172.37, -63.13 -207.14" stroke="#1e1e1e" stroke-width="2.5" fill="none" stroke-dasharray="1.5 8"></path></g><g transform="translate(467.5 795.2381243024554) rotate(0 -31.25 -103.75)"><path d="M-48.21 -187.08 C-50.07 -193.01, -54.85 -195.62, -63.13 -207.14" stroke="#1e1e1e" stroke-width="2.5" fill="none" stroke-dasharray="1.5 6"></path></g><g transform="translate(467.5 795.2381243024554) rotate(0 -31.25 -103.75)"><path d="M-64.59 -182.18 C-62.53 -189.23, -63.37 -193.02, -63.13 -207.14" stroke="#1e1e1e" stroke-width="2.5" fill="none" stroke-dasharray="1.5 6"></path></g></g><mask></mask><g stroke-linecap="round" transform="translate(325 1095.2381243024554) rotate(0 356.25 93.75)"><path d="M32 0 C177.64 -2.18, 323.5 -2.36, 680.5 0 M32 0 C282.52 -0.66, 533.84 -0.22, 680.5 0 M680.5 0 C699.95 1.18, 712.95 10.33, 712.5 32 M680.5 0 C703.46 -0.02, 712.09 10.14, 712.5 32 M712.5 32 C712.61 62.3, 711.83 89.15, 712.5 155.5 M712.5 32 C713.67 61.39, 713.63 90.38, 712.5 155.5 M712.5 155.5 C711.61 178.59, 703.68 188.88, 680.5 187.5 M712.5 155.5 C712.58 177.38, 703.11 186.84, 680.5 187.5 M680.5 187.5 C486.84 187.1, 291.97 187.06, 32 187.5 M680.5 187.5 C449.2 189.63, 218.85 189.52, 32 187.5 M32 187.5 C12.07 185.74, 0.37 174.99, 0 155.5 M32 187.5 C8.67 188.1, 1.49 175, 0 155.5 M0 155.5 C-2.13 127.96, -0.73 105.47, 0 32 M0 155.5 C0.81 127.33, -0.18 99.69, 0 32 M0 32 C-1 9.43, 12.57 0.92, 32 0 M0 32 C-1.77 11.89, 10.73 -1.48, 32 0" stroke="#1e1e1e" stroke-width="2" fill="none"></path></g><g transform="translate(282.5 1097.7381243024554) rotate(0 20 12.5)"><text x="0" y="17.52" font-family="Virgil, Segoe UI Emoji" font-size="20px" fill="#1e1e1e" text-anchor="start" style="white-space: pre;" direction="ltr" dominant-baseline="alphabetic">链接</text></g><g stroke-linecap="round"><g transform="translate(280 1182.7381243024554) rotate(0 21.25 0)"><path d="M0.06 -0.51 C7.17 -0.56, 35.05 -0.21, 42.08 -0.1 M-0.57 0.41 C6.75 0.44, 36.05 0.76, 43.09 0.55" stroke="#1e1e1e" stroke-width="2" fill="none"></path></g><g transform="translate(280 1182.7381243024554) rotate(0 21.25 0)"><path d="M23.16 7.94 C26.25 5.66, 31.04 4.39, 43.09 0.55 M23.16 7.94 C29.34 5.11, 36.68 3.27, 43.09 0.55" stroke="#1e1e1e" stroke-width="2" fill="none"></path></g><g transform="translate(280 1182.7381243024554) rotate(0 21.25 0)"><path d="M23.08 -6.6 C26.21 -5.94, 31.02 -4.27, 43.09 0.55 M23.08 -6.6 C29.26 -4.58, 36.63 -1.59, 43.09 0.55" stroke="#1e1e1e" stroke-width="2" fill="none"></path></g></g><mask></mask><g stroke-linecap="round" transform="translate(801.8214285714294 665.9524100167409) rotate(0 91.60714285714289 106.42857142857144)"><path d="M32 0 C66.78 -1.56, 104.35 -0.64, 151.21 0 M151.21 0 C173.72 -0.4, 182.92 10.5, 183.21 32 M183.21 32 C182.82 73.73, 185.83 119.08, 183.21 180.86 M183.21 180.86 C183.93 201.3, 173.46 214.3, 151.21 212.86 M151.21 212.86 C119.76 215.59, 91.81 212.03, 32 212.86 M32 212.86 C10.2 212.21, 0.52 201.16, 0 180.86 M0 180.86 C-1.76 140.35, -1.85 102.05, 0 32 M0 32 C0.54 9.42, 9.03 1.81, 32 0" stroke="#e03131" stroke-width="2.5" fill="none" stroke-dasharray="1.5 8"></path></g><g transform="translate(806.8214285714294 697.3809814453124) rotate(0 85 75)"><text x="0" y="17.52" font-family="Virgil, Segoe UI Emoji" font-size="20px" fill="#e03131" text-anchor="start" style="white-space: pre;" direction="ltr" dominant-baseline="alphabetic">（类被使用才会被</text><text x="0" y="42.519999999999996" font-family="Virgil, Segoe UI Emoji" font-size="20px" fill="#e03131" text-anchor="start" style="white-space: pre;" direction="ltr" dominant-baseline="alphabetic">初始化）</text><text x="0" y="67.52" font-family="Virgil, Segoe UI Emoji" font-size="20px" fill="#e03131" text-anchor="start" style="white-space: pre;" direction="ltr" dominant-baseline="alphabetic">初始化：执行类构</text><text x="0" y="92.52" font-family="Virgil, Segoe UI Emoji" font-size="20px" fill="#e03131" text-anchor="start" style="white-space: pre;" direction="ltr" dominant-baseline="alphabetic">造器方法&lt;clinit&gt;，</text><text x="0" y="117.52" font-family="Virgil, Segoe UI Emoji" font-size="20px" fill="#e03131" text-anchor="start" style="white-space: pre;" direction="ltr" dominant-baseline="alphabetic">赋予初始/默认值，</text><text x="0" y="142.52" font-family="Virgil, Segoe UI Emoji" font-size="20px" fill="#e03131" text-anchor="start" style="white-space: pre;" direction="ltr" dominant-baseline="alphabetic">先初始化父类</text></g><g stroke-linecap="round"><g transform="translate(757.714285714286 839.6853467832185) rotate(0 20 -1.446290496631434)"><path d="M0.41 0.18 C7.03 -0.36, 33.44 -2.29, 40.1 -2.89" stroke="#1e1e1e" stroke-width="2.5" fill="none" stroke-dasharray="1.5 8"></path></g><g transform="translate(757.714285714286 839.6853467832185) rotate(0 20 -1.446290496631434)"><path d="M21.86 5.45 C29.06 2.41, 35.64 -0.26, 40.1 -2.89" stroke="#1e1e1e" stroke-width="2.5" fill="none" stroke-dasharray="1.5 6"></path></g><g transform="translate(757.714285714286 839.6853467832185) rotate(0 20 -1.446290496631434)"><path d="M20.77 -8.22 C28.43 -6.1, 35.42 -3.59, 40.1 -2.89" stroke="#1e1e1e" stroke-width="2.5" fill="none" stroke-dasharray="1.5 6"></path></g></g><mask></mask><g stroke-linecap="round" transform="translate(71.04758998325997 10) rotate(0 494.2857142857142 168.57142857142864)"><path d="M32 0 C221.66 -0.2, 409.98 0.63, 956.57 0 M956.57 0 C978.16 1.58, 990.47 12.61, 988.57 32 M988.57 32 C987.86 113.28, 986.64 194.51, 988.57 305.14 M988.57 305.14 C989.92 327.35, 977.3 338.06, 956.57 337.14 M956.57 337.14 C735.98 338.7, 516.45 339.2, 32 337.14 M32 337.14 C11.37 336.19, -1.39 326.49, 0 305.14 M0 305.14 C-0.93 205.15, -1.4 105.6, 0 32 M0 32 C-0.25 11.39, 9.71 -0.39, 32 0" stroke="#1e1e1e" stroke-width="2.5" fill="none" stroke-dasharray="1.5 8"></path></g><g transform="translate(76.04758998325997 28.57142857142864) rotate(0 475.8799743652344 150)"><text x="0" y="17.52" font-family="Virgil, Segoe UI Emoji" font-size="20px" fill="#1e1e1e" text-anchor="start" style="white-space: pre;" direction="ltr" dominant-baseline="alphabetic">一些说明：</text><text x="0" y="42.519999999999996" font-family="Virgil, Segoe UI Emoji" font-size="20px" fill="#1e1e1e" text-anchor="start" style="white-space: pre;" direction="ltr" dominant-baseline="alphabetic"></text><text x="0" y="67.52" font-family="Virgil, Segoe UI Emoji" font-size="20px" fill="#1e1e1e" text-anchor="start" style="white-space: pre;" direction="ltr" dominant-baseline="alphabetic">方法区：方法区会存储已被虚拟机加载的 </text><text x="0" y="92.52" font-family="Virgil, Segoe UI Emoji" font-size="20px" fill="#1e1e1e" text-anchor="start" style="white-space: pre;" direction="ltr" dominant-baseline="alphabetic">类信息、字段信息、方法信息、常量、静态变量、即时编译器编译后的代码缓存等数据。</text><text x="0" y="117.52" font-family="Virgil, Segoe UI Emoji" font-size="20px" fill="#1e1e1e" text-anchor="start" style="white-space: pre;" direction="ltr" dominant-baseline="alphabetic"></text><text x="0" y="142.52" font-family="Virgil, Segoe UI Emoji" font-size="20px" fill="#1e1e1e" text-anchor="start" style="white-space: pre;" direction="ltr" dominant-baseline="alphabetic">类被初始化条件：</text><text x="0" y="167.52" font-family="Virgil, Segoe UI Emoji" font-size="20px" fill="#1e1e1e" text-anchor="start" style="white-space: pre;" direction="ltr" dominant-baseline="alphabetic">1. 遇到new关键字实例化对象</text><text x="0" y="192.52" font-family="Virgil, Segoe UI Emoji" font-size="20px" fill="#1e1e1e" text-anchor="start" style="white-space: pre;" direction="ltr" dominant-baseline="alphabetic">2. 访问或调用类的静态变量（final修饰除外，编译期已赋值的静态变量在类加载的准备阶段就会被初始化）</text><text x="0" y="217.52" font-family="Virgil, Segoe UI Emoji" font-size="20px" fill="#1e1e1e" text-anchor="start" style="white-space: pre;" direction="ltr" dominant-baseline="alphabetic">3. 调用类的静态方法</text><text x="0" y="242.52" font-family="Virgil, Segoe UI Emoji" font-size="20px" fill="#1e1e1e" text-anchor="start" style="white-space: pre;" direction="ltr" dominant-baseline="alphabetic">4. 反射调用类的方法（包括构造函数）</text><text x="0" y="267.52" font-family="Virgil, Segoe UI Emoji" font-size="20px" fill="#1e1e1e" text-anchor="start" style="white-space: pre;" direction="ltr" dominant-baseline="alphabetic">5. 初始化一个类的子类（父类未初始化则先初始化父类）</text><text x="0" y="292.52" font-family="Virgil, Segoe UI Emoji" font-size="20px" fill="#1e1e1e" text-anchor="start" style="white-space: pre;" direction="ltr" dominant-baseline="alphabetic">6.Java虚拟机启动时，用户需要指定一个含有main方法的主类，这个主类会首先被初始化</text></g></svg>