<svg version="1.1" xmlns="http://www.w3.org/2000/svg" viewBox="0 0 3046.8412698412694 901.9047619047622" width="3046.8412698412694" height="901.9047619047622">
  <!-- svg-source:excalidraw -->
  
  <defs>
    <style class="style-fonts">
      @font-face {
        font-family: "Virgil";
        src: url("https://excalidraw.com/Virgil.woff2");
      }
      @font-face {
        font-family: "Cascadia";
        src: url("https://excalidraw.com/Cascadia.woff2");
      }
      @font-face {
        font-family: "Assistant";
        src: url("https://excalidraw.com/Assistant-Regular.woff2");
      }
    </style>
    
  </defs>
  <rect x="0" y="0" width="3046.8412698412694" height="901.9047619047622" fill="#ffffff"></rect><g stroke-linecap="round" transform="translate(363.50793650793617 455.08720583177427) rotate(0 227.5 21.25)"><path d="M10.63 0 C130.87 1.79, 252.24 0.85, 444.38 0 M444.38 0 C453.34 -0.06, 454 4.78, 455 10.63 M455 10.63 C456.4 15.61, 452.96 20.06, 455 31.88 M455 31.88 C456.31 39.21, 451.48 44.08, 444.38 42.5 M444.38 42.5 C330.02 44.09, 215.43 43.57, 10.63 42.5 M10.63 42.5 C1.69 41.96, 0.36 38.58, 0 31.88 M0 31.88 C-1.61 25.26, -1.26 15.32, 0 10.63 M0 10.63 C-0.08 4.1, 5.06 -1.05, 10.63 0" stroke="#1e1e1e" stroke-width="2.5" fill="none" stroke-dasharray="1.5 8"></path></g><g transform="translate(551.0079365079362 424.67052644945005) rotate(0 40 12.5)"><text x="0" y="17.52" font-family="Virgil, Segoe UI Emoji" font-size="20px" fill="#1e1e1e" text-anchor="start" style="white-space: pre;" direction="ltr" dominant-baseline="alphabetic">旧叶节点</text></g><g transform="translate(376.00793650793617 467.17052644945005) rotate(0 9.319992065429688 12.5)"><text x="0" y="17.52" font-family="Virgil, Segoe UI Emoji" font-size="20px" fill="#1e1e1e" text-anchor="start" style="white-space: pre;" direction="ltr" dominant-baseline="alphabetic">P1</text></g><g stroke-linecap="round"><g transform="translate(403.50793650793617 455.08720583177427) rotate(0 0 21.25)"><path d="M-0.49 0.15 C-0.48 7.18, -0.28 35.22, -0.19 42.31" stroke="#1e1e1e" stroke-width="2.5" fill="none" stroke-dasharray="1.5 8"></path></g></g><mask></mask><g transform="translate(421.00793650793617 464.67052644945005) rotate(0 16.759986877441406 12.5)"><text x="0" y="17.52" font-family="Virgil, Segoe UI Emoji" font-size="20px" fill="#1e1e1e" text-anchor="start" style="white-space: pre;" direction="ltr" dominant-baseline="alphabetic">id=1</text></g><g transform="translate(488.50793650793617 462.17052644945005) rotate(0 13.729988098144531 12.5)"><text x="0" y="17.52" font-family="Virgil, Segoe UI Emoji" font-size="20px" fill="#1e1e1e" text-anchor="start" style="white-space: pre;" direction="ltr" dominant-baseline="alphabetic">P2</text></g><g transform="translate(536.0079365079362 467.1704883024774) rotate(0 21.16998291015625 12.5)"><text x="0" y="17.52" font-family="Virgil, Segoe UI Emoji" font-size="20px" fill="#1e1e1e" text-anchor="start" style="white-space: pre;" direction="ltr" dominant-baseline="alphabetic">id=2</text></g><g transform="translate(611.0079365079362 467.1704883024774) rotate(0 13.419990539550781 12.5)"><text x="0" y="17.52" font-family="Virgil, Segoe UI Emoji" font-size="20px" fill="#1e1e1e" text-anchor="start" style="white-space: pre;" direction="ltr" dominant-baseline="alphabetic">P3</text></g><g transform="translate(673.5079365079362 467.1704883024774) rotate(0 20.8599853515625 12.5)"><text x="0" y="17.52" font-family="Virgil, Segoe UI Emoji" font-size="20px" fill="#1e1e1e" text-anchor="start" style="white-space: pre;" direction="ltr" dominant-baseline="alphabetic">id=3</text></g><g transform="translate(756.0079365079362 464.6704883024774) rotate(0 22.439979553222656 12.5)"><text x="0" y="17.52" font-family="Virgil, Segoe UI Emoji" font-size="20px" fill="#1e1e1e" text-anchor="start" style="white-space: pre;" direction="ltr" dominant-baseline="alphabetic">Pend</text></g><g stroke-linecap="round"><g transform="translate(476.00793650793617 455.08720583177427) rotate(0 0 21.25)"><path d="M-0.03 -0.38 C-0.17 6.76, -0.44 35.34, -0.35 42.48" stroke="#1e1e1e" stroke-width="2.5" fill="none" stroke-dasharray="1.5 8"></path></g></g><mask></mask><g stroke-linecap="round"><g transform="translate(526.0079365079362 455.08720583177427) rotate(0 0 21.25)"><path d="M0.45 -0.47 C0.44 6.64, 0.24 35.54, 0.24 42.8" stroke="#1e1e1e" stroke-width="2.5" fill="none" stroke-dasharray="1.5 8"></path></g></g><mask></mask><g stroke-linecap="round"><g transform="translate(593.5079365079362 455.08720583177427) rotate(0 0 21.25)"><path d="M0.46 -0.47 C0.47 6.66, 0.3 35.54, 0.18 42.7" stroke="#1e1e1e" stroke-width="2.5" fill="none" stroke-dasharray="1.5 8"></path></g></g><mask></mask><g stroke-linecap="round"><g transform="translate(658.5079365079362 455.08720583177427) rotate(0 0 21.25)"><path d="M0.44 0.06 C0.58 7.24, 0.44 35.67, 0.3 42.76" stroke="#1e1e1e" stroke-width="2.5" fill="none" stroke-dasharray="1.5 8"></path></g></g><mask></mask><g stroke-linecap="round"><g transform="translate(731.0079365079362 455.08720583177427) rotate(0 0 21.25)"><path d="M-0.35 0.43 C-0.25 7.44, 0.25 35.23, 0.4 42.32" stroke="#1e1e1e" stroke-width="2.5" fill="none" stroke-dasharray="1.5 8"></path></g></g><mask></mask><g stroke-linecap="round"><g transform="translate(820.1746031746027 479.97278794538283) rotate(0 53.75000000000004 0.7760930945584477)"><path d="M1.17 -0.8 C19.12 -0.63, 88.95 1.2, 106.57 1.39" stroke="#1e1e1e" stroke-width="2.5" fill="none" stroke-dasharray="1.5 8"></path></g><g transform="translate(820.1746031746027 479.97278794538283) rotate(0 53.75000000000004 0.7760930945584477)"><path d="M82.92 9.48 C86.39 6.05, 92.3 4.93, 106.57 1.39" stroke="#1e1e1e" stroke-width="2.5" fill="none" stroke-dasharray="1.5 6"></path></g><g transform="translate(820.1746031746027 479.97278794538283) rotate(0 53.75000000000004 0.7760930945584477)"><path d="M83.25 -7.61 C86.7 -7.55, 92.54 -5.17, 106.57 1.39" stroke="#1e1e1e" stroke-width="2.5" fill="none" stroke-dasharray="1.5 6"></path></g></g><mask></mask><g stroke-linecap="round" transform="translate(931.8412698412698 458.71179355103123) rotate(0 227.5 21.25)"><path d="M10.63 0 C109.23 1.13, 207.42 1.03, 444.38 0 M10.63 0 C145.39 -0.6, 280.52 -0.67, 444.38 0 M444.38 0 C449.76 -1.21, 454.04 3.91, 455 10.63 M444.38 0 C452.73 2.03, 452.75 4.26, 455 10.63 M455 10.63 C454.67 15.13, 454.68 21.48, 455 31.88 M455 10.63 C454.4 17.44, 455.96 26.58, 455 31.88 M455 31.88 C456.98 40.06, 453.33 43.97, 444.38 42.5 M455 31.88 C453.21 39.09, 451.22 40.57, 444.38 42.5 M444.38 42.5 C299.28 41.99, 151.92 41.17, 10.63 42.5 M444.38 42.5 C308.27 44.19, 172.39 43.84, 10.63 42.5 M10.63 42.5 C2.05 42.79, -0.61 38.74, 0 31.88 M10.63 42.5 C4.31 44.49, 2.1 39.17, 0 31.88 M0 31.88 C-0.99 25.26, 1.72 20.5, 0 10.63 M0 31.88 C-0.16 28.11, -1.01 23.07, 0 10.63 M0 10.63 C-0.37 3.62, 2.85 -0.21, 10.63 0 M0 10.63 C1.2 3.79, 4.26 1.5, 10.63 0" stroke="#1e1e1e" stroke-width="2" fill="none"></path></g><g transform="translate(1119.3412698412699 428.295114168707) rotate(0 30 12.5)"><text x="0" y="17.52" font-family="Virgil, Segoe UI Emoji" font-size="20px" fill="#1e1e1e" text-anchor="start" style="white-space: pre;" direction="ltr" dominant-baseline="alphabetic">叶节点</text></g><g transform="translate(944.3412698412698 470.795114168707) rotate(0 9.319992065429688 12.5)"><text x="0" y="17.52" font-family="Virgil, Segoe UI Emoji" font-size="20px" fill="#1e1e1e" text-anchor="start" style="white-space: pre;" direction="ltr" dominant-baseline="alphabetic">P1</text></g><g stroke-linecap="round"><g transform="translate(971.8412698412698 458.71179355103123) rotate(0 0 21.25)"><path d="M0.37 0.15 C0.3 7.22, 0.02 35.45, 0.03 42.5 M-0.1 -0.25 C-0.28 6.91, -0.46 35.99, -0.39 43.2" stroke="#1e1e1e" stroke-width="2" fill="none"></path></g></g><mask></mask><g transform="translate(989.3412698412698 468.295114168707) rotate(0 20.449981689453125 12.5)"><text x="0" y="17.52" font-family="Virgil, Segoe UI Emoji" font-size="20px" fill="#1e1e1e" text-anchor="start" style="white-space: pre;" direction="ltr" dominant-baseline="alphabetic">id=4</text></g><g transform="translate(1056.8412698412699 465.795114168707) rotate(0 13.729988098144531 12.5)"><text x="0" y="17.52" font-family="Virgil, Segoe UI Emoji" font-size="20px" fill="#1e1e1e" text-anchor="start" style="white-space: pre;" direction="ltr" dominant-baseline="alphabetic">P2</text></g><g transform="translate(1104.3412698412699 470.79507602173436) rotate(0 20.22998046875 12.5)"><text x="0" y="17.52" font-family="Virgil, Segoe UI Emoji" font-size="20px" fill="#1e1e1e" text-anchor="start" style="white-space: pre;" direction="ltr" dominant-baseline="alphabetic">id=5</text></g><g transform="translate(1179.3412698412699 470.79507602173436) rotate(0 13.419990539550781 12.5)"><text x="0" y="17.52" font-family="Virgil, Segoe UI Emoji" font-size="20px" fill="#1e1e1e" text-anchor="start" style="white-space: pre;" direction="ltr" dominant-baseline="alphabetic">P3</text></g><g transform="translate(1241.8412698412699 470.79507602173436) rotate(0 15.6099853515625 12.5)"><text x="0" y="17.52" font-family="Virgil, Segoe UI Emoji" font-size="20px" fill="#1e1e1e" text-anchor="start" style="white-space: pre;" direction="ltr" dominant-baseline="alphabetic">null</text></g><g transform="translate(1324.3412698412699 468.29507602173436) rotate(0 22.439979553222656 12.5)"><text x="0" y="17.52" font-family="Virgil, Segoe UI Emoji" font-size="20px" fill="#1e1e1e" text-anchor="start" style="white-space: pre;" direction="ltr" dominant-baseline="alphabetic">Pend</text></g><g stroke-linecap="round"><g transform="translate(1044.3412698412699 458.71179355103123) rotate(0 0 21.25)"><path d="M-0.13 0.28 C-0.08 7.31, -0.18 35.36, -0.22 42.38 M0.8 -0.05 C0.81 7.05, -0.75 35.85, -0.76 43.02" stroke="#1e1e1e" stroke-width="2" fill="none"></path></g></g><mask></mask><g stroke-linecap="round"><g transform="translate(1098.3412698412699 458.71179355103123) rotate(0 0 21.25)"><path d="M-0.22 -0.12 C-0.26 6.9, -0.37 35.23, -0.37 42.38 M0.67 -0.66 C0.81 6.42, 0.9 35.93, 0.67 43.02" stroke="#1e1e1e" stroke-width="2" fill="none"></path></g></g><mask></mask><g stroke-linecap="round"><g transform="translate(1161.8412698412699 458.71179355103123) rotate(0 0 21.25)"><path d="M-0.37 -0.12 C-0.38 7.04, -0.38 35.75, -0.24 42.82 M0.43 -0.65 C0.36 6.36, -0.78 34.77, -0.8 42.02" stroke="#1e1e1e" stroke-width="2" fill="none"></path></g></g><mask></mask><g stroke-linecap="round"><g transform="translate(1226.8412698412699 458.71179355103123) rotate(0 0 21.25)"><path d="M-0.24 0.32 C-0.11 7.4, 0.47 35.38, 0.44 42.34 M0.64 0.01 C0.77 7.18, 0.22 35.88, 0.23 42.95" stroke="#1e1e1e" stroke-width="2" fill="none"></path></g></g><mask></mask><g stroke-linecap="round"><g transform="translate(1299.3412698412699 458.71179355103123) rotate(0 0 21.25)"><path d="M0.44 -0.16 C0.41 6.79, -0.42 34.88, -0.42 42.06 M0 -0.72 C0.16 6.26, 0.54 35.41, 0.6 42.53" stroke="#1e1e1e" stroke-width="2" fill="none"></path></g></g><mask></mask><g stroke-linecap="round" transform="translate(1488.5079365079362 460.5175783033281) rotate(0 227.5 21.25)"><path d="M10.63 0 C135.07 1.21, 260.58 0.74, 444.38 0 M10.63 0 C168.32 0.72, 325.72 0.12, 444.38 0 M444.38 0 C453.08 -1.08, 456.15 4.32, 455 10.63 M444.38 0 C453.54 1.28, 455.23 5.33, 455 10.63 M455 10.63 C456.67 19.37, 455.43 24.61, 455 31.88 M455 10.63 C455.21 19.01, 454.19 25.36, 455 31.88 M455 31.88 C456.66 40.78, 450.49 43.18, 444.38 42.5 M455 31.88 C453.25 38.66, 452.17 41.84, 444.38 42.5 M444.38 42.5 C292.33 41.84, 139.66 42.69, 10.63 42.5 M444.38 42.5 C292.8 43.1, 141.83 42.76, 10.63 42.5 M10.63 42.5 C2.45 43.84, -1.54 37.8, 0 31.88 M10.63 42.5 C2.25 44.06, 2.2 40.08, 0 31.88 M0 31.88 C-1.56 25.66, -1.39 20.88, 0 10.63 M0 31.88 C0.45 25.07, 0.69 18.94, 0 10.63 M0 10.63 C-0.08 1.71, 3.66 -1.86, 10.63 0 M0 10.63 C-2.1 4.29, 1.37 -1.9, 10.63 0" stroke="#1e1e1e" stroke-width="2" fill="none"></path></g><g transform="translate(1501.0079365079362 472.6008989210039) rotate(0 9.319992065429688 12.5)"><text x="0" y="17.52" font-family="Virgil, Segoe UI Emoji" font-size="20px" fill="#1e1e1e" text-anchor="start" style="white-space: pre;" direction="ltr" dominant-baseline="alphabetic">P1</text></g><g stroke-linecap="round"><g transform="translate(1528.5079365079362 460.5175783033281) rotate(0 0 21.25)"><path d="M0.1 0.35 C0.07 7.47, 0.15 35.32, 0.16 42.4 M-0.51 0.05 C-0.63 7.29, -0.26 36.07, -0.19 43.05" stroke="#1e1e1e" stroke-width="2" fill="none"></path></g></g><mask></mask><g transform="translate(1546.0079365079362 470.1008989210039) rotate(0 20.449981689453125 12.5)"><text x="0" y="17.52" font-family="Virgil, Segoe UI Emoji" font-size="20px" fill="#1e1e1e" text-anchor="start" style="white-space: pre;" direction="ltr" dominant-baseline="alphabetic">id=6</text></g><g transform="translate(1613.5079365079362 467.6008989210039) rotate(0 13.729988098144531 12.5)"><text x="0" y="17.52" font-family="Virgil, Segoe UI Emoji" font-size="20px" fill="#1e1e1e" text-anchor="start" style="white-space: pre;" direction="ltr" dominant-baseline="alphabetic">P2</text></g><g transform="translate(1661.0079365079362 472.6008607740312) rotate(0 19.42998504638672 12.5)"><text x="0" y="17.52" font-family="Virgil, Segoe UI Emoji" font-size="20px" fill="#1e1e1e" text-anchor="start" style="white-space: pre;" direction="ltr" dominant-baseline="alphabetic">id=7</text></g><g transform="translate(1736.0079365079362 472.6008607740312) rotate(0 13.419990539550781 12.5)"><text x="0" y="17.52" font-family="Virgil, Segoe UI Emoji" font-size="20px" fill="#1e1e1e" text-anchor="start" style="white-space: pre;" direction="ltr" dominant-baseline="alphabetic">P3</text></g><g transform="translate(1798.507936507936 472.6008607740312) rotate(0 21.699981689453182 12.5)"><text x="0" y="17.52" font-family="Virgil, Segoe UI Emoji" font-size="20px" fill="#1e1e1e" text-anchor="start" style="white-space: pre;" direction="ltr" dominant-baseline="alphabetic">id=8</text></g><g transform="translate(1881.0079365079362 470.1008607740312) rotate(0 22.439979553222656 12.5)"><text x="0" y="17.52" font-family="Virgil, Segoe UI Emoji" font-size="20px" fill="#1e1e1e" text-anchor="start" style="white-space: pre;" direction="ltr" dominant-baseline="alphabetic">Pend</text></g><g stroke-linecap="round"><g transform="translate(1601.0079365079362 460.5175783033281) rotate(0 0 21.25)"><path d="M0.05 0.43 C-0.01 7.49, 0.12 35.59, 0.13 42.67 M-0.58 0.17 C-0.75 7.04, -0.31 34.81, -0.23 41.8" stroke="#1e1e1e" stroke-width="2" fill="none"></path></g></g><mask></mask><g stroke-linecap="round"><g transform="translate(1651.0079365079362 460.5175783033281) rotate(0 0 21.25)"><path d="M0.13 0.17 C0.14 7.26, 0.07 35.87, 0.13 42.94 M-0.47 -0.21 C-0.52 6.69, -0.38 34.96, -0.23 42.2" stroke="#1e1e1e" stroke-width="2" fill="none"></path></g></g><mask></mask><g stroke-linecap="round"><g transform="translate(1718.5079365079362 460.5175783033281) rotate(0 0 21.25)"><path d="M0.13 0.44 C0.2 7.51, 0.53 35.53, 0.51 42.6 M-0.46 0.19 C-0.44 7.07, 0.31 34.72, 0.35 41.69" stroke="#1e1e1e" stroke-width="2" fill="none"></path></g></g><mask></mask><g stroke-linecap="round"><g transform="translate(1783.507936507936 460.5175783033281) rotate(0 0 21.25)"><path d="M0.51 0.1 C0.5 7.17, 0.19 35.74, 0.06 42.86 M0.12 -0.32 C0.03 6.56, -0.2 35.04, -0.34 42.09" stroke="#1e1e1e" stroke-width="2" fill="none"></path></g></g><mask></mask><g stroke-linecap="round"><g transform="translate(1856.0079365079362 460.5175783033281) rotate(0 0 21.25)"><path d="M0.06 0.36 C-0.06 7.49, -0.24 35.77, -0.22 42.85 M-0.57 0.08 C-0.83 7.04, -0.85 35.08, -0.77 42.06" stroke="#1e1e1e" stroke-width="2" fill="none"></path></g></g><mask></mask><g stroke-linecap="round" transform="translate(2035.1746031746027 460.5175783033281) rotate(0 227.5 21.25)"><path d="M10.63 0 C143.36 -1.59, 275.76 -1.63, 444.38 0 M10.63 0 C172.51 -1.06, 333.44 -1.32, 444.38 0 M444.38 0 C452.13 -1.51, 453.99 4.68, 455 10.63 M444.38 0 C453.44 -1.98, 453.11 3.22, 455 10.63 M455 10.63 C455.33 19.13, 454.04 24.49, 455 31.88 M455 10.63 C455.76 17.65, 454.48 27.3, 455 31.88 M455 31.88 C454.65 38.34, 452.2 41.78, 444.38 42.5 M455 31.88 C456.44 41.09, 451.98 44, 444.38 42.5 M444.38 42.5 C353.99 41.63, 265.88 41.07, 10.63 42.5 M444.38 42.5 C339.62 42.64, 235.14 42.68, 10.63 42.5 M10.63 42.5 C3.76 41.43, 0.81 39.63, 0 31.88 M10.63 42.5 C3.45 41.61, -0.59 37.04, 0 31.88 M0 31.88 C0.29 23.39, 0.38 17.89, 0 10.63 M0 31.88 C0.79 26.74, 0.88 20.51, 0 10.63 M0 10.63 C0.08 4.84, 1.64 0.94, 10.63 0 M0 10.63 C-0.63 5.73, 5.41 -1.68, 10.63 0" stroke="#1e1e1e" stroke-width="2" fill="none"></path></g><g transform="translate(2047.6746031746027 472.6008989210039) rotate(0 9.319992065429688 12.5)"><text x="0" y="17.52" font-family="Virgil, Segoe UI Emoji" font-size="20px" fill="#1e1e1e" text-anchor="start" style="white-space: pre;" direction="ltr" dominant-baseline="alphabetic">P1</text></g><g stroke-linecap="round"><g transform="translate(2075.1746031746025 460.5175783033281) rotate(0 0 21.25)"><path d="M-0.35 0.4 C-0.28 7.56, -0.06 35.75, 0.07 42.77 M0.48 0.13 C0.5 7.15, -0.3 34.77, -0.33 41.94" stroke="#1e1e1e" stroke-width="2" fill="none"></path></g></g><mask></mask><g transform="translate(2092.6746031746025 470.1008989210039) rotate(0 20.139984130859375 12.5)"><text x="0" y="17.52" font-family="Virgil, Segoe UI Emoji" font-size="20px" fill="#1e1e1e" text-anchor="start" style="white-space: pre;" direction="ltr" dominant-baseline="alphabetic">id=9</text></g><g transform="translate(2160.1746031746025 467.6008989210039) rotate(0 13.729988098144531 12.5)"><text x="0" y="17.52" font-family="Virgil, Segoe UI Emoji" font-size="20px" fill="#1e1e1e" text-anchor="start" style="white-space: pre;" direction="ltr" dominant-baseline="alphabetic">P2</text></g><g transform="translate(2207.6746031746025 472.6008607740312) rotate(0 23.639984130859375 12.5)"><text x="0" y="17.52" font-family="Virgil, Segoe UI Emoji" font-size="20px" fill="#1e1e1e" text-anchor="start" style="white-space: pre;" direction="ltr" dominant-baseline="alphabetic">id=10</text></g><g transform="translate(2282.6746031746025 472.6008607740312) rotate(0 13.419990539550781 12.5)"><text x="0" y="17.52" font-family="Virgil, Segoe UI Emoji" font-size="20px" fill="#1e1e1e" text-anchor="start" style="white-space: pre;" direction="ltr" dominant-baseline="alphabetic">P3</text></g><g transform="translate(2345.1746031746025 472.6008607740312) rotate(0 15.6099853515625 12.5)"><text x="0" y="17.52" font-family="Virgil, Segoe UI Emoji" font-size="20px" fill="#1e1e1e" text-anchor="start" style="white-space: pre;" direction="ltr" dominant-baseline="alphabetic">null</text></g><g transform="translate(2427.6746031746025 470.1008607740312) rotate(0 22.439979553222656 12.5)"><text x="0" y="17.52" font-family="Virgil, Segoe UI Emoji" font-size="20px" fill="#1e1e1e" text-anchor="start" style="white-space: pre;" direction="ltr" dominant-baseline="alphabetic">Pend</text></g><g stroke-linecap="round"><g transform="translate(2147.6746031746025 460.5175783033281) rotate(0 0 21.25)"><path d="M-0.45 -0.08 C-0.52 7.08, -0.03 35.38, 0.07 42.49 M0.32 -0.59 C0.14 6.7, -0.25 35.88, -0.33 43.19" stroke="#1e1e1e" stroke-width="2" fill="none"></path></g></g><mask></mask><g stroke-linecap="round"><g transform="translate(2197.6746031746025 460.5175783033281) rotate(0 0 21.25)"><path d="M0.07 -0.01 C0.16 7.1, 0.06 35.55, 0.14 42.59 M-0.56 -0.49 C-0.49 6.45, -0.39 34.47, -0.22 41.67" stroke="#1e1e1e" stroke-width="2" fill="none"></path></g></g><mask></mask><g stroke-linecap="round"><g transform="translate(2265.1746031746025 460.5175783033281) rotate(0 0 21.25)"><path d="M0.14 0.09 C0.21 7.13, 0.51 35.1, 0.51 42.24 M-0.46 -0.34 C-0.41 6.77, 0.29 35.74, 0.35 42.8" stroke="#1e1e1e" stroke-width="2" fill="none"></path></g></g><mask></mask><g stroke-linecap="round"><g transform="translate(2333.507936507936 460.5175783033281) rotate(0 0 21.25)"><path d="M0.51 -0.26 C0.52 6.87, 0.33 35.67, 0.16 42.89 M0.11 0.79 C0.05 7.76, -0.27 35.21, -0.18 42.12" stroke="#1e1e1e" stroke-width="2" fill="none"></path></g></g><mask></mask><g stroke-linecap="round"><g transform="translate(2402.6746031746025 460.5175783033281) rotate(0 0 21.25)"><path d="M0.16 0.39 C0 7.6, -0.52 36.08, -0.46 43.02 M-0.41 0.11 C-0.46 7.21, 0.39 35.28, 0.53 42.32" stroke="#1e1e1e" stroke-width="2" fill="none"></path></g></g><mask></mask><g stroke-linecap="round" transform="translate(2581.8412698412694 460.45626465145335) rotate(0 227.5 21.25)"><path d="M10.63 0 C141.74 0.54, 271.52 -0.64, 444.38 0 M10.63 0 C174.95 0.21, 339.37 0.42, 444.38 0 M444.38 0 C451.03 -1.72, 455.35 3.89, 455 10.63 M444.38 0 C452.74 -1.15, 455.99 5.71, 455 10.63 M455 10.63 C455.14 16.92, 453.71 21.41, 455 31.88 M455 10.63 C455.5 17.94, 455.4 23.98, 455 31.88 M455 31.88 C456.45 39.38, 451.69 42.74, 444.38 42.5 M455 31.88 C456.72 37.16, 453.52 41.71, 444.38 42.5 M444.38 42.5 C283.58 43.83, 121.25 43.37, 10.63 42.5 M444.38 42.5 C296.15 40.8, 148.26 40.81, 10.63 42.5 M10.63 42.5 C3.54 43.38, -1.66 37.53, 0 31.88 M10.63 42.5 C2.41 43.83, 1.15 37.47, 0 31.88 M0 31.88 C-2.08 23.12, 1.33 17.56, 0 10.63 M0 31.88 C-1.03 27.16, 0.07 21.44, 0 10.63 M0 10.63 C-1.12 5.53, 4.83 -0.59, 10.63 0 M0 10.63 C0.98 5.08, 3.37 0.84, 10.63 0" stroke="#1e1e1e" stroke-width="2" fill="none"></path></g><g transform="translate(2594.3412698412694 472.53958526912913) rotate(0 9.319992065429688 12.5)"><text x="0" y="17.52" font-family="Virgil, Segoe UI Emoji" font-size="20px" fill="#1e1e1e" text-anchor="start" style="white-space: pre;" direction="ltr" dominant-baseline="alphabetic">P1</text></g><g stroke-linecap="round"><g transform="translate(2621.8412698412694 460.45626465145335) rotate(0 0 21.25)"><path d="M-0.37 0.43 C-0.48 7.47, -0.46 35.43, -0.38 42.42 M0.45 0.18 C0.49 7.28, 0.77 35.96, 0.66 43.08" stroke="#1e1e1e" stroke-width="2" fill="none"></path></g></g><mask></mask><g transform="translate(2639.3412698412694 470.03958526912913) rotate(0 19.469985961914062 12.5)"><text x="0" y="17.52" font-family="Virgil, Segoe UI Emoji" font-size="20px" fill="#1e1e1e" text-anchor="start" style="white-space: pre;" direction="ltr" dominant-baseline="alphabetic">id=11</text></g><g transform="translate(2706.8412698412694 467.53958526912913) rotate(0 13.729988098144531 12.5)"><text x="0" y="17.52" font-family="Virgil, Segoe UI Emoji" font-size="20px" fill="#1e1e1e" text-anchor="start" style="white-space: pre;" direction="ltr" dominant-baseline="alphabetic">P2</text></g><g transform="translate(2754.3412698412694 472.5395471221565) rotate(0 23.879981994628906 12.5)"><text x="0" y="17.52" font-family="Virgil, Segoe UI Emoji" font-size="20px" fill="#1e1e1e" text-anchor="start" style="white-space: pre;" direction="ltr" dominant-baseline="alphabetic">id=12</text></g><g transform="translate(2829.3412698412694 472.5395471221565) rotate(0 13.419990539550781 12.5)"><text x="0" y="17.52" font-family="Virgil, Segoe UI Emoji" font-size="20px" fill="#1e1e1e" text-anchor="start" style="white-space: pre;" direction="ltr" dominant-baseline="alphabetic">P3</text></g><g transform="translate(2891.8412698412694 472.5395471221565) rotate(0 15.6099853515625 12.5)"><text x="0" y="17.52" font-family="Virgil, Segoe UI Emoji" font-size="20px" fill="#1e1e1e" text-anchor="start" style="white-space: pre;" direction="ltr" dominant-baseline="alphabetic">null</text></g><g transform="translate(2974.3412698412694 470.0395471221565) rotate(0 22.439979553222656 12.5)"><text x="0" y="17.52" font-family="Virgil, Segoe UI Emoji" font-size="20px" fill="#1e1e1e" text-anchor="start" style="white-space: pre;" direction="ltr" dominant-baseline="alphabetic">Pend</text></g><g stroke-linecap="round"><g transform="translate(2694.3412698412694 460.45626465145335) rotate(0 0 21.25)"><path d="M0.24 0.52 C0.17 7.56, 0.02 34.97, -0.08 41.98 M-0.31 0.31 C-0.47 7.43, -0.74 35.26, -0.55 42.42" stroke="#1e1e1e" stroke-width="2" fill="none"></path></g></g><mask></mask><g stroke-linecap="round"><g transform="translate(2744.3412698412694 460.45626465145335) rotate(0 0 21.25)"><path d="M-0.08 -0.52 C-0.17 6.49, -0.34 35.47, -0.32 42.59 M-0.78 0.41 C-0.72 7.47, 0.66 34.64, 0.75 41.68" stroke="#1e1e1e" stroke-width="2" fill="none"></path></g></g><mask></mask><g stroke-linecap="round"><g transform="translate(2811.8412698412694 460.45626465145335) rotate(0 0 21.25)"><path d="M-0.32 0.09 C-0.3 7.21, 0.07 35.13, 0.06 42.2 M0.52 -0.33 C0.48 6.9, -0.38 35.51, -0.34 42.75" stroke="#1e1e1e" stroke-width="2" fill="none"></path></g></g><mask></mask><g stroke-linecap="round"><g transform="translate(2880.1746031746025 460.45626465145335) rotate(0 0 21.25)"><path d="M0.06 -0.3 C0.05 6.77, -0.43 35.38, -0.38 42.49 M-0.58 0.74 C-0.38 7.89, 0.52 36.15, 0.66 43.19" stroke="#1e1e1e" stroke-width="2" fill="none"></path></g></g><mask></mask><g stroke-linecap="round"><g transform="translate(2949.3412698412694 460.45626465145335) rotate(0 0 21.25)"><path d="M-0.38 -0.01 C-0.32 7.11, 0.31 35.22, 0.41 42.39 M0.43 -0.49 C0.45 6.74, 0.27 35.91, 0.19 43.03" stroke="#1e1e1e" stroke-width="2" fill="none"></path></g></g><mask></mask><g stroke-linecap="round"><g transform="translate(1389.3412698412694 478.4205264494499) rotate(0 46.66666666666663 -5.684341886080802e-14)"><path d="M0.15 -0.62 C15.83 -0.47, 77.71 0.47, 93.42 0.71 M-1.24 1.68 C14.36 1.5, 76.61 -0.58, 92.51 -1.05" stroke="#1e1e1e" stroke-width="2" fill="none"></path></g><g transform="translate(1389.3412698412694 478.4205264494499) rotate(0 46.66666666666663 -5.684341886080802e-14)"><path d="M69.3 8.23 C73.93 6.09, 81.77 5.43, 92.51 -1.05 M69.3 8.23 C78.73 5.64, 86.9 1.48, 92.51 -1.05" stroke="#1e1e1e" stroke-width="2" fill="none"></path></g><g transform="translate(1389.3412698412694 478.4205264494499) rotate(0 46.66666666666663 -5.684341886080802e-14)"><path d="M68.76 -8.86 C73.5 -6.85, 81.47 -3.35, 92.51 -1.05 M68.76 -8.86 C78.32 -5.18, 86.7 -3.06, 92.51 -1.05" stroke="#1e1e1e" stroke-width="2" fill="none"></path></g></g><mask></mask><g stroke-linecap="round"><g transform="translate(1949.3412698412696 481.75385978278314) rotate(0 40 0)"><path d="M0.97 -0.11 C14.35 0.06, 67.55 0.15, 80.59 0.01 M0.02 -1.22 C13.26 -0.75, 66.34 1.37, 79.95 1.55" stroke="#1e1e1e" stroke-width="2" fill="none"></path></g><g transform="translate(1949.3412698412696 481.75385978278314) rotate(0 40 0)"><path d="M56.22 9.43 C63.85 7.64, 71.8 2.73, 79.95 1.55 M56.22 9.43 C61.81 6.91, 66.37 6.42, 79.95 1.55" stroke="#1e1e1e" stroke-width="2" fill="none"></path></g><g transform="translate(1949.3412698412696 481.75385978278314) rotate(0 40 0)"><path d="M56.7 -7.66 C64.03 -3.87, 71.82 -3.19, 79.95 1.55 M56.7 -7.66 C62.23 -6.43, 66.69 -3.17, 79.95 1.55" stroke="#1e1e1e" stroke-width="2" fill="none"></path></g></g><mask></mask><g stroke-linecap="round"><g transform="translate(2496.0079365079364 481.75385978278314) rotate(0 38.33333333333326 0)"><path d="M-0.22 1.02 C12.62 1.22, 63.08 0.31, 75.88 0.04 M-1.8 0.5 C11.53 1.02, 65.26 1.61, 78.18 1.59" stroke="#1e1e1e" stroke-width="2" fill="none"></path></g><g transform="translate(2496.0079365079364 481.75385978278314) rotate(0 38.33333333333326 0)"><path d="M54.63 9.99 C61.21 7.02, 64.37 6.45, 78.18 1.59 M54.63 9.99 C60.16 7.39, 65.73 6.93, 78.18 1.59" stroke="#1e1e1e" stroke-width="2" fill="none"></path></g><g transform="translate(2496.0079365079364 481.75385978278314) rotate(0 38.33333333333326 0)"><path d="M54.74 -7.11 C61.13 -6.6, 64.27 -3.69, 78.18 1.59 M54.74 -7.11 C60.09 -5.43, 65.62 -1.61, 78.18 1.59" stroke="#1e1e1e" stroke-width="2" fill="none"></path></g></g><mask></mask><g transform="translate(1692.1984126984128 427.58719311611657) rotate(0 30 12.5)"><text x="0" y="17.52" font-family="Virgil, Segoe UI Emoji" font-size="20px" fill="#1e1e1e" text-anchor="start" style="white-space: pre;" direction="ltr" dominant-baseline="alphabetic">叶节点</text></g><g transform="translate(2243.626984126984 427.5871931161165) rotate(0 30 12.5)"><text x="0" y="17.52" font-family="Virgil, Segoe UI Emoji" font-size="20px" fill="#1e1e1e" text-anchor="start" style="white-space: pre;" direction="ltr" dominant-baseline="alphabetic">叶节点</text></g><g transform="translate(2786.484126984127 430.4443359732595) rotate(0 30 12.5)"><text x="0" y="17.52" font-family="Virgil, Segoe UI Emoji" font-size="20px" fill="#1e1e1e" text-anchor="start" style="white-space: pre;" direction="ltr" dominant-baseline="alphabetic">叶节点</text></g><g stroke-linecap="round" transform="translate(797.5555555555555 261.121615536815) rotate(0 227.5 21.25)"><path d="M10.63 0 C99.86 1.17, 191.11 -0.39, 444.38 0 M444.38 0 C449.79 0.72, 453.94 5.25, 455 10.63 M455 10.63 C453.3 19.43, 455.97 27.01, 455 31.88 M455 31.88 C455.15 38.26, 451.53 43.36, 444.38 42.5 M444.38 42.5 C312.27 41.26, 178.34 41.32, 10.63 42.5 M10.63 42.5 C2.23 41.35, 1.63 37.93, 0 31.88 M0 31.88 C0.27 22.44, -0.84 18.1, 0 10.63 M0 10.63 C0.61 3.69, 3.07 0.38, 10.63 0" stroke="#1e1e1e" stroke-width="2.5" fill="none" stroke-dasharray="1.5 8"></path></g><g transform="translate(810.0555555555555 273.2049361544908) rotate(0 9.319992065429688 12.5)"><text x="0" y="17.52" font-family="Virgil, Segoe UI Emoji" font-size="20px" fill="#1e1e1e" text-anchor="start" style="white-space: pre;" direction="ltr" dominant-baseline="alphabetic">P1</text></g><g stroke-linecap="round"><g transform="translate(837.5555555555555 261.121615536815) rotate(0 0 21.25)"><path d="M-0.4 -0.46 C-0.44 6.49, 0.05 35, 0.2 42.21" stroke="#1e1e1e" stroke-width="2.5" fill="none" stroke-dasharray="1.5 8"></path></g></g><mask></mask><g transform="translate(855.0555555555555 270.7049361544908) rotate(0 20.449981689453125 12.5)"><text x="0" y="17.52" font-family="Virgil, Segoe UI Emoji" font-size="20px" fill="#1e1e1e" text-anchor="start" style="white-space: pre;" direction="ltr" dominant-baseline="alphabetic">id=4</text></g><g transform="translate(922.5555555555555 268.2049361544908) rotate(0 13.729988098144531 12.5)"><text x="0" y="17.52" font-family="Virgil, Segoe UI Emoji" font-size="20px" fill="#1e1e1e" text-anchor="start" style="white-space: pre;" direction="ltr" dominant-baseline="alphabetic">P2</text></g><g transform="translate(970.0555555555555 273.2048980075181) rotate(0 20.449981689453125 12.5)"><text x="0" y="17.52" font-family="Virgil, Segoe UI Emoji" font-size="20px" fill="#1e1e1e" text-anchor="start" style="white-space: pre;" direction="ltr" dominant-baseline="alphabetic">id=6</text></g><g transform="translate(1045.0555555555557 273.2048980075181) rotate(0 13.419990539550781 12.5)"><text x="0" y="17.52" font-family="Virgil, Segoe UI Emoji" font-size="20px" fill="#1e1e1e" text-anchor="start" style="white-space: pre;" direction="ltr" dominant-baseline="alphabetic">P3</text></g><g transform="translate(1107.5555555555557 273.2048980075181) rotate(0 15.6099853515625 12.5)"><text x="0" y="17.52" font-family="Virgil, Segoe UI Emoji" font-size="20px" fill="#1e1e1e" text-anchor="start" style="white-space: pre;" direction="ltr" dominant-baseline="alphabetic">null</text></g><g transform="translate(1190.0555555555557 270.7048980075181) rotate(0 22.439979553222656 12.5)"><text x="0" y="17.52" font-family="Virgil, Segoe UI Emoji" font-size="20px" fill="#1e1e1e" text-anchor="start" style="white-space: pre;" direction="ltr" dominant-baseline="alphabetic">Pend</text></g><g stroke-linecap="round"><g transform="translate(910.0555555555555 261.121615536815) rotate(0 0 21.25)"><path d="M0.02 0.24 C0.02 7.31, 0.13 35.15, 0.03 42.26" stroke="#1e1e1e" stroke-width="2.5" fill="none" stroke-dasharray="1.5 8"></path></g></g><mask></mask><g stroke-linecap="round"><g transform="translate(960.0555555555555 261.121615536815) rotate(0 0 21.25)"><path d="M0.03 -0.24 C-0.06 6.88, -0.62 35.81, -0.54 42.91" stroke="#1e1e1e" stroke-width="2.5" fill="none" stroke-dasharray="1.5 8"></path></g></g><mask></mask><g stroke-linecap="round"><g transform="translate(1027.5555555555557 261.121615536815) rotate(0 0 21.25)"><path d="M-0.54 0.41 C-0.46 7.5, 0.33 35.38, 0.51 42.33" stroke="#1e1e1e" stroke-width="2.5" fill="none" stroke-dasharray="1.5 8"></path></g></g><mask></mask><g stroke-linecap="round"><g transform="translate(1092.5555555555557 261.121615536815) rotate(0 0 21.25)"><path d="M0.51 -0.17 C0.69 6.79, 0.68 34.95, 0.54 42.14" stroke="#1e1e1e" stroke-width="2.5" fill="none" stroke-dasharray="1.5 8"></path></g></g><mask></mask><g stroke-linecap="round"><g transform="translate(1165.0555555555557 261.121615536815) rotate(0 0 21.25)"><path d="M0.54 -0.36 C0.4 6.83, -0.18 35.76, -0.32 42.95" stroke="#1e1e1e" stroke-width="2.5" fill="none" stroke-dasharray="1.5 8"></path></g></g><mask></mask><g transform="translate(991.7222222222223 225.8014788304023) rotate(0 50 12.5)"><text x="0" y="17.52" font-family="Virgil, Segoe UI Emoji" font-size="20px" fill="#1e1e1e" text-anchor="start" style="white-space: pre;" direction="ltr" dominant-baseline="alphabetic">旧内部节点</text></g><g stroke-linecap="round" transform="translate(1880.8888888888885 251.98680337307917) rotate(0 227.5 21.25)"><path d="M10.63 0 C128.53 0.76, 245.88 0.9, 444.38 0 M10.63 0 C133.95 -0.56, 257 -0.71, 444.38 0 M444.38 0 C449.8 1.33, 456.32 1.96, 455 10.63 M444.38 0 C453.39 1.89, 455.44 2.3, 455 10.63 M455 10.63 C454.59 17, 454.14 21.59, 455 31.88 M455 10.63 C455.66 18.15, 455.35 25.24, 455 31.88 M455 31.88 C454.87 39.81, 450.04 43.04, 444.38 42.5 M455 31.88 C455.84 38.76, 450.95 43.87, 444.38 42.5 M444.38 42.5 C315.98 43.34, 185.35 42.96, 10.63 42.5 M444.38 42.5 C354.58 41.33, 265.83 41.35, 10.63 42.5 M10.63 42.5 C1.6 42.38, -1.13 38.33, 0 31.88 M10.63 42.5 C5.6 42.84, 1.64 39.57, 0 31.88 M0 31.88 C1.24 27.48, -0.21 19.39, 0 10.63 M0 31.88 C1.02 22.88, 0.29 14.74, 0 10.63 M0 10.63 C1.15 2.81, 2.36 -0.27, 10.63 0 M0 10.63 C-2.06 5.19, 4.06 -1.7, 10.63 0" stroke="#1e1e1e" stroke-width="2" fill="none"></path></g><g transform="translate(1893.3888888888885 264.07012399075495) rotate(0 9.319992065429688 12.5)"><text x="0" y="17.52" font-family="Virgil, Segoe UI Emoji" font-size="20px" fill="#1e1e1e" text-anchor="start" style="white-space: pre;" direction="ltr" dominant-baseline="alphabetic">P1</text></g><g stroke-linecap="round"><g transform="translate(1920.8888888888885 251.98680337307917) rotate(0 0 21.25)"><path d="M0.29 -0.09 C0.26 7.01, 0.03 35.53, 0.06 42.6 M-0.23 -0.61 C-0.34 6.32, -0.43 34.44, -0.35 41.68" stroke="#1e1e1e" stroke-width="2" fill="none"></path></g></g><mask></mask><g transform="translate(1938.3888888888885 261.57012399075495) rotate(0 19.469985961914062 12.5)"><text x="0" y="17.52" font-family="Virgil, Segoe UI Emoji" font-size="20px" fill="#1e1e1e" text-anchor="start" style="white-space: pre;" direction="ltr" dominant-baseline="alphabetic">id=11</text></g><g transform="translate(2005.8888888888885 259.07012399075495) rotate(0 13.729988098144531 12.5)"><text x="0" y="17.52" font-family="Virgil, Segoe UI Emoji" font-size="20px" fill="#1e1e1e" text-anchor="start" style="white-space: pre;" direction="ltr" dominant-baseline="alphabetic">P2</text></g><g transform="translate(2053.3888888888887 264.0700858437823) rotate(0 15.6099853515625 12.5)"><text x="0" y="17.52" font-family="Virgil, Segoe UI Emoji" font-size="20px" fill="#1e1e1e" text-anchor="start" style="white-space: pre;" direction="ltr" dominant-baseline="alphabetic">null</text></g><g transform="translate(2128.3888888888887 264.0700858437823) rotate(0 13.419990539550781 12.5)"><text x="0" y="17.52" font-family="Virgil, Segoe UI Emoji" font-size="20px" fill="#1e1e1e" text-anchor="start" style="white-space: pre;" direction="ltr" dominant-baseline="alphabetic">P3</text></g><g transform="translate(2190.8888888888887 264.0700858437823) rotate(0 15.6099853515625 12.5)"><text x="0" y="17.52" font-family="Virgil, Segoe UI Emoji" font-size="20px" fill="#1e1e1e" text-anchor="start" style="white-space: pre;" direction="ltr" dominant-baseline="alphabetic">null</text></g><g transform="translate(2273.3888888888887 261.5700858437823) rotate(0 22.439979553222656 12.5)"><text x="0" y="17.52" font-family="Virgil, Segoe UI Emoji" font-size="20px" fill="#1e1e1e" text-anchor="start" style="white-space: pre;" direction="ltr" dominant-baseline="alphabetic">Pend</text></g><g stroke-linecap="round"><g transform="translate(1993.3888888888885 251.98680337307917) rotate(0 0 21.25)"><path d="M0.11 -0.3 C-0.03 6.63, -0.36 34.91, -0.36 42.03 M-0.5 0.74 C-0.51 7.68, 0.64 35.44, 0.69 42.48" stroke="#1e1e1e" stroke-width="2" fill="none"></path></g></g><mask></mask><g stroke-linecap="round"><g transform="translate(2043.3888888888885 251.98680337307917) rotate(0 0 21.25)"><path d="M-0.36 -0.47 C-0.37 6.65, -0.05 35.31, 0.07 42.44 M0.45 0.47 C0.37 7.71, -0.28 36.05, -0.32 43.11" stroke="#1e1e1e" stroke-width="2" fill="none"></path></g></g><mask></mask><g stroke-linecap="round"><g transform="translate(2110.8888888888887 251.98680337307917) rotate(0 0 21.25)"><path d="M0.07 -0.06 C0.2 7.07, 0.35 35.19, 0.39 42.31 M-0.55 -0.57 C-0.43 6.68, 0.05 35.87, 0.15 42.92" stroke="#1e1e1e" stroke-width="2" fill="none"></path></g></g><mask></mask><g stroke-linecap="round"><g transform="translate(2175.8888888888887 251.98680337307917) rotate(0 0 21.25)"><path d="M0.39 -0.19 C0.42 6.93, 0.4 35.6, 0.28 42.66 M-0.08 -0.76 C-0.1 6.2, 0.12 34.55, -0.01 41.78" stroke="#1e1e1e" stroke-width="2" fill="none"></path></g></g><mask></mask><g stroke-linecap="round"><g transform="translate(2248.3888888888887 251.98680337307917) rotate(0 0 21.25)"><path d="M0.28 0.16 C0.16 7.23, -0.34 35.09, -0.32 42.2 M-0.24 -0.23 C-0.21 6.92, 0.66 35.72, 0.75 42.74" stroke="#1e1e1e" stroke-width="2" fill="none"></path></g></g><mask></mask><g transform="translate(2075.055555555555 216.66666666666646) rotate(0 40 12.5)"><text x="0" y="17.52" font-family="Virgil, Segoe UI Emoji" font-size="20px" fill="#1e1e1e" text-anchor="start" style="white-space: pre;" direction="ltr" dominant-baseline="alphabetic">内部节点</text></g><g stroke-linecap="round" transform="translate(1330.8888888888887 45.32013670641271) rotate(0 227.5 21.25)"><path d="M10.63 0 C157.68 -0.75, 307.27 -1.86, 444.38 0 M10.63 0 C127.6 -1.37, 245.37 -2.22, 444.38 0 M444.38 0 C451.71 0.4, 455.92 2.38, 455 10.63 M444.38 0 C450.46 1.97, 454.55 2.13, 455 10.63 M455 10.63 C456.33 15.76, 455.59 18.2, 455 31.88 M455 10.63 C455.31 17.94, 454.21 26.51, 455 31.88 M455 31.88 C456.2 39.74, 452.83 40.85, 444.38 42.5 M455 31.88 C452.78 37.57, 449.79 42.65, 444.38 42.5 M444.38 42.5 C304 40.78, 162.68 41.17, 10.63 42.5 M444.38 42.5 C298.12 44.05, 150.99 43.36, 10.63 42.5 M10.63 42.5 C2.19 41.93, -1.33 38.97, 0 31.88 M10.63 42.5 C3.03 44.19, 0.23 37.83, 0 31.88 M0 31.88 C0.38 25.71, -0.91 14.72, 0 10.63 M0 31.88 C0.75 26.53, 0.73 19.09, 0 10.63 M0 10.63 C-0.18 4.65, 4.21 0.26, 10.63 0 M0 10.63 C0.48 3, 2.1 0.2, 10.63 0" stroke="#1e1e1e" stroke-width="2" fill="none"></path></g><g transform="translate(1343.3888888888887 57.40345732408849) rotate(0 9.319992065429688 12.5)"><text x="0" y="17.52" font-family="Virgil, Segoe UI Emoji" font-size="20px" fill="#1e1e1e" text-anchor="start" style="white-space: pre;" direction="ltr" dominant-baseline="alphabetic">P1</text></g><g stroke-linecap="round"><g transform="translate(1370.8888888888887 45.32013670641271) rotate(0 0 21.25)"><path d="M-0.52 -0.16 C-0.47 6.9, 0.31 35.76, 0.35 42.94 M0.22 -0.72 C0.22 6.42, 0.26 35.06, 0.1 42.19" stroke="#1e1e1e" stroke-width="2" fill="none"></path></g></g><mask></mask><g transform="translate(1388.3888888888887 54.90345732408849) rotate(0 20.139984130859375 12.5)"><text x="0" y="17.52" font-family="Virgil, Segoe UI Emoji" font-size="20px" fill="#1e1e1e" text-anchor="start" style="white-space: pre;" direction="ltr" dominant-baseline="alphabetic">id=9</text></g><g transform="translate(1455.8888888888887 52.40345732408849) rotate(0 13.729988098144531 12.5)"><text x="0" y="17.52" font-family="Virgil, Segoe UI Emoji" font-size="20px" fill="#1e1e1e" text-anchor="start" style="white-space: pre;" direction="ltr" dominant-baseline="alphabetic">P2</text></g><g transform="translate(1503.3888888888887 57.403419177115836) rotate(0 15.6099853515625 12.5)"><text x="0" y="17.52" font-family="Virgil, Segoe UI Emoji" font-size="20px" fill="#1e1e1e" text-anchor="start" style="white-space: pre;" direction="ltr" dominant-baseline="alphabetic">null</text></g><g transform="translate(1578.3888888888887 57.403419177115836) rotate(0 13.419990539550781 12.5)"><text x="0" y="17.52" font-family="Virgil, Segoe UI Emoji" font-size="20px" fill="#1e1e1e" text-anchor="start" style="white-space: pre;" direction="ltr" dominant-baseline="alphabetic">P3</text></g><g transform="translate(1640.8888888888887 57.403419177115836) rotate(0 15.6099853515625 12.5)"><text x="0" y="17.52" font-family="Virgil, Segoe UI Emoji" font-size="20px" fill="#1e1e1e" text-anchor="start" style="white-space: pre;" direction="ltr" dominant-baseline="alphabetic">null</text></g><g transform="translate(1723.3888888888887 54.903419177115836) rotate(0 22.439979553222656 12.5)"><text x="0" y="17.52" font-family="Virgil, Segoe UI Emoji" font-size="20px" fill="#1e1e1e" text-anchor="start" style="white-space: pre;" direction="ltr" dominant-baseline="alphabetic">Pend</text></g><g stroke-linecap="round"><g transform="translate(1443.3888888888887 45.32013670641271) rotate(0 0 21.25)"><path d="M-0.11 -0.34 C-0.15 6.72, -0.51 35.62, -0.51 42.81 M-0.83 0.68 C-0.69 7.82, 0.4 35.13, 0.47 42.01" stroke="#1e1e1e" stroke-width="2" fill="none"></path></g></g><mask></mask><g stroke-linecap="round"><g transform="translate(1493.3888888888887 45.32013670641271) rotate(0 0 21.25)"><path d="M-0.51 0.31 C-0.5 7.51, -0.18 35.78, -0.06 42.83 M0.23 0 C0.17 7.07, -0.48 34.82, -0.53 42.04" stroke="#1e1e1e" stroke-width="2" fill="none"></path></g></g><mask></mask><g stroke-linecap="round"><g transform="translate(1560.8888888888887 45.32013670641271) rotate(0 0 21.25)"><path d="M-0.06 0.33 C0.05 7.38, 0.24 35.53, 0.2 42.63 M-0.76 0.03 C-0.66 6.88, -0.39 34.73, -0.13 41.73" stroke="#1e1e1e" stroke-width="2" fill="none"></path></g></g><mask></mask><g stroke-linecap="round"><g transform="translate(1625.8888888888887 45.32013670641271) rotate(0 0 21.25)"><path d="M0.2 0.13 C0.15 7.22, -0.27 35.86, -0.35 42.9 M-0.37 -0.28 C-0.23 6.63, 0.77 34.94, 0.71 42.13" stroke="#1e1e1e" stroke-width="2" fill="none"></path></g></g><mask></mask><g stroke-linecap="round"><g transform="translate(1698.3888888888887 45.32013670641271) rotate(0 0 21.25)"><path d="M-0.35 0.4 C-0.42 7.43, -0.34 35.4, -0.24 42.36 M0.48 0.12 C0.29 7.23, -0.72 35.91, -0.8 42.99" stroke="#1e1e1e" stroke-width="2" fill="none"></path></g></g><mask></mask><g transform="translate(1525.0555555555554 10) rotate(0 30 12.5)"><text x="0" y="17.52" font-family="Virgil, Segoe UI Emoji" font-size="20px" fill="#1e1e1e" text-anchor="start" style="white-space: pre;" direction="ltr" dominant-baseline="alphabetic">根节点</text></g><g stroke-linecap="round"><g transform="translate(1351.7222222222217 92.4681454970688) rotate(0 -48.33333333333326 83.33333333333334)"><path d="M-0.38 0.57 C-16.44 28.18, -79.87 139.33, -96.04 166.85" stroke="#1e1e1e" stroke-width="2.5" fill="none" stroke-dasharray="1.5 8"></path></g><g transform="translate(1351.7222222222217 92.4681454970688) rotate(0 -48.33333333333326 83.33333333333334)"><path d="M-91.69 142.23 C-91.93 151.32, -93.99 157.15, -96.04 166.85" stroke="#1e1e1e" stroke-width="2.5" fill="none" stroke-dasharray="1.5 6"></path></g><g transform="translate(1351.7222222222217 92.4681454970688) rotate(0 -48.33333333333326 83.33333333333334)"><path d="M-76.88 150.79 C-82.05 157.03, -88.97 160.06, -96.04 166.85" stroke="#1e1e1e" stroke-width="2.5" fill="none" stroke-dasharray="1.5 6"></path></g></g><mask></mask><g stroke-linecap="round"><g transform="translate(1475.0555555555547 92.4681454970688) rotate(0 203.33333333333331 79.99999999999997)"><path d="M-1.17 1.05 C66.69 27.79, 339.31 133.56, 407.2 160.17 M0.42 0.56 C68.16 27.54, 339.08 135.43, 406.54 161.8" stroke="#1e1e1e" stroke-width="2" fill="none"></path></g><g transform="translate(1475.0555555555547 92.4681454970688) rotate(0 203.33333333333331 79.99999999999997)"><path d="M381.55 161.12 C390.98 162.47, 397.18 161.01, 406.54 161.8 M381.55 161.12 C389.96 161.85, 400.42 162.15, 406.54 161.8" stroke="#1e1e1e" stroke-width="2" fill="none"></path></g><g transform="translate(1475.0555555555547 92.4681454970688) rotate(0 203.33333333333331 79.99999999999997)"><path d="M387.83 145.21 C395.3 151.39, 399.57 154.81, 406.54 161.8 M387.83 145.21 C394.01 151.63, 402.2 157.67, 406.54 161.8" stroke="#1e1e1e" stroke-width="2" fill="none"></path></g></g><mask></mask><g stroke-linecap="round"><g transform="translate(815.055555555555 305.8014788304021) rotate(0 1.6666666666667425 73.33333333333331)"><path d="M-0.38 0.44 C-0.07 25.08, 1.76 122.17, 2.28 146.69" stroke="#1e1e1e" stroke-width="2.5" fill="none" stroke-dasharray="1.5 8"></path></g><g transform="translate(815.055555555555 305.8014788304021) rotate(0 1.6666666666667425 73.33333333333331)"><path d="M-6.73 123.38 C-3.17 129.52, -0.82 138.19, 2.28 146.69" stroke="#1e1e1e" stroke-width="2.5" fill="none" stroke-dasharray="1.5 6"></path></g><g transform="translate(815.055555555555 305.8014788304021) rotate(0 1.6666666666667425 73.33333333333331)"><path d="M10.37 123.04 C8.16 129.24, 4.74 138.03, 2.28 146.69" stroke="#1e1e1e" stroke-width="2.5" fill="none" stroke-dasharray="1.5 6"></path></g></g><mask></mask><g stroke-linecap="round"><g transform="translate(935.055555555555 302.46814549706875) rotate(0 1.6666666666667425 75)"><path d="M0.6 -0.8 C1.15 24.17, 1.87 125.64, 2.38 150.84" stroke="#1e1e1e" stroke-width="2.5" fill="none" stroke-dasharray="1.5 8"></path></g><g transform="translate(935.055555555555 302.46814549706875) rotate(0 1.6666666666667425 75)"><path d="M-6.47 127.46 C-5.6 131.15, -0.86 138.64, 2.38 150.84" stroke="#1e1e1e" stroke-width="2.5" fill="none" stroke-dasharray="1.5 6"></path></g><g transform="translate(935.055555555555 302.46814549706875) rotate(0 1.6666666666667425 75)"><path d="M10.63 127.23 C7.61 131.06, 8.47 138.6, 2.38 150.84" stroke="#1e1e1e" stroke-width="2.5" fill="none" stroke-dasharray="1.5 6"></path></g></g><mask></mask><g stroke-linecap="round"><g transform="translate(1061.7222222222217 309.13481216373555) rotate(0 215 73.33333333333331)"><path d="M-1.07 -0.8 C70.39 23.51, 357.78 121.97, 429.76 146.55" stroke="#1e1e1e" stroke-width="2.5" fill="none" stroke-dasharray="1.5 8"></path></g><g transform="translate(1061.7222222222217 309.13481216373555) rotate(0 215 73.33333333333331)"><path d="M404.77 147.04 C412.99 146.68, 423.7 148.29, 429.76 146.55" stroke="#1e1e1e" stroke-width="2.5" fill="none" stroke-dasharray="1.5 6"></path></g><g transform="translate(1061.7222222222217 309.13481216373555) rotate(0 215 73.33333333333331)"><path d="M410.3 130.86 C416.49 136.64, 425.09 144.44, 429.76 146.55" stroke="#1e1e1e" stroke-width="2.5" fill="none" stroke-dasharray="1.5 6"></path></g></g><mask></mask><g stroke-linecap="round"><g transform="translate(1888.3888888888885 295.8014788304021) rotate(0 71.66666666666663 81.66666666666666)"><path d="M-0.42 -0.38 C23.38 26.86, 119.39 136.59, 143.38 163.86 M1.56 -1.62 C25.16 25.22, 118.91 134.33, 142.46 162.01" stroke="#1e1e1e" stroke-width="2" fill="none"></path></g><g transform="translate(1888.3888888888885 295.8014788304021) rotate(0 71.66666666666663 81.66666666666666)"><path d="M120.69 149.73 C127.64 154.14, 136.68 158.66, 142.46 162.01 M120.69 149.73 C126.63 153.44, 132.88 156.99, 142.46 162.01" stroke="#1e1e1e" stroke-width="2" fill="none"></path></g><g transform="translate(1888.3888888888885 295.8014788304021) rotate(0 71.66666666666663 81.66666666666666)"><path d="M133.68 138.61 C136.18 146.82, 140.72 155.19, 142.46 162.01 M133.68 138.61 C135.84 145.45, 138.3 152.26, 142.46 162.01" stroke="#1e1e1e" stroke-width="2" fill="none"></path></g></g><mask></mask><g stroke-linecap="round"><g transform="translate(2018.3888888888885 295.8014788304022) rotate(0 285 81.66666666666663)"><path d="M0.29 -0.9 C95.45 26.54, 474.69 137.08, 569.77 164.41 M-1.01 1.24 C94.07 28.38, 473.46 135.68, 568.7 162.85" stroke="#1e1e1e" stroke-width="2" fill="none"></path></g><g transform="translate(2018.3888888888885 295.8014788304022) rotate(0 285 81.66666666666663)"><path d="M543.77 164.66 C547.34 163.85, 555.71 165.19, 568.7 162.85 M543.77 164.66 C551.75 163.62, 558.28 163.97, 568.7 162.85" stroke="#1e1e1e" stroke-width="2" fill="none"></path></g><g transform="translate(2018.3888888888885 295.8014788304022) rotate(0 285 81.66666666666663)"><path d="M548.44 148.21 C551.04 150.76, 558.45 155.44, 568.7 162.85 M548.44 148.21 C555 151.83, 560.22 156.8, 568.7 162.85" stroke="#1e1e1e" stroke-width="2" fill="none"></path></g></g><mask></mask><g transform="translate(777.722222222222 352.46814549706886) rotate(0 12.449989318847656 12.5)"><text x="0" y="17.52" font-family="Virgil, Segoe UI Emoji" font-size="20px" fill="#1e1e1e" text-anchor="start" style="white-space: pre;" direction="ltr" dominant-baseline="alphabetic">&lt;4</text></g><g transform="translate(941.7222222222218 396.46814549706886) rotate(0 30.889976501464844 12.5)"><text x="0" y="17.52" font-family="Virgil, Segoe UI Emoji" font-size="20px" fill="#1e1e1e" text-anchor="start" style="white-space: pre;" direction="ltr" dominant-baseline="alphabetic">&gt;4&amp;&lt;6</text></g><g transform="translate(1265.7222222222217 348.46814549706886) rotate(0 30.579978942871094 12.5)"><text x="0" y="17.52" font-family="Virgil, Segoe UI Emoji" font-size="20px" fill="#1e1e1e" text-anchor="start" style="white-space: pre;" direction="ltr" dominant-baseline="alphabetic">&gt;6&amp;&lt;9</text></g><g transform="translate(1320.3888888888887 168.46814549706892) rotate(0 12.139991760253906 12.5)"><text x="0" y="17.52" font-family="Virgil, Segoe UI Emoji" font-size="20px" fill="#1e1e1e" text-anchor="start" style="white-space: pre;" direction="ltr" dominant-baseline="alphabetic">&lt;9</text></g><g transform="translate(1660.3888888888885 181.80147883040223) rotate(0 10.939994812011719 12.5)"><text x="0" y="17.52" font-family="Virgil, Segoe UI Emoji" font-size="20px" fill="#1e1e1e" text-anchor="start" style="white-space: pre;" direction="ltr" dominant-baseline="alphabetic">&gt;9</text></g><g transform="translate(1980.3888888888885 375.13481216373555) rotate(0 29.59998321533203 12.5)"><text x="0" y="17.52" font-family="Virgil, Segoe UI Emoji" font-size="20px" fill="#1e1e1e" text-anchor="start" style="white-space: pre;" direction="ltr" dominant-baseline="alphabetic">&gt;9&amp;&lt;11</text></g><g transform="translate(2333.7222222222217 358.468145497069) rotate(0 10.269996643066406 12.5)"><text x="0" y="17.52" font-family="Virgil, Segoe UI Emoji" font-size="20px" fill="#1e1e1e" text-anchor="start" style="white-space: pre;" direction="ltr" dominant-baseline="alphabetic">&gt;11</text></g><g stroke-linecap="round"><g transform="translate(441.05555555555554 598.9073692489162) rotate(0 31.5 0.7800298775159717)"><path d="M-0.41 0.67 C9.95 1.03, 51.42 1.28, 62.07 1.57 M1.58 -0.02 C12.31 0.59, 54.05 3.03, 64.29 3.11" stroke="#e03131" stroke-width="2" fill="none"></path></g><g transform="translate(441.05555555555554 598.9073692489162) rotate(0 31.5 0.7800298775159717)"><path d="M40.49 10.78 C48.65 7.05, 54.53 7.17, 64.29 3.11 M40.49 10.78 C48.84 7.1, 57.06 5.89, 64.29 3.11" stroke="#e03131" stroke-width="2" fill="none"></path></g><g transform="translate(441.05555555555554 598.9073692489162) rotate(0 31.5 0.7800298775159717)"><path d="M41.13 -6.31 C49.01 -5.02, 54.71 0.13, 64.29 3.11 M41.13 -6.31 C49.13 -3.71, 57.12 1.34, 64.29 3.11" stroke="#e03131" stroke-width="2" fill="none"></path></g></g><mask></mask><g stroke-linecap="round" transform="translate(10 576.8967169256402) rotate(0 214 20.285714285714278)"><path d="M10.14 0 C123.27 1.91, 234.44 1.84, 417.86 0 M10.14 0 C92.73 0.22, 174.91 0.02, 417.86 0 M417.86 0 C426.33 1.14, 428.84 3.22, 428 10.14 M417.86 0 C424.51 -1.22, 427.76 3.74, 428 10.14 M428 10.14 C426.48 16.43, 427.92 21.44, 428 30.43 M428 10.14 C427.88 17.3, 428.34 23.63, 428 30.43 M428 30.43 C428.02 38.75, 422.92 40.1, 417.86 40.57 M428 30.43 C429.8 38.38, 424.27 42.55, 417.86 40.57 M417.86 40.57 C285.54 40.59, 150.41 40.14, 10.14 40.57 M417.86 40.57 C291.12 41.59, 165.2 41.49, 10.14 40.57 M10.14 40.57 C3.48 40.47, 1.91 36.44, 0 30.43 M10.14 40.57 C1.74 42.12, -2.15 37.78, 0 30.43 M0 30.43 C-0.98 21.39, 1.95 14.98, 0 10.14 M0 30.43 C-0.22 22.33, -0.84 16.45, 0 10.14 M0 10.14 C1.86 4.38, 2.06 1.02, 10.14 0 M0 10.14 C1.66 4.22, 5.07 -2.3, 10.14 0" stroke="#e03131" stroke-width="2" fill="none"></path></g><g transform="translate(24.28571428571422 585.4681454970687) rotate(0 9.319992065429688 12.5)"><text x="0" y="17.52" font-family="Virgil, Segoe UI Emoji" font-size="20px" fill="#e03131" text-anchor="start" style="white-space: pre;" direction="ltr" dominant-baseline="alphabetic">P1</text></g><g transform="translate(62.44444444444446 589.0237010526243) rotate(0 20.92998504638672 12.5)"><text x="0" y="17.52" font-family="Virgil, Segoe UI Emoji" font-size="20px" fill="#e03131" text-anchor="start" style="white-space: pre;" direction="ltr" dominant-baseline="alphabetic">id=0</text></g><g transform="translate(170.44444444444434 589.0237010526243) rotate(0 16.759986877441406 12.5)"><text x="0" y="17.52" font-family="Virgil, Segoe UI Emoji" font-size="20px" fill="#e03131" text-anchor="start" style="white-space: pre;" direction="ltr" dominant-baseline="alphabetic">id=1</text></g><g transform="translate(123.33333333333337 585.4681454970687) rotate(0 13.729988098144531 12.5)"><text x="0" y="17.52" font-family="Virgil, Segoe UI Emoji" font-size="20px" fill="#e03131" text-anchor="start" style="white-space: pre;" direction="ltr" dominant-baseline="alphabetic">P2</text></g><g stroke-linecap="round"><g transform="translate(52.61111111111086 575.9443359732593) rotate(0 0 20)"><path d="M-0.35 -0.42 C-0.29 6.31, 0.52 33.13, 0.51 39.95 M0.47 0.56 C0.49 7.4, 0.31 34.11, 0.34 40.63" stroke="#e03131" stroke-width="2" fill="none"></path></g></g><mask></mask><g stroke-linecap="round"><g transform="translate(112.61111111111086 575.9443359732593) rotate(0 0 20)"><path d="M0.37 0.17 C0.27 6.7, -0.24 33.05, -0.25 39.66 M-0.1 -0.21 C-0.33 6.61, -0.84 33.42, -0.82 40.19" stroke="#e03131" stroke-width="2" fill="none"></path></g></g><mask></mask><g stroke-linecap="round"><g transform="translate(157.05555555555532 578.1665581954816) rotate(0 0 18.888888888888886)"><path d="M-0.21 -0.34 C-0.3 6, -0.12 31.54, -0.05 37.85 M0.68 0.67 C0.48 7.13, -0.39 32.37, -0.51 38.59" stroke="#e03131" stroke-width="2" fill="none"></path></g></g><mask></mask><g stroke-linecap="round"><g transform="translate(214.83333333333314 575.9443359732593) rotate(0 0 20)"><path d="M0.29 -0.51 C0.27 6.06, 0.18 32.78, 0.18 39.59 M-0.22 0.42 C-0.33 7.02, -0.21 33.58, -0.15 40.08" stroke="#e03131" stroke-width="2" fill="none"></path></g></g><mask></mask><g transform="translate(221.49999999999977 589.2776693065928) rotate(0 13.419990539550781 12.5)"><text x="0" y="17.52" font-family="Virgil, Segoe UI Emoji" font-size="20px" fill="#e03131" text-anchor="start" style="white-space: pre;" direction="ltr" dominant-baseline="alphabetic">P3</text></g><g stroke-linecap="round"><g transform="translate(259.2777777777775 578.1665581954816) rotate(0 0 19.99999999999997)"><path d="M0.16 0.46 C0.14 6.98, 0.46 32.84, 0.4 39.48 M-0.43 0.21 C-0.52 6.76, 0.21 33.38, 0.17 39.92" stroke="#e03131" stroke-width="2" fill="none"></path></g></g><mask></mask><g transform="translate(268.11223687065944 585.6665581954817) rotate(0 15.6099853515625 12.5)"><text x="0" y="17.52" font-family="Virgil, Segoe UI Emoji" font-size="20px" fill="#e03131" text-anchor="start" style="white-space: pre;" direction="ltr" dominant-baseline="alphabetic">null</text></g><g stroke-linecap="round"><g transform="translate(357.0555555555553 578.1665581954816) rotate(0 0 18.888888888888886)"><path d="M-0.29 -0.03 C-0.23 6.26, 0.16 31.42, 0.2 37.78 M0.56 -0.53 C0.58 5.85, 0.03 32.19, -0.12 38.48" stroke="#e03131" stroke-width="2" fill="none"></path></g></g><mask></mask><g transform="translate(374.83333333333303 582.611002639926) rotate(0 22.439979553222656 12.5)"><text x="0" y="17.52" font-family="Virgil, Segoe UI Emoji" font-size="20px" fill="#e03131" text-anchor="start" style="white-space: pre;" direction="ltr" dominant-baseline="alphabetic">Pend</text></g><g stroke-linecap="round" transform="translate(511.944444444444 577.1927296269405) rotate(0 188.44444444444446 20.285714285714278)"><path d="M10.14 0 C129.12 1.29, 248.86 2.88, 366.75 0 M10.14 0 C110.66 -0.78, 210.94 -0.49, 366.75 0 M366.75 0 C374.26 -1.84, 376.21 2.21, 376.89 10.14 M366.75 0 C371.48 1.22, 378.04 4.14, 376.89 10.14 M376.89 10.14 C377.47 15.71, 377.52 23.36, 376.89 30.43 M376.89 10.14 C377.74 17.09, 376.31 25.36, 376.89 30.43 M376.89 30.43 C377.95 37, 373.22 41.99, 366.75 40.57 M376.89 30.43 C376.58 35.78, 371.63 40.65, 366.75 40.57 M366.75 40.57 C235.67 40.47, 101.94 39.25, 10.14 40.57 M366.75 40.57 C267.43 41.26, 167.75 41.08, 10.14 40.57 M10.14 40.57 C2.78 39.25, 0.87 37.01, 0 30.43 M10.14 40.57 C4.29 41.54, -1.02 36.59, 0 30.43 M0 30.43 C-0.29 23.47, -1.48 22.51, 0 10.14 M0 30.43 C-0.84 21.97, -0.6 15.58, 0 10.14 M0 10.14 C-0.54 4.31, 3.06 -0.33, 10.14 0 M0 10.14 C1.34 4.28, 2.69 0.73, 10.14 0" stroke="#e03131" stroke-width="2" fill="none"></path></g><g transform="translate(526.2301587301582 585.7641581983689) rotate(0 9.319992065429688 12.5)"><text x="0" y="17.52" font-family="Virgil, Segoe UI Emoji" font-size="20px" fill="#e03131" text-anchor="start" style="white-space: pre;" direction="ltr" dominant-baseline="alphabetic">P1</text></g><g transform="translate(564.3888888888885 589.3197137539244) rotate(0 21.16998291015625 12.5)"><text x="0" y="17.52" font-family="Virgil, Segoe UI Emoji" font-size="20px" fill="#e03131" text-anchor="start" style="white-space: pre;" direction="ltr" dominant-baseline="alphabetic">id=2</text></g><g transform="translate(672.3888888888883 589.3197137539244) rotate(0 20.8599853515625 12.5)"><text x="0" y="17.52" font-family="Virgil, Segoe UI Emoji" font-size="20px" fill="#e03131" text-anchor="start" style="white-space: pre;" direction="ltr" dominant-baseline="alphabetic">id=3</text></g><g transform="translate(625.2777777777774 585.7641581983689) rotate(0 13.729988098144531 12.5)"><text x="0" y="17.52" font-family="Virgil, Segoe UI Emoji" font-size="20px" fill="#e03131" text-anchor="start" style="white-space: pre;" direction="ltr" dominant-baseline="alphabetic">P2</text></g><g stroke-linecap="round"><g transform="translate(554.5555555555549 576.2403486745595) rotate(0 0 20)"><path d="M0.29 0.49 C0.28 7.03, 0.29 32.96, 0.21 39.49 M-0.22 0.26 C-0.31 6.84, -0.05 33.29, -0.12 39.93" stroke="#e03131" stroke-width="2" fill="none"></path></g></g><mask></mask><g stroke-linecap="round"><g transform="translate(614.5555555555549 576.2403486745595) rotate(0 0 20)"><path d="M0.21 -0.51 C0.13 6.02, -0.07 32.88, -0.19 39.68 M-0.35 0.42 C-0.54 7.25, -0.87 33.72, -0.72 40.21" stroke="#e03131" stroke-width="2" fill="none"></path></g></g><mask></mask><g stroke-linecap="round"><g transform="translate(658.9999999999993 578.4625708967817) rotate(0 0 18.888888888888886)"><path d="M-0.19 -0.32 C-0.3 6.11, -0.56 31.69, -0.48 38.07 M0.72 0.7 C0.75 7.02, 0.61 31.21, 0.5 37.26" stroke="#e03131" stroke-width="2" fill="none"></path></g></g><mask></mask><g stroke-linecap="round"><g transform="translate(716.7777777777771 576.2403486745595) rotate(0 0 20)"><path d="M-0.48 0.29 C-0.41 7.04, 0.15 33.65, 0.27 40.18 M0.27 -0.03 C0.31 6.58, 0.02 32.67, -0.02 39.31" stroke="#e03131" stroke-width="2" fill="none"></path></g></g><mask></mask><g transform="translate(723.4444444444438 589.5736820078928) rotate(0 13.419990539550781 12.5)"><text x="0" y="17.52" font-family="Virgil, Segoe UI Emoji" font-size="20px" fill="#e03131" text-anchor="start" style="white-space: pre;" direction="ltr" dominant-baseline="alphabetic">P3</text></g><g stroke-linecap="round"><g transform="translate(761.2222222222215 578.4625708967817) rotate(0 0 19.99999999999997)"><path d="M0.26 -0.51 C0.27 6.16, 0.44 33.42, 0.33 40.21 M-0.27 0.41 C-0.33 6.9, -0.09 32.88, 0.07 39.35" stroke="#e03131" stroke-width="2" fill="none"></path></g></g><mask></mask><g transform="translate(770.0566813151034 585.9625708967817) rotate(0 15.6099853515625 12.5)"><text x="0" y="17.52" font-family="Virgil, Segoe UI Emoji" font-size="20px" fill="#e03131" text-anchor="start" style="white-space: pre;" direction="ltr" dominant-baseline="alphabetic">null</text></g><g stroke-linecap="round"><g transform="translate(814.5555555555549 578.4625708967817) rotate(0 0 18.888888888888886)"><path d="M-0.41 0.23 C-0.5 6.56, -0.25 31.98, -0.24 38.21 M0.38 -0.13 C0.17 6.04, -0.86 31.09, -0.8 37.47" stroke="#e03131" stroke-width="2" fill="none"></path></g></g><mask></mask><g transform="translate(832.3333333333326 582.907015341226) rotate(0 22.439979553222656 12.5)"><text x="0" y="17.52" font-family="Virgil, Segoe UI Emoji" font-size="20px" fill="#e03131" text-anchor="start" style="white-space: pre;" direction="ltr" dominant-baseline="alphabetic">Pend</text></g><g stroke-linecap="round"><g transform="translate(415.49999999999943 507.9443359732591) rotate(0 -59.50000000000003 30.416666666666686)"><path d="M1.06 0.16 C-18.89 10.37, -99.04 50.4, -119.09 60.42" stroke="#2f9e44" stroke-width="2.5" fill="none" stroke-dasharray="1.5 8"></path></g><g transform="translate(415.49999999999943 507.9443359732591) rotate(0 -59.50000000000003 30.416666666666686)"><path d="M-101.9 42.27 C-107.78 48.61, -114.75 54.67, -119.09 60.42" stroke="#2f9e44" stroke-width="2.5" fill="none" stroke-dasharray="1.5 6"></path></g><g transform="translate(415.49999999999943 507.9443359732591) rotate(0 -59.50000000000003 30.416666666666686)"><path d="M-94.26 57.57 C-102.7 58.63, -112.34 59.34, -119.09 60.42" stroke="#2f9e44" stroke-width="2.5" fill="none" stroke-dasharray="1.5 6"></path></g></g><mask></mask><g stroke-linecap="round"><g transform="translate(628.9182041398592 512.9443359732593) rotate(0 -4.210551628741669 25.833333333333258)"><path d="M0.61 -0.97 C-0.75 7.99, -6.04 43.85, -7.47 52.75" stroke="#2f9e44" stroke-width="2.5" fill="none" stroke-dasharray="1.5 8"></path></g><g transform="translate(628.9182041398592 512.9443359732593) rotate(0 -4.210551628741669 25.833333333333258)"><path d="M-12.37 28.23 C-12.42 38.57, -7.26 46.54, -7.47 52.75" stroke="#2f9e44" stroke-width="2.5" fill="none" stroke-dasharray="1.5 6"></path></g><g transform="translate(628.9182041398592 512.9443359732593) rotate(0 -4.210551628741669 25.833333333333258)"><path d="M4.54 30.82 C-1.55 40.31, -2.44 47.36, -7.47 52.75" stroke="#2f9e44" stroke-width="2.5" fill="none" stroke-dasharray="1.5 6"></path></g></g><mask></mask><g transform="translate(179.8333333333327 546.2776693065925) rotate(0 40 12.5)"><text x="0" y="17.52" font-family="Virgil, Segoe UI Emoji" font-size="20px" fill="#e03131" text-anchor="start" style="white-space: pre;" direction="ltr" dominant-baseline="alphabetic">新叶节点</text></g><g transform="translate(679.8333333333327 543.7776693065925) rotate(0 40 12.5)"><text x="0" y="17.52" font-family="Virgil, Segoe UI Emoji" font-size="20px" fill="#e03131" text-anchor="start" style="white-space: pre;" direction="ltr" dominant-baseline="alphabetic">新叶节点</text></g><g stroke-linecap="round"><g transform="translate(883.8751176781907 578.2221137510369) rotate(0 22.565427132180886 -31.805555555555515)"><path d="M-0.96 0.93 C6.51 -9.74, 37.05 -53.55, 44.59 -64.32 M0.74 0.38 C8.03 -10.13, 35.69 -52.69, 43.36 -63.16" stroke="#e03131" stroke-width="2" fill="none"></path></g><g transform="translate(883.8751176781907 578.2221137510369) rotate(0 22.565427132180886 -31.805555555555515)"><path d="M37.13 -38.95 C40.49 -46.6, 39.5 -53.87, 43.36 -63.16 M37.13 -38.95 C39.72 -45.9, 40.94 -52.54, 43.36 -63.16" stroke="#e03131" stroke-width="2" fill="none"></path></g><g transform="translate(883.8751176781907 578.2221137510369) rotate(0 22.565427132180886 -31.805555555555515)"><path d="M23.02 -48.62 C30.32 -53.44, 33.29 -58, 43.36 -63.16 M23.02 -48.62 C29.7 -52.79, 35.05 -56.59, 43.36 -63.16" stroke="#e03131" stroke-width="2" fill="none"></path></g></g><mask></mask><g stroke-linecap="round" transform="translate(766.9761904761899 802.2248986111747) rotate(0 227.5 21.25)"><path d="M10.63 0 C100.51 0.89, 189.56 -0.4, 444.38 0 M10.63 0 C174.48 2.22, 338.35 2.22, 444.38 0 M444.38 0 C451.31 1.6, 454.94 5.34, 455 10.63 M444.38 0 C450 -1.8, 454.88 3.89, 455 10.63 M455 10.63 C455.04 17.77, 455.2 24.02, 455 31.88 M455 10.63 C454.67 19.71, 454.08 27.11, 455 31.88 M455 31.88 C456.52 38.2, 452.83 42.46, 444.38 42.5 M455 31.88 C453.53 37.87, 449.3 43.91, 444.38 42.5 M444.38 42.5 C278.11 40.56, 111.8 40.56, 10.63 42.5 M444.38 42.5 C296.12 44.18, 147.79 43.51, 10.63 42.5 M10.63 42.5 C3.04 44.13, -0.1 39.7, 0 31.88 M10.63 42.5 C3.62 42.08, -1.67 38.73, 0 31.88 M0 31.88 C1.31 26.98, 0.67 21.72, 0 10.63 M0 31.88 C-0.57 24.79, -0.32 15.98, 0 10.63 M0 10.63 C-1.33 4.23, 3.95 -1.61, 10.63 0 M0 10.63 C0 1.66, 2.57 -0.24, 10.63 0" stroke="#e03131" stroke-width="2" fill="none"></path></g><g transform="translate(779.4761904761899 814.3082192288505) rotate(0 9.319992065429688 12.5)"><text x="0" y="17.52" font-family="Virgil, Segoe UI Emoji" font-size="20px" fill="#e03131" text-anchor="start" style="white-space: pre;" direction="ltr" dominant-baseline="alphabetic">P1</text></g><g stroke-linecap="round"><g transform="translate(806.9761904761899 802.2248986111747) rotate(0 0 21.25)"><path d="M-0.21 0.43 C-0.31 7.37, -0.12 34.96, -0.11 42.04 M0.68 0.17 C0.46 7.13, -0.39 35.53, -0.6 42.5" stroke="#e03131" stroke-width="2" fill="none"></path></g></g><mask></mask><g transform="translate(824.4761904761899 811.8082192288505) rotate(0 21.16998291015625 12.5)"><text x="0" y="17.52" font-family="Virgil, Segoe UI Emoji" font-size="20px" fill="#e03131" text-anchor="start" style="white-space: pre;" direction="ltr" dominant-baseline="alphabetic">id=2</text></g><g transform="translate(891.9761904761899 809.3082192288505) rotate(0 13.729988098144531 12.5)"><text x="0" y="17.52" font-family="Virgil, Segoe UI Emoji" font-size="20px" fill="#e03131" text-anchor="start" style="white-space: pre;" direction="ltr" dominant-baseline="alphabetic">P2</text></g><g transform="translate(939.4761904761899 814.3081810818778) rotate(0 20.449981689453125 12.5)"><text x="0" y="17.52" font-family="Virgil, Segoe UI Emoji" font-size="20px" fill="#e03131" text-anchor="start" style="white-space: pre;" direction="ltr" dominant-baseline="alphabetic">id=4</text></g><g transform="translate(1014.4761904761899 814.3081810818778) rotate(0 13.419990539550781 12.5)"><text x="0" y="17.52" font-family="Virgil, Segoe UI Emoji" font-size="20px" fill="#e03131" text-anchor="start" style="white-space: pre;" direction="ltr" dominant-baseline="alphabetic">P3</text></g><g transform="translate(1076.97619047619 814.3081810818778) rotate(0 20.22998046875 12.5)"><text x="0" y="17.52" font-family="Virgil, Segoe UI Emoji" font-size="20px" fill="#e03131" text-anchor="start" style="white-space: pre;" direction="ltr" dominant-baseline="alphabetic">id=5</text></g><g transform="translate(1159.47619047619 811.8081810818778) rotate(0 22.439979553222656 12.5)"><text x="0" y="17.52" font-family="Virgil, Segoe UI Emoji" font-size="20px" fill="#e03131" text-anchor="start" style="white-space: pre;" direction="ltr" dominant-baseline="alphabetic">Pend</text></g><g stroke-linecap="round"><g transform="translate(879.4761904761899 802.2248986111747) rotate(0 0 21.25)"><path d="M-0.03 0.08 C0.09 7.26, 0.29 35.55, 0.34 42.62 M-0.71 -0.35 C-0.61 6.69, -0.04 34.47, 0.08 41.72" stroke="#e03131" stroke-width="2" fill="none"></path></g></g><mask></mask><g stroke-linecap="round"><g transform="translate(929.4761904761899 802.2248986111747) rotate(0 0 21.25)"><path d="M0.34 0.12 C0.39 7.19, 0.33 35.43, 0.25 42.5 M-0.15 -0.29 C-0.15 6.86, 0.01 35.95, -0.06 43.2" stroke="#e03131" stroke-width="2" fill="none"></path></g></g><mask></mask><g stroke-linecap="round"><g transform="translate(996.9761904761899 802.2248986111747) rotate(0 0 21.25)"><path d="M0.25 0 C0.17 7.07, -0.02 35.37, -0.15 42.54 M-0.29 -0.48 C-0.48 6.68, -0.79 36.14, -0.66 43.26" stroke="#e03131" stroke-width="2" fill="none"></path></g></g><mask></mask><g stroke-linecap="round"><g transform="translate(1061.97619047619 802.2248986111747) rotate(0 0 21.25)"><path d="M-0.15 0.04 C-0.28 7.21, -0.59 36.04, -0.55 43.03 M0.77 -0.41 C0.78 6.62, 0.57 35.22, 0.41 42.34" stroke="#e03131" stroke-width="2" fill="none"></path></g></g><mask></mask><g stroke-linecap="round"><g transform="translate(1134.47619047619 802.2248986111747) rotate(0 0 21.25)"><path d="M-0.55 0.53 C-0.5 7.53, 0.06 34.95, 0.11 42 M0.18 0.33 C0.17 7.37, -0.12 35.5, -0.26 42.44" stroke="#e03131" stroke-width="2" fill="none"></path></g></g><mask></mask><g transform="translate(931.1428571428568 866.9047619047622) rotate(0 50 12.5)"><text x="0" y="17.52" font-family="Virgil, Segoe UI Emoji" font-size="20px" fill="#e03131" text-anchor="start" style="white-space: pre;" direction="ltr" dominant-baseline="alphabetic">新内部节点</text></g><g stroke-linecap="round"><g transform="translate(767.9660413551107 812.8513828693051) rotate(0 -198.99785461704806 -95.0725710670707)"><path d="M-0.08 0.62 C-66.18 -31.04, -330.56 -157.28, -396.87 -189.1 M-1.58 -0.11 C-67.72 -32.15, -331.05 -159.18, -397.23 -190.68" stroke="#e03131" stroke-width="2" fill="none"></path></g><g transform="translate(767.9660413551107 812.8513828693051) rotate(0 -198.99785461704806 -95.0725710670707)"><path d="M-372.35 -188.23 C-378.32 -187.06, -384.59 -189.49, -397.23 -190.68 M-372.35 -188.23 C-378.93 -188.28, -385.64 -189.19, -397.23 -190.68" stroke="#e03131" stroke-width="2" fill="none"></path></g><g transform="translate(767.9660413551107 812.8513828693051) rotate(0 -198.99785461704806 -95.0725710670707)"><path d="M-379.75 -172.81 C-383.75 -175.96, -387.94 -182.72, -397.23 -190.68 M-379.75 -172.81 C-384.09 -177.25, -388.71 -182.54, -397.23 -190.68" stroke="#e03131" stroke-width="2" fill="none"></path></g></g><mask></mask><g stroke-linecap="round"><g transform="translate(893.6049500606337 801.3236775101743) rotate(0 -103.73277207203364 -84.30871838750531)"><path d="M-1.07 0.98 C-35.88 -27.14, -173.4 -140.23, -207.79 -168.3 M0.57 0.45 C-34.52 -28.09, -174.12 -141.98, -208.91 -170.26" stroke="#e03131" stroke-width="2" fill="none"></path></g><g transform="translate(893.6049500606337 801.3236775101743) rotate(0 -103.73277207203364 -84.30871838750531)"><path d="M-185.3 -162.05 C-192.92 -166.01, -203.25 -168.59, -208.91 -170.26 M-185.3 -162.05 C-193.78 -165.8, -204.09 -169.1, -208.91 -170.26" stroke="#e03131" stroke-width="2" fill="none"></path></g><g transform="translate(893.6049500606337 801.3236775101743) rotate(0 -103.73277207203364 -84.30871838750531)"><path d="M-196.1 -148.79 C-199.55 -157.84, -205.66 -165.6, -208.91 -170.26 M-196.1 -148.79 C-200.43 -157.78, -206.46 -166.33, -208.91 -170.26" stroke="#e03131" stroke-width="2" fill="none"></path></g></g><mask></mask><g transform="translate(585.3095238095226 706.039574068497) rotate(0 13.169990539550781 12.5)"><text x="0" y="17.52" font-family="Virgil, Segoe UI Emoji" font-size="20px" fill="#e03131" text-anchor="start" style="white-space: pre;" direction="ltr" dominant-baseline="alphabetic">&lt;2</text></g><g transform="translate(815.3095238095227 692.7062407351638) rotate(0 31.60997772216797 12.5)"><text x="0" y="17.52" font-family="Virgil, Segoe UI Emoji" font-size="20px" fill="#e03131" text-anchor="start" style="white-space: pre;" direction="ltr" dominant-baseline="alphabetic">&gt;2&amp;&lt;4</text></g><g stroke-linecap="round"><g transform="translate(1032.7628510541856 800.9188150869313) rotate(0 98.3542933140119 -141.88406495366152)"><path d="M0.39 -0.18 C33.08 -47.47, 163 -237.35, 195.69 -284.74 M-0.87 -1.32 C32.23 -48.4, 165.11 -236.67, 197.86 -283.71" stroke="#e03131" stroke-width="2" fill="none"></path></g><g transform="translate(1032.7628510541856 800.9188150869313) rotate(0 98.3542933140119 -141.88406495366152)"><path d="M191.37 -259.57 C192.98 -267.63, 193.36 -272.62, 197.86 -283.71 M191.37 -259.57 C193.22 -265.17, 194.2 -271.79, 197.86 -283.71" stroke="#e03131" stroke-width="2" fill="none"></path></g><g transform="translate(1032.7628510541856 800.9188150869313) rotate(0 98.3542933140119 -141.88406495366152)"><path d="M177.37 -269.39 C182.57 -274.92, 186.63 -277.34, 197.86 -283.71 M177.37 -269.39 C182.51 -272.73, 186.86 -276.99, 197.86 -283.71" stroke="#e03131" stroke-width="2" fill="none"></path></g></g><mask></mask><g transform="translate(1144.1984126984116 673.817351846275) rotate(0 30.66997528076172 12.5)"><text x="0" y="17.52" font-family="Virgil, Segoe UI Emoji" font-size="20px" fill="#e03131" text-anchor="start" style="white-space: pre;" direction="ltr" dominant-baseline="alphabetic">&gt;4&amp;&lt;5</text></g><g stroke-linecap="round"><g transform="translate(1212.8888888888878 799.9522724811955) rotate(0 171.66666666666666 -143.33333333333331)"><path d="M-0.29 0.06 C57 -47.7, 286.84 -239.56, 344.24 -287.22 M1.76 -0.95 C58.92 -48.5, 286.77 -238.15, 343.77 -285.97" stroke="#e03131" stroke-width="2" fill="none"></path></g><g transform="translate(1212.8888888888878 799.9522724811955) rotate(0 171.66666666666666 -143.33333333333331)"><path d="M331.22 -264.35 C335.76 -270.26, 339.07 -277.94, 343.77 -285.97 M331.22 -264.35 C336.48 -271.44, 341.31 -280.54, 343.77 -285.97" stroke="#e03131" stroke-width="2" fill="none"></path></g><g transform="translate(1212.8888888888878 799.9522724811955) rotate(0 171.66666666666666 -143.33333333333331)"><path d="M320.26 -277.48 C328.51 -278.83, 335.59 -281.99, 343.77 -285.97 M320.26 -277.48 C329.41 -279.86, 338.22 -284.19, 343.77 -285.97" stroke="#e03131" stroke-width="2" fill="none"></path></g></g><mask></mask><g transform="translate(1392.8888888888878 679.9522724811957) rotate(0 30.35997772216797 12.5)"><text x="0" y="17.52" font-family="Virgil, Segoe UI Emoji" font-size="20px" fill="#e03131" text-anchor="start" style="white-space: pre;" direction="ltr" dominant-baseline="alphabetic">&gt;5&amp;&lt;9</text></g><g stroke-linecap="round"><g transform="translate(1359.5555555555545 99.9522724811957) rotate(0 -181.66666666666663 346.6666666666666)"><path d="M0.87 -0.7 C-59.61 114.75, -303.35 577.75, -363.87 693.46 M-0.13 1.55 C-60.74 117.15, -304.71 579.49, -365.1 695.07" stroke="#e03131" stroke-width="2" fill="none"></path></g><g transform="translate(1359.5555555555545 99.9522724811957) rotate(0 -181.66666666666663 346.6666666666666)"><path d="M-361.74 670.3 C-363.49 674.88, -362.85 683.02, -365.1 695.07 M-361.74 670.3 C-362.99 677.48, -363.29 685.56, -365.1 695.07" stroke="#e03131" stroke-width="2" fill="none"></path></g><g transform="translate(1359.5555555555545 99.9522724811957) rotate(0 -181.66666666666663 346.6666666666666)"><path d="M-346.6 678.25 C-351.74 681.19, -354.43 687.59, -365.1 695.07 M-346.6 678.25 C-352.76 683.02, -357.93 688.54, -365.1 695.07" stroke="#e03131" stroke-width="2" fill="none"></path></g></g><mask></mask><g stroke-linecap="round"><g transform="translate(986.222222222221 318.28560581452945) rotate(0 -3.3333333333333712 236.66666666666663)"><path d="M-0.62 -0.03 C-1.96 78.81, -6.77 394.08, -7.8 473.06" stroke="#2f9e44" stroke-width="2.5" fill="none" stroke-dasharray="1.5 8"></path></g><g transform="translate(986.222222222221 318.28560581452945) rotate(0 -3.3333333333333712 236.66666666666663)"><path d="M-16.01 449.45 C-13.44 455.1, -11.24 464.26, -7.8 473.06" stroke="#2f9e44" stroke-width="2.5" fill="none" stroke-dasharray="1.5 6"></path></g><g transform="translate(986.222222222221 318.28560581452945) rotate(0 -3.3333333333333712 236.66666666666663)"><path d="M1.09 449.69 C-1.77 455.18, -5.01 464.26, -7.8 473.06" stroke="#2f9e44" stroke-width="2.5" fill="none" stroke-dasharray="1.5 6"></path></g></g><mask></mask></svg>