<svg version="1.1" xmlns="http://www.w3.org/2000/svg" viewBox="0 0 1073 682.2499618530273" width="1073" height="682.2499618530273">
  <!-- svg-source:excalidraw -->
  
  <defs>
    <style class="style-fonts">
      @font-face {
        font-family: "Virgil";
        src: url("https://excalidraw.com/Virgil.woff2");
      }
      @font-face {
        font-family: "Cascadia";
        src: url("https://excalidraw.com/Cascadia.woff2");
      }
      @font-face {
        font-family: "Assistant";
        src: url("https://excalidraw.com/Assistant-Regular.woff2");
      }
    </style>
    
  </defs>
  <rect x="0" y="0" width="1073" height="682.2499618530273" fill="#ffffff"></rect><g stroke-linecap="round" transform="translate(545 194.74996185302734) rotate(0 259 19)"><path d="M9.5 0 C179.63 -0.34, 349.85 0.12, 508.5 0 M9.5 0 C180.44 1.81, 350.7 1.9, 508.5 0 M508.5 0 C515.28 0.55, 517.89 2.44, 518 9.5 M508.5 0 C514.45 -1.6, 516.64 4.97, 518 9.5 M518 9.5 C517.64 15.57, 518.02 22.52, 518 28.5 M518 9.5 C518.75 14.03, 518.53 18.87, 518 28.5 M518 28.5 C517.69 35.13, 513.45 39.24, 508.5 38 M518 28.5 C517.3 33.36, 512.93 38.73, 508.5 38 M508.5 38 C388.76 36.83, 269.64 37.25, 9.5 38 M508.5 38 C405.57 39.95, 302.92 40.2, 9.5 38 M9.5 38 C3.28 39.34, -0.59 36.51, 0 28.5 M9.5 38 C3.95 40.22, -1.84 34.85, 0 28.5 M0 28.5 C0.34 21.04, -0.45 17.64, 0 9.5 M0 28.5 C-0.44 24.38, -0.62 19.53, 0 9.5 M0 9.5 C-1.19 3.85, 3.25 1.57, 9.5 0 M0 9.5 C-0.39 4.99, 2.09 2.08, 9.5 0" stroke="#1e1e1e" stroke-width="2" fill="none"></path></g><g transform="translate(766.9800262451172 201.24996185302734) rotate(0 37.01997375488281 12.5)"><text x="37.01997375488281" y="17.52" font-family="Virgil, Segoe UI Emoji" font-size="20px" fill="#1e1e1e" text-anchor="middle" style="white-space: pre;" direction="ltr" dominant-baseline="alphabetic">id: 1,......</text></g><g stroke-linecap="round" transform="translate(544 235.74996185302734) rotate(0 259 19)"><path d="M9.5 0 C202.94 0.67, 395.71 -0.15, 508.5 0 M9.5 0 C191.64 -0.94, 373.7 -1.34, 508.5 0 M508.5 0 C515.74 1.22, 518.48 4.52, 518 9.5 M508.5 0 C514.52 2.07, 516.58 3.86, 518 9.5 M518 9.5 C518.08 16.48, 517.2 23.57, 518 28.5 M518 9.5 C518.65 15.73, 517.87 22.59, 518 28.5 M518 28.5 C516.34 33.5, 516.14 38.96, 508.5 38 M518 28.5 C517.5 34.75, 514.41 38.03, 508.5 38 M508.5 38 C406.8 37.53, 303.56 38.17, 9.5 38 M508.5 38 C316.75 38.97, 125.32 39.2, 9.5 38 M9.5 38 C4.24 38.63, -0.17 33.94, 0 28.5 M9.5 38 C4.85 39.81, 0.02 34.6, 0 28.5 M0 28.5 C-0.42 23.63, 0.95 18.13, 0 9.5 M0 28.5 C0.47 21.55, -0.34 13.26, 0 9.5 M0 9.5 C1.18 4.26, 4.78 -1.42, 9.5 0 M0 9.5 C0.99 3.14, 4.99 1.41, 9.5 0" stroke="#1e1e1e" stroke-width="2" fill="none"></path></g><g transform="translate(761.5700302124023 242.24996185302734) rotate(0 41.429969787597656 12.5)"><text x="41.429969787597656" y="17.52" font-family="Virgil, Segoe UI Emoji" font-size="20px" fill="#1e1e1e" text-anchor="middle" style="white-space: pre;" direction="ltr" dominant-baseline="alphabetic">id: 2,......</text></g><g stroke-linecap="round" transform="translate(544 275.74996185302734) rotate(0 259 19)"><path d="M9.5 0 C191.91 -0.76, 373.61 -1.38, 508.5 0 M9.5 0 C111.13 -1.95, 212.44 -1.56, 508.5 0 M508.5 0 C515.59 -1.02, 519.36 1.84, 518 9.5 M508.5 0 C515.25 -0.26, 516.06 4.11, 518 9.5 M518 9.5 C519.66 13.89, 519.52 17.34, 518 28.5 M518 9.5 C518.93 17.34, 518.91 23.55, 518 28.5 M518 28.5 C517.79 32.93, 516.12 36.32, 508.5 38 M518 28.5 C519.94 33.15, 513.1 38.65, 508.5 38 M508.5 38 C382.05 39.09, 255.99 37.85, 9.5 38 M508.5 38 C369.76 37.75, 230.94 38.28, 9.5 38 M9.5 38 C2.33 36.85, -1.07 35.66, 0 28.5 M9.5 38 C3.87 36.82, -0.6 34.27, 0 28.5 M0 28.5 C-1.04 22.28, -0.89 17.77, 0 9.5 M0 28.5 C0.49 22.29, -0.73 16.16, 0 9.5 M0 9.5 C-1.38 2.93, 4.55 0.07, 9.5 0 M0 9.5 C1.34 1.68, 3.06 -0.7, 9.5 0" stroke="#1e1e1e" stroke-width="2" fill="none"></path></g><g transform="translate(761.8800277709961 282.24996185302734) rotate(0 41.119972229003906 12.5)"><text x="41.119972229003906" y="17.52" font-family="Virgil, Segoe UI Emoji" font-size="20px" fill="#1e1e1e" text-anchor="middle" style="white-space: pre;" direction="ltr" dominant-baseline="alphabetic">id: 3,......</text></g><g stroke-linecap="round" transform="translate(544.5 315.24996185302734) rotate(0 259 19)"><path d="M9.5 0 C206 0.84, 403.83 0.63, 508.5 0 M9.5 0 C166.73 -1.26, 324.57 -1.76, 508.5 0 M508.5 0 C516.14 1.57, 516.88 3.89, 518 9.5 M508.5 0 C514.83 2.11, 518.63 1.52, 518 9.5 M518 9.5 C517.97 13.26, 519.75 17.27, 518 28.5 M518 9.5 C519.03 16.22, 519.03 24.77, 518 28.5 M518 28.5 C518.56 35.72, 514.69 36.23, 508.5 38 M518 28.5 C516.35 33.39, 513.37 36.59, 508.5 38 M508.5 38 C365.35 38.61, 224.19 38.81, 9.5 38 M508.5 38 C380.48 36.72, 251.62 36.82, 9.5 38 M9.5 38 C2.73 39.9, -1.94 33.55, 0 28.5 M9.5 38 C4.38 39.92, 2.16 33.24, 0 28.5 M0 28.5 C-1.29 23.65, 1.54 18.22, 0 9.5 M0 28.5 C0.43 24.21, 0.22 21.37, 0 9.5 M0 9.5 C-0.91 5.16, 4.67 -1.33, 9.5 0 M0 9.5 C-1.02 2.9, 5.02 1.81, 9.5 0" stroke="#1e1e1e" stroke-width="2" fill="none"></path></g><g transform="translate(762.7900314331055 321.74996185302734) rotate(0 40.70996856689453 12.5)"><text x="40.70996856689453" y="17.52" font-family="Virgil, Segoe UI Emoji" font-size="20px" fill="#1e1e1e" text-anchor="middle" style="white-space: pre;" direction="ltr" dominant-baseline="alphabetic">id: 4,......</text></g><g stroke-linecap="round" transform="translate(543.5 356.24996185302734) rotate(0 259 19)"><path d="M9.5 0 C197.18 -1.35, 385.27 -1.78, 508.5 0 M9.5 0 C205.68 0.95, 401.12 0.77, 508.5 0 M508.5 0 C514.83 1.84, 518.55 1.73, 518 9.5 M508.5 0 C512.96 1.22, 517.26 3.01, 518 9.5 M518 9.5 C519.7 16.44, 516.65 21.85, 518 28.5 M518 9.5 C518.44 14.59, 518.11 17.99, 518 28.5 M518 28.5 C516.56 33.58, 513.56 36.78, 508.5 38 M518 28.5 C517.66 36.85, 515.16 35.85, 508.5 38 M508.5 38 C338.27 39.16, 168.15 39.92, 9.5 38 M508.5 38 C340.29 39.61, 171.86 38.98, 9.5 38 M9.5 38 C4.22 39.67, 1.88 33.45, 0 28.5 M9.5 38 C1.46 37.03, -0.25 33.17, 0 28.5 M0 28.5 C-1.81 21.61, -0.1 18.73, 0 9.5 M0 28.5 C-0.44 24.27, 0.71 17.52, 0 9.5 M0 9.5 C-0.89 2.94, 4.78 1.57, 9.5 0 M0 9.5 C-1.4 4, 1.52 -2.13, 9.5 0" stroke="#1e1e1e" stroke-width="2" fill="none"></path></g><g transform="translate(762.0100326538086 362.74996185302734) rotate(0 40.489967346191406 12.5)"><text x="40.489967346191406" y="17.52" font-family="Virgil, Segoe UI Emoji" font-size="20px" fill="#1e1e1e" text-anchor="middle" style="white-space: pre;" direction="ltr" dominant-baseline="alphabetic">id: 5,......</text></g><g stroke-linecap="round" transform="translate(543.5 396.24996185302734) rotate(0 259 19)"><path d="M9.5 0 C138.69 1.6, 266.13 2.46, 508.5 0 M9.5 0 C198.44 -0.35, 387.49 -1.01, 508.5 0 M508.5 0 C513.21 1.06, 517.36 3.03, 518 9.5 M508.5 0 C514.35 2, 517.35 5.03, 518 9.5 M518 9.5 C516.82 18.57, 519.45 24.71, 518 28.5 M518 9.5 C517.3 15.45, 517.38 22.01, 518 28.5 M518 28.5 C517.71 36.59, 515.12 36.13, 508.5 38 M518 28.5 C518.93 36.25, 516.34 37.01, 508.5 38 M508.5 38 C368.59 39.05, 228.57 39.35, 9.5 38 M508.5 38 C311.64 37.05, 114.73 36.44, 9.5 38 M9.5 38 C1.68 37.16, -0.22 33.39, 0 28.5 M9.5 38 C2.49 39.77, -2.06 32.81, 0 28.5 M0 28.5 C-0.53 24.64, 1.87 19.74, 0 9.5 M0 28.5 C-0.57 20.8, 0.62 14.06, 0 9.5 M0 9.5 C-1.22 3.89, 1.73 -1.85, 9.5 0 M0 9.5 C1.42 1.88, 4.85 -0.04, 9.5 0" stroke="#1e1e1e" stroke-width="2" fill="none"></path></g><g transform="translate(761.7900314331055 402.74996185302734) rotate(0 40.70996856689453 12.5)"><text x="40.70996856689453" y="17.52" font-family="Virgil, Segoe UI Emoji" font-size="20px" fill="#1e1e1e" text-anchor="middle" style="white-space: pre;" direction="ltr" dominant-baseline="alphabetic">id: 6,......</text></g><g stroke-linecap="round" transform="translate(544.5 437.24996185302734) rotate(0 259 19)"><path d="M9.5 0 C181.39 -0.11, 354.23 -0.27, 508.5 0 M9.5 0 C148 -1.55, 285.84 -1.45, 508.5 0 M508.5 0 C514.97 0.95, 517.8 4.53, 518 9.5 M508.5 0 C515.34 0.72, 516.27 3.76, 518 9.5 M518 9.5 C517.33 18.39, 519.91 23.9, 518 28.5 M518 9.5 C518.22 17.07, 518.71 22.59, 518 28.5 M518 28.5 C518.97 35.74, 513.05 39.32, 508.5 38 M518 28.5 C520.22 35.5, 513.35 36.27, 508.5 38 M508.5 38 C338.76 40.5, 169.17 39.66, 9.5 38 M508.5 38 C404.12 39.64, 299.09 39.9, 9.5 38 M9.5 38 C4.14 38.2, 0.53 35.47, 0 28.5 M9.5 38 C3.46 37.74, 2.07 35.47, 0 28.5 M0 28.5 C-1.21 24.64, -0.12 20.39, 0 9.5 M0 28.5 C-0.91 24, 0.18 19.89, 0 9.5 M0 9.5 C0.7 3.13, 5.02 0.57, 9.5 0 M0 9.5 C-1.46 3.09, 4.21 1.47, 9.5 0" stroke="#1e1e1e" stroke-width="2" fill="none"></path></g><g transform="translate(763.8100280761719 443.74996185302734) rotate(0 39.689971923828125 12.5)"><text x="39.689971923828125" y="17.52" font-family="Virgil, Segoe UI Emoji" font-size="20px" fill="#1e1e1e" text-anchor="middle" style="white-space: pre;" direction="ltr" dominant-baseline="alphabetic">id: 7,......</text></g><g stroke-linecap="round" transform="translate(543.5 478.24996185302734) rotate(0 259 19)"><path d="M9.5 0 C130.37 0.84, 252.28 2.25, 508.5 0 M9.5 0 C172.9 -0.84, 336.21 -0.76, 508.5 0 M508.5 0 C515.27 0.63, 516.5 3.68, 518 9.5 M508.5 0 C516.47 0.44, 517.47 2.31, 518 9.5 M518 9.5 C519.43 17.9, 518.27 24.86, 518 28.5 M518 9.5 C518.59 16.89, 517.28 24.04, 518 28.5 M518 28.5 C519.93 35.41, 513.54 36.5, 508.5 38 M518 28.5 C518.93 34.63, 517.1 38.39, 508.5 38 M508.5 38 C325.3 37.71, 144.18 37.94, 9.5 38 M508.5 38 C348.99 39.73, 189.19 39.82, 9.5 38 M9.5 38 C3.42 37.77, 1.8 35.39, 0 28.5 M9.5 38 C2.12 35.99, -2.13 33.16, 0 28.5 M0 28.5 C-1.26 23.42, 1.09 13.66, 0 9.5 M0 28.5 C0.27 22.96, 0.81 17.73, 0 9.5 M0 9.5 C-1.27 3.1, 4.08 1.28, 9.5 0 M0 9.5 C0.97 2.6, 5.17 -0.76, 9.5 0" stroke="#1e1e1e" stroke-width="2" fill="none"></path></g><g transform="translate(760.5400314331055 484.74996185302734) rotate(0 41.95996856689453 12.5)"><text x="41.95996856689453" y="17.52" font-family="Virgil, Segoe UI Emoji" font-size="20px" fill="#1e1e1e" text-anchor="middle" style="white-space: pre;" direction="ltr" dominant-baseline="alphabetic">id: 8,......</text></g><g stroke-linecap="round" transform="translate(543.5 518.2499618530273) rotate(0 259 19)"><path d="M9.5 0 C114.84 -1.67, 220.15 -1.66, 508.5 0 M9.5 0 C183.04 -1.24, 356.11 -1.27, 508.5 0 M508.5 0 C516.25 0.38, 517.54 2.42, 518 9.5 M508.5 0 C517.06 2.27, 518.37 4.67, 518 9.5 M518 9.5 C519.26 17.32, 516.43 23.55, 518 28.5 M518 9.5 C518.75 16.33, 517.22 21.9, 518 28.5 M518 28.5 C518.81 34.65, 516.8 38.34, 508.5 38 M518 28.5 C519.51 36.02, 513.94 35.93, 508.5 38 M508.5 38 C328.84 39.91, 149.54 40.17, 9.5 38 M508.5 38 C353.96 38.59, 199.69 38.75, 9.5 38 M9.5 38 C2.26 36.25, -1.85 33.38, 0 28.5 M9.5 38 C4.35 37.66, 1.89 33.27, 0 28.5 M0 28.5 C-0.28 21.88, 0.32 14.58, 0 9.5 M0 28.5 C-0.78 22.81, 0.26 17.78, 0 9.5 M0 9.5 C0.85 2.68, 4.91 -0.66, 9.5 0 M0 9.5 C1.65 4.8, 3.46 0.51, 9.5 0" stroke="#1e1e1e" stroke-width="2" fill="none"></path></g><g transform="translate(762.1000289916992 524.7499618530273) rotate(0 40.39997100830078 12.5)"><text x="40.39997100830078" y="17.52" font-family="Virgil, Segoe UI Emoji" font-size="20px" fill="#1e1e1e" text-anchor="middle" style="white-space: pre;" direction="ltr" dominant-baseline="alphabetic">id: 9,......</text></g><g stroke-linecap="round" transform="translate(542.5 555.2499618530273) rotate(0 259 19)"><path d="M9.5 0 C118.75 1.2, 227.21 2.12, 508.5 0 M9.5 0 C203.23 1.93, 397.24 1.66, 508.5 0 M508.5 0 C513.92 1.11, 517.75 1.52, 518 9.5 M508.5 0 C516.32 -0.59, 518.57 4.27, 518 9.5 M518 9.5 C518.75 14.99, 516.22 21.14, 518 28.5 M518 9.5 C517.55 16.93, 517.33 23.17, 518 28.5 M518 28.5 C518.5 33.85, 515.34 39.49, 508.5 38 M518 28.5 C516.15 33.12, 515.95 37.21, 508.5 38 M508.5 38 C359.7 36.07, 209.84 36.04, 9.5 38 M508.5 38 C378.67 39.61, 248.58 39.74, 9.5 38 M9.5 38 C4.2 39.54, -0.59 34.02, 0 28.5 M9.5 38 C3.75 37, -1.96 35.15, 0 28.5 M0 28.5 C-1.73 24.32, 1 17.72, 0 9.5 M0 28.5 C-0.22 21.81, -0.76 14.28, 0 9.5 M0 9.5 C-1.18 1.96, 1.87 1.76, 9.5 0 M0 9.5 C-1.86 4.87, 3.25 -0.65, 9.5 0" stroke="#1e1e1e" stroke-width="2" fill="none"></path></g><g transform="translate(757.6000289916992 561.7499618530273) rotate(0 43.89997100830078 12.5)"><text x="43.89997100830078" y="17.52" font-family="Virgil, Segoe UI Emoji" font-size="20px" fill="#1e1e1e" text-anchor="middle" style="white-space: pre;" direction="ltr" dominant-baseline="alphabetic">id: 10,......</text></g><g stroke-linecap="round" transform="translate(543.5 594.2499618530273) rotate(0 259 19)"><path d="M9.5 0 C127.38 -0.5, 243.04 -0.88, 508.5 0 M9.5 0 C149.48 1.93, 289.78 1.37, 508.5 0 M508.5 0 C516.13 -0.51, 518.49 4.13, 518 9.5 M508.5 0 C514.49 -2.19, 519.09 4.29, 518 9.5 M518 9.5 C519.1 16.3, 517.46 19.92, 518 28.5 M518 9.5 C518.08 15.67, 518.09 23.49, 518 28.5 M518 28.5 C516.39 33.34, 515.8 37.31, 508.5 38 M518 28.5 C517.97 33.28, 512.77 38.73, 508.5 38 M508.5 38 C367.13 37.11, 227.13 38.18, 9.5 38 M508.5 38 C386.72 37.84, 264.4 37.37, 9.5 38 M9.5 38 C3.68 37.13, -1.7 35.11, 0 28.5 M9.5 38 C2.04 39.91, -0.71 32.92, 0 28.5 M0 28.5 C0.83 20.61, -0.17 15.15, 0 9.5 M0 28.5 C-0.38 22.32, -0.43 18.13, 0 9.5 M0 9.5 C-1.62 4.65, 3.24 -0.57, 9.5 0 M0 9.5 C1.93 2.95, 1.92 1.68, 9.5 0" stroke="#1e1e1e" stroke-width="2" fill="none"></path></g><g transform="translate(762.7700271606445 600.7499618530273) rotate(0 39.72997283935547 12.5)"><text x="39.72997283935547" y="17.52" font-family="Virgil, Segoe UI Emoji" font-size="20px" fill="#1e1e1e" text-anchor="middle" style="white-space: pre;" direction="ltr" dominant-baseline="alphabetic">id: 11,......</text></g><g stroke-linecap="round" transform="translate(541.5 634.2499618530273) rotate(0 259 19)"><path d="M9.5 0 C189.77 0.5, 369.66 -0.65, 508.5 0 M9.5 0 C187.03 1.55, 364.14 1.84, 508.5 0 M508.5 0 C514.54 -1.9, 518.95 4.14, 518 9.5 M508.5 0 C514.92 -1.94, 518.97 4.69, 518 9.5 M518 9.5 C518.9 14.69, 517.46 23.44, 518 28.5 M518 9.5 C517.28 13.56, 518.51 18.7, 518 28.5 M518 28.5 C517.97 33.48, 513.04 38.63, 508.5 38 M518 28.5 C517.6 33.28, 514.37 37.1, 508.5 38 M508.5 38 C388.94 40.11, 270.09 39.88, 9.5 38 M508.5 38 C320.39 37.01, 131.73 37.24, 9.5 38 M9.5 38 C2.19 39.67, -0.62 33.17, 0 28.5 M9.5 38 C3.89 39.41, -1.5 35.97, 0 28.5 M0 28.5 C-0.09 22.55, -1.86 19.16, 0 9.5 M0 28.5 C-0.65 24.65, 0.16 19.12, 0 9.5 M0 9.5 C1.68 2.98, 2.08 1.46, 9.5 0 M0 9.5 C-0.66 5.13, 4.22 0.33, 9.5 0" stroke="#1e1e1e" stroke-width="2" fill="none"></path></g><g transform="translate(756.3600311279297 640.7499618530273) rotate(0 44.13996887207031 12.5)"><text x="44.13996887207031" y="17.52" font-family="Virgil, Segoe UI Emoji" font-size="20px" fill="#1e1e1e" text-anchor="middle" style="white-space: pre;" direction="ltr" dominant-baseline="alphabetic">id: 12,......</text></g><g transform="translate(760 163.74996185302734) rotate(0 35.749961853027344 12.5)"><text x="0" y="17.52" font-family="Virgil, Segoe UI Emoji" font-size="20px" fill="#1e1e1e" text-anchor="start" style="white-space: pre;" direction="ltr" dominant-baseline="alphabetic">records</text></g><g stroke-linecap="round" transform="translate(10 40.41667938232422) rotate(0 227.5 21.25)"><path d="M10.63 0 C130.87 1.79, 252.24 0.85, 444.38 0 M10.63 0 C181.97 0.6, 352.58 0.8, 444.38 0 M444.38 0 C452.9 0.72, 453 4.45, 455 10.63 M444.38 0 C452.97 0.28, 455.02 5.36, 455 10.63 M455 10.63 C454.94 18.03, 454.45 22.61, 455 31.88 M455 10.63 C454.75 15.62, 454.36 19.67, 455 31.88 M455 31.88 C453.27 39.97, 450.07 41.19, 444.38 42.5 M455 31.88 C454.91 39.6, 453.21 41.29, 444.38 42.5 M444.38 42.5 C273.15 40.36, 104.49 40.67, 10.63 42.5 M444.38 42.5 C277.56 41.13, 110.28 41.18, 10.63 42.5 M10.63 42.5 C4.86 40.99, 1.74 40.33, 0 31.88 M10.63 42.5 C2.48 42.27, 0.21 39.83, 0 31.88 M0 31.88 C-1.34 24.01, -0.06 13.85, 0 10.63 M0 31.88 C-0.1 25.25, -0.53 17.12, 0 10.63 M0 10.63 C0.99 3.74, 4.41 -0.41, 10.63 0 M0 10.63 C1.08 4.23, 4.11 2.29, 10.63 0" stroke="#1e1e1e" stroke-width="2" fill="none"></path></g><g transform="translate(197.5 10) rotate(0 30 12.5)"><text x="0" y="17.52" font-family="Virgil, Segoe UI Emoji" font-size="20px" fill="#1e1e1e" text-anchor="start" style="white-space: pre;" direction="ltr" dominant-baseline="alphabetic">叶节点</text></g><g transform="translate(22.5 52.5) rotate(0 9.319992065429688 12.5)"><text x="0" y="17.52" font-family="Virgil, Segoe UI Emoji" font-size="20px" fill="#1e1e1e" text-anchor="start" style="white-space: pre;" direction="ltr" dominant-baseline="alphabetic">P1</text></g><g stroke-linecap="round"><g transform="translate(50 40.41667938232422) rotate(0 0 21.25)"><path d="M-0.49 0.15 C-0.48 7.18, -0.28 35.22, -0.19 42.31 M0.26 -0.25 C0.2 6.85, -0.63 35.92, -0.72 42.91" stroke="#1e1e1e" stroke-width="2" fill="none"></path></g></g><mask></mask><g transform="translate(67.5 50) rotate(0 16.759986877441406 12.5)"><text x="0" y="17.52" font-family="Virgil, Segoe UI Emoji" font-size="20px" fill="#1e1e1e" text-anchor="start" style="white-space: pre;" direction="ltr" dominant-baseline="alphabetic">id=1</text></g><g transform="translate(135 47.5) rotate(0 13.729988098144531 12.5)"><text x="0" y="17.52" font-family="Virgil, Segoe UI Emoji" font-size="20px" fill="#1e1e1e" text-anchor="start" style="white-space: pre;" direction="ltr" dominant-baseline="alphabetic">P2</text></g><g transform="translate(182.5 52.499961853027344) rotate(0 21.16998291015625 12.5)"><text x="0" y="17.52" font-family="Virgil, Segoe UI Emoji" font-size="20px" fill="#1e1e1e" text-anchor="start" style="white-space: pre;" direction="ltr" dominant-baseline="alphabetic">id=2</text></g><g transform="translate(257.5 52.499961853027344) rotate(0 13.419990539550781 12.5)"><text x="0" y="17.52" font-family="Virgil, Segoe UI Emoji" font-size="20px" fill="#1e1e1e" text-anchor="start" style="white-space: pre;" direction="ltr" dominant-baseline="alphabetic">P3</text></g><g transform="translate(320 52.499961853027344) rotate(0 20.8599853515625 12.5)"><text x="0" y="17.52" font-family="Virgil, Segoe UI Emoji" font-size="20px" fill="#1e1e1e" text-anchor="start" style="white-space: pre;" direction="ltr" dominant-baseline="alphabetic">id=3</text></g><g transform="translate(402.5 49.999961853027344) rotate(0 22.439979553222656 12.5)"><text x="0" y="17.52" font-family="Virgil, Segoe UI Emoji" font-size="20px" fill="#1e1e1e" text-anchor="start" style="white-space: pre;" direction="ltr" dominant-baseline="alphabetic">Pend</text></g><g stroke-linecap="round"><g transform="translate(122.5 40.41667938232422) rotate(0 0 21.25)"><path d="M-0.03 -0.38 C-0.17 6.76, -0.44 35.34, -0.35 42.48 M-0.72 0.62 C-0.71 7.88, 0.51 36.1, 0.7 43.17" stroke="#1e1e1e" stroke-width="2" fill="none"></path></g></g><mask></mask><g stroke-linecap="round"><g transform="translate(172.5 40.41667938232422) rotate(0 0 21.25)"><path d="M0.45 -0.47 C0.44 6.64, 0.24 35.54, 0.24 42.8 M0.01 0.47 C-0.07 7.41, -0.12 35.02, -0.07 41.98" stroke="#1e1e1e" stroke-width="2" fill="none"></path></g></g><mask></mask><g stroke-linecap="round"><g transform="translate(240 40.41667938232422) rotate(0 0 21.25)"><path d="M0.46 -0.47 C0.47 6.66, 0.3 35.54, 0.18 42.7 M0.04 0.48 C-0.03 7.45, -0.03 34.74, -0.17 41.84" stroke="#1e1e1e" stroke-width="2" fill="none"></path></g></g><mask></mask><g stroke-linecap="round"><g transform="translate(305 40.41667938232422) rotate(0 0 21.25)"><path d="M0.44 0.06 C0.58 7.24, 0.44 35.67, 0.3 42.76 M0.01 -0.38 C0.14 6.66, -0.09 34.66, 0.02 41.93" stroke="#1e1e1e" stroke-width="2" fill="none"></path></g></g><mask></mask><g stroke-linecap="round"><g transform="translate(377.5 40.41667938232422) rotate(0 0 21.25)"><path d="M-0.35 0.43 C-0.25 7.44, 0.25 35.23, 0.4 42.32 M0.48 0.18 C0.56 7.23, 0.18 35.93, 0.17 42.92" stroke="#1e1e1e" stroke-width="2" fill="none"></path></g></g><mask></mask><g stroke-linecap="round"><g transform="translate(30 87.91667938232422) rotate(0 253.75 62.5)"><path d="M0.62 -1.06 C10.22 16.97, -26.61 86.24, 57.76 107.45 C142.13 128.66, 431.71 123.44, 506.83 126.19 M-0.51 1 C8.94 19.29, -27.42 88.38, 56.95 108.96 C141.32 129.54, 430.33 121.88, 505.71 124.48" stroke="#1e1e1e" stroke-width="2" fill="none"></path></g><g transform="translate(30 87.91667938232422) rotate(0 253.75 62.5)"><path d="M482.17 132.91 C487.83 130.58, 496.88 126.39, 505.71 124.48 M482.17 132.91 C491.94 128.78, 501.82 125.41, 505.71 124.48" stroke="#1e1e1e" stroke-width="2" fill="none"></path></g><g transform="translate(30 87.91667938232422) rotate(0 253.75 62.5)"><path d="M482.26 115.8 C487.79 118.83, 496.81 120, 505.71 124.48 M482.26 115.8 C492.13 118.51, 501.97 121.97, 505.71 124.48" stroke="#1e1e1e" stroke-width="2" fill="none"></path></g></g><mask></mask><g stroke-linecap="round"><g transform="translate(145 85.41667938232422) rotate(0 195 83.75)"><path d="M0.65 -0.92 C8.37 24.06, -19.39 121.72, 45.31 149.82 C110.01 177.93, 331.57 164.89, 388.85 167.71 M-0.47 1.21 C7.2 26.39, -20.75 123.28, 44.52 151.26 C109.79 179.25, 333.78 166.44, 391.13 169.14" stroke="#1e1e1e" stroke-width="2" fill="none"></path></g><g transform="translate(145 85.41667938232422) rotate(0 195 83.75)"><path d="M367.67 177.75 C371.24 176.26, 377.58 171.95, 391.13 169.14 M367.67 177.75 C375.34 175.63, 381.82 171.81, 391.13 169.14" stroke="#1e1e1e" stroke-width="2" fill="none"></path></g><g transform="translate(145 85.41667938232422) rotate(0 195 83.75)"><path d="M367.62 160.65 C371.19 162.88, 377.54 162.29, 391.13 169.14 M367.62 160.65 C375.15 163.96, 381.65 165.56, 391.13 169.14" stroke="#1e1e1e" stroke-width="2" fill="none"></path></g></g><mask></mask><g stroke-linecap="round"><g transform="translate(272.5 82.91667938232422) rotate(0 130 106.25001907348633)"><path d="M0.78 -0.47 C6.42 32.2, -9.75 160.52, 33.3 195.99 C76.35 231.45, 221.3 209.73, 259.09 212.33 M-0.28 -1.76 C5.33 30.58, -10.86 158.5, 32.77 194.38 C76.4 230.27, 223.59 210.59, 261.51 213.56" stroke="#1e1e1e" stroke-width="2" fill="none"></path></g><g transform="translate(272.5 82.91667938232422) rotate(0 130 106.25001907348633)"><path d="M238.22 222.65 C243.34 221.52, 251.68 216.37, 261.51 213.56 M238.22 222.65 C245.45 220.97, 251.92 218.3, 261.51 213.56" stroke="#1e1e1e" stroke-width="2" fill="none"></path></g><g transform="translate(272.5 82.91667938232422) rotate(0 130 106.25001907348633)"><path d="M237.82 205.55 C243.05 208.76, 251.49 207.94, 261.51 213.56 M237.82 205.55 C245.18 208.76, 251.76 210.98, 261.51 213.56" stroke="#1e1e1e" stroke-width="2" fill="none"></path></g></g><mask></mask><g stroke-linecap="round"><g transform="translate(470 62.91667938232422) rotate(0 53.75 -1.25)"><path d="M1.17 -0.8 C19.12 -1.3, 88.95 -2.18, 106.57 -2.66 M0.32 1.39 C18.74 1.05, 91.21 -0.48, 108.79 -1.21" stroke="#1e1e1e" stroke-width="2" fill="none"></path></g><g transform="translate(470 62.91667938232422) rotate(0 53.75 -1.25)"><path d="M85.57 8.03 C88.95 4.37, 94.77 3.02, 108.79 -1.21 M85.57 8.03 C91.05 5.61, 95.49 3.26, 108.79 -1.21" stroke="#1e1e1e" stroke-width="2" fill="none"></path></g><g transform="translate(470 62.91667938232422) rotate(0 53.75 -1.25)"><path d="M85.06 -9.06 C88.59 -9.23, 94.52 -7.09, 108.79 -1.21 M85.06 -9.06 C90.79 -8.06, 95.34 -6.98, 108.79 -1.21" stroke="#1e1e1e" stroke-width="2" fill="none"></path></g></g><mask></mask><g transform="translate(600 52.5) rotate(0 60 12.5)"><text x="0" y="17.52" font-family="Virgil, Segoe UI Emoji" font-size="20px" fill="#1e1e1e" text-anchor="start" style="white-space: pre;" direction="ltr" dominant-baseline="alphabetic">下一个叶节点</text></g></svg>