<svg version="1.1" xmlns="http://www.w3.org/2000/svg" viewBox="0 0 950.1998748779297 553.5" width="950.1998748779297" height="553.5">
  <!-- svg-source:excalidraw -->
  
  <defs>
    <style class="style-fonts">
      @font-face {
        font-family: "Virgil";
        src: url("https://excalidraw.com/Virgil.woff2");
      }
      @font-face {
        font-family: "Cascadia";
        src: url("https://excalidraw.com/Cascadia.woff2");
      }
      @font-face {
        font-family: "Assistant";
        src: url("https://excalidraw.com/Assistant-Regular.woff2");
      }
    </style>
    
  </defs>
  <rect x="0" y="0" width="950.1998748779297" height="553.5" fill="#ffffff"></rect><g stroke-linecap="round" transform="translate(298 66) rotate(0 259 19)"><path d="M9.5 0 C179.63 -0.34, 349.85 0.12, 508.5 0 M9.5 0 C180.44 1.81, 350.7 1.9, 508.5 0 M508.5 0 C515.28 0.55, 517.89 2.44, 518 9.5 M508.5 0 C514.45 -1.6, 516.64 4.97, 518 9.5 M518 9.5 C517.64 15.57, 518.02 22.52, 518 28.5 M518 9.5 C518.75 14.03, 518.53 18.87, 518 28.5 M518 28.5 C517.69 35.13, 513.45 39.24, 508.5 38 M518 28.5 C517.3 33.36, 512.93 38.73, 508.5 38 M508.5 38 C388.76 36.83, 269.64 37.25, 9.5 38 M508.5 38 C405.57 39.95, 302.92 40.2, 9.5 38 M9.5 38 C3.28 39.34, -0.59 36.51, 0 28.5 M9.5 38 C3.95 40.22, -1.84 34.85, 0 28.5 M0 28.5 C0.34 21.04, -0.45 17.64, 0 9.5 M0 28.5 C-0.44 24.38, -0.62 19.53, 0 9.5 M0 9.5 C-1.19 3.85, 3.25 1.57, 9.5 0 M0 9.5 C-0.39 4.99, 2.09 2.08, 9.5 0" stroke="#1e1e1e" stroke-width="2" fill="none"></path></g><g transform="translate(519.9800262451172 72.5) rotate(0 37.01997375488281 12.5)"><text x="37.01997375488281" y="17.52" font-family="Virgil, Segoe UI Emoji" font-size="20px" fill="#1e1e1e" text-anchor="middle" style="white-space: pre;" direction="ltr" dominant-baseline="alphabetic">id: 1,......</text></g><g stroke-linecap="round" transform="translate(297 107) rotate(0 259 19)"><path d="M9.5 0 C202.94 0.67, 395.71 -0.15, 508.5 0 M9.5 0 C191.64 -0.94, 373.7 -1.34, 508.5 0 M508.5 0 C515.74 1.22, 518.48 4.52, 518 9.5 M508.5 0 C514.52 2.07, 516.58 3.86, 518 9.5 M518 9.5 C518.08 16.48, 517.2 23.57, 518 28.5 M518 9.5 C518.65 15.73, 517.87 22.59, 518 28.5 M518 28.5 C516.34 33.5, 516.14 38.96, 508.5 38 M518 28.5 C517.5 34.75, 514.41 38.03, 508.5 38 M508.5 38 C406.8 37.53, 303.56 38.17, 9.5 38 M508.5 38 C316.75 38.97, 125.32 39.2, 9.5 38 M9.5 38 C4.24 38.63, -0.17 33.94, 0 28.5 M9.5 38 C4.85 39.81, 0.02 34.6, 0 28.5 M0 28.5 C-0.42 23.63, 0.95 18.13, 0 9.5 M0 28.5 C0.47 21.55, -0.34 13.26, 0 9.5 M0 9.5 C1.18 4.26, 4.78 -1.42, 9.5 0 M0 9.5 C0.99 3.14, 4.99 1.41, 9.5 0" stroke="#1e1e1e" stroke-width="2" fill="none"></path></g><g transform="translate(514.5700302124023 113.5) rotate(0 41.429969787597656 12.5)"><text x="41.429969787597656" y="17.52" font-family="Virgil, Segoe UI Emoji" font-size="20px" fill="#1e1e1e" text-anchor="middle" style="white-space: pre;" direction="ltr" dominant-baseline="alphabetic">id: 2,......</text></g><g stroke-linecap="round" transform="translate(297 147) rotate(0 259 19)"><path d="M9.5 0 C191.91 -0.76, 373.61 -1.38, 508.5 0 M9.5 0 C111.13 -1.95, 212.44 -1.56, 508.5 0 M508.5 0 C515.59 -1.02, 519.36 1.84, 518 9.5 M508.5 0 C515.25 -0.26, 516.06 4.11, 518 9.5 M518 9.5 C519.66 13.89, 519.52 17.34, 518 28.5 M518 9.5 C518.93 17.34, 518.91 23.55, 518 28.5 M518 28.5 C517.79 32.93, 516.12 36.32, 508.5 38 M518 28.5 C519.94 33.15, 513.1 38.65, 508.5 38 M508.5 38 C382.05 39.09, 255.99 37.85, 9.5 38 M508.5 38 C369.76 37.75, 230.94 38.28, 9.5 38 M9.5 38 C2.33 36.85, -1.07 35.66, 0 28.5 M9.5 38 C3.87 36.82, -0.6 34.27, 0 28.5 M0 28.5 C-1.04 22.28, -0.89 17.77, 0 9.5 M0 28.5 C0.49 22.29, -0.73 16.16, 0 9.5 M0 9.5 C-1.38 2.93, 4.55 0.07, 9.5 0 M0 9.5 C1.34 1.68, 3.06 -0.7, 9.5 0" stroke="#1e1e1e" stroke-width="2" fill="none"></path></g><g transform="translate(514.8800277709961 153.5) rotate(0 41.119972229003906 12.5)"><text x="41.119972229003906" y="17.52" font-family="Virgil, Segoe UI Emoji" font-size="20px" fill="#1e1e1e" text-anchor="middle" style="white-space: pre;" direction="ltr" dominant-baseline="alphabetic">id: 3,......</text></g><g stroke-linecap="round" transform="translate(297.5 186.5) rotate(0 259 19)"><path d="M9.5 0 C206 0.84, 403.83 0.63, 508.5 0 M9.5 0 C166.73 -1.26, 324.57 -1.76, 508.5 0 M508.5 0 C516.14 1.57, 516.88 3.89, 518 9.5 M508.5 0 C514.83 2.11, 518.63 1.52, 518 9.5 M518 9.5 C517.97 13.26, 519.75 17.27, 518 28.5 M518 9.5 C519.03 16.22, 519.03 24.77, 518 28.5 M518 28.5 C518.56 35.72, 514.69 36.23, 508.5 38 M518 28.5 C516.35 33.39, 513.37 36.59, 508.5 38 M508.5 38 C365.35 38.61, 224.19 38.81, 9.5 38 M508.5 38 C380.48 36.72, 251.62 36.82, 9.5 38 M9.5 38 C2.73 39.9, -1.94 33.55, 0 28.5 M9.5 38 C4.38 39.92, 2.16 33.24, 0 28.5 M0 28.5 C-1.29 23.65, 1.54 18.22, 0 9.5 M0 28.5 C0.43 24.21, 0.22 21.37, 0 9.5 M0 9.5 C-0.91 5.16, 4.67 -1.33, 9.5 0 M0 9.5 C-1.02 2.9, 5.02 1.81, 9.5 0" stroke="#1e1e1e" stroke-width="2" fill="none"></path></g><g transform="translate(515.7900314331055 193) rotate(0 40.70996856689453 12.5)"><text x="40.70996856689453" y="17.52" font-family="Virgil, Segoe UI Emoji" font-size="20px" fill="#1e1e1e" text-anchor="middle" style="white-space: pre;" direction="ltr" dominant-baseline="alphabetic">id: 4,......</text></g><g stroke-linecap="round" transform="translate(296.5 227.5) rotate(0 259 19)"><path d="M9.5 0 C197.18 -1.35, 385.27 -1.78, 508.5 0 M9.5 0 C205.68 0.95, 401.12 0.77, 508.5 0 M508.5 0 C514.83 1.84, 518.55 1.73, 518 9.5 M508.5 0 C512.96 1.22, 517.26 3.01, 518 9.5 M518 9.5 C519.7 16.44, 516.65 21.85, 518 28.5 M518 9.5 C518.44 14.59, 518.11 17.99, 518 28.5 M518 28.5 C516.56 33.58, 513.56 36.78, 508.5 38 M518 28.5 C517.66 36.85, 515.16 35.85, 508.5 38 M508.5 38 C338.27 39.16, 168.15 39.92, 9.5 38 M508.5 38 C340.29 39.61, 171.86 38.98, 9.5 38 M9.5 38 C4.22 39.67, 1.88 33.45, 0 28.5 M9.5 38 C1.46 37.03, -0.25 33.17, 0 28.5 M0 28.5 C-1.81 21.61, -0.1 18.73, 0 9.5 M0 28.5 C-0.44 24.27, 0.71 17.52, 0 9.5 M0 9.5 C-0.89 2.94, 4.78 1.57, 9.5 0 M0 9.5 C-1.4 4, 1.52 -2.13, 9.5 0" stroke="#1e1e1e" stroke-width="2" fill="none"></path></g><g transform="translate(515.0100326538086 234) rotate(0 40.489967346191406 12.5)"><text x="40.489967346191406" y="17.52" font-family="Virgil, Segoe UI Emoji" font-size="20px" fill="#1e1e1e" text-anchor="middle" style="white-space: pre;" direction="ltr" dominant-baseline="alphabetic">id: 5,......</text></g><g stroke-linecap="round" transform="translate(296.5 267.5) rotate(0 259 19)"><path d="M9.5 0 C138.69 1.6, 266.13 2.46, 508.5 0 M9.5 0 C198.44 -0.35, 387.49 -1.01, 508.5 0 M508.5 0 C513.21 1.06, 517.36 3.03, 518 9.5 M508.5 0 C514.35 2, 517.35 5.03, 518 9.5 M518 9.5 C516.82 18.57, 519.45 24.71, 518 28.5 M518 9.5 C517.3 15.45, 517.38 22.01, 518 28.5 M518 28.5 C517.71 36.59, 515.12 36.13, 508.5 38 M518 28.5 C518.93 36.25, 516.34 37.01, 508.5 38 M508.5 38 C368.59 39.05, 228.57 39.35, 9.5 38 M508.5 38 C311.64 37.05, 114.73 36.44, 9.5 38 M9.5 38 C1.68 37.16, -0.22 33.39, 0 28.5 M9.5 38 C2.49 39.77, -2.06 32.81, 0 28.5 M0 28.5 C-0.53 24.64, 1.87 19.74, 0 9.5 M0 28.5 C-0.57 20.8, 0.62 14.06, 0 9.5 M0 9.5 C-1.22 3.89, 1.73 -1.85, 9.5 0 M0 9.5 C1.42 1.88, 4.85 -0.04, 9.5 0" stroke="#1e1e1e" stroke-width="2" fill="none"></path></g><g transform="translate(514.7900314331055 274) rotate(0 40.70996856689453 12.5)"><text x="40.70996856689453" y="17.52" font-family="Virgil, Segoe UI Emoji" font-size="20px" fill="#1e1e1e" text-anchor="middle" style="white-space: pre;" direction="ltr" dominant-baseline="alphabetic">id: 6,......</text></g><g stroke-linecap="round" transform="translate(297.5 308.5) rotate(0 259 19)"><path d="M9.5 0 C181.39 -0.11, 354.23 -0.27, 508.5 0 M9.5 0 C148 -1.55, 285.84 -1.45, 508.5 0 M508.5 0 C514.97 0.95, 517.8 4.53, 518 9.5 M508.5 0 C515.34 0.72, 516.27 3.76, 518 9.5 M518 9.5 C517.33 18.39, 519.91 23.9, 518 28.5 M518 9.5 C518.22 17.07, 518.71 22.59, 518 28.5 M518 28.5 C518.97 35.74, 513.05 39.32, 508.5 38 M518 28.5 C520.22 35.5, 513.35 36.27, 508.5 38 M508.5 38 C338.76 40.5, 169.17 39.66, 9.5 38 M508.5 38 C404.12 39.64, 299.09 39.9, 9.5 38 M9.5 38 C4.14 38.2, 0.53 35.47, 0 28.5 M9.5 38 C3.46 37.74, 2.07 35.47, 0 28.5 M0 28.5 C-1.21 24.64, -0.12 20.39, 0 9.5 M0 28.5 C-0.91 24, 0.18 19.89, 0 9.5 M0 9.5 C0.7 3.13, 5.02 0.57, 9.5 0 M0 9.5 C-1.46 3.09, 4.21 1.47, 9.5 0" stroke="#1e1e1e" stroke-width="2" fill="none"></path></g><g transform="translate(516.8100280761719 315) rotate(0 39.689971923828125 12.5)"><text x="39.689971923828125" y="17.52" font-family="Virgil, Segoe UI Emoji" font-size="20px" fill="#1e1e1e" text-anchor="middle" style="white-space: pre;" direction="ltr" dominant-baseline="alphabetic">id: 7,......</text></g><g stroke-linecap="round" transform="translate(296.5 349.5) rotate(0 259 19)"><path d="M9.5 0 C130.37 0.84, 252.28 2.25, 508.5 0 M9.5 0 C172.9 -0.84, 336.21 -0.76, 508.5 0 M508.5 0 C515.27 0.63, 516.5 3.68, 518 9.5 M508.5 0 C516.47 0.44, 517.47 2.31, 518 9.5 M518 9.5 C519.43 17.9, 518.27 24.86, 518 28.5 M518 9.5 C518.59 16.89, 517.28 24.04, 518 28.5 M518 28.5 C519.93 35.41, 513.54 36.5, 508.5 38 M518 28.5 C518.93 34.63, 517.1 38.39, 508.5 38 M508.5 38 C325.3 37.71, 144.18 37.94, 9.5 38 M508.5 38 C348.99 39.73, 189.19 39.82, 9.5 38 M9.5 38 C3.42 37.77, 1.8 35.39, 0 28.5 M9.5 38 C2.12 35.99, -2.13 33.16, 0 28.5 M0 28.5 C-1.26 23.42, 1.09 13.66, 0 9.5 M0 28.5 C0.27 22.96, 0.81 17.73, 0 9.5 M0 9.5 C-1.27 3.1, 4.08 1.28, 9.5 0 M0 9.5 C0.97 2.6, 5.17 -0.76, 9.5 0" stroke="#1e1e1e" stroke-width="2" fill="none"></path></g><g transform="translate(513.5400314331055 356) rotate(0 41.95996856689453 12.5)"><text x="41.95996856689453" y="17.52" font-family="Virgil, Segoe UI Emoji" font-size="20px" fill="#1e1e1e" text-anchor="middle" style="white-space: pre;" direction="ltr" dominant-baseline="alphabetic">id: 8,......</text></g><g stroke-linecap="round" transform="translate(296.5 389.5) rotate(0 259 19)"><path d="M9.5 0 C114.84 -1.67, 220.15 -1.66, 508.5 0 M9.5 0 C183.04 -1.24, 356.11 -1.27, 508.5 0 M508.5 0 C516.25 0.38, 517.54 2.42, 518 9.5 M508.5 0 C517.06 2.27, 518.37 4.67, 518 9.5 M518 9.5 C519.26 17.32, 516.43 23.55, 518 28.5 M518 9.5 C518.75 16.33, 517.22 21.9, 518 28.5 M518 28.5 C518.81 34.65, 516.8 38.34, 508.5 38 M518 28.5 C519.51 36.02, 513.94 35.93, 508.5 38 M508.5 38 C328.84 39.91, 149.54 40.17, 9.5 38 M508.5 38 C353.96 38.59, 199.69 38.75, 9.5 38 M9.5 38 C2.26 36.25, -1.85 33.38, 0 28.5 M9.5 38 C4.35 37.66, 1.89 33.27, 0 28.5 M0 28.5 C-0.28 21.88, 0.32 14.58, 0 9.5 M0 28.5 C-0.78 22.81, 0.26 17.78, 0 9.5 M0 9.5 C0.85 2.68, 4.91 -0.66, 9.5 0 M0 9.5 C1.65 4.8, 3.46 0.51, 9.5 0" stroke="#1e1e1e" stroke-width="2" fill="none"></path></g><g transform="translate(515.1000289916992 396) rotate(0 40.39997100830078 12.5)"><text x="40.39997100830078" y="17.52" font-family="Virgil, Segoe UI Emoji" font-size="20px" fill="#1e1e1e" text-anchor="middle" style="white-space: pre;" direction="ltr" dominant-baseline="alphabetic">id: 9,......</text></g><g stroke-linecap="round" transform="translate(295.5 426.5) rotate(0 259 19)"><path d="M9.5 0 C118.75 1.2, 227.21 2.12, 508.5 0 M9.5 0 C203.23 1.93, 397.24 1.66, 508.5 0 M508.5 0 C513.92 1.11, 517.75 1.52, 518 9.5 M508.5 0 C516.32 -0.59, 518.57 4.27, 518 9.5 M518 9.5 C518.75 14.99, 516.22 21.14, 518 28.5 M518 9.5 C517.55 16.93, 517.33 23.17, 518 28.5 M518 28.5 C518.5 33.85, 515.34 39.49, 508.5 38 M518 28.5 C516.15 33.12, 515.95 37.21, 508.5 38 M508.5 38 C359.7 36.07, 209.84 36.04, 9.5 38 M508.5 38 C378.67 39.61, 248.58 39.74, 9.5 38 M9.5 38 C4.2 39.54, -0.59 34.02, 0 28.5 M9.5 38 C3.75 37, -1.96 35.15, 0 28.5 M0 28.5 C-1.73 24.32, 1 17.72, 0 9.5 M0 28.5 C-0.22 21.81, -0.76 14.28, 0 9.5 M0 9.5 C-1.18 1.96, 1.87 1.76, 9.5 0 M0 9.5 C-1.86 4.87, 3.25 -0.65, 9.5 0" stroke="#1e1e1e" stroke-width="2" fill="none"></path></g><g transform="translate(510.6000289916992 433) rotate(0 43.89997100830078 12.5)"><text x="43.89997100830078" y="17.52" font-family="Virgil, Segoe UI Emoji" font-size="20px" fill="#1e1e1e" text-anchor="middle" style="white-space: pre;" direction="ltr" dominant-baseline="alphabetic">id: 10,......</text></g><g stroke-linecap="round" transform="translate(296.5 465.5) rotate(0 259 19)"><path d="M9.5 0 C127.38 -0.5, 243.04 -0.88, 508.5 0 M9.5 0 C149.48 1.93, 289.78 1.37, 508.5 0 M508.5 0 C516.13 -0.51, 518.49 4.13, 518 9.5 M508.5 0 C514.49 -2.19, 519.09 4.29, 518 9.5 M518 9.5 C519.1 16.3, 517.46 19.92, 518 28.5 M518 9.5 C518.08 15.67, 518.09 23.49, 518 28.5 M518 28.5 C516.39 33.34, 515.8 37.31, 508.5 38 M518 28.5 C517.97 33.28, 512.77 38.73, 508.5 38 M508.5 38 C367.13 37.11, 227.13 38.18, 9.5 38 M508.5 38 C386.72 37.84, 264.4 37.37, 9.5 38 M9.5 38 C3.68 37.13, -1.7 35.11, 0 28.5 M9.5 38 C2.04 39.91, -0.71 32.92, 0 28.5 M0 28.5 C0.83 20.61, -0.17 15.15, 0 9.5 M0 28.5 C-0.38 22.32, -0.43 18.13, 0 9.5 M0 9.5 C-1.62 4.65, 3.24 -0.57, 9.5 0 M0 9.5 C1.93 2.95, 1.92 1.68, 9.5 0" stroke="#1e1e1e" stroke-width="2" fill="none"></path></g><g transform="translate(515.7700271606445 472) rotate(0 39.72997283935547 12.5)"><text x="39.72997283935547" y="17.52" font-family="Virgil, Segoe UI Emoji" font-size="20px" fill="#1e1e1e" text-anchor="middle" style="white-space: pre;" direction="ltr" dominant-baseline="alphabetic">id: 11,......</text></g><g stroke-linecap="round" transform="translate(294.5 505.5) rotate(0 259 19)"><path d="M9.5 0 C189.77 0.5, 369.66 -0.65, 508.5 0 M9.5 0 C187.03 1.55, 364.14 1.84, 508.5 0 M508.5 0 C514.54 -1.9, 518.95 4.14, 518 9.5 M508.5 0 C514.92 -1.94, 518.97 4.69, 518 9.5 M518 9.5 C518.9 14.69, 517.46 23.44, 518 28.5 M518 9.5 C517.28 13.56, 518.51 18.7, 518 28.5 M518 28.5 C517.97 33.48, 513.04 38.63, 508.5 38 M518 28.5 C517.6 33.28, 514.37 37.1, 508.5 38 M508.5 38 C388.94 40.11, 270.09 39.88, 9.5 38 M508.5 38 C320.39 37.01, 131.73 37.24, 9.5 38 M9.5 38 C2.19 39.67, -0.62 33.17, 0 28.5 M9.5 38 C3.89 39.41, -1.5 35.97, 0 28.5 M0 28.5 C-0.09 22.55, -1.86 19.16, 0 9.5 M0 28.5 C-0.65 24.65, 0.16 19.12, 0 9.5 M0 9.5 C1.68 2.98, 2.08 1.46, 9.5 0 M0 9.5 C-0.66 5.13, 4.22 0.33, 9.5 0" stroke="#1e1e1e" stroke-width="2" fill="none"></path></g><g transform="translate(509.3600311279297 512) rotate(0 44.13996887207031 12.5)"><text x="44.13996887207031" y="17.52" font-family="Virgil, Segoe UI Emoji" font-size="20px" fill="#1e1e1e" text-anchor="middle" style="white-space: pre;" direction="ltr" dominant-baseline="alphabetic">id: 12,......</text></g><g stroke-linecap="round" transform="translate(16 108) rotate(0 50 17.5)"><path d="M8.75 0 C41.06 -1.44, 69.07 -0.4, 91.25 0 M8.75 0 C34.13 -0.74, 59.19 0.13, 91.25 0 M91.25 0 C98.54 -0.19, 98.84 1.52, 100 8.75 M91.25 0 C98.99 0.74, 101.68 3.45, 100 8.75 M100 8.75 C100.33 11.42, 100.93 15.63, 100 26.25 M100 8.75 C99.06 14.86, 99.7 19.87, 100 26.25 M100 26.25 C101.49 31.18, 95.14 36.66, 91.25 35 M100 26.25 C98.94 34.27, 98.68 34.1, 91.25 35 M91.25 35 C63.86 35.52, 35.05 33.35, 8.75 35 M91.25 35 C71.25 36.14, 53.25 35.69, 8.75 35 M8.75 35 C4.86 33.19, -0.92 33.28, 0 26.25 M8.75 35 C0.96 34.72, -1.63 31.28, 0 26.25 M0 26.25 C1.77 19.96, 0.93 15.21, 0 8.75 M0 26.25 C-0.23 19.38, -0.03 13.36, 0 8.75 M0 8.75 C1.4 3.53, 4.14 0.72, 8.75 0 M0 8.75 C1.09 0.72, 1.32 1.51, 8.75 0" stroke="#1e1e1e" stroke-width="2" fill="none"></path></g><g transform="translate(39.6500244140625 113) rotate(0 26.3499755859375 12.5)"><text x="26.3499755859375" y="17.52" font-family="Virgil, Segoe UI Emoji" font-size="20px" fill="#1e1e1e" text-anchor="middle" style="white-space: pre;" direction="ltr" dominant-baseline="alphabetic">index1</text></g><g stroke-linecap="round" transform="translate(14 152.5) rotate(0 50 17.5)"><path d="M8.75 0 C39.78 -1.03, 67.16 -1.85, 91.25 0 M8.75 0 C41.68 -1.08, 73.81 -0.9, 91.25 0 M91.25 0 C95.36 1.24, 98.93 2.33, 100 8.75 M91.25 0 C95.88 -1.86, 99.35 4.75, 100 8.75 M100 8.75 C99.04 13.75, 100.03 20.02, 100 26.25 M100 8.75 C100.27 13.06, 100.42 17.74, 100 26.25 M100 26.25 C98.34 32.07, 95.32 36.05, 91.25 35 M100 26.25 C100.51 29.84, 95.01 33.99, 91.25 35 M91.25 35 C65.85 34.43, 41.65 36.74, 8.75 35 M91.25 35 C68.54 34.62, 44.79 34.76, 8.75 35 M8.75 35 C4.33 35.58, 1.72 33.21, 0 26.25 M8.75 35 C1.19 35.57, -2.01 32.5, 0 26.25 M0 26.25 C-0.79 23.8, -0.52 18.59, 0 8.75 M0 26.25 C0.51 22.26, 0.41 16.89, 0 8.75 M0 8.75 C-1.17 1.76, 4.88 0.56, 8.75 0 M0 8.75 C-0.79 4.44, 2.66 1.42, 8.75 0" stroke="#1e1e1e" stroke-width="2" fill="none"></path></g><g transform="translate(33.240028381347656 157.5) rotate(0 30.759971618652344 12.5)"><text x="30.759971618652344" y="17.52" font-family="Virgil, Segoe UI Emoji" font-size="20px" fill="#1e1e1e" text-anchor="middle" style="white-space: pre;" direction="ltr" dominant-baseline="alphabetic">index2</text></g><g stroke-linecap="round" transform="translate(12 192.5) rotate(0 50 17.5)"><path d="M8.75 0 C32.39 1.03, 57.74 -2.41, 91.25 0 M8.75 0 C38.07 -0.57, 68.16 1.04, 91.25 0 M91.25 0 C98.49 -0.98, 99.94 1.91, 100 8.75 M91.25 0 C95.13 0.15, 97.77 1.92, 100 8.75 M100 8.75 C99.53 15.7, 99.89 19.95, 100 26.25 M100 8.75 C100.04 13.14, 99.06 18.85, 100 26.25 M100 26.25 C100.04 33.61, 97.03 34.52, 91.25 35 M100 26.25 C99.37 32.37, 99.11 34.55, 91.25 35 M91.25 35 C59.39 34.99, 27.01 36.77, 8.75 35 M91.25 35 C63.36 35.71, 36.1 35.64, 8.75 35 M8.75 35 C1.08 33.15, 0.22 31, 0 26.25 M8.75 35 C4.48 34.1, -0.5 30.93, 0 26.25 M0 26.25 C0.63 21.82, -1.36 14.71, 0 8.75 M0 26.25 C-0.47 22.59, -0.27 18.32, 0 8.75 M0 8.75 C-1.69 1.68, 0.96 -1.37, 8.75 0 M0 8.75 C0.5 2.54, 2.17 -1.42, 8.75 0" stroke="#1e1e1e" stroke-width="2" fill="none"></path></g><g transform="translate(31.550025939941406 197.5) rotate(0 30.449974060058594 12.5)"><text x="30.449974060058594" y="17.52" font-family="Virgil, Segoe UI Emoji" font-size="20px" fill="#1e1e1e" text-anchor="middle" style="white-space: pre;" direction="ltr" dominant-baseline="alphabetic">index3</text></g><g stroke-linecap="round" transform="translate(14 232.5) rotate(0 50 17.5)"><path d="M8.75 0 C27.45 -0.13, 50.99 1.84, 91.25 0 M8.75 0 C28.61 0.48, 49.19 -0.02, 91.25 0 M91.25 0 C98.31 -1.25, 100.36 2.5, 100 8.75 M91.25 0 C97.91 0, 98.1 2.9, 100 8.75 M100 8.75 C98.38 10.88, 99.32 16.2, 100 26.25 M100 8.75 C99.75 15.45, 100.77 21.75, 100 26.25 M100 26.25 C101.92 30.2, 97.95 35.8, 91.25 35 M100 26.25 C99.58 33.31, 98.71 35.67, 91.25 35 M91.25 35 C59.88 32.63, 27.89 32.54, 8.75 35 M91.25 35 C74.82 34.16, 56.81 34.05, 8.75 35 M8.75 35 C2.92 36.43, 1.17 32.94, 0 26.25 M8.75 35 C4.01 33.38, -1.34 30.75, 0 26.25 M0 26.25 C1.11 19.09, 1.03 10.83, 0 8.75 M0 26.25 C0.36 21.94, -0.11 17.37, 0 8.75 M0 8.75 C-0.75 1.55, 4.16 -0.23, 8.75 0 M0 8.75 C1.46 3.24, 3.13 -0.23, 8.75 0" stroke="#1e1e1e" stroke-width="2" fill="none"></path></g><g transform="translate(33.96002960205078 237.5) rotate(0 30.03997039794922 12.5)"><text x="30.03997039794922" y="17.52" font-family="Virgil, Segoe UI Emoji" font-size="20px" fill="#1e1e1e" text-anchor="middle" style="white-space: pre;" direction="ltr" dominant-baseline="alphabetic">index4</text></g><g stroke-linecap="round"><g transform="translate(120.00000000000006 118.7104803341233) rotate(0 86.99999999999997 -16.284114914407212)"><path d="M-0.55 0.06 C28.61 -5.28, 145.11 -27.63, 174.4 -33.05 M1.36 -0.96 C30.45 -6.05, 144.71 -26.74, 173.66 -31.77" stroke="#1e1e1e" stroke-width="2" fill="none"></path></g><g transform="translate(120.00000000000006 118.7104803341233) rotate(0 86.99999999999997 -16.284114914407212)"><path d="M152.02 -19.24 C157.68 -21.64, 162.23 -23.51, 173.66 -31.77 M152.02 -19.24 C158.1 -22.53, 165.1 -26.18, 173.66 -31.77" stroke="#1e1e1e" stroke-width="2" fill="none"></path></g><g transform="translate(120.00000000000006 118.7104803341233) rotate(0 86.99999999999997 -16.284114914407212)"><path d="M149.03 -36.07 C155.29 -34.22, 160.6 -31.85, 173.66 -31.77 M149.03 -36.07 C155.91 -34.24, 163.83 -32.74, 173.66 -31.77" stroke="#1e1e1e" stroke-width="2" fill="none"></path></g></g><mask></mask><g stroke-linecap="round"><g transform="translate(120.00000000000006 167.71221901887384) rotate(0 87.81822812767783 16.938248546233808)"><path d="M-0.22 -0.51 C29.14 5.1, 145.69 28.61, 175 34.16 M-1.8 -1.83 C28.06 3.37, 147.93 26.29, 177.38 32.18" stroke="#1e1e1e" stroke-width="2" fill="none"></path></g><g transform="translate(120.00000000000006 167.71221901887384) rotate(0 87.81822812767783 16.938248546233808)"><path d="M152.68 36.09 C156.87 34.27, 163.25 34.57, 177.38 32.18 M152.68 36.09 C156.92 34.6, 163.61 33.24, 177.38 32.18" stroke="#1e1e1e" stroke-width="2" fill="none"></path></g><g transform="translate(120.00000000000006 167.71221901887384) rotate(0 87.81822812767783 16.938248546233808)"><path d="M155.95 19.3 C159.53 20.91, 165.24 24.65, 177.38 32.18 M155.95 19.3 C159.45 21.37, 165.46 23.53, 177.38 32.18" stroke="#1e1e1e" stroke-width="2" fill="none"></path></g></g><mask></mask><g stroke-linecap="round"><g transform="translate(116.65925335429347 209.14685129390426) rotate(0 88.53017527350153 79.54988733675279)"><path d="M1.1 1.05 C30.36 27.51, 146.82 132.94, 176.23 159.15 M0.21 0.55 C29.8 27.19, 149.03 134.27, 178.5 160.72" stroke="#1e1e1e" stroke-width="2" fill="none"></path></g><g transform="translate(116.65925335429347 209.14685129390426) rotate(0 88.53017527350153 79.54988733675279)"><path d="M155.31 151.39 C165.3 153.09, 171.85 158.61, 178.5 160.72 M155.31 151.39 C160.85 152.52, 165.97 156.51, 178.5 160.72" stroke="#1e1e1e" stroke-width="2" fill="none"></path></g><g transform="translate(116.65925335429347 209.14685129390426) rotate(0 88.53017527350153 79.54988733675279)"><path d="M166.73 138.66 C172.72 144.98, 175.23 155, 178.5 160.72 M166.73 138.66 C169.58 142.85, 172.01 149.84, 178.5 160.72" stroke="#1e1e1e" stroke-width="2" fill="none"></path></g></g><mask></mask><g stroke-linecap="round"><g transform="translate(119.94432925872059 268.27741912589636) rotate(0 81.78188147328018 125.32861790881066)"><path d="M-0.18 0.34 C27.08 41.93, 137.21 208.18, 164.32 249.98 M-1.73 -0.52 C25.37 41.18, 136.01 209.56, 163.77 251.16" stroke="#1e1e1e" stroke-width="2" fill="none"></path></g><g transform="translate(119.94432925872059 268.27741912589636) rotate(0 81.78188147328018 125.32861790881066)"><path d="M143.68 236.28 C151.63 242.99, 157.25 245.37, 163.77 251.16 M143.68 236.28 C151.42 240.9, 156.9 245.69, 163.77 251.16" stroke="#1e1e1e" stroke-width="2" fill="none"></path></g><g transform="translate(119.94432925872059 268.27741912589636) rotate(0 81.78188147328018 125.32861790881066)"><path d="M157.94 226.85 C160.73 236.98, 161.15 242.8, 163.77 251.16 M157.94 226.85 C160.78 234.67, 161.39 242.69, 163.77 251.16" stroke="#1e1e1e" stroke-width="2" fill="none"></path></g></g><mask></mask><g stroke-linecap="round"><g transform="translate(818 84) rotate(0 9 21)"><path d="M-0.19 -0.38 C2.61 2.45, 18.04 9.82, 17.9 16.87 C17.75 23.93, 1.86 37.81, -1.06 41.93 M-1.75 -1.63 C0.79 1.33, 16.39 10.34, 16.9 17.82 C17.4 25.29, 3.96 39.1, 1.27 43.22" stroke="#1e1e1e" stroke-width="2" fill="none"></path></g><g transform="translate(818 84) rotate(0 9 21)"><path d="M5.99 28.98 C3.66 34.38, 0.89 38.71, 1.27 43.22 M5.99 28.98 C4 33.2, 3.34 37.68, 1.27 43.22" stroke="#1e1e1e" stroke-width="2" fill="none"></path></g><g transform="translate(818 84) rotate(0 9 21)"><path d="M14.04 35.34 C8.58 38.26, 2.69 40.11, 1.27 43.22 M14.04 35.34 C9.66 37.67, 6.63 40.27, 1.27 43.22" stroke="#1e1e1e" stroke-width="2" fill="none"></path></g></g><mask></mask><g stroke-linecap="round"><g transform="translate(821.9265414255453 131.2062009441015) rotate(0 9 21)"><path d="M0.21 0.83 C3.16 3.83, 18.42 10.95, 18.19 17.99 C17.96 25.04, 1.96 39.17, -1.17 43.1 M-1.15 0.22 C1.63 3.43, 16.97 12.67, 17.35 19.52 C17.72 26.38, 4.1 37.52, 1.11 41.34" stroke="#1e1e1e" stroke-width="2" fill="none"></path></g><g transform="translate(821.9265414255453 131.2062009441015) rotate(0 9 21)"><path d="M7.17 27.62 C6.15 32.52, 3.05 35.46, 1.11 41.34 M7.17 27.62 C4.38 32.54, 1.78 38.69, 1.11 41.34" stroke="#1e1e1e" stroke-width="2" fill="none"></path></g><g transform="translate(821.9265414255453 131.2062009441015) rotate(0 9 21)"><path d="M14.57 34.73 C11.04 37.23, 5.43 37.77, 1.11 41.34 M14.57 34.73 C8.92 36.83, 3.41 40.2, 1.11 41.34" stroke="#1e1e1e" stroke-width="2" fill="none"></path></g></g><mask></mask><g stroke-linecap="round"><g transform="translate(819.9265414255453 167.2062009441015) rotate(0 9 21)"><path d="M1.11 -0.84 C4.2 2.37, 18.67 11.88, 18.53 19.05 C18.4 26.22, 3.3 38.24, 0.3 42.16 M0.23 1.34 C3.22 4.25, 17.95 10.44, 17.86 17.48 C17.77 24.52, 2.49 39.76, -0.3 43.56" stroke="#1e1e1e" stroke-width="2" fill="none"></path></g><g transform="translate(819.9265414255453 167.2062009441015) rotate(0 9 21)"><path d="M4.99 29.53 C2.34 34.43, 3.12 38.33, -0.3 43.56 M4.99 29.53 C3.93 33.25, 1.04 38.91, -0.3 43.56" stroke="#1e1e1e" stroke-width="2" fill="none"></path></g><g transform="translate(819.9265414255453 167.2062009441015) rotate(0 9 21)"><path d="M12.77 36.21 C7.81 39.19, 6.27 41.1, -0.3 43.56 M12.77 36.21 C9.24 37.88, 3.91 41.44, -0.3 43.56" stroke="#1e1e1e" stroke-width="2" fill="none"></path></g></g><mask></mask><g stroke-linecap="round"><g transform="translate(821.9265414255453 247.2062009441015) rotate(0 9 21)"><path d="M0.13 0.11 C3.3 3.31, 19.11 11.4, 19.07 18.23 C19.03 25.06, 3.02 37.2, -0.12 41.09 M-1.26 -0.88 C1.84 2.02, 18.63 9.1, 18.68 16.23 C18.73 23.37, 2.07 37.55, -0.95 41.93" stroke="#1e1e1e" stroke-width="2" fill="none"></path></g><g transform="translate(821.9265414255453 247.2062009441015) rotate(0 9 21)"><path d="M4.74 28.06 C3.02 33.65, 1.43 36.4, -0.95 41.93 M4.74 28.06 C2.95 31.55, 2.62 33.87, -0.95 41.93" stroke="#1e1e1e" stroke-width="2" fill="none"></path></g><g transform="translate(821.9265414255453 247.2062009441015) rotate(0 9 21)"><path d="M12.33 34.96 C8.34 38.45, 4.43 39.09, -0.95 41.93 M12.33 34.96 C8.82 36.89, 6.79 37.65, -0.95 41.93" stroke="#1e1e1e" stroke-width="2" fill="none"></path></g></g><mask></mask><g stroke-linecap="round"><g transform="translate(815.9265414255453 199.2062009441015) rotate(0 9 21)"><path d="M0.42 0.31 C3.23 3.31, 17.55 11.64, 17.3 18.57 C17.05 25.5, 1.94 38.16, -1.08 41.89 M-0.81 -0.57 C2.35 2.02, 19.31 9.47, 19.65 16.75 C19.99 24.04, 4.68 39.02, 1.24 43.15" stroke="#1e1e1e" stroke-width="2" fill="none"></path></g><g transform="translate(815.9265414255453 199.2062009441015) rotate(0 9 21)"><path d="M6.89 29.25 C5.44 33.08, 3.87 37.28, 1.24 43.15 M6.89 29.25 C4.78 33.62, 3.17 37.31, 1.24 43.15" stroke="#1e1e1e" stroke-width="2" fill="none"></path></g><g transform="translate(815.9265414255453 199.2062009441015) rotate(0 9 21)"><path d="M14.5 36.13 C10.46 37.67, 6.32 39.55, 1.24 43.15 M14.5 36.13 C10.22 38.43, 6.41 40.13, 1.24 43.15" stroke="#1e1e1e" stroke-width="2" fill="none"></path></g></g><mask></mask><g stroke-linecap="round"><g transform="translate(819.9265414255453 283.2062009441015) rotate(0 9 21)"><path d="M-0.78 0.34 C2.31 3.66, 17.47 11.84, 17.77 18.85 C18.07 25.86, 3.99 38.75, 1.01 42.42 M1.01 -0.53 C3.99 2.55, 16.73 10.37, 16.7 17.17 C16.66 23.98, 3.54 36.27, 0.78 40.3" stroke="#1e1e1e" stroke-width="2" fill="none"></path></g><g transform="translate(819.9265414255453 283.2062009441015) rotate(0 9 21)"><path d="M5.98 26.23 C5.05 29.21, 4.47 34.07, 0.78 40.3 M5.98 26.23 C4.94 31.22, 1.91 35.56, 0.78 40.3" stroke="#1e1e1e" stroke-width="2" fill="none"></path></g><g transform="translate(819.9265414255453 283.2062009441015) rotate(0 9 21)"><path d="M13.81 32.86 C11.1 34.23, 8.68 37.54, 0.78 40.3 M13.81 32.86 C10.15 35.55, 4.5 37.67, 0.78 40.3" stroke="#1e1e1e" stroke-width="2" fill="none"></path></g></g><mask></mask><g stroke-linecap="round"><g transform="translate(819.9265414255453 329.2062009441015) rotate(0 9 21)"><path d="M-0.87 -1.18 C2.23 1.73, 18.16 10.66, 18.38 17.76 C18.59 24.85, 3.61 37.4, 0.42 41.37 M0.87 0.82 C3.87 3.88, 17.79 12.24, 17.63 19.17 C17.46 26.09, 2.96 38.47, -0.13 42.36" stroke="#1e1e1e" stroke-width="2" fill="none"></path></g><g transform="translate(819.9265414255453 329.2062009441015) rotate(0 9 21)"><path d="M5.89 28.62 C2.77 32.88, 2.27 36.76, -0.13 42.36 M5.89 28.62 C4.25 31.83, 3.5 35.4, -0.13 42.36" stroke="#1e1e1e" stroke-width="2" fill="none"></path></g><g transform="translate(819.9265414255453 329.2062009441015) rotate(0 9 21)"><path d="M13.31 35.7 C8.11 37.93, 5.54 39.84, -0.13 42.36 M13.31 35.7 C9.88 37.13, 7.29 38.95, -0.13 42.36" stroke="#1e1e1e" stroke-width="2" fill="none"></path></g></g><mask></mask><g stroke-linecap="round"><g transform="translate(819.9265414255453 369.2062009441015) rotate(0 9 21)"><path d="M-0.9 -0.56 C2.24 2.19, 17.84 10.27, 18.18 17.42 C18.52 24.56, 4.29 38.08, 1.17 42.29 M0.83 1.75 C3.88 4.59, 17.3 11.65, 17.33 18.65 C17.36 25.65, 4.01 40.13, 1.01 43.77" stroke="#1e1e1e" stroke-width="2" fill="none"></path></g><g transform="translate(819.9265414255453 369.2062009441015) rotate(0 9 21)"><path d="M6.23 29.7 C4.33 33.38, 3.02 38.1, 1.01 43.77 M6.23 29.7 C4.88 34.05, 2.52 38.97, 1.01 43.77" stroke="#1e1e1e" stroke-width="2" fill="none"></path></g><g transform="translate(819.9265414255453 369.2062009441015) rotate(0 9 21)"><path d="M14.05 36.35 C10.17 38.31, 6.91 41.39, 1.01 43.77 M14.05 36.35 C10.19 38.58, 5.29 41.35, 1.01 43.77" stroke="#1e1e1e" stroke-width="2" fill="none"></path></g></g><mask></mask><g stroke-linecap="round"><g transform="translate(821.9265414255453 403.2062009441015) rotate(0 9 21)"><path d="M0.21 -0.84 C3.44 1.85, 18.15 10.1, 18.25 17.29 C18.35 24.48, 3.88 38.11, 0.8 42.31 M-1.14 1.33 C2.05 4.68, 17.17 11.38, 17.43 18.45 C17.7 25.53, 3.38 39.56, 0.45 43.79" stroke="#1e1e1e" stroke-width="2" fill="none"></path></g><g transform="translate(821.9265414255453 403.2062009441015) rotate(0 9 21)"><path d="M5.55 29.68 C3.57 32.93, 2.68 36.54, 0.45 43.79 M5.55 29.68 C4.27 34.94, 2.55 39.28, 0.45 43.79" stroke="#1e1e1e" stroke-width="2" fill="none"></path></g><g transform="translate(821.9265414255453 403.2062009441015) rotate(0 9 21)"><path d="M13.43 36.25 C9.75 38.15, 7.22 40.4, 0.45 43.79 M13.43 36.25 C9.6 39.41, 5.32 41.6, 0.45 43.79" stroke="#1e1e1e" stroke-width="2" fill="none"></path></g></g><mask></mask><g stroke-linecap="round"><g transform="translate(821.9265414255453 445.2062009441015) rotate(0 9 21)"><path d="M-0.1 0.31 C2.88 3.48, 18.74 11.59, 18.85 18.67 C18.95 25.75, 3.57 38.75, 0.54 42.8 M-1.61 -0.57 C1.2 2.28, 18.06 9.99, 18.34 16.9 C18.62 23.81, 2.91 36.88, 0.06 40.87" stroke="#1e1e1e" stroke-width="2" fill="none"></path></g><g transform="translate(821.9265414255453 445.2062009441015) rotate(0 9 21)"><path d="M5.93 27.07 C4.03 33.41, 2.24 38.31, 0.06 40.87 M5.93 27.07 C4.21 32.38, 1.44 37.9, 0.06 40.87" stroke="#1e1e1e" stroke-width="2" fill="none"></path></g><g transform="translate(821.9265414255453 445.2062009441015) rotate(0 9 21)"><path d="M13.43 34.07 C8.68 37.72, 4.01 39.95, 0.06 40.87 M13.43 34.07 C8.92 36.88, 3.41 39.83, 0.06 40.87" stroke="#1e1e1e" stroke-width="2" fill="none"></path></g></g><mask></mask><g stroke-linecap="round"><g transform="translate(819.9265414255453 487.2062009441015) rotate(0 9 21)"><path d="M0.95 0.23 C3.97 3.46, 18.64 12.19, 18.68 18.98 C18.72 25.77, 4.14 37.04, 1.2 40.99 M-0.02 -0.69 C2.86 2.25, 17.91 10.29, 18.09 17.37 C18.27 24.45, 4.38 37.93, 1.06 41.78" stroke="#1e1e1e" stroke-width="2" fill="none"></path></g><g transform="translate(819.9265414255453 487.2062009441015) rotate(0 9 21)"><path d="M6.82 27.93 C5.08 33.6, 4.03 39.02, 1.06 41.78 M6.82 27.93 C6.05 30.29, 4.1 34.54, 1.06 41.78" stroke="#1e1e1e" stroke-width="2" fill="none"></path></g><g transform="translate(819.9265414255453 487.2062009441015) rotate(0 9 21)"><path d="M14.37 34.87 C10.05 38.21, 6.39 41.24, 1.06 41.78 M14.37 34.87 C11.91 35.78, 8.33 38.52, 1.06 41.78" stroke="#1e1e1e" stroke-width="2" fill="none"></path></g></g><mask></mask><g transform="translate(10 26) rotate(0 58.849945068359375 12.5)"><text x="0" y="17.52" font-family="Virgil, Segoe UI Emoji" font-size="20px" fill="#1e1e1e" text-anchor="start" style="white-space: pre;" direction="ltr" dominant-baseline="alphabetic">index entrys</text></g><g transform="translate(508 10) rotate(0 35.749961853027344 12.5)"><text x="0" y="17.52" font-family="Virgil, Segoe UI Emoji" font-size="20px" fill="#1e1e1e" text-anchor="start" style="white-space: pre;" direction="ltr" dominant-baseline="alphabetic">records</text></g><g transform="translate(810 18) rotate(0 65.09993743896484 12.5)"><text x="0" y="17.52" font-family="Virgil, Segoe UI Emoji" font-size="20px" fill="#1e1e1e" text-anchor="start" style="white-space: pre;" direction="ltr" dominant-baseline="alphabetic">ordered index</text></g></svg>