<svg version="1.1" xmlns="http://www.w3.org/2000/svg" viewBox="0 0 614.0009490225465 386" width="614.0009490225465" height="386">
  <!-- svg-source:excalidraw -->
  
  <defs>
    <style class="style-fonts">
      @font-face {
        font-family: "Virgil";
        src: url("https://excalidraw.com/Virgil.woff2");
      }
      @font-face {
        font-family: "Cascadia";
        src: url("https://excalidraw.com/Cascadia.woff2");
      }
      @font-face {
        font-family: "Assistant";
        src: url("https://excalidraw.com/Assistant-Regular.woff2");
      }
    </style>
    
  </defs>
  <rect x="0" y="0" width="614.0009490225465" height="386" fill="#ffffff"></rect><g stroke-linecap="round" transform="translate(12.297994140163041 36) rotate(0 294.00001525878906 170)"><path d="M32 0 C151.17 0.92, 269.8 1.3, 556 0 M32 0 C172.63 -0.66, 313.51 -1.16, 556 0 M556 0 C575.4 1.58, 588.85 11.28, 588 32 M556 0 C576.17 2.02, 588.47 12.42, 588 32 M588 32 C586.31 106.95, 584.74 181.92, 588 308 M588 32 C586.79 118.8, 586.12 205.75, 588 308 M588 308 C586.33 328.38, 578.47 341.79, 556 340 M588 308 C589.36 330.62, 576.71 339.07, 556 340 M556 340 C360.44 341.38, 166.33 342.08, 32 340 M556 340 C440.08 338.25, 323.67 338.22, 32 340 M32 340 C8.78 340.04, 0.32 330.86, 0 308 M32 340 C11.53 339.85, -2.13 330.71, 0 308 M0 308 C-2.75 227.17, -1.86 147.58, 0 32 M0 308 C-0.19 251.05, -0.52 193.88, 0 32 M0 32 C-1.32 9.31, 12.28 -1.07, 32 0 M0 32 C0.49 12.48, 8.7 1.16, 32 0" stroke="#1e1e1e" stroke-width="2" fill="none"></path></g><g transform="translate(76.29802465774117 10) rotate(0 44.239952087402344 12.5)"><text x="0" y="17.52" font-family="Virgil, Segoe UI Emoji" font-size="20px" fill="#1e1e1e" text-anchor="start" style="white-space: pre;" direction="ltr" dominant-baseline="alphabetic">commitlog</text></g><g stroke-linecap="round"><g transform="translate(10.297994140163041 62) rotate(0 295.00001525878906 1)"><path d="M-0.3 1.12 C97.95 1.58, 492.04 1.5, 590.53 1.58 M1.75 0.67 C99.8 1.39, 491.77 2.55, 589.85 2.89" stroke="#1e1e1e" stroke-width="2" fill="none"></path></g></g><mask></mask><g transform="translate(47.964650634303666 40) rotate(0 98.91990661621094 12.5)"><text x="0" y="17.52" font-family="Virgil, Segoe UI Emoji" font-size="20px" fill="#1e1e1e" text-anchor="start" style="white-space: pre;" direction="ltr" dominant-baseline="alphabetic">Topic1-message1: ......</text></g><g stroke-linecap="round"><g transform="translate(12.85054717138405 91.5) rotate(0 295.0000152587891 1)"><path d="M0.94 -0.26 C99.38 -0.14, 492.05 1.29, 590.43 1.72 M-0.03 -1.44 C98.32 -0.62, 491.19 2.24, 589.7 3.11" stroke="#1e1e1e" stroke-width="2" fill="none"></path></g></g><mask></mask><g transform="translate(50.517203665524676 69.5) rotate(0 103.32990264892578 12.5)"><text x="0" y="17.52" font-family="Virgil, Segoe UI Emoji" font-size="20px" fill="#1e1e1e" text-anchor="start" style="white-space: pre;" direction="ltr" dominant-baseline="alphabetic">Topic1-message2: ......</text></g><g stroke-linecap="round"><g transform="translate(12.85054717138405 123.5) rotate(0 295.0000152587891 1)"><path d="M0.88 -0.1 C99.33 0.22, 491.66 0.79, 589.87 1.06 M-0.12 -1.2 C98.24 -0.68, 490.59 1.47, 588.85 2.11" stroke="#1e1e1e" stroke-width="2" fill="none"></path></g></g><mask></mask><g transform="translate(50.517203665524676 101.5) rotate(0 103.32990264892578 12.5)"><text x="0" y="17.52" font-family="Virgil, Segoe UI Emoji" font-size="20px" fill="#1e1e1e" text-anchor="start" style="white-space: pre;" direction="ltr" dominant-baseline="alphabetic">Topic2-message1: ......</text></g><g stroke-linecap="round"><g transform="translate(12.85054717138405 151.5) rotate(0 295.0000152587891 1)"><path d="M0.27 -0.8 C98.66 -0.37, 492.73 2.29, 591.15 2.77 M-1.05 1.4 C97.21 1.47, 492.22 0.72, 590.81 1.06" stroke="#1e1e1e" stroke-width="2" fill="none"></path></g></g><mask></mask><g transform="translate(50.517203665524676 129.5) rotate(0 103.01990509033203 12.5)"><text x="0" y="17.52" font-family="Virgil, Segoe UI Emoji" font-size="20px" fill="#1e1e1e" text-anchor="start" style="white-space: pre;" direction="ltr" dominant-baseline="alphabetic">Topic1-message3: ......</text></g><g transform="translate(291.96465063430367 232) rotate(0 16.439987182617188 12.5)"><text x="0" y="17.52" font-family="Virgil, Segoe UI Emoji" font-size="20px" fill="#1e1e1e" text-anchor="start" style="white-space: pre;" direction="ltr" dominant-baseline="alphabetic">......</text></g></svg>