<svg version="1.1" xmlns="http://www.w3.org/2000/svg" viewBox="0 0 297.142614984028 314" width="297.142614984028" height="314">
  <!-- svg-source:excalidraw -->
  
  <defs>
    <style class="style-fonts">
      @font-face {
        font-family: "Virgil";
        src: url("https://excalidraw.com/Virgil.woff2");
      }
      @font-face {
        font-family: "Cascadia";
        src: url("https://excalidraw.com/Cascadia.woff2");
      }
      @font-face {
        font-family: "Assistant";
        src: url("https://excalidraw.com/Assistant-Regular.woff2");
      }
    </style>
    
  </defs>
  <rect x="0" y="0" width="297.142614984028" height="314" fill="#ffffff"></rect><g stroke-linecap="round" transform="translate(11.142614984028 10) rotate(0 138 147)"><path d="M32 0 C82.51 0.79, 136.84 -1, 244 0 M32 0 C109.24 -0.57, 187.07 0.38, 244 0 M244 0 C263.69 1.38, 276.64 9.26, 276 32 M244 0 C267.5 0.07, 274.63 10.25, 276 32 M276 32 C277.73 109.66, 276.43 189.63, 276 262 M276 32 C274.73 78, 274.3 125.03, 276 262 M276 262 C274.26 282.76, 266.84 294.2, 244 294 M276 262 C276.9 284.74, 265.27 295.11, 244 294 M244 294 C185.88 293.6, 126.73 293.36, 32 294 M244 294 C172.54 293.53, 103.37 292.45, 32 294 M32 294 C10.24 294.33, 1.64 283.45, 0 262 M32 294 C11.36 294.33, -2.17 283.54, 0 262 M0 262 C-1.99 208.26, -2.48 157.21, 0 32 M0 262 C-1.12 173.16, -1.01 84.64, 0 32 M0 32 C-1.35 10.72, 11.57 -1.22, 32 0 M0 32 C0.3 10.15, 11.69 1.09, 32 0" stroke="#1e1e1e" stroke-width="2" fill="none"></path></g><g stroke-linecap="round"><g transform="translate(11.142614984028 74) rotate(0 137.02407697891817 0.048818247918092084)"><path d="M0.21 -1.04 C45.88 -0.97, 229.74 -0.6, 275.19 -0.39 M-1.14 1.03 C44.37 1.34, 228.81 0.84, 274.87 0.94" stroke="#1e1e1e" stroke-width="2" fill="none"></path></g></g><mask></mask><g transform="translate(105.142614984028 32) rotate(0 45.34996032714844 12.5)"><text x="0" y="17.52" font-family="Virgil, Segoe UI Emoji" font-size="20px" fill="#e03131" text-anchor="start" style="white-space: pre;" direction="ltr" dominant-baseline="alphabetic">Hot Zone</text></g><g transform="translate(97.79265465687956 165.5) rotate(0 48.94995880126953 12.5)"><text x="0" y="17.52" font-family="Virgil, Segoe UI Emoji" font-size="20px" fill="#1971c2" text-anchor="start" style="white-space: pre;" direction="ltr" dominant-baseline="alphabetic">Cold Zone</text></g></svg>