<svg version="1.1" xmlns="http://www.w3.org/2000/svg" viewBox="0 0 1905.3333129882812 588" width="1905.3333129882812" height="588">
  <!-- svg-source:excalidraw -->
  
  <defs>
    <style class="style-fonts">
      @font-face {
        font-family: "Virgil";
        src: url("https://excalidraw.com/Virgil.woff2");
      }
      @font-face {
        font-family: "Cascadia";
        src: url("https://excalidraw.com/Cascadia.woff2");
      }
      @font-face {
        font-family: "Assistant";
        src: url("https://excalidraw.com/Assistant-Regular.woff2");
      }
    </style>
    
  </defs>
  <rect x="0" y="0" width="1905.3333129882812" height="588" fill="#ffffff"></rect><g stroke-linecap="round" transform="translate(466 44) rotate(0 550.0000305175781 267)"><path d="M32 0 C293.76 -2.08, 554.62 -1.12, 1068 0 M32 0 C304.18 -0.36, 577.01 -0.85, 1068 0 M1068 0 C1089.37 0.58, 1101.78 9.99, 1100 32 M1068 0 C1090.99 -0.21, 1099.84 8.46, 1100 32 M1100 32 C1100.55 174.83, 1100.78 317.61, 1100 502 M1100 32 C1100.71 189.53, 1101.18 347.83, 1100 502 M1100 502 C1099.79 523.35, 1088.33 532.38, 1068 534 M1100 502 C1100.7 521.89, 1091.6 532.21, 1068 534 M1068 534 C782.14 537, 496.88 536.96, 32 534 M1068 534 C817.62 532.37, 567.07 532.51, 32 534 M32 534 C9.04 535.99, 1.17 522.48, 0 502 M32 534 C12.52 534.46, 2.1 524.58, 0 502 M0 502 C-2.48 314.34, -2.02 126.53, 0 32 M0 502 C-1.91 393.08, -2.02 283.93, 0 32 M0 32 C1.48 11.37, 9.98 0.01, 32 0 M0 32 C-2.04 11.74, 10.02 -0.57, 32 0" stroke="#1e1e1e" stroke-width="2" fill="none"></path></g><g stroke-linecap="round" transform="translate(10 192) rotate(0 110 60)"><path d="M58.95 6.32 C70.09 2.34, 86.4 1.55, 100.38 0.9 C114.35 0.25, 129.55 0.35, 142.83 2.42 C156.1 4.48, 169.32 8.35, 180.03 13.31 C190.74 18.27, 200.35 25.32, 207.07 32.17 C213.78 39.02, 218.79 46.76, 220.3 54.42 C221.82 62.07, 220.46 70.7, 216.15 78.11 C211.84 85.52, 203.39 92.92, 194.42 98.89 C185.46 104.85, 174.56 110.27, 162.34 113.91 C150.13 117.54, 135.3 120.2, 121.16 120.72 C107.01 121.24, 91.1 119.61, 77.46 117.05 C63.82 114.48, 50 110.15, 39.33 105.31 C28.67 100.47, 19.8 94.58, 13.46 88 C7.13 81.42, 2.8 73.38, 1.34 65.83 C-0.11 58.29, 0.88 50.08, 4.74 42.72 C8.6 35.36, 13.34 28.05, 24.5 21.66 C35.67 15.28, 61.73 7.73, 71.72 4.43 C81.72 1.14, 83.84 1.02, 84.46 1.9 M158.24 6.48 C171.26 8.93, 184.5 15.2, 193.89 21.09 C203.28 26.99, 210.29 34.83, 214.6 41.84 C218.9 48.84, 220.91 55.54, 219.71 63.1 C218.52 70.66, 213.79 80.38, 207.42 87.19 C201.05 94, 192.05 98.99, 181.49 103.97 C170.94 108.95, 157.37 114.32, 144.09 117.06 C130.81 119.79, 115.68 120.71, 101.82 120.38 C87.96 120.05, 73.41 118.35, 60.94 115.08 C48.47 111.8, 36.16 106.6, 27 100.73 C17.84 94.86, 10.3 87.52, 5.99 79.84 C1.68 72.16, 0.21 62.24, 1.15 54.65 C2.08 47.06, 5.32 41.17, 11.6 34.3 C17.87 27.43, 28.41 18.6, 38.82 13.44 C49.22 8.28, 60.93 5.82, 74.02 3.35 C87.11 0.89, 103.05 -1.73, 117.37 -1.35 C131.69 -0.96, 152.93 4.06, 159.94 5.66 C166.96 7.25, 160.32 7.08, 159.43 8.21" stroke="#1e1e1e" stroke-width="1" fill="none"></path></g><g transform="translate(73.85830686488993 239.57359312880715) rotate(0 46.359947204589844 12.5)"><text x="46.359947204589844" y="17.52" font-family="Virgil, Segoe UI Emoji" font-size="20px" fill="#1e1e1e" text-anchor="middle" style="white-space: pre;" direction="ltr" dominant-baseline="alphabetic">producers</text></g><g stroke-linecap="round"><g transform="translate(246 230) rotate(0 110 5)"><path d="M-0.41 0.52 C36.24 1.8, 182.39 7.29, 219.13 8.86 M1.58 -0.26 C38.67 1.64, 185.1 7.88, 221.38 9.8" stroke="#1e1e1e" stroke-width="1" fill="none"></path></g><g transform="translate(246 230) rotate(0 110 5)"><path d="M197.51 17.23 C203.92 14.11, 206.77 13.87, 221.38 9.8 M197.51 17.23 C204.76 15.6, 211.01 12.14, 221.38 9.8" stroke="#1e1e1e" stroke-width="1" fill="none"></path></g><g transform="translate(246 230) rotate(0 110 5)"><path d="M198.32 0.15 C204.7 1.05, 207.36 4.83, 221.38 9.8 M198.32 0.15 C205.34 3.56, 211.35 5.14, 221.38 9.8" stroke="#1e1e1e" stroke-width="1" fill="none"></path></g></g><mask></mask><g stroke-linecap="round"><g transform="translate(234 292) rotate(0 120 -16)"><path d="M1.12 0.37 C41.19 -4.77, 200.01 -26.24, 239.87 -31.45 M0.25 -0.48 C40.2 -5.92, 198.96 -27.93, 238.86 -33.28" stroke="#1e1e1e" stroke-width="1" fill="none"></path></g><g transform="translate(234 292) rotate(0 120 -16)"><path d="M216.74 -21.62 C223.06 -25.01, 229 -27.28, 238.86 -33.28 M216.74 -21.62 C224.84 -26.34, 235.15 -31.08, 238.86 -33.28" stroke="#1e1e1e" stroke-width="1" fill="none"></path></g><g transform="translate(234 292) rotate(0 120 -16)"><path d="M214.43 -38.57 C221.25 -37.66, 227.78 -35.61, 238.86 -33.28 M214.43 -38.57 C223.4 -36.58, 234.63 -34.6, 238.86 -33.28" stroke="#1e1e1e" stroke-width="1" fill="none"></path></g></g><mask></mask><g transform="translate(293.33331298828125 246) rotate(0 46.56995391845703 12.5)"><text x="0" y="17.52" font-family="Virgil, Segoe UI Emoji" font-size="20px" fill="#1e1e1e" text-anchor="start" style="white-space: pre;" direction="ltr" dominant-baseline="alphabetic">Messages</text></g><g transform="translate(503.33331298828125 10) rotate(0 31.749969482421875 12.5)"><text x="0" y="17.52" font-family="Virgil, Segoe UI Emoji" font-size="20px" fill="#1e1e1e" text-anchor="start" style="white-space: pre;" direction="ltr" dominant-baseline="alphabetic">Broker</text></g><g stroke-linecap="round" transform="translate(462 214) rotate(0 89.00000000000006 35)"><path d="M112.5 9 C128.68 17.39, 144.46 20.28, 155.5 27 M112.5 9 C127.25 14.6, 140.45 19.98, 155.5 27 M155.5 27 C179.11 35.37, 177.03 36.68, 155.5 45 M155.5 27 C179.69 35.92, 177.18 37.33, 155.5 45 M155.5 45 C143.36 49.88, 126.96 57.42, 112.5 61 M155.5 45 C139.5 51.11, 123.07 57.58, 112.5 61 M112.5 61 C89.65 71.68, 91.87 68.05, 67.5 61 M112.5 61 C91.8 72.19, 90.94 69.76, 67.5 61 M67.5 61 C54.82 57.47, 44.21 54.05, 22.5 45 M67.5 61 C55.59 56.08, 42.7 52.36, 22.5 45 M22.5 45 C1.87 36.77, -0.29 36, 22.5 27 M22.5 45 C1.3 37.18, -2.13 37.35, 22.5 27 M22.5 27 C39.19 21.18, 58.78 10.99, 67.5 9 M22.5 27 C38.36 20.54, 55.36 13.91, 67.5 9 M67.5 9 C89.78 -1.11, 89.19 0.13, 112.5 9 M67.5 9 C91.16 -0.4, 89.87 -0.14, 112.5 9" stroke="#1e1e1e" stroke-width="1" fill="none"></path></g><g transform="translate(512.2800369262695 236.5) rotate(0 38.71996307373047 12.5)"><text x="38.71996307373047" y="17.52" font-family="Virgil, Segoe UI Emoji" font-size="20px" fill="#1e1e1e" text-anchor="middle" style="white-space: pre;" direction="ltr" dominant-baseline="alphabetic">Storage</text></g><g stroke-linecap="round" transform="translate(472 394) rotate(0 89 89)"><path d="M32 0 C64.34 -1.84, 99.06 -2.19, 146 0 M32 0 C70.19 0.8, 108.17 -0.75, 146 0 M146 0 C166.18 0.73, 178.95 11.8, 178 32 M146 0 C167.26 1.76, 179.02 9.05, 178 32 M178 32 C178.41 55.79, 176.8 78.77, 178 146 M178 32 C178 74.2, 176.68 115.94, 178 146 M178 146 C177.25 167.49, 165.43 177.8, 146 178 M178 146 C179.36 165.28, 166.86 177.78, 146 178 M146 178 C101.27 178, 57.45 179.5, 32 178 M146 178 C118.88 177.29, 90.05 177.76, 32 178 M32 178 C9.37 177.36, -0.58 167.47, 0 146 M32 178 C9.67 179.1, 1.87 165.32, 0 146 M0 146 C1.63 124.13, 0.92 98.61, 0 32 M0 146 C0.23 119.99, 1.34 94.6, 0 32 M0 32 C0.81 10.3, 10.56 -1.98, 32 0 M0 32 C-0.32 12.54, 12.34 1.44, 32 0" stroke="#1e1e1e" stroke-width="1" fill="none"></path></g><g transform="translate(516.7600479125977 470.5) rotate(0 44.239952087402344 12.5)"><text x="44.239952087402344" y="17.52" font-family="Virgil, Segoe UI Emoji" font-size="20px" fill="#1e1e1e" text-anchor="middle" style="white-space: pre;" direction="ltr" dominant-baseline="alphabetic">commitlog</text></g><g stroke-linecap="round"><g transform="translate(552.8429574173078 289.5449832539974) rotate(0 -18.40694674172417 47.227508373001314)"><path d="M-1.15 -0.82 C-7.37 14.7, -32.08 77.84, -38 93.53 M0.45 1.36 C-5.37 16.97, -29.61 79.14, -35.91 94.59" stroke="#1e1e1e" stroke-width="1" fill="none"></path></g><g transform="translate(552.8429574173078 289.5449832539974) rotate(0 -18.40694674172417 47.227508373001314)"><path d="M-35.18 69.6 C-36.65 73.74, -36.99 82.05, -35.91 94.59 M-35.18 69.6 C-36.26 73.9, -36.37 79.49, -35.91 94.59" stroke="#1e1e1e" stroke-width="1" fill="none"></path></g><g transform="translate(552.8429574173078 289.5449832539974) rotate(0 -18.40694674172417 47.227508373001314)"><path d="M-19.29 75.91 C-24.67 78.35, -28.91 85.12, -35.91 94.59 M-19.29 75.91 C-23.62 78.78, -26.99 83.07, -35.91 94.59" stroke="#1e1e1e" stroke-width="1" fill="none"></path></g></g><mask></mask><g stroke-linecap="round" transform="translate(672 232) rotate(0 77 69)"><path d="M90.9 2.08 C101.37 2.68, 113.16 8.03, 121.99 13.74 C130.82 19.45, 138.66 27.66, 143.86 36.36 C149.06 45.06, 152.48 55.9, 153.18 65.94 C153.88 75.98, 152.45 87.29, 148.06 96.59 C143.67 105.88, 135.31 115.09, 126.84 121.73 C118.38 128.37, 107.72 133.97, 97.26 136.42 C86.79 138.87, 75.05 138.18, 64.04 136.41 C53.02 134.64, 40.35 131.67, 31.16 125.8 C21.96 119.94, 14.08 110.11, 8.88 101.2 C3.68 92.29, 0.25 82.33, -0.06 72.34 C-0.36 62.36, 2.72 50.62, 7.06 41.27 C11.4 31.93, 17.8 22.69, 25.98 16.28 C34.16 9.87, 43.76 4.91, 56.13 2.81 C68.49 0.71, 91.36 3.04, 100.17 3.66 C108.97 4.27, 109.34 5.58, 108.97 6.52 M90.1 -0.24 C100.43 0.55, 111.93 7.76, 120.93 13.64 C129.93 19.53, 138.49 26.22, 144.1 35.05 C149.71 43.88, 154.08 56.3, 154.57 66.62 C155.05 76.94, 151.38 87.74, 147.01 96.96 C142.65 106.18, 136.5 115.69, 128.37 121.94 C120.24 128.2, 109.09 132.03, 98.22 134.48 C87.36 136.92, 74.33 138.07, 63.17 136.61 C52.01 135.16, 40.5 131.38, 31.28 125.72 C22.07 120.06, 13.28 111.62, 7.9 102.66 C2.53 93.69, -0.42 81.88, -0.97 71.91 C-1.52 61.94, 0.15 51.97, 4.6 42.81 C9.06 33.66, 17.16 23.91, 25.75 16.99 C34.35 10.06, 45.37 3.88, 56.17 1.27 C66.97 -1.35, 84.74 0.92, 90.56 1.32 C96.38 1.71, 91.51 2.74, 91.09 3.64" stroke="#1e1e1e" stroke-width="1" fill="none"></path></g><g transform="translate(701.7228370527374 288.7096320981282) rotate(0 47.32994079589844 12.5)"><text x="47.32994079589844" y="17.52" font-family="Virgil, Segoe UI Emoji" font-size="20px" fill="#1e1e1e" text-anchor="middle" style="white-space: pre;" direction="ltr" dominant-baseline="alphabetic">distribute</text></g><g stroke-linecap="round"><g transform="translate(659.3333129882812 471.4790060673836) rotate(0 20.438871753689114 -51.51135882912237)"><path d="M-0.4 0 C6.25 -17.13, 32.87 -86.03, 39.86 -103.35 M1.6 -1.05 C8.61 -17.94, 35.45 -84.99, 42.03 -101.98" stroke="#1e1e1e" stroke-width="1" fill="none"></path></g><g transform="translate(659.3333129882812 471.4790060673836) rotate(0 20.438871753689114 -51.51135882912237)"><path d="M41.35 -76.99 C41.68 -86.15, 41.35 -90.81, 42.03 -101.98 M41.35 -76.99 C41.21 -82.7, 41.86 -88.15, 42.03 -101.98" stroke="#1e1e1e" stroke-width="1" fill="none"></path></g><g transform="translate(659.3333129882812 471.4790060673836) rotate(0 20.438871753689114 -51.51135882912237)"><path d="M25.45 -83.27 C30.49 -90.5, 34.91 -93.29, 42.03 -101.98 M25.45 -83.27 C28.96 -87.41, 33.26 -91.41, 42.03 -101.98" stroke="#1e1e1e" stroke-width="1" fill="none"></path></g></g><mask></mask><g stroke-linecap="round" transform="translate(915.3333129882812 67.33334350585938) rotate(0 313 249.00001525878906)"><path d="M32 0 C147.56 -1.35, 262.45 -1.23, 594 0 M32 0 C156.67 -0.35, 282.28 -0.84, 594 0 M594 0 C614.07 1.3, 625.07 11.85, 626 32 M594 0 C614.97 2.1, 627.06 9.5, 626 32 M626 32 C628.39 177, 628.76 323.62, 626 466 M626 32 C625.3 138.55, 625.89 245.63, 626 466 M626 466 C627.09 488.24, 614.95 499.73, 594 498 M626 466 C623.75 488.8, 613.95 499.04, 594 498 M594 498 C480.69 497.65, 368.91 498.07, 32 498 M594 498 C395.07 496.08, 195.62 496.17, 32 498 M32 498 C11.31 497.79, 0.07 488.99, 0 466 M32 498 C10.42 497.24, -1.12 487.45, 0 466 M0 466 C0.23 318.97, 0.11 170.82, 0 32 M0 466 C0.71 298.79, 1.09 131.15, 0 32 M0 32 C-1.98 8.8, 10.23 -1.37, 32 0 M0 32 C-2.16 11.32, 8.9 -0.63, 32 0" stroke="#1e1e1e" stroke-width="1" fill="none"></path></g><g stroke-linecap="round"><g transform="translate(919.3333129882812 112) rotate(0 307 0)"><path d="M-0.39 -0.71 C101.81 -0.93, 510.8 -0.91, 613.23 -0.86 M1.61 1.53 C104.19 1.4, 513.56 0.37, 615.54 0.23" stroke="#1e1e1e" stroke-width="1" fill="none"></path></g></g><mask></mask><g transform="translate(931.3333129882812 78) rotate(0 125.88988494873047 12.5)"><text x="0" y="17.52" font-family="Virgil, Segoe UI Emoji" font-size="20px" fill="#1e1e1e" text-anchor="start" style="white-space: pre;" direction="ltr" dominant-baseline="alphabetic">TopicA-consumerQueue1： </text></g><g stroke-linecap="round" transform="translate(1261.3333129882812 76) rotate(0 136 17.5)"><path d="M8.75 0 C68.09 0.48, 129.09 1.88, 263.25 0 M8.75 0 C92.09 -0.95, 175.79 -2.18, 263.25 0 M263.25 0 C269.63 -1.68, 271.55 4.31, 272 8.75 M263.25 0 C268.86 0.6, 273.86 1.68, 272 8.75 M272 8.75 C270.37 14.08, 271.77 15.92, 272 26.25 M272 8.75 C271.41 16.22, 271.41 22.96, 272 26.25 M272 26.25 C273.74 33.49, 271.01 35.43, 263.25 35 M272 26.25 C274.06 30.32, 270.41 36.09, 263.25 35 M263.25 35 C165.53 36.48, 69.75 36.91, 8.75 35 M263.25 35 C199.46 34.35, 134.91 34.81, 8.75 35 M8.75 35 C2.48 33.07, -1.59 30.41, 0 26.25 M8.75 35 C2.09 33.33, 0.21 30.56, 0 26.25 M0 26.25 C1.36 22.18, -1.67 18.96, 0 8.75 M0 26.25 C0.77 19.51, -0.1 13.24, 0 8.75 M0 8.75 C1.08 2.32, 3.86 -0.75, 8.75 0 M0 8.75 C0.76 2.27, 4.2 0.85, 8.75 0" stroke="#1e1e1e" stroke-width="1" fill="none"></path></g><g transform="translate(1272.7834091186523 81) rotate(0 124.5499038696289 12.5)"><text x="124.5499038696289" y="17.52" font-family="Virgil, Segoe UI Emoji" font-size="20px" fill="#1e1e1e" text-anchor="middle" style="white-space: pre;" direction="ltr" dominant-baseline="alphabetic">Message1：[begin，length]</text></g><g stroke-linecap="round" transform="translate(1179.3333129882812 76) rotate(0 37 17.5)"><path d="M8.75 0 C24.19 0.56, 36.48 -1.64, 65.25 0 M8.75 0 C21.25 0.65, 35.75 0.11, 65.25 0 M65.25 0 C71.89 0.54, 73.92 1.45, 74 8.75 M65.25 0 C71.96 1.82, 73.91 2.31, 74 8.75 M74 8.75 C72.78 13.18, 73.84 19.9, 74 26.25 M74 8.75 C73.69 13.66, 74.55 18.57, 74 26.25 M74 26.25 C72.35 32.99, 70.23 34.98, 65.25 35 M74 26.25 C72.4 30.73, 71.96 35.6, 65.25 35 M65.25 35 C46.12 35.72, 25.85 35.95, 8.75 35 M65.25 35 C52.65 34.55, 41.3 34.16, 8.75 35 M8.75 35 C4.29 35.27, -0.59 33.78, 0 26.25 M8.75 35 C0.94 34.21, -2.16 31.83, 0 26.25 M0 26.25 C-0.59 21.4, -0.71 16.85, 0 8.75 M0 26.25 C0.28 20.85, 0.02 16.86, 0 8.75 M0 8.75 C-1.98 1.55, 1.11 -0.65, 8.75 0 M0 8.75 C0.17 4.95, 1.58 0.55, 8.75 0" stroke="#1e1e1e" stroke-width="1" fill="none"></path></g><g transform="translate(1199.893325805664 81) rotate(0 16.439987182617188 12.5)"><text x="16.439987182617188" y="17.52" font-family="Virgil, Segoe UI Emoji" font-size="20px" fill="#1e1e1e" text-anchor="middle" style="white-space: pre;" direction="ltr" dominant-baseline="alphabetic">......</text></g><g stroke-linecap="round"><g transform="translate(919.7552050470283 155.23289363748393) rotate(0 307 0)"><path d="M0.25 0.85 C102.65 0.91, 512.32 0.97, 614.74 0.96 M-1.07 0.26 C101.2 -0.07, 511.6 -0.42, 614.18 -0.65" stroke="#1e1e1e" stroke-width="1" fill="none"></path></g></g><mask></mask><g transform="translate(931.7552050470283 121.23289363748393) rotate(0 130.2998809814453 12.5)"><text x="0" y="17.52" font-family="Virgil, Segoe UI Emoji" font-size="20px" fill="#1e1e1e" text-anchor="start" style="white-space: pre;" direction="ltr" dominant-baseline="alphabetic">TopicA-consumerQueue2： </text></g><g stroke-linecap="round" transform="translate(1261.7552050470283 119.23289363748393) rotate(0 136 17.5)"><path d="M8.75 0 C101.93 -2.32, 192.64 -1.44, 263.25 0 M8.75 0 C104.55 1.78, 199.27 0.37, 263.25 0 M263.25 0 C269.37 -1.77, 271.18 3.95, 272 8.75 M263.25 0 C267.3 -0.44, 274.22 3.51, 272 8.75 M272 8.75 C271.23 11.74, 270.48 18.37, 272 26.25 M272 8.75 C272.65 11.81, 272.03 15.85, 272 26.25 M272 26.25 C273.29 33.26, 270.83 35.29, 263.25 35 M272 26.25 C271.16 29.97, 270.38 33.4, 263.25 35 M263.25 35 C209.11 35.19, 157.82 37.65, 8.75 35 M263.25 35 C193.32 34.12, 122.39 32.92, 8.75 35 M8.75 35 C3.65 35.52, -0.44 32.07, 0 26.25 M8.75 35 C4.5 33.7, 1.79 32.75, 0 26.25 M0 26.25 C1.1 22.2, -1.05 15.91, 0 8.75 M0 26.25 C0.66 21.16, -0.86 15.86, 0 8.75 M0 8.75 C0.51 1.45, 2.77 -1.97, 8.75 0 M0 8.75 C-1.28 1.43, 2.69 -0.11, 8.75 0" stroke="#1e1e1e" stroke-width="1" fill="none"></path></g><g transform="translate(1268.7953051446846 124.23289363748393) rotate(0 128.95989990234375 12.5)"><text x="128.95989990234375" y="17.52" font-family="Virgil, Segoe UI Emoji" font-size="20px" fill="#1e1e1e" text-anchor="middle" style="white-space: pre;" direction="ltr" dominant-baseline="alphabetic">Message2：[begin，length]</text></g><g stroke-linecap="round" transform="translate(1179.7552050470283 119.23289363748393) rotate(0 37 17.5)"><path d="M8.75 0 C23.88 1.04, 35.05 1.01, 65.25 0 M8.75 0 C31.29 -0.45, 53.13 0.95, 65.25 0 M65.25 0 C69.53 -0.39, 75.93 3.43, 74 8.75 M65.25 0 C69.94 -1.3, 72.63 2.03, 74 8.75 M74 8.75 C72.22 12.61, 73.98 17.76, 74 26.25 M74 8.75 C74.57 13.41, 74.77 17.16, 74 26.25 M74 26.25 C73.27 30.24, 72.21 33.61, 65.25 35 M74 26.25 C71.92 33.24, 72.43 33.91, 65.25 35 M65.25 35 C51.4 37.01, 36.93 37.23, 8.75 35 M65.25 35 C43.97 34.9, 21.74 34.63, 8.75 35 M8.75 35 C4.29 33.87, 1.56 32.66, 0 26.25 M8.75 35 C1.97 36.17, -0.95 33.65, 0 26.25 M0 26.25 C-0.07 21.23, -1.63 16.25, 0 8.75 M0 26.25 C0.38 20.37, 0.09 14.91, 0 8.75 M0 8.75 C-1.11 1.62, 2.72 -0.1, 8.75 0 M0 8.75 C-1.68 3.32, 4.05 1.17, 8.75 0" stroke="#1e1e1e" stroke-width="1" fill="none"></path></g><g transform="translate(1200.3152178644111 124.23289363748393) rotate(0 16.439987182617188 12.5)"><text x="16.439987182617188" y="17.52" font-family="Virgil, Segoe UI Emoji" font-size="20px" fill="#1e1e1e" text-anchor="middle" style="white-space: pre;" direction="ltr" dominant-baseline="alphabetic">......</text></g><g stroke-linecap="round"><g transform="translate(919.7552050470283 201.23289363748393) rotate(0 307 0)"><path d="M-0.69 0.56 C101.51 0.65, 510.45 1.24, 612.9 1.06 M1.15 -0.19 C103.73 -0.46, 513.02 -0.63, 615.03 -0.51" stroke="#1e1e1e" stroke-width="1" fill="none"></path></g></g><mask></mask><g transform="translate(931.7552050470283 167.23289363748393) rotate(0 126.59988403320312 12.5)"><text x="0" y="17.52" font-family="Virgil, Segoe UI Emoji" font-size="20px" fill="#1e1e1e" text-anchor="start" style="white-space: pre;" direction="ltr" dominant-baseline="alphabetic">TopicB-consumerQueue1： </text></g><g stroke-linecap="round" transform="translate(1261.7552050470283 165.23289363748393) rotate(0 136 17.5)"><path d="M8.75 0 C60.97 0.17, 115.17 -0.85, 263.25 0 M8.75 0 C88.37 -2.65, 166.82 -2.46, 263.25 0 M263.25 0 C268.89 -0.51, 270.33 2.46, 272 8.75 M263.25 0 C267.4 -0.64, 273.02 4.19, 272 8.75 M272 8.75 C271.4 15.7, 272.61 20.06, 272 26.25 M272 8.75 C272.33 14.27, 271.42 18.55, 272 26.25 M272 26.25 C272.52 33.27, 270.32 33.71, 263.25 35 M272 26.25 C272.87 30.79, 269.32 34.66, 263.25 35 M263.25 35 C207.4 34.57, 152.08 32.9, 8.75 35 M263.25 35 C202.58 35.06, 142.7 36.17, 8.75 35 M8.75 35 C4.05 36.42, 1.29 32.26, 0 26.25 M8.75 35 C3.12 34.03, 2.18 31.16, 0 26.25 M0 26.25 C-1.09 19.07, -0.64 14.77, 0 8.75 M0 26.25 C-0.29 19.42, 0.21 13.27, 0 8.75 M0 8.75 C-0.87 1.42, 2.92 -1.23, 8.75 0 M0 8.75 C2.03 2, 2.71 0.13, 8.75 0" stroke="#1e1e1e" stroke-width="1" fill="none"></path></g><g transform="translate(1273.2053011773994 170.23289363748393) rotate(0 124.5499038696289 12.5)"><text x="124.5499038696289" y="17.52" font-family="Virgil, Segoe UI Emoji" font-size="20px" fill="#1e1e1e" text-anchor="middle" style="white-space: pre;" direction="ltr" dominant-baseline="alphabetic">Message1：[begin，length]</text></g><g stroke-linecap="round" transform="translate(1179.7552050470283 165.23289363748393) rotate(0 37 17.5)"><path d="M8.75 0 C26.33 1.69, 45.38 0.96, 65.25 0 M8.75 0 C21.02 0.07, 32.64 0.1, 65.25 0 M65.25 0 C69.62 -0.55, 74.89 4.02, 74 8.75 M65.25 0 C71.77 -2.28, 74.45 2.36, 74 8.75 M74 8.75 C73.77 16.71, 75.52 21.97, 74 26.25 M74 8.75 C74.08 15.66, 74.4 20.97, 74 26.25 M74 26.25 C74.76 30.96, 71.29 34.71, 65.25 35 M74 26.25 C72.15 30.82, 69.43 35.01, 65.25 35 M65.25 35 C43.37 36.72, 24.53 33.5, 8.75 35 M65.25 35 C52.01 36.17, 38.29 35.55, 8.75 35 M8.75 35 C3.1 34.16, 1.9 31.28, 0 26.25 M8.75 35 C4.24 33.69, 0.06 30.52, 0 26.25 M0 26.25 C1.25 21.95, 0.61 17.03, 0 8.75 M0 26.25 C-0.42 21.15, -0.04 16.83, 0 8.75 M0 8.75 C1.77 2.12, 2.73 0.11, 8.75 0 M0 8.75 C-1.07 2.5, 3.84 -0.12, 8.75 0" stroke="#1e1e1e" stroke-width="1" fill="none"></path></g><g transform="translate(1200.3152178644111 170.23289363748393) rotate(0 16.439987182617188 12.5)"><text x="16.439987182617188" y="17.52" font-family="Virgil, Segoe UI Emoji" font-size="20px" fill="#1e1e1e" text-anchor="middle" style="white-space: pre;" direction="ltr" dominant-baseline="alphabetic">......</text></g><g stroke-linecap="round"><g transform="translate(919.7552050470283 245.23289363748393) rotate(0 307 0)"><path d="M-0.35 1.14 C101.88 1.05, 511.44 0.36, 613.93 0.29 M1.66 0.69 C103.69 0.14, 510.86 -1.35, 612.94 -1.68" stroke="#1e1e1e" stroke-width="1" fill="none"></path></g></g><mask></mask><g transform="translate(931.7552050470283 211.23289363748393) rotate(0 131.0098876953125 12.5)"><text x="0" y="17.52" font-family="Virgil, Segoe UI Emoji" font-size="20px" fill="#1e1e1e" text-anchor="start" style="white-space: pre;" direction="ltr" dominant-baseline="alphabetic">TopicB-consumerQueue2： </text></g><g stroke-linecap="round" transform="translate(1261.7552050470283 209.23289363748393) rotate(0 136 17.5)"><path d="M8.75 0 C84.49 -1.57, 156.84 -1.31, 263.25 0 M8.75 0 C94.2 0.73, 178.78 0.43, 263.25 0 M263.25 0 C267.36 -0.82, 272.98 2.34, 272 8.75 M263.25 0 C268.1 -2.3, 271.52 3.12, 272 8.75 M272 8.75 C271.08 11.43, 271.05 16.52, 272 26.25 M272 8.75 C271.99 14.58, 271.66 21.6, 272 26.25 M272 26.25 C273.65 33.1, 268.03 33.05, 263.25 35 M272 26.25 C270.62 31.96, 266.96 36.61, 263.25 35 M263.25 35 C191.31 36.15, 119.72 37.24, 8.75 35 M263.25 35 C201.81 34.13, 139.84 33.06, 8.75 35 M8.75 35 C1.94 35.07, 0.1 31.6, 0 26.25 M8.75 35 C2.5 36.56, -0.72 30.18, 0 26.25 M0 26.25 C-1.16 20.94, -0.08 14.88, 0 8.75 M0 26.25 C0.18 22.04, 0.47 15.98, 0 8.75 M0 8.75 C-1.49 3.96, 2.01 1.98, 8.75 0 M0 8.75 C-1.88 2.26, 2.46 -1.83, 8.75 0" stroke="#1e1e1e" stroke-width="1" fill="none"></path></g><g transform="translate(1268.7953051446846 214.23289363748393) rotate(0 128.95989990234375 12.5)"><text x="128.95989990234375" y="17.52" font-family="Virgil, Segoe UI Emoji" font-size="20px" fill="#1e1e1e" text-anchor="middle" style="white-space: pre;" direction="ltr" dominant-baseline="alphabetic">Message2：[begin，length]</text></g><g stroke-linecap="round" transform="translate(1179.7552050470283 209.23289363748393) rotate(0 37 17.5)"><path d="M8.75 0 C24.38 -0.93, 38.51 1, 65.25 0 M8.75 0 C29.03 -0.62, 51.53 -0.5, 65.25 0 M65.25 0 C70.23 -2, 73.59 3.1, 74 8.75 M65.25 0 C69.66 0.87, 72.76 1.62, 74 8.75 M74 8.75 C74.72 11.53, 72.37 16.47, 74 26.25 M74 8.75 C74.67 13.96, 73.49 17.43, 74 26.25 M74 26.25 C72.8 31.98, 69.24 36.4, 65.25 35 M74 26.25 C73.6 31.96, 73.15 35.01, 65.25 35 M65.25 35 C49.59 36.21, 34.78 35.89, 8.75 35 M65.25 35 C43.6 34.71, 22.99 34.44, 8.75 35 M8.75 35 C2.55 36.36, -0.62 30.43, 0 26.25 M8.75 35 C3.88 35.78, 1.66 30.63, 0 26.25 M0 26.25 C-0.29 19.89, 1.55 14.67, 0 8.75 M0 26.25 C-0.74 19.96, -0.48 13.62, 0 8.75 M0 8.75 C-1.63 2.35, 2.52 -1.59, 8.75 0 M0 8.75 C2.13 0.88, 0.83 1.61, 8.75 0" stroke="#1e1e1e" stroke-width="1" fill="none"></path></g><g transform="translate(1200.3152178644111 214.23289363748393) rotate(0 16.439987182617188 12.5)"><text x="16.439987182617188" y="17.52" font-family="Virgil, Segoe UI Emoji" font-size="20px" fill="#1e1e1e" text-anchor="middle" style="white-space: pre;" direction="ltr" dominant-baseline="alphabetic">......</text></g><g stroke-linecap="round"><g transform="translate(917.7552050470283 289.2328936374839) rotate(0 307 0)"><path d="M0.9 0.12 C103.08 -0.01, 511.7 -0.33, 613.71 -0.31 M-0.08 -0.86 C101.85 -0.85, 510.05 0.64, 612.61 1.06" stroke="#1e1e1e" stroke-width="1" fill="none"></path></g></g><mask></mask><g transform="translate(929.7552050470283 255.23289363748393) rotate(0 125.76988220214844 12.5)"><text x="0" y="17.52" font-family="Virgil, Segoe UI Emoji" font-size="20px" fill="#1e1e1e" text-anchor="start" style="white-space: pre;" direction="ltr" dominant-baseline="alphabetic">TopicC-consumerQueue1： </text></g><g stroke-linecap="round" transform="translate(1259.7552050470283 253.23289363748393) rotate(0 136 17.5)"><path d="M8.75 0 C79.33 1.35, 148.07 1.95, 263.25 0 M8.75 0 C77.76 -0.59, 145.82 -1.35, 263.25 0 M263.25 0 C271.04 -1.92, 273.48 2.66, 272 8.75 M263.25 0 C269.54 0.22, 270.23 2.55, 272 8.75 M272 8.75 C272.4 15.64, 273.75 22.53, 272 26.25 M272 8.75 C271.01 15.46, 271.01 22.33, 272 26.25 M272 26.25 C272.29 33.29, 268.03 35.49, 263.25 35 M272 26.25 C271.38 31.19, 268.28 37, 263.25 35 M263.25 35 C201.5 36.26, 141.88 37.09, 8.75 35 M263.25 35 C206.6 36.2, 149.16 35.96, 8.75 35 M8.75 35 C4.87 36.43, 0.19 33.39, 0 26.25 M8.75 35 C2.04 36.61, -1.6 30.69, 0 26.25 M0 26.25 C-0.22 20.77, 0.01 17.28, 0 8.75 M0 26.25 C0.39 19.22, 0.46 14.14, 0 8.75 M0 8.75 C-1.58 1.46, 4.18 -1.07, 8.75 0 M0 8.75 C2.08 5.19, 2.8 0.21, 8.75 0" stroke="#1e1e1e" stroke-width="1" fill="none"></path></g><g transform="translate(1271.2053011773994 258.2328936374839) rotate(0 124.5499038696289 12.5)"><text x="124.5499038696289" y="17.52" font-family="Virgil, Segoe UI Emoji" font-size="20px" fill="#1e1e1e" text-anchor="middle" style="white-space: pre;" direction="ltr" dominant-baseline="alphabetic">Message1：[begin，length]</text></g><g stroke-linecap="round" transform="translate(1177.7552050470283 253.23289363748393) rotate(0 37 17.5)"><path d="M8.75 0 C23.6 -0.2, 40.23 0.7, 65.25 0 M8.75 0 C26.78 -0.44, 43.6 0.39, 65.25 0 M65.25 0 C71.48 0.19, 72.46 2.6, 74 8.75 M65.25 0 C72.61 2.23, 73.29 3.23, 74 8.75 M74 8.75 C75.62 13.12, 73.44 18.49, 74 26.25 M74 8.75 C73.96 14.52, 73.37 19.44, 74 26.25 M74 26.25 C73.46 31.31, 70.39 36.74, 65.25 35 M74 26.25 C72.61 34.22, 73.28 33.95, 65.25 35 M65.25 35 C49.24 35.89, 38.04 35.02, 8.75 35 M65.25 35 C53.07 35.16, 39.04 35.1, 8.75 35 M8.75 35 C2.16 36.4, -1.39 30.88, 0 26.25 M8.75 35 C2.44 35.13, 0.06 31.8, 0 26.25 M0 26.25 C1.18 22.82, -1.34 17.97, 0 8.75 M0 26.25 C-0.81 21.57, 0.44 17.7, 0 8.75 M0 8.75 C1.81 4.89, 2.81 0.18, 8.75 0 M0 8.75 C-2.18 4.87, 1.24 -1.78, 8.75 0" stroke="#1e1e1e" stroke-width="1" fill="none"></path></g><g transform="translate(1198.3152178644111 258.2328936374839) rotate(0 16.439987182617188 12.5)"><text x="16.439987182617188" y="17.52" font-family="Virgil, Segoe UI Emoji" font-size="20px" fill="#1e1e1e" text-anchor="middle" style="white-space: pre;" direction="ltr" dominant-baseline="alphabetic">......</text></g><g transform="translate(1201.3333129882812 404) rotate(0 16.439987182617188 12.5)"><text x="0" y="17.52" font-family="Virgil, Segoe UI Emoji" font-size="20px" fill="#1e1e1e" text-anchor="start" style="white-space: pre;" direction="ltr" dominant-baseline="alphabetic">......</text></g><g stroke-linecap="round"><g transform="translate(811.3333129882812 252) rotate(0 47 -75)"><path d="M0.6 -1.14 C16.16 -25.98, 78.46 -124.71, 94.12 -149.57 M-0.54 0.87 C14.8 -24.29, 77.46 -126.47, 93.23 -151.47" stroke="#1e1e1e" stroke-width="1" fill="none"></path></g><g transform="translate(811.3333129882812 252) rotate(0 47 -75)"><path d="M88.11 -127 C88.18 -135.72, 92.65 -143.86, 93.23 -151.47 M88.11 -127 C89.35 -134.08, 91.12 -139.64, 93.23 -151.47" stroke="#1e1e1e" stroke-width="1" fill="none"></path></g><g transform="translate(811.3333129882812 252) rotate(0 47 -75)"><path d="M73.58 -136.02 C78.89 -141.54, 88.64 -146.39, 93.23 -151.47 M73.58 -136.02 C78.82 -140.74, 84.58 -143.82, 93.23 -151.47" stroke="#1e1e1e" stroke-width="1" fill="none"></path></g></g><mask></mask><g stroke-linecap="round"><g transform="translate(823.3333129882812 272) rotate(0 43 -65)"><path d="M-0.75 0.84 C13.33 -20.64, 70.56 -107.47, 84.94 -129.24 M1.06 0.23 C15.46 -21.55, 73.18 -109.53, 87.1 -130.97" stroke="#1e1e1e" stroke-width="1" fill="none"></path></g><g transform="translate(823.3333129882812 272) rotate(0 43 -65)"><path d="M81.41 -106.62 C84.81 -116.59, 86.6 -123.83, 87.1 -130.97 M81.41 -106.62 C83.95 -114.7, 84.82 -122, 87.1 -130.97" stroke="#1e1e1e" stroke-width="1" fill="none"></path></g><g transform="translate(823.3333129882812 272) rotate(0 43 -65)"><path d="M67.09 -115.98 C75.31 -122.69, 81.94 -126.77, 87.1 -130.97 M67.09 -115.98 C74.19 -121, 79.57 -125.36, 87.1 -130.97" stroke="#1e1e1e" stroke-width="1" fill="none"></path></g></g><mask></mask><g stroke-linecap="round"><g transform="translate(827.3333129882812 292) rotate(0 39 -50)"><path d="M-1.13 0.4 C11.71 -16.02, 64.19 -82.76, 77.2 -99.37 M0.48 -0.44 C13.68 -17.13, 66.36 -84.37, 79.49 -101.16" stroke="#1e1e1e" stroke-width="1" fill="none"></path></g><g transform="translate(827.3333129882812 292) rotate(0 39 -50)"><path d="M71.74 -77.39 C75.02 -86.15, 77.84 -94.14, 79.49 -101.16 M71.74 -77.39 C75.54 -86.04, 77.32 -95.1, 79.49 -101.16" stroke="#1e1e1e" stroke-width="1" fill="none"></path></g><g transform="translate(827.3333129882812 292) rotate(0 39 -50)"><path d="M58.27 -87.93 C65.72 -93.24, 72.78 -97.91, 79.49 -101.16 M58.27 -87.93 C66.92 -92.88, 73.57 -98.12, 79.49 -101.16" stroke="#1e1e1e" stroke-width="1" fill="none"></path></g></g><mask></mask><g stroke-linecap="round"><g transform="translate(837.3333129882812 310) rotate(0 32 -18)"><path d="M-0.5 -0.73 C10.37 -6.72, 53.8 -29.39, 64.53 -35.38 M1.44 1.5 C12.26 -4.89, 53.59 -30.97, 63.85 -37.18" stroke="#1e1e1e" stroke-width="1" fill="none"></path></g><g transform="translate(837.3333129882812 310) rotate(0 32 -18)"><path d="M48.38 -17.54 C50.83 -21.37, 56.84 -27.24, 63.85 -37.18 M48.38 -17.54 C51.4 -21.27, 55.83 -27.94, 63.85 -37.18" stroke="#1e1e1e" stroke-width="1" fill="none"></path></g><g transform="translate(837.3333129882812 310) rotate(0 32 -18)"><path d="M39.38 -32.08 C44.08 -32.34, 52.28 -34.67, 63.85 -37.18 M39.38 -32.08 C44.43 -32.26, 51.03 -35.41, 63.85 -37.18" stroke="#1e1e1e" stroke-width="1" fill="none"></path></g></g><mask></mask><g stroke-linecap="round"><g transform="translate(833.3333129882812 294) rotate(0 35 -31)"><path d="M-0.12 -1.07 C11.17 -11.57, 57.16 -51.93, 68.84 -62.25 M-1.64 0.98 C9.91 -9.4, 59.13 -50.31, 70.94 -60.85" stroke="#1e1e1e" stroke-width="1" fill="none"></path></g><g transform="translate(833.3333129882812 294) rotate(0 35 -31)"><path d="M58.68 -39.06 C61.57 -49.53, 67.74 -56.16, 70.94 -60.85 M58.68 -39.06 C60.61 -44.21, 63.22 -48.84, 70.94 -60.85" stroke="#1e1e1e" stroke-width="1" fill="none"></path></g><g transform="translate(833.3333129882812 294) rotate(0 35 -31)"><path d="M47.54 -52.04 C54.88 -57.41, 65.41 -58.95, 70.94 -60.85 M47.54 -52.04 C51.81 -54.42, 56.8 -56.27, 70.94 -60.85" stroke="#1e1e1e" stroke-width="1" fill="none"></path></g></g><mask></mask><g stroke-linecap="round"><g transform="translate(827.3333129882812 330) rotate(0 37 -11)"><path d="M0.56 0.53 C12.85 -2.77, 60.94 -16.93, 73.35 -20.84 M-0.6 -0.24 C12.12 -3.74, 63.15 -18.71, 75.72 -22.36" stroke="#1e1e1e" stroke-width="1" fill="none"></path></g><g transform="translate(827.3333129882812 330) rotate(0 37 -11)"><path d="M55.56 -7.57 C61.94 -12.68, 68.33 -13.81, 75.72 -22.36 M55.56 -7.57 C60.29 -9.74, 64.92 -13.25, 75.72 -22.36" stroke="#1e1e1e" stroke-width="1" fill="none"></path></g><g transform="translate(827.3333129882812 330) rotate(0 37 -11)"><path d="M50.78 -23.99 C58.27 -24.75, 65.94 -21.52, 75.72 -22.36 M50.78 -23.99 C56.53 -22.49, 62.21 -22.37, 75.72 -22.36" stroke="#1e1e1e" stroke-width="1" fill="none"></path></g></g><mask></mask><g stroke-linecap="round"><g transform="translate(783.3333129882812 376) rotate(0 57 77)"><path d="M1.04 -1.07 C20.18 24.51, 94.95 128.73, 113.73 154.42 M0.13 0.98 C19.18 26.1, 93.86 127.03, 112.64 152.51" stroke="#1e1e1e" stroke-width="1" fill="none"></path></g><g transform="translate(783.3333129882812 376) rotate(0 57 77)"><path d="M91.8 138.7 C94.49 140.96, 101.34 143.87, 112.64 152.51 M91.8 138.7 C95.62 141.2, 100.78 144.03, 112.64 152.51" stroke="#1e1e1e" stroke-width="1" fill="none"></path></g><g transform="translate(783.3333129882812 376) rotate(0 57 77)"><path d="M105.55 128.54 C105.45 133.05, 109.41 138.08, 112.64 152.51 M105.55 128.54 C106.41 133.29, 108.52 138.37, 112.64 152.51" stroke="#1e1e1e" stroke-width="1" fill="none"></path></g></g><mask></mask><g transform="translate(819.3333129882812 350) rotate(0 16.439987182617188 12.5)"><text x="0" y="17.52" font-family="Virgil, Segoe UI Emoji" font-size="20px" fill="#1e1e1e" text-anchor="start" style="white-space: pre;" direction="ltr" dominant-baseline="alphabetic">......</text></g><g stroke-linecap="round"><g transform="translate(1539.587174315123 99.86534412310428) rotate(0 105.49577750858555 18.392469516041814)"><path d="M1.2 -0.2 C36.28 5.88, 176 29.66, 211.07 35.7 M0.37 -1.35 C35.24 4.91, 175.02 30.28, 210.16 36.66" stroke="#1e1e1e" stroke-width="1" fill="none"></path></g><g transform="translate(1539.587174315123 99.86534412310428) rotate(0 105.49577750858555 18.392469516041814)"><path d="M185.52 40.88 C193.86 39.28, 201.02 38.74, 210.16 36.66 M185.52 40.88 C190.76 39.5, 197.4 38.55, 210.16 36.66" stroke="#1e1e1e" stroke-width="1" fill="none"></path></g><g transform="translate(1539.587174315123 99.86534412310428) rotate(0 105.49577750858555 18.392469516041814)"><path d="M188.57 24.05 C195.73 28.39, 201.82 33.74, 210.16 36.66 M188.57 24.05 C193.2 26.65, 199.12 29.7, 210.16 36.66" stroke="#1e1e1e" stroke-width="1" fill="none"></path></g></g><mask></mask><g stroke-linecap="round" transform="translate(1739.3333129882812 60) rotate(0 78 243)"><path d="M93.83 4.87 C100.95 5.62, 107.7 18.01, 114.26 28.63 C120.82 39.25, 127.87 52.53, 133.21 68.59 C138.55 84.65, 142.83 105, 146.28 124.99 C149.74 144.98, 152.21 166.5, 153.91 188.53 C155.62 210.55, 157.06 234.26, 156.52 257.14 C155.98 280.03, 153.4 304.11, 150.69 325.85 C147.98 347.59, 144.65 369.05, 140.27 387.59 C135.89 406.12, 130.02 423.4, 124.42 437.08 C118.82 450.75, 113.25 461.67, 106.65 469.63 C100.05 477.6, 92.24 482.92, 84.81 484.88 C77.38 486.84, 69.39 485.84, 62.06 481.39 C54.72 476.94, 47.2 468.9, 40.8 458.19 C34.4 447.48, 28.89 433.14, 23.66 417.13 C18.43 401.13, 13.03 382.11, 9.42 362.15 C5.81 342.2, 3.49 319.72, 1.99 297.41 C0.5 275.1, 0.11 251.3, 0.44 228.32 C0.78 205.35, 1.72 180.94, 4.02 159.55 C6.32 138.16, 9.9 118.13, 14.23 99.98 C18.56 81.82, 24.07 64.67, 30 50.62 C35.92 36.58, 42.97 24.03, 49.76 15.69 C56.55 7.36, 62.69 1.74, 70.74 0.63 C78.79 -0.47, 92.58 6.19, 98.07 9.08 C103.57 11.96, 104.03 14.22, 103.7 17.93 M68.89 1.33 C76.06 -4.92, 84.62 -0.14, 91.92 3.45 C99.23 7.03, 106.06 13.14, 112.69 22.84 C119.32 32.54, 126.25 46.1, 131.71 61.63 C137.18 77.15, 141.9 96.33, 145.49 115.98 C149.09 135.62, 151.48 157.46, 153.26 179.51 C155.04 201.56, 156.38 225.65, 156.15 248.3 C155.92 270.94, 154.1 293.62, 151.89 315.4 C149.69 337.18, 146.91 359.73, 142.92 378.97 C138.93 398.21, 133.43 416.57, 127.96 430.84 C122.49 445.11, 116.72 455.57, 110.1 464.59 C103.49 473.61, 95.75 481.93, 88.27 484.98 C80.79 488.02, 72.43 486.61, 65.23 482.85 C58.03 479.1, 51.59 472.59, 45.08 462.43 C38.57 452.26, 31.91 437.05, 26.16 421.87 C20.41 406.68, 14.4 390.42, 10.57 371.33 C6.73 352.24, 4.91 329.79, 3.14 307.33 C1.37 284.87, 0.07 259.27, -0.06 236.55 C-0.19 213.84, -0.09 192.66, 2.36 171.06 C4.81 149.46, 10.36 126.2, 14.65 106.98 C18.95 87.76, 22.94 70.27, 28.12 55.72 C33.3 41.16, 38.85 28.53, 45.74 19.66 C52.62 10.79, 65.42 4.69, 69.4 2.51 C73.39 0.33, 69.46 2.8, 69.64 6.57" stroke="#1e1e1e" stroke-width="1" fill="none"></path></g><g transform="translate(1769.3090347149102 290.6730521716689) rotate(0 47.86994934082031 12.5)"><text x="47.86994934082031" y="17.52" font-family="Virgil, Segoe UI Emoji" font-size="20px" fill="#1e1e1e" text-anchor="middle" style="white-space: pre;" direction="ltr" dominant-baseline="alphabetic">consumers</text></g><g stroke-linecap="round"><g transform="translate(1537.3333129882812 133.65233289559558) rotate(0 102.99125103539654 11.699315881225218)"><path d="M-1.15 0.76 C33.41 4.47, 171.81 19.31, 206.49 23 M0.45 0.11 C34.96 3.92, 171.44 20.36, 205.81 24.33" stroke="#1e1e1e" stroke-width="1" fill="none"></path></g><g transform="translate(1537.3333129882812 133.65233289559558) rotate(0 102.99125103539654 11.699315881225218)"><path d="M181.47 30.06 C188.32 29.82, 192 29.24, 205.81 24.33 M181.47 30.06 C187.06 28.69, 194.67 28.19, 205.81 24.33" stroke="#1e1e1e" stroke-width="1" fill="none"></path></g><g transform="translate(1537.3333129882812 133.65233289559558) rotate(0 102.99125103539654 11.699315881225218)"><path d="M183.48 13.08 C189.97 16.73, 193.19 20.08, 205.81 24.33 M183.48 13.08 C188.4 16.07, 195.49 19.94, 205.81 24.33" stroke="#1e1e1e" stroke-width="1" fill="none"></path></g></g><mask></mask><g stroke-linecap="round"><g transform="translate(1541.3333129882812 179.9083485206613) rotate(0 98.24419129261037 1.9479378336883002)"><path d="M-0.58 -1.1 C32.07 -0.74, 162.84 2, 195.65 2.7 M1.31 0.93 C34.36 1.34, 165.57 3.1, 197.92 3.62" stroke="#1e1e1e" stroke-width="1" fill="none"></path></g><g transform="translate(1541.3333129882812 179.9083485206613) rotate(0 98.24419129261037 1.9479378336883002)"><path d="M174.3 11.83 C179.04 8.24, 185.5 6.96, 197.92 3.62 M174.3 11.83 C179.98 9.02, 185.55 8.36, 197.92 3.62" stroke="#1e1e1e" stroke-width="1" fill="none"></path></g><g transform="translate(1541.3333129882812 179.9083485206613) rotate(0 98.24419129261037 1.9479378336883002)"><path d="M174.55 -5.27 C179.29 -4.07, 185.69 -0.57, 197.92 3.62 M174.55 -5.27 C180.31 -4.05, 185.82 -0.66, 197.92 3.62" stroke="#1e1e1e" stroke-width="1" fill="none"></path></g></g><mask></mask><g stroke-linecap="round"><g transform="translate(1537.3333129882812 224.11161369512672) rotate(0 95.60273329610891 -1.943160129915725)"><path d="M0.06 -0.98 C32 -1.45, 159.09 -2.95, 190.96 -3.54 M-1.37 1.13 C30.46 0.34, 157.89 -4.7, 189.89 -5.48" stroke="#1e1e1e" stroke-width="1" fill="none"></path></g><g transform="translate(1537.3333129882812 224.11161369512672) rotate(0 95.60273329610891 -1.943160129915725)"><path d="M166.69 3.83 C170.73 1.16, 178.53 -0.51, 189.89 -5.48 M166.69 3.83 C171.6 1.89, 178.4 -0.92, 189.89 -5.48" stroke="#1e1e1e" stroke-width="1" fill="none"></path></g><g transform="translate(1537.3333129882812 224.11161369512672) rotate(0 95.60273329610891 -1.943160129915725)"><path d="M166.13 -13.26 C170.2 -11.8, 178.14 -9.34, 189.89 -5.48 M166.13 -13.26 C171.12 -11, 178.06 -9.61, 189.89 -5.48" stroke="#1e1e1e" stroke-width="1" fill="none"></path></g></g><mask></mask><g stroke-linecap="round"><g transform="translate(1539.3333129882812 270.1569341694335) rotate(0 92.12594502567663 -2.8942291040705754)"><path d="M0.23 0.93 C30.81 0.1, 153.13 -3.91, 183.77 -4.88 M-1.11 0.37 C29.24 -0.79, 151.84 -5.33, 182.57 -6.52" stroke="#1e1e1e" stroke-width="1" fill="none"></path></g><g transform="translate(1539.3333129882812 270.1569341694335) rotate(0 92.12594502567663 -2.8942291040705754)"><path d="M159.42 2.91 C168.51 -1.02, 176.05 -3.56, 182.57 -6.52 M159.42 2.91 C167.17 -0.81, 176.47 -5.12, 182.57 -6.52" stroke="#1e1e1e" stroke-width="1" fill="none"></path></g><g transform="translate(1539.3333129882812 270.1569341694335) rotate(0 92.12594502567663 -2.8942291040705754)"><path d="M158.77 -14.18 C168.09 -12.53, 175.83 -9.49, 182.57 -6.52 M158.77 -14.18 C166.82 -11.5, 176.36 -9.41, 182.57 -6.52" stroke="#1e1e1e" stroke-width="1" fill="none"></path></g></g><mask></mask><g stroke-linecap="round"><g transform="translate(1531.3333129882812 320) rotate(0 93.99871452493608 -10.423771482325805)"><path d="M-0.66 0.55 C30.87 -3.1, 157.43 -17.68, 188.72 -21.44 M1.19 -0.2 C32.68 -3.74, 156.77 -16.69, 188.14 -20.22" stroke="#1e1e1e" stroke-width="1" fill="none"></path></g><g transform="translate(1531.3333129882812 320) rotate(0 93.99871452493608 -10.423771482325805)"><path d="M165.71 -9.19 C172.4 -10.73, 176.31 -16.4, 188.14 -20.22 M165.71 -9.19 C169.67 -10.88, 174.32 -13.31, 188.14 -20.22" stroke="#1e1e1e" stroke-width="1" fill="none"></path></g><g transform="translate(1531.3333129882812 320) rotate(0 93.99871452493608 -10.423771482325805)"><path d="M163.87 -26.2 C171.11 -23.32, 175.49 -24.57, 188.14 -20.22 M163.87 -26.2 C168.08 -24.49, 173.11 -23.51, 188.14 -20.22" stroke="#1e1e1e" stroke-width="1" fill="none"></path></g></g><mask></mask><g stroke-linecap="round"><g transform="translate(1531.3333129882812 366) rotate(0 96.1455408854763 -13.283728639279417)"><path d="M-1.11 1.09 C31.29 -3.1, 161.06 -21.48, 193.43 -26.25 M0.51 0.61 C32.94 -3.85, 161.04 -23.65, 193.07 -28.21" stroke="#1e1e1e" stroke-width="1" fill="none"></path></g><g transform="translate(1531.3333129882812 366) rotate(0 96.1455408854763 -13.283728639279417)"><path d="M171.1 -16.29 C177.84 -16.81, 181.38 -20.02, 193.07 -28.21 M171.1 -16.29 C176.06 -18.58, 180.05 -21.86, 193.07 -28.21" stroke="#1e1e1e" stroke-width="1" fill="none"></path></g><g transform="translate(1531.3333129882812 366) rotate(0 96.1455408854763 -13.283728639279417)"><path d="M168.58 -33.2 C175.72 -29.99, 179.81 -29.48, 193.07 -28.21 M168.58 -33.2 C174.24 -31.83, 178.78 -31.41, 193.07 -28.21" stroke="#1e1e1e" stroke-width="1" fill="none"></path></g></g><mask></mask><g stroke-linecap="round"><g transform="translate(1533.3333129882812 532) rotate(0 106.84143627696574 -31.07372901961071)"><path d="M0.49 -0.96 C36.31 -11.29, 179.03 -51.11, 214.56 -61.45 M-0.71 1.15 C35.06 -9.58, 178.47 -52.66, 214.08 -63.2" stroke="#1e1e1e" stroke-width="1" fill="none"></path></g><g transform="translate(1533.3333129882812 532) rotate(0 106.84143627696574 -31.07372901961071)"><path d="M194.01 -48.29 C197.73 -50.9, 205.87 -56.34, 214.08 -63.2 M194.01 -48.29 C198.09 -52.17, 204.14 -55.57, 214.08 -63.2" stroke="#1e1e1e" stroke-width="1" fill="none"></path></g><g transform="translate(1533.3333129882812 532) rotate(0 106.84143627696574 -31.07372901961071)"><path d="M189.12 -64.68 C194.22 -62.92, 203.68 -63.96, 214.08 -63.2 M189.12 -64.68 C194.2 -64.75, 201.38 -64.38, 214.08 -63.2" stroke="#1e1e1e" stroke-width="1" fill="none"></path></g></g><mask></mask><g transform="translate(1623.3333129882812 408) rotate(0 16.439987182617188 12.5)"><text x="0" y="17.52" font-family="Virgil, Segoe UI Emoji" font-size="20px" fill="#1e1e1e" text-anchor="start" style="white-space: pre;" direction="ltr" dominant-baseline="alphabetic">......</text></g></svg>