<svg version="1.1" xmlns="http://www.w3.org/2000/svg" viewBox="0 0 736 376" width="736" height="376">
  <!-- svg-source:excalidraw -->
  
  <defs>
    <style class="style-fonts">
      @font-face {
        font-family: "Virgil";
        src: url("https://excalidraw.com/Virgil.woff2");
      }
      @font-face {
        font-family: "Cascadia";
        src: url("https://excalidraw.com/Cascadia.woff2");
      }
      @font-face {
        font-family: "Assistant";
        src: url("https://excalidraw.com/Assistant-Regular.woff2");
      }
    </style>
    
  </defs>
  <rect x="0" y="0" width="736" height="376" fill="#ffffff"></rect><g stroke-linecap="round" transform="translate(10 10) rotate(0 70 55)"><path d="M27.5 0 C59.35 -1.6, 93.61 -0.67, 112.5 0 M27.5 0 C47.02 -1.22, 64.7 -1.49, 112.5 0 M112.5 0 C132.17 -1.61, 139.25 10.84, 140 27.5 M112.5 0 C130.19 -1.63, 138.04 10.65, 140 27.5 M140 27.5 C137.68 40.59, 141.31 50.07, 140 82.5 M140 27.5 C140.08 42.35, 140 57.52, 140 82.5 M140 82.5 C141.91 99.93, 132.59 111.14, 112.5 110 M140 82.5 C141.95 102.67, 131.64 108.81, 112.5 110 M112.5 110 C82.45 110.96, 50.67 110.38, 27.5 110 M112.5 110 C83.24 111.06, 55.88 111.05, 27.5 110 M27.5 110 C7.39 111.1, 0.05 100.79, 0 82.5 M27.5 110 C7.05 109.95, -1.76 100.35, 0 82.5 M0 82.5 C1.82 67.54, -0.74 54.01, 0 27.5 M0 82.5 C1.29 67.9, 0.64 54.19, 0 27.5 M0 27.5 C-1.23 7.51, 10.43 -1.11, 27.5 0 M0 27.5 C-1.49 8.17, 9.59 -0.98, 27.5 0" stroke="#1e1e1e" stroke-width="2" fill="none"></path></g><g transform="translate(55.410011291503906 52.5) rotate(0 24.589988708496094 12.5)"><text x="24.589988708496094" y="17.52" font-family="Virgil, Segoe UI Emoji" font-size="20px" fill="#1e1e1e" text-anchor="middle" style="white-space: pre;" direction="ltr" dominant-baseline="alphabetic">.java</text></g><g stroke-linecap="round" transform="translate(286 11) rotate(0 70 55)"><path d="M27.5 0 C52.33 -0.58, 74.9 1, 112.5 0 M27.5 0 C50.54 0.72, 74.42 0.96, 112.5 0 M112.5 0 C131.91 -0.99, 139.41 10.47, 140 27.5 M112.5 0 C128.98 1.82, 141.81 11, 140 27.5 M140 27.5 C140.93 47.08, 140.14 68.54, 140 82.5 M140 27.5 C140.68 45.98, 139.56 62.22, 140 82.5 M140 82.5 C140.95 100.7, 129.06 109.14, 112.5 110 M140 82.5 C138.12 102.04, 129.69 107.89, 112.5 110 M112.5 110 C90.04 111.41, 62.56 110.91, 27.5 110 M112.5 110 C88.09 109.85, 62.42 109.84, 27.5 110 M27.5 110 C7.92 111.24, -0.17 102.34, 0 82.5 M27.5 110 C7.84 110.56, -0.13 99.97, 0 82.5 M0 82.5 C2.31 73.03, 1.82 58.99, 0 27.5 M0 82.5 C0.24 62.42, 0.74 42.87, 0 27.5 M0 27.5 C1.25 10.22, 10.28 1.64, 27.5 0 M0 27.5 C-1.19 7.27, 11.17 -1.89, 27.5 0" stroke="#1e1e1e" stroke-width="2" fill="none"></path></g><g transform="translate(328.0800247192383 53.5) rotate(0 27.91997528076172 12.5)"><text x="27.91997528076172" y="17.52" font-family="Virgil, Segoe UI Emoji" font-size="20px" fill="#1e1e1e" text-anchor="middle" style="white-space: pre;" direction="ltr" dominant-baseline="alphabetic">.class</text></g><g stroke-linecap="round"><g transform="translate(158 64.485228081527) rotate(0 59 -1.5166613967214744)"><path d="M0.73 0.14 C20.4 -0.72, 99.1 -3.43, 118.83 -4.14 M-0.34 -0.84 C19.17 -1.06, 98.44 -2.76, 118.31 -3.19" stroke="#1e1e1e" stroke-width="2" fill="none"></path></g><g transform="translate(158 64.485228081527) rotate(0 59 -1.5166613967214744)"><path d="M95.01 5.86 C103.76 3.76, 110.29 0.85, 118.31 -3.19 M95.01 5.86 C99.77 3.96, 103.67 2.75, 118.31 -3.19" stroke="#1e1e1e" stroke-width="2" fill="none"></path></g><g transform="translate(158 64.485228081527) rotate(0 59 -1.5166613967214744)"><path d="M94.64 -11.24 C103.68 -7.03, 110.34 -3.63, 118.31 -3.19 M94.64 -11.24 C99.6 -9.58, 103.57 -7.25, 118.31 -3.19" stroke="#1e1e1e" stroke-width="2" fill="none"></path></g></g><mask></mask><g transform="translate(176 32) rotate(0 26.86998748779297 12.5)"><text x="0" y="17.52" font-family="Virgil, Segoe UI Emoji" font-size="20px" fill="#1e1e1e" text-anchor="start" style="white-space: pre;" direction="ltr" dominant-baseline="alphabetic">javac</text></g><g stroke-linecap="round" transform="translate(86 158) rotate(0 320 104)"><path d="M32 0 C231.2 -1.48, 428.72 -1.68, 608 0 M32 0 C258.95 0.63, 486.11 -0.1, 608 0 M608 0 C627.45 -0.82, 641.26 8.72, 640 32 M608 0 C629.37 1.14, 639.7 8.63, 640 32 M640 32 C638.76 91.33, 638.78 145.33, 640 176 M640 32 C637.9 66.97, 639.36 101.12, 640 176 M640 176 C640.9 199, 627.67 209.53, 608 208 M640 176 C641.75 196.1, 629.77 208.49, 608 208 M608 208 C488.15 206.5, 366.22 206.11, 32 208 M608 208 C385.57 210.41, 162.8 210.44, 32 208 M32 208 C9.29 209.77, -0.16 195.58, 0 176 M32 208 C12.18 209.91, 2.19 198, 0 176 M0 176 C-0.71 141.08, 0.02 103.81, 0 32 M0 176 C-1.87 137.36, -0.08 96.89, 0 32 M0 32 C1.59 11.3, 11.39 -1.85, 32 0 M0 32 C-1.06 12.79, 11.68 -0.13, 32 0" stroke="#1e1e1e" stroke-width="2" fill="none"></path></g><g stroke-linecap="round" transform="translate(274 190) rotate(0 166 50)"><path d="M25 0 C96.28 1.33, 167.58 2.31, 307 0 M25 0 C133.39 2.4, 243.46 1.98, 307 0 M307 0 C322.32 0.28, 332.59 7.11, 332 25 M307 0 C321.81 -0.64, 332.82 8.82, 332 25 M332 25 C331.89 43.33, 332 57.57, 332 75 M332 25 C331.18 37.83, 331.66 49.22, 332 75 M332 75 C333.9 90.57, 322.33 100.31, 307 100 M332 75 C333.81 90.29, 325.56 100.27, 307 100 M307 100 C232.64 98.88, 156.3 97.77, 25 100 M307 100 C218.04 99.65, 128.3 99.63, 25 100 M25 100 C10.12 101.71, -0.05 91.63, 0 75 M25 100 C8.89 101.07, -1.86 90.03, 0 75 M0 75 C-1.15 62.91, 2.04 49.03, 0 25 M0 75 C0.45 64.68, -0.41 55.16, 0 25 M0 25 C1.77 6.66, 7.04 -1.92, 25 0 M0 25 C-2.23 9.56, 8.83 1.96, 25 0" stroke="#1e1e1e" stroke-width="2" fill="none"></path></g><g stroke-linecap="round"><g transform="translate(350.8348344128417 124.99996746986358) rotate(0 -0.3434158413380146 40.50001626506821)"><path d="M-0.7 0.66 C-0.72 14.2, -0.51 67.25, -0.42 80.8 M1.13 -0.04 C1 13.72, -0.93 68.88, -1.23 82.24" stroke="#1e1e1e" stroke-width="2" fill="none"></path></g><g transform="translate(350.8348344128417 124.99996746986358) rotate(0 -0.3434158413380146 40.50001626506821)"><path d="M-9.09 58.51 C-5.9 65.57, -5.15 72.57, -1.23 82.24 M-9.09 58.51 C-7.07 68.51, -2.96 77.25, -1.23 82.24" stroke="#1e1e1e" stroke-width="2" fill="none"></path></g><g transform="translate(350.8348344128417 124.99996746986358) rotate(0 -0.3434158413380146 40.50001626506821)"><path d="M8.01 59.01 C6.47 65.83, 2.49 72.69, -1.23 82.24 M8.01 59.01 C3.52 68.83, 1.12 77.38, -1.23 82.24" stroke="#1e1e1e" stroke-width="2" fill="none"></path></g></g><mask></mask><g transform="translate(104 170) rotate(0 13.339988708496094 12.5)"><text x="0" y="17.52" font-family="Virgil, Segoe UI Emoji" font-size="20px" fill="#1e1e1e" text-anchor="start" style="white-space: pre;" direction="ltr" dominant-baseline="alphabetic">OS</text></g><g stroke-linecap="round"><g transform="translate(84 304) rotate(0 319 -1)"><path d="M-0.79 -0.64 C105.71 -1.12, 532.1 -1.83, 638.54 -1.98 M1 1.65 C107.43 1.28, 531.88 0.45, 637.88 -0.44" stroke="#1e1e1e" stroke-width="2" fill="none"></path></g></g><mask></mask><g transform="translate(102 268) rotate(0 53.39994812011719 12.5)"><text x="0" y="17.52" font-family="Virgil, Segoe UI Emoji" font-size="20px" fill="#1e1e1e" text-anchor="start" style="white-space: pre;" direction="ltr" dominant-baseline="alphabetic">user space</text></g><g transform="translate(106 323) rotate(0 59.92994689941406 12.5)"><text x="0" y="17.52" font-family="Virgil, Segoe UI Emoji" font-size="20px" fill="#1e1e1e" text-anchor="start" style="white-space: pre;" direction="ltr" dominant-baseline="alphabetic">kernel space</text></g><g transform="translate(358 132) rotate(0 21.849990844726562 12.5)"><text x="0" y="17.52" font-family="Virgil, Segoe UI Emoji" font-size="20px" fill="#1e1e1e" text-anchor="start" style="white-space: pre;" direction="ltr" dominant-baseline="alphabetic">java</text></g><g transform="translate(232 226) rotate(0 14.839988708496094 12.5)"><text x="0" y="17.52" font-family="Virgil, Segoe UI Emoji" font-size="20px" fill="#1e1e1e" text-anchor="start" style="white-space: pre;" direction="ltr" dominant-baseline="alphabetic">jvm</text></g><g stroke-linecap="round" transform="translate(298 210) rotate(0 70 25)"><path d="M12.5 0 C58.7 1.54, 102.87 2.01, 127.5 0 M12.5 0 C42.1 0.07, 72.67 0.92, 127.5 0 M127.5 0 C136.91 -1.05, 139.44 5.05, 140 12.5 M127.5 0 C137.39 0.07, 140.68 3.48, 140 12.5 M140 12.5 C140.79 21.75, 138.56 28.1, 140 37.5 M140 12.5 C139.12 21.69, 140.7 30.26, 140 37.5 M140 37.5 C140.15 43.86, 137.26 49.61, 127.5 50 M140 37.5 C140.03 45.04, 137.23 49.45, 127.5 50 M127.5 50 C93.12 50.53, 54.27 49.68, 12.5 50 M127.5 50 C90.52 49.91, 51.81 50.17, 12.5 50 M12.5 50 C4.75 48.81, 0.64 46.8, 0 37.5 M12.5 50 C3.94 50.5, -0.94 46.65, 0 37.5 M0 37.5 C0.77 32.19, -1.72 26.63, 0 12.5 M0 37.5 C-0.47 28.4, 0 18.56, 0 12.5 M0 12.5 C-1.69 3.54, 5.7 1.97, 12.5 0 M0 12.5 C2.03 5.62, 4.52 -0.6, 12.5 0" stroke="#1e1e1e" stroke-width="2" fill="none"></path></g><g transform="translate(311.9200134277344 222.5) rotate(0 56.079986572265625 12.5)"><text x="56.079986572265625" y="17.52" font-family="Virgil, Segoe UI Emoji" font-size="20px" fill="#1e1e1e" text-anchor="middle" style="white-space: pre;" direction="ltr" dominant-baseline="alphabetic">解释器+JIT</text></g><g stroke-linecap="round" transform="translate(508 210) rotate(0 42 27)"><path d="M13.5 0 C34.85 -0.31, 56.42 1.42, 70.5 0 M13.5 0 C33.34 0.08, 53.72 0.89, 70.5 0 M70.5 0 C78.41 -0.46, 85.84 3.62, 84 13.5 M70.5 0 C78.11 0.1, 82.5 3.36, 84 13.5 M84 13.5 C84.39 21.68, 83.39 25.19, 84 40.5 M84 13.5 C83.77 19.03, 83.11 26.13, 84 40.5 M84 40.5 C84.8 50.83, 79.16 52.84, 70.5 54 M84 40.5 C82.31 51.01, 78.3 55.95, 70.5 54 M70.5 54 C53.54 56.19, 35.98 52.58, 13.5 54 M70.5 54 C53.56 53.19, 36.59 54.26, 13.5 54 M13.5 54 C5.18 53.89, -0.43 47.82, 0 40.5 M13.5 54 C5.49 55.43, -1.12 49.04, 0 40.5 M0 40.5 C-1.74 35.4, 0.45 28.16, 0 13.5 M0 40.5 C0.42 34.13, -0.09 27.09, 0 13.5 M0 13.5 C1.72 5.97, 5.91 0.63, 13.5 0 M0 13.5 C-1.92 6.39, 4.89 -1.09, 13.5 0" stroke="#1e1e1e" stroke-width="2" fill="none"></path></g><g transform="translate(520 224.5) rotate(0 30 12.5)"><text x="30" y="17.52" font-family="Virgil, Segoe UI Emoji" font-size="20px" fill="#1e1e1e" text-anchor="middle" style="white-space: pre;" direction="ltr" dominant-baseline="alphabetic">机器码</text></g><g stroke-linecap="round"><g transform="translate(446 236) rotate(0 29 0)"><path d="M-0.67 -0.53 C8.96 -0.32, 47.74 0.15, 57.67 0.18 M1.18 1.8 C10.63 2.34, 46.98 1.98, 56.55 1.81" stroke="#1e1e1e" stroke-width="2" fill="none"></path></g><g transform="translate(446 236) rotate(0 29 0)"><path d="M33.16 10.65 C39.19 7.64, 47.21 7.06, 56.55 1.81 M33.16 10.65 C38.64 7.61, 46 5.64, 56.55 1.81" stroke="#1e1e1e" stroke-width="2" fill="none"></path></g><g transform="translate(446 236) rotate(0 29 0)"><path d="M32.95 -6.45 C38.88 -4.46, 46.96 -0.05, 56.55 1.81 M32.95 -6.45 C38.65 -4.86, 46.07 -2.21, 56.55 1.81" stroke="#1e1e1e" stroke-width="2" fill="none"></path></g></g><mask></mask></svg>