<svg version="1.1" xmlns="http://www.w3.org/2000/svg" viewBox="0 0 840 603" width="840" height="603">
  <!-- svg-source:excalidraw -->
  
  <defs>
    <style class="style-fonts">
      @font-face {
        font-family: "Virgil";
        src: url("https://excalidraw.com/Virgil.woff2");
      }
      @font-face {
        font-family: "Cascadia";
        src: url("https://excalidraw.com/Cascadia.woff2");
      }
      @font-face {
        font-family: "Assistant";
        src: url("https://excalidraw.com/Assistant-Regular.woff2");
      }
    </style>
    
  </defs>
  <rect x="0" y="0" width="840" height="603" fill="#ffffff"></rect><g stroke-linecap="round" transform="translate(10 11) rotate(0 70 55)"><path d="M27.5 0 C59.35 -1.6, 93.61 -0.67, 112.5 0 M27.5 0 C47.02 -1.22, 64.7 -1.49, 112.5 0 M112.5 0 C132.17 -1.61, 139.25 10.84, 140 27.5 M112.5 0 C130.19 -1.63, 138.04 10.65, 140 27.5 M140 27.5 C137.68 40.59, 141.31 50.07, 140 82.5 M140 27.5 C140.08 42.35, 140 57.52, 140 82.5 M140 82.5 C141.91 99.93, 132.59 111.14, 112.5 110 M140 82.5 C141.95 102.67, 131.64 108.81, 112.5 110 M112.5 110 C82.45 110.96, 50.67 110.38, 27.5 110 M112.5 110 C83.24 111.06, 55.88 111.05, 27.5 110 M27.5 110 C7.39 111.1, 0.05 100.79, 0 82.5 M27.5 110 C7.05 109.95, -1.76 100.35, 0 82.5 M0 82.5 C1.82 67.54, -0.74 54.01, 0 27.5 M0 82.5 C1.29 67.9, 0.64 54.19, 0 27.5 M0 27.5 C-1.23 7.51, 10.43 -1.11, 27.5 0 M0 27.5 C-1.49 8.17, 9.59 -0.98, 27.5 0" stroke="#1e1e1e" stroke-width="2" fill="none"></path></g><g transform="translate(55.410011291503906 53.5) rotate(0 24.589988708496094 12.5)"><text x="24.589988708496094" y="17.52" font-family="Virgil, Segoe UI Emoji" font-size="20px" fill="#1e1e1e" text-anchor="middle" style="white-space: pre;" direction="ltr" dominant-baseline="alphabetic">.java</text></g><g stroke-linecap="round" transform="translate(286 10) rotate(0 70 55)"><path d="M27.5 0 C52.33 -0.58, 74.9 1, 112.5 0 M27.5 0 C50.54 0.72, 74.42 0.96, 112.5 0 M112.5 0 C131.91 -0.99, 139.41 10.47, 140 27.5 M112.5 0 C128.98 1.82, 141.81 11, 140 27.5 M140 27.5 C140.93 47.08, 140.14 68.54, 140 82.5 M140 27.5 C140.68 45.98, 139.56 62.22, 140 82.5 M140 82.5 C140.95 100.7, 129.06 109.14, 112.5 110 M140 82.5 C138.12 102.04, 129.69 107.89, 112.5 110 M112.5 110 C90.04 111.41, 62.56 110.91, 27.5 110 M112.5 110 C88.09 109.85, 62.42 109.84, 27.5 110 M27.5 110 C7.92 111.24, -0.17 102.34, 0 82.5 M27.5 110 C7.84 110.56, -0.13 99.97, 0 82.5 M0 82.5 C2.31 73.03, 1.82 58.99, 0 27.5 M0 82.5 C0.24 62.42, 0.74 42.87, 0 27.5 M0 27.5 C1.25 10.22, 10.28 1.64, 27.5 0 M0 27.5 C-1.19 7.27, 11.17 -1.89, 27.5 0" stroke="#1e1e1e" stroke-width="2" fill="none"></path></g><g transform="translate(328.0800247192383 52.5) rotate(0 27.91997528076172 12.5)"><text x="27.91997528076172" y="17.52" font-family="Virgil, Segoe UI Emoji" font-size="20px" fill="#1e1e1e" text-anchor="middle" style="white-space: pre;" direction="ltr" dominant-baseline="alphabetic">.class</text></g><g stroke-linecap="round"><g transform="translate(158 65.485228081527) rotate(0 59 -2.138170460905684)"><path d="M0.73 0.14 C20.4 -0.93, 99.1 -4.46, 118.83 -5.38 M-0.34 -0.84 C19.17 -1.27, 98.44 -3.79, 118.31 -4.43" stroke="#1e1e1e" stroke-width="2" fill="none"></path></g><g transform="translate(158 65.485228081527) rotate(0 59 -2.138170460905684)"><path d="M95.1 4.86 C103.82 2.67, 110.31 -0.33, 118.31 -4.43 M95.1 4.86 C99.85 2.91, 103.73 1.64, 118.31 -4.43" stroke="#1e1e1e" stroke-width="2" fill="none"></path></g><g transform="translate(158 65.485228081527) rotate(0 59 -2.138170460905684)"><path d="M94.56 -12.23 C103.62 -8.12, 110.31 -4.8, 118.31 -4.43 M94.56 -12.23 C99.53 -10.63, 103.52 -8.35, 118.31 -4.43" stroke="#1e1e1e" stroke-width="2" fill="none"></path></g></g><mask></mask><g transform="translate(176 33) rotate(0 26.86998748779297 12.5)"><text x="0" y="17.52" font-family="Virgil, Segoe UI Emoji" font-size="20px" fill="#1e1e1e" text-anchor="start" style="white-space: pre;" direction="ltr" dominant-baseline="alphabetic">javac</text></g><g stroke-linecap="round"><g transform="translate(435.9999674698637 74.05006654975404) rotate(0 42.563542770808624 -0.10225693241127942)"><path d="M-0.7 0.66 C13.58 0.66, 71 -0.42, 85.4 -0.4 M1.13 -0.04 C15.3 0.19, 70.58 1.21, 84.59 1.03" stroke="#1e1e1e" stroke-width="2" fill="none"></path></g><g transform="translate(435.9999674698637 74.05006654975404) rotate(0 42.563542770808624 -0.10225693241127942)"><path d="M61.05 9.46 C68.69 7.71, 73.78 5.82, 84.59 1.03 M61.05 9.46 C69.23 7.2, 79.31 3.7, 84.59 1.03" stroke="#1e1e1e" stroke-width="2" fill="none"></path></g><g transform="translate(435.9999674698637 74.05006654975404) rotate(0 42.563542770808624 -0.10225693241127942)"><path d="M61.14 -7.64 C68.69 -4.66, 73.76 -1.82, 84.59 1.03 M61.14 -7.64 C69.18 -3.39, 79.23 -0.38, 84.59 1.03" stroke="#1e1e1e" stroke-width="2" fill="none"></path></g></g><mask></mask><g stroke-linecap="round" transform="translate(558 281) rotate(0 42 27)"><path d="M13.5 0 C34.85 -0.31, 56.42 1.42, 70.5 0 M13.5 0 C33.34 0.08, 53.72 0.89, 70.5 0 M70.5 0 C78.41 -0.46, 85.84 3.62, 84 13.5 M70.5 0 C78.11 0.1, 82.5 3.36, 84 13.5 M84 13.5 C84.39 21.68, 83.39 25.19, 84 40.5 M84 13.5 C83.77 19.03, 83.11 26.13, 84 40.5 M84 40.5 C84.8 50.83, 79.16 52.84, 70.5 54 M84 40.5 C82.31 51.01, 78.3 55.95, 70.5 54 M70.5 54 C53.54 56.19, 35.98 52.58, 13.5 54 M70.5 54 C53.56 53.19, 36.59 54.26, 13.5 54 M13.5 54 C5.18 53.89, -0.43 47.82, 0 40.5 M13.5 54 C5.49 55.43, -1.12 49.04, 0 40.5 M0 40.5 C-1.74 35.4, 0.45 28.16, 0 13.5 M0 40.5 C0.42 34.13, -0.09 27.09, 0 13.5 M0 13.5 C1.72 5.97, 5.91 0.63, 13.5 0 M0 13.5 C-1.92 6.39, 4.89 -1.09, 13.5 0" stroke="#1e1e1e" stroke-width="2" fill="none"></path></g><g transform="translate(570 295.5) rotate(0 30 12.5)"><text x="30" y="17.52" font-family="Virgil, Segoe UI Emoji" font-size="20px" fill="#1e1e1e" text-anchor="middle" style="white-space: pre;" direction="ltr" dominant-baseline="alphabetic">机器码</text></g><g stroke-linecap="round" transform="translate(526 17) rotate(0 77 60)"><path d="M96.25 15.25 C104.93 20.65, 111.24 28.44, 134.75 45.75 M96.25 15.25 C109.42 25.77, 124.74 37.84, 134.75 45.75 M134.75 45.75 C153.78 60.11, 155.53 60.58, 134.75 76.25 M134.75 45.75 C152.08 61.32, 156.09 58.84, 134.75 76.25 M134.75 76.25 C117.63 86, 103.79 99.69, 96.25 104.75 M134.75 76.25 C120.9 86.85, 106.52 97.25, 96.25 104.75 M96.25 104.75 C78.33 119.68, 77.27 120.78, 57.75 104.75 M96.25 104.75 C76.8 119, 74.95 117.71, 57.75 104.75 M57.75 104.75 C44.53 94.57, 30.26 82.92, 19.25 76.25 M57.75 104.75 C45.24 94.42, 31.6 86.68, 19.25 76.25 M19.25 76.25 C0.7 60.84, -1.87 59.36, 19.25 45.75 M19.25 76.25 C0.13 62.3, -0.2 60.28, 19.25 45.75 M19.25 45.75 C30.34 39.54, 40.04 31.41, 57.75 15.25 M19.25 45.75 C28.89 37.31, 39.64 29.72, 57.75 15.25 M57.75 15.25 C77.15 -0.23, 77 -0.64, 96.25 15.25 M57.75 15.25 C75.65 2.28, 78.31 0.56, 96.25 15.25" stroke="#1e1e1e" stroke-width="2" fill="none"></path></g><g transform="translate(573 52) rotate(0 30 25)"><text x="30" y="17.52" font-family="Virgil, Segoe UI Emoji" font-size="20px" fill="#1e1e1e" text-anchor="middle" style="white-space: pre;" direction="ltr" dominant-baseline="alphabetic">热点代</text><text x="30" y="42.519999999999996" font-family="Virgil, Segoe UI Emoji" font-size="20px" fill="#1e1e1e" text-anchor="middle" style="white-space: pre;" direction="ltr" dominant-baseline="alphabetic">码？</text></g><g stroke-linecap="round"><g transform="translate(598 145) rotate(0 1 64)"><path d="M0.59 0.26 C0.8 21.79, 2.33 106.73, 2.39 128.01 M-0.56 -0.65 C-0.57 21.2, 1 107.9, 1.64 129.56" stroke="#1e1e1e" stroke-width="2" fill="none"></path></g><g transform="translate(598 145) rotate(0 1 64)"><path d="M-7.44 106.26 C-3.65 116.05, -0.48 122.86, 1.64 129.56 M-7.44 106.26 C-4.29 112.4, -1.88 119.4, 1.64 129.56" stroke="#1e1e1e" stroke-width="2" fill="none"></path></g><g transform="translate(598 145) rotate(0 1 64)"><path d="M9.66 105.87 C6.7 115.9, 3.12 122.86, 1.64 129.56 M9.66 105.87 C7.73 112.17, 5.08 119.29, 1.64 129.56" stroke="#1e1e1e" stroke-width="2" fill="none"></path></g></g><mask></mask><g transform="translate(612 197) rotate(0 15.589981079101562 12.5)"><text x="0" y="17.52" font-family="Virgil, Segoe UI Emoji" font-size="20px" fill="#1e1e1e" text-anchor="start" style="white-space: pre;" direction="ltr" dominant-baseline="alphabetic">yes</text></g><g stroke-linecap="round" transform="translate(720 168) rotate(0 42 27)"><path d="M13.5 0 C25.23 -0.96, 40.34 0.51, 70.5 0 M13.5 0 C34.12 -0.23, 53.5 -0.42, 70.5 0 M70.5 0 C80.82 -1.3, 83.74 2.59, 84 13.5 M70.5 0 C81.58 1.41, 86.09 6.15, 84 13.5 M84 13.5 C83.05 23.38, 85.89 34.76, 84 40.5 M84 13.5 C84.29 21.73, 83.33 27.24, 84 40.5 M84 40.5 C82.42 48.56, 79.96 52.12, 70.5 54 M84 40.5 C84.16 48.41, 78.61 53.74, 70.5 54 M70.5 54 C51.08 52.78, 35.45 54.54, 13.5 54 M70.5 54 C58.27 53.92, 47.26 55.35, 13.5 54 M13.5 54 C3.21 55.49, 1.67 51.2, 0 40.5 M13.5 54 C2.87 52.04, 0.37 47.36, 0 40.5 M0 40.5 C-0.83 33.2, 0.01 24.42, 0 13.5 M0 40.5 C-1.19 34.94, 0.28 28.96, 0 13.5 M0 13.5 C0.4 4.79, 5.01 -0.21, 13.5 0 M0 13.5 C-1.04 2.94, 6.5 1.23, 13.5 0" stroke="#1e1e1e" stroke-width="2" fill="none"></path></g><g transform="translate(732 182.5) rotate(0 30 12.5)"><text x="30" y="17.52" font-family="Virgil, Segoe UI Emoji" font-size="20px" fill="#1e1e1e" text-anchor="middle" style="white-space: pre;" direction="ltr" dominant-baseline="alphabetic">解释器</text></g><g stroke-linecap="round"><g transform="translate(684 77) rotate(0 37 41)"><path d="M-0.4 -0.45 C11.26 0, 57.39 -10.13, 69.95 3.54 C82.5 17.22, 74.27 68.47, 74.92 81.61 M1.58 -1.73 C13.09 -1.19, 56.8 -9.23, 68.97 4.84 C81.15 18.91, 73.79 69.59, 74.64 82.72" stroke="#1e1e1e" stroke-width="2" fill="none"></path></g><g transform="translate(684 77) rotate(0 37 41)"><path d="M66.92 58.94 C68.65 65.95, 70.92 74.64, 74.64 82.72 M66.92 58.94 C69.67 66.11, 70.87 72.38, 74.64 82.72" stroke="#1e1e1e" stroke-width="2" fill="none"></path></g><g transform="translate(684 77) rotate(0 37 41)"><path d="M84.01 59.55 C80.65 66.32, 77.85 74.83, 74.64 82.72 M84.01 59.55 C82.19 66.6, 78.82 72.71, 74.64 82.72" stroke="#1e1e1e" stroke-width="2" fill="none"></path></g></g><mask></mask><g transform="translate(732 39) rotate(0 10.209991455078125 12.5)"><text x="0" y="17.52" font-family="Virgil, Segoe UI Emoji" font-size="20px" fill="#1e1e1e" text-anchor="start" style="white-space: pre;" direction="ltr" dominant-baseline="alphabetic">no</text></g><g stroke-linecap="round"><g transform="translate(764 233) rotate(0 -56 37)"><path d="M-0.09 0.83 C-2.72 11.59, 1.59 52.92, -16.87 65.07 C-35.32 77.22, -95.04 72.24, -110.84 73.74 M-1.6 0.22 C-3.76 10.63, 3.62 51.06, -14.61 63.51 C-32.84 75.96, -94.89 72.98, -110.99 74.93" stroke="#1e1e1e" stroke-width="2" fill="none"></path></g><g transform="translate(764 233) rotate(0 -56 37)"><path d="M-87.85 65.45 C-91.3 65.98, -95.77 71.36, -110.99 74.93 M-87.85 65.45 C-94.47 67.67, -99.87 71.49, -110.99 74.93" stroke="#1e1e1e" stroke-width="2" fill="none"></path></g><g transform="translate(764 233) rotate(0 -56 37)"><path d="M-87.18 82.54 C-90.84 79.47, -95.45 81.26, -110.99 74.93 M-87.18 82.54 C-94.03 80, -99.62 79.06, -110.99 74.93" stroke="#1e1e1e" stroke-width="2" fill="none"></path></g></g><mask></mask><g stroke-linecap="round" transform="translate(402 395) rotate(0 214 99)"><path d="M32 0 C173.41 -0.27, 314.32 -1.68, 396 0 M32 0 C119.46 -1.21, 207.34 -1.03, 396 0 M396 0 C418.05 -1.59, 429.83 11.9, 428 32 M396 0 C416.43 -0.41, 425.74 9.12, 428 32 M428 32 C426.72 73.73, 428.55 120.37, 428 166 M428 32 C427.21 62.59, 427.39 90.57, 428 166 M428 166 C427.68 187.58, 419.1 197.6, 396 198 M428 166 C430.16 188.79, 415.05 196.1, 396 198 M396 198 C316.87 197.91, 239.37 199.02, 32 198 M396 198 C300.78 197.16, 206.44 196.7, 32 198 M32 198 C9.97 196.55, 1.4 185.47, 0 166 M32 198 C8.8 197.96, 1.68 186, 0 166 M0 166 C-1.37 119.01, -1.85 70.92, 0 32 M0 166 C1.5 123.44, 1.38 78.99, 0 32 M0 32 C-1.93 10.84, 8.76 -1.74, 32 0 M0 32 C1.25 12.49, 10.52 0.36, 32 0" stroke="#1e1e1e" stroke-width="2" fill="none"></path></g><g transform="translate(430 415) rotate(0 10.969985961914062 12.5)"><text x="0" y="17.52" font-family="Virgil, Segoe UI Emoji" font-size="20px" fill="#1e1e1e" text-anchor="start" style="white-space: pre;" direction="ltr" dominant-baseline="alphabetic">os</text></g><g stroke-linecap="round"><g transform="translate(602 339) rotate(0 0 26)"><path d="M-0.6 0.03 C-0.86 8.39, -1.09 42.52, -0.8 51.31 M1.29 -1 C1.34 8.01, 1.54 43.85, 1.49 52.49" stroke="#1e1e1e" stroke-width="2" fill="none"></path></g><g transform="translate(602 339) rotate(0 0 26)"><path d="M-7.08 29 C-3.69 36.25, -1.77 48.03, 1.49 52.49 M-7.08 29 C-3.27 38.32, -0.46 46.31, 1.49 52.49" stroke="#1e1e1e" stroke-width="2" fill="none"></path></g><g transform="translate(602 339) rotate(0 0 26)"><path d="M10.02 28.99 C7.19 36.16, 2.89 47.94, 1.49 52.49 M10.02 28.99 C7.63 38.26, 4.24 46.25, 1.49 52.49" stroke="#1e1e1e" stroke-width="2" fill="none"></path></g></g><mask></mask><g stroke-linecap="round" transform="translate(542 425) rotate(0 59 24)"><path d="M12 0 C44.41 1.19, 79.75 -0.1, 106 0 M12 0 C35.52 0.79, 58.27 -0.78, 106 0 M106 0 C115.92 0.94, 119.18 4.14, 118 12 M106 0 C116.06 1.21, 116.11 3.34, 118 12 M118 12 C117.99 20.87, 117.95 26.07, 118 36 M118 12 C118.94 18.81, 118.44 25.77, 118 36 M118 36 C118.24 42.51, 112.76 49.3, 106 48 M118 36 C119.59 45.63, 115.94 47.66, 106 48 M106 48 C75.33 49.95, 44.35 49.99, 12 48 M106 48 C78.59 49.14, 50.57 48.06, 12 48 M12 48 C5.32 49.44, 1.31 45.14, 0 36 M12 48 C5.14 47.59, -1.69 43.16, 0 36 M0 36 C-1.18 26.81, 0.8 20.75, 0 12 M0 36 C0.16 29.17, 0.32 24.93, 0 12 M0 12 C-0.99 4.63, 5.13 -0.3, 12 0 M0 12 C1.4 5.18, 3.62 0.9, 12 0" stroke="#1e1e1e" stroke-width="2" fill="none"></path></g><g transform="translate(560.6800155639648 436.5) rotate(0 40.319984436035156 12.5)"><text x="40.319984436035156" y="17.52" font-family="Virgil, Segoe UI Emoji" font-size="20px" fill="#1e1e1e" text-anchor="middle" style="white-space: pre;" direction="ltr" dominant-baseline="alphabetic">创建PCB</text></g><g stroke-linecap="round" transform="translate(490 499) rotate(0 119 24)"><path d="M12 0 C77.18 1.33, 140.03 0.69, 226 0 M12 0 C71.26 1.85, 128.89 0.87, 226 0 M226 0 C232.85 1.65, 236.23 5.96, 238 12 M226 0 C233.98 -2, 236.36 1.93, 238 12 M238 12 C239.39 17.96, 236.03 29.63, 238 36 M238 12 C237.8 16.01, 238.84 22.3, 238 36 M238 36 C238.71 45.17, 232.14 47.02, 226 48 M238 36 C239.86 42.82, 234.94 48.46, 226 48 M226 48 C175.92 47.2, 125.1 45.99, 12 48 M226 48 C144.28 46.44, 62.37 47.67, 12 48 M12 48 C4.83 48.69, -0.86 44.41, 0 36 M12 48 C4.49 49.63, 2.22 44.5, 0 36 M0 36 C-1.95 29.98, 0.78 24.97, 0 12 M0 36 C-0.06 30.57, 0.07 24.33, 0 12 M0 12 C0.45 3.07, 4.75 -1.8, 12 0 M0 12 C-1.96 4.85, 2.03 -1.85, 12 0" stroke="#1e1e1e" stroke-width="2" fill="none"></path></g><g transform="translate(549 510.5) rotate(0 60 12.5)"><text x="60" y="17.52" font-family="Virgil, Segoe UI Emoji" font-size="20px" fill="#1e1e1e" text-anchor="middle" style="white-space: pre;" direction="ltr" dominant-baseline="alphabetic">放入就绪队列</text></g><g stroke-linecap="round"><g transform="translate(604 391) rotate(0 0 16)"><path d="M-0.55 -0.1 C-0.61 5.26, 0.12 26.93, 0.14 32.25 M0.17 -0.63 C0 4.56, -0.3 25.92, -0.22 31.41" stroke="#1e1e1e" stroke-width="2" fill="none"></path></g><g transform="translate(604 391) rotate(0 0 16)"><path d="M-5.66 16.36 C-3.66 22.52, -1 27.62, -0.22 31.41 M-5.66 16.36 C-4.03 20.66, -3 24.53, -0.22 31.41" stroke="#1e1e1e" stroke-width="2" fill="none"></path></g><g transform="translate(604 391) rotate(0 0 16)"><path d="M5.28 16.38 C2.97 22.48, 1.31 27.57, -0.22 31.41 M5.28 16.38 C4.01 20.7, 2.14 24.57, -0.22 31.41" stroke="#1e1e1e" stroke-width="2" fill="none"></path></g></g><mask></mask><g stroke-linecap="round"><g transform="translate(602 475) rotate(0 0 12)"><path d="M-0.02 -0.53 C-0.09 3.61, -0.21 20.38, -0.19 24.43 M-0.69 0.39 C-0.87 4.41, -0.8 19.71, -0.72 23.68" stroke="#1e1e1e" stroke-width="2" fill="none"></path></g><g transform="translate(602 475) rotate(0 0 12)"><path d="M-4.94 12.44 C-4.13 16.04, -1.66 20.12, -0.72 23.68 M-4.94 12.44 C-3.64 15.06, -3.07 18.16, -0.72 23.68" stroke="#1e1e1e" stroke-width="2" fill="none"></path></g><g transform="translate(602 475) rotate(0 0 12)"><path d="M3.27 12.36 C1.3 15.98, 0.99 20.1, -0.72 23.68 M3.27 12.36 C2.48 14.98, 0.96 18.09, -0.72 23.68" stroke="#1e1e1e" stroke-width="2" fill="none"></path></g></g><mask></mask></svg>